<?xml version="1.0" encoding="utf-8"?>
<!-- Generator: Adobe Illustrator 24.3.0, SVG Export Plug-In . SVG Version: 6.00 Build 0)  -->
<svg version="1.1" id="Capa_1" xmlns="http://www.w3.org/2000/svg" xmlns:xlink="http://www.w3.org/1999/xlink" x="0px" y="0px"
	 viewBox="0 0 701.4 664.5" style="enable-background:new 0 0 701.4 664.5;" xml:space="preserve">
<style type="text/css">
	.st0{fill:#94BE0C;}
	.st1{fill:#FF31A1;}
	.st2{fill:#FF692C;}
	.st3{clip-path:url(#SVGID_2_);fill:#6533FF;}
	.st4{clip-path:url(#SVGID_4_);fill:#DDB800;}
	.st5{enable-background:new    ;}
	.st6{fill:#FFFFFF;}
	.st7{clip-path:url(#SVGID_6_);fill:#CE0000;}
	.st8{fill:#CA9F7F;}
	.st9{fill:#363B45;}
	.st10{fill:#E0EAE7;}
	.st11{fill:#1B202A;}
	.st12{fill:#252D3E;}
	.st13{fill:#171C29;}
	.st14{fill:#262B39;}
	.st15{fill:#CCCCCC;}
	.st16{fill:#331814;}
	.st17{fill:url(#Trazado_1999_1_);}
	.st18{fill:#D3A62A;}
	.st19{fill:url(#Trazado_2001_1_);}
	.st20{fill:#D34067;}
	.st21{fill:#B3835F;}
	.st22{fill:#87562E;}
	.st23{fill:#170000;}
	.st24{fill:#271918;}
</style>
<circle id="Elipse_189" class="st0" cx="228.4" cy="430.7" r="228.4"/>
<path id="Trazado_2524" class="st1" d="M297.2,261.3c92.5-92.5,242.4-92.5,334.8,0s92.5,242.4,0,334.8s-242.4,92.5-334.8,0
	S204.8,353.7,297.2,261.3z"/>
<circle id="Elipse_191" class="st2" cx="356" cy="235.9" r="235.9"/>
<g>
	<g>
		<defs>
			<circle id="SVGID_1_" cx="464.6" cy="428.6" r="235.9"/>
		</defs>
		<clipPath id="SVGID_2_">
			<use xlink:href="#SVGID_1_"  style="overflow:visible;"/>
		</clipPath>
		<path id="Trazado_2524_2_" class="st3" d="M523.4,403.2c-92.5,92.5-242.4,92.5-334.8,0s-92.5-242.4,0-334.8s242.4-92.5,334.8,0
			S615.9,310.8,523.4,403.2z"/>
	</g>
</g>
<g>
	<g>
		<defs>
			<circle id="SVGID_3_" cx="356" cy="235.9" r="235.9"/>
		</defs>
		<clipPath id="SVGID_4_">
			<use xlink:href="#SVGID_3_"  style="overflow:visible;"/>
		</clipPath>
		<circle id="Elipse_189_2_" class="st4" cx="228.4" cy="430.7" r="228.4"/>
	</g>
</g>
<g class="st5">
	<path class="st6" d="M40.1,461.4v-17h4.5v17H40.1z"/>
	<path class="st6" d="M48.1,461.4v-17.4l4.5-0.3v17.7H48.1z"/>
	<path class="st6" d="M68.2,449.3v12.1H66l-1.3-1.3c-0.4,0.3-0.9,0.5-1.4,0.8s-1.1,0.5-1.7,0.6c-0.6,0.2-1.2,0.3-1.9,0.3
		c-1,0-1.8-0.2-2.5-0.6c-0.6-0.4-1.1-1-1.4-1.7s-0.5-1.5-0.5-2.4v-7.8h4.6v7.4c0,0.4,0.1,0.7,0.3,1c0.2,0.3,0.5,0.5,1,0.5
		c0.2,0,0.4,0,0.7-0.1s0.6-0.2,0.9-0.3c0.3-0.1,0.6-0.2,0.8-0.3v-8.1H68.2z"/>
	<path class="st6" d="M71.3,457.4c0.3,0.2,0.7,0.3,1.1,0.4c0.4,0.1,0.8,0.2,1.3,0.3c0.4,0.1,0.8,0.1,1,0.1c0.2,0,0.4,0,0.5-0.1
		c0.2,0,0.3-0.1,0.4-0.2c0.1-0.1,0.1-0.2,0.1-0.3c0-0.1-0.1-0.1-0.2-0.2c-0.1-0.1-0.2-0.2-0.4-0.3c-0.2-0.1-0.4-0.2-0.6-0.2
		c-0.7-0.2-1.3-0.5-2-0.9c-0.7-0.3-1.2-0.8-1.7-1.3c-0.4-0.5-0.7-1.1-0.7-1.9c0-1.3,0.5-2.3,1.4-3c0.9-0.7,2.3-1.1,3.9-1.1
		c0.3,0,0.8,0,1.3,0.1c0.5,0.1,1.1,0.2,1.7,0.4c0.6,0.2,1.1,0.5,1.6,0.8l-1.3,2.9c-0.5-0.2-1-0.4-1.5-0.5c-0.5-0.1-1-0.2-1.5-0.2
		c-0.4,0-0.7,0-0.9,0.1c-0.2,0.1-0.4,0.2-0.4,0.4c0,0.1,0.1,0.2,0.4,0.3c0.2,0.1,0.5,0.3,0.9,0.4c0.7,0.2,1.3,0.5,2,0.9
		s1.2,0.8,1.6,1.3c0.4,0.5,0.6,1.1,0.6,1.9c0,1.3-0.4,2.3-1.3,3c-0.8,0.7-2.1,1.1-3.8,1.1c-0.3,0-0.8,0-1.5-0.1
		c-0.6-0.1-1.3-0.2-2-0.4c-0.7-0.2-1.3-0.5-1.7-0.9L71.3,457.4z"/>
	<path class="st6" d="M91,453.4h-3.6v3c0,0.5,0.1,0.9,0.4,1.2c0.3,0.3,0.6,0.4,1,0.4c0.3,0,0.5,0,0.9-0.1c0.3-0.1,0.6-0.2,0.9-0.4
		l1.3,3.1c-0.2,0.2-0.5,0.3-0.9,0.5s-0.8,0.3-1.2,0.4c-0.4,0.1-0.9,0.2-1.3,0.2c-1,0-1.9-0.2-2.8-0.5s-1.6-0.9-2.1-1.6
		c-0.5-0.7-0.8-1.6-0.8-2.7v-3.5H81v-3.6h1.9v-3.3l4.5-0.6v3.9h3.2L91,453.4z"/>
	<path class="st6" d="M93.4,461.4v-12.1h2.3l1.1,1.5c0.3-0.2,0.7-0.5,1.2-0.7c0.5-0.2,0.9-0.4,1.5-0.6c0.5-0.2,1-0.2,1.4-0.2
		l0.9,3.7c-0.4,0-0.8,0.1-1.3,0.2s-0.9,0.3-1.4,0.5s-0.8,0.4-1.2,0.7v7.1H93.4z"/>
	<path class="st6" d="M103.2,450c0.4-0.2,0.9-0.4,1.5-0.6c0.6-0.2,1.2-0.3,1.9-0.4c0.7-0.1,1.3-0.2,2-0.2c1.1,0,2,0.2,2.8,0.6
		s1.3,1,1.7,1.8s0.6,1.6,0.6,2.7v7.5h-2.2l-1.3-1.3c-0.4,0.5-0.8,0.9-1.3,1.1c-0.5,0.3-0.9,0.4-1.5,0.4c-1.5,0-2.7-0.4-3.4-1.2
		s-1.1-1.8-1.1-3c0-1.3,0.4-2.2,1.3-2.8c0.9-0.5,2-0.8,3.4-0.8h1.5l0-0.1c-0.1-0.5-0.3-0.8-0.6-1s-0.6-0.3-1-0.3
		c-0.4,0-0.9,0.1-1.5,0.2c-0.6,0.1-1.1,0.3-1.6,0.5L103.2,450z M106.7,457.9c0.1,0.1,0.2,0.2,0.3,0.3s0.3,0.1,0.4,0.1
		c0.3,0,0.5-0.1,0.8-0.2c0.3-0.1,0.5-0.3,0.8-0.5v-1.2h-1.4c-0.3,0-0.5,0.1-0.7,0.3c-0.2,0.2-0.3,0.4-0.3,0.7
		C106.6,457.6,106.6,457.8,106.7,457.9z"/>
	<path class="st6" d="M126,459.5c-0.3,0.4-0.7,0.7-1.2,1.1c-0.5,0.3-1,0.6-1.6,0.8c-0.6,0.2-1.2,0.3-1.8,0.3c-1.2,0-2.2-0.2-3.2-0.7
		c-0.9-0.4-1.7-1.1-2.2-2.1c-0.5-0.9-0.8-2.1-0.8-3.6c0-1.5,0.3-2.7,0.8-3.6c0.5-1,1.3-1.7,2.3-2.2c1-0.5,2.1-0.7,3.3-0.7
		c0.5,0,1,0.1,1.5,0.2c0.5,0.2,1,0.4,1.4,0.7c0.5,0.3,0.9,0.8,1.4,1.3l-1.3,2.7c-0.5-0.4-1-0.8-1.4-1c-0.5-0.2-0.9-0.4-1.4-0.4
		c-0.4,0-0.7,0.1-1,0.3c-0.3,0.2-0.6,0.6-0.7,1c-0.2,0.4-0.3,1-0.3,1.6c0,0.6,0.1,1.1,0.3,1.6c0.2,0.4,0.4,0.7,0.8,1
		c0.3,0.2,0.7,0.3,1.2,0.3c0.4,0,0.8-0.2,1.2-0.5s0.9-0.7,1.4-1.2L126,459.5z M123.2,444.1l4.6-0.3v17.7h-2.3l-2.3-2.9V444.1z"/>
	<path class="st6" d="M136.6,461.7c-1.3,0-2.5-0.2-3.5-0.7c-1-0.5-1.8-1.2-2.4-2.1c-0.6-1-0.9-2.1-0.9-3.6c0-1.4,0.3-2.5,0.9-3.5
		c0.6-1,1.4-1.7,2.5-2.2c1-0.5,2.2-0.8,3.5-0.8c1.3,0,2.5,0.2,3.5,0.7c1,0.5,1.8,1.2,2.4,2.2s0.9,2.2,0.9,3.6c0,1.3-0.3,2.5-0.9,3.4
		c-0.6,0.9-1.5,1.6-2.5,2.1C139,461.5,137.9,461.7,136.6,461.7z M136.6,458c0.5,0,0.9-0.1,1.2-0.3c0.3-0.2,0.6-0.5,0.8-0.9
		c0.2-0.4,0.3-0.9,0.3-1.4c0-0.5-0.1-1-0.3-1.5c-0.2-0.4-0.4-0.8-0.7-1c-0.3-0.3-0.7-0.4-1.2-0.4s-0.9,0.1-1.2,0.3
		c-0.3,0.2-0.6,0.5-0.8,0.9c-0.2,0.4-0.3,0.9-0.3,1.5c0,0.5,0.1,1,0.3,1.4c0.2,0.4,0.4,0.7,0.7,1C135.8,457.9,136.2,458,136.6,458z"
		/>
	<path class="st6" d="M145.3,461.4v-12.1h2.3l1.1,1.5c0.3-0.2,0.7-0.5,1.2-0.7c0.5-0.2,0.9-0.4,1.5-0.6c0.5-0.2,1-0.2,1.4-0.2
		l0.9,3.7c-0.4,0-0.8,0.1-1.3,0.2s-0.9,0.3-1.4,0.5s-0.8,0.4-1.2,0.7v7.1H145.3z"/>
	<path class="st6" d="M159.4,456.5c0.1,0.3,0.3,0.6,0.5,0.9c0.2,0.3,0.5,0.4,0.9,0.6c0.4,0.1,0.8,0.2,1.3,0.2c0.7,0,1.4-0.1,1.9-0.3
		c0.6-0.2,1-0.4,1.4-0.5l1.3,3.1c-0.3,0.2-0.7,0.5-1.3,0.7c-0.5,0.2-1.1,0.4-1.8,0.5c-0.6,0.1-1.3,0.2-2,0.2c-1.4,0-2.6-0.2-3.7-0.7
		s-2-1.2-2.6-2.1c-0.6-0.9-0.9-2.1-0.9-3.5s0.3-2.5,0.9-3.5c0.6-1,1.4-1.7,2.4-2.2c1-0.5,2.1-0.8,3.3-0.8c1.3,0,2.4,0.3,3.2,0.9
		c0.9,0.6,1.5,1.3,1.9,2.3c0.4,1,0.6,2,0.6,3.1v1.3H159.4z M162.4,454.3c0-0.2-0.1-0.5-0.2-0.8s-0.3-0.5-0.5-0.7s-0.5-0.3-0.9-0.3
		c-0.3,0-0.5,0.1-0.8,0.2s-0.4,0.4-0.6,0.6c-0.1,0.3-0.2,0.5-0.2,0.9H162.4z"/>
	<path class="st6" d="M169.1,457.4c0.3,0.2,0.7,0.3,1.1,0.4c0.4,0.1,0.8,0.2,1.3,0.3c0.4,0.1,0.8,0.1,1,0.1c0.2,0,0.4,0,0.5-0.1
		c0.2,0,0.3-0.1,0.4-0.2c0.1-0.1,0.1-0.2,0.1-0.3c0-0.1-0.1-0.1-0.2-0.2c-0.1-0.1-0.2-0.2-0.4-0.3c-0.2-0.1-0.4-0.2-0.6-0.2
		c-0.7-0.2-1.3-0.5-2-0.9c-0.7-0.3-1.2-0.8-1.7-1.3c-0.4-0.5-0.7-1.1-0.7-1.9c0-1.3,0.5-2.3,1.4-3c0.9-0.7,2.3-1.1,3.9-1.1
		c0.3,0,0.8,0,1.3,0.1c0.5,0.1,1.1,0.2,1.7,0.4c0.6,0.2,1.1,0.5,1.6,0.8l-1.3,2.9c-0.5-0.2-1-0.4-1.5-0.5c-0.5-0.1-1-0.2-1.5-0.2
		c-0.4,0-0.7,0-0.9,0.1c-0.2,0.1-0.4,0.2-0.4,0.4c0,0.1,0.1,0.2,0.4,0.3c0.2,0.1,0.5,0.3,0.9,0.4c0.7,0.2,1.3,0.5,2,0.9
		s1.2,0.8,1.6,1.3c0.4,0.5,0.6,1.1,0.6,1.9c0,1.3-0.4,2.3-1.3,3c-0.8,0.7-2.1,1.1-3.8,1.1c-0.3,0-0.8,0-1.5-0.1
		c-0.6-0.1-1.3-0.2-2-0.4c-0.7-0.2-1.3-0.5-1.7-0.9L169.1,457.4z"/>
	<path class="st6" d="M183.2,458.5c0.5,0.5,0.7,1.1,0.7,1.9c0,0.7-0.2,1.3-0.5,1.9c-0.3,0.6-0.8,1.2-1.4,1.7c-0.6,0.5-1.3,0.9-2,1.2
		l-0.9-2c0.2-0.1,0.5-0.3,0.8-0.6c0.3-0.3,0.5-0.5,0.5-0.7c-0.2-0.1-0.4-0.3-0.5-0.5c-0.2-0.2-0.3-0.4-0.4-0.7s-0.1-0.5-0.1-0.8
		c0-0.4,0.1-0.8,0.3-1.1c0.2-0.4,0.5-0.6,0.8-0.9c0.4-0.2,0.7-0.3,1.2-0.3C182.2,457.8,182.7,458,183.2,458.5z"/>
</g>
<g class="st5">
	<path class="st6" d="M49.4,498.5c-0.3,0.4-0.7,0.7-1.2,1.1c-0.5,0.3-1,0.6-1.6,0.8c-0.6,0.2-1.2,0.3-1.8,0.3
		c-1.2,0-2.2-0.2-3.2-0.7c-0.9-0.4-1.7-1.1-2.2-2.1c-0.5-0.9-0.8-2.1-0.8-3.6c0-1.5,0.3-2.7,0.8-3.6c0.5-1,1.3-1.7,2.3-2.2
		c1-0.5,2.1-0.7,3.3-0.7c0.5,0,1,0.1,1.5,0.2c0.5,0.2,1,0.4,1.4,0.7c0.5,0.3,0.9,0.8,1.4,1.3l-1.3,2.7c-0.5-0.4-1-0.8-1.4-1
		c-0.5-0.2-0.9-0.4-1.4-0.4c-0.4,0-0.7,0.1-1,0.3c-0.3,0.2-0.6,0.6-0.7,1c-0.2,0.4-0.3,1-0.3,1.6c0,0.6,0.1,1.1,0.3,1.6
		c0.2,0.4,0.4,0.7,0.8,1c0.3,0.2,0.7,0.3,1.2,0.3c0.4,0,0.8-0.2,1.2-0.5s0.9-0.7,1.4-1.2L49.4,498.5z M46.6,483.1l4.6-0.3v17.7h-2.3
		l-2.3-2.9V483.1z"/>
	<path class="st6" d="M54.4,485.9c-0.5-0.5-0.7-1.1-0.7-1.7c0-0.7,0.2-1.3,0.7-1.8s1.1-0.7,1.7-0.7c0.7,0,1.3,0.2,1.8,0.7
		c0.5,0.5,0.7,1.1,0.7,1.8c0,0.7-0.2,1.2-0.7,1.7c-0.5,0.5-1.1,0.7-1.8,0.7C55.5,486.7,54.9,486.4,54.4,485.9z M53.9,500.4v-12.1
		h4.5v12.1H53.9z"/>
	<path class="st6" d="M61.5,496.4c0.3,0.2,0.7,0.3,1.1,0.4c0.4,0.1,0.8,0.2,1.3,0.3c0.4,0.1,0.8,0.1,1,0.1c0.2,0,0.4,0,0.5-0.1
		c0.2,0,0.3-0.1,0.4-0.2c0.1-0.1,0.1-0.2,0.1-0.3c0-0.1-0.1-0.1-0.2-0.2c-0.1-0.1-0.2-0.2-0.4-0.3c-0.2-0.1-0.4-0.2-0.6-0.2
		c-0.7-0.2-1.3-0.5-2-0.9c-0.7-0.3-1.2-0.8-1.7-1.3c-0.4-0.5-0.7-1.1-0.7-1.9c0-1.3,0.5-2.3,1.4-3c0.9-0.7,2.3-1.1,3.9-1.1
		c0.3,0,0.8,0,1.3,0.1c0.5,0.1,1.1,0.2,1.7,0.4c0.6,0.2,1.1,0.5,1.6,0.8l-1.3,2.9c-0.5-0.2-1-0.4-1.5-0.5c-0.5-0.1-1-0.2-1.5-0.2
		c-0.4,0-0.7,0-0.9,0.1c-0.2,0.1-0.4,0.2-0.4,0.4c0,0.1,0.1,0.2,0.4,0.3c0.2,0.1,0.5,0.3,0.9,0.4c0.7,0.2,1.3,0.5,2,0.9
		s1.2,0.8,1.6,1.3c0.4,0.5,0.6,1.1,0.6,1.9c0,1.3-0.4,2.3-1.3,3c-0.8,0.7-2.1,1.1-3.8,1.1c-0.3,0-0.8,0-1.5-0.1
		c-0.6-0.1-1.3-0.2-2-0.4c-0.7-0.2-1.3-0.5-1.7-0.9L61.5,496.4z"/>
	<path class="st6" d="M76.4,495.5c0.1,0.3,0.3,0.6,0.5,0.9c0.2,0.3,0.5,0.4,0.9,0.6c0.4,0.1,0.8,0.2,1.3,0.2c0.7,0,1.4-0.1,1.9-0.3
		c0.6-0.2,1-0.4,1.4-0.5l1.3,3.1c-0.3,0.2-0.7,0.5-1.3,0.7c-0.5,0.2-1.1,0.4-1.8,0.5c-0.6,0.1-1.3,0.2-2,0.2c-1.4,0-2.6-0.2-3.7-0.7
		s-2-1.2-2.6-2.1c-0.6-0.9-0.9-2.1-0.9-3.5s0.3-2.5,0.9-3.5c0.6-1,1.4-1.7,2.4-2.2c1-0.5,2.1-0.8,3.3-0.8c1.3,0,2.4,0.3,3.2,0.9
		c0.9,0.6,1.5,1.3,1.9,2.3c0.4,1,0.6,2,0.6,3.1v1.3H76.4z M79.5,493.3c0-0.2-0.1-0.5-0.2-0.8s-0.3-0.5-0.5-0.7s-0.5-0.3-0.9-0.3
		c-0.3,0-0.5,0.1-0.8,0.2s-0.4,0.4-0.6,0.6c-0.1,0.3-0.2,0.5-0.2,0.9H79.5z"/>
	<path class="st6" d="M85.6,500.4v-12.1h2.7l0.8,1.3c0.4-0.3,0.9-0.5,1.4-0.8c0.5-0.3,1.1-0.5,1.7-0.6c0.6-0.2,1.2-0.3,1.9-0.3
		c1,0,1.9,0.2,2.5,0.6s1.1,1,1.4,1.7c0.3,0.7,0.5,1.5,0.5,2.4v7.8h-4.6V493c0-0.4-0.1-0.7-0.3-1c-0.2-0.3-0.5-0.4-1-0.4
		c-0.2,0-0.4,0-0.7,0.1c-0.3,0.1-0.6,0.2-0.9,0.3c-0.3,0.1-0.6,0.2-0.8,0.3v8.2H85.6z M97.6,481.6c0,1-0.1,1.8-0.4,2.4
		c-0.3,0.6-0.7,1-1.1,1.3c-0.5,0.3-0.9,0.4-1.5,0.4c-0.3,0-0.5,0-0.8-0.1c-0.2-0.1-0.4-0.2-0.6-0.3c-0.2-0.1-0.4-0.2-0.5-0.3
		c-0.2-0.1-0.4-0.1-0.6-0.1c-0.2,0-0.3,0.1-0.5,0.3c-0.1,0.2-0.2,0.3-0.2,0.5h-3.1c0-1,0.2-1.8,0.5-2.4c0.3-0.6,0.7-1,1.2-1.3
		c0.5-0.3,1-0.4,1.5-0.4c0.3,0,0.6,0.1,0.8,0.2c0.2,0.1,0.5,0.2,0.7,0.3c0.1,0.1,0.3,0.2,0.5,0.2s0.4,0.1,0.6,0.1
		c0.1,0,0.3-0.1,0.4-0.2c0.1-0.1,0.2-0.3,0.2-0.5H97.6z"/>
	<path class="st6" d="M100.8,489c0.4-0.2,0.9-0.4,1.5-0.6c0.6-0.2,1.2-0.3,1.9-0.4c0.7-0.1,1.3-0.2,2-0.2c1.1,0,2,0.2,2.8,0.6
		s1.3,1,1.7,1.8s0.6,1.6,0.6,2.7v7.5h-2.2l-1.3-1.3c-0.4,0.5-0.8,0.9-1.3,1.1c-0.5,0.3-0.9,0.4-1.5,0.4c-1.5,0-2.7-0.4-3.4-1.2
		s-1.1-1.8-1.1-3c0-1.3,0.4-2.2,1.3-2.8c0.9-0.5,2-0.8,3.4-0.8h1.5l0-0.1c-0.1-0.5-0.3-0.8-0.6-1s-0.6-0.3-1-0.3
		c-0.4,0-0.9,0.1-1.5,0.2c-0.6,0.1-1.1,0.3-1.6,0.5L100.8,489z M104.3,496.9c0.1,0.1,0.2,0.2,0.3,0.3s0.3,0.1,0.4,0.1
		c0.3,0,0.5-0.1,0.8-0.2c0.3-0.1,0.5-0.3,0.8-0.5v-1.2h-1.4c-0.3,0-0.5,0.1-0.7,0.3c-0.2,0.2-0.3,0.4-0.3,0.7
		C104.2,496.6,104.2,496.8,104.3,496.9z"/>
	<path class="st6" d="M123.6,498.5c-0.3,0.4-0.7,0.7-1.2,1.1c-0.5,0.3-1,0.6-1.6,0.8c-0.6,0.2-1.2,0.3-1.8,0.3
		c-1.2,0-2.2-0.2-3.2-0.7c-0.9-0.4-1.7-1.1-2.2-2.1c-0.5-0.9-0.8-2.1-0.8-3.6c0-1.5,0.3-2.7,0.8-3.6c0.5-1,1.3-1.7,2.3-2.2
		c1-0.5,2.1-0.7,3.3-0.7c0.5,0,1,0.1,1.5,0.2c0.5,0.2,1,0.4,1.4,0.7c0.5,0.3,0.9,0.8,1.4,1.3l-1.3,2.7c-0.5-0.4-1-0.8-1.4-1
		c-0.5-0.2-0.9-0.4-1.4-0.4c-0.4,0-0.7,0.1-1,0.3c-0.3,0.2-0.6,0.6-0.7,1c-0.2,0.4-0.3,1-0.3,1.6c0,0.6,0.1,1.1,0.3,1.6
		c0.2,0.4,0.4,0.7,0.8,1c0.3,0.2,0.7,0.3,1.2,0.3c0.4,0,0.8-0.2,1.2-0.5s0.9-0.7,1.4-1.2L123.6,498.5z M120.8,483.1l4.6-0.3v17.7
		h-2.3l-2.3-2.9V483.1z"/>
	<path class="st6" d="M134.1,500.7c-1.3,0-2.5-0.2-3.5-0.7c-1-0.5-1.8-1.2-2.4-2.1c-0.6-1-0.9-2.1-0.9-3.6c0-1.4,0.3-2.5,0.9-3.5
		c0.6-1,1.4-1.7,2.5-2.2c1-0.5,2.2-0.8,3.5-0.8c1.3,0,2.5,0.2,3.5,0.7c1,0.5,1.8,1.2,2.4,2.2s0.9,2.2,0.9,3.6c0,1.3-0.3,2.5-0.9,3.4
		c-0.6,0.9-1.5,1.6-2.5,2.1C136.6,500.5,135.4,500.7,134.1,500.7z M134.2,497c0.5,0,0.9-0.1,1.2-0.3c0.3-0.2,0.6-0.5,0.8-0.9
		c0.2-0.4,0.3-0.9,0.3-1.4c0-0.5-0.1-1-0.3-1.5c-0.2-0.4-0.4-0.8-0.7-1c-0.3-0.3-0.7-0.4-1.2-0.4s-0.9,0.1-1.2,0.3
		c-0.3,0.2-0.6,0.5-0.8,0.9c-0.2,0.4-0.3,0.9-0.3,1.5c0,0.5,0.1,1,0.3,1.4c0.2,0.4,0.4,0.7,0.7,1C133.4,496.9,133.7,497,134.2,497z"
		/>
	<path class="st6" d="M142.9,500.4v-12.1h2.3l1.1,1.5c0.3-0.2,0.7-0.5,1.2-0.7c0.5-0.2,0.9-0.4,1.5-0.6c0.5-0.2,1-0.2,1.4-0.2
		l0.9,3.7c-0.4,0-0.8,0.1-1.3,0.2s-0.9,0.3-1.4,0.5s-0.8,0.4-1.2,0.7v7.1H142.9z"/>
	<path class="st6" d="M156.9,495.5c0.1,0.3,0.3,0.6,0.5,0.9c0.2,0.3,0.5,0.4,0.9,0.6c0.4,0.1,0.8,0.2,1.3,0.2c0.7,0,1.4-0.1,1.9-0.3
		c0.6-0.2,1-0.4,1.4-0.5l1.3,3.1c-0.3,0.2-0.7,0.5-1.3,0.7c-0.5,0.2-1.1,0.4-1.8,0.5c-0.6,0.1-1.3,0.2-2,0.2c-1.4,0-2.6-0.2-3.7-0.7
		s-2-1.2-2.6-2.1c-0.6-0.9-0.9-2.1-0.9-3.5s0.3-2.5,0.9-3.5c0.6-1,1.4-1.7,2.4-2.2c1-0.5,2.1-0.8,3.3-0.8c1.3,0,2.4,0.3,3.2,0.9
		c0.9,0.6,1.5,1.3,1.9,2.3c0.4,1,0.6,2,0.6,3.1v1.3H156.9z M160,493.3c0-0.2-0.1-0.5-0.2-0.8s-0.3-0.5-0.5-0.7s-0.5-0.3-0.9-0.3
		c-0.3,0-0.5,0.1-0.8,0.2s-0.4,0.4-0.6,0.6c-0.1,0.3-0.2,0.5-0.2,0.9H160z"/>
	<path class="st6" d="M166.6,496.4c0.3,0.2,0.7,0.3,1.1,0.4c0.4,0.1,0.8,0.2,1.3,0.3c0.4,0.1,0.8,0.1,1,0.1c0.2,0,0.4,0,0.5-0.1
		c0.2,0,0.3-0.1,0.4-0.2c0.1-0.1,0.1-0.2,0.1-0.3c0-0.1-0.1-0.1-0.2-0.2c-0.1-0.1-0.2-0.2-0.4-0.3c-0.2-0.1-0.4-0.2-0.6-0.2
		c-0.7-0.2-1.3-0.5-2-0.9c-0.7-0.3-1.2-0.8-1.7-1.3c-0.4-0.5-0.7-1.1-0.7-1.9c0-1.3,0.5-2.3,1.4-3c0.9-0.7,2.3-1.1,3.9-1.1
		c0.3,0,0.8,0,1.3,0.1c0.5,0.1,1.1,0.2,1.7,0.4c0.6,0.2,1.1,0.5,1.6,0.8l-1.3,2.9c-0.5-0.2-1-0.4-1.5-0.5c-0.5-0.1-1-0.2-1.5-0.2
		c-0.4,0-0.7,0-0.9,0.1c-0.2,0.1-0.4,0.2-0.4,0.4c0,0.1,0.1,0.2,0.4,0.3c0.2,0.1,0.5,0.3,0.9,0.4c0.7,0.2,1.3,0.5,2,0.9
		s1.2,0.8,1.6,1.3c0.4,0.5,0.6,1.1,0.6,1.9c0,1.3-0.4,2.3-1.3,3c-0.8,0.7-2.1,1.1-3.8,1.1c-0.3,0-0.8,0-1.5-0.1
		c-0.6-0.1-1.3-0.2-2-0.4c-0.7-0.2-1.3-0.5-1.7-0.9L166.6,496.4z"/>
</g>
<g class="st5">
	<path class="st6" d="M42.7,539.2l-4.4-11.2l4.2-1.2l2.5,7.3l2.3-6.8h4.5l-5.3,13.5c-0.3,0.7-0.7,1.3-1.2,1.8c-0.6,0.6-1.2,1-2,1.4
		c-0.8,0.4-1.5,0.7-2.3,0.8l-1.5-3.5c0.4-0.2,0.8-0.4,1.3-0.5c0.4-0.2,0.8-0.4,1.2-0.7s0.6-0.5,0.6-0.7L42.7,539.2z"/>
	<path class="st6" d="M58.8,528c0.4-0.2,0.9-0.4,1.5-0.6c0.6-0.2,1.2-0.3,1.9-0.4c0.7-0.1,1.3-0.2,2-0.2c1.1,0,2,0.2,2.8,0.6
		s1.3,1,1.7,1.8s0.6,1.6,0.6,2.7v7.5H67l-1.3-1.3c-0.4,0.5-0.8,0.9-1.3,1.1c-0.5,0.3-0.9,0.4-1.5,0.4c-1.5,0-2.7-0.4-3.4-1.2
		s-1.1-1.8-1.1-3c0-1.3,0.4-2.2,1.3-2.8c0.9-0.5,2-0.8,3.4-0.8h1.5l0-0.1c-0.1-0.5-0.3-0.8-0.6-1s-0.6-0.3-1-0.3
		c-0.4,0-0.9,0.1-1.5,0.2c-0.6,0.1-1.1,0.3-1.6,0.5L58.8,528z M62.3,535.9c0.1,0.1,0.2,0.2,0.3,0.3s0.3,0.1,0.4,0.1
		c0.3,0,0.5-0.1,0.8-0.2c0.3-0.1,0.5-0.3,0.8-0.5v-1.2h-1.4c-0.3,0-0.5,0.1-0.7,0.3c-0.2,0.2-0.3,0.4-0.3,0.7
		C62.2,535.6,62.2,535.8,62.3,535.9z"/>
	<path class="st6" d="M71.6,539.4v-12.1h2.7l0.8,1.3c0.4-0.3,0.9-0.5,1.4-0.8c0.5-0.3,1.1-0.5,1.7-0.6c0.6-0.2,1.2-0.3,1.9-0.3
		c1,0,1.9,0.2,2.5,0.6s1.1,1,1.4,1.7c0.3,0.7,0.5,1.5,0.5,2.4v7.8h-4.6V532c0-0.4-0.1-0.7-0.3-1c-0.2-0.3-0.5-0.4-1-0.4
		c-0.2,0-0.4,0-0.7,0.1c-0.3,0.1-0.6,0.2-0.9,0.3c-0.3,0.1-0.6,0.2-0.8,0.3v8.2H71.6z"/>
	<path class="st6" d="M87.4,524.9c-0.5-0.5-0.7-1.1-0.7-1.7c0-0.7,0.2-1.3,0.7-1.8s1.1-0.7,1.7-0.7c0.7,0,1.3,0.2,1.8,0.7
		c0.5,0.5,0.7,1.1,0.7,1.8c0,0.7-0.2,1.2-0.7,1.7c-0.5,0.5-1.1,0.7-1.8,0.7C88.4,525.7,87.8,525.4,87.4,524.9z M86.8,539.4v-12.1
		h4.5v12.1H86.8z"/>
	<path class="st6" d="M93.9,539.4v-12.1h2.7l0.8,1.3c0.4-0.3,0.9-0.5,1.4-0.8c0.5-0.3,1.1-0.5,1.7-0.6c0.6-0.2,1.2-0.3,1.8-0.3
		c1.1,0,1.9,0.2,2.5,0.6s1.1,1,1.3,1.7c0.3,0.7,0.4,1.5,0.4,2.4v7.8h-4.6V532c0-0.3,0-0.5-0.1-0.7c0-0.2-0.1-0.4-0.3-0.5
		c-0.2-0.1-0.4-0.2-0.8-0.2c-0.1,0-0.4,0-0.6,0.1c-0.3,0.1-0.6,0.2-0.9,0.3c-0.3,0.1-0.6,0.2-0.8,0.3v8.2H93.9z M105.4,528.6
		c0.4-0.3,0.9-0.5,1.4-0.8c0.5-0.3,1.1-0.5,1.7-0.6c0.6-0.2,1.2-0.3,1.8-0.3c1.1,0,1.9,0.2,2.5,0.6s1.1,1,1.3,1.7
		c0.3,0.7,0.4,1.5,0.4,2.4v7.8H110V532c0-0.3,0-0.5-0.1-0.7c0-0.2-0.1-0.4-0.3-0.5c-0.2-0.1-0.4-0.2-0.8-0.2c-0.1,0-0.4,0-0.6,0.1
		c-0.3,0.1-0.6,0.2-0.9,0.3c-0.3,0.1-0.6,0.2-0.8,0.3L105.4,528.6z"/>
	<path class="st6" d="M116.9,528c0.4-0.2,0.9-0.4,1.5-0.6c0.6-0.2,1.2-0.3,1.9-0.4c0.7-0.1,1.3-0.2,2-0.2c1.1,0,2,0.2,2.8,0.6
		s1.3,1,1.7,1.8s0.6,1.6,0.6,2.7v7.5H125l-1.3-1.3c-0.4,0.5-0.8,0.9-1.3,1.1c-0.5,0.3-0.9,0.4-1.5,0.4c-1.5,0-2.7-0.4-3.4-1.2
		s-1.1-1.8-1.1-3c0-1.3,0.4-2.2,1.3-2.8c0.9-0.5,2-0.8,3.4-0.8h1.5l0-0.1c-0.1-0.5-0.3-0.8-0.6-1s-0.6-0.3-1-0.3
		c-0.4,0-0.9,0.1-1.5,0.2c-0.6,0.1-1.1,0.3-1.6,0.5L116.9,528z M120.4,535.9c0.1,0.1,0.2,0.2,0.3,0.3s0.3,0.1,0.4,0.1
		c0.3,0,0.5-0.1,0.8-0.2c0.3-0.1,0.5-0.3,0.8-0.5v-1.2h-1.4c-0.3,0-0.5,0.1-0.7,0.3c-0.2,0.2-0.3,0.4-0.3,0.7
		C120.3,535.6,120.3,535.8,120.4,535.9z"/>
	<path class="st6" d="M139.7,537.5c-0.3,0.4-0.7,0.7-1.2,1.1c-0.5,0.3-1,0.6-1.6,0.8c-0.6,0.2-1.2,0.3-1.8,0.3
		c-1.2,0-2.2-0.2-3.2-0.7c-0.9-0.4-1.7-1.1-2.2-2.1c-0.5-0.9-0.8-2.1-0.8-3.6c0-1.5,0.3-2.7,0.8-3.6c0.5-1,1.3-1.7,2.3-2.2
		c1-0.5,2.1-0.7,3.3-0.7c0.5,0,1,0.1,1.5,0.2c0.5,0.2,1,0.4,1.4,0.7c0.5,0.3,0.9,0.8,1.4,1.3l-1.3,2.7c-0.5-0.4-1-0.8-1.4-1
		c-0.5-0.2-0.9-0.4-1.4-0.4c-0.4,0-0.7,0.1-1,0.3c-0.3,0.2-0.6,0.6-0.7,1c-0.2,0.4-0.3,1-0.3,1.6c0,0.6,0.1,1.1,0.3,1.6
		c0.2,0.4,0.4,0.7,0.8,1c0.3,0.2,0.7,0.3,1.2,0.3c0.4,0,0.8-0.2,1.2-0.5s0.9-0.7,1.4-1.2L139.7,537.5z M136.9,522.1l4.6-0.3v17.7
		h-2.3l-2.3-2.9V522.1z"/>
	<path class="st6" d="M150.2,539.7c-1.3,0-2.5-0.2-3.5-0.7c-1-0.5-1.8-1.2-2.4-2.1c-0.6-1-0.9-2.1-0.9-3.6c0-1.4,0.3-2.5,0.9-3.5
		c0.6-1,1.4-1.7,2.5-2.2c1-0.5,2.2-0.8,3.5-0.8c1.3,0,2.5,0.2,3.5,0.7c1,0.5,1.8,1.2,2.4,2.2s0.9,2.2,0.9,3.6c0,1.3-0.3,2.5-0.9,3.4
		c-0.6,0.9-1.5,1.6-2.5,2.1C152.7,539.5,151.5,539.7,150.2,539.7z M150.3,536c0.5,0,0.9-0.1,1.2-0.3c0.3-0.2,0.6-0.5,0.8-0.9
		c0.2-0.4,0.3-0.9,0.3-1.4c0-0.5-0.1-1-0.3-1.5c-0.2-0.4-0.4-0.8-0.7-1c-0.3-0.3-0.7-0.4-1.2-0.4s-0.9,0.1-1.2,0.3
		c-0.3,0.2-0.6,0.5-0.8,0.9c-0.2,0.4-0.3,0.9-0.3,1.5c0,0.5,0.1,1,0.3,1.4c0.2,0.4,0.4,0.7,0.7,1C149.4,535.9,149.8,536,150.3,536z"
		/>
	<path class="st6" d="M159,539.4v-12.1h2.3l1.1,1.5c0.3-0.2,0.7-0.5,1.2-0.7c0.5-0.2,0.9-0.4,1.5-0.6c0.5-0.2,1-0.2,1.4-0.2l0.9,3.7
		c-0.4,0-0.8,0.1-1.3,0.2s-0.9,0.3-1.4,0.5s-0.8,0.4-1.2,0.7v7.1H159z"/>
	<path class="st6" d="M173,534.5c0.1,0.3,0.3,0.6,0.5,0.9c0.2,0.3,0.5,0.4,0.9,0.6c0.4,0.1,0.8,0.2,1.3,0.2c0.7,0,1.4-0.1,1.9-0.3
		c0.6-0.2,1-0.4,1.4-0.5l1.3,3.1c-0.3,0.2-0.7,0.5-1.3,0.7c-0.5,0.2-1.1,0.4-1.8,0.5c-0.6,0.1-1.3,0.2-2,0.2c-1.4,0-2.6-0.2-3.7-0.7
		s-2-1.2-2.6-2.1c-0.6-0.9-0.9-2.1-0.9-3.5s0.3-2.5,0.9-3.5c0.6-1,1.4-1.7,2.4-2.2c1-0.5,2.1-0.8,3.3-0.8c1.3,0,2.4,0.3,3.2,0.9
		c0.9,0.6,1.5,1.3,1.9,2.3c0.4,1,0.6,2,0.6,3.1v1.3H173z M176.1,532.3c0-0.2-0.1-0.5-0.2-0.8s-0.3-0.5-0.5-0.7s-0.5-0.3-0.9-0.3
		c-0.3,0-0.5,0.1-0.8,0.2s-0.4,0.4-0.6,0.6c-0.1,0.3-0.2,0.5-0.2,0.9H176.1z"/>
	<path class="st6" d="M182.7,535.4c0.3,0.2,0.7,0.3,1.1,0.4c0.4,0.1,0.8,0.2,1.3,0.3c0.4,0.1,0.8,0.1,1,0.1c0.2,0,0.4,0,0.5-0.1
		c0.2,0,0.3-0.1,0.4-0.2c0.1-0.1,0.1-0.2,0.1-0.3c0-0.1-0.1-0.1-0.2-0.2c-0.1-0.1-0.2-0.2-0.4-0.3c-0.2-0.1-0.4-0.2-0.6-0.2
		c-0.7-0.2-1.3-0.5-2-0.9c-0.7-0.3-1.2-0.8-1.7-1.3c-0.4-0.5-0.7-1.1-0.7-1.9c0-1.3,0.5-2.3,1.4-3c0.9-0.7,2.3-1.1,3.9-1.1
		c0.3,0,0.8,0,1.3,0.1c0.5,0.1,1.1,0.2,1.7,0.4c0.6,0.2,1.1,0.5,1.6,0.8l-1.3,2.9c-0.5-0.2-1-0.4-1.5-0.5c-0.5-0.1-1-0.2-1.5-0.2
		c-0.4,0-0.7,0-0.9,0.1c-0.2,0.1-0.4,0.2-0.4,0.4c0,0.1,0.1,0.2,0.4,0.3c0.2,0.1,0.5,0.3,0.9,0.4c0.7,0.2,1.3,0.5,2,0.9
		s1.2,0.8,1.6,1.3c0.4,0.5,0.6,1.1,0.6,1.9c0,1.3-0.4,2.3-1.3,3c-0.8,0.7-2.1,1.1-3.8,1.1c-0.3,0-0.8,0-1.5-0.1
		c-0.6-0.1-1.3-0.2-2-0.4c-0.7-0.2-1.3-0.5-1.7-0.9L182.7,535.4z"/>
</g>
<g class="st5">
	<path class="st6" d="M516.4,446.8c1.3,0,2.4,0.2,3.5,0.6c1.1,0.4,1.9,1,2.5,1.9c0.6,0.9,1,2,1,3.3c0,1-0.2,1.9-0.6,2.7
		c-0.4,0.8-1,1.4-1.7,1.8l3.8,6.7h-5.3l-2.8-5.3c-0.3,0-0.5,0-0.8,0s-0.5,0-0.8,0h-1.5v5.3h-4.5v-17H516.4z M513.8,450.4v4.5h2.5
		c0.5,0,0.9-0.1,1.2-0.3c0.4-0.2,0.6-0.5,0.9-0.8c0.2-0.3,0.3-0.7,0.3-1.2c0-0.5-0.1-0.9-0.3-1.3c-0.2-0.3-0.5-0.6-0.8-0.7
		s-0.8-0.2-1.3-0.2H513.8z"/>
	<path class="st6" d="M530.5,458.9c0.1,0.3,0.3,0.6,0.5,0.9s0.5,0.4,0.9,0.6c0.4,0.1,0.8,0.2,1.3,0.2c0.7,0,1.4-0.1,1.9-0.3
		c0.6-0.2,1-0.4,1.4-0.5l1.3,3.1c-0.3,0.2-0.7,0.5-1.3,0.7s-1.1,0.4-1.8,0.5c-0.7,0.1-1.3,0.2-2,0.2c-1.4,0-2.6-0.2-3.7-0.7
		c-1.1-0.5-2-1.2-2.6-2.1c-0.6-0.9-0.9-2.1-0.9-3.5s0.3-2.5,0.9-3.5s1.4-1.7,2.3-2.2c1-0.5,2.1-0.8,3.3-0.8c1.3,0,2.4,0.3,3.2,0.9
		c0.9,0.6,1.5,1.3,1.9,2.3c0.4,1,0.6,2,0.6,3.1v1.3H530.5z M533.6,456.6c0-0.2-0.1-0.5-0.2-0.8s-0.3-0.5-0.5-0.7
		c-0.2-0.2-0.5-0.3-0.9-0.3c-0.3,0-0.5,0.1-0.8,0.2s-0.4,0.4-0.6,0.6c-0.1,0.3-0.2,0.5-0.2,0.9H533.6z"/>
	<path class="st6" d="M549.7,461.9c-0.3,0.4-0.7,0.7-1.2,1.1c-0.5,0.3-1,0.6-1.6,0.8c-0.6,0.2-1.2,0.3-1.8,0.3
		c-1.2,0-2.2-0.2-3.2-0.7c-0.9-0.4-1.7-1.1-2.2-2.1s-0.8-2.1-0.8-3.6c0-1.5,0.3-2.7,0.8-3.6c0.5-1,1.3-1.7,2.3-2.2s2.1-0.7,3.3-0.7
		c0.5,0,1,0.1,1.5,0.2c0.5,0.2,1,0.4,1.4,0.7c0.5,0.3,0.9,0.8,1.4,1.3l-1.3,2.7c-0.5-0.4-1-0.8-1.4-1c-0.5-0.2-0.9-0.4-1.3-0.4
		c-0.4,0-0.7,0.1-1,0.3c-0.3,0.2-0.6,0.6-0.7,1c-0.2,0.4-0.3,1-0.3,1.6c0,0.6,0.1,1.1,0.3,1.6s0.4,0.7,0.8,1
		c0.3,0.2,0.7,0.3,1.2,0.3c0.4,0,0.8-0.2,1.2-0.5c0.4-0.3,0.9-0.7,1.3-1.2L549.7,461.9z M546.9,446.4l4.5-0.3v17.7h-2.3l-2.3-2.9
		V446.4z"/>
	<path class="st6" d="M554.2,452.4c0.4-0.2,0.9-0.4,1.5-0.6c0.6-0.2,1.2-0.3,1.8-0.4s1.3-0.2,2-0.2c1.1,0,2,0.2,2.8,0.6
		s1.3,1,1.7,1.8s0.6,1.6,0.6,2.7v7.5h-2.2l-1.3-1.3c-0.4,0.5-0.8,0.9-1.3,1.1s-0.9,0.4-1.5,0.4c-1.5,0-2.7-0.4-3.4-1.2
		s-1.1-1.8-1.1-3c0-1.3,0.4-2.2,1.3-2.8c0.9-0.5,2-0.8,3.4-0.8h1.5l0-0.1c-0.1-0.5-0.3-0.8-0.6-1s-0.6-0.3-1-0.3
		c-0.4,0-0.9,0.1-1.5,0.2s-1.1,0.3-1.5,0.5L554.2,452.4z M557.7,460.3c0.1,0.1,0.2,0.2,0.3,0.3s0.3,0.1,0.4,0.1
		c0.3,0,0.5-0.1,0.8-0.2c0.3-0.1,0.5-0.3,0.8-0.5v-1.2h-1.4c-0.3,0-0.5,0.1-0.7,0.3s-0.3,0.4-0.3,0.7
		C557.6,460,557.6,460.1,557.7,460.3z"/>
	<path class="st6" d="M577,462.9c-0.5,0.4-1,0.6-1.5,0.8s-1,0.3-1.5,0.3s-0.9,0.1-1.2,0.1c-1.3,0-2.5-0.2-3.5-0.7
		c-1-0.5-1.8-1.2-2.3-2.1c-0.6-0.9-0.8-2.1-0.8-3.4c0-1.4,0.3-2.5,0.8-3.5c0.6-1,1.3-1.7,2.3-2.2c1-0.5,2.2-0.8,3.5-0.8
		c0.3,0,0.7,0,1.2,0.1c0.5,0,1,0.2,1.5,0.3s1,0.4,1.5,0.8l-1.3,3.1c-0.5-0.3-0.9-0.4-1.3-0.5c-0.3-0.1-0.7-0.1-1.2-0.1
		c-0.4,0-0.8,0.1-1.2,0.3c-0.4,0.2-0.7,0.5-0.9,1c-0.2,0.4-0.3,0.9-0.3,1.5c0,0.6,0.1,1,0.3,1.4c0.2,0.4,0.5,0.7,0.9,0.9
		c0.4,0.2,0.8,0.3,1.2,0.3s0.8,0,1.2-0.1c0.4-0.1,0.8-0.3,1.3-0.5L577,462.9z"/>
	<path class="st6" d="M587.4,455.8h-3.6v3c0,0.5,0.1,0.9,0.4,1.2c0.3,0.3,0.6,0.4,1,0.4c0.3,0,0.5,0,0.9-0.1
		c0.3-0.1,0.6-0.2,0.9-0.4l1.3,3.1c-0.2,0.2-0.5,0.3-0.9,0.5s-0.8,0.3-1.2,0.4c-0.4,0.1-0.9,0.2-1.3,0.2c-1,0-1.9-0.2-2.8-0.5
		c-0.9-0.4-1.6-0.9-2.1-1.6c-0.5-0.7-0.8-1.6-0.8-2.7v-3.5h-1.9v-3.6h1.9v-3.3l4.5-0.6v3.9h3.2L587.4,455.8z"/>
	<path class="st6" d="M595.8,464.1c-1.3,0-2.5-0.2-3.5-0.7c-1-0.5-1.8-1.2-2.4-2.1s-0.9-2.1-0.9-3.6c0-1.4,0.3-2.5,0.9-3.5
		c0.6-1,1.4-1.7,2.5-2.2c1-0.5,2.2-0.8,3.5-0.8c1.3,0,2.5,0.2,3.5,0.7c1,0.5,1.8,1.2,2.4,2.2s0.9,2.2,0.9,3.6c0,1.3-0.3,2.5-0.9,3.4
		c-0.6,0.9-1.5,1.6-2.5,2.1C598.3,463.8,597.1,464.1,595.8,464.1z M595.9,460.4c0.5,0,0.9-0.1,1.2-0.3c0.3-0.2,0.6-0.5,0.8-0.9
		c0.2-0.4,0.3-0.9,0.3-1.4c0-0.5-0.1-1-0.3-1.5c-0.2-0.4-0.4-0.8-0.7-1c-0.3-0.3-0.7-0.4-1.2-0.4s-0.9,0.1-1.2,0.3
		c-0.3,0.2-0.6,0.5-0.8,0.9c-0.2,0.4-0.3,0.9-0.3,1.5c0,0.5,0.1,1,0.3,1.4c0.2,0.4,0.4,0.7,0.7,1C595,460.3,595.4,460.4,595.9,460.4
		z"/>
	<path class="st6" d="M604.5,463.8v-12.1h2.3l1.1,1.5c0.3-0.2,0.7-0.5,1.2-0.7s0.9-0.4,1.5-0.6c0.5-0.2,1-0.2,1.4-0.2l0.9,3.7
		c-0.4,0-0.8,0.1-1.3,0.2c-0.5,0.1-0.9,0.3-1.4,0.5s-0.8,0.4-1.2,0.7v7.1H604.5z"/>
	<path class="st6" d="M618.6,458.9c0.1,0.3,0.3,0.6,0.5,0.9s0.5,0.4,0.9,0.6c0.4,0.1,0.8,0.2,1.3,0.2c0.7,0,1.4-0.1,1.9-0.3
		c0.6-0.2,1-0.4,1.4-0.5l1.3,3.1c-0.3,0.2-0.7,0.5-1.3,0.7s-1.1,0.4-1.8,0.5c-0.7,0.1-1.3,0.2-2,0.2c-1.4,0-2.6-0.2-3.7-0.7
		c-1.1-0.5-2-1.2-2.6-2.1c-0.6-0.9-0.9-2.1-0.9-3.5s0.3-2.5,0.9-3.5s1.4-1.7,2.3-2.2c1-0.5,2.1-0.8,3.3-0.8c1.3,0,2.4,0.3,3.2,0.9
		c0.9,0.6,1.5,1.3,1.9,2.3c0.4,1,0.6,2,0.6,3.1v1.3H618.6z M621.6,456.6c0-0.2-0.1-0.5-0.2-0.8s-0.3-0.5-0.5-0.7
		c-0.2-0.2-0.5-0.3-0.9-0.3c-0.3,0-0.5,0.1-0.8,0.2s-0.4,0.4-0.6,0.6c-0.1,0.3-0.2,0.5-0.2,0.9H621.6z"/>
	<path class="st6" d="M628.3,459.8c0.3,0.2,0.7,0.3,1.1,0.4c0.4,0.1,0.8,0.2,1.3,0.3s0.8,0.1,1,0.1c0.2,0,0.4,0,0.5-0.1
		c0.2,0,0.3-0.1,0.4-0.2c0.1-0.1,0.1-0.2,0.1-0.3c0-0.1-0.1-0.1-0.2-0.2c-0.1-0.1-0.2-0.2-0.4-0.3c-0.2-0.1-0.4-0.2-0.6-0.2
		c-0.7-0.2-1.3-0.5-2-0.9c-0.7-0.3-1.2-0.8-1.7-1.3s-0.7-1.1-0.7-1.9c0-1.3,0.5-2.3,1.4-3s2.3-1.1,4-1.1c0.3,0,0.8,0,1.3,0.1
		c0.5,0.1,1.1,0.2,1.7,0.4c0.6,0.2,1.1,0.5,1.6,0.8l-1.3,2.9c-0.5-0.2-1-0.4-1.5-0.5c-0.5-0.1-1-0.2-1.5-0.2c-0.4,0-0.7,0-0.9,0.1
		c-0.2,0.1-0.3,0.2-0.3,0.4c0,0.1,0.1,0.2,0.4,0.3c0.2,0.1,0.5,0.3,0.9,0.4c0.7,0.2,1.3,0.5,2,0.9c0.6,0.3,1.2,0.8,1.6,1.3
		c0.4,0.5,0.6,1.1,0.6,1.9c0,1.3-0.4,2.3-1.3,3c-0.8,0.7-2.1,1.1-3.8,1.1c-0.3,0-0.8,0-1.5-0.1c-0.6-0.1-1.3-0.2-2-0.4
		c-0.7-0.2-1.3-0.5-1.7-0.9L628.3,459.8z"/>
</g>
<g class="st5">
	<path class="st6" d="M284.3,129l-2.8-3.3v8.2H277v-17h3.1l5.1,6.5l4.7-6.5h3v17h-4.6v-8.2l-2.3,3.1L284.3,129z"/>
	<path class="st6" d="M300.5,128.9c0.1,0.3,0.3,0.6,0.5,0.9c0.2,0.3,0.5,0.4,0.9,0.6c0.4,0.1,0.8,0.2,1.3,0.2c0.7,0,1.4-0.1,1.9-0.3
		c0.6-0.2,1-0.4,1.4-0.5l1.3,3.1c-0.3,0.2-0.7,0.5-1.3,0.7c-0.5,0.2-1.1,0.4-1.8,0.5c-0.6,0.1-1.3,0.2-2,0.2c-1.4,0-2.6-0.2-3.7-0.7
		s-2-1.2-2.6-2.1c-0.6-0.9-0.9-2.1-0.9-3.5s0.3-2.5,0.9-3.5c0.6-1,1.4-1.7,2.4-2.2c1-0.5,2.1-0.8,3.3-0.8c1.3,0,2.4,0.3,3.2,0.9
		c0.9,0.6,1.5,1.3,1.9,2.3c0.4,1,0.6,2,0.6,3.1v1.3H300.5z M303.5,126.7c0-0.2-0.1-0.5-0.2-0.8s-0.3-0.5-0.5-0.7s-0.5-0.3-0.9-0.3
		c-0.3,0-0.5,0.1-0.8,0.2s-0.4,0.4-0.6,0.6c-0.1,0.3-0.2,0.5-0.2,0.9H303.5z"/>
	<path class="st6" d="M309.6,133.8v-12.1h2.3l1.1,1.5c0.3-0.2,0.7-0.5,1.2-0.7c0.5-0.2,0.9-0.4,1.5-0.6c0.5-0.2,1-0.2,1.4-0.2
		l0.9,3.7c-0.4,0-0.8,0.1-1.3,0.2s-0.9,0.3-1.4,0.5s-0.8,0.4-1.2,0.7v7.1H309.6z"/>
	<path class="st6" d="M329.5,132.9c-0.5,0.4-1,0.6-1.5,0.8s-1,0.3-1.5,0.3c-0.5,0-0.9,0.1-1.2,0.1c-1.3,0-2.5-0.2-3.5-0.7
		c-1-0.5-1.8-1.2-2.3-2.1c-0.6-0.9-0.8-2.1-0.8-3.4c0-1.4,0.3-2.5,0.8-3.5c0.6-1,1.3-1.7,2.3-2.2c1-0.5,2.2-0.8,3.5-0.8
		c0.3,0,0.7,0,1.2,0.1c0.5,0,1,0.2,1.5,0.3s1,0.4,1.5,0.8l-1.3,3.1c-0.5-0.3-0.9-0.4-1.3-0.5c-0.4-0.1-0.7-0.1-1.2-0.1
		c-0.4,0-0.8,0.1-1.2,0.3c-0.4,0.2-0.7,0.5-0.9,1s-0.3,0.9-0.3,1.5c0,0.6,0.1,1,0.3,1.4s0.5,0.7,0.9,0.9c0.4,0.2,0.8,0.3,1.2,0.3
		c0.4,0,0.8,0,1.1-0.1c0.4-0.1,0.8-0.3,1.3-0.5L329.5,132.9z"/>
	<path class="st6" d="M330.8,122.4c0.4-0.2,0.9-0.4,1.5-0.6c0.6-0.2,1.2-0.3,1.9-0.4c0.7-0.1,1.3-0.2,2-0.2c1.1,0,2,0.2,2.8,0.6
		s1.3,1,1.7,1.8s0.6,1.6,0.6,2.7v7.5H339l-1.3-1.3c-0.4,0.5-0.8,0.9-1.3,1.1c-0.5,0.3-0.9,0.4-1.5,0.4c-1.5,0-2.7-0.4-3.4-1.2
		s-1.1-1.8-1.1-3c0-1.3,0.4-2.2,1.3-2.8c0.9-0.5,2-0.8,3.4-0.8h1.5l0-0.1c-0.1-0.5-0.3-0.8-0.6-1s-0.6-0.3-1-0.3
		c-0.4,0-0.9,0.1-1.5,0.2c-0.6,0.1-1.1,0.3-1.6,0.5L330.8,122.4z M334.4,130.3c0.1,0.1,0.2,0.2,0.3,0.3s0.3,0.1,0.4,0.1
		c0.3,0,0.5-0.1,0.8-0.2c0.3-0.1,0.5-0.3,0.8-0.5v-1.2h-1.4c-0.3,0-0.5,0.1-0.7,0.3c-0.2,0.2-0.3,0.4-0.3,0.7
		C334.2,130,334.3,130.2,334.4,130.3z"/>
	<path class="st6" d="M353.6,131.9c-0.3,0.4-0.7,0.7-1.2,1.1c-0.5,0.3-1,0.6-1.6,0.8c-0.6,0.2-1.2,0.3-1.8,0.3
		c-1.2,0-2.2-0.2-3.2-0.7c-0.9-0.4-1.7-1.1-2.2-2.1c-0.5-0.9-0.8-2.1-0.8-3.6c0-1.5,0.3-2.7,0.8-3.6c0.5-1,1.3-1.7,2.3-2.2
		c1-0.5,2.1-0.7,3.3-0.7c0.5,0,1,0.1,1.5,0.2c0.5,0.2,1,0.4,1.4,0.7s0.9,0.8,1.4,1.3l-1.3,2.7c-0.5-0.4-1-0.8-1.4-1
		c-0.5-0.2-0.9-0.4-1.4-0.4c-0.4,0-0.7,0.1-1,0.3c-0.3,0.2-0.6,0.6-0.7,1c-0.2,0.4-0.3,1-0.3,1.6c0,0.6,0.1,1.1,0.3,1.6
		c0.2,0.4,0.4,0.7,0.8,1c0.3,0.2,0.7,0.3,1.2,0.3c0.4,0,0.8-0.2,1.2-0.5s0.9-0.7,1.4-1.2L353.6,131.9z M350.9,116.5l4.6-0.3v17.7
		h-2.3l-2.2-2.9V116.5z"/>
	<path class="st6" d="M364.2,134.1c-1.3,0-2.5-0.2-3.5-0.7c-1-0.5-1.8-1.2-2.4-2.1s-0.9-2.1-0.9-3.6c0-1.4,0.3-2.5,0.9-3.5
		c0.6-1,1.4-1.7,2.5-2.2c1-0.5,2.2-0.8,3.5-0.8c1.3,0,2.5,0.2,3.5,0.7c1,0.5,1.8,1.2,2.4,2.2s0.9,2.2,0.9,3.6c0,1.3-0.3,2.5-0.9,3.4
		c-0.6,0.9-1.5,1.6-2.5,2.1C366.7,133.9,365.5,134.1,364.2,134.1z M365.3,119.1l2.9-5h-4.5l-1.7,4.4L365.3,119.1z M364.3,130.4
		c0.5,0,0.9-0.1,1.2-0.3c0.3-0.2,0.6-0.5,0.8-0.9c0.2-0.4,0.3-0.9,0.3-1.4c0-0.5-0.1-1-0.3-1.5c-0.2-0.4-0.4-0.8-0.7-1
		c-0.3-0.3-0.7-0.4-1.2-0.4s-0.9,0.1-1.2,0.3c-0.3,0.2-0.6,0.5-0.8,0.9c-0.2,0.4-0.3,0.9-0.3,1.5c0,0.5,0.1,1,0.3,1.4
		c0.2,0.4,0.4,0.7,0.7,1C363.4,130.3,363.8,130.4,364.3,130.4z"/>
	<path class="st6" d="M373.2,133.8v-17.4l4.5-0.3v17.7H373.2z"/>
	<path class="st6" d="M386.5,134.1c-1.3,0-2.5-0.2-3.5-0.7c-1-0.5-1.8-1.2-2.4-2.1s-0.9-2.1-0.9-3.6c0-1.4,0.3-2.5,0.9-3.5
		c0.6-1,1.4-1.7,2.5-2.2c1-0.5,2.2-0.8,3.5-0.8c1.3,0,2.5,0.2,3.5,0.7c1,0.5,1.8,1.2,2.4,2.2s0.9,2.2,0.9,3.6c0,1.3-0.3,2.5-0.9,3.4
		c-0.6,0.9-1.5,1.6-2.5,2.1C389,133.9,387.8,134.1,386.5,134.1z M386.6,130.4c0.5,0,0.9-0.1,1.2-0.3c0.3-0.2,0.6-0.5,0.8-0.9
		c0.2-0.4,0.3-0.9,0.3-1.4c0-0.5-0.1-1-0.3-1.5c-0.2-0.4-0.4-0.8-0.7-1c-0.3-0.3-0.7-0.4-1.2-0.4s-0.9,0.1-1.2,0.3
		c-0.3,0.2-0.6,0.5-0.8,0.9c-0.2,0.4-0.3,0.9-0.3,1.5c0,0.5,0.1,1,0.3,1.4c0.2,0.4,0.4,0.7,0.7,1
		C385.7,130.3,386.1,130.4,386.6,130.4z"/>
	<path class="st6" d="M405.3,131.9c-0.3,0.4-0.7,0.7-1.2,1.1c-0.5,0.3-1,0.6-1.6,0.8c-0.6,0.2-1.2,0.3-1.8,0.3
		c-1.2,0-2.2-0.2-3.2-0.7c-0.9-0.4-1.7-1.1-2.2-2.1c-0.5-0.9-0.8-2.1-0.8-3.6c0-1.5,0.3-2.7,0.8-3.6c0.5-1,1.3-1.7,2.3-2.2
		c1-0.5,2.1-0.7,3.3-0.7c0.5,0,1,0.1,1.5,0.2c0.5,0.2,1,0.4,1.5,0.7s0.9,0.8,1.4,1.3l-1.3,2.7c-0.5-0.4-1-0.8-1.4-1
		c-0.5-0.2-0.9-0.4-1.4-0.4c-0.4,0-0.7,0.1-1,0.3s-0.6,0.6-0.7,1s-0.3,1-0.3,1.6c0,0.6,0.1,1.1,0.3,1.6c0.2,0.4,0.4,0.7,0.8,1
		s0.7,0.3,1.2,0.3c0.4,0,0.8-0.2,1.2-0.5c0.4-0.3,0.9-0.7,1.4-1.2L405.3,131.9z M407.1,134.2c0,1-0.3,2-0.8,2.8s-1.3,1.4-2.3,1.9
		c-1,0.5-2.2,0.7-3.5,0.7c-0.3,0-0.6,0-1.1-0.1c-0.5,0-1-0.1-1.5-0.2c-0.5-0.1-1.1-0.3-1.6-0.4s-1-0.4-1.4-0.7l1.4-3.2
		c0.8,0.4,1.5,0.7,2.2,0.8s1.2,0.2,1.7,0.2c0.7,0,1.3-0.2,1.8-0.5c0.5-0.3,0.7-0.7,0.7-1.2v-9.6l2.3-2.8h2.3V134.2z"/>
	<path class="st6" d="M415.7,134.1c-1.3,0-2.5-0.2-3.5-0.7c-1-0.5-1.8-1.2-2.4-2.1s-0.9-2.1-0.9-3.6c0-1.4,0.3-2.5,0.9-3.5
		c0.6-1,1.4-1.7,2.5-2.2c1-0.5,2.2-0.8,3.5-0.8c1.3,0,2.5,0.2,3.5,0.7c1,0.5,1.8,1.2,2.4,2.2s0.9,2.2,0.9,3.6c0,1.3-0.3,2.5-0.9,3.4
		c-0.6,0.9-1.5,1.6-2.5,2.1C418.2,133.9,417,134.1,415.7,134.1z M415.8,130.4c0.5,0,0.9-0.1,1.2-0.3c0.3-0.2,0.6-0.5,0.8-0.9
		c0.2-0.4,0.3-0.9,0.3-1.4c0-0.5-0.1-1-0.3-1.5c-0.2-0.4-0.4-0.8-0.7-1c-0.3-0.3-0.7-0.4-1.2-0.4s-0.9,0.1-1.2,0.3
		c-0.3,0.2-0.6,0.5-0.8,0.9c-0.2,0.4-0.3,0.9-0.3,1.5c0,0.5,0.1,1,0.3,1.4c0.2,0.4,0.4,0.7,0.7,1C415,130.3,415.3,130.4,415.8,130.4
		z"/>
	<path class="st6" d="M425,129.8c0.3,0.2,0.7,0.3,1.1,0.4s0.8,0.2,1.3,0.3c0.4,0.1,0.8,0.1,1,0.1c0.2,0,0.4,0,0.5-0.1
		s0.3-0.1,0.4-0.2c0.1-0.1,0.1-0.2,0.1-0.3c0-0.1,0-0.1-0.2-0.2c-0.1-0.1-0.2-0.2-0.4-0.3s-0.4-0.2-0.6-0.2c-0.7-0.2-1.3-0.5-2-0.9
		c-0.7-0.3-1.2-0.8-1.7-1.3c-0.4-0.5-0.7-1.1-0.7-1.9c0-1.3,0.5-2.3,1.4-3c0.9-0.7,2.3-1.1,3.9-1.1c0.3,0,0.8,0,1.3,0.1
		c0.5,0.1,1.1,0.2,1.7,0.4c0.6,0.2,1.1,0.5,1.6,0.8l-1.3,2.9c-0.5-0.2-1-0.4-1.5-0.5c-0.5-0.1-1-0.2-1.5-0.2c-0.4,0-0.7,0-0.9,0.1
		c-0.2,0.1-0.4,0.2-0.4,0.4c0,0.1,0.1,0.2,0.4,0.3c0.2,0.1,0.5,0.3,0.9,0.4c0.7,0.2,1.3,0.5,2,0.9c0.7,0.3,1.2,0.8,1.6,1.3
		c0.4,0.5,0.7,1.1,0.7,1.9c0,1.3-0.4,2.3-1.3,3s-2.1,1.1-3.8,1.1c-0.3,0-0.8,0-1.5-0.1c-0.6-0.1-1.3-0.2-2-0.4
		c-0.7-0.2-1.3-0.5-1.7-0.9L425,129.8z"/>
</g>
<g class="st5">
	<path class="st6" d="M160.3,260l6.4,16.8l-4.5,0.5l-1.2-3.6h-5.9l-1.2,3.3h-4.5l6.4-17H160.3z M158,265.4l-1.6,4.6h3.3L158,265.4z"
		/>
	<path class="st6" d="M177.2,268.9h-3.6v3c0,0.5,0.1,0.9,0.4,1.2c0.3,0.3,0.6,0.4,1,0.4c0.3,0,0.5,0,0.9-0.1
		c0.3-0.1,0.6-0.2,0.9-0.4l1.3,3.1c-0.2,0.2-0.5,0.3-0.9,0.5s-0.8,0.3-1.2,0.4c-0.4,0.1-0.9,0.2-1.3,0.2c-1,0-1.9-0.2-2.8-0.5
		s-1.6-0.9-2.1-1.6c-0.5-0.7-0.8-1.6-0.8-2.7v-3.5h-1.9v-3.6h1.9v-3.3l4.5-0.6v3.9h3.2L177.2,268.9z"/>
	<path class="st6" d="M179.6,277v-12.1h2.3l1.1,1.5c0.3-0.2,0.7-0.5,1.2-0.7c0.5-0.2,0.9-0.4,1.5-0.6c0.5-0.2,1-0.2,1.4-0.2l0.9,3.7
		c-0.4,0-0.8,0.1-1.3,0.2s-0.9,0.3-1.4,0.5s-0.8,0.4-1.2,0.7v7.1H179.6z"/>
	<path class="st6" d="M189.4,265.6c0.4-0.2,0.9-0.4,1.5-0.6c0.6-0.2,1.2-0.3,1.9-0.4c0.7-0.1,1.3-0.2,2-0.2c1.1,0,2,0.2,2.8,0.6
		s1.3,1,1.7,1.8s0.6,1.6,0.6,2.7v7.5h-2.2l-1.3-1.3c-0.4,0.5-0.8,0.9-1.3,1.1c-0.5,0.3-0.9,0.4-1.5,0.4c-1.5,0-2.7-0.4-3.4-1.2
		s-1.1-1.8-1.1-3c0-1.3,0.4-2.2,1.3-2.8c0.9-0.5,2-0.8,3.4-0.8h1.5l0-0.1c-0.1-0.5-0.3-0.8-0.6-1s-0.6-0.3-1-0.3
		c-0.4,0-0.9,0.1-1.5,0.2c-0.6,0.1-1.1,0.3-1.6,0.5L189.4,265.6z M192.9,273.4c0.1,0.1,0.2,0.2,0.3,0.3s0.3,0.1,0.4,0.1
		c0.3,0,0.5-0.1,0.8-0.2c0.3-0.1,0.5-0.3,0.8-0.5V272h-1.4c-0.3,0-0.5,0.1-0.7,0.3c-0.2,0.2-0.3,0.4-0.3,0.7
		C192.8,273.2,192.8,273.3,192.9,273.4z"/>
	<path class="st6" d="M212.2,276c-0.5,0.4-1,0.6-1.5,0.8s-1,0.3-1.5,0.3c-0.5,0-0.9,0.1-1.2,0.1c-1.3,0-2.5-0.2-3.5-0.7
		c-1-0.5-1.8-1.2-2.3-2.1c-0.6-0.9-0.8-2.1-0.8-3.4c0-1.4,0.3-2.5,0.8-3.5c0.6-1,1.3-1.7,2.3-2.2c1-0.5,2.2-0.8,3.5-0.8
		c0.3,0,0.7,0,1.2,0.1c0.5,0,1,0.2,1.5,0.3s1,0.4,1.5,0.8l-1.3,3.1c-0.5-0.3-0.9-0.4-1.3-0.5c-0.4-0.1-0.7-0.1-1.2-0.1
		c-0.4,0-0.8,0.1-1.2,0.3c-0.4,0.2-0.7,0.5-0.9,1s-0.3,0.9-0.3,1.5c0,0.6,0.1,1,0.3,1.4s0.5,0.7,0.9,0.9c0.4,0.2,0.8,0.3,1.2,0.3
		c0.4,0,0.8,0,1.1-0.1c0.4-0.1,0.8-0.3,1.3-0.5L212.2,276z"/>
	<path class="st6" d="M222.6,268.9H219v3c0,0.5,0.1,0.9,0.4,1.2c0.3,0.3,0.6,0.4,1,0.4c0.3,0,0.5,0,0.9-0.1c0.3-0.1,0.6-0.2,0.9-0.4
		l1.3,3.1c-0.2,0.2-0.5,0.3-0.9,0.5s-0.8,0.3-1.2,0.4c-0.4,0.1-0.9,0.2-1.3,0.2c-1,0-1.9-0.2-2.8-0.5s-1.6-0.9-2.1-1.6
		c-0.5-0.7-0.8-1.6-0.8-2.7v-3.5h-1.9v-3.6h1.9v-3.3l4.5-0.6v3.9h3.2L222.6,268.9z"/>
	<path class="st6" d="M225.5,262.5c-0.5-0.5-0.7-1.1-0.7-1.7c0-0.7,0.2-1.3,0.7-1.8s1.1-0.7,1.7-0.7c0.7,0,1.3,0.2,1.8,0.7
		c0.5,0.5,0.7,1.1,0.7,1.8c0,0.7-0.2,1.2-0.7,1.7c-0.5,0.5-1.1,0.7-1.8,0.7C226.6,263.2,226,263,225.5,262.5z M225,277v-12.1h4.5
		V277H225z"/>
	<path class="st6" d="M235.7,277l-4.4-11.4l4.2-1.2l2.4,7.3l2.3-6.8h4.5L240,277H235.7z"/>
	<path class="st6" d="M252.3,277.3c-1.3,0-2.5-0.2-3.5-0.7c-1-0.5-1.8-1.2-2.4-2.1c-0.6-1-0.9-2.1-0.9-3.6c0-1.4,0.3-2.5,0.9-3.5
		c0.6-1,1.4-1.7,2.5-2.2c1-0.5,2.2-0.8,3.5-0.8c1.3,0,2.5,0.2,3.5,0.7c1,0.5,1.8,1.2,2.4,2.2s0.9,2.2,0.9,3.6c0,1.3-0.3,2.5-0.9,3.4
		c-0.6,0.9-1.5,1.6-2.5,2.1C254.8,277,253.6,277.3,252.3,277.3z M252.3,273.6c0.5,0,0.9-0.1,1.2-0.3c0.3-0.2,0.6-0.5,0.8-0.9
		c0.2-0.4,0.3-0.9,0.3-1.4c0-0.5-0.1-1-0.3-1.5c-0.2-0.4-0.4-0.8-0.7-1c-0.3-0.3-0.7-0.4-1.2-0.4s-0.9,0.1-1.2,0.3
		c-0.3,0.2-0.6,0.5-0.8,0.9c-0.2,0.4-0.3,0.9-0.3,1.5c0,0.5,0.1,1,0.3,1.4c0.2,0.4,0.4,0.7,0.7,1
		C251.5,273.4,251.9,273.6,252.3,273.6z"/>
</g>
<g class="st5">
	<path class="st6" d="M429.1,270.1v-17h4.5v17H429.1z"/>
	<path class="st6" d="M436.9,270.1v-12.1h2.7l0.8,1.3c0.4-0.3,0.9-0.5,1.4-0.8c0.5-0.3,1.1-0.5,1.7-0.6c0.6-0.2,1.2-0.3,1.9-0.3
		c1,0,1.9,0.2,2.5,0.6s1.1,1,1.4,1.7s0.5,1.5,0.5,2.4v7.8h-4.6v-7.4c0-0.4-0.1-0.7-0.3-1c-0.2-0.3-0.5-0.4-1-0.4
		c-0.2,0-0.4,0-0.7,0.1c-0.3,0.1-0.6,0.2-0.9,0.3c-0.3,0.1-0.6,0.2-0.8,0.3v8.2H436.9z"/>
	<path class="st6" d="M461.2,262h-3.6v3c0,0.5,0.1,0.9,0.4,1.2c0.3,0.3,0.6,0.4,1,0.4c0.3,0,0.5,0,0.9-0.1c0.3-0.1,0.6-0.2,0.9-0.4
		l1.3,3.1c-0.2,0.2-0.5,0.3-0.9,0.5s-0.8,0.3-1.2,0.4c-0.4,0.1-0.9,0.2-1.3,0.2c-1,0-1.9-0.2-2.8-0.5c-0.9-0.4-1.6-0.9-2.1-1.6
		c-0.5-0.7-0.8-1.6-0.8-2.7V262h-1.9v-3.6h1.9v-3.3l4.5-0.6v3.9h3.2L461.2,262z"/>
	<path class="st6" d="M467.7,265.1c0.1,0.3,0.3,0.6,0.5,0.9c0.2,0.3,0.5,0.4,0.9,0.6c0.4,0.1,0.8,0.2,1.3,0.2c0.7,0,1.4-0.1,1.9-0.3
		s1-0.4,1.4-0.5l1.3,3.1c-0.3,0.2-0.7,0.5-1.3,0.7c-0.5,0.2-1.1,0.4-1.8,0.5c-0.6,0.1-1.3,0.2-2,0.2c-1.4,0-2.6-0.2-3.7-0.7
		c-1.1-0.5-2-1.2-2.6-2.1c-0.6-0.9-0.9-2.1-0.9-3.5s0.3-2.5,0.9-3.5c0.6-1,1.4-1.7,2.4-2.2c1-0.5,2.1-0.8,3.3-0.8
		c1.3,0,2.4,0.3,3.2,0.9s1.5,1.3,1.9,2.3c0.4,1,0.6,2,0.6,3.1v1.3H467.7z M470.8,262.9c0-0.2-0.1-0.5-0.2-0.8s-0.3-0.5-0.5-0.7
		c-0.2-0.2-0.5-0.3-0.9-0.3c-0.3,0-0.5,0.1-0.8,0.2s-0.4,0.4-0.6,0.6c-0.1,0.3-0.2,0.5-0.2,0.9H470.8z"/>
	<path class="st6" d="M476.9,270.1V258h2.3l1.1,1.5c0.3-0.2,0.7-0.5,1.2-0.7c0.5-0.2,0.9-0.4,1.5-0.6c0.5-0.2,1-0.2,1.4-0.2l0.9,3.7
		c-0.4,0-0.8,0.1-1.3,0.2c-0.5,0.1-0.9,0.3-1.3,0.5s-0.8,0.4-1.2,0.7v7.1H476.9z"/>
	<path class="st6" d="M490.9,265.1c0.1,0.3,0.3,0.6,0.5,0.9s0.5,0.4,0.9,0.6c0.4,0.1,0.8,0.2,1.3,0.2c0.7,0,1.4-0.1,1.9-0.3
		c0.6-0.2,1-0.4,1.4-0.5l1.3,3.1c-0.3,0.2-0.7,0.5-1.3,0.7s-1.1,0.4-1.8,0.5c-0.7,0.1-1.3,0.2-2,0.2c-1.4,0-2.6-0.2-3.7-0.7
		c-1.1-0.5-2-1.2-2.6-2.1c-0.6-0.9-0.9-2.1-0.9-3.5s0.3-2.5,0.9-3.5s1.4-1.7,2.3-2.2c1-0.5,2.1-0.8,3.3-0.8c1.3,0,2.4,0.3,3.2,0.9
		c0.9,0.6,1.5,1.3,1.9,2.3c0.4,1,0.6,2,0.6,3.1v1.3H490.9z M494,262.9c0-0.2-0.1-0.5-0.2-0.8s-0.3-0.5-0.5-0.7
		c-0.2-0.2-0.5-0.3-0.9-0.3c-0.3,0-0.5,0.1-0.8,0.2s-0.4,0.4-0.6,0.6c-0.1,0.3-0.2,0.5-0.2,0.9H494z"/>
	<path class="st6" d="M500.6,266c0.3,0.2,0.7,0.3,1.1,0.4s0.8,0.2,1.3,0.3c0.4,0.1,0.8,0.1,1,0.1c0.2,0,0.4,0,0.5-0.1
		s0.3-0.1,0.4-0.2c0.1-0.1,0.1-0.2,0.1-0.3c0-0.1,0-0.1-0.2-0.2c-0.1-0.1-0.2-0.2-0.4-0.3s-0.4-0.2-0.6-0.2c-0.7-0.2-1.3-0.5-2-0.9
		c-0.7-0.3-1.2-0.8-1.7-1.3c-0.4-0.5-0.7-1.1-0.7-1.9c0-1.3,0.5-2.3,1.4-3c0.9-0.7,2.3-1.1,3.9-1.1c0.3,0,0.8,0,1.3,0.1
		c0.5,0.1,1.1,0.2,1.7,0.4c0.6,0.2,1.1,0.5,1.6,0.8l-1.3,2.9c-0.5-0.2-1-0.4-1.5-0.5c-0.5-0.1-1-0.2-1.5-0.2c-0.4,0-0.7,0-0.9,0.1
		c-0.2,0.1-0.4,0.2-0.4,0.4c0,0.1,0.1,0.2,0.4,0.3c0.2,0.1,0.5,0.3,0.9,0.4c0.7,0.2,1.3,0.5,2,0.9c0.7,0.3,1.2,0.8,1.6,1.3
		c0.4,0.5,0.7,1.1,0.7,1.9c0,1.3-0.4,2.3-1.3,3s-2.1,1.1-3.8,1.1c-0.3,0-0.8,0-1.5-0.1c-0.6-0.1-1.3-0.2-2-0.4
		c-0.7-0.2-1.3-0.5-1.7-0.9L500.6,266z"/>
	<path class="st6" d="M511.3,258.7c0.4-0.2,0.9-0.4,1.5-0.6c0.6-0.2,1.2-0.3,1.8-0.4s1.3-0.2,2-0.2c1.1,0,2,0.2,2.8,0.6
		s1.3,1,1.7,1.8s0.6,1.6,0.6,2.7v7.5h-2.2l-1.3-1.3c-0.4,0.5-0.8,0.9-1.3,1.1s-0.9,0.4-1.5,0.4c-1.5,0-2.7-0.4-3.4-1.2
		s-1.1-1.8-1.1-3c0-1.3,0.4-2.2,1.3-2.8c0.9-0.5,2-0.8,3.4-0.8h1.5l0-0.1c-0.1-0.5-0.3-0.8-0.6-1s-0.6-0.3-1-0.3
		c-0.4,0-0.9,0.1-1.5,0.2s-1.1,0.3-1.5,0.5L511.3,258.7z M514.8,266.5c0.1,0.1,0.2,0.2,0.3,0.3s0.3,0.1,0.4,0.1
		c0.3,0,0.5-0.1,0.8-0.2c0.3-0.1,0.5-0.3,0.8-0.5v-1.2h-1.4c-0.3,0-0.5,0.1-0.7,0.3s-0.3,0.4-0.3,0.7
		C514.7,266.3,514.7,266.4,514.8,266.5z"/>
	<path class="st6" d="M524.1,270.1v-12.1h2.7l0.8,1.3c0.4-0.3,0.9-0.5,1.4-0.8c0.5-0.3,1.1-0.5,1.7-0.6c0.6-0.2,1.2-0.3,1.9-0.3
		c1,0,1.9,0.2,2.5,0.6s1.1,1,1.4,1.7c0.3,0.7,0.5,1.5,0.5,2.4v7.8h-4.5v-7.4c0-0.4-0.1-0.7-0.3-1c-0.2-0.3-0.5-0.4-1-0.4
		c-0.2,0-0.4,0-0.7,0.1s-0.6,0.2-0.9,0.3c-0.3,0.1-0.6,0.2-0.8,0.3v8.2H524.1z"/>
	<path class="st6" d="M548.3,262h-3.6v3c0,0.5,0.1,0.9,0.4,1.2s0.6,0.4,1,0.4c0.3,0,0.5,0,0.8-0.1c0.3-0.1,0.6-0.2,0.9-0.4l1.3,3.1
		c-0.2,0.2-0.5,0.3-0.9,0.5s-0.8,0.3-1.2,0.4s-0.9,0.2-1.3,0.2c-1,0-1.9-0.2-2.8-0.5c-0.9-0.4-1.6-0.9-2.1-1.6s-0.8-1.6-0.8-2.7V262
		h-1.9v-3.6h1.9v-3.3l4.5-0.6v3.9h3.2L548.3,262z"/>
	<path class="st6" d="M554.9,265.1c0.1,0.3,0.3,0.6,0.5,0.9s0.5,0.4,0.9,0.6c0.4,0.1,0.8,0.2,1.3,0.2c0.7,0,1.4-0.1,1.9-0.3
		c0.6-0.2,1-0.4,1.4-0.5l1.3,3.1c-0.3,0.2-0.7,0.5-1.3,0.7s-1.1,0.4-1.8,0.5c-0.7,0.1-1.3,0.2-2,0.2c-1.4,0-2.6-0.2-3.7-0.7
		c-1.1-0.5-2-1.2-2.6-2.1c-0.6-0.9-0.9-2.1-0.9-3.5s0.3-2.5,0.9-3.5s1.4-1.7,2.3-2.2c1-0.5,2.1-0.8,3.3-0.8c1.3,0,2.4,0.3,3.2,0.9
		c0.9,0.6,1.5,1.3,1.9,2.3c0.4,1,0.6,2,0.6,3.1v1.3H554.9z M557.9,262.9c0-0.2-0.1-0.5-0.2-0.8s-0.3-0.5-0.5-0.7
		c-0.2-0.2-0.5-0.3-0.9-0.3c-0.3,0-0.5,0.1-0.8,0.2s-0.4,0.4-0.6,0.6c-0.1,0.3-0.2,0.5-0.2,0.9H557.9z"/>
</g>
<g>
	<g>
		<defs>
			<path id="SVGID_5_" d="M297.2,261.2c92.5-92.5,242.4-92.5,334.8,0s92.5,242.4,0,334.8s-242.4,92.5-334.8,0
				S204.8,353.7,297.2,261.2z"/>
		</defs>
		<clipPath id="SVGID_6_">
			<use xlink:href="#SVGID_5_"  style="overflow:visible;"/>
		</clipPath>
		<circle id="Elipse_189_1_" class="st7" cx="228.4" cy="430.6" r="228.4"/>
	</g>
</g>
<g class="st5">
	<path class="st6" d="M264.3,517.6v-17h11.3l0.4,3.6h-7.2v3.1h5.2l0.4,3.6h-5.7v3.2h7.5l0.4,3.6H264.3z"/>
	<path class="st6" d="M278.5,517.6v-12.1h2.7l0.8,1.3c0.4-0.3,0.9-0.5,1.4-0.8c0.5-0.3,1.1-0.5,1.7-0.6c0.6-0.2,1.2-0.3,1.9-0.3
		c1,0,1.9,0.2,2.5,0.6s1.1,1,1.4,1.7c0.3,0.7,0.5,1.5,0.5,2.4v7.8h-4.6v-7.4c0-0.4-0.1-0.7-0.3-1c-0.2-0.3-0.5-0.4-1-0.4
		c-0.2,0-0.4,0-0.7,0.1c-0.3,0.1-0.6,0.2-0.9,0.3c-0.3,0.1-0.6,0.2-0.8,0.3v8.2H278.5z"/>
	<path class="st6" d="M302.7,509.5h-3.6v3c0,0.5,0.1,0.9,0.4,1.2c0.3,0.3,0.6,0.4,1,0.4c0.3,0,0.5,0,0.9-0.1
		c0.3-0.1,0.6-0.2,0.9-0.4l1.3,3.1c-0.2,0.2-0.5,0.3-0.9,0.5s-0.8,0.3-1.2,0.4c-0.4,0.1-0.9,0.2-1.3,0.2c-1,0-1.9-0.2-2.8-0.5
		s-1.6-0.9-2.1-1.6c-0.5-0.7-0.8-1.6-0.8-2.7v-3.5h-1.9V506h1.9v-3.3l4.5-0.6v3.9h3.2L302.7,509.5z"/>
	<path class="st6" d="M305.1,517.6v-12.1h2.3l1.1,1.5c0.3-0.2,0.7-0.5,1.2-0.7c0.5-0.2,0.9-0.4,1.5-0.6c0.5-0.2,1-0.2,1.4-0.2
		l0.9,3.7c-0.4,0-0.8,0.1-1.3,0.2s-0.9,0.3-1.4,0.5s-0.8,0.4-1.2,0.7v7.1H305.1z"/>
	<path class="st6" d="M319.2,512.7c0.1,0.3,0.3,0.6,0.5,0.9c0.2,0.3,0.5,0.4,0.9,0.6c0.4,0.1,0.8,0.2,1.3,0.2c0.7,0,1.4-0.1,1.9-0.3
		c0.6-0.2,1-0.4,1.4-0.5l1.3,3.1c-0.3,0.2-0.7,0.5-1.3,0.7c-0.5,0.2-1.1,0.4-1.8,0.5c-0.6,0.1-1.3,0.2-2,0.2c-1.4,0-2.6-0.2-3.7-0.7
		s-2-1.2-2.6-2.1c-0.6-0.9-0.9-2.1-0.9-3.5s0.3-2.5,0.9-3.5c0.6-1,1.4-1.7,2.4-2.2c1-0.5,2.1-0.8,3.3-0.8c1.3,0,2.4,0.3,3.2,0.9
		c0.9,0.6,1.5,1.3,1.9,2.3c0.4,1,0.6,2,0.6,3.1v1.3H319.2z M322.2,510.4c0-0.2-0.1-0.5-0.2-0.8s-0.3-0.5-0.5-0.7s-0.5-0.3-0.9-0.3
		c-0.3,0-0.5,0.1-0.8,0.2s-0.4,0.4-0.6,0.6c-0.1,0.3-0.2,0.5-0.2,0.9H322.2z"/>
	<path class="st6" d="M337.3,509.5h-3.6v3c0,0.5,0.1,0.9,0.4,1.2c0.3,0.3,0.6,0.4,1,0.4c0.3,0,0.5,0,0.9-0.1
		c0.3-0.1,0.6-0.2,0.9-0.4l1.3,3.1c-0.2,0.2-0.5,0.3-0.9,0.5s-0.8,0.3-1.2,0.4c-0.4,0.1-0.9,0.2-1.3,0.2c-1,0-1.9-0.2-2.8-0.5
		s-1.6-0.9-2.1-1.6c-0.5-0.7-0.8-1.6-0.8-2.7v-3.5h-1.9V506h1.9v-3.3l4.5-0.6v3.9h3.2L337.3,509.5z"/>
	<path class="st6" d="M343.9,512.7c0.1,0.3,0.3,0.6,0.5,0.9c0.2,0.3,0.5,0.4,0.9,0.6c0.4,0.1,0.8,0.2,1.3,0.2c0.7,0,1.4-0.1,1.9-0.3
		c0.6-0.2,1-0.4,1.4-0.5l1.3,3.1c-0.3,0.2-0.7,0.5-1.3,0.7c-0.5,0.2-1.1,0.4-1.8,0.5c-0.6,0.1-1.3,0.2-2,0.2c-1.4,0-2.6-0.2-3.7-0.7
		s-2-1.2-2.6-2.1c-0.6-0.9-0.9-2.1-0.9-3.5s0.3-2.5,0.9-3.5c0.6-1,1.4-1.7,2.4-2.2c1-0.5,2.1-0.8,3.3-0.8c1.3,0,2.4,0.3,3.2,0.9
		c0.9,0.6,1.5,1.3,1.9,2.3c0.4,1,0.6,2,0.6,3.1v1.3H343.9z M346.9,510.4c0-0.2-0.1-0.5-0.2-0.8s-0.3-0.5-0.5-0.7s-0.5-0.3-0.9-0.3
		c-0.3,0-0.5,0.1-0.8,0.2s-0.4,0.4-0.6,0.6c-0.1,0.3-0.2,0.5-0.2,0.9H346.9z"/>
	<path class="st6" d="M353,517.6v-12.1h2.7l0.8,1.3c0.4-0.3,0.9-0.5,1.4-0.8c0.5-0.3,1.1-0.5,1.7-0.6c0.6-0.2,1.2-0.3,1.9-0.3
		c1,0,1.9,0.2,2.5,0.6s1.1,1,1.4,1.7c0.3,0.7,0.5,1.5,0.5,2.4v7.8h-4.5v-7.4c0-0.4-0.1-0.7-0.3-1c-0.2-0.3-0.5-0.4-1-0.4
		c-0.2,0-0.4,0-0.7,0.1s-0.6,0.2-0.9,0.3c-0.3,0.1-0.6,0.2-0.8,0.3v8.2H353z"/>
	<path class="st6" d="M368.8,503.1c-0.5-0.5-0.7-1.1-0.7-1.7c0-0.7,0.2-1.3,0.7-1.8s1.1-0.7,1.7-0.7c0.7,0,1.3,0.2,1.8,0.7
		c0.5,0.5,0.7,1.1,0.7,1.8c0,0.7-0.2,1.2-0.7,1.7c-0.5,0.5-1.1,0.7-1.8,0.7C369.9,503.8,369.3,503.6,368.8,503.1z M368.3,517.6
		v-12.1h4.5v12.1H368.3z"/>
	<path class="st6" d="M385.4,515.6c-0.3,0.4-0.7,0.7-1.2,1.1c-0.5,0.3-1,0.6-1.6,0.8c-0.6,0.2-1.2,0.3-1.8,0.3
		c-1.2,0-2.2-0.2-3.2-0.7c-0.9-0.4-1.7-1.1-2.2-2.1s-0.8-2.1-0.8-3.6c0-1.5,0.3-2.7,0.8-3.6c0.5-1,1.3-1.7,2.3-2.2s2.1-0.7,3.3-0.7
		c0.5,0,1,0.1,1.5,0.2c0.5,0.2,1,0.4,1.4,0.7c0.5,0.3,0.9,0.8,1.4,1.3l-1.3,2.7c-0.5-0.4-1-0.8-1.4-1c-0.5-0.2-0.9-0.4-1.3-0.4
		c-0.4,0-0.7,0.1-1,0.3c-0.3,0.2-0.6,0.6-0.7,1c-0.2,0.4-0.3,1-0.3,1.6c0,0.6,0.1,1.1,0.3,1.6s0.4,0.7,0.8,1
		c0.3,0.2,0.7,0.3,1.2,0.3c0.4,0,0.8-0.2,1.2-0.5c0.4-0.3,0.9-0.7,1.3-1.2L385.4,515.6z M382.6,500.2l4.5-0.3v17.7h-2.3l-2.3-2.9
		V500.2z"/>
	<path class="st6" d="M395.9,517.9c-1.3,0-2.5-0.2-3.5-0.7c-1-0.5-1.8-1.2-2.4-2.1c-0.6-1-0.9-2.1-0.9-3.6c0-1.4,0.3-2.5,0.9-3.5
		c0.6-1,1.4-1.7,2.5-2.2c1-0.5,2.2-0.8,3.5-0.8c1.3,0,2.5,0.2,3.5,0.7c1,0.5,1.8,1.2,2.4,2.2s0.9,2.2,0.9,3.6c0,1.3-0.3,2.5-0.9,3.4
		c-0.6,0.9-1.5,1.6-2.5,2.1S397.2,517.9,395.9,517.9z M396,514.2c0.5,0,0.9-0.1,1.2-0.3c0.3-0.2,0.6-0.5,0.8-0.9
		c0.2-0.4,0.3-0.9,0.3-1.4c0-0.5-0.1-1-0.3-1.5c-0.2-0.4-0.4-0.8-0.7-1s-0.7-0.4-1.2-0.4s-0.9,0.1-1.2,0.3c-0.3,0.2-0.6,0.5-0.8,0.9
		c-0.2,0.4-0.3,0.9-0.3,1.5c0,0.5,0.1,1,0.3,1.4c0.2,0.4,0.4,0.7,0.7,1C395.2,514,395.5,514.2,396,514.2z"/>
</g>
<g id="Grupo_1394" transform="translate(399.327 1850.591)">
	<g id="Grupo_1369" transform="translate(43.513 85.482)">
		<path id="Trazado_1986" class="st8" d="M-97.3-1548c2.3,3.5,5.3,13.7-3.6,16.7c-10.3,3.5-15.2-3.6-15.1-5.6s1.5-4.3,0.7-5.5
			s-3.2-5.3,1.6-6.5c1.9-0.4,3.9-0.7,5.9-0.8C-99.3-1549.5-98.7-1550.2-97.3-1548z"/>
		<g id="brazo_der" transform="translate(5.489)">
			<path id="Trazado_1987" class="st9" d="M-101.9-1550.5c-0.1,0.4-0.1,0.7-0.2,1.1c0,0.1,0,0.2-0.1,0.3c-1.7,5.1-15.7,4.2-14.4-0.8
				c0.1-0.4,0.2-0.8,0.3-1.2c0.1-0.4,0.2-0.8,0.3-1.2c0.2-0.8,0.4-1.5,0.6-2.2c0.1-0.4,0.2-0.8,0.2-1.3c0.1-0.5,0.1-1,0.2-1.5
				c0.2-2.4,0-5.7,0.3-7.6c0.5-2.9,4.6-5.1,7.4-4.5c3.8,0.8,6,7.6,5.8,12.7c0,0.9-0.1,1.7-0.1,2.5c0,0.4-0.1,0.9-0.1,1.3
				C-101.6-1552.1-101.7-1551.3-101.9-1550.5z"/>
		</g>
		<g id="Grupo_1367" transform="translate(6.801 13.771)">
			<path id="Trazado_1988" class="st10" d="M-102.9-1566.7c-0.6,0.1-1.2,0.5-1.8,0.7c-0.7,0.3-1.4,0.3-2.2,0.1
				c-0.6-0.2-1.2-0.6-1.7-1s-1.1-0.6-1.7-0.6c-0.7,0.1-1.4,0.3-2,0.5c-0.7,0.2-1.5,0.1-2.2-0.1c-0.6-0.3-1.2-0.6-1.8-1
				c-0.1-0.1-0.2-0.1-0.3-0.2c0.1-0.4,0.2-0.8,0.2-1.3c0.2,0.1,0.4,0.2,0.6,0.3c0.6,0.4,1.2,0.7,1.8,0.9c0.7,0.2,1.4,0.1,2-0.1
				c0.8-0.3,1.6-0.4,2.4-0.3c0.7,0.2,1.3,0.5,1.9,0.9c0.3,0.2,0.6,0.4,0.9,0.5c0.2,0.1,0.5,0.2,0.8,0.2c0.7-0.1,1.4-0.3,2-0.6
				c0.4-0.2,0.8-0.3,1.2-0.3C-102.8-1567.6-102.9-1567.2-102.9-1566.7z"/>
		</g>
		<g id="Grupo_1368" transform="translate(5.901 17.238)">
			<path id="Trazado_1989" class="st10" d="M-102.3-1567.7c-0.1,0.4-0.1,0.7-0.2,1.1c0,0.1,0,0.2-0.1,0.3c-0.5,0.2-0.9,0.4-1.3,0.5
				c-0.7,0.3-1.4,0.3-2.2,0.1c-0.6-0.2-1.2-0.6-1.7-1s-1.1-0.6-1.7-0.6c-0.7,0.1-1.4,0.3-2,0.5c-0.7,0.2-1.5,0.1-2.2-0.1
				c-0.6-0.3-1.2-0.6-1.8-1c-0.3-0.2-0.7-0.4-1.1-0.4c0.1-0.4,0.2-0.8,0.3-1.2c0.5,0.1,0.9,0.3,1.3,0.5c0.6,0.4,1.2,0.7,1.8,0.9
				c0.7,0.2,1.4,0.1,2-0.1c0.8-0.3,1.6-0.4,2.4-0.3c0.7,0.2,1.3,0.5,1.9,0.9c0.3,0.2,0.6,0.4,0.9,0.5c0.2,0.1,0.5,0.2,0.8,0.2
				c0.7-0.1,1.4-0.3,2-0.6C-102.9-1567.6-102.6-1567.7-102.3-1567.7z"/>
		</g>
	</g>
	<path id="sombrero_atras" class="st11" d="M19.1-1521.4c0,0-8.2,7.7-65.3,0s-67.4-14.7-67.4-14.7s-16.8-25.2,64.9-12.8
		C-37.5-1547.1,22.2-1539.9,19.1-1521.4z"/>
	<g id="pie_izq" transform="translate(45.568 137.977)">
		<path id="Trazado_1990" class="st12" d="M-92.8-1569.5c0,0,4.2,4.6,3.2,9.8c-0.3,1.4-4.5,2.5-10.6,3.1s-13.5,0.6-16-0.9
			C-119-1559.2-109.2-1569.6-92.8-1569.5z"/>
		<path id="Trazado_1991" class="st13" d="M-92.8-1569.5c0,0,4.2,4.6,3.2,9.8c-0.3,1.4-9.2,3.4-16.3,3.4c1.3-2.1,7.1-4.5-3.9-9
			C-104.6-1568.2-98.7-1569.6-92.8-1569.5z"/>
	</g>
	<g id="pierna_izq" transform="translate(53.528 120.379)">
		<path id="Trazado_1992" class="st9" d="M-108.3-1569.5c-2.7-0.5-5.5,0.7-6.9,3.1c-1.4,2.3-1.5,6.5-1.3,9.1
			c0.2,2.2,0.1,4.5-0.1,6.7c-0.2,1.5,0.6,2.9,2,3.5c2.5,1.6,6.2,1.8,9.2,1.7c1.9,0,4.3-0.2,5.9-1.3c1.3-0.9,1.1-1.7,0.8-3
			c-0.4-2-0.8-4-1.3-6.1c-0.3-1.7-0.9-9-1.4-10.1C-102.6-1568.1-108.2-1569.4-108.3-1569.5z"/>
		<path id="Trazado_1993" class="st14" d="M-112-1567.6c7,0.4,20.1,23.7-2.6,20.5c2.5,1.6,6.2,1.8,9.2,1.7c1.9,0,4.3-0.2,5.9-1.3
			c1.3-0.9,1.1-1.7,0.8-3c-0.4-2-0.8-4-1.3-6.1c-0.3-1.7-0.9-7.5-1.4-8.6c-1.1-2.3-4.1-3.1-6.5-3.5
			C-109.3-1568-110.7-1567.9-112-1567.6z"/>
	</g>
	<g id="torso" transform="translate(50.727 78.806)">
		<g id="Grupo_1370" transform="translate(1.84)">
			<path id="Trazado_1994" class="st9" d="M-115.6-1543.5c0,7.2-3,13.7,1.2,18.4s9.6,6.1,15.9,6.1c7.9,0,18.7-1.3,22.8-8.2
				c2.5-4.2-0.8-18.5-0.8-23.9c0-14.4-9.2-18.4-21.8-18.4S-115.6-1557.9-115.6-1543.5z"/>
			<path id="Trazado_1995" class="st14" d="M-86.9-1537.8c0,7.2-2.7,22.6-27.5,12.8c4.1,4.7,9.6,6.1,15.9,6.1
				c7.9,0,18.7-1.3,22.8-8.2c2.5-4.2-0.8-18.5-0.8-23.9c0-14.4-9.2-18.4-21.8-18.4C-83.3-1558-86.9-1552.2-86.9-1537.8z"/>
		</g>
		<g id="Grupo_1371" transform="translate(4.796 4.7)">
			<path id="Trazado_1996" class="st6" d="M-98-1565c-3.1,9.7-5.3,19.6-6.7,29.6c0,0-7,1.8-12-0.7c0,0,2.5-26.5,6.7-33.4L-98-1565z"
				/>
			<path id="Trazado_1997" class="st15" d="M-98-1565c0,0-1.5,5.6-3.7,13.4c-6-6.2-9.9-6.5-12.5-2.4c0.9-6.1,2.5-12.6,4.3-15.5
				L-98-1565z"/>
		</g>
		<path id="Trazado_1998" class="st16" d="M-73.1-1534.2c0,0-34.4,6.5-41.6-0.8c-1.1,1.8-1.1,4.1-0.2,6c0,0,8.5,7.7,41.6-0.3
			C-73.2-1529.3-71.8-1532-73.1-1534.2z"/>
		<g id="evilla" transform="translate(4.796 35.991)">
			
				<radialGradient id="Trazado_1999_1_" cx="-2196.6667" cy="9.8143" r="0.901" gradientTransform="matrix(-8.1492 0 0 7.2228 -25197.1074 -1637.2249)" gradientUnits="userSpaceOnUse">
				<stop  offset="0" style="stop-color:#EECC36"/>
				<stop  offset="1" style="stop-color:#DCAA33"/>
			</radialGradient>
			<path id="Trazado_1999" class="st17" d="M-116.7-1566.7c0,3,0.8,4.1,3.9,4.9c3.2,0.9,7.4,0.4,7.3-3.5c-0.1-3.6-2.8-4.3-5.9-4.3
				C-114.9-1569.6-116.6-1569.1-116.7-1566.7z"/>
			<path id="Trazado_2000" class="st18" d="M-116.7-1566.7c0,3,0.8,4.1,3.9,4.9c3.2,0.9,7.4,0.4,7.3-3.5c-1.3,1.4-3.7,2.4-6.8,2.3
				C-114.6-1562.9-115.9-1564.9-116.7-1566.7z"/>
		</g>
		<g id="paliacate" transform="translate(0 7.371)">
			
				<linearGradient id="Trazado_2001_1_" gradientUnits="userSpaceOnUse" x1="-2096.2568" y1="-12.5703" x2="-2096.3328" y2="-13.1903" gradientTransform="matrix(27.181 0 0 14.3397 56816.0625 -1632.5883)">
				<stop  offset="0" style="stop-color:#EB2A70"/>
				<stop  offset="1" style="stop-color:#C62251"/>
			</linearGradient>
			<path id="Trazado_2001" class="st19" d="M-111.6-1567.4c2.2-4,7.2-1.4,8.4-0.7c1.8-0.6,8.3-2.5,9.8,2.7c1,3.4,2.3,6.8,3.9,9.9
				c0,0-7.9,1.4-11.7-3.6c-1.3-1.7-2.2-3.6-2.6-5.7c-0.7,1.4-1.7,2.6-2.9,3.5c-4,3.4-10,1.1-10,1.1
				C-114.7-1562.3-113.1-1564.8-111.6-1567.4z"/>
			<path id="Trazado_2002" class="st20" d="M-96.2-1564.9c0.3,1,0.4,2,0.5,3s0.7,2,1.5,2.6c-3.1-0.6-5.9-2.4-7.8-5
				c-0.5-0.5-0.6-1.2-0.5-1.9c0.4-0.7,1.1-1.1,1.9-1C-98.6-1567.2-96.8-1566.6-96.2-1564.9z"/>
			<path id="Trazado_2003" class="st20" d="M-107.9-1563.4c-1.5,1.3-3.4,1.9-5.3,1.6c0.9-0.2,1.6-0.9,1.7-1.8
				c0.2-0.8,0.2-1.7,0.5-2.5c0.4-1,1.3-1.8,2.4-2.2c1.1-0.4,3.4-0.5,3.4,0.9C-105.3-1566-106.9-1564.2-107.9-1563.4z"/>
		</g>
	</g>
	<g id="pie_der" transform="translate(64.634 137.977)">
		<path id="Trazado_2004" class="st12" d="M-92.8-1569.5c0,0,4.2,4.6,3.2,9.8c-0.3,1.4-4.5,2.5-10.6,3.1s-13.5,0.6-16-0.9
			C-119-1559.2-109.2-1569.6-92.8-1569.5z"/>
		<path id="Trazado_2005" class="st13" d="M-92.8-1569.5c0,0,4.2,4.6,3.2,9.8c-0.3,1.4-4.5,2.5-10.6,3.1c5.6-2.2,2.5-3.8-9.6-8.6
			C-104.6-1568.2-98.7-1569.6-92.8-1569.5z"/>
	</g>
	<g id="pierna_der" transform="translate(72.594 121.88)">
		<path id="Trazado_2006" class="st9" d="M-108.3-1569.5c-2.7-0.5-5.5,0.7-6.9,3.1c-1.4,2.3-1.5,5-1.3,7.6c0.2,2.2,0.1,4.5-0.1,6.7
			c-0.2,1.5,0.6,2.9,2,3.5c2.5,1.6,6.2,1.8,9.2,1.7c1.9,0,4.3-0.2,5.9-1.3c1.3-0.9,1.1-1.7,0.8-3c-0.4-2-0.8-4-1.3-6.1
			c-0.3-1.7-0.9-7.5-1.4-8.6c-1.1-2.3-4.1-3.1-6.5-3.5C-108.1-1569.4-108.2-1569.4-108.3-1569.5z"/>
		<path id="Trazado_2007" class="st14" d="M-112-1569.1c7,0.4,20.1,23.7-2.6,20.5c2.5,1.6,6.2,1.8,9.2,1.7c1.9,0,4.3-0.2,5.9-1.3
			c1.3-0.9,1.1-1.7,0.8-3c-0.4-2-0.8-4-1.3-6.1c-0.3-1.7-0.9-7.5-1.4-8.6c-1.1-2.3-4.1-3.1-6.5-3.5
			C-109.3-1569.5-110.7-1569.4-112-1569.1z"/>
		<g id="Grupo_1373" transform="translate(6.377 5.719)">
			<ellipse id="Elipse_193" class="st10" cx="-115.4" cy="-1568.4" rx="1.2" ry="1.1"/>
			<ellipse id="Elipse_194" class="st10" cx="-109.3" cy="-1568.4" rx="1.2" ry="1.1"/>
			<g id="Grupo_1372" transform="translate(1.038 0.945)">
				<path id="Trazado_2008" class="st10" d="M-116.6-1569.3c0.9,0.8,2.3,0.8,3.2,0h-0.3c0.3,0.2,0.7,0.4,1,0.5c0.7,0.2,1.5,0,2-0.4
					c0.2-0.1-0.1-0.4-0.3-0.2c-0.8,0.5-1.8,0.5-2.6-0.1c-0.1-0.1-0.2-0.1-0.3,0c-0.4,0.5-1.1,0.7-1.8,0.4c-0.2-0.1-0.4-0.2-0.7-0.3
					c-0.1,0-0.1-0.1-0.2-0.1c0,0-0.1-0.1,0,0C-116.5-1569.6-116.8-1569.4-116.6-1569.3L-116.6-1569.3z"/>
			</g>
		</g>
		<g id="Grupo_1375" transform="translate(5.745 1.308)">
			<ellipse id="Elipse_195" class="st10" cx="-115.4" cy="-1568.4" rx="1.2" ry="1.1"/>
			<ellipse id="Elipse_196" class="st10" cx="-109.3" cy="-1568.4" rx="1.2" ry="1.1"/>
			<g id="Grupo_1374" transform="translate(1.038 0.944)">
				<path id="Trazado_2009" class="st10" d="M-116.6-1569.3c0.9,0.8,2.3,0.8,3.2,0h-0.3c0.3,0.2,0.7,0.4,1,0.5c0.7,0.2,1.5,0,2-0.4
					c0.2-0.1-0.1-0.4-0.3-0.2c-0.8,0.5-1.8,0.5-2.6-0.1c-0.1-0.1-0.2-0.1-0.3,0c-0.4,0.5-1.1,0.7-1.8,0.4c-0.2-0.1-0.4-0.2-0.7-0.3
					c-0.1,0-0.1-0.1-0.2-0.1c0,0-0.1-0.1,0,0C-116.5-1569.6-116.8-1569.4-116.6-1569.3L-116.6-1569.3z"/>
			</g>
		</g>
		<g id="Grupo_1377" transform="translate(6.887 9.487)">
			<ellipse id="Elipse_197" class="st10" cx="-115.4" cy="-1568.4" rx="1.2" ry="1.1"/>
			<ellipse id="Elipse_198" class="st10" cx="-109.3" cy="-1568.4" rx="1.2" ry="1.1"/>
			<g id="Grupo_1376" transform="translate(1.038 0.944)">
				<path id="Trazado_2010" class="st10" d="M-116.6-1569.3c0.9,0.8,2.3,0.8,3.2,0h-0.3c0.3,0.2,0.7,0.4,1,0.5c0.7,0.2,1.5,0,2-0.4
					c0.2-0.1-0.1-0.4-0.3-0.2c-0.8,0.5-1.8,0.5-2.6-0.1c-0.1-0.1-0.2-0.1-0.3,0c-0.4,0.5-1.1,0.7-1.8,0.4c-0.2-0.1-0.4-0.2-0.7-0.3
					c-0.1,0-0.1-0.1-0.2-0.1c0,0-0.1-0.1,0,0C-116.5-1569.6-116.8-1569.4-116.6-1569.3L-116.6-1569.3z"/>
			</g>
		</g>
		<g id="Grupo_1379" transform="translate(7.532 13.07)">
			<ellipse id="Elipse_199" class="st10" cx="-115.4" cy="-1568.4" rx="1.2" ry="1.1"/>
			<ellipse id="Elipse_200" class="st10" cx="-109.3" cy="-1568.4" rx="1.2" ry="1.1"/>
			<g id="Grupo_1378" transform="translate(1.038 0.945)">
				<path id="Trazado_2011" class="st10" d="M-116.6-1569.3c0.9,0.8,2.3,0.8,3.2,0h-0.3c0.3,0.2,0.7,0.4,1,0.5c0.7,0.2,1.5,0,2-0.4
					c0.2-0.1-0.1-0.4-0.3-0.2c-0.8,0.5-1.8,0.5-2.6-0.1c-0.1-0.1-0.2-0.1-0.3,0c-0.4,0.5-1.1,0.7-1.8,0.4c-0.2-0.1-0.4-0.2-0.7-0.3
					c-0.1,0-0.1-0.1-0.2-0.1c0,0-0.1-0.1,0,0C-116.5-1569.6-116.8-1569.4-116.6-1569.3L-116.6-1569.3z"/>
			</g>
		</g>
		<g id="Grupo_1381" transform="translate(7.343 16.057)">
			<ellipse id="Elipse_201" class="st10" cx="-115.4" cy="-1568.4" rx="1.2" ry="1.1"/>
			<ellipse id="Elipse_202" class="st10" cx="-109.3" cy="-1568.4" rx="1.2" ry="1.1"/>
			<g id="Grupo_1380" transform="translate(1.038 0.944)">
				<path id="Trazado_2012" class="st10" d="M-116.6-1569.3c0.9,0.8,2.3,0.8,3.2,0h-0.3c0.3,0.2,0.7,0.4,1,0.5c0.7,0.2,1.5,0,2-0.4
					c0.2-0.1-0.1-0.4-0.3-0.2c-0.8,0.5-1.8,0.5-2.6-0.1c-0.1-0.1-0.2-0.1-0.3,0c-0.4,0.5-1.1,0.7-1.8,0.4c-0.2-0.1-0.4-0.2-0.7-0.3
					c-0.1,0-0.1-0.1-0.2-0.1c0,0-0.1-0.1,0,0C-116.5-1569.6-116.8-1569.4-116.6-1569.3L-116.6-1569.3z"/>
			</g>
		</g>
		<g id="Grupo_1383" transform="translate(7.8 19.177)">
			<ellipse id="Elipse_203" class="st10" cx="-115.4" cy="-1568.4" rx="1.2" ry="1.1"/>
			<ellipse id="Elipse_204" class="st10" cx="-109.3" cy="-1568.4" rx="1.2" ry="1.1"/>
			<g id="Grupo_1382" transform="translate(1.038 0.944)">
				<path id="Trazado_2013" class="st10" d="M-116.6-1569.3c0.9,0.8,2.3,0.8,3.2,0h-0.3c0.3,0.2,0.7,0.4,1,0.5c0.7,0.2,1.5,0,2-0.4
					c0.2-0.1-0.1-0.4-0.3-0.2c-0.8,0.5-1.8,0.5-2.6-0.1c-0.1-0.1-0.2-0.1-0.3,0c-0.4,0.5-1.1,0.7-1.8,0.4c-0.2-0.1-0.4-0.2-0.7-0.3
					c-0.1,0-0.1-0.1-0.2-0.1c0,0-0.1-0.1,0,0C-116.5-1569.6-116.8-1569.4-116.6-1569.3L-116.6-1569.3z"/>
			</g>
		</g>
	</g>
	<g id="Grupo_1386" transform="translate(78.662 85.558)">
		<path id="Trazado_2014" class="st8" d="M-97.8-1548.9c2.8,3.1,7.2,12.9-1.2,17c-9.8,4.8-15.6-1.4-15.7-3.4s0.9-4.5-0.1-5.6
			s-3.9-4.8,0.7-6.6c1.9-0.7,3.8-1.2,5.7-1.6C-99.9-1550.1-99.5-1550.8-97.8-1548.9z"/>
		<g id="brazo_der-2" transform="translate(4.906)">
			<path id="Trazado_2015" class="st9" d="M-102.1-1551.5c0,0.4,0,0.7-0.1,1.1c0,0.1,0,0.2,0,0.3c-1,5.3-15,6.3-14.4,1.2
				c0.1-0.4,0.1-0.8,0.2-1.2c0.1-0.4,0.1-0.8,0.2-1.2c0.1-0.8,0.2-1.6,0.3-2.3c0-0.4,0.1-0.9,0.1-1.3c0-0.5,0-1,0-1.5
				c-0.1-2.4-0.7-5.7-0.7-7.6c0.1-2.9,3.8-5.7,6.7-5.5c3.9,0.2,7,6.7,7.5,11.7c0.1,0.9,0.2,1.7,0.2,2.5c0,0.4,0.1,0.9,0.1,1.3
				C-102.1-1553.1-102.1-1552.3-102.1-1551.5z"/>
		</g>
		<g id="Grupo_1384" transform="translate(5.576 14.283)">
			<path id="Trazado_2016" class="st10" d="M-102.8-1568.3c-0.6,0.2-1.1,0.6-1.7,0.9c-0.6,0.4-1.4,0.5-2.1,0.4
				c-0.6-0.2-1.3-0.4-1.8-0.7c-0.5-0.3-1.1-0.4-1.8-0.3c-0.7,0.2-1.3,0.5-2,0.8s-1.5,0.3-2.2,0.2c-0.7-0.2-1.3-0.4-1.9-0.7
				c-0.1,0-0.2-0.1-0.3-0.1c0-0.4,0.1-0.9,0.1-1.3c0.2,0.1,0.4,0.1,0.7,0.2c0.6,0.3,1.2,0.5,1.9,0.7c0.7,0.1,1.4-0.1,2-0.4
				c0.7-0.4,1.5-0.6,2.4-0.6c0.7,0.1,1.4,0.3,2,0.6c0.3,0.2,0.6,0.3,0.9,0.4s0.5,0.1,0.8,0.1c0.7-0.2,1.3-0.5,1.9-0.9
				c0.4-0.2,0.7-0.4,1.1-0.5C-102.9-1569.1-102.8-1568.7-102.8-1568.3z"/>
		</g>
		<g id="Grupo_1385" transform="translate(5.156 18.045)">
			<path id="Trazado_2017" class="st10" d="M-102.3-1569.5c0,0.4,0,0.7-0.1,1.1c0,0.1,0,0.2,0,0.3c-0.4,0.2-0.8,0.5-1.3,0.7
				c-0.6,0.4-1.4,0.5-2.1,0.4c-0.6-0.2-1.3-0.4-1.8-0.7c-0.5-0.3-1.1-0.4-1.8-0.3c-0.7,0.2-1.3,0.5-2,0.8s-1.5,0.3-2.2,0.2
				c-0.7-0.2-1.3-0.4-1.9-0.7c-0.4-0.2-0.7-0.3-1.1-0.3c0.1-0.4,0.1-0.8,0.2-1.2c0.5,0.1,1,0.2,1.4,0.4c0.6,0.3,1.3,0.5,1.9,0.7
				c0.7,0.1,1.4-0.1,2-0.4c0.7-0.4,1.5-0.6,2.4-0.6c0.7,0.1,1.4,0.3,2,0.6c0.3,0.2,0.6,0.3,0.9,0.4s0.5,0.1,0.8,0.1
				c0.7-0.2,1.3-0.5,1.9-0.9C-102.9-1569.3-102.6-1569.4-102.3-1569.5z"/>
		</g>
	</g>
	<g id="Grupo_1392" transform="translate(30.012 13.799)">
		<g id="Grupo_1387" transform="translate(1.002 32.473)">
			
				<ellipse id="Elipse_205" transform="matrix(0.9934 -0.1145 0.1145 0.9934 177.6707 -22.6059)" class="st21" cx="-107.9" cy="-1557.9" rx="7.5" ry="10.9"/>
			<path id="Trazado_2018" class="st22" d="M-105.5-1559.6c-0.6,0.8-2,1-2.3,2s0.7,1.8,1.3,2.6c0.7,0.8,1,1.9,0.7,2.9
				c-0.1,0.3-0.3,0.6-0.5,0.9c-0.4,0.3-0.9,0.3-1.4,0.1c-0.5-0.2-0.9-0.5-1.2-0.8c-1.7-1.5-2.8-3.4-3.3-5.6
				c-0.4-2.3,0.9-6.6,3.8-6.4C-106.3-1563.8-104-1561.6-105.5-1559.6z"/>
		</g>
		<path id="Trazado_2019" class="st16" d="M-95.6-1555.9c-3.1,1.9-6,4-8.7,6.3c-2.4,2.4-4.1,5.4-5.1,8.7c-1.2,4.5,0.1,9.2,1.6,13.6
			c0.7,2.2,1.5,4.3,2.3,6.4c2.9-7.6,7.4-14.3,11.8-21.1c1.1-1.6,2.1-3.4,2.8-5.2c0.7-1.9,0.7-3.9-0.1-5.8
			C-91.7-1554.7-93.5-1555.9-95.6-1555.9"/>
		<path id="Trazado_2020" class="st8" d="M-40.6-1519.8c0,19.1-19.4,25.7-43.6,24.6c-19.1-0.9-31.8-12.4-24.3-30.2
			c2.8-28.7,9.7-34.7,35.7-34.4C-53.7-1559.6-40.6-1549.6-40.6-1519.8z"/>
		<g id="Grupo_1388" transform="translate(46.228 35.275)">
			<ellipse id="Elipse_206" class="st23" cx="-112.5" cy="-1564.4" rx="4.1" ry="5.1"/>
			<ellipse id="Elipse_207" class="st6" cx="-110.7" cy="-1565.4" rx="1.1" ry="1.4"/>
		</g>
		<g id="Grupo_1389" transform="translate(17.357 35.275)">
			<ellipse id="Elipse_208" class="st23" cx="-112.5" cy="-1564.4" rx="4.1" ry="5.1"/>
			<ellipse id="Elipse_209" class="st6" cx="-110.7" cy="-1565.4" rx="1.1" ry="1.4"/>
		</g>
		<path id="Trazado_2021" class="st16" d="M-41.7-1524.3h-7.7l1.2-12c-5.4-3.1-9.8-7.8-12.3-13.5c0,0-32.1,7.5-41.3-0.8
			c0,0-0.2-26.5,27.6-16.9c22.3,4.8,29.5,15,29.5,15s9.9,0.5,7,21h-2.9L-41.7-1524.3z"/>
		<g id="Grupo_1390" transform="translate(70.77 32.473)">
			
				<ellipse id="Elipse_210" transform="matrix(0.1145 -0.9934 0.9934 0.1145 1451.9291 -1486.7096)" class="st8" cx="-108" cy="-1557.8" rx="10.9" ry="7.5"/>
			<path id="Trazado_2022" class="st22" d="M-110.5-1559.6c0.6,0.8,2,1,2.3,2s-0.7,1.8-1.3,2.6c-0.7,0.8-1,1.9-0.7,2.9
				c0.1,0.3,0.3,0.6,0.5,0.9c0.4,0.3,0.9,0.3,1.4,0.1c0.5-0.2,0.9-0.5,1.2-0.8c1.7-1.5,2.8-3.4,3.3-5.6c0.4-2.3-0.9-6.6-3.8-6.4
				C-109.7-1563.8-112-1561.6-110.5-1559.6z"/>
		</g>
		<g id="Grupo_1391" transform="translate(14.697 26.774)">
			<path id="Trazado_2023" class="st23" d="M-74-1563.9c0-0.1-0.1-0.1-0.1-0.2l0,0c-0.3-0.4-0.5-0.8-0.9-1.2l0,0
				c-0.4-0.4-0.7-0.8-1-1.1l0,0c-0.3-0.3-0.7-0.6-1.2-0.9c-3.4-2.3-7.7-2.8-11.6-1.4c-0.5,0.2-1,0.4-1.4,0.6s-0.8,0.5-1.3,0.8l0,0
				c-0.4,0.3-0.8,0.6-1.1,1l0,0l-0.1,0.1c-0.3,0.3-0.3,0.8-0.2,1.2c0.2,0.4,0.6,0.6,1,0.6h0.1c0.5,0,0.9,0,1.3,0c0.3,0,0.8,0,1.2,0
				c0.5,0,0.9,0.1,1.2,0.1c1.6,0.1,3.1,0.2,4.5,0.4c1.4,0.2,2.9,0.4,4.5,0.7c0.4,0.1,0.8,0.2,1.2,0.2c0.3,0.1,0.7,0.2,1.2,0.2
				c0.4,0.1,0.8,0.2,1.3,0.3h0.1c0.1,0,0.2,0,0.3,0c0.6,0,1.1-0.5,1.1-1.1C-73.9-1563.6-73.9-1563.8-74-1563.9L-74-1563.9z"/>
			<path id="Trazado_2024" class="st23" d="M-102-1565.3c-0.1-0.1-0.2-0.3-0.3-0.4l-0.1-0.1c-0.1-0.1-0.2-0.2-0.3-0.3l-0.1-0.1
				c-0.6-0.5-1.3-1-2-1.3c-2.9-1.3-6.3-1-9,0.6c-0.7,0.4-1.3,1-1.9,1.6c-0.3,0.4-0.6,0.9-0.8,1.4c-0.1,0.3,0,0.7,0.2,1
				s0.6,0.4,1,0.4c0.4-0.1,0.7-0.1,1.1-0.1h1.8c1.4,0,2.4-0.1,3.4-0.2h0.1c1.1-0.1,2.1-0.2,3.3-0.3c0.4,0,0.9-0.1,1.3-0.2l0.6-0.1
				c0.2,0,0.4-0.1,0.6-0.1s0.5-0.1,0.7-0.1c0.4-0.1,0.7-0.3,0.8-0.7c0.1-0.4,0.1-0.8-0.2-1.1C-101.9-1565.2-102-1565.2-102-1565.3z"
				/>
		</g>
		<g id="bigote" transform="translate(0 46.091)">
			<path id="Trazado_2025" class="st16" d="M-107-1562.3c1.7-1.1,2.9-2.1,4.7-3.4c1.2-0.9,2.4-1.7,3.7-2.4c3.1-1.5,6.7-1.8,10-0.9
				c2,0.5,3.6,1.8,4.7,3.6c1.3-2.1,3.4-3.6,5.9-4c4.1-0.8,9.3,1.2,12.5,3.1c1.5,0.9,2.9,2,4.2,3.2c1.6,1.6,3.4,3.1,5.1,4.5
				c3.4,2.5,7.4,3.7,11.6,3.6c0,0-6.1,5.2-13.3,5.8c-4.1,0.3-8.2-0.3-12.1-1.7c-4.4-1.4-8.5-3.6-12-6.6c-1.1-0.8-1.9-1.9-2.3-3.2
				c-0.5,0.8-1.2,1.4-1.9,1.9c-3.1,2.3-6.7,3.9-10.4,4.8c-3.1,0.7-6.4,0.8-9.5,0.2c-5.7-1-10.5-6.2-10.5-6.2
				C-113.3-1559.7-109.8-1560.4-107-1562.3z"/>
			<path id="Trazado_2026" class="st24" d="M-84.3-1562.2c2.5,3.7,12.7,9.9,16,10.6c14.2,2.9,23.6-3.4,23.6-3.4s-6.1,5.2-13.3,5.8
				c-4.1,0.3-8.2-0.3-12.1-1.7c-4.4-1.4-8.5-3.6-12-6.6c-1.1-0.8-1.9-1.9-2.3-3.2c-0.5,0.8-1.2,1.4-1.9,1.9
				c-3.1,2.3-6.7,3.9-10.4,4.8c-3.1,0.7-6.4,0.8-9.5,0.2c-5.7-1-10.5-6.2-10.5-6.2c4.1,3.1,9,4.9,14.2,5.1
				C-97.7-1555-91-1557.3-84.3-1562.2z"/>
		</g>
	</g>
	<g id="Grupo_1393">
		<g id="sombrero_frente">
			<path id="Trazado_2027" class="st9" d="M-12.9-1544c-2.8-8.6-6.2-18.2-14.7-23.5c-4.6-2.8-9.7-2.5-14.5-0.5
				c-7.4,3.2-14,7.9-19.3,14L-12.9-1544z"/>
			<path id="Trazado_2028" class="st14" d="M-12.9-1544c-1.4-4.9-3.4-9.6-5.8-14c3.4,13.5-33.5,2.7-37.5-1.2
				c-1.8,1.6-3.6,3.3-5.2,5.2L-12.9-1544z"/>
			<path id="Trazado_2029" class="st9" d="M-10.3-1528.3c-40.4-8.9-76.1-10.3-103.4-7.7c-1.3-0.3-5.7-16.3-0.6-17.4
				c20.3-5.5,50.2-2.4,50.2-2.4c24.1,3.5,33,6.1,37.8,7.4c16.7,4.3,30.7,7.3,40.7,12.7c1,0.5,3.2,1.3,3.7,2.2
				c1.3,2.6,1.5,11.8,0.9,12.2C10.1-1524.7-0.9-1526.2-10.3-1528.3z"/>
			<path id="Trazado_2030" class="st14" d="M18.4-1529.7c0,0-1.8,3.3-2.9,3.1c-1.8-0.3-1.9-4.8-3.9-5.2c-1.8-0.4-3,3-4.9,2.8
				c-2.3-0.4-2.3-5.9-4.6-6.4c-1.8-0.4-2.7,3.9-4.6,3.8c-2.5-0.1-2.9-7.1-5.7-7.4c-2.4-0.3-3.7,4.8-6.4,4.8s-2.7-7-5.5-7.4
				c-2.5-0.4-3.8,4.7-6.7,4.6c-3.6-0.1-4.5-8.4-8.3-8.7c-3.5-0.3-5.4,6.9-8.7,6.5c-3.7-0.4-4-9.4-7.7-9.9s-6.1,8.6-10.1,8.3
				c-4.2-0.3-5.2-10.2-9-10.3c-3.6-0.1-4.9,8.9-9.4,9.6c-4.3,0.6-6.2-9.9-10.6-9.9c-4.2,0.1-5.3,9.6-10.1,10
				c-4.8,0.4-8-8.3-11.9-7.4c-1.9,0.5-3,3-3.6,5.4l0.4,2.1c0.6-2.4,1.3-4,3.2-4.4c3.9-0.9,7.1,7.8,11.9,7.4c4.9-0.4,5.9-9.9,10.1-10
				c4.4-0.1,6.3,10.5,10.6,9.9c4.5-0.7,5.8-9.7,9.4-9.6c3.8,0.1,4.8,10,9,10.3c4.1,0.3,6.4-8.7,10.1-8.3c3.7,0.5,4,9.5,7.7,9.9
				c3.3,0.3,5.2-6.8,8.7-6.5c3.7,0.3,4.6,8.6,8.3,8.7c2.9,0.1,4.2-5,6.7-4.6c2.8,0.4,2.9,7.4,5.5,7.4s4-5.1,6.4-4.8
				c2.7,0.3,3.2,7.3,5.7,7.4c1.9,0.1,2.9-4.1,4.6-3.8c2.3,0.5,2.3,6,4.6,6.4c1.9,0.3,3.1-3.1,4.9-2.8c2.1,0.4,2.1,5,3.9,5.2
				c1.1,0.2,2.4-2,3.2-3.8L18.4-1529.7z"/>
			<path id="Trazado_2031" class="st10" d="M18.5-1531.7c0,0-1.8,3.3-2.9,3.1c-1.8-0.3-1.9-4.8-3.9-5.2c-1.8-0.4-3,3-4.9,2.8
				c-2.3-0.4-2.3-5.9-4.6-6.4c-1.8-0.4-2.7,3.9-4.6,3.8c-2.5-0.1-2.9-7.1-5.7-7.4c-2.4-0.3-3.7,4.8-6.4,4.8s-2.7-7-5.5-7.4
				c-2.5-0.4-3.8,4.7-6.7,4.6c-3.6-0.1-4.5-8.4-8.3-8.7c-3.5-0.3-5.4,6.9-8.7,6.5c-3.7-0.4-4-9.4-7.7-9.9s-6.1,8.6-10.1,8.3
				c-4.2-0.3-5.2-10.2-9-10.3c-3.6-0.1-4.9,8.9-9.4,9.6c-4.3,0.6-6.2-9.9-10.6-9.9c-4.2,0.1-5.3,9.6-10.1,10
				c-4.8,0.4-8-8.3-11.9-7.4c-1.9,0.5-3,3-3.6,5.4l0.4,2.1c0.6-2.4,1.3-4,3.2-4.4c3.9-0.9,7.1,7.8,11.9,7.4c4.9-0.4,5.9-9.9,10.1-10
				c4.4-0.1,6.3,10.5,10.6,9.9c4.5-0.7,5.8-9.7,9.4-9.6c3.8,0.1,4.8,10,9,10.3c4.1,0.3,6.4-8.7,10.1-8.3c3.7,0.5,4,9.5,7.7,9.9
				c3.3,0.3,5.2-6.8,8.7-6.5c3.7,0.3,4.6,8.6,8.3,8.7c2.9,0.1,4.2-5,6.7-4.6c2.8,0.4,2.9,7.4,5.5,7.4s4-5.1,6.4-4.8
				c2.7,0.3,3.2,7.3,5.7,7.4c1.9,0.1,2.9-4.1,4.6-3.8c2.3,0.5,2.3,6,4.6,6.4c1.9,0.3,3.1-3.1,4.9-2.8c2.1,0.4,2.1,5,3.9,5.2
				c1.1,0.2,2.4-2,3.2-3.8L18.5-1531.7z"/>
		</g>
	</g>
</g>
</svg>
