<?xml version="1.0" encoding="utf-8"?>
<!-- Generator: Adobe Illustrator 24.3.0, SVG Export Plug-In . SVG Version: 6.00 Build 0)  -->
<svg version="1.1" id="Capa_1" xmlns="http://www.w3.org/2000/svg" xmlns:xlink="http://www.w3.org/1999/xlink" x="0px" y="0px"
	 viewBox="0 0 478 460.3" style="enable-background:new 0 0 478 460.3;" xml:space="preserve">
<style type="text/css">
	.st0{fill:#EE833B;}
	.st1{fill:#FFBB58;}
	.st2{fill:#4D4D4D;}
</style>
<g id="Grupo_1451" transform="translate(13.064 417.067)">
	<path id="Trazado_2185" class="st0" d="M0,33V1.2h5.2V33H0z"/>
	<path id="Trazado_2186" class="st0" d="M12,33V10.3h3.6l0.9,2.7c0.9-0.7,1.8-1.3,2.7-1.8c0.9-0.5,1.9-0.9,2.9-1.2
		c0.9-0.3,1.8-0.4,2.7-0.4c1.5-0.1,2.9,0.3,4.2,1c1.1,0.7,1.9,1.7,2.3,2.9c0.5,1.4,0.8,2.9,0.7,4.4V33h-5.2V18.7
		c0-0.9-0.1-1.7-0.3-2.5c-0.2-0.6-0.5-1.2-1-1.6c-0.6-0.4-1.2-0.6-1.9-0.6c-0.7,0-1.4,0.2-2.1,0.4c-0.7,0.3-1.4,0.7-2.1,1.2
		c-0.7,0.5-1.4,1-2,1.5V33L12,33z M30.9,13c0.9-0.7,1.8-1.3,2.8-1.8c0.9-0.5,1.9-0.9,2.9-1.2c0.9-0.3,1.8-0.4,2.7-0.4
		c1.5-0.1,2.9,0.3,4.2,1c1.1,0.7,1.9,1.7,2.3,2.9c0.5,1.4,0.8,2.9,0.7,4.4V33h-5.2V18.7c0-0.9-0.1-1.7-0.3-2.5
		c-0.2-0.6-0.5-1.2-1-1.6C39.3,14.2,38.7,14,38,14c-0.7,0-1.5,0.2-2.1,0.4c-0.7,0.3-1.5,0.7-2.1,1.2c-0.7,0.5-1.4,1-2,1.5L30.9,13z"
		/>
	<path id="Trazado_2187" class="st0" d="M51.9,43.2V10.3h2.8l2.4,3.2v29.2L51.9,43.2z M53.8,13.8c0.7-0.9,1.5-1.6,2.4-2.2
		c0.9-0.6,1.8-1.1,2.8-1.4c0.9-0.3,1.8-0.5,2.8-0.5c2.1-0.1,4.2,0.5,6,1.5c1.7,1,3,2.4,3.9,4.2c1,2,1.4,4.2,1.4,6.4
		c0,2.1-0.4,4.3-1.4,6.2c-0.9,1.7-2.3,3.2-3.9,4.2c-1.9,1.1-4,1.6-6.2,1.5c-0.9,0-1.8-0.2-2.7-0.5c-1-0.3-2-0.8-2.9-1.4
		c-0.9-0.6-1.6-1.3-2.2-2.2l1.5-3.6c0.8,1,1.9,1.9,3,2.5c1,0.5,2.1,0.8,3.2,0.7c1.2,0,2.3-0.3,3.3-1c0.9-0.7,1.6-1.6,2.1-2.7
		c0.5-1.2,0.7-2.5,0.7-3.7c0-1.3-0.2-2.7-0.7-3.9c-0.4-1.1-1.1-2-2.1-2.6c-1-0.7-2.1-1-3.3-1c-1.1,0-2.3,0.2-3.3,0.8
		c-1.1,0.7-2.1,1.5-2.9,2.4L53.8,13.8z"/>
	<path id="Trazado_2188" class="st0" d="M76.9,33V10.3h2.8l1.8,3.7c0.7-0.6,1.4-1.2,2.2-1.7c0.9-0.6,1.8-1.1,2.7-1.5
		c0.8-0.4,1.7-0.6,2.6-0.6l1.1,4.2c-0.9,0-1.7,0.2-2.5,0.6c-1,0.4-1.9,0.9-2.9,1.4c-1,0.6-1.8,1.3-2.6,2.1V33L76.9,33z"/>
	<path id="Trazado_2189" class="st0" d="M97.5,23.1c0.1,1.1,0.5,2.2,1,3.2c0.5,0.9,1.3,1.7,2.3,2.1c1.2,0.6,2.6,0.8,4,0.8
		c1.2,0,2.4-0.2,3.5-0.5c1.1-0.4,2.2-0.9,3.2-1.5L113,31c-0.7,0.5-1.5,1-2.3,1.4c-0.9,0.4-1.8,0.8-2.8,1c-1.1,0.2-2.2,0.3-3.2,0.3
		c-2.4,0.1-4.8-0.4-7-1.5c-1.8-0.9-3.3-2.4-4.2-4.2c-1-1.9-1.4-4.1-1.4-6.2c0-2.2,0.4-4.3,1.3-6.3c0.8-1.7,2.2-3.2,3.8-4.2
		c1.8-1,3.9-1.6,6-1.5c2.1-0.1,4.1,0.5,5.8,1.7c1.5,1.1,2.6,2.7,3.3,4.4c0.7,1.9,1.1,4,1,6V23L97.5,23.1z M108.2,19.5
		c-0.1-1-0.4-2-0.9-2.9c-0.4-0.7-1-1.3-1.8-1.8c-0.8-0.4-1.7-0.6-2.5-0.6c-0.9,0-1.8,0.2-2.6,0.6c-0.8,0.4-1.4,1-1.8,1.8
		c-0.5,0.9-0.8,1.9-0.9,2.9L108.2,19.5z"/>
	<path id="Trazado_2190" class="st0" d="M117.5,27.8c0.7,0.3,1.4,0.6,2.1,0.8c0.7,0.2,1.3,0.4,2,0.5c0.6,0.1,1.3,0.2,2,0.2
		c0.7,0,1.4-0.1,2.1-0.3c0.6-0.2,1.1-0.5,1.6-0.9c0.4-0.3,0.6-0.8,0.6-1.3c0-0.5-0.2-1-0.6-1.4c-0.5-0.5-1-0.9-1.6-1.2
		c-0.8-0.4-1.6-0.7-2.4-1c-1.2-0.4-2.4-0.9-3.5-1.5c-1.1-0.5-2.1-1.3-2.9-2.2c-0.8-0.9-1.2-2-1.1-3.2c-0.1-1.9,0.8-3.8,2.4-5
		c1.9-1.3,4.1-1.9,6.4-1.8c0.8,0,1.6,0.1,2.3,0.3c0.9,0.2,1.8,0.4,2.7,0.7c0.9,0.3,1.7,0.7,2.5,1.2l-1.6,3.6
		c-0.9-0.4-1.9-0.8-2.9-1.1c-1-0.3-2-0.5-3.1-0.4c-0.9,0-1.8,0.2-2.5,0.7c-0.6,0.4-1,1-1,1.7c0,0.6,0.4,1.2,1.3,1.6
		c0.9,0.5,1.9,0.9,2.9,1.2c1.3,0.4,2.5,1,3.6,1.7c1.1,0.7,2.1,1.5,2.9,2.5c0.8,0.9,1.2,2.1,1.2,3.3c0.1,2-0.8,3.9-2.4,5.1
		c-1.6,1.2-3.9,1.8-7,1.8c-0.8,0-1.6-0.1-2.3-0.2c-1-0.2-1.9-0.4-2.8-0.7c-0.9-0.3-1.7-0.7-2.5-1.2L117.5,27.8z"/>
	<path id="Trazado_2191" class="st0" d="M137.3,5.8c-0.6-0.6-0.9-1.4-0.9-2.2c0-0.8,0.3-1.6,0.9-2.2c0.6-0.6,1.4-0.9,2.2-0.9
		c0.8,0,1.6,0.3,2.2,0.9c0.6,0.6,0.9,1.4,0.9,2.2c0,0.8-0.3,1.6-0.9,2.2c-0.6,0.6-1.3,0.9-2.2,0.9C138.7,6.7,137.9,6.4,137.3,5.8z
		 M136.9,33V10.3h5.3V33H136.9z"/>
	<path id="Trazado_2192" class="st0" d="M157.8,33.6c-2.2,0.1-4.3-0.5-6.2-1.5c-1.7-1-3.1-2.4-4-4.2c-1-1.9-1.4-4.1-1.4-6.2
		c0-2.2,0.5-4.4,1.4-6.3c0.9-1.8,2.3-3.2,4-4.2c1.9-1,4.1-1.6,6.2-1.5c2.2-0.1,4.3,0.5,6.2,1.5c1.7,1,3.1,2.4,4,4.2
		c1.9,4,1.9,8.6,0,12.5c-0.9,1.8-2.3,3.2-4.1,4.2C162.1,33.2,160,33.7,157.8,33.6z M157.9,29.1c1.2,0,2.3-0.3,3.3-1
		c1-0.7,1.7-1.6,2.2-2.7c0.5-1.2,0.8-2.5,0.8-3.8c0-1.3-0.2-2.6-0.7-3.8c-0.4-1.1-1.2-2-2.2-2.6c-1-0.7-2.2-1-3.3-1
		c-1.2,0-2.3,0.3-3.3,1c-1,0.7-1.7,1.6-2.2,2.7c-0.5,1.2-0.8,2.5-0.8,3.8c0,1.3,0.2,2.6,0.7,3.8c0.5,1.1,1.2,2,2.2,2.7
		C155.5,28.8,156.7,29.2,157.9,29.1L157.9,29.1z"/>
	<path id="Trazado_2193" class="st0" d="M173.6,33V10.3h3.6L178,13c0.9-0.7,1.8-1.3,2.8-1.8c0.9-0.5,2-0.9,3-1.2
		c1-0.3,1.9-0.4,2.9-0.4c1.6-0.1,3.1,0.3,4.4,1.1c1.1,0.8,1.9,1.9,2.3,3.1c0.5,1.5,0.7,3,0.7,4.5V33H189V18.7
		c0.1-1.2-0.2-2.4-0.8-3.5c-0.6-0.9-1.6-1.4-2.7-1.3c-0.8,0-1.6,0.2-2.3,0.4c-0.8,0.3-1.5,0.7-2.2,1.2c-0.7,0.5-1.4,1-2.1,1.5V33
		L173.6,33z"/>
	<path id="Trazado_2194" class="st0" d="M203.6,23.1c0.1,1.1,0.5,2.2,1,3.2c0.5,0.9,1.3,1.7,2.3,2.1c1.2,0.6,2.6,0.8,4,0.8
		c1.2,0,2.4-0.2,3.5-0.5c1.1-0.4,2.2-0.9,3.2-1.5l1.5,3.8c-0.7,0.5-1.5,1-2.3,1.4c-0.9,0.4-1.8,0.8-2.8,1c-1.1,0.2-2.2,0.3-3.3,0.3
		c-2.4,0.1-4.8-0.4-7-1.5c-1.8-0.9-3.3-2.4-4.2-4.2c-1-1.9-1.4-4.1-1.4-6.2c0-2.2,0.4-4.3,1.3-6.3c0.8-1.7,2.2-3.2,3.8-4.2
		c1.8-1,3.9-1.6,6-1.5c2.1-0.1,4.1,0.5,5.8,1.7c1.5,1.1,2.6,2.7,3.3,4.4c0.7,1.9,1.1,4,1,6V23L203.6,23.1z M214.3,19.5
		c-0.1-1-0.4-2-0.9-2.9c-0.4-0.7-1-1.3-1.8-1.8c-0.8-0.4-1.7-0.6-2.5-0.6c-0.9,0-1.8,0.2-2.6,0.6c-0.8,0.4-1.4,1-1.8,1.8
		c-0.5,0.9-0.8,1.9-0.9,2.9L214.3,19.5z"/>
	<path id="Trazado_2195" class="st0" d="M223.6,27.8c0.7,0.3,1.4,0.6,2.1,0.8c0.7,0.2,1.3,0.4,2,0.5c0.6,0.1,1.3,0.2,2,0.2
		c0.7,0,1.4-0.1,2.1-0.3c0.6-0.2,1.1-0.5,1.6-0.9c0.4-0.3,0.6-0.8,0.6-1.3c0-0.5-0.2-1-0.6-1.4c-0.5-0.5-1-0.9-1.6-1.2
		c-0.8-0.4-1.6-0.7-2.4-1c-1.2-0.4-2.4-0.9-3.5-1.5c-1.1-0.5-2.1-1.3-2.9-2.2c-0.8-0.9-1.2-2-1.1-3.2c-0.1-1.9,0.8-3.8,2.4-5
		c1.9-1.3,4.1-1.9,6.4-1.8c0.8,0,1.6,0.1,2.3,0.3c0.9,0.2,1.8,0.4,2.7,0.7c0.9,0.3,1.7,0.7,2.5,1.2l-1.6,3.6
		c-0.9-0.4-1.9-0.8-2.9-1.1c-1-0.3-2-0.5-3.1-0.4c-0.9,0-1.8,0.2-2.5,0.7c-0.6,0.4-0.9,1-1,1.7c0,0.6,0.4,1.2,1.3,1.6
		c0.9,0.5,1.9,0.9,2.9,1.2c1.3,0.4,2.5,1,3.6,1.7c1.1,0.7,2.1,1.5,2.9,2.5c0.8,0.9,1.2,2.1,1.2,3.3c0.1,2-0.8,3.9-2.4,5.1
		c-1.6,1.2-3.9,1.8-7,1.8c-0.8,0-1.6-0.1-2.3-0.2c-1-0.2-1.9-0.4-2.8-0.7c-0.9-0.3-1.7-0.7-2.5-1.2L223.6,27.8z"/>
	<path id="Trazado_2196" class="st0" d="M253.7,33V10.3h3.6l0.9,2.7c0.9-0.7,1.8-1.3,2.7-1.8c0.9-0.5,1.9-0.9,2.9-1.2
		c0.9-0.3,1.8-0.4,2.7-0.4c1.5-0.1,2.9,0.3,4.2,1c1.1,0.7,1.9,1.7,2.3,2.9c0.5,1.4,0.8,2.9,0.7,4.4V33h-5.2V18.7
		c0-0.9-0.1-1.7-0.3-2.5c-0.2-0.6-0.5-1.2-1-1.6c-0.6-0.4-1.2-0.6-1.9-0.6c-0.7,0-1.4,0.2-2.1,0.4c-0.7,0.3-1.4,0.7-2.1,1.2
		c-0.7,0.5-1.4,1-2,1.5V33L253.7,33z M272.6,13c0.9-0.7,1.8-1.3,2.8-1.8c0.9-0.5,1.9-0.9,2.9-1.2c0.9-0.3,1.8-0.4,2.7-0.4
		c1.5-0.1,2.9,0.3,4.2,1c1.1,0.7,1.9,1.7,2.3,2.9c0.5,1.4,0.8,2.9,0.7,4.4V33h-5.2V18.7c0-0.9-0.1-1.7-0.3-2.5
		c-0.2-0.6-0.5-1.2-1-1.6c-0.5-0.4-1.2-0.6-1.9-0.6c-0.7,0-1.5,0.2-2.1,0.4c-0.7,0.3-1.5,0.7-2.1,1.2c-0.7,0.5-1.4,1-2,1.5L272.6,13
		z"/>
	<path id="Trazado_2197" class="st0" d="M297.4,23.1c0.1,1.1,0.5,2.2,1,3.2c0.5,0.9,1.3,1.7,2.3,2.1c1.2,0.6,2.6,0.8,4,0.8
		c1.2,0,2.4-0.2,3.5-0.5c1.1-0.4,2.2-0.9,3.2-1.5l1.5,3.8c-0.7,0.5-1.5,1-2.3,1.4c-0.9,0.4-1.8,0.8-2.8,1c-1.1,0.2-2.2,0.3-3.2,0.3
		c-2.4,0.1-4.8-0.4-7-1.5c-1.8-0.9-3.3-2.4-4.2-4.2c-1-1.9-1.4-4.1-1.4-6.2c-0.1-2.2,0.4-4.3,1.3-6.3c0.8-1.7,2.2-3.2,3.8-4.2
		c1.8-1,3.9-1.6,6-1.5c2.1-0.1,4.1,0.5,5.8,1.7c1.5,1.1,2.6,2.7,3.3,4.4c0.7,1.9,1.1,4,1,6V23L297.4,23.1z M308.1,19.5
		c-0.1-1-0.4-2-0.9-2.9c-0.4-0.7-1-1.3-1.8-1.8c-0.8-0.4-1.7-0.6-2.5-0.6c-0.9,0-1.8,0.2-2.6,0.6c-0.8,0.4-1.4,1-1.8,1.8
		c-0.5,0.9-0.8,1.9-0.9,2.9L308.1,19.5z"/>
	<path id="Trazado_2198" class="st0" d="M317.1,33V10.3h3.6l0.9,2.7c0.9-0.7,1.8-1.3,2.8-1.8c0.9-0.5,2-0.9,3-1.2
		c1-0.3,1.9-0.4,2.9-0.4c1.6-0.1,3.1,0.3,4.4,1.1c1.1,0.8,1.9,1.9,2.3,3.1c0.5,1.5,0.7,3,0.7,4.5V33h-5.2V18.7
		c0.1-1.2-0.2-2.4-0.8-3.5c-0.6-0.9-1.6-1.4-2.7-1.3c-0.8,0-1.6,0.2-2.3,0.4c-0.8,0.3-1.5,0.7-2.2,1.2c-0.7,0.5-1.4,1-2.1,1.5V33
		L317.1,33z"/>
	<path id="Trazado_2199" class="st0" d="M343.3,27.8c0.7,0.3,1.4,0.6,2.1,0.8c0.7,0.2,1.3,0.4,2,0.5c0.6,0.1,1.3,0.2,2,0.2
		c0.7,0,1.4-0.1,2.1-0.3c0.6-0.2,1.1-0.5,1.6-0.9c0.4-0.3,0.6-0.8,0.6-1.3c0-0.5-0.2-1-0.6-1.4c-0.5-0.5-1-0.9-1.6-1.2
		c-0.8-0.4-1.6-0.7-2.4-1c-1.2-0.4-2.4-0.9-3.5-1.5c-1.1-0.5-2.1-1.3-2.9-2.2c-0.8-0.9-1.2-2-1.1-3.2c-0.1-1.9,0.8-3.8,2.4-5
		c1.9-1.3,4.1-1.9,6.4-1.8c0.8,0,1.6,0.1,2.3,0.3c0.9,0.2,1.8,0.4,2.7,0.7c0.9,0.3,1.7,0.7,2.5,1.2l-1.6,3.6
		c-0.9-0.4-1.9-0.8-2.9-1.1c-1-0.3-2-0.5-3.1-0.4c-0.9,0-1.8,0.2-2.5,0.7c-0.6,0.4-0.9,1-1,1.7c0,0.6,0.4,1.2,1.3,1.6
		c0.9,0.5,1.9,0.9,2.9,1.2c1.3,0.4,2.5,1,3.6,1.7c1.1,0.7,2.1,1.5,2.9,2.5c0.8,0.9,1.2,2.1,1.2,3.3c0.1,2-0.8,3.9-2.4,5.1
		c-1.6,1.2-3.9,1.8-7,1.8c-0.8,0-1.6-0.1-2.3-0.2c-1-0.2-1.9-0.4-2.8-0.7c-0.9-0.3-1.7-0.7-2.5-1.2L343.3,27.8z"/>
	<path id="Trazado_2200" class="st0" d="M383.2,10.3V33h-3.5l-0.9-2.7c-0.8,0.7-1.8,1.3-2.7,1.8c-1,0.5-2,0.9-3,1.2
		c-0.9,0.3-1.9,0.4-2.9,0.4c-1.6,0.1-3.2-0.3-4.5-1.1c-1.1-0.8-1.9-1.9-2.3-3.1c-0.5-1.5-0.7-3-0.7-4.5V10.3h5.2v14.2
		c-0.1,1.2,0.2,2.4,0.8,3.5c0.6,0.9,1.6,1.3,2.7,1.3c0.8,0,1.6-0.1,2.4-0.4c0.8-0.3,1.5-0.7,2.2-1.2c0.7-0.5,1.4-1,2-1.5V10.3
		L383.2,10.3z"/>
	<path id="Trazado_2201" class="st0" d="M389.3,11.7c0.7-0.5,1.5-0.8,2.4-1.1c1-0.3,2-0.5,3-0.7c0.8-0.2,1.6-0.2,2.5-0.3
		c1.7,0,3.3,0.3,4.8,1.1c1.4,0.7,2.6,1.7,3.4,2.9c0.8,1.2,1.3,2.7,1.3,4.2V33h-3.6l-0.8-2.3c-0.9,0.8-1.8,1.5-2.9,2
		c-1.1,0.5-2.3,0.8-3.5,0.8c-2.7,0-4.7-0.7-6-2c-1.3-1.4-2.1-3.3-2-5.2c-0.1-2.1,0.8-4,2.4-5.3c1.8-1.3,3.9-1.9,6.1-1.8h5v-0.2
		c0-1.2-0.3-2.3-1-3.3c-0.8-0.9-1.9-1.4-3.1-1.3c-1.2,0-2.4,0.2-3.5,0.5c-1,0.3-2.1,0.6-3.1,1L389.3,11.7z M393,27.8
		c0.3,0.5,0.7,0.9,1.1,1.1c0.6,0.3,1.2,0.4,1.8,0.4c1,0,2-0.2,2.9-0.7c1-0.5,1.8-1.1,2.6-1.9v-4h-5c-1.1-0.1-2.1,0.3-2.8,1.1
		c-0.6,0.7-0.9,1.6-0.9,2.5C392.7,26.9,392.8,27.4,393,27.8L393,27.8z"/>
	<path id="Trazado_2202" class="st0" d="M412.4,33V0.5l5.2-0.5v33H412.4z"/>
	<path id="Trazado_2203" class="st0" d="M427.6,23.1c0.1,1.1,0.5,2.2,1,3.2c0.5,0.9,1.3,1.7,2.3,2.1c1.2,0.6,2.6,0.8,4,0.8
		c1.2,0,2.4-0.2,3.5-0.5c1.1-0.4,2.2-0.9,3.2-1.5l1.5,3.8c-0.7,0.5-1.5,1-2.3,1.4c-0.9,0.4-1.8,0.8-2.8,1c-1.1,0.2-2.2,0.3-3.3,0.3
		c-2.4,0.1-4.8-0.4-7-1.5c-1.8-0.9-3.3-2.4-4.2-4.2c-1-1.9-1.4-4.1-1.4-6.2c0-2.2,0.4-4.3,1.3-6.3c0.8-1.7,2.2-3.2,3.8-4.2
		c1.8-1,3.9-1.6,6-1.5c2.1-0.1,4.1,0.5,5.8,1.7c1.5,1.1,2.6,2.7,3.3,4.4c0.7,1.9,1.1,4,1,6V23L427.6,23.1z M438.3,19.5
		c-0.1-1-0.4-2-0.9-2.9c-0.4-0.7-1-1.3-1.8-1.8c-0.8-0.4-1.7-0.6-2.5-0.6c-0.9,0-1.8,0.2-2.6,0.6c-0.8,0.4-1.4,1-1.8,1.8
		c-0.5,0.9-0.8,1.9-0.9,2.9L438.3,19.5z"/>
	<path id="Trazado_2204" class="st0" d="M447.6,27.8c0.7,0.3,1.4,0.6,2.1,0.8c0.7,0.2,1.3,0.4,2,0.5c0.6,0.1,1.3,0.2,2,0.2
		c0.7,0,1.4-0.1,2.1-0.3c0.6-0.2,1.1-0.5,1.6-0.9c0.4-0.3,0.6-0.8,0.6-1.3c0-0.5-0.2-1-0.6-1.4c-0.5-0.5-1-0.9-1.6-1.2
		c-0.8-0.4-1.6-0.7-2.4-1c-1.2-0.4-2.4-0.9-3.5-1.5c-1.1-0.5-2.1-1.3-2.9-2.2c-0.8-0.9-1.2-2-1.1-3.2c-0.1-1.9,0.8-3.8,2.4-5
		c1.9-1.3,4.1-1.9,6.4-1.8c0.8,0,1.6,0.1,2.3,0.3c0.9,0.2,1.8,0.4,2.7,0.7c0.9,0.3,1.7,0.7,2.5,1.2l-1.6,3.6
		c-0.9-0.4-1.9-0.8-2.9-1.1c-1-0.3-2-0.5-3.1-0.4c-0.9,0-1.8,0.2-2.5,0.7c-0.6,0.4-0.9,1-1,1.7c0,0.6,0.4,1.2,1.3,1.6
		c0.9,0.5,1.9,0.9,2.9,1.2c1.3,0.4,2.5,1,3.6,1.7c1.1,0.7,2.1,1.5,2.9,2.5c0.8,0.9,1.2,2.1,1.2,3.3c0.1,2-0.8,3.9-2.4,5.1
		c-1.6,1.2-3.9,1.8-7,1.8c-0.8,0-1.6-0.1-2.3-0.2c-1-0.2-1.9-0.4-2.8-0.7c-0.9-0.3-1.7-0.7-2.5-1.2L447.6,27.8z"/>
</g>
<g id="Grupo_1452" transform="translate(27.807 283.63)">
	<path id="Trazado_2205" class="st1" d="M65.8,62H40.7v31.3l-14.6-0.6V62h-25L0,50.1h26.1v-30l14.6,0.4v29.5h23.7L65.8,62z"/>
	<path id="Trazado_2206" class="st1" d="M124.2,93.9V33l-15,6.9L102.8,28l26.6-12.3h10.4v78.1L124.2,93.9z"/>
	<path id="Trazado_2207" class="st1" d="M156,91.3c-1.7-1.7-2.7-4-2.6-6.4c-0.1-5,3.9-9.2,8.9-9.3c0.2,0,0.3,0,0.5,0
		c2.4-0.1,4.7,0.8,6.4,2.6c1.7,1.7,2.6,4,2.5,6.4c0.1,2.5-0.8,4.8-2.5,6.6c-1.6,1.7-4,2.7-6.4,2.6C160.2,94,157.8,93,156,91.3z"/>
	<path id="Trazado_2208" class="st1" d="M194.2,99.1l25.3-70.7h-40.3l-1.9-12.7h54.9l4.7,6.5l-28.2,81.2L194.2,99.1z"/>
	<path id="Trazado_2209" class="st1" d="M293.5,63.2c-2.6,2.1-5.6,3.9-8.7,5.1c-3.5,1.3-7.3,1.9-11,1.9c-5.4,0.1-10.8-1.1-15.7-3.7
		c-4.3-2.3-8-5.8-10.6-9.9c-2.7-4.3-4-9.2-3.9-14.3c-0.2-10.3,5.4-19.8,14.4-24.6c4.7-2.5,9.9-3.8,15.3-3.7
		c6.2-0.1,12.3,1.3,17.9,4.1c5.3,2.7,9.6,7,12.4,12.2c3,5.4,4.5,12.1,4.5,20.2c0.1,6-1,12-3.2,17.6c-2.1,5.2-5.1,9.9-8.8,14.1
		c-3.7,4.1-7.9,7.6-12.5,10.6c-4.5,2.9-9.3,5.2-14.3,7c-4.5,1.7-9.2,2.8-14,3.5l-2.5-12.6c3.6-0.9,7.3-2,11.1-3.4
		c3.8-1.3,7.5-3,11-5.1c3.5-2,6.6-4.6,9.4-7.5c2.8-2.9,5-6.3,6.6-10c1.7-4.1,2.6-8.5,2.5-12.9c0-5.7-0.9-10.4-2.6-14.1
		c-1.5-3.4-3.9-6.3-7-8.3c-2.9-1.8-6.3-2.8-9.7-2.8c-3-0.1-5.9,0.6-8.5,2.1c-2.3,1.3-4.3,3.1-5.7,5.3c-1.4,2.3-2.1,4.9-2.1,7.5
		c-0.1,3,0.7,5.9,2.1,8.5c1.4,2.4,3.4,4.4,5.8,5.7c2.6,1.4,5.6,2.1,8.6,2.1c3.1,0,6.2-0.5,9.1-1.5c2.9-1,5.6-2.4,8-4.2
		c2.5-1.9,4.9-4,6.9-6.4l3.5,10.4C298.8,58.6,296.1,61,293.5,63.2z"/>
	<path id="Trazado_2210" class="st1" d="M395.1,64.6l-24.3-32.7v62h-15.3V0h9.7l32.2,44.9L427.5,0h9.7v93.9h-15.7V34L401,63.8
		L395.1,64.6z"/>
</g>
<g id="Grupo_1478">
	<path id="Trazado_2276" class="st2" d="M9.5,46.3c2.9,0,4.3-1.3,4.3-4.2c0-3.1,0-6.2,0-9.4c-0.1-0.7,0.3-1.3,0.9-1.5
		c2-0.8,3.3-2.8,3.1-4.9c0-3.3,0-6.6,0-9.9c0.1-2.6-1.9-4.7-4.4-4.8c-0.2,0-0.4,0-0.5,0c0,0-8.1-0.1-8,0c-2.6-0.2-4.8,1.8-4.9,4.3
		c0,0.2,0,0.4,0,0.5c0,3.3,0,6.6,0,9.9c-0.1,2.2,1.1,4.1,3.1,4.9c0.6,0.2,1,0.8,0.9,1.5c0,3.1,0,6.2,0,9.4c0,2.9,1.4,4.2,4.3,4.2
		H9.5z"/>
	<path id="Trazado_2277" class="st2" d="M8.8,9.9C6.1,9.8,4,7.6,4,4.9c0-0.1,0-0.1,0-0.2C4.1,2.1,6.3,0,9,0c2.7,0,4.9,2.3,4.9,5
		S11.6,9.9,8.8,9.9C8.8,9.9,8.8,9.9,8.8,9.9L8.8,9.9z"/>
</g>
<g id="Grupo_1479" transform="translate(23.48)">
	<path id="Trazado_2278" class="st2" d="M9.5,46.3c2.9,0,4.3-1.3,4.3-4.2c0-3.1,0-6.2,0-9.4c-0.1-0.7,0.3-1.3,0.9-1.5
		c2-0.8,3.3-2.8,3.1-4.9c0-3.3,0-6.6,0-9.9c0.1-2.6-1.9-4.7-4.4-4.8c-0.2,0-0.4,0-0.5,0c0,0-8.1-0.1-8,0c-2.6-0.2-4.8,1.8-4.9,4.3
		c0,0.2,0,0.4,0,0.5c0,3.3,0,6.6,0,9.9c-0.1,2.2,1.1,4.1,3.1,4.9c0.6,0.2,1,0.8,0.9,1.5c0,3.1,0,6.2,0,9.4c0,2.9,1.4,4.2,4.3,4.2
		H9.5z"/>
	<path id="Trazado_2279" class="st2" d="M8.8,9.9C6.1,9.8,4,7.6,4,4.9c0-0.1,0-0.1,0-0.2C4.1,2.1,6.3,0,9,0c2.7,0,4.9,2.3,4.9,5
		C13.8,7.7,11.6,9.9,8.8,9.9C8.8,9.9,8.8,9.9,8.8,9.9L8.8,9.9z"/>
</g>
<g id="Grupo_1480" transform="translate(48.526)">
	<path id="Trazado_2280" class="st2" d="M9.5,46.3c2.9,0,4.3-1.3,4.3-4.2c0-3.1,0-6.2,0-9.4c-0.1-0.7,0.3-1.3,0.9-1.5
		c2-0.8,3.3-2.8,3.1-4.9c0-3.3,0-6.6,0-9.9c0.1-2.6-1.9-4.7-4.4-4.8c-0.2,0-0.4,0-0.5,0c0,0-8.1-0.1-8,0c-2.6-0.2-4.8,1.8-4.9,4.3
		c0,0.2,0,0.4,0,0.5c0,3.3,0,6.6,0,9.9c-0.1,2.2,1.1,4.1,3.1,4.9c0.6,0.2,1,0.8,0.9,1.5c0,3.1,0,6.2,0,9.4c0,2.9,1.4,4.2,4.3,4.2
		L9.5,46.3z"/>
	<path id="Trazado_2281" class="st2" d="M8.8,9.9C6.1,9.8,4,7.6,4,4.9c0-0.1,0-0.1,0-0.2C4.1,2.1,6.3,0,9,0c2.7,0,4.9,2.3,4.9,5
		S11.6,9.9,8.8,9.9C8.8,9.9,8.8,9.9,8.8,9.9z"/>
</g>
<g id="Grupo_1481" transform="translate(72.007)">
	<path id="Trazado_2282" class="st2" d="M9.5,46.3c2.9,0,4.3-1.3,4.3-4.2c0-3.1,0-6.2,0-9.4c-0.1-0.7,0.3-1.3,0.9-1.5
		c2-0.8,3.3-2.8,3.1-4.9c0-3.3,0-6.6,0-9.9c0.1-2.6-1.9-4.7-4.4-4.8c-0.2,0-0.4,0-0.5,0c0,0-8.1-0.1-8,0c-2.6-0.2-4.8,1.8-4.9,4.3
		c0,0.2,0,0.4,0,0.5c0,3.3,0,6.6,0,9.9c-0.1,2.2,1.1,4.1,3.1,4.9c0.6,0.2,1,0.8,0.9,1.5c0,3.1,0,6.2,0,9.4c0,2.9,1.4,4.2,4.3,4.2
		H9.5z"/>
	<path id="Trazado_2283" class="st2" d="M8.8,9.9C6.1,9.8,4,7.6,4,4.9c0-0.1,0-0.1,0-0.2C4.1,2.1,6.3,0,9,0c2.7,0,4.9,2.3,4.9,5
		C13.8,7.7,11.6,9.9,8.8,9.9C8.8,9.9,8.8,9.9,8.8,9.9L8.8,9.9z"/>
</g>
<g id="Grupo_1482" transform="translate(96.008)">
	<path id="Trazado_2284" class="st2" d="M9.5,46.3c2.9,0,4.3-1.3,4.3-4.2c0-3.1,0-6.2,0-9.4c-0.1-0.7,0.3-1.3,0.9-1.5
		c2-0.8,3.3-2.8,3.1-4.9c0-3.3,0-6.6,0-9.9c0.1-2.6-1.9-4.7-4.4-4.8c-0.2,0-0.4,0-0.5,0c0,0-8.1-0.1-8,0c-2.6-0.2-4.8,1.8-4.9,4.3
		c0,0.2,0,0.4,0,0.5c0,3.3,0,6.6,0,9.9c-0.1,2.2,1.1,4.1,3.1,4.9c0.6,0.2,1,0.8,0.9,1.5c0,3.1,0,6.2,0,9.4c0,2.9,1.4,4.2,4.3,4.2
		H9.5z"/>
	<path id="Trazado_2285" class="st2" d="M8.8,9.9C6.1,9.8,4,7.6,4,4.9c0-0.1,0-0.1,0-0.2C4.1,2.1,6.3,0,9,0c2.7,0,4.9,2.3,4.9,5
		S11.6,9.9,8.8,9.9C8.8,9.9,8.8,9.9,8.8,9.9L8.8,9.9z"/>
</g>
<g id="Grupo_1483" transform="translate(119.489)">
	<path id="Trazado_2286" class="st2" d="M9.5,46.3c2.9,0,4.3-1.3,4.3-4.2c0-3.1,0-6.2,0-9.4c-0.1-0.7,0.3-1.3,0.9-1.5
		c2-0.8,3.3-2.8,3.1-4.9c0-3.3,0-6.6,0-9.9c0.1-2.6-1.9-4.7-4.4-4.8c-0.2,0-0.4,0-0.5,0c0,0-8.1-0.1-8,0c-2.6-0.2-4.8,1.8-4.9,4.3
		c0,0.2,0,0.4,0,0.5c0,3.3,0,6.6,0,9.9c-0.1,2.2,1.1,4.1,3.1,4.9c0.6,0.2,1,0.8,0.9,1.5c0,3.1,0,6.2,0,9.4c0,2.9,1.4,4.2,4.3,4.2
		H9.5z"/>
	<path id="Trazado_2287" class="st2" d="M8.8,9.9C6.1,9.8,4,7.6,4,4.9c0-0.1,0-0.1,0-0.2C4.1,2.1,6.3,0,9,0c2.7,0,4.9,2.3,4.9,5
		C13.8,7.7,11.6,9.9,8.8,9.9C8.8,9.9,8.8,9.9,8.8,9.9L8.8,9.9z"/>
</g>
<g id="Grupo_1484" transform="translate(144.535)">
	<path id="Trazado_2288" class="st2" d="M9.5,46.3c2.9,0,4.3-1.3,4.3-4.2c0-3.1,0-6.2,0-9.4c-0.1-0.7,0.3-1.3,0.9-1.5
		c2-0.8,3.3-2.8,3.1-4.9c0-3.3,0-6.6,0-9.9c0.1-2.6-1.9-4.7-4.4-4.8c-0.2,0-0.4,0-0.5,0c0,0-8.1-0.1-8,0c-2.6-0.2-4.8,1.8-4.9,4.3
		c0,0.2,0,0.4,0,0.5c0,3.3,0,6.6,0,9.9c-0.1,2.2,1.1,4.1,3.1,4.9c0.6,0.2,1,0.8,0.9,1.5c0,3.1,0,6.2,0,9.4c0,2.9,1.4,4.2,4.3,4.2
		H9.5z"/>
	<path id="Trazado_2289" class="st2" d="M8.8,9.9C6.1,9.8,4,7.6,4,4.9c0-0.1,0-0.1,0-0.2C4.1,2.1,6.3,0,9,0c2.7,0,4.9,2.3,4.9,5
		S11.6,9.9,8.8,9.9C8.8,9.9,8.8,9.9,8.8,9.9L8.8,9.9z"/>
</g>
<g id="Grupo_1485" transform="translate(168.016)">
	<path id="Trazado_2290" class="st2" d="M9.5,46.3c2.9,0,4.3-1.3,4.3-4.2c0-3.1,0-6.2,0-9.4c-0.1-0.7,0.3-1.3,0.9-1.5
		c2-0.8,3.3-2.8,3.1-4.9c0-3.3,0-6.6,0-9.9c0.1-2.6-1.9-4.7-4.4-4.8c-0.2,0-0.4,0-0.5,0c0,0-8.1-0.1-8,0c-2.6-0.2-4.8,1.8-4.9,4.3
		c0,0.2,0,0.4,0,0.5c0,3.3,0,6.6,0,9.9c-0.1,2.2,1.1,4.1,3.1,4.9c0.6,0.2,1,0.8,0.9,1.5c0,3.1,0,6.2,0,9.4c0,2.9,1.4,4.2,4.3,4.2
		H9.5z"/>
	<path id="Trazado_2291" class="st2" d="M8.8,9.9C6.1,9.8,4,7.6,4,4.9c0-0.1,0-0.1,0-0.2C4.1,2.1,6.3,0,9,0c2.7,0,4.9,2.3,4.9,5
		S11.6,9.9,8.8,9.9C8.8,9.9,8.8,9.9,8.8,9.9L8.8,9.9z"/>
</g>
<g id="Grupo_1486" transform="translate(192.018)">
	<path id="Trazado_2292" class="st2" d="M9.5,46.3c2.9,0,4.3-1.3,4.3-4.2c0-3.1,0-6.2,0-9.4c-0.1-0.7,0.3-1.3,0.9-1.5
		c2-0.8,3.3-2.8,3.1-4.9c0-3.3,0-6.6,0-9.9c0.1-2.6-1.9-4.7-4.4-4.8c-0.2,0-0.4,0-0.5,0c0,0-8.1-0.1-8,0c-2.6-0.2-4.8,1.8-4.9,4.3
		c0,0.2,0,0.4,0,0.5c0,3.3,0,6.6,0,9.9c-0.1,2.2,1.1,4.1,3.1,4.9c0.6,0.2,1,0.8,0.9,1.5c0,3.1,0,6.2,0,9.4c0,2.9,1.4,4.2,4.3,4.2
		H9.5z"/>
	<path id="Trazado_2293" class="st2" d="M8.8,9.9C6.1,9.8,4,7.6,4,4.9c0-0.1,0-0.1,0-0.2C4.1,2.1,6.3,0,9,0c2.7,0,4.9,2.3,4.9,5
		C13.8,7.7,11.6,9.9,8.8,9.9C8.8,9.9,8.8,9.9,8.8,9.9L8.8,9.9z"/>
</g>
<g id="Grupo_1487" transform="translate(215.499)">
	<path id="Trazado_2294" class="st2" d="M9.5,46.3c2.9,0,4.3-1.3,4.3-4.2c0-3.1,0-6.2,0-9.4c-0.1-0.7,0.3-1.3,0.9-1.5
		c2-0.8,3.3-2.8,3.1-4.9c0-3.3,0-6.6,0-9.9c0.1-2.6-1.9-4.7-4.4-4.8c-0.2,0-0.4,0-0.5,0c0,0-8.1-0.1-8,0c-2.6-0.2-4.8,1.8-4.9,4.3
		c0,0.2,0,0.4,0,0.5c0,3.3,0,6.6,0,9.9c-0.1,2.2,1.1,4.1,3.1,4.9c0.6,0.2,1,0.8,0.9,1.5c0,3.1,0,6.2,0,9.4c0,2.9,1.4,4.2,4.3,4.2
		H9.5z"/>
	<path id="Trazado_2295" class="st2" d="M8.8,9.9C6.1,9.8,4,7.6,4,4.9c0-0.1,0-0.1,0-0.2C4.1,2.1,6.3,0,9,0c2.7,0,4.9,2.3,4.9,5
		S11.6,9.9,8.8,9.9C8.8,9.9,8.8,9.9,8.8,9.9L8.8,9.9z"/>
</g>
<g id="Grupo_1488" transform="translate(0 51.136)">
	<path id="Trazado_2296" class="st2" d="M9.5,46.3c2.9,0,4.3-1.3,4.3-4.2c0-3.1,0-6.2,0-9.4c-0.1-0.7,0.3-1.3,0.9-1.5
		c2-0.8,3.3-2.8,3.1-4.9c0-3.3,0-6.6,0-9.9c0.1-2.6-1.9-4.7-4.4-4.8c-0.2,0-0.4,0-0.5,0c0,0-8.1-0.1-8,0c-2.6-0.2-4.8,1.8-4.9,4.3
		c0,0.2,0,0.4,0,0.5c0,3.3,0,6.6,0,9.9c-0.1,2.2,1.1,4.1,3.1,4.9c0.6,0.2,1,0.8,0.9,1.5c0,3.1,0,6.2,0,9.4c0,2.9,1.4,4.2,4.3,4.2
		H9.5z"/>
	<path id="Trazado_2297" class="st2" d="M8.8,9.9C6.1,9.8,4,7.6,4,4.9c0-0.1,0-0.1,0-0.2C4.1,2.1,6.3,0,9,0c2.7,0,4.9,2.3,4.9,5
		C13.8,7.7,11.6,9.9,8.8,9.9C8.8,9.9,8.8,9.9,8.8,9.9L8.8,9.9z"/>
</g>
<g id="Grupo_1489" transform="translate(23.48 51.136)">
	<path id="Trazado_2298" class="st2" d="M9.5,46.3c2.9,0,4.3-1.3,4.3-4.2c0-3.1,0-6.2,0-9.4c-0.1-0.7,0.3-1.3,0.9-1.5
		c2-0.8,3.3-2.8,3.1-4.9c0-3.3,0-6.6,0-9.9c0.1-2.6-1.9-4.7-4.4-4.8c-0.2,0-0.4,0-0.5,0c0,0-8.1-0.1-8,0c-2.6-0.2-4.8,1.8-4.9,4.3
		c0,0.2,0,0.4,0,0.5c0,3.3,0,6.6,0,9.9c-0.1,2.2,1.1,4.1,3.1,4.9c0.6,0.2,1,0.8,0.9,1.5c0,3.1,0,6.2,0,9.4c0,2.9,1.4,4.2,4.3,4.2
		H9.5z"/>
	<path id="Trazado_2299" class="st2" d="M8.8,9.9C6.1,9.8,4,7.6,4,4.9c0-0.1,0-0.1,0-0.2C4.1,2.1,6.3,0,9,0c2.7,0,4.9,2.3,4.9,5
		C13.8,7.7,11.6,9.9,8.8,9.9C8.8,9.9,8.8,9.9,8.8,9.9L8.8,9.9z"/>
</g>
<g id="Grupo_1490" transform="translate(48.526 51.136)">
	<path id="Trazado_2300" class="st2" d="M9.5,46.3c2.9,0,4.3-1.3,4.3-4.2c0-3.1,0-6.2,0-9.4c-0.1-0.7,0.3-1.3,0.9-1.5
		c2-0.8,3.3-2.8,3.1-4.9c0-3.3,0-6.6,0-9.9c0.1-2.6-1.9-4.7-4.4-4.8c-0.2,0-0.4,0-0.5,0c0,0-8.1-0.1-8,0c-2.6-0.2-4.8,1.8-4.9,4.3
		c0,0.2,0,0.4,0,0.5c0,3.3,0,6.6,0,9.9c-0.1,2.2,1.1,4.1,3.1,4.9c0.6,0.2,1,0.8,0.9,1.5c0,3.1,0,6.2,0,9.4c0,2.9,1.4,4.2,4.3,4.2
		H9.5z"/>
	<path id="Trazado_2301" class="st2" d="M8.8,9.9C6.1,9.8,4,7.6,4,4.9c0-0.1,0-0.1,0-0.2C4.1,2.1,6.3,0,9,0c2.7,0,4.9,2.3,4.9,5
		C13.8,7.7,11.6,9.9,8.8,9.9C8.8,9.9,8.8,9.9,8.8,9.9L8.8,9.9z"/>
</g>
<g id="Grupo_1491" transform="translate(72.007 51.136)">
	<path id="Trazado_2302" class="st2" d="M9.5,46.3c2.9,0,4.3-1.3,4.3-4.2c0-3.1,0-6.2,0-9.4c-0.1-0.7,0.3-1.3,0.9-1.5
		c2-0.8,3.3-2.8,3.1-4.9c0-3.3,0-6.6,0-9.9c0.1-2.6-1.9-4.7-4.4-4.8c-0.2,0-0.4,0-0.5,0c0,0-8.1-0.1-8,0c-2.6-0.2-4.8,1.8-4.9,4.3
		c0,0.2,0,0.4,0,0.5c0,3.3,0,6.6,0,9.9c-0.1,2.2,1.1,4.1,3.1,4.9c0.6,0.2,1,0.8,0.9,1.5c0,3.1,0,6.2,0,9.4c0,2.9,1.4,4.2,4.3,4.2
		H9.5z"/>
	<path id="Trazado_2303" class="st2" d="M8.8,9.9C6.1,9.8,4,7.6,4,4.9c0-0.1,0-0.1,0-0.2C4.1,2.1,6.3,0,9,0c2.7,0,4.9,2.3,4.9,5
		C13.8,7.7,11.6,9.9,8.8,9.9C8.8,9.9,8.8,9.9,8.8,9.9L8.8,9.9z"/>
</g>
<g id="Grupo_1492" transform="translate(96.008 51.136)">
	<path id="Trazado_2304" class="st2" d="M9.5,46.3c2.9,0,4.3-1.3,4.3-4.2c0-3.1,0-6.2,0-9.4c-0.1-0.7,0.3-1.3,0.9-1.5
		c2-0.8,3.3-2.8,3.1-4.9c0-3.3,0-6.6,0-9.9c0.1-2.6-1.9-4.7-4.4-4.8c-0.2,0-0.4,0-0.5,0c0,0-8.1-0.1-8,0c-2.6-0.2-4.8,1.8-4.9,4.3
		c0,0.2,0,0.4,0,0.5c0,3.3,0,6.6,0,9.9c-0.1,2.2,1.1,4.1,3.1,4.9c0.6,0.2,1,0.8,0.9,1.5c0,3.1,0,6.2,0,9.4c0,2.9,1.4,4.2,4.3,4.2
		H9.5z"/>
	<path id="Trazado_2305" class="st2" d="M8.8,9.9C6.1,9.8,4,7.6,4,4.9c0-0.1,0-0.1,0-0.2C4.1,2.1,6.3,0,9,0c2.7,0,4.9,2.3,4.9,5
		C13.8,7.7,11.6,9.9,8.8,9.9C8.8,9.9,8.8,9.9,8.8,9.9L8.8,9.9z"/>
</g>
<g id="Grupo_1493" transform="translate(119.489 51.136)">
	<path id="Trazado_2306" class="st2" d="M9.5,46.3c2.9,0,4.3-1.3,4.3-4.2c0-3.1,0-6.2,0-9.4c-0.1-0.7,0.3-1.3,0.9-1.5
		c2-0.8,3.3-2.8,3.1-4.9c0-3.3,0-6.6,0-9.9c0.1-2.6-1.9-4.7-4.4-4.8c-0.2,0-0.4,0-0.5,0c0,0-8.1-0.1-8,0c-2.6-0.2-4.8,1.8-4.9,4.3
		c0,0.2,0,0.4,0,0.5c0,3.3,0,6.6,0,9.9c-0.1,2.2,1.1,4.1,3.1,4.9c0.6,0.2,1,0.8,0.9,1.5c0,3.1,0,6.2,0,9.4c0,2.9,1.4,4.2,4.3,4.2
		H9.5z"/>
	<path id="Trazado_2307" class="st2" d="M8.8,9.9C6.1,9.8,4,7.6,4,4.9c0-0.1,0-0.1,0-0.2C4.1,2.1,6.3,0,9,0c2.7,0,4.9,2.3,4.9,5
		C13.8,7.7,11.6,9.9,8.8,9.9C8.8,9.9,8.8,9.9,8.8,9.9L8.8,9.9z"/>
</g>
<g id="Grupo_1494" transform="translate(144.535 51.136)">
	<path id="Trazado_2308" class="st2" d="M9.5,46.3c2.9,0,4.3-1.3,4.3-4.2c0-3.1,0-6.2,0-9.4c-0.1-0.7,0.3-1.3,0.9-1.5
		c2-0.8,3.3-2.8,3.1-4.9c0-3.3,0-6.6,0-9.9c0.1-2.6-1.9-4.7-4.4-4.8c-0.2,0-0.4,0-0.5,0c0,0-8.1-0.1-8,0c-2.6-0.2-4.8,1.8-4.9,4.3
		c0,0.2,0,0.4,0,0.5c0,3.3,0,6.6,0,9.9c-0.1,2.2,1.1,4.1,3.1,4.9c0.6,0.2,1,0.8,0.9,1.5c0,3.1,0,6.2,0,9.4c0,2.9,1.4,4.2,4.3,4.2
		H9.5z"/>
	<path id="Trazado_2309" class="st2" d="M8.8,9.9C6.1,9.8,4,7.6,4,4.9c0-0.1,0-0.1,0-0.2C4.1,2.1,6.3,0,9,0c2.7,0,4.9,2.3,4.9,5
		C13.8,7.7,11.6,9.9,8.8,9.9C8.8,9.9,8.8,9.9,8.8,9.9L8.8,9.9z"/>
</g>
<g id="Grupo_1495" transform="translate(168.016 51.136)">
	<path id="Trazado_2310" class="st2" d="M9.5,46.3c2.9,0,4.3-1.3,4.3-4.2c0-3.1,0-6.2,0-9.4c-0.1-0.7,0.3-1.3,0.9-1.5
		c2-0.8,3.3-2.8,3.1-4.9c0-3.3,0-6.6,0-9.9c0.1-2.6-1.9-4.7-4.4-4.8c-0.2,0-0.4,0-0.5,0c0,0-8.1-0.1-8,0c-2.6-0.2-4.8,1.8-4.9,4.3
		c0,0.2,0,0.4,0,0.5c0,3.3,0,6.6,0,9.9c-0.1,2.2,1.1,4.1,3.1,4.9c0.6,0.2,1,0.8,0.9,1.5c0,3.1,0,6.2,0,9.4c0,2.9,1.4,4.2,4.3,4.2
		H9.5z"/>
	<path id="Trazado_2311" class="st2" d="M8.8,9.9C6.1,9.8,4,7.6,4,4.9c0-0.1,0-0.1,0-0.2C4.1,2.1,6.3,0,9,0c2.7,0,4.9,2.3,4.9,5
		C13.8,7.7,11.6,9.9,8.8,9.9C8.8,9.9,8.8,9.9,8.8,9.9L8.8,9.9z"/>
</g>
<g id="Grupo_1496" transform="translate(192.018 51.136)">
	<path id="Trazado_2312" class="st2" d="M9.5,46.3c2.9,0,4.3-1.3,4.3-4.2c0-3.1,0-6.2,0-9.4c-0.1-0.7,0.3-1.3,0.9-1.5
		c2-0.8,3.3-2.8,3.1-4.9c0-3.3,0-6.6,0-9.9c0.1-2.6-1.9-4.7-4.4-4.8c-0.2,0-0.4,0-0.5,0c0,0-8.1-0.1-8,0c-2.6-0.2-4.8,1.8-4.9,4.3
		c0,0.2,0,0.4,0,0.5c0,3.3,0,6.6,0,9.9c-0.1,2.2,1.1,4.1,3.1,4.9c0.6,0.2,1,0.8,0.9,1.5c0,3.1,0,6.2,0,9.4c0,2.9,1.4,4.2,4.3,4.2
		H9.5z"/>
	<path id="Trazado_2313" class="st2" d="M8.8,9.9C6.1,9.8,4,7.6,4,4.9c0-0.1,0-0.1,0-0.2C4.1,2.1,6.3,0,9,0c2.7,0,4.9,2.3,4.9,5
		C13.8,7.7,11.6,9.9,8.8,9.9C8.8,9.9,8.8,9.9,8.8,9.9L8.8,9.9z"/>
</g>
<g id="Grupo_1497" transform="translate(215.499 51.136)">
	<path id="Trazado_2314" class="st2" d="M9.5,46.3c2.9,0,4.3-1.3,4.3-4.2c0-3.1,0-6.2,0-9.4c-0.1-0.7,0.3-1.3,0.9-1.5
		c2-0.8,3.3-2.8,3.1-4.9c0-3.3,0-6.6,0-9.9c0.1-2.6-1.9-4.7-4.4-4.8c-0.2,0-0.4,0-0.5,0c0,0-8.1-0.1-8,0c-2.6-0.2-4.8,1.8-4.9,4.3
		c0,0.2,0,0.4,0,0.5c0,3.3,0,6.6,0,9.9c-0.1,2.2,1.1,4.1,3.1,4.9c0.6,0.2,1,0.8,0.9,1.5c0,3.1,0,6.2,0,9.4c0,2.9,1.4,4.2,4.3,4.2
		H9.5z"/>
	<path id="Trazado_2315" class="st2" d="M8.8,9.9C6.1,9.8,4,7.6,4,4.9c0-0.1,0-0.1,0-0.2C4.1,2.1,6.3,0,9,0c2.7,0,4.9,2.3,4.9,5
		C13.8,7.7,11.6,9.9,8.8,9.9C8.8,9.9,8.8,9.9,8.8,9.9L8.8,9.9z"/>
</g>
<g id="Grupo_1498" transform="translate(0 101.859)">
	<path id="Trazado_2316" class="st2" d="M9.5,46.3c2.9,0,4.3-1.3,4.3-4.2c0-3.1,0-6.2,0-9.4c-0.1-0.7,0.3-1.3,0.9-1.5
		c2-0.8,3.3-2.8,3.1-4.9c0-3.3,0-6.6,0-9.9c0.1-2.6-1.9-4.7-4.4-4.8c-0.2,0-0.4,0-0.5,0c0,0-8.1-0.1-8,0c-2.6-0.2-4.8,1.8-4.9,4.3
		c0,0.2,0,0.4,0,0.5c0,3.3,0,6.6,0,9.9c-0.1,2.2,1.1,4.1,3.1,4.9c0.6,0.2,1,0.8,0.9,1.5c0,3.1,0,6.2,0,9.4c0,2.9,1.4,4.2,4.3,4.2
		H9.5z"/>
	<path id="Trazado_2317" class="st2" d="M8.8,9.9C6.1,9.8,4,7.6,4,4.9c0-0.1,0-0.1,0-0.2C4.1,2.1,6.3,0,9,0c2.7,0,4.9,2.3,4.9,5
		C13.8,7.7,11.6,9.9,8.8,9.9C8.8,9.9,8.8,9.9,8.8,9.9L8.8,9.9z"/>
</g>
<g id="Grupo_1499" transform="translate(23.48 101.859)">
	<path id="Trazado_2318" class="st2" d="M9.5,46.3c2.9,0,4.3-1.3,4.3-4.2c0-3.1,0-6.2,0-9.4c-0.1-0.7,0.3-1.3,0.9-1.5
		c2-0.8,3.3-2.8,3.1-4.9c0-3.3,0-6.6,0-9.9c0.1-2.6-1.9-4.7-4.4-4.8c-0.2,0-0.4,0-0.5,0c0,0-8.1-0.1-8,0c-2.6-0.2-4.8,1.8-4.9,4.3
		c0,0.2,0,0.4,0,0.5c0,3.3,0,6.6,0,9.9c-0.1,2.2,1.1,4.1,3.1,4.9c0.6,0.2,1,0.8,0.9,1.5c0,3.1,0,6.2,0,9.4c0,2.9,1.4,4.2,4.3,4.2
		H9.5z"/>
	<path id="Trazado_2319" class="st2" d="M8.8,9.9C6.1,9.8,4,7.6,4,4.9c0-0.1,0-0.1,0-0.2C4.1,2.1,6.3,0,9,0c2.7,0,4.9,2.3,4.9,5
		C13.8,7.7,11.6,9.9,8.8,9.9C8.8,9.9,8.8,9.9,8.8,9.9L8.8,9.9z"/>
</g>
<g id="Grupo_1500" transform="translate(48.526 101.859)">
	<path id="Trazado_2320" class="st2" d="M9.5,46.3c2.9,0,4.3-1.3,4.3-4.2c0-3.1,0-6.2,0-9.4c-0.1-0.7,0.3-1.3,0.9-1.5
		c2-0.8,3.3-2.8,3.1-4.9c0-3.3,0-6.6,0-9.9c0.1-2.6-1.9-4.7-4.4-4.8c-0.2,0-0.4,0-0.5,0c0,0-8.1-0.1-8,0c-2.6-0.2-4.8,1.8-4.9,4.3
		c0,0.2,0,0.4,0,0.5c0,3.3,0,6.6,0,9.9c-0.1,2.2,1.1,4.1,3.1,4.9c0.6,0.2,1,0.8,0.9,1.5c0,3.1,0,6.2,0,9.4c0,2.9,1.4,4.2,4.3,4.2
		L9.5,46.3z"/>
	<path id="Trazado_2321" class="st2" d="M8.8,9.9C6.1,9.8,4,7.6,4,4.9c0-0.1,0-0.1,0-0.2C4.1,2.1,6.3,0,9,0c2.7,0,4.9,2.3,4.9,5
		C13.8,7.7,11.6,9.9,8.8,9.9C8.8,9.9,8.8,9.9,8.8,9.9z"/>
</g>
<g id="Grupo_1501" transform="translate(72.007 101.859)">
	<path id="Trazado_2322" class="st2" d="M9.5,46.3c2.9,0,4.3-1.3,4.3-4.2c0-3.1,0-6.2,0-9.4c-0.1-0.7,0.3-1.3,0.9-1.5
		c2-0.8,3.3-2.8,3.1-4.9c0-3.3,0-6.6,0-9.9c0.1-2.6-1.9-4.7-4.4-4.8c-0.2,0-0.4,0-0.5,0c0,0-8.1-0.1-8,0c-2.6-0.2-4.8,1.8-4.9,4.3
		c0,0.2,0,0.4,0,0.5c0,3.3,0,6.6,0,9.9c-0.1,2.2,1.1,4.1,3.1,4.9c0.6,0.2,1,0.8,0.9,1.5c0,3.1,0,6.2,0,9.4c0,2.9,1.4,4.2,4.3,4.2
		H9.5z"/>
	<path id="Trazado_2323" class="st2" d="M8.8,9.9C6.1,9.8,4,7.6,4,4.9c0-0.1,0-0.1,0-0.2C4.1,2.1,6.3,0,9,0c2.7,0,4.9,2.3,4.9,5
		C13.8,7.7,11.6,9.9,8.8,9.9C8.8,9.9,8.8,9.9,8.8,9.9L8.8,9.9z"/>
</g>
<g id="Grupo_1502" transform="translate(96.008 101.859)">
	<path id="Trazado_2324" class="st2" d="M9.5,46.3c2.9,0,4.3-1.3,4.3-4.2c0-3.1,0-6.2,0-9.4c-0.1-0.7,0.3-1.3,0.9-1.5
		c2-0.8,3.3-2.8,3.1-4.9c0-3.3,0-6.6,0-9.9c0.1-2.6-1.9-4.7-4.4-4.8c-0.2,0-0.4,0-0.5,0c0,0-8.1-0.1-8,0c-2.6-0.2-4.8,1.8-4.9,4.3
		c0,0.2,0,0.4,0,0.5c0,3.3,0,6.6,0,9.9c-0.1,2.2,1.1,4.1,3.1,4.9c0.6,0.2,1,0.8,0.9,1.5c0,3.1,0,6.2,0,9.4c0,2.9,1.4,4.2,4.3,4.2
		H9.5z"/>
	<path id="Trazado_2325" class="st2" d="M8.8,9.9C6.1,9.8,4,7.6,4,4.9c0-0.1,0-0.1,0-0.2C4.1,2.1,6.3,0,9,0c2.7,0,4.9,2.3,4.9,5
		C13.8,7.7,11.6,9.9,8.8,9.9C8.8,9.9,8.8,9.9,8.8,9.9L8.8,9.9z"/>
</g>
<g id="Grupo_1503" transform="translate(119.489 101.859)">
	<path id="Trazado_2326" class="st2" d="M9.5,46.3c2.9,0,4.3-1.3,4.3-4.2c0-3.1,0-6.2,0-9.4c-0.1-0.7,0.3-1.3,0.9-1.5
		c2-0.8,3.3-2.8,3.1-4.9c0-3.3,0-6.6,0-9.9c0.1-2.6-1.9-4.7-4.4-4.8c-0.2,0-0.4,0-0.5,0c0,0-8.1-0.1-8,0c-2.6-0.2-4.8,1.8-4.9,4.3
		c0,0.2,0,0.4,0,0.5c0,3.3,0,6.6,0,9.9c-0.1,2.2,1.1,4.1,3.1,4.9c0.6,0.2,1,0.8,0.9,1.5c0,3.1,0,6.2,0,9.4c0,2.9,1.4,4.2,4.3,4.2
		H9.5z"/>
	<path id="Trazado_2327" class="st2" d="M8.8,9.9C6.1,9.8,4,7.6,4,4.9c0-0.1,0-0.1,0-0.2C4.1,2.1,6.3,0,9,0c2.7,0,4.9,2.3,4.9,5
		C13.8,7.7,11.6,9.9,8.8,9.9C8.8,9.9,8.8,9.9,8.8,9.9L8.8,9.9z"/>
</g>
<g id="Grupo_1504" transform="translate(144.535 101.859)">
	<path id="Trazado_2328" class="st2" d="M9.5,46.3c2.9,0,4.3-1.3,4.3-4.2c0-3.1,0-6.2,0-9.4c-0.1-0.7,0.3-1.3,0.9-1.5
		c2-0.8,3.3-2.8,3.1-4.9c0-3.3,0-6.6,0-9.9c0.1-2.6-1.9-4.7-4.4-4.8c-0.2,0-0.4,0-0.5,0c0,0-8.1-0.1-8,0c-2.6-0.2-4.8,1.8-4.9,4.3
		c0,0.2,0,0.4,0,0.5c0,3.3,0,6.6,0,9.9c-0.1,2.2,1.1,4.1,3.1,4.9c0.6,0.2,1,0.8,0.9,1.5c0,3.1,0,6.2,0,9.4c0,2.9,1.4,4.2,4.3,4.2
		H9.5z"/>
	<path id="Trazado_2329" class="st2" d="M8.8,9.9C6.1,9.8,4,7.6,4,4.9c0-0.1,0-0.1,0-0.2C4.1,2.1,6.3,0,9,0c2.7,0,4.9,2.3,4.9,5
		C13.8,7.7,11.6,9.9,8.8,9.9C8.8,9.9,8.8,9.9,8.8,9.9L8.8,9.9z"/>
</g>
<g id="Grupo_1505" transform="translate(168.016 101.859)">
	<path id="Trazado_2330" class="st2" d="M9.5,46.3c2.9,0,4.3-1.3,4.3-4.2c0-3.1,0-6.2,0-9.4c-0.1-0.7,0.3-1.3,0.9-1.5
		c2-0.8,3.3-2.8,3.1-4.9c0-3.3,0-6.6,0-9.9c0.1-2.6-1.9-4.7-4.4-4.8c-0.2,0-0.4,0-0.5,0c0,0-8.1-0.1-8,0c-2.6-0.2-4.8,1.8-4.9,4.3
		c0,0.2,0,0.4,0,0.5c0,3.3,0,6.6,0,9.9c-0.1,2.2,1.1,4.1,3.1,4.9c0.6,0.2,1,0.8,0.9,1.5c0,3.1,0,6.2,0,9.4c0,2.9,1.4,4.2,4.3,4.2
		H9.5z"/>
	<path id="Trazado_2331" class="st2" d="M8.8,9.9C6.1,9.8,4,7.6,4,4.9c0-0.1,0-0.1,0-0.2C4.1,2.1,6.3,0,9,0c2.7,0,4.9,2.3,4.9,5
		C13.8,7.7,11.6,9.9,8.8,9.9C8.8,9.9,8.8,9.9,8.8,9.9L8.8,9.9z"/>
</g>
<g id="Grupo_1506" transform="translate(192.018 101.859)">
	<path id="Trazado_2332" class="st2" d="M9.5,46.3c2.9,0,4.3-1.3,4.3-4.2c0-3.1,0-6.2,0-9.4c-0.1-0.7,0.3-1.3,0.9-1.5
		c2-0.8,3.3-2.8,3.1-4.9c0-3.3,0-6.6,0-9.9c0.1-2.6-1.9-4.7-4.4-4.8c-0.2,0-0.4,0-0.5,0c0,0-8.1-0.1-8,0c-2.6-0.2-4.8,1.8-4.9,4.3
		c0,0.2,0,0.4,0,0.5c0,3.3,0,6.6,0,9.9c-0.1,2.2,1.1,4.1,3.1,4.9c0.6,0.2,1,0.8,0.9,1.5c0,3.1,0,6.2,0,9.4c0,2.9,1.4,4.2,4.3,4.2
		H9.5z"/>
	<path id="Trazado_2333" class="st2" d="M8.8,9.9C6.1,9.8,4,7.6,4,4.9c0-0.1,0-0.1,0-0.2C4.1,2.1,6.3,0,9,0c2.7,0,4.9,2.3,4.9,5
		C13.8,7.7,11.6,9.9,8.8,9.9C8.8,9.9,8.8,9.9,8.8,9.9L8.8,9.9z"/>
</g>
<g id="Grupo_1507" transform="translate(215.499 101.859)">
	<path id="Trazado_2334" class="st2" d="M9.5,46.3c2.9,0,4.3-1.3,4.3-4.2c0-3.1,0-6.2,0-9.4c-0.1-0.7,0.3-1.3,0.9-1.5
		c2-0.8,3.3-2.8,3.1-4.9c0-3.3,0-6.6,0-9.9c0.1-2.6-1.9-4.7-4.4-4.8c-0.2,0-0.4,0-0.5,0c0,0-8.1-0.1-8,0c-2.6-0.2-4.8,1.8-4.9,4.3
		c0,0.2,0,0.4,0,0.5c0,3.3,0,6.6,0,9.9c-0.1,2.2,1.1,4.1,3.1,4.9c0.6,0.2,1,0.8,0.9,1.5c0,3.1,0,6.2,0,9.4c0,2.9,1.4,4.2,4.3,4.2
		H9.5z"/>
	<path id="Trazado_2335" class="st2" d="M8.8,9.9C6.1,9.8,4,7.6,4,4.9c0-0.1,0-0.1,0-0.2C4.1,2.1,6.3,0,9,0c2.7,0,4.9,2.3,4.9,5
		C13.8,7.7,11.6,9.9,8.8,9.9C8.8,9.9,8.8,9.9,8.8,9.9L8.8,9.9z"/>
</g>
<g id="Grupo_1508" transform="translate(0 152.995)">
	<path id="Trazado_2336" class="st2" d="M9.5,46.3c2.9,0,4.3-1.3,4.3-4.2c0-3.1,0-6.2,0-9.4c-0.1-0.7,0.3-1.3,0.9-1.5
		c2-0.8,3.3-2.8,3.1-4.9c0-3.3,0-6.6,0-9.9c0.1-2.6-1.9-4.7-4.4-4.8c-0.2,0-0.4,0-0.5,0c0,0-8.1-0.1-8,0c-2.6-0.2-4.8,1.7-4.9,4.3
		c0,0.2,0,0.4,0,0.5c0,3.3,0,6.6,0,9.9c-0.1,2.2,1.1,4.1,3.1,4.9c0.6,0.2,1,0.8,0.9,1.5c0,3.1,0,6.2,0,9.4c0,2.9,1.4,4.2,4.3,4.2
		H9.5z"/>
	<path id="Trazado_2337" class="st2" d="M8.8,9.9C6.1,9.8,4,7.6,4,4.9c0-0.1,0-0.1,0-0.2C4.1,2.1,6.3,0,9,0c2.7,0,4.9,2.3,4.9,5
		C13.8,7.7,11.6,9.9,8.8,9.9C8.8,9.9,8.8,9.9,8.8,9.9L8.8,9.9z"/>
</g>
<g id="Grupo_1509" transform="translate(23.48 152.995)">
	<path id="Trazado_2338" class="st2" d="M9.5,46.3c2.9,0,4.3-1.3,4.3-4.2c0-3.1,0-6.2,0-9.4c-0.1-0.7,0.3-1.3,0.9-1.5
		c2-0.8,3.3-2.8,3.1-4.9c0-3.3,0-6.6,0-9.9c0.1-2.6-1.9-4.7-4.4-4.8c-0.2,0-0.4,0-0.5,0c0,0-8.1-0.1-8,0c-2.6-0.2-4.8,1.8-4.9,4.3
		c0,0.2,0,0.4,0,0.5c0,3.3,0,6.6,0,9.9c-0.1,2.2,1.1,4.1,3.1,4.9c0.6,0.2,1,0.8,0.9,1.5c0,3.1,0,6.2,0,9.4c0,2.9,1.4,4.2,4.3,4.2
		H9.5z"/>
	<path id="Trazado_2339" class="st2" d="M8.8,9.9C6.1,9.8,4,7.6,4,4.9c0-0.1,0-0.1,0-0.2C4.1,2.1,6.3,0,9,0c2.7,0,4.9,2.3,4.9,5
		C13.8,7.7,11.6,9.9,8.8,9.9C8.8,9.9,8.8,9.9,8.8,9.9L8.8,9.9z"/>
</g>
<g id="Grupo_1510" transform="translate(48.526 152.995)">
	<path id="Trazado_2340" class="st2" d="M9.5,46.3c2.9,0,4.3-1.3,4.3-4.2c0-3.1,0-6.2,0-9.4c-0.1-0.7,0.3-1.3,0.9-1.5
		c2-0.8,3.3-2.8,3.1-4.9c0-3.3,0-6.6,0-9.9c0.1-2.6-1.9-4.7-4.4-4.8c-0.2,0-0.4,0-0.5,0c0,0-8.1-0.1-8,0c-2.6-0.2-4.8,1.7-4.9,4.3
		c0,0.2,0,0.4,0,0.5c0,3.3,0,6.6,0,9.9c-0.1,2.2,1.1,4.1,3.1,4.9c0.6,0.2,1,0.8,0.9,1.5c0,3.1,0,6.2,0,9.4c0,2.9,1.4,4.2,4.3,4.2
		H9.5z"/>
	<path id="Trazado_2341" class="st2" d="M8.8,9.9C6.1,9.8,4,7.6,4,4.9c0-0.1,0-0.1,0-0.2C4.1,2.1,6.3,0,9,0c2.7,0,4.9,2.3,4.9,5
		C13.8,7.7,11.6,9.9,8.8,9.9C8.8,9.9,8.8,9.9,8.8,9.9z"/>
</g>
<g id="Grupo_1511" transform="translate(72.007 152.995)">
	<path id="Trazado_2342" class="st2" d="M9.5,46.3c2.9,0,4.3-1.3,4.3-4.2c0-3.1,0-6.2,0-9.4c-0.1-0.7,0.3-1.3,0.9-1.5
		c2-0.8,3.3-2.8,3.1-4.9c0-3.3,0-6.6,0-9.9c0.1-2.6-1.9-4.7-4.4-4.8c-0.2,0-0.4,0-0.5,0c0,0-8.1-0.1-8,0c-2.6-0.2-4.8,1.7-4.9,4.3
		c0,0.2,0,0.4,0,0.5c0,3.3,0,6.6,0,9.9c-0.1,2.2,1.1,4.1,3.1,4.9c0.6,0.2,1,0.8,0.9,1.5c0,3.1,0,6.2,0,9.4c0,2.9,1.4,4.2,4.3,4.2
		H9.5z"/>
	<path id="Trazado_2343" class="st2" d="M8.8,9.9C6.1,9.8,4,7.6,4,4.9c0-0.1,0-0.1,0-0.2C4.1,2.1,6.3,0,9,0c2.7,0,4.9,2.3,4.9,5
		C13.8,7.7,11.6,9.9,8.8,9.9C8.8,9.9,8.8,9.9,8.8,9.9L8.8,9.9z"/>
</g>
<g id="Grupo_1512" transform="translate(96.008 152.995)">
	<path id="Trazado_2344" class="st2" d="M9.5,46.3c2.9,0,4.3-1.3,4.3-4.2c0-3.1,0-6.2,0-9.4c-0.1-0.7,0.3-1.3,0.9-1.5
		c2-0.8,3.3-2.8,3.1-4.9c0-3.3,0-6.6,0-9.9c0.1-2.6-1.9-4.7-4.4-4.8c-0.2,0-0.4,0-0.5,0c0,0-8.1-0.1-8,0c-2.6-0.2-4.8,1.8-4.9,4.3
		c0,0.2,0,0.4,0,0.5c0,3.3,0,6.6,0,9.9c-0.1,2.2,1.1,4.1,3.1,4.9c0.6,0.2,1,0.8,0.9,1.5c0,3.1,0,6.2,0,9.4c0,2.9,1.4,4.2,4.3,4.2
		H9.5z"/>
	<path id="Trazado_2345" class="st2" d="M8.8,9.9C6.1,9.8,4,7.6,4,4.9c0-0.1,0-0.1,0-0.2C4.1,2.1,6.3,0,9,0c2.7,0,4.9,2.3,4.9,5
		C13.8,7.7,11.6,9.9,8.8,9.9C8.8,9.9,8.8,9.9,8.8,9.9L8.8,9.9z"/>
</g>
<g id="Grupo_1513" transform="translate(119.489 152.995)">
	<path id="Trazado_2346" class="st2" d="M9.5,46.3c2.9,0,4.3-1.3,4.3-4.2c0-3.1,0-6.2,0-9.4c-0.1-0.7,0.3-1.3,0.9-1.5
		c2-0.8,3.3-2.8,3.1-4.9c0-3.3,0-6.6,0-9.9c0.1-2.6-1.9-4.7-4.4-4.8c-0.2,0-0.4,0-0.5,0c0,0-8.1-0.1-8,0c-2.6-0.2-4.8,1.7-4.9,4.3
		c0,0.2,0,0.4,0,0.5c0,3.3,0,6.6,0,9.9c-0.1,2.2,1.1,4.1,3.1,4.9c0.6,0.2,1,0.8,0.9,1.5c0,3.1,0,6.2,0,9.4c0,2.9,1.4,4.2,4.3,4.2
		H9.5z"/>
	<path id="Trazado_2347" class="st2" d="M8.8,9.9C6.1,9.8,4,7.6,4,4.9c0-0.1,0-0.1,0-0.2C4.1,2.1,6.3,0,9,0c2.7,0,4.9,2.3,4.9,5
		C13.8,7.7,11.6,9.9,8.8,9.9C8.8,9.9,8.8,9.9,8.8,9.9L8.8,9.9z"/>
</g>
<g id="Grupo_1514" transform="translate(144.535 152.995)">
	<path id="Trazado_2348" class="st2" d="M9.5,46.3c2.9,0,4.3-1.3,4.3-4.2c0-3.1,0-6.2,0-9.4c-0.1-0.7,0.3-1.3,0.9-1.5
		c2-0.8,3.3-2.8,3.1-4.9c0-3.3,0-6.6,0-9.9c0.1-2.6-1.9-4.7-4.4-4.8c-0.2,0-0.4,0-0.5,0c0,0-8.1-0.1-8,0c-2.6-0.2-4.8,1.8-4.9,4.3
		c0,0.2,0,0.4,0,0.5c0,3.3,0,6.6,0,9.9c-0.1,2.2,1.1,4.1,3.1,4.9c0.6,0.2,1,0.8,0.9,1.5c0,3.1,0,6.2,0,9.4c0,2.9,1.4,4.2,4.3,4.2
		H9.5z"/>
	<path id="Trazado_2349" class="st2" d="M8.8,9.9C6.1,9.8,4,7.6,4,4.9c0-0.1,0-0.1,0-0.2C4.1,2.1,6.3,0,9,0c2.7,0,4.9,2.3,4.9,5
		C13.8,7.7,11.6,9.9,8.8,9.9C8.8,9.9,8.8,9.9,8.8,9.9L8.8,9.9z"/>
</g>
<g id="Grupo_1515" transform="translate(168.016 152.995)">
	<path id="Trazado_2350" class="st2" d="M9.5,46.3c2.9,0,4.3-1.3,4.3-4.2c0-3.1,0-6.2,0-9.4c-0.1-0.7,0.3-1.3,0.9-1.5
		c2-0.8,3.3-2.8,3.1-4.9c0-3.3,0-6.6,0-9.9c0.1-2.6-1.9-4.7-4.4-4.8c-0.2,0-0.4,0-0.5,0c0,0-8.1-0.1-8,0c-2.6-0.2-4.8,1.7-4.9,4.3
		c0,0.2,0,0.4,0,0.5c0,3.3,0,6.6,0,9.9c-0.1,2.2,1.1,4.1,3.1,4.9c0.6,0.2,1,0.8,0.9,1.5c0,3.1,0,6.2,0,9.4c0,2.9,1.4,4.2,4.3,4.2
		H9.5z"/>
	<path id="Trazado_2351" class="st2" d="M8.8,9.9C6.1,9.8,4,7.6,4,4.9c0-0.1,0-0.1,0-0.2C4.1,2.1,6.3,0,9,0c2.7,0,4.9,2.3,4.9,5
		C13.8,7.7,11.6,9.9,8.8,9.9C8.8,9.9,8.8,9.9,8.8,9.9L8.8,9.9z"/>
</g>
<g id="Grupo_1516" transform="translate(192.018 152.995)">
	<path id="Trazado_2352" class="st2" d="M9.5,46.3c2.9,0,4.3-1.3,4.3-4.2c0-3.1,0-6.2,0-9.4c-0.1-0.7,0.3-1.3,0.9-1.5
		c2-0.8,3.3-2.8,3.1-4.9c0-3.3,0-6.6,0-9.9c0.1-2.6-1.9-4.7-4.4-4.8c-0.2,0-0.4,0-0.5,0c0,0-8.1-0.1-8,0c-2.6-0.2-4.8,1.8-4.9,4.3
		c0,0.2,0,0.4,0,0.5c0,3.3,0,6.6,0,9.9c-0.1,2.2,1.1,4.1,3.1,4.9c0.6,0.2,1,0.8,0.9,1.5c0,3.1,0,6.2,0,9.4c0,2.9,1.4,4.2,4.3,4.2
		H9.5z"/>
	<path id="Trazado_2353" class="st2" d="M8.8,9.9C6.1,9.8,4,7.6,4,4.9c0-0.1,0-0.1,0-0.2C4.1,2.1,6.3,0,9,0c2.7,0,4.9,2.3,4.9,5
		C13.8,7.7,11.6,9.9,8.8,9.9C8.8,9.9,8.8,9.9,8.8,9.9L8.8,9.9z"/>
</g>
<g id="Grupo_1517" transform="translate(215.499 152.995)">
	<path id="Trazado_2354" class="st2" d="M9.5,46.3c2.9,0,4.3-1.3,4.3-4.2c0-3.1,0-6.2,0-9.4c-0.1-0.7,0.3-1.3,0.9-1.5
		c2-0.8,3.3-2.8,3.1-4.9c0-3.3,0-6.6,0-9.9c0.1-2.6-1.9-4.7-4.4-4.8c-0.2,0-0.4,0-0.5,0c0,0-8.1-0.1-8,0c-2.6-0.2-4.8,1.7-4.9,4.3
		c0,0.2,0,0.4,0,0.5c0,3.3,0,6.6,0,9.9c-0.1,2.2,1.1,4.1,3.1,4.9c0.6,0.2,1,0.8,0.9,1.5c0,3.1,0,6.2,0,9.4c0,2.9,1.4,4.2,4.3,4.2
		H9.5z"/>
	<path id="Trazado_2355" class="st2" d="M8.8,9.9C6.1,9.8,4,7.6,4,4.9c0-0.1,0-0.1,0-0.2C4.1,2.1,6.3,0,9,0c2.7,0,4.9,2.3,4.9,5
		C13.8,7.7,11.6,9.9,8.8,9.9C8.8,9.9,8.8,9.9,8.8,9.9L8.8,9.9z"/>
</g>
<g id="Grupo_1518" transform="translate(0 203.089)">
	<path id="Trazado_2356" class="st2" d="M9.5,46.3c2.9,0,4.3-1.3,4.3-4.2c0-3.1,0-6.2,0-9.4c-0.1-0.7,0.3-1.3,0.9-1.5
		c2-0.8,3.3-2.8,3.1-4.9c0-3.3,0-6.6,0-9.9c0.1-2.6-1.9-4.7-4.4-4.8c-0.2,0-0.4,0-0.5,0c0,0-8.1-0.1-8,0c-2.6-0.2-4.8,1.8-4.9,4.3
		c0,0.2,0,0.4,0,0.5c0,3.3,0,6.6,0,9.9c-0.1,2.2,1.1,4.1,3.1,4.9c0.6,0.2,1,0.8,0.9,1.5c0,3.1,0,6.2,0,9.4c0,2.9,1.4,4.2,4.3,4.2
		H9.5z"/>
	<path id="Trazado_2357" class="st2" d="M8.8,9.9C6.1,9.8,4,7.6,4,4.9c0-0.1,0-0.1,0-0.2C4.1,2.1,6.3,0,9,0c2.7,0,4.9,2.3,4.9,5
		C13.8,7.7,11.6,9.9,8.8,9.9C8.8,9.9,8.8,9.9,8.8,9.9L8.8,9.9z"/>
</g>
<g id="Grupo_1519" transform="translate(23.48 203.089)">
	<path id="Trazado_2358" class="st2" d="M9.5,46.3c2.9,0,4.3-1.3,4.3-4.2c0-3.1,0-6.2,0-9.4c-0.1-0.7,0.3-1.3,0.9-1.5
		c2-0.8,3.3-2.8,3.1-4.9c0-3.3,0-6.6,0-9.9c0.1-2.6-1.9-4.7-4.4-4.8c-0.2,0-0.4,0-0.5,0c0,0-8.1-0.1-8,0c-2.6-0.2-4.8,1.8-4.9,4.3
		c0,0.2,0,0.4,0,0.5c0,3.3,0,6.6,0,9.9c-0.1,2.2,1.1,4.1,3.1,4.9c0.6,0.2,1,0.8,0.9,1.5c0,3.1,0,6.2,0,9.4c0,2.9,1.4,4.2,4.3,4.2
		H9.5z"/>
	<path id="Trazado_2359" class="st2" d="M8.8,9.9C6.1,9.8,4,7.6,4,4.9c0-0.1,0-0.1,0-0.2C4.1,2.1,6.3,0,9,0c2.7,0,4.9,2.3,4.9,5
		C13.8,7.7,11.6,9.9,8.8,9.9C8.8,9.9,8.8,9.9,8.8,9.9L8.8,9.9z"/>
</g>
<g id="Grupo_1520" transform="translate(48.526 203.089)">
	<path id="Trazado_2360" class="st2" d="M9.5,46.3c2.9,0,4.3-1.3,4.3-4.2c0-3.1,0-6.2,0-9.4c-0.1-0.7,0.3-1.3,0.9-1.5
		c2-0.8,3.3-2.8,3.1-4.9c0-3.3,0-6.6,0-9.9c0.1-2.6-1.9-4.7-4.4-4.8c-0.2,0-0.4,0-0.5,0c0,0-8.1-0.1-8,0c-2.6-0.2-4.8,1.7-4.9,4.3
		c0,0.2,0,0.4,0,0.5c0,3.3,0,6.6,0,9.9c-0.1,2.2,1.1,4.1,3.1,4.9c0.6,0.2,1,0.8,0.9,1.5c0,3.1,0,6.2,0,9.4c0,2.9,1.4,4.2,4.3,4.2
		H9.5z"/>
	<path id="Trazado_2361" class="st2" d="M8.8,9.9C6.1,9.8,4,7.6,4,4.9c0-0.1,0-0.1,0-0.2C4.1,2.1,6.3,0,9,0c2.7,0,4.9,2.3,4.9,5
		C13.8,7.7,11.6,9.9,8.8,9.9C8.8,9.9,8.8,9.9,8.8,9.9z"/>
</g>
<g id="Grupo_1521" transform="translate(72.007 203.089)">
	<path id="Trazado_2362" class="st2" d="M9.5,46.3c2.9,0,4.3-1.3,4.3-4.2c0-3.1,0-6.2,0-9.4c-0.1-0.7,0.3-1.3,0.9-1.5
		c2-0.8,3.3-2.8,3.1-4.9c0-3.3,0-6.6,0-9.9c0.1-2.6-1.9-4.7-4.4-4.8c-0.2,0-0.4,0-0.5,0c0,0-8.1-0.1-8,0c-2.6-0.2-4.8,1.7-4.9,4.3
		c0,0.2,0,0.4,0,0.5c0,3.3,0,6.6,0,9.9c-0.1,2.2,1.1,4.1,3.1,4.9c0.6,0.2,1,0.8,0.9,1.5c0,3.1,0,6.2,0,9.4c0,2.9,1.4,4.2,4.3,4.2
		H9.5z"/>
	<path id="Trazado_2363" class="st2" d="M8.8,9.9C6.1,9.8,4,7.6,4,4.9c0-0.1,0-0.1,0-0.2C4.1,2.1,6.3,0,9,0c2.7,0,4.9,2.3,4.9,5
		C13.8,7.7,11.6,9.9,8.8,9.9C8.8,9.9,8.8,9.9,8.8,9.9L8.8,9.9z"/>
</g>
<g id="Grupo_1522" transform="translate(96.008 203.089)">
	<path id="Trazado_2364" class="st2" d="M9.5,46.3c2.9,0,4.3-1.3,4.3-4.2c0-3.1,0-6.2,0-9.4c-0.1-0.7,0.3-1.3,0.9-1.5
		c2-0.8,3.3-2.8,3.1-4.9c0-3.3,0-6.6,0-9.9c0.1-2.6-1.9-4.7-4.4-4.8c-0.2,0-0.4,0-0.5,0c0,0-8.1-0.1-8,0c-2.6-0.2-4.8,1.8-4.9,4.3
		c0,0.2,0,0.4,0,0.5c0,3.3,0,6.6,0,9.9c-0.1,2.2,1.1,4.1,3.1,4.9c0.6,0.2,1,0.8,0.9,1.5c0,3.1,0,6.2,0,9.4c0,2.9,1.4,4.2,4.3,4.2
		H9.5z"/>
	<path id="Trazado_2365" class="st2" d="M8.8,9.9C6.1,9.8,4,7.6,4,4.9c0-0.1,0-0.1,0-0.2C4.1,2.1,6.3,0,9,0c2.7,0,4.9,2.3,4.9,5
		C13.8,7.7,11.6,9.9,8.8,9.9C8.8,9.9,8.8,9.9,8.8,9.9L8.8,9.9z"/>
</g>
<g id="Grupo_1523" transform="translate(119.489 203.089)">
	<path id="Trazado_2366" class="st2" d="M9.5,46.3c2.9,0,4.3-1.3,4.3-4.2c0-3.1,0-6.2,0-9.4c-0.1-0.7,0.3-1.3,0.9-1.5
		c2-0.8,3.3-2.8,3.1-4.9c0-3.3,0-6.6,0-9.9c0.1-2.6-1.9-4.7-4.4-4.8c-0.2,0-0.4,0-0.5,0c0,0-8.1-0.1-8,0c-2.6-0.2-4.8,1.7-4.9,4.3
		c0,0.2,0,0.4,0,0.5c0,3.3,0,6.6,0,9.9c-0.1,2.2,1.1,4.1,3.1,4.9c0.6,0.2,1,0.8,0.9,1.5c0,3.1,0,6.2,0,9.4c0,2.9,1.4,4.2,4.3,4.2
		H9.5z"/>
	<path id="Trazado_2367" class="st2" d="M8.8,9.9C6.1,9.8,4,7.6,4,4.9c0-0.1,0-0.1,0-0.2C4.1,2.1,6.3,0,9,0c2.7,0,4.9,2.3,4.9,5
		C13.8,7.7,11.6,9.9,8.8,9.9C8.8,9.9,8.8,9.9,8.8,9.9L8.8,9.9z"/>
</g>
<g id="Grupo_1524" transform="translate(144.535 203.089)">
	<path id="Trazado_2368" class="st2" d="M9.5,46.3c2.9,0,4.3-1.3,4.3-4.2c0-3.1,0-6.2,0-9.4c-0.1-0.7,0.3-1.3,0.9-1.5
		c2-0.8,3.3-2.8,3.1-4.9c0-3.3,0-6.6,0-9.9c0.1-2.6-1.9-4.7-4.4-4.8c-0.2,0-0.4,0-0.5,0c0,0-8.1-0.1-8,0c-2.6-0.2-4.8,1.8-4.9,4.3
		c0,0.2,0,0.4,0,0.5c0,3.3,0,6.6,0,9.9c-0.1,2.2,1.1,4.1,3.1,4.9c0.6,0.2,1,0.8,0.9,1.5c0,3.1,0,6.2,0,9.4c0,2.9,1.4,4.2,4.3,4.2
		H9.5z"/>
	<path id="Trazado_2369" class="st2" d="M8.8,9.9C6.1,9.8,4,7.6,4,4.9c0-0.1,0-0.1,0-0.2C4.1,2.1,6.3,0,9,0c2.7,0,4.9,2.3,4.9,5
		C13.8,7.7,11.6,9.9,8.8,9.9C8.8,9.9,8.8,9.9,8.8,9.9L8.8,9.9z"/>
</g>
<g id="Grupo_1525" transform="translate(168.016 203.089)">
	<path id="Trazado_2370" class="st2" d="M9.5,46.3c2.9,0,4.3-1.3,4.3-4.2c0-3.1,0-6.2,0-9.4c-0.1-0.7,0.3-1.3,0.9-1.5
		c2-0.8,3.3-2.8,3.1-4.9c0-3.3,0-6.6,0-9.9c0.1-2.6-1.9-4.7-4.4-4.8c-0.2,0-0.4,0-0.5,0c0,0-8.1-0.1-8,0c-2.6-0.2-4.8,1.7-4.9,4.3
		c0,0.2,0,0.4,0,0.5c0,3.3,0,6.6,0,9.9c-0.1,2.2,1.1,4.1,3.1,4.9c0.6,0.2,1,0.8,0.9,1.5c0,3.1,0,6.2,0,9.4c0,2.9,1.4,4.2,4.3,4.2
		H9.5z"/>
	<path id="Trazado_2371" class="st2" d="M8.8,9.9C6.1,9.8,4,7.6,4,4.9c0-0.1,0-0.1,0-0.2C4.1,2.1,6.3,0,9,0c2.7,0,4.9,2.3,4.9,5
		C13.8,7.7,11.6,9.9,8.8,9.9C8.8,9.9,8.8,9.9,8.8,9.9L8.8,9.9z"/>
</g>
<g id="Grupo_1526" transform="translate(192.018 203.089)">
	<path id="Trazado_2372" class="st2" d="M9.5,46.3c2.9,0,4.3-1.3,4.3-4.2c0-3.1,0-6.2,0-9.4c-0.1-0.7,0.3-1.3,0.9-1.5
		c2-0.8,3.3-2.8,3.1-4.9c0-3.3,0-6.6,0-9.9c0.1-2.6-1.9-4.7-4.4-4.8c-0.2,0-0.4,0-0.5,0c0,0-8.1-0.1-8,0c-2.6-0.2-4.8,1.8-4.9,4.3
		c0,0.2,0,0.4,0,0.5c0,3.3,0,6.6,0,9.9c-0.1,2.2,1.1,4.1,3.1,4.9c0.6,0.2,1,0.8,0.9,1.5c0,3.1,0,6.2,0,9.4c0,2.9,1.4,4.2,4.3,4.2
		H9.5z"/>
	<path id="Trazado_2373" class="st2" d="M8.8,9.9C6.1,9.8,4,7.6,4,4.9c0-0.1,0-0.1,0-0.2C4.1,2.1,6.3,0,9,0c2.7,0,4.9,2.3,4.9,5
		C13.8,7.7,11.6,9.9,8.8,9.9C8.8,9.9,8.8,9.9,8.8,9.9L8.8,9.9z"/>
</g>
<g id="Grupo_1527" transform="translate(215.499 203.089)">
	<path id="Trazado_2374" class="st2" d="M9.5,46.3c2.9,0,4.3-1.3,4.3-4.2c0-3.1,0-6.2,0-9.4c-0.1-0.7,0.3-1.3,0.9-1.5
		c2-0.8,3.3-2.8,3.1-4.9c0-3.3,0-6.6,0-9.9c0.1-2.6-1.9-4.7-4.4-4.8c-0.2,0-0.4,0-0.5,0c0,0-8.1-0.1-8,0c-2.6-0.2-4.8,1.7-4.9,4.3
		c0,0.2,0,0.4,0,0.5c0,3.3,0,6.6,0,9.9c-0.1,2.2,1.1,4.1,3.1,4.9c0.6,0.2,1,0.8,0.9,1.5c0,3.1,0,6.2,0,9.4c0,2.9,1.4,4.2,4.3,4.2
		H9.5z"/>
	<path id="Trazado_2375" class="st2" d="M8.8,9.9C6.1,9.8,4,7.6,4,4.9c0-0.1,0-0.1,0-0.2C4.1,2.1,6.3,0,9,0c2.7,0,4.9,2.3,4.9,5
		C13.8,7.7,11.6,9.9,8.8,9.9C8.8,9.9,8.8,9.9,8.8,9.9L8.8,9.9z"/>
</g>
<g id="Grupo_1528" transform="translate(241.288)">
	<path id="Trazado_2376" class="st2" d="M9.5,46.3c2.9,0,4.3-1.3,4.3-4.2c0-3.1,0-6.2,0-9.4c-0.1-0.7,0.3-1.3,0.9-1.5
		c2-0.8,3.3-2.8,3.1-4.9c0-3.3,0-6.6,0-9.9c0.1-2.6-1.9-4.7-4.4-4.8c-0.2,0-0.4,0-0.5,0c0,0-8.1-0.1-8,0c-2.6-0.2-4.8,1.8-4.9,4.3
		c0,0.2,0,0.4,0,0.5c0,3.3,0,6.6,0,9.9c-0.1,2.2,1.1,4.1,3.1,4.9c0.6,0.2,1,0.8,0.9,1.5c0,3.1,0,6.2,0,9.4c0,2.9,1.4,4.2,4.3,4.2
		H9.5z"/>
	<path id="Trazado_2377" class="st2" d="M8.8,9.9C6.1,9.8,4,7.6,4,4.9c0-0.1,0-0.1,0-0.2C4.1,2.1,6.3,0,9,0c2.7,0,4.9,2.3,4.9,5
		S11.6,9.9,8.8,9.9C8.8,9.9,8.8,9.9,8.8,9.9L8.8,9.9z"/>
</g>
<g id="Grupo_1529" transform="translate(264.768)">
	<path id="Trazado_2378" class="st2" d="M9.5,46.3c2.9,0,4.3-1.3,4.3-4.2c0-3.1,0-6.2,0-9.4c-0.1-0.7,0.3-1.3,0.9-1.5
		c2-0.8,3.3-2.8,3.1-4.9c0-3.3,0-6.6,0-9.9c0.1-2.6-1.9-4.7-4.4-4.8c-0.2,0-0.4,0-0.5,0c0,0-8.1-0.1-8,0c-2.6-0.2-4.8,1.8-4.9,4.3
		c0,0.2,0,0.4,0,0.5c0,3.3,0,6.6,0,9.9c-0.1,2.2,1.1,4.1,3.1,4.9c0.6,0.2,1,0.8,0.9,1.5c0,3.1,0,6.2,0,9.4c0,2.9,1.4,4.2,4.3,4.2
		H9.5z"/>
	<path id="Trazado_2379" class="st2" d="M8.8,9.9C6.1,9.8,4,7.6,4,4.9c0-0.1,0-0.1,0-0.2C4.1,2.1,6.3,0,9,0c2.7,0,4.9,2.3,4.9,5
		C13.8,7.7,11.6,9.9,8.8,9.9C8.8,9.9,8.8,9.9,8.8,9.9L8.8,9.9z"/>
</g>
<g id="Grupo_1530" transform="translate(289.815)">
	<path id="Trazado_2380" class="st2" d="M9.5,46.3c2.9,0,4.3-1.3,4.3-4.2c0-3.1,0-6.2,0-9.4c-0.1-0.7,0.3-1.3,0.9-1.5
		c2-0.8,3.3-2.8,3.1-4.9c0-3.3,0-6.6,0-9.9c0.1-2.6-1.9-4.7-4.4-4.8c-0.2,0-0.4,0-0.5,0c0,0-8.1-0.1-8,0c-2.6-0.2-4.8,1.8-4.9,4.3
		c0,0.2,0,0.4,0,0.5c0,3.3,0,6.6,0,9.9c-0.1,2.2,1.1,4.1,3.1,4.9c0.6,0.2,1,0.8,0.9,1.5c0,3.1,0,6.2,0,9.4c0,2.9,1.4,4.2,4.3,4.2
		L9.5,46.3z"/>
	<path id="Trazado_2381" class="st2" d="M8.8,9.9C6.1,9.8,4,7.6,4,4.9c0-0.1,0-0.1,0-0.2C4.1,2.1,6.3,0,9,0c2.7,0,4.9,2.3,4.9,5
		S11.6,9.9,8.8,9.9C8.8,9.9,8.8,9.9,8.8,9.9L8.8,9.9z"/>
</g>
<g id="Grupo_1531" transform="translate(313.295)">
	<path id="Trazado_2382" class="st2" d="M9.5,46.3c2.9,0,4.3-1.3,4.3-4.2c0-3.1,0-6.2,0-9.4c-0.1-0.7,0.3-1.3,0.9-1.5
		c2-0.8,3.3-2.8,3.1-4.9c0-3.3,0-6.6,0-9.9c0.1-2.6-1.9-4.7-4.4-4.8c-0.2,0-0.4,0-0.5,0c0,0-8.1-0.1-8,0c-2.6-0.2-4.8,1.8-4.9,4.3
		c0,0.2,0,0.4,0,0.5c0,3.3,0,6.6,0,9.9c-0.1,2.2,1.1,4.1,3.1,4.9c0.6,0.2,1,0.8,0.9,1.5c0,3.1,0,6.2,0,9.4c0,2.9,1.4,4.2,4.3,4.2
		H9.5z"/>
	<path id="Trazado_2383" class="st2" d="M8.8,9.9C6.1,9.8,4,7.6,4,4.9c0-0.1,0-0.1,0-0.2C4.1,2.1,6.3,0,9,0c2.7,0,4.9,2.3,4.9,5
		C13.8,7.7,11.6,9.9,8.8,9.9C8.8,9.9,8.8,9.9,8.8,9.9L8.8,9.9z"/>
</g>
<g id="Grupo_1532" transform="translate(337.297)">
	<path id="Trazado_2384" class="st2" d="M9.5,46.3c2.9,0,4.3-1.3,4.3-4.2c0-3.1,0-6.2,0-9.4c-0.1-0.7,0.3-1.3,0.9-1.5
		c2-0.8,3.3-2.8,3.1-4.9c0-3.3,0-6.6,0-9.9c0.1-2.6-1.9-4.7-4.4-4.8c-0.2,0-0.4,0-0.5,0c0,0-8.1-0.1-8,0c-2.6-0.2-4.8,1.8-4.9,4.3
		c0,0.2,0,0.4,0,0.5c0,3.3,0,6.6,0,9.9c-0.1,2.2,1.1,4.1,3.1,4.9c0.6,0.2,1,0.8,0.9,1.5c0,3.1,0,6.2,0,9.4c0,2.9,1.4,4.2,4.3,4.2
		H9.5z"/>
	<path id="Trazado_2385" class="st2" d="M8.8,9.9C6.1,9.8,4,7.6,4,4.9c0-0.1,0-0.1,0-0.2C4.1,2.1,6.3,0,9,0c2.7,0,4.9,2.3,4.9,5
		S11.6,9.9,8.8,9.9C8.8,9.9,8.8,9.9,8.8,9.9L8.8,9.9z"/>
</g>
<g id="Grupo_1533" transform="translate(360.778)">
	<path id="Trazado_2386" class="st2" d="M9.5,46.3c2.9,0,4.3-1.3,4.3-4.2c0-3.1,0-6.2,0-9.4c-0.1-0.7,0.3-1.3,0.9-1.5
		c2-0.8,3.3-2.8,3.1-4.9c0-3.3,0-6.6,0-9.9c0.1-2.6-1.9-4.7-4.4-4.8c-0.2,0-0.4,0-0.5,0c0,0-8.1-0.1-8,0c-2.6-0.2-4.8,1.8-4.9,4.3
		c0,0.2,0,0.4,0,0.5c0,3.3,0,6.6,0,9.9c-0.1,2.2,1.1,4.1,3.1,4.9c0.6,0.2,1,0.8,0.9,1.5c0,3.1,0,6.2,0,9.4c0,2.9,1.4,4.2,4.3,4.2
		H9.5z"/>
	<path id="Trazado_2387" class="st2" d="M8.8,9.9C6.1,9.8,4,7.6,4,4.9c0-0.1,0-0.1,0-0.2C4.1,2.1,6.3,0,9,0c2.7,0,4.9,2.3,4.9,5
		C13.8,7.7,11.6,9.9,8.8,9.9C8.8,9.9,8.8,9.9,8.8,9.9L8.8,9.9z"/>
</g>
<g id="Grupo_1534" transform="translate(385.823)">
	<path id="Trazado_2388" class="st2" d="M9.5,46.3c2.9,0,4.3-1.3,4.3-4.2c0-3.1,0-6.2,0-9.4c-0.1-0.7,0.3-1.3,0.9-1.5
		c2-0.8,3.3-2.8,3.1-4.9c0-3.3,0-6.6,0-9.9c0.1-2.6-1.9-4.7-4.4-4.8c-0.2,0-0.4,0-0.5,0c0,0-8.1-0.1-8,0c-2.6-0.2-4.8,1.8-4.9,4.3
		c0,0.2,0,0.4,0,0.5c0,3.3,0,6.6,0,9.9c-0.1,2.2,1.1,4.1,3.1,4.9c0.6,0.2,1,0.8,0.9,1.5c0,3.1,0,6.2,0,9.4c0,2.9,1.4,4.2,4.3,4.2
		H9.5z"/>
	<path id="Trazado_2389" class="st2" d="M8.8,9.9C6.1,9.8,4,7.6,4,4.9c0-0.1,0-0.1,0-0.2C4.1,2.1,6.3,0,9,0c2.7,0,4.9,2.3,4.9,5
		S11.6,9.9,8.8,9.9C8.8,9.9,8.8,9.9,8.8,9.9L8.8,9.9z"/>
</g>
<g id="Grupo_1535" transform="translate(409.304)">
	<path id="Trazado_2390" class="st2" d="M9.5,46.3c2.9,0,4.3-1.3,4.3-4.2c0-3.1,0-6.2,0-9.4c-0.1-0.7,0.3-1.3,0.9-1.5
		c2-0.8,3.3-2.8,3.1-4.9c0-3.3,0-6.6,0-9.9c0.1-2.6-1.9-4.7-4.4-4.8c-0.2,0-0.4,0-0.5,0c0,0-8.1-0.1-8,0c-2.6-0.2-4.8,1.8-4.9,4.3
		c0,0.2,0,0.4,0,0.5c0,3.3,0,6.6,0,9.9c-0.1,2.2,1.1,4.1,3.1,4.9c0.6,0.2,1,0.8,0.9,1.5c0,3.1,0,6.2,0,9.4c0,2.9,1.4,4.2,4.3,4.2
		H9.5z"/>
	<path id="Trazado_2391" class="st2" d="M8.8,9.9C6.1,9.8,4,7.6,4,4.9c0-0.1,0-0.1,0-0.2C4.1,2.1,6.3,0,9,0c2.7,0,4.9,2.3,4.9,5
		S11.6,9.9,8.8,9.9C8.8,9.9,8.8,9.9,8.8,9.9L8.8,9.9z"/>
</g>
<g id="Grupo_1536" transform="translate(433.306)">
	<path id="Trazado_2392" class="st2" d="M9.5,46.3c2.9,0,4.3-1.3,4.3-4.2c0-3.1,0-6.2,0-9.4c-0.1-0.7,0.3-1.3,0.9-1.5
		c2-0.8,3.3-2.8,3.1-4.9c0-3.3,0-6.6,0-9.9c0.1-2.6-1.9-4.7-4.4-4.8c-0.2,0-0.4,0-0.5,0c0,0-8.1-0.1-8,0c-2.6-0.2-4.8,1.8-4.9,4.3
		c0,0.2,0,0.4,0,0.5c0,3.3,0,6.6,0,9.9c-0.1,2.2,1.1,4.1,3.1,4.9c0.6,0.2,1,0.8,0.9,1.5c0,3.1,0,6.2,0,9.4c0,2.9,1.4,4.2,4.3,4.2
		H9.5z"/>
	<path id="Trazado_2393" class="st2" d="M8.8,9.9C6.1,9.8,4,7.6,4,4.9c0-0.1,0-0.1,0-0.2C4.1,2.1,6.3,0,9,0c2.7,0,4.9,2.3,4.9,5
		C13.8,7.7,11.6,9.9,8.8,9.9C8.8,9.9,8.8,9.9,8.8,9.9L8.8,9.9z"/>
</g>
<g id="Grupo_1537" transform="translate(456.787)">
	<path id="Trazado_2394" class="st2" d="M9.5,46.3c2.9,0,4.3-1.3,4.3-4.2c0-3.1,0-6.2,0-9.4c-0.1-0.7,0.3-1.3,0.9-1.5
		c2-0.8,3.3-2.8,3.1-4.9c0-3.3,0-6.6,0-9.9c0.1-2.6-1.9-4.7-4.4-4.8c-0.2,0-0.4,0-0.5,0c0,0-8.1-0.1-8,0c-2.6-0.2-4.8,1.8-4.9,4.3
		c0,0.2,0,0.4,0,0.5c0,3.3,0,6.6,0,9.9c-0.1,2.2,1.1,4.1,3.1,4.9c0.6,0.2,1,0.8,0.9,1.5c0,3.1,0,6.2,0,9.4c0,2.9,1.4,4.2,4.3,4.2
		H9.5z"/>
	<path id="Trazado_2395" class="st2" d="M8.8,9.9C6.1,9.8,4,7.6,4,4.9c0-0.1,0-0.1,0-0.2C4.1,2.1,6.3,0,9,0c2.7,0,4.9,2.3,4.9,5
		S11.6,9.9,8.8,9.9C8.8,9.9,8.8,9.9,8.8,9.9L8.8,9.9z"/>
</g>
<g id="Grupo_1538" transform="translate(241.288 51.136)">
	<path id="Trazado_2396" class="st2" d="M9.5,46.3c2.9,0,4.3-1.3,4.3-4.2c0-3.1,0-6.2,0-9.4c-0.1-0.7,0.3-1.3,0.9-1.5
		c2-0.8,3.3-2.8,3.1-4.9c0-3.3,0-6.6,0-9.9c0.1-2.6-1.9-4.7-4.4-4.8c-0.2,0-0.4,0-0.5,0c0,0-8.1-0.1-8,0c-2.6-0.2-4.8,1.8-4.9,4.3
		c0,0.2,0,0.4,0,0.5c0,3.3,0,6.6,0,9.9c-0.1,2.2,1.1,4.1,3.1,4.9c0.6,0.2,1,0.8,0.9,1.5c0,3.1,0,6.2,0,9.4c0,2.9,1.4,4.2,4.3,4.2
		H9.5z"/>
	<path id="Trazado_2397" class="st2" d="M8.8,9.9C6.1,9.8,4,7.6,4,4.9c0-0.1,0-0.1,0-0.2C4.1,2.1,6.3,0,9,0c2.7,0,4.9,2.3,4.9,5
		C13.8,7.7,11.6,9.9,8.8,9.9C8.8,9.9,8.8,9.9,8.8,9.9L8.8,9.9z"/>
</g>
<g id="Grupo_1539" transform="translate(264.768 51.136)">
	<path id="Trazado_2398" class="st2" d="M9.5,46.3c2.9,0,4.3-1.3,4.3-4.2c0-3.1,0-6.2,0-9.4c-0.1-0.7,0.3-1.3,0.9-1.5
		c2-0.8,3.3-2.8,3.1-4.9c0-3.3,0-6.6,0-9.9c0.1-2.6-1.9-4.7-4.4-4.8c-0.2,0-0.4,0-0.5,0c0,0-8.1-0.1-8,0c-2.6-0.2-4.8,1.8-4.9,4.3
		c0,0.2,0,0.4,0,0.5c0,3.3,0,6.6,0,9.9c-0.1,2.2,1.1,4.1,3.1,4.9c0.6,0.2,1,0.8,0.9,1.5c0,3.1,0,6.2,0,9.4c0,2.9,1.4,4.2,4.3,4.2
		H9.5z"/>
	<path id="Trazado_2399" class="st2" d="M8.8,9.9C6.1,9.8,4,7.6,4,4.9c0-0.1,0-0.1,0-0.2C4.1,2.1,6.3,0,9,0c2.7,0,4.9,2.3,4.9,5
		C13.8,7.7,11.6,9.9,8.8,9.9C8.8,9.9,8.8,9.9,8.8,9.9L8.8,9.9z"/>
</g>
<g id="Grupo_1540" transform="translate(289.815 51.136)">
	<path id="Trazado_2400" class="st2" d="M9.5,46.3c2.9,0,4.3-1.3,4.3-4.2c0-3.1,0-6.2,0-9.4c-0.1-0.7,0.3-1.3,0.9-1.5
		c2-0.8,3.3-2.8,3.1-4.9c0-3.3,0-6.6,0-9.9c0.1-2.6-1.9-4.7-4.4-4.8c-0.2,0-0.4,0-0.5,0c0,0-8.1-0.1-8,0c-2.6-0.2-4.8,1.8-4.9,4.3
		c0,0.2,0,0.4,0,0.5c0,3.3,0,6.6,0,9.9c-0.1,2.2,1.1,4.1,3.1,4.9c0.6,0.2,1,0.8,0.9,1.5c0,3.1,0,6.2,0,9.4c0,2.9,1.4,4.2,4.3,4.2
		H9.5z"/>
	<path id="Trazado_2401" class="st2" d="M8.8,9.9C6.1,9.8,4,7.6,4,4.9c0-0.1,0-0.1,0-0.2C4.1,2.1,6.3,0,9,0c2.7,0,4.9,2.3,4.9,5
		C13.8,7.7,11.6,9.9,8.8,9.9C8.8,9.9,8.8,9.9,8.8,9.9L8.8,9.9z"/>
</g>
<g id="Grupo_1541" transform="translate(313.295 51.136)">
	<path id="Trazado_2402" class="st2" d="M9.5,46.3c2.9,0,4.3-1.3,4.3-4.2c0-3.1,0-6.2,0-9.4c-0.1-0.7,0.3-1.3,0.9-1.5
		c2-0.8,3.3-2.8,3.1-4.9c0-3.3,0-6.6,0-9.9c0.1-2.6-1.9-4.7-4.4-4.8c-0.2,0-0.4,0-0.5,0c0,0-8.1-0.1-8,0c-2.6-0.2-4.8,1.8-4.9,4.3
		c0,0.2,0,0.4,0,0.5c0,3.3,0,6.6,0,9.9c-0.1,2.2,1.1,4.1,3.1,4.9c0.6,0.2,1,0.8,0.9,1.5c0,3.1,0,6.2,0,9.4c0,2.9,1.4,4.2,4.3,4.2
		H9.5z"/>
	<path id="Trazado_2403" class="st2" d="M8.8,9.9C6.1,9.8,4,7.6,4,4.9c0-0.1,0-0.1,0-0.2C4.1,2.1,6.3,0,9,0c2.7,0,4.9,2.3,4.9,5
		C13.8,7.7,11.6,9.9,8.8,9.9C8.8,9.9,8.8,9.9,8.8,9.9L8.8,9.9z"/>
</g>
<g id="Grupo_1542" transform="translate(337.297 51.136)">
	<path id="Trazado_2404" class="st2" d="M9.5,46.3c2.9,0,4.3-1.3,4.3-4.2c0-3.1,0-6.2,0-9.4c-0.1-0.7,0.3-1.3,0.9-1.5
		c2-0.8,3.3-2.8,3.1-4.9c0-3.3,0-6.6,0-9.9c0.1-2.6-1.9-4.7-4.4-4.8c-0.2,0-0.4,0-0.5,0c0,0-8.1-0.1-8,0c-2.6-0.2-4.8,1.8-4.9,4.3
		c0,0.2,0,0.4,0,0.5c0,3.3,0,6.6,0,9.9c-0.1,2.2,1.1,4.1,3.1,4.9c0.6,0.2,1,0.8,0.9,1.5c0,3.1,0,6.2,0,9.4c0,2.9,1.4,4.2,4.3,4.2
		H9.5z"/>
	<path id="Trazado_2405" class="st2" d="M8.8,9.9C6.1,9.8,4,7.6,4,4.9c0-0.1,0-0.1,0-0.2C4.1,2.1,6.3,0,9,0c2.7,0,4.9,2.3,4.9,5
		C13.8,7.7,11.6,9.9,8.8,9.9C8.8,9.9,8.8,9.9,8.8,9.9L8.8,9.9z"/>
</g>
<g id="Grupo_1543" transform="translate(360.778 51.136)">
	<path id="Trazado_2406" class="st2" d="M9.5,46.3c2.9,0,4.3-1.3,4.3-4.2c0-3.1,0-6.2,0-9.4c-0.1-0.7,0.3-1.3,0.9-1.5
		c2-0.8,3.3-2.8,3.1-4.9c0-3.3,0-6.6,0-9.9c0.1-2.6-1.9-4.7-4.4-4.8c-0.2,0-0.4,0-0.5,0c0,0-8.1-0.1-8,0c-2.6-0.2-4.8,1.8-4.9,4.3
		c0,0.2,0,0.4,0,0.5c0,3.3,0,6.6,0,9.9c-0.1,2.2,1.1,4.1,3.1,4.9c0.6,0.2,1,0.8,0.9,1.5c0,3.1,0,6.2,0,9.4c0,2.9,1.4,4.2,4.3,4.2
		H9.5z"/>
	<path id="Trazado_2407" class="st2" d="M8.8,9.9C6.1,9.8,4,7.6,4,4.9c0-0.1,0-0.1,0-0.2C4.1,2.1,6.3,0,9,0c2.7,0,4.9,2.3,4.9,5
		C13.8,7.7,11.6,9.9,8.8,9.9C8.8,9.9,8.8,9.9,8.8,9.9L8.8,9.9z"/>
</g>
<g id="Grupo_1544" transform="translate(385.823 51.136)">
	<path id="Trazado_2408" class="st2" d="M9.5,46.3c2.9,0,4.3-1.3,4.3-4.2c0-3.1,0-6.2,0-9.4c-0.1-0.7,0.3-1.3,0.9-1.5
		c2-0.8,3.3-2.8,3.1-4.9c0-3.3,0-6.6,0-9.9c0.1-2.6-1.9-4.7-4.4-4.8c-0.2,0-0.4,0-0.5,0c0,0-8.1-0.1-8,0c-2.6-0.2-4.8,1.8-4.9,4.3
		c0,0.2,0,0.4,0,0.5c0,3.3,0,6.6,0,9.9c-0.1,2.2,1.1,4.1,3.1,4.9c0.6,0.2,1,0.8,0.9,1.5c0,3.1,0,6.2,0,9.4c0,2.9,1.4,4.2,4.3,4.2
		H9.5z"/>
	<path id="Trazado_2409" class="st2" d="M8.8,9.9C6.1,9.8,4,7.6,4,4.9c0-0.1,0-0.1,0-0.2C4.1,2.1,6.3,0,9,0c2.7,0,4.9,2.3,4.9,5
		C13.8,7.7,11.6,9.9,8.8,9.9C8.8,9.9,8.8,9.9,8.8,9.9L8.8,9.9z"/>
</g>
<g id="Grupo_1545" transform="translate(409.304 51.136)">
	<path id="Trazado_2410" class="st2" d="M9.5,46.3c2.9,0,4.3-1.3,4.3-4.2c0-3.1,0-6.2,0-9.4c-0.1-0.7,0.3-1.3,0.9-1.5
		c2-0.8,3.3-2.8,3.1-4.9c0-3.3,0-6.6,0-9.9c0.1-2.6-1.9-4.7-4.4-4.8c-0.2,0-0.4,0-0.5,0c0,0-8.1-0.1-8,0c-2.6-0.2-4.8,1.8-4.9,4.3
		c0,0.2,0,0.4,0,0.5c0,3.3,0,6.6,0,9.9c-0.1,2.2,1.1,4.1,3.1,4.9c0.6,0.2,1,0.8,0.9,1.5c0,3.1,0,6.2,0,9.4c0,2.9,1.4,4.2,4.3,4.2
		H9.5z"/>
	<path id="Trazado_2411" class="st2" d="M8.8,9.9C6.1,9.8,4,7.6,4,4.9c0-0.1,0-0.1,0-0.2C4.1,2.1,6.3,0,9,0c2.7,0,4.9,2.3,4.9,5
		C13.8,7.7,11.6,9.9,8.8,9.9C8.8,9.9,8.8,9.9,8.8,9.9L8.8,9.9z"/>
</g>
<g id="Grupo_1546" transform="translate(433.306 51.136)">
	<path id="Trazado_2412" class="st2" d="M9.5,46.3c2.9,0,4.3-1.3,4.3-4.2c0-3.1,0-6.2,0-9.4c-0.1-0.7,0.3-1.3,0.9-1.5
		c2-0.8,3.3-2.8,3.1-4.9c0-3.3,0-6.6,0-9.9c0.1-2.6-1.9-4.7-4.4-4.8c-0.2,0-0.4,0-0.5,0c0,0-8.1-0.1-8,0c-2.6-0.2-4.8,1.8-4.9,4.3
		c0,0.2,0,0.4,0,0.5c0,3.3,0,6.6,0,9.9c-0.1,2.2,1.1,4.1,3.1,4.9c0.6,0.2,1,0.8,0.9,1.5c0,3.1,0,6.2,0,9.4c0,2.9,1.4,4.2,4.3,4.2
		H9.5z"/>
	<path id="Trazado_2413" class="st2" d="M8.8,9.9C6.1,9.8,4,7.6,4,4.9c0-0.1,0-0.1,0-0.2C4.1,2.1,6.3,0,9,0c2.7,0,4.9,2.3,4.9,5
		C13.8,7.7,11.6,9.9,8.8,9.9C8.8,9.9,8.8,9.9,8.8,9.9L8.8,9.9z"/>
</g>
<g id="Grupo_1547" transform="translate(456.787 51.136)">
	<path id="Trazado_2414" class="st2" d="M9.5,46.3c2.9,0,4.3-1.3,4.3-4.2c0-3.1,0-6.2,0-9.4c-0.1-0.7,0.3-1.3,0.9-1.5
		c2-0.8,3.3-2.8,3.1-4.9c0-3.3,0-6.6,0-9.9c0.1-2.6-1.9-4.7-4.4-4.8c-0.2,0-0.4,0-0.5,0c0,0-8.1-0.1-8,0c-2.6-0.2-4.8,1.8-4.9,4.3
		c0,0.2,0,0.4,0,0.5c0,3.3,0,6.6,0,9.9c-0.1,2.2,1.1,4.1,3.1,4.9c0.6,0.2,1,0.8,0.9,1.5c0,3.1,0,6.2,0,9.4c0,2.9,1.4,4.2,4.3,4.2
		H9.5z"/>
	<path id="Trazado_2415" class="st2" d="M8.8,9.9C6.1,9.8,4,7.6,4,4.9c0-0.1,0-0.1,0-0.2C4.1,2.1,6.3,0,9,0c2.7,0,4.9,2.3,4.9,5
		C13.8,7.7,11.6,9.9,8.8,9.9C8.8,9.9,8.8,9.9,8.8,9.9L8.8,9.9z"/>
</g>
<g id="Grupo_1548" transform="translate(241.288 101.859)">
	<path id="Trazado_2416" class="st2" d="M9.5,46.3c2.9,0,4.3-1.3,4.3-4.2c0-3.1,0-6.2,0-9.4c-0.1-0.7,0.3-1.3,0.9-1.5
		c2-0.8,3.3-2.8,3.1-4.9c0-3.3,0-6.6,0-9.9c0.1-2.6-1.9-4.7-4.4-4.8c-0.2,0-0.4,0-0.5,0c0,0-8.1-0.1-8,0c-2.6-0.2-4.8,1.8-4.9,4.3
		c0,0.2,0,0.4,0,0.5c0,3.3,0,6.6,0,9.9c-0.1,2.2,1.1,4.1,3.1,4.9c0.6,0.2,1,0.8,0.9,1.5c0,3.1,0,6.2,0,9.4c0,2.9,1.4,4.2,4.3,4.2
		H9.5z"/>
	<path id="Trazado_2417" class="st2" d="M8.8,9.9C6.1,9.8,4,7.6,4,4.9c0-0.1,0-0.1,0-0.2C4.1,2.1,6.3,0,9,0c2.7,0,4.9,2.3,4.9,5
		C13.8,7.7,11.6,9.9,8.8,9.9C8.8,9.9,8.8,9.9,8.8,9.9L8.8,9.9z"/>
</g>
<g id="Grupo_1549" transform="translate(264.768 101.859)">
	<path id="Trazado_2418" class="st2" d="M9.5,46.3c2.9,0,4.3-1.3,4.3-4.2c0-3.1,0-6.2,0-9.4c-0.1-0.7,0.3-1.3,0.9-1.5
		c2-0.8,3.3-2.8,3.1-4.9c0-3.3,0-6.6,0-9.9c0.1-2.6-1.9-4.7-4.4-4.8c-0.2,0-0.4,0-0.5,0c0,0-8.1-0.1-8,0c-2.6-0.2-4.8,1.8-4.9,4.3
		c0,0.2,0,0.4,0,0.5c0,3.3,0,6.6,0,9.9c-0.1,2.2,1.1,4.1,3.1,4.9c0.6,0.2,1,0.8,0.9,1.5c0,3.1,0,6.2,0,9.4c0,2.9,1.4,4.2,4.3,4.2
		H9.5z"/>
	<path id="Trazado_2419" class="st2" d="M8.8,9.9C6.1,9.8,4,7.6,4,4.9c0-0.1,0-0.1,0-0.2C4.1,2.1,6.3,0,9,0c2.7,0,4.9,2.3,4.9,5
		C13.8,7.7,11.6,9.9,8.8,9.9C8.8,9.9,8.8,9.9,8.8,9.9L8.8,9.9z"/>
</g>
<g id="Grupo_1550" transform="translate(289.815 101.859)">
	<path id="Trazado_2420" class="st2" d="M9.5,46.3c2.9,0,4.3-1.3,4.3-4.2c0-3.1,0-6.2,0-9.4c-0.1-0.7,0.3-1.3,0.9-1.5
		c2-0.8,3.3-2.8,3.1-4.9c0-3.3,0-6.6,0-9.9c0.1-2.6-1.9-4.7-4.4-4.8c-0.2,0-0.4,0-0.5,0c0,0-8.1-0.1-8,0c-2.6-0.2-4.8,1.8-4.9,4.3
		c0,0.2,0,0.4,0,0.5c0,3.3,0,6.6,0,9.9c-0.1,2.2,1.1,4.1,3.1,4.9c0.6,0.2,1,0.8,0.9,1.5c0,3.1,0,6.2,0,9.4c0,2.9,1.4,4.2,4.3,4.2
		L9.5,46.3z"/>
	<path id="Trazado_2421" class="st2" d="M8.8,9.9C6.1,9.8,4,7.6,4,4.9c0-0.1,0-0.1,0-0.2C4.1,2.1,6.3,0,9,0c2.7,0,4.9,2.3,4.9,5
		C13.8,7.7,11.6,9.9,8.8,9.9C8.8,9.9,8.8,9.9,8.8,9.9L8.8,9.9z"/>
</g>
<g id="Grupo_1551" transform="translate(313.295 101.859)">
	<path id="Trazado_2422" class="st2" d="M9.5,46.3c2.9,0,4.3-1.3,4.3-4.2c0-3.1,0-6.2,0-9.4c-0.1-0.7,0.3-1.3,0.9-1.5
		c2-0.8,3.3-2.8,3.1-4.9c0-3.3,0-6.6,0-9.9c0.1-2.6-1.9-4.7-4.4-4.8c-0.2,0-0.4,0-0.5,0c0,0-8.1-0.1-8,0c-2.6-0.2-4.8,1.8-4.9,4.3
		c0,0.2,0,0.4,0,0.5c0,3.3,0,6.6,0,9.9c-0.1,2.2,1.1,4.1,3.1,4.9c0.6,0.2,1,0.8,0.9,1.5c0,3.1,0,6.2,0,9.4c0,2.9,1.4,4.2,4.3,4.2
		H9.5z"/>
	<path id="Trazado_2423" class="st2" d="M8.8,9.9C6.1,9.8,4,7.6,4,4.9c0-0.1,0-0.1,0-0.2C4.1,2.1,6.3,0,9,0c2.7,0,4.9,2.3,4.9,5
		C13.8,7.7,11.6,9.9,8.8,9.9C8.8,9.9,8.8,9.9,8.8,9.9L8.8,9.9z"/>
</g>
<g id="Grupo_1552" transform="translate(337.297 101.859)">
	<path id="Trazado_2424" class="st2" d="M9.5,46.3c2.9,0,4.3-1.3,4.3-4.2c0-3.1,0-6.2,0-9.4c-0.1-0.7,0.3-1.3,0.9-1.5
		c2-0.8,3.3-2.8,3.1-4.9c0-3.3,0-6.6,0-9.9c0.1-2.6-1.9-4.7-4.4-4.8c-0.2,0-0.4,0-0.5,0c0,0-8.1-0.1-8,0c-2.6-0.2-4.8,1.8-4.9,4.3
		c0,0.2,0,0.4,0,0.5c0,3.3,0,6.6,0,9.9c-0.1,2.2,1.1,4.1,3.1,4.9c0.6,0.2,1,0.8,0.9,1.5c0,3.1,0,6.2,0,9.4c0,2.9,1.4,4.2,4.3,4.2
		H9.5z"/>
	<path id="Trazado_2425" class="st2" d="M8.8,9.9C6.1,9.8,4,7.6,4,4.9c0-0.1,0-0.1,0-0.2C4.1,2.1,6.3,0,9,0c2.7,0,4.9,2.3,4.9,5
		C13.8,7.7,11.6,9.9,8.8,9.9C8.8,9.9,8.8,9.9,8.8,9.9L8.8,9.9z"/>
</g>
<g id="Grupo_1553" transform="translate(360.778 101.859)">
	<path id="Trazado_2426" class="st2" d="M9.5,46.3c2.9,0,4.3-1.3,4.3-4.2c0-3.1,0-6.2,0-9.4c-0.1-0.7,0.3-1.3,0.9-1.5
		c2-0.8,3.3-2.8,3.1-4.9c0-3.3,0-6.6,0-9.9c0.1-2.6-1.9-4.7-4.4-4.8c-0.2,0-0.4,0-0.5,0c0,0-8.1-0.1-8,0c-2.6-0.2-4.8,1.8-4.9,4.3
		c0,0.2,0,0.4,0,0.5c0,3.3,0,6.6,0,9.9c-0.1,2.2,1.1,4.1,3.1,4.9c0.6,0.2,1,0.8,0.9,1.5c0,3.1,0,6.2,0,9.4c0,2.9,1.4,4.2,4.3,4.2
		H9.5z"/>
	<path id="Trazado_2427" class="st2" d="M8.8,9.9C6.1,9.8,4,7.6,4,4.9c0-0.1,0-0.1,0-0.2C4.1,2.1,6.3,0,9,0c2.7,0,4.9,2.3,4.9,5
		C13.8,7.7,11.6,9.9,8.8,9.9C8.8,9.9,8.8,9.9,8.8,9.9L8.8,9.9z"/>
</g>
<g id="Grupo_1554" transform="translate(385.823 101.859)">
	<path id="Trazado_2428" class="st2" d="M9.5,46.3c2.9,0,4.3-1.3,4.3-4.2c0-3.1,0-6.2,0-9.4c-0.1-0.7,0.3-1.3,0.9-1.5
		c2-0.8,3.3-2.8,3.1-4.9c0-3.3,0-6.6,0-9.9c0.1-2.6-1.9-4.7-4.4-4.8c-0.2,0-0.4,0-0.5,0c0,0-8.1-0.1-8,0c-2.6-0.2-4.8,1.8-4.9,4.3
		c0,0.2,0,0.4,0,0.5c0,3.3,0,6.6,0,9.9c-0.1,2.2,1.1,4.1,3.1,4.9c0.6,0.2,1,0.8,0.9,1.5c0,3.1,0,6.2,0,9.4c0,2.9,1.4,4.2,4.3,4.2
		H9.5z"/>
	<path id="Trazado_2429" class="st2" d="M8.8,9.9C6.1,9.8,4,7.6,4,4.9c0-0.1,0-0.1,0-0.2C4.1,2.1,6.3,0,9,0c2.7,0,4.9,2.3,4.9,5
		C13.8,7.7,11.6,9.9,8.8,9.9C8.8,9.9,8.8,9.9,8.8,9.9L8.8,9.9z"/>
</g>
<g id="Grupo_1555" transform="translate(409.304 101.859)">
	<path id="Trazado_2430" class="st2" d="M9.5,46.3c2.9,0,4.3-1.3,4.3-4.2c0-3.1,0-6.2,0-9.4c-0.1-0.7,0.3-1.3,0.9-1.5
		c2-0.8,3.3-2.8,3.1-4.9c0-3.3,0-6.6,0-9.9c0.1-2.6-1.9-4.7-4.4-4.8c-0.2,0-0.4,0-0.5,0c0,0-8.1-0.1-8,0c-2.6-0.2-4.8,1.8-4.9,4.3
		c0,0.2,0,0.4,0,0.5c0,3.3,0,6.6,0,9.9c-0.1,2.2,1.1,4.1,3.1,4.9c0.6,0.2,1,0.8,0.9,1.5c0,3.1,0,6.2,0,9.4c0,2.9,1.4,4.2,4.3,4.2
		H9.5z"/>
	<path id="Trazado_2431" class="st2" d="M8.8,9.9C6.1,9.8,4,7.6,4,4.9c0-0.1,0-0.1,0-0.2C4.1,2.1,6.3,0,9,0c2.7,0,4.9,2.3,4.9,5
		C13.8,7.7,11.6,9.9,8.8,9.9C8.8,9.9,8.8,9.9,8.8,9.9L8.8,9.9z"/>
</g>
<g id="Grupo_1556" transform="translate(433.306 101.859)">
	<path id="Trazado_2432" class="st2" d="M9.5,46.3c2.9,0,4.3-1.3,4.3-4.2c0-3.1,0-6.2,0-9.4c-0.1-0.7,0.3-1.3,0.9-1.5
		c2-0.8,3.3-2.8,3.1-4.9c0-3.3,0-6.6,0-9.9c0.1-2.6-1.9-4.7-4.4-4.8c-0.2,0-0.4,0-0.5,0c0,0-8.1-0.1-8,0c-2.6-0.2-4.8,1.8-4.9,4.3
		c0,0.2,0,0.4,0,0.5c0,3.3,0,6.6,0,9.9c-0.1,2.2,1.1,4.1,3.1,4.9c0.6,0.2,1,0.8,0.9,1.5c0,3.1,0,6.2,0,9.4c0,2.9,1.4,4.2,4.3,4.2
		H9.5z"/>
	<path id="Trazado_2433" class="st2" d="M8.8,9.9C6.1,9.8,4,7.6,4,4.9c0-0.1,0-0.1,0-0.2C4.1,2.1,6.3,0,9,0c2.7,0,4.9,2.3,4.9,5
		C13.8,7.7,11.6,9.9,8.8,9.9C8.8,9.9,8.8,9.9,8.8,9.9L8.8,9.9z"/>
</g>
<g id="Grupo_1557" transform="translate(456.787 101.859)">
	<path id="Trazado_2434" class="st2" d="M9.5,46.3c2.9,0,4.3-1.3,4.3-4.2c0-3.1,0-6.2,0-9.4c-0.1-0.7,0.3-1.3,0.9-1.5
		c2-0.8,3.3-2.8,3.1-4.9c0-3.3,0-6.6,0-9.9c0.1-2.6-1.9-4.7-4.4-4.8c-0.2,0-0.4,0-0.5,0c0,0-8.1-0.1-8,0c-2.6-0.2-4.8,1.8-4.9,4.3
		c0,0.2,0,0.4,0,0.5c0,3.3,0,6.6,0,9.9c-0.1,2.2,1.1,4.1,3.1,4.9c0.6,0.2,1,0.8,0.9,1.5c0,3.1,0,6.2,0,9.4c0,2.9,1.4,4.2,4.3,4.2
		H9.5z"/>
	<path id="Trazado_2435" class="st2" d="M8.8,9.9C6.1,9.8,4,7.6,4,4.9c0-0.1,0-0.1,0-0.2C4.1,2.1,6.3,0,9,0c2.7,0,4.9,2.3,4.9,5
		C13.8,7.7,11.6,9.9,8.8,9.9C8.8,9.9,8.8,9.9,8.8,9.9L8.8,9.9z"/>
</g>
<g id="Grupo_1558" transform="translate(241.288 152.995)">
	<path id="Trazado_2436" class="st2" d="M9.5,46.3c2.9,0,4.3-1.3,4.3-4.2c0-3.1,0-6.2,0-9.4c-0.1-0.7,0.3-1.3,0.9-1.5
		c2-0.8,3.3-2.8,3.1-4.9c0-3.3,0-6.6,0-9.9c0.1-2.6-1.9-4.7-4.4-4.8c-0.2,0-0.4,0-0.5,0c0,0-8.1-0.1-8,0c-2.6-0.2-4.8,1.7-4.9,4.3
		c0,0.2,0,0.4,0,0.5c0,3.3,0,6.6,0,9.9c-0.1,2.2,1.1,4.1,3.1,4.9c0.6,0.2,1,0.8,0.9,1.5c0,3.1,0,6.2,0,9.4c0,2.9,1.4,4.2,4.3,4.2
		H9.5z"/>
	<path id="Trazado_2437" class="st2" d="M8.8,9.9C6.1,9.8,4,7.6,4,4.9c0-0.1,0-0.1,0-0.2C4.1,2.1,6.3,0,9,0c2.7,0,4.9,2.3,4.9,5
		C13.8,7.7,11.6,9.9,8.8,9.9C8.8,9.9,8.8,9.9,8.8,9.9L8.8,9.9z"/>
</g>
<g id="Grupo_1559" transform="translate(264.768 152.995)">
	<path id="Trazado_2438" class="st2" d="M9.5,46.3c2.9,0,4.3-1.3,4.3-4.2c0-3.1,0-6.2,0-9.4c-0.1-0.7,0.3-1.3,0.9-1.5
		c2-0.8,3.3-2.8,3.1-4.9c0-3.3,0-6.6,0-9.9c0.1-2.6-1.9-4.7-4.4-4.8c-0.2,0-0.4,0-0.5,0c0,0-8.1-0.1-8,0c-2.6-0.2-4.8,1.8-4.9,4.3
		c0,0.2,0,0.4,0,0.5c0,3.3,0,6.6,0,9.9c-0.1,2.2,1.1,4.1,3.1,4.9c0.6,0.2,1,0.8,0.9,1.5c0,3.1,0,6.2,0,9.4c0,2.9,1.4,4.2,4.3,4.2
		H9.5z"/>
	<path id="Trazado_2439" class="st2" d="M8.8,9.9C6.1,9.8,4,7.6,4,4.9c0-0.1,0-0.1,0-0.2C4.1,2.1,6.3,0,9,0c2.7,0,4.9,2.3,4.9,5
		C13.8,7.7,11.6,9.9,8.8,9.9C8.8,9.9,8.8,9.9,8.8,9.9L8.8,9.9z"/>
</g>
<g id="Grupo_1560" transform="translate(289.815 152.995)">
	<path id="Trazado_2440" class="st2" d="M9.5,46.3c2.9,0,4.3-1.3,4.3-4.2c0-3.1,0-6.2,0-9.4c-0.1-0.7,0.3-1.3,0.9-1.5
		c2-0.8,3.3-2.8,3.1-4.9c0-3.3,0-6.6,0-9.9c0.1-2.6-1.9-4.7-4.4-4.8c-0.2,0-0.4,0-0.5,0c0,0-8.1-0.1-8,0c-2.6-0.2-4.8,1.7-4.9,4.3
		c0,0.2,0,0.4,0,0.5c0,3.3,0,6.6,0,9.9c-0.1,2.2,1.1,4.1,3.1,4.9c0.6,0.2,1,0.8,0.9,1.5c0,3.1,0,6.2,0,9.4c0,2.9,1.4,4.2,4.3,4.2
		H9.5z"/>
	<path id="Trazado_2441" class="st2" d="M8.8,9.9C6.1,9.8,4,7.6,4,4.9c0-0.1,0-0.1,0-0.2C4.1,2.1,6.3,0,9,0c2.7,0,4.9,2.3,4.9,5
		C13.8,7.7,11.6,9.9,8.8,9.9C8.8,9.9,8.8,9.9,8.8,9.9L8.8,9.9z"/>
</g>
<g id="Grupo_1561" transform="translate(313.295 152.995)">
	<path id="Trazado_2442" class="st2" d="M9.5,46.3c2.9,0,4.3-1.3,4.3-4.2c0-3.1,0-6.2,0-9.4c-0.1-0.7,0.3-1.3,0.9-1.5
		c2-0.8,3.3-2.8,3.1-4.9c0-3.3,0-6.6,0-9.9c0.1-2.6-1.9-4.7-4.4-4.8c-0.2,0-0.4,0-0.5,0c0,0-8.1-0.1-8,0c-2.6-0.2-4.8,1.7-4.9,4.3
		c0,0.2,0,0.4,0,0.5c0,3.3,0,6.6,0,9.9c-0.1,2.2,1.1,4.1,3.1,4.9c0.6,0.2,1,0.8,0.9,1.5c0,3.1,0,6.2,0,9.4c0,2.9,1.4,4.2,4.3,4.2
		H9.5z"/>
	<path id="Trazado_2443" class="st2" d="M8.8,9.9C6.1,9.8,4,7.6,4,4.9c0-0.1,0-0.1,0-0.2C4.1,2.1,6.3,0,9,0c2.7,0,4.9,2.3,4.9,5
		C13.8,7.7,11.6,9.9,8.8,9.9C8.8,9.9,8.8,9.9,8.8,9.9L8.8,9.9z"/>
</g>
<g id="Grupo_1562" transform="translate(337.297 152.995)">
	<path id="Trazado_2444" class="st2" d="M9.5,46.3c2.9,0,4.3-1.3,4.3-4.2c0-3.1,0-6.2,0-9.4c-0.1-0.7,0.3-1.3,0.9-1.5
		c2-0.8,3.3-2.8,3.1-4.9c0-3.3,0-6.6,0-9.9c0.1-2.6-1.9-4.7-4.4-4.8c-0.2,0-0.4,0-0.5,0c0,0-8.1-0.1-8,0c-2.6-0.2-4.8,1.8-4.9,4.3
		c0,0.2,0,0.4,0,0.5c0,3.3,0,6.6,0,9.9c-0.1,2.2,1.1,4.1,3.1,4.9c0.6,0.2,1,0.8,0.9,1.5c0,3.1,0,6.2,0,9.4c0,2.9,1.4,4.2,4.3,4.2
		H9.5z"/>
	<path id="Trazado_2445" class="st2" d="M8.8,9.9C6.1,9.8,4,7.6,4,4.9c0-0.1,0-0.1,0-0.2C4.1,2.1,6.3,0,9,0c2.7,0,4.9,2.3,4.9,5
		C13.8,7.7,11.6,9.9,8.8,9.9C8.8,9.9,8.8,9.9,8.8,9.9L8.8,9.9z"/>
</g>
<g id="Grupo_1563" transform="translate(360.778 152.995)">
	<path id="Trazado_2446" class="st2" d="M9.5,46.3c2.9,0,4.3-1.3,4.3-4.2c0-3.1,0-6.2,0-9.4c-0.1-0.7,0.3-1.3,0.9-1.5
		c2-0.8,3.3-2.8,3.1-4.9c0-3.3,0-6.6,0-9.9c0.1-2.6-1.9-4.7-4.4-4.8c-0.2,0-0.4,0-0.5,0c0,0-8.1-0.1-8,0c-2.6-0.2-4.8,1.7-4.9,4.3
		c0,0.2,0,0.4,0,0.5c0,3.3,0,6.6,0,9.9c-0.1,2.2,1.1,4.1,3.1,4.9c0.6,0.2,1,0.8,0.9,1.5c0,3.1,0,6.2,0,9.4c0,2.9,1.4,4.2,4.3,4.2
		H9.5z"/>
	<path id="Trazado_2447" class="st2" d="M8.8,9.9C6.1,9.8,4,7.6,4,4.9c0-0.1,0-0.1,0-0.2C4.1,2.1,6.3,0,9,0c2.7,0,4.9,2.3,4.9,5
		C13.8,7.7,11.6,9.9,8.8,9.9C8.8,9.9,8.8,9.9,8.8,9.9L8.8,9.9z"/>
</g>
<g id="Grupo_1564" transform="translate(385.823 152.995)">
	<path id="Trazado_2448" class="st2" d="M9.5,46.3c2.9,0,4.3-1.3,4.3-4.2c0-3.1,0-6.2,0-9.4c-0.1-0.7,0.3-1.3,0.9-1.5
		c2-0.8,3.3-2.8,3.1-4.9c0-3.3,0-6.6,0-9.9c0.1-2.6-1.9-4.7-4.4-4.8c-0.2,0-0.4,0-0.5,0c0,0-8.1-0.1-8,0c-2.6-0.2-4.8,1.8-4.9,4.3
		c0,0.2,0,0.4,0,0.5c0,3.3,0,6.6,0,9.9c-0.1,2.2,1.1,4.1,3.1,4.9c0.6,0.2,1,0.8,0.9,1.5c0,3.1,0,6.2,0,9.4c0,2.9,1.4,4.2,4.3,4.2
		H9.5z"/>
	<path id="Trazado_2449" class="st2" d="M8.8,9.9C6.1,9.8,4,7.6,4,4.9c0-0.1,0-0.1,0-0.2C4.1,2.1,6.3,0,9,0c2.7,0,4.9,2.3,4.9,5
		C13.8,7.7,11.6,9.9,8.8,9.9C8.8,9.9,8.8,9.9,8.8,9.9L8.8,9.9z"/>
</g>
<g id="Grupo_1565" transform="translate(409.304 152.995)">
	<path id="Trazado_2450" class="st2" d="M9.5,46.3c2.9,0,4.3-1.3,4.3-4.2c0-3.1,0-6.2,0-9.4c-0.1-0.7,0.3-1.3,0.9-1.5
		c2-0.8,3.3-2.8,3.1-4.9c0-3.3,0-6.6,0-9.9c0.1-2.6-1.9-4.7-4.4-4.8c-0.2,0-0.4,0-0.5,0c0,0-8.1-0.1-8,0c-2.6-0.2-4.8,1.7-4.9,4.3
		c0,0.2,0,0.4,0,0.5c0,3.3,0,6.6,0,9.9c-0.1,2.2,1.1,4.1,3.1,4.9c0.6,0.2,1,0.8,0.9,1.5c0,3.1,0,6.2,0,9.4c0,2.9,1.4,4.2,4.3,4.2
		H9.5z"/>
	<path id="Trazado_2451" class="st2" d="M8.8,9.9C6.1,9.8,4,7.6,4,4.9c0-0.1,0-0.1,0-0.2C4.1,2.1,6.3,0,9,0c2.7,0,4.9,2.3,4.9,5
		C13.8,7.7,11.6,9.9,8.8,9.9C8.8,9.9,8.8,9.9,8.8,9.9L8.8,9.9z"/>
</g>
<g id="Grupo_1566" transform="translate(433.306 152.995)">
	<path id="Trazado_2452" class="st2" d="M9.5,46.3c2.9,0,4.3-1.3,4.3-4.2c0-3.1,0-6.2,0-9.4c-0.1-0.7,0.3-1.3,0.9-1.5
		c2-0.8,3.3-2.8,3.1-4.9c0-3.3,0-6.6,0-9.9c0.1-2.6-1.9-4.7-4.4-4.8c-0.2,0-0.4,0-0.5,0c0,0-8.1-0.1-8,0c-2.6-0.2-4.8,1.8-4.9,4.3
		c0,0.2,0,0.4,0,0.5c0,3.3,0,6.6,0,9.9c-0.1,2.2,1.1,4.1,3.1,4.9c0.6,0.2,1,0.8,0.9,1.5c0,3.1,0,6.2,0,9.4c0,2.9,1.4,4.2,4.3,4.2
		H9.5z"/>
	<path id="Trazado_2453" class="st2" d="M8.8,9.9C6.1,9.8,4,7.6,4,4.9c0-0.1,0-0.1,0-0.2C4.1,2.1,6.3,0,9,0c2.7,0,4.9,2.3,4.9,5
		C13.8,7.7,11.6,9.9,8.8,9.9C8.8,9.9,8.8,9.9,8.8,9.9L8.8,9.9z"/>
</g>
<g id="Grupo_1567" transform="translate(456.787 152.995)">
	<path id="Trazado_2454" class="st2" d="M9.5,46.3c2.9,0,4.3-1.3,4.3-4.2c0-3.1,0-6.2,0-9.4c-0.1-0.7,0.3-1.3,0.9-1.5
		c2-0.8,3.3-2.8,3.1-4.9c0-3.3,0-6.6,0-9.9c0.1-2.6-1.9-4.7-4.4-4.8c-0.2,0-0.4,0-0.5,0c0,0-8.1-0.1-8,0c-2.6-0.2-4.8,1.7-4.9,4.3
		c0,0.2,0,0.4,0,0.5c0,3.3,0,6.6,0,9.9c-0.1,2.2,1.1,4.1,3.1,4.9c0.6,0.2,1,0.8,0.9,1.5c0,3.1,0,6.2,0,9.4c0,2.9,1.4,4.2,4.3,4.2
		H9.5z"/>
	<path id="Trazado_2455" class="st2" d="M8.8,9.9C6.1,9.8,4,7.6,4,4.9c0-0.1,0-0.1,0-0.2C4.1,2.1,6.3,0,9,0c2.7,0,4.9,2.3,4.9,5
		C13.8,7.7,11.6,9.9,8.8,9.9C8.8,9.9,8.8,9.9,8.8,9.9L8.8,9.9z"/>
</g>
<g id="Grupo_1568" transform="translate(241.288 203.089)">
	<path id="Trazado_2456" class="st2" d="M9.5,46.3c2.9,0,4.3-1.3,4.3-4.2c0-3.1,0-6.2,0-9.4c-0.1-0.7,0.3-1.3,0.9-1.5
		c2-0.8,3.3-2.8,3.1-4.9c0-3.3,0-6.6,0-9.9c0.1-2.6-1.9-4.7-4.4-4.8c-0.2,0-0.4,0-0.5,0c0,0-8.1-0.1-8,0c-2.6-0.2-4.8,1.7-4.9,4.3
		c0,0.2,0,0.4,0,0.5c0,3.3,0,6.6,0,9.9c-0.1,2.2,1.1,4.1,3.1,4.9c0.6,0.2,1,0.8,0.9,1.5c0,3.1,0,6.2,0,9.4c0,2.9,1.4,4.2,4.3,4.2
		H9.5z"/>
	<path id="Trazado_2457" class="st2" d="M8.8,9.9C6.1,9.8,4,7.6,4,4.9c0-0.1,0-0.1,0-0.2C4.1,2.1,6.3,0,9,0c2.7,0,4.9,2.3,4.9,5
		C13.8,7.7,11.6,9.9,8.8,9.9C8.8,9.9,8.8,9.9,8.8,9.9L8.8,9.9z"/>
</g>
<g id="Grupo_1569" transform="translate(264.768 203.089)">
	<path id="Trazado_2458" class="st2" d="M9.5,46.3c2.9,0,4.3-1.3,4.3-4.2c0-3.1,0-6.2,0-9.4c-0.1-0.7,0.3-1.3,0.9-1.5
		c2-0.8,3.3-2.8,3.1-4.9c0-3.3,0-6.6,0-9.9c0.1-2.6-1.9-4.7-4.4-4.8c-0.2,0-0.4,0-0.5,0c0,0-8.1-0.1-8,0c-2.6-0.2-4.8,1.8-4.9,4.3
		c0,0.2,0,0.4,0,0.5c0,3.3,0,6.6,0,9.9c-0.1,2.2,1.1,4.1,3.1,4.9c0.6,0.2,1,0.8,0.9,1.5c0,3.1,0,6.2,0,9.4c0,2.9,1.4,4.2,4.3,4.2
		H9.5z"/>
	<path id="Trazado_2459" class="st2" d="M8.8,9.9C6.1,9.8,4,7.6,4,4.9c0-0.1,0-0.1,0-0.2C4.1,2.1,6.3,0,9,0c2.7,0,4.9,2.3,4.9,5
		C13.8,7.7,11.6,9.9,8.8,9.9C8.8,9.9,8.8,9.9,8.8,9.9L8.8,9.9z"/>
</g>
<g id="Grupo_1570" transform="translate(289.815 203.089)">
	<path id="Trazado_2460" class="st2" d="M9.5,46.3c2.9,0,4.3-1.3,4.3-4.2c0-3.1,0-6.2,0-9.4c-0.1-0.7,0.3-1.3,0.9-1.5
		c2-0.8,3.3-2.8,3.1-4.9c0-3.3,0-6.6,0-9.9c0.1-2.6-1.9-4.7-4.4-4.8c-0.2,0-0.4,0-0.5,0c0,0-8.1-0.1-8,0c-2.6-0.2-4.8,1.7-4.9,4.3
		c0,0.2,0,0.4,0,0.5c0,3.3,0,6.6,0,9.9c-0.1,2.2,1.1,4.1,3.1,4.9c0.6,0.2,1,0.8,0.9,1.5c0,3.1,0,6.2,0,9.4c0,2.9,1.4,4.2,4.3,4.2
		H9.5z"/>
	<path id="Trazado_2461" class="st2" d="M8.8,9.9C6.1,9.8,4,7.6,4,4.9c0-0.1,0-0.1,0-0.2C4.1,2.1,6.3,0,9,0c2.7,0,4.9,2.3,4.9,5
		C13.8,7.7,11.6,9.9,8.8,9.9C8.8,9.9,8.8,9.9,8.8,9.9L8.8,9.9z"/>
</g>
<g id="Grupo_1571" transform="translate(313.295 203.089)">
	<path id="Trazado_2462" class="st2" d="M9.5,46.3c2.9,0,4.3-1.3,4.3-4.2c0-3.1,0-6.2,0-9.4c-0.1-0.7,0.3-1.3,0.9-1.5
		c2-0.8,3.3-2.8,3.1-4.9c0-3.3,0-6.6,0-9.9c0.1-2.6-1.9-4.7-4.4-4.8c-0.2,0-0.4,0-0.5,0c0,0-8.1-0.1-8,0c-2.6-0.2-4.8,1.8-4.9,4.3
		c0,0.2,0,0.4,0,0.5c0,3.3,0,6.6,0,9.9c-0.1,2.2,1.1,4.1,3.1,4.9c0.6,0.2,1,0.8,0.9,1.5c0,3.1,0,6.2,0,9.4c0,2.9,1.4,4.2,4.3,4.2
		H9.5z"/>
	<path id="Trazado_2463" class="st2" d="M8.8,9.9C6.1,9.8,4,7.6,4,4.9c0-0.1,0-0.1,0-0.2C4.1,2.1,6.3,0,9,0c2.7,0,4.9,2.3,4.9,5
		C13.8,7.7,11.6,9.9,8.8,9.9C8.8,9.9,8.8,9.9,8.8,9.9L8.8,9.9z"/>
</g>
<g id="Grupo_1572" transform="translate(337.297 203.089)">
	<path id="Trazado_2464" class="st2" d="M9.5,46.3c2.9,0,4.3-1.3,4.3-4.2c0-3.1,0-6.2,0-9.4c-0.1-0.7,0.3-1.3,0.9-1.5
		c2-0.8,3.3-2.8,3.1-4.9c0-3.3,0-6.6,0-9.9c0.1-2.6-1.9-4.7-4.4-4.8c-0.2,0-0.4,0-0.5,0c0,0-8.1-0.1-8,0c-2.6-0.2-4.8,1.8-4.9,4.3
		c0,0.2,0,0.4,0,0.5c0,3.3,0,6.6,0,9.9c-0.1,2.2,1.1,4.1,3.1,4.9c0.6,0.2,1,0.8,0.9,1.5c0,3.1,0,6.2,0,9.4c0,2.9,1.4,4.2,4.3,4.2
		H9.5z"/>
	<path id="Trazado_2465" class="st2" d="M8.8,9.9C6.1,9.8,4,7.6,4,4.9c0-0.1,0-0.1,0-0.2C4.1,2.1,6.3,0,9,0c2.7,0,4.9,2.3,4.9,5
		C13.8,7.7,11.6,9.9,8.8,9.9C8.8,9.9,8.8,9.9,8.8,9.9L8.8,9.9z"/>
</g>
<g id="Grupo_1573" transform="translate(360.778 203.089)">
	<path id="Trazado_2466" class="st2" d="M9.5,46.3c2.9,0,4.3-1.3,4.3-4.2c0-3.1,0-6.2,0-9.4c-0.1-0.7,0.3-1.3,0.9-1.5
		c2-0.8,3.3-2.8,3.1-4.9c0-3.3,0-6.6,0-9.9c0.1-2.6-1.9-4.7-4.4-4.8c-0.2,0-0.4,0-0.5,0c0,0-8.1-0.1-8,0c-2.6-0.2-4.8,1.7-4.9,4.3
		c0,0.2,0,0.4,0,0.5c0,3.3,0,6.6,0,9.9c-0.1,2.2,1.1,4.1,3.1,4.9c0.6,0.2,1,0.8,0.9,1.5c0,3.1,0,6.2,0,9.4c0,2.9,1.4,4.2,4.3,4.2
		H9.5z"/>
	<path id="Trazado_2467" class="st2" d="M8.8,9.9C6.1,9.8,4,7.6,4,4.9c0-0.1,0-0.1,0-0.2C4.1,2.1,6.3,0,9,0c2.7,0,4.9,2.3,4.9,5
		C13.8,7.7,11.6,9.9,8.8,9.9C8.8,9.9,8.8,9.9,8.8,9.9L8.8,9.9z"/>
</g>
<g id="Grupo_1574" transform="translate(385.823 203.089)">
	<path id="Trazado_2468" class="st2" d="M9.5,46.3c2.9,0,4.3-1.3,4.3-4.2c0-3.1,0-6.2,0-9.4c-0.1-0.7,0.3-1.3,0.9-1.5
		c2-0.8,3.3-2.8,3.1-4.9c0-3.3,0-6.6,0-9.9c0.1-2.6-1.9-4.7-4.4-4.8c-0.2,0-0.4,0-0.5,0c0,0-8.1-0.1-8,0c-2.6-0.2-4.8,1.8-4.9,4.3
		c0,0.2,0,0.4,0,0.5c0,3.3,0,6.6,0,9.9c-0.1,2.2,1.1,4.1,3.1,4.9c0.6,0.2,1,0.8,0.9,1.5c0,3.1,0,6.2,0,9.4c0,2.9,1.4,4.2,4.3,4.2
		H9.5z"/>
	<path id="Trazado_2469" class="st2" d="M8.8,9.9C6.1,9.8,4,7.6,4,4.9c0-0.1,0-0.1,0-0.2C4.1,2.1,6.3,0,9,0c2.7,0,4.9,2.3,4.9,5
		C13.8,7.7,11.6,9.9,8.8,9.9C8.8,9.9,8.8,9.9,8.8,9.9L8.8,9.9z"/>
</g>
<g id="Grupo_1575" transform="translate(409.304 203.089)">
	<path id="Trazado_2470" class="st2" d="M9.5,46.3c2.9,0,4.3-1.3,4.3-4.2c0-3.1,0-6.2,0-9.4c-0.1-0.7,0.3-1.3,0.9-1.5
		c2-0.8,3.3-2.8,3.1-4.9c0-3.3,0-6.6,0-9.9c0.1-2.6-1.9-4.7-4.4-4.8c-0.2,0-0.4,0-0.5,0c0,0-8.1-0.1-8,0c-2.6-0.2-4.8,1.8-4.9,4.3
		c0,0.2,0,0.4,0,0.5c0,3.3,0,6.6,0,9.9c-0.1,2.2,1.1,4.1,3.1,4.9c0.6,0.2,1,0.8,0.9,1.5c0,3.1,0,6.2,0,9.4c0,2.9,1.4,4.2,4.3,4.2
		H9.5z"/>
	<path id="Trazado_2471" class="st2" d="M8.8,9.9C6.1,9.8,4,7.6,4,4.9c0-0.1,0-0.1,0-0.2C4.1,2.1,6.3,0,9,0c2.7,0,4.9,2.3,4.9,5
		C13.8,7.7,11.6,9.9,8.8,9.9C8.8,9.9,8.8,9.9,8.8,9.9L8.8,9.9z"/>
</g>
<g id="Grupo_1576" transform="translate(433.306 203.089)">
	<path id="Trazado_2472" class="st2" d="M9.5,46.3c2.9,0,4.3-1.3,4.3-4.2c0-3.1,0-6.2,0-9.4c-0.1-0.7,0.3-1.3,0.9-1.5
		c2-0.8,3.3-2.8,3.1-4.9c0-3.3,0-6.6,0-9.9c0.1-2.6-1.9-4.7-4.4-4.8c-0.2,0-0.4,0-0.5,0c0,0-8.1-0.1-8,0c-2.6-0.2-4.8,1.8-4.9,4.3
		c0,0.2,0,0.4,0,0.5c0,3.3,0,6.6,0,9.9c-0.1,2.2,1.1,4.1,3.1,4.9c0.6,0.2,1,0.8,0.9,1.5c0,3.1,0,6.2,0,9.4c0,2.9,1.4,4.2,4.3,4.2
		H9.5z"/>
	<path id="Trazado_2473" class="st2" d="M8.8,9.9C6.1,9.8,4,7.6,4,4.9c0-0.1,0-0.1,0-0.2C4.1,2.1,6.3,0,9,0c2.7,0,4.9,2.3,4.9,5
		C13.8,7.7,11.6,9.9,8.8,9.9C8.8,9.9,8.8,9.9,8.8,9.9L8.8,9.9z"/>
</g>
<g id="Grupo_1577" transform="translate(456.787 203.089)">
	<path id="Trazado_2474" class="st2" d="M9.5,46.3c2.9,0,4.3-1.3,4.3-4.2c0-3.1,0-6.2,0-9.4c-0.1-0.7,0.3-1.3,0.9-1.5
		c2-0.8,3.3-2.8,3.1-4.9c0-3.3,0-6.6,0-9.9c0.1-2.6-1.9-4.7-4.4-4.8c-0.2,0-0.4,0-0.5,0c0,0-8.1-0.1-8,0c-2.6-0.2-4.8,1.8-4.9,4.3
		c0,0.2,0,0.4,0,0.5c0,3.3,0,6.6,0,9.9c-0.1,2.2,1.1,4.1,3.1,4.9c0.6,0.2,1,0.8,0.9,1.5c0,3.1,0,6.2,0,9.4c0,2.9,1.4,4.2,4.3,4.2
		H9.5z"/>
	<path id="Trazado_2475" class="st2" d="M8.8,9.9C6.1,9.8,4,7.6,4,4.9c0-0.1,0-0.1,0-0.2C4.1,2.1,6.3,0,9,0c2.7,0,4.9,2.3,4.9,5
		C13.8,7.7,11.6,9.9,8.8,9.9C8.8,9.9,8.8,9.9,8.8,9.9L8.8,9.9z"/>
</g>
</svg>
