<?xml version="1.0" encoding="utf-8"?>
<!-- Generator: Adobe Illustrator 24.3.0, SVG Export Plug-In . SVG Version: 6.00 Build 0)  -->
<svg version="1.1" id="Capa_1" xmlns="http://www.w3.org/2000/svg" xmlns:xlink="http://www.w3.org/1999/xlink" x="0px" y="0px"
	 viewBox="0 0 453.1 467.8" style="enable-background:new 0 0 453.1 467.8;" xml:space="preserve">
<style type="text/css">
	.st0{fill:#EE833B;}
	.st1{fill:#FFBB58;}
	.st2{fill:#8DD2FE;}
	.st3{fill:#CCEBFF;}
</style>
<g id="Grupo_1448" transform="translate(75.698 429.123)">
	<g id="Grupo_1447">
		<path id="Trazado_2166" class="st0" d="M16.7,6.3l12.3,31.5l-5.2,0.7l-3.1-8.4H8.2l-2.9,8H0L12.2,6.3L16.7,6.3z M14.4,13.4
			L9.7,25.9h9.4L14.4,13.4z"/>
		<path id="Trazado_2167" class="st0" d="M32.7,38.1V5.6l5.2-0.5v33H32.7z"/>
		<path id="Trazado_2168" class="st0" d="M61.9,36.5c-0.8,0.5-1.6,1-2.5,1.2c-0.9,0.3-1.9,0.6-2.9,0.7c-0.8,0.2-1.6,0.2-2.4,0.3
			c-2.2,0.1-4.3-0.5-6.2-1.5c-1.7-1-3.1-2.4-4-4.2c-1-1.9-1.4-4.1-1.4-6.2c0-2.2,0.5-4.3,1.5-6.3c0.9-1.8,2.3-3.2,4-4.2
			c1.9-1,4-1.6,6.2-1.5c0.8,0,1.6,0.1,2.4,0.3c1,0.2,1.9,0.4,2.9,0.7c0.9,0.3,1.7,0.7,2.5,1.3l-1.5,3.7c-1-0.4-2-0.8-3-1.1
			c-1.1-0.3-2.2-0.4-3.2-0.4c-1.2,0-2.3,0.3-3.3,1c-1,0.7-1.7,1.6-2.2,2.7c-0.5,1.2-0.8,2.5-0.8,3.8c0,1.3,0.2,2.6,0.7,3.8
			c0.5,1.1,1.2,2,2.2,2.7c1,0.7,2.2,1,3.4,1c1.1,0,2.2-0.1,3.2-0.4c1-0.3,2-0.7,3-1.1L61.9,36.5z"/>
		<path id="Trazado_2169" class="st0" d="M66.3,16.8c0.7-0.5,1.5-0.8,2.4-1.1c1-0.3,2-0.5,3-0.7c0.8-0.2,1.6-0.2,2.5-0.3
			c1.7,0,3.3,0.3,4.8,1.1c1.4,0.7,2.6,1.7,3.4,2.9c0.8,1.2,1.3,2.7,1.3,4.2v15.1h-3.6l-0.8-2.3c-0.9,0.8-1.8,1.5-2.9,2
			c-1.1,0.5-2.3,0.8-3.5,0.8c-2.7,0-4.7-0.7-6-2c-1.3-1.4-2.1-3.3-2-5.2c-0.1-2.1,0.8-4,2.4-5.3c1.8-1.3,3.9-1.9,6.1-1.8h5v-0.2
			c0-1.2-0.3-2.3-1-3.3c-0.8-0.9-1.9-1.4-3.1-1.3c-1.2,0-2.4,0.2-3.5,0.5c-1.2,0.3-2.2,0.7-3.1,1L66.3,16.8z M70.1,32.9
			c0.3,0.5,0.7,0.9,1.1,1.1c0.6,0.3,1.2,0.4,1.8,0.4c1,0,2-0.2,2.9-0.7c1-0.5,1.8-1.1,2.6-1.9v-4h-5c-1.1-0.1-2.1,0.3-2.8,1.1
			c-0.6,0.7-0.9,1.6-0.9,2.5C69.7,32,69.8,32.5,70.1,32.9L70.1,32.9z"/>
		<path id="Trazado_2170" class="st0" d="M89,38.1V15.4h3.6l0.9,2.7c0.9-0.7,1.8-1.3,2.8-1.8c0.9-0.5,2-0.9,3-1.2
			c1-0.3,1.9-0.4,2.9-0.4c1.6-0.1,3.1,0.3,4.4,1.1c1.1,0.8,1.9,1.9,2.3,3.1c0.5,1.5,0.7,3,0.7,4.5v14.6h-5.2V23.8
			c0.1-1.2-0.2-2.4-0.8-3.5c-0.6-0.9-1.6-1.4-2.7-1.3c-0.8,0-1.6,0.2-2.3,0.4c-0.8,0.3-1.5,0.7-2.2,1.2c-0.7,0.5-1.4,1-2.1,1.5v15.8
			L89,38.1z"/>
		<path id="Trazado_2171" class="st0" d="M132.9,36.5c-0.8,0.5-1.6,1-2.5,1.2c-0.9,0.3-1.9,0.6-2.9,0.7c-0.8,0.2-1.6,0.2-2.4,0.3
			c-2.2,0.1-4.3-0.5-6.2-1.5c-1.7-1-3.1-2.4-4-4.2c-1-1.9-1.4-4.1-1.4-6.2c0-2.2,0.5-4.3,1.5-6.3c0.9-1.8,2.3-3.2,4-4.2
			c1.9-1,4-1.6,6.2-1.5c0.8,0,1.6,0.1,2.4,0.3c1,0.2,1.9,0.4,2.9,0.7c0.9,0.3,1.7,0.7,2.5,1.3l-1.5,3.7c-1-0.4-2-0.8-3-1.1
			c-1.1-0.3-2.2-0.4-3.3-0.4c-1.2,0-2.3,0.3-3.3,1c-1,0.7-1.7,1.6-2.2,2.7c-0.5,1.2-0.8,2.5-0.8,3.8c0,1.3,0.2,2.6,0.7,3.8
			c0.5,1.1,1.2,2,2.2,2.7c1,0.7,2.2,1,3.4,1c1.1,0,2.2-0.1,3.2-0.4c1-0.3,2-0.7,3-1.1L132.9,36.5z"/>
		<path id="Trazado_2172" class="st0" d="M140.9,28.1c0.1,1.1,0.5,2.2,1,3.2c0.5,0.9,1.3,1.7,2.3,2.1c1.2,0.6,2.6,0.8,4,0.8
			c1.2,0,2.4-0.2,3.5-0.5c1.1-0.4,2.2-0.9,3.2-1.5l1.5,3.8c-0.7,0.5-1.5,1-2.3,1.4c-0.9,0.4-1.8,0.8-2.8,1c-1.1,0.2-2.2,0.3-3.2,0.3
			c-2.4,0.1-4.8-0.4-7-1.5c-1.8-0.9-3.3-2.4-4.2-4.2c-1-1.9-1.4-4.1-1.4-6.2c0-2.2,0.4-4.3,1.3-6.3c0.8-1.7,2.2-3.2,3.8-4.2
			c1.8-1,3.9-1.6,6-1.5c2.1-0.1,4.1,0.5,5.8,1.7c1.5,1.1,2.6,2.7,3.3,4.4c0.7,1.9,1.1,4,1,6v1.2L140.9,28.1z M151.5,24.6
			c-0.1-1-0.4-2-0.9-2.9c-0.4-0.7-1-1.3-1.8-1.8c-0.8-0.4-1.7-0.6-2.5-0.6c-0.9,0-1.8,0.2-2.6,0.6c-0.8,0.4-1.4,1-1.8,1.8
			c-0.5,0.9-0.8,1.9-0.9,2.9L151.5,24.6z"/>
		<path id="Trazado_2173" class="st0" d="M171.2,38.1V15.4h3.6l0.9,2.7c0.9-0.7,1.8-1.3,2.7-1.8c0.9-0.5,1.9-0.9,2.9-1.2
			c0.9-0.3,1.8-0.4,2.7-0.4c1.5-0.1,2.9,0.3,4.2,1c1.1,0.7,1.9,1.7,2.3,2.9c0.5,1.4,0.8,2.9,0.7,4.4v15.1h-5.2V23.8
			c0-0.9-0.1-1.7-0.3-2.5c-0.2-0.6-0.5-1.2-1-1.6c-0.6-0.4-1.2-0.6-1.9-0.6c-0.7,0-1.4,0.2-2.1,0.4c-0.7,0.3-1.4,0.7-2.1,1.2
			c-0.7,0.5-1.4,1-2,1.5v15.8L171.2,38.1z M190.1,18.1c0.9-0.7,1.8-1.3,2.8-1.8c0.9-0.5,1.9-0.9,2.9-1.2c0.9-0.3,1.8-0.4,2.7-0.4
			c1.5-0.1,2.9,0.3,4.2,1c1.1,0.7,1.9,1.7,2.3,2.9c0.5,1.4,0.8,2.9,0.7,4.4v15.1h-5.2V23.8c0-0.9-0.1-1.7-0.3-2.5
			c-0.2-0.6-0.5-1.2-1-1.6c-0.5-0.4-1.2-0.6-1.9-0.6c-0.7,0-1.5,0.2-2.1,0.4c-0.7,0.3-1.5,0.7-2.1,1.2c-0.7,0.5-1.4,1-2,1.5
			L190.1,18.1z"/>
		<path id="Trazado_2174" class="st0" d="M215,28.1c0.1,1.1,0.5,2.2,1,3.2c0.5,0.9,1.3,1.7,2.3,2.1c1.2,0.6,2.6,0.8,4,0.8
			c1.2,0,2.4-0.2,3.5-0.5c1.1-0.4,2.2-0.9,3.2-1.5l1.5,3.8c-0.7,0.5-1.5,1-2.3,1.4c-0.9,0.4-1.8,0.8-2.8,1c-1.1,0.2-2.2,0.3-3.2,0.3
			c-2.4,0.1-4.8-0.4-7-1.5c-1.8-0.9-3.3-2.4-4.2-4.2c-1-1.9-1.4-4.1-1.4-6.2c0-2.2,0.4-4.3,1.3-6.3c0.8-1.7,2.2-3.2,3.8-4.2
			c1.8-1,3.9-1.6,6-1.5c2.1-0.1,4.1,0.5,5.8,1.7c1.5,1.1,2.6,2.7,3.3,4.4c0.7,1.9,1.1,4,1,6v1.2L215,28.1z M225.6,24.6
			c-0.1-1-0.4-2-0.9-2.9c-0.4-0.7-1-1.3-1.8-1.8c-0.8-0.4-1.7-0.6-2.5-0.6c-0.9,0-1.8,0.2-2.6,0.6c-0.8,0.4-1.4,1-1.8,1.8
			c-0.5,0.9-0.8,1.9-0.9,2.9L225.6,24.6z"/>
		<path id="Trazado_2175" class="st0" d="M234.7,38.1V15.4h3.6l0.9,2.7c0.9-0.7,1.8-1.3,2.8-1.8c0.9-0.5,2-0.9,3-1.2
			c1-0.3,1.9-0.4,2.9-0.4c1.6-0.1,3.1,0.3,4.4,1.1c1.1,0.8,1.9,1.9,2.3,3.1c0.5,1.5,0.7,3,0.7,4.5v14.6H250V23.8
			c0.1-1.2-0.2-2.4-0.8-3.5c-0.6-0.9-1.6-1.4-2.7-1.3c-0.8,0-1.6,0.2-2.3,0.4c-0.8,0.3-1.5,0.7-2.2,1.2c-0.7,0.5-1.4,1-2.1,1.5v15.8
			L234.7,38.1z"/>
		<path id="Trazado_2176" class="st0" d="M260.9,32.9c0.7,0.3,1.4,0.6,2.1,0.8c0.7,0.2,1.3,0.4,2,0.5c0.6,0.1,1.3,0.2,2,0.2
			c0.7,0,1.4-0.1,2.1-0.3c0.6-0.2,1.1-0.5,1.6-0.9c0.4-0.3,0.6-0.8,0.6-1.3c0-0.5-0.2-1-0.6-1.4c-0.5-0.5-1-0.9-1.6-1.2
			c-0.8-0.4-1.6-0.7-2.4-1c-1.2-0.4-2.4-0.9-3.5-1.5c-1.1-0.5-2.1-1.3-2.9-2.2c-0.8-0.9-1.2-2-1.1-3.2c-0.1-1.9,0.8-3.8,2.4-5
			c1.9-1.3,4.1-1.9,6.4-1.8c0.8,0,1.6,0.1,2.3,0.3c0.9,0.2,1.8,0.4,2.7,0.7c0.9,0.3,1.7,0.7,2.5,1.2l-1.6,3.6
			c-0.9-0.4-1.9-0.8-2.9-1.1c-1-0.3-2-0.5-3.1-0.4c-0.9,0-1.8,0.2-2.5,0.7c-0.6,0.4-0.9,1-1,1.7c0,0.6,0.4,1.2,1.3,1.6
			c0.9,0.5,1.9,0.9,2.9,1.2c1.3,0.4,2.5,1,3.6,1.7c1.1,0.7,2.1,1.5,2.9,2.5c0.8,0.9,1.2,2.1,1.2,3.3c0.1,2-0.8,3.9-2.4,5.1
			c-1.6,1.2-3.9,1.8-7,1.8c-0.8,0-1.6-0.1-2.3-0.2c-1-0.2-1.9-0.4-2.8-0.7c-0.9-0.3-1.7-0.7-2.5-1.2L260.9,32.9z"/>
		<path id="Trazado_2177" class="st0" d="M300.7,15.4v22.7h-3.5l-0.9-2.7c-0.8,0.7-1.8,1.3-2.7,1.8c-1,0.5-2,0.9-3,1.2
			c-0.9,0.3-1.9,0.4-2.9,0.4c-1.6,0.1-3.2-0.3-4.5-1.1c-1.1-0.8-1.9-1.9-2.3-3.1c-0.5-1.5-0.7-3-0.7-4.5V15.4h5.2v14.2
			c-0.1,1.2,0.2,2.4,0.8,3.5c0.6,0.9,1.6,1.3,2.7,1.3c0.8,0,1.6-0.1,2.4-0.4c0.8-0.3,1.5-0.7,2.2-1.2c0.7-0.5,1.4-1,2-1.5V15.4
			L300.7,15.4z"/>
		<path id="Trazado_2178" class="st0" d="M306.8,16.8c0.7-0.5,1.5-0.8,2.4-1.1c1-0.3,2-0.5,3-0.7c0.8-0.2,1.6-0.2,2.5-0.3
			c1.7,0,3.3,0.3,4.8,1.1c1.4,0.7,2.6,1.7,3.4,2.9c0.8,1.2,1.3,2.7,1.3,4.2v15.1h-3.6l-0.8-2.3c-0.9,0.8-1.8,1.5-2.9,2
			c-1.1,0.5-2.3,0.8-3.5,0.8c-2.7,0-4.7-0.7-6-2c-1.3-1.4-2.1-3.3-2-5.2c-0.1-2.1,0.8-4,2.4-5.3c1.8-1.3,3.9-1.9,6.1-1.8h5v-0.2
			c0-1.2-0.3-2.3-1-3.3c-0.8-0.9-1.9-1.4-3.1-1.3c-1.2,0-2.4,0.2-3.5,0.5c-1.2,0.3-2.2,0.7-3.1,1L306.8,16.8z M310.6,32.9
			c0.3,0.5,0.7,0.9,1.1,1.1c0.6,0.3,1.2,0.4,1.8,0.4c1,0,2-0.2,2.9-0.7c1-0.5,1.8-1.1,2.6-1.9v-4H314c-1.1-0.1-2.1,0.3-2.8,1.1
			c-0.6,0.7-0.9,1.6-0.9,2.5C310.2,32,310.3,32.5,310.6,32.9z"/>
		<path id="Trazado_2179" class="st0" d="M329.9,38.1V5.6l5.2-0.5v33H329.9z"/>
	</g>
</g>
<g id="Grupo_1450" transform="translate(0 290.676)">
	<g id="Grupo_1449">
		<path id="Trazado_2180" class="st1" d="M67.8,71.1H42v32.3l-15.1-0.6V71.1H1.1L0,58.9h26.9V28L42,28.4v30.4h24.5L67.8,71.1z"/>
		<path id="Trazado_2181" class="st1" d="M152.3,24.5c4.1,1.7,7.7,4.6,10.2,8.3c2.5,3.8,3.7,8.2,3.6,12.7c0,3.8-0.6,7.5-2,11
			c-1.6,3.7-3.7,7.2-6.4,10.2c-3.7,4.2-7.8,8.1-12.1,11.7l-15.9,13.4l38.7-0.1l2.1,12.2h-62.4V93.3L137.4,68
			c3.2-2.8,5.9-5.4,8.1-7.8c2-2,3.6-4.3,5-6.8c1.1-2,1.7-4.2,1.7-6.5c0-4.3-1.5-7.4-4.6-9.4c-3-2-7.1-3-12.1-3c-3,0-6,0.4-8.9,1.1
			c-2.6,0.7-5.1,1.7-7.5,2.9c-2.2,1.2-4.2,2.3-5.9,3.2L109.9,29c3.4-1.9,6.9-3.6,10.5-4.9c5.2-1.8,10.6-2.6,16.1-2.5
			C141.9,21.5,147.3,22.5,152.3,24.5z"/>
		<path id="Trazado_2182" class="st1" d="M183.2,73.8l2.3-50.4h50.8l-1.7,13.1h-35.3l-1,20.8c1.8-1.1,3.8-2,5.8-2.4
			c2-0.5,4.1-0.7,6.1-0.7c7,0,12.8,1.4,17.4,4.1c4.4,2.5,8,6.3,10.4,10.8c2.3,4.5,3.5,9.5,3.5,14.6c0.1,5.6-1.3,11.2-4.2,16.1
			c-2.9,4.7-7,8.5-11.9,11c-5.1,2.7-11.3,4.1-18.5,4.1c-3.6,0-7.1-0.4-10.6-1.2c-3.4-0.8-6.8-1.8-10.1-3.1c-3-1.2-6-2.6-8.9-4.2
			l7.8-11.1c3.4,1.9,6.9,3.5,10.6,4.7c3.8,1.1,7.7,1.6,11.6,1.6c5.7,0,10.3-1.6,13.8-4.8c3.5-3.2,5.3-7.5,5.3-13
			c0-5.2-1.4-9.3-4.3-12.2c-3-2.9-7-4.5-11.2-4.3c-3.1-0.1-6.1,0.7-8.7,2.3c-1.9,1.1-3.6,2.6-4.8,4.4L183.2,73.8z"/>
		<path id="Trazado_2183" class="st1" d="M254.4,41.9c10.5-19,34.4-25.9,53.4-15.4c0.3,0.1,0.5,0.3,0.8,0.4
			c5.8,3.5,10.5,8.6,13.7,14.6c3.4,6.6,5.1,14,4.9,21.4c0.1,7.6-1.6,15.2-5,22c-3.1,6.2-7.9,11.5-13.7,15.2c-6,3.8-13,5.7-20.1,5.5
			c-7.1,0.1-14-1.8-20.1-5.5c-5.9-3.7-10.7-8.9-13.8-15.1c-3.4-6.8-5.1-14.3-5-21.8C249.3,55.9,251,48.5,254.4,41.9z M267.4,77.9
			c1.9,4.2,4.9,7.8,8.6,10.4c3.7,2.5,8,3.8,12.4,3.8c4.4,0.1,8.7-1.2,12.4-3.6c3.7-2.5,6.7-6,8.5-10.1c2.1-4.6,3.2-9.5,3.1-14.6
			c0.1-5.1-1-10.1-3.1-14.7c-1.9-4.1-4.9-7.6-8.6-10.2c-7.5-4.9-17.3-4.9-24.8-0.1c-3.7,2.5-6.6,5.9-8.5,9.8
			c-2.2,4.5-3.2,9.4-3.1,14.3C264.2,68,265.2,73.1,267.4,77.9L267.4,77.9z"/>
		<path id="Trazado_2184" class="st1" d="M433.5,104l-31.6-42.4l-10.1,10.4v32h-15.9V7.2h15.9v42.7l43-44.8l11.8,9.1l-33.9,35.7
			l40.4,54L433.5,104z"/>
	</g>
</g>
<g id="Grupo_1456" transform="translate(4.28)">
	<path id="Trazado_2232" class="st2" d="M16.1,83.2c4.9,0,7.3-2.2,7.3-7.1c0-5.3,0.1-10.5,0-15.8c-0.2-1.1,0.5-2.2,1.6-2.5
		c3.4-1.3,5.5-4.7,5.3-8.3c0-5.6,0.1-11.2,0-16.8c-0.1-5-3.4-8.1-8.4-8.2c0,0-13.7-0.2-13.5,0c-5,0-8.3,3.2-8.4,8.2
		C0,38.3,0,43.9,0,49.5c-0.2,3.6,1.9,7,5.3,8.3c1.1,0.3,1.7,1.4,1.6,2.5c-0.1,5.3,0,10.5,0,15.8c0,4.8,2.3,7.1,7.3,7.1H16.1z"/>
	<path id="Trazado_2233" class="st2" d="M14.9,21.8c-4.5-0.1-8.2-3.8-8.1-8.3c0-0.1,0-0.2,0-0.3c0.1-4.5,3.9-8.1,8.4-8.1
		c4.6,0.1,8.3,3.9,8.2,8.5C23.3,18.2,19.5,21.8,14.9,21.8C14.9,21.8,14.9,21.8,14.9,21.8z"/>
</g>
<g id="Grupo_1457" transform="translate(44.804)">
	<path id="Trazado_2234" class="st2" d="M16.1,83.2c4.9,0,7.3-2.2,7.3-7.1c0-5.3,0.1-10.5,0-15.8c-0.2-1.1,0.5-2.2,1.6-2.5
		c3.4-1.3,5.5-4.7,5.3-8.3c0-5.6,0.1-11.2,0-16.8c-0.1-5-3.4-8.1-8.4-8.2c0,0-13.7-0.2-13.5,0c-5,0-8.3,3.2-8.4,8.2
		C0,38.3,0,43.9,0,49.5c-0.2,3.6,1.9,7,5.3,8.3c1.1,0.3,1.7,1.4,1.6,2.5c-0.1,5.3,0,10.5,0,15.8c0,4.8,2.3,7.1,7.3,7.1H16.1z"/>
	<path id="Trazado_2235" class="st2" d="M14.9,21.8c-4.5-0.1-8.2-3.8-8.1-8.3c0-0.1,0-0.2,0-0.3c0.1-4.5,3.9-8.1,8.4-8.1
		c4.6,0.1,8.3,3.9,8.2,8.5C23.3,18.2,19.5,21.8,14.9,21.8C14.9,21.8,14.9,21.8,14.9,21.8z"/>
</g>
<g id="Grupo_1458" transform="translate(85.327)">
	<path id="Trazado_2236" class="st2" d="M16.1,83.2c4.9,0,7.3-2.2,7.3-7.1c0-5.3,0.1-10.5,0-15.8c-0.2-1.1,0.5-2.2,1.6-2.5
		c3.4-1.3,5.5-4.7,5.3-8.3c0-5.6,0.1-11.2,0-16.8c-0.1-5-3.4-8.1-8.4-8.2c0,0-13.7-0.2-13.5,0c-5,0-8.3,3.2-8.4,8.2
		C0,38.3,0,43.9,0,49.5c-0.2,3.6,1.9,7,5.3,8.3c1.1,0.3,1.7,1.4,1.6,2.5c-0.1,5.3,0,10.5,0,15.8c0,4.8,2.3,7.1,7.3,7.1H16.1z"/>
	<path id="Trazado_2237" class="st2" d="M14.9,21.8c-4.5-0.1-8.2-3.8-8.1-8.3c0-0.1,0-0.2,0-0.3c0.1-4.5,3.9-8.1,8.4-8.1
		c4.6,0.1,8.3,3.9,8.2,8.5C23.3,18.2,19.5,21.8,14.9,21.8C14.9,21.8,14.9,21.8,14.9,21.8L14.9,21.8z"/>
</g>
<g id="Grupo_1459" transform="translate(125.851)">
	<path id="Trazado_2238" class="st2" d="M16.1,83.2c4.9,0,7.3-2.2,7.3-7.1c0-5.3,0.1-10.5,0-15.8c-0.2-1.1,0.5-2.2,1.6-2.5
		c3.4-1.3,5.5-4.7,5.3-8.3c0-5.6,0.1-11.2,0-16.8c-0.1-5-3.4-8.1-8.4-8.2c0,0-13.7-0.2-13.5,0c-5,0-8.3,3.2-8.4,8.2
		C0,38.3,0,43.9,0,49.5c-0.2,3.6,1.9,7,5.3,8.3c1.1,0.3,1.7,1.4,1.6,2.5c-0.1,5.3,0,10.5,0,15.8c0,4.8,2.3,7.1,7.3,7.1H16.1z"/>
	<path id="Trazado_2239" class="st2" d="M14.9,21.8c-4.5-0.1-8.2-3.8-8.1-8.3c0-0.1,0-0.2,0-0.3c0.1-4.5,3.9-8.1,8.4-8.1
		c4.6,0.1,8.3,3.9,8.2,8.5C23.3,18.2,19.5,21.8,14.9,21.8C14.9,21.8,14.9,21.8,14.9,21.8z"/>
</g>
<g id="Grupo_1460" transform="translate(166.374)">
	<path id="Trazado_2240" class="st2" d="M16.1,83.2c4.9,0,7.3-2.2,7.3-7.1c0-5.3,0.1-10.5,0-15.8c-0.2-1.1,0.5-2.2,1.6-2.5
		c3.4-1.3,5.5-4.7,5.3-8.3c0-5.6,0.1-11.2,0-16.8c-0.1-5-3.4-8.1-8.4-8.2c0,0-13.7-0.2-13.5,0c-5,0-8.3,3.2-8.4,8.2
		C0,38.3,0,43.9,0,49.5c-0.2,3.6,1.9,7,5.3,8.3c1.1,0.3,1.7,1.4,1.6,2.5c-0.1,5.3,0,10.5,0,15.8c0,4.8,2.3,7.1,7.3,7.1H16.1z"/>
	<path id="Trazado_2241" class="st2" d="M14.9,21.8c-4.5-0.1-8.2-3.8-8.1-8.3c0-0.1,0-0.2,0-0.3c0.1-4.5,3.9-8.1,8.4-8.1
		c4.6,0.1,8.3,3.9,8.2,8.5C23.3,18.2,19.5,21.8,14.9,21.8C14.9,21.8,14.9,21.8,14.9,21.8z"/>
</g>
<g id="Grupo_1461" transform="translate(206.898)">
	<path id="Trazado_2242" class="st2" d="M16.1,83.2c4.9,0,7.3-2.2,7.3-7.1c0-5.3,0.1-10.5,0-15.8c-0.2-1.1,0.5-2.2,1.6-2.5
		c3.4-1.3,5.5-4.7,5.3-8.3c0-5.6,0.1-11.2,0-16.8c-0.1-5-3.4-8.1-8.4-8.2c0,0-13.7-0.2-13.5,0c-5,0-8.3,3.2-8.4,8.2
		C0,38.3,0,43.9,0,49.5c-0.2,3.6,1.9,7,5.3,8.3c1.1,0.3,1.7,1.4,1.6,2.5c-0.1,5.3,0,10.5,0,15.8c0,4.8,2.3,7.1,7.3,7.1H16.1z"/>
	<path id="Trazado_2243" class="st2" d="M14.9,21.8c-4.5-0.1-8.2-3.8-8.1-8.3c0-0.1,0-0.2,0-0.3c0.1-4.5,3.9-8.1,8.4-8.1
		c4.6,0.1,8.3,3.9,8.2,8.5C23.3,18.2,19.6,21.8,14.9,21.8C14.9,21.8,14.9,21.8,14.9,21.8z"/>
</g>
<g id="Grupo_1462" transform="translate(247.421)">
	<path id="Trazado_2244" class="st2" d="M16.1,83.2c4.9,0,7.3-2.2,7.3-7.1c0-5.3,0.1-10.5,0-15.8c-0.2-1.1,0.5-2.2,1.6-2.5
		c3.4-1.3,5.5-4.7,5.3-8.3c0-5.6,0.1-11.2,0-16.8c-0.1-5-3.4-8.1-8.4-8.2c0,0-13.7-0.2-13.5,0c-5,0-8.3,3.2-8.4,8.2
		C0,38.3,0,43.9,0,49.5c-0.2,3.6,1.9,7,5.3,8.3c1.1,0.3,1.7,1.4,1.6,2.5c-0.1,5.3,0,10.5,0,15.8c0,4.8,2.3,7.1,7.3,7.1H16.1z"/>
	<path id="Trazado_2245" class="st2" d="M14.9,21.8c-4.5-0.1-8.2-3.8-8.1-8.3c0-0.1,0-0.2,0-0.3c0.1-4.5,3.9-8.1,8.4-8.1
		c4.6,0.1,8.3,3.9,8.2,8.5C23.3,18.2,19.5,21.8,14.9,21.8C14.9,21.8,14.9,21.8,14.9,21.8z"/>
</g>
<g id="Grupo_1463" transform="translate(287.945)">
	<path id="Trazado_2246" class="st2" d="M16.1,83.2c4.9,0,7.3-2.2,7.3-7.1c0-5.3,0.1-10.5,0-15.8c-0.2-1.1,0.5-2.2,1.6-2.5
		c3.4-1.3,5.5-4.7,5.3-8.3c0-5.6,0.1-11.2,0-16.8c-0.1-5-3.4-8.1-8.4-8.2c0,0-13.7-0.2-13.5,0c-5,0-8.3,3.2-8.4,8.2
		C0,38.3,0,43.9,0,49.5c-0.2,3.6,1.9,7,5.3,8.3c1.1,0.3,1.7,1.4,1.6,2.5c-0.1,5.3,0,10.5,0,15.8c0,4.8,2.3,7.1,7.3,7.1H16.1z"/>
	<path id="Trazado_2247" class="st2" d="M14.9,21.8c-4.5-0.1-8.2-3.8-8.1-8.3c0-0.1,0-0.2,0-0.3c0.1-4.5,3.9-8.1,8.4-8.1
		c4.6,0.1,8.3,3.9,8.2,8.5C23.3,18.2,19.5,21.8,14.9,21.8C14.9,21.8,14.9,21.8,14.9,21.8z"/>
</g>
<g id="Grupo_1464" transform="translate(328.468)">
	<path id="Trazado_2248" class="st2" d="M16.1,83.2c4.9,0,7.3-2.2,7.3-7.1c0-5.3,0.1-10.5,0-15.8c-0.2-1.1,0.5-2.2,1.6-2.5
		c3.4-1.3,5.5-4.7,5.3-8.3c0-5.6,0.1-11.2,0-16.8c-0.1-5-3.4-8.1-8.4-8.2c0,0-13.7-0.2-13.5,0c-5,0-8.3,3.2-8.4,8.2
		C0,38.3,0,43.9,0,49.5c-0.2,3.6,1.9,7,5.3,8.3c1.1,0.3,1.7,1.4,1.6,2.5c-0.1,5.3,0,10.5,0,15.8c0,4.8,2.3,7.1,7.3,7.1H16.1z"/>
	<path id="Trazado_2249" class="st2" d="M14.9,21.8c-4.5-0.1-8.2-3.8-8.1-8.3c0-0.1,0-0.2,0-0.3c0.1-4.5,3.9-8.1,8.4-8.1
		c4.6,0.1,8.3,3.9,8.2,8.5C23.3,18.2,19.5,21.8,14.9,21.8C14.9,21.8,14.9,21.8,14.9,21.8z"/>
</g>
<g id="Grupo_1465" transform="translate(368.992)">
	<path id="Trazado_2250" class="st2" d="M16.1,83.2c4.9,0,7.3-2.2,7.3-7.1c0-5.3,0.1-10.5,0-15.8c-0.2-1.1,0.5-2.2,1.6-2.5
		c3.4-1.3,5.5-4.7,5.3-8.3c0-5.6,0.1-11.2,0-16.8c-0.1-5-3.4-8.1-8.4-8.2c0,0-13.7-0.2-13.5,0c-5,0-8.3,3.2-8.4,8.2
		C0,38.3,0,43.9,0,49.5c-0.2,3.6,1.9,7,5.3,8.3c1.1,0.3,1.7,1.4,1.6,2.5c-0.1,5.3,0,10.5,0,15.8c0,4.8,2.3,7.1,7.3,7.1H16.1z"/>
	<path id="Trazado_2251" class="st2" d="M14.9,21.8c-4.5-0.1-8.2-3.8-8.1-8.3c0-0.1,0-0.2,0-0.3c0.1-4.5,3.9-8.1,8.4-8.1
		c4.6,0.1,8.3,3.9,8.2,8.5C23.3,18.2,19.5,21.8,14.9,21.8C14.9,21.8,14.9,21.8,14.9,21.8L14.9,21.8z"/>
</g>
<g id="Grupo_1466" transform="translate(409.515)">
	<path id="Trazado_2252" class="st2" d="M16.1,83.2c4.9,0,7.3-2.2,7.3-7.1c0-5.3,0.1-10.5,0-15.8c-0.2-1.1,0.5-2.2,1.6-2.5
		c3.4-1.3,5.5-4.7,5.3-8.3c0-5.6,0.1-11.2,0-16.8c-0.1-5-3.4-8.1-8.4-8.2c0,0-13.7-0.2-13.5,0c-5,0-8.3,3.2-8.4,8.2
		C0,38.3,0,43.9,0,49.5c-0.2,3.6,1.9,7,5.3,8.3c1.1,0.3,1.7,1.4,1.6,2.5c-0.1,5.3,0,10.5,0,15.8c0,4.8,2.3,7.1,7.3,7.1H16.1z"/>
	<path id="Trazado_2253" class="st2" d="M14.9,21.8c-4.5-0.1-8.2-3.8-8.1-8.3c0-0.1,0-0.2,0-0.3c0.1-4.5,3.9-8.1,8.4-8.1
		c4.6,0.1,8.3,3.9,8.2,8.5C23.3,18.2,19.5,21.8,14.9,21.8C14.9,21.8,14.9,21.8,14.9,21.8z"/>
</g>
<g id="Grupo_1467" transform="translate(4.188 90.104)">
	<path id="Trazado_2254" class="st2" d="M16.1,83.2c4.9,0,7.3-2.2,7.3-7.1c0-5.3,0.1-10.5,0-15.8c-0.2-1.1,0.5-2.2,1.6-2.5
		c3.4-1.3,5.5-4.7,5.3-8.3c0-5.6,0.1-11.2,0-16.8c-0.1-5-3.4-8.1-8.4-8.2c0,0-13.7-0.2-13.5,0c-5,0-8.3,3.2-8.4,8.2
		C0,38.3,0,43.9,0,49.5c-0.2,3.6,1.9,7,5.3,8.3c1.1,0.3,1.7,1.4,1.6,2.5c-0.1,5.3,0,10.5,0,15.8c0,4.8,2.3,7.1,7.3,7.1H16.1z"/>
	<path id="Trazado_2255" class="st2" d="M14.9,21.8c-4.5-0.1-8.2-3.8-8.1-8.3c0-0.1,0-0.2,0-0.3c0.1-4.5,3.9-8.1,8.4-8.1
		c4.6,0,8.3,3.8,8.3,8.4c0,4.6-3.8,8.3-8.4,8.3C15.1,21.8,15,21.8,14.9,21.8L14.9,21.8z"/>
</g>
<g id="Grupo_1468" transform="translate(44.711 90.104)">
	<path id="Trazado_2256" class="st2" d="M16.1,83.2c4.9,0,7.3-2.2,7.3-7.1c0-5.3,0.1-10.5,0-15.8c-0.2-1.1,0.5-2.2,1.6-2.5
		c3.4-1.3,5.5-4.7,5.3-8.3c0-5.6,0.1-11.2,0-16.8c-0.1-5-3.4-8.1-8.4-8.2c0,0-13.7-0.2-13.5,0c-5,0-8.3,3.2-8.4,8.2
		C0,38.3,0,43.9,0,49.5c-0.2,3.6,1.9,7,5.3,8.3c1.1,0.3,1.7,1.4,1.6,2.5c-0.1,5.3,0,10.5,0,15.8c0,4.8,2.3,7.1,7.3,7.1H16.1z"/>
	<path id="Trazado_2257" class="st2" d="M14.9,21.8c-4.5-0.1-8.2-3.8-8.1-8.3c0-0.1,0-0.2,0-0.3c0.1-4.5,3.9-8.1,8.4-8.1
		c4.6,0,8.3,3.8,8.3,8.4c0,4.6-3.8,8.3-8.4,8.3C15.1,21.8,15,21.8,14.9,21.8L14.9,21.8z"/>
</g>
<g id="Grupo_1469" transform="translate(85.235 90.104)">
	<path id="Trazado_2258" class="st2" d="M16.1,83.2c4.9,0,7.3-2.2,7.3-7.1c0-5.3,0.1-10.5,0-15.8c-0.2-1.1,0.5-2.2,1.6-2.5
		c3.4-1.3,5.5-4.7,5.3-8.3c0-5.6,0.1-11.2,0-16.8c-0.1-5-3.4-8.1-8.4-8.2c0,0-13.7-0.2-13.5,0c-5,0-8.3,3.2-8.4,8.2
		C0,38.3,0,43.9,0,49.5c-0.2,3.6,1.9,7,5.3,8.3c1.1,0.3,1.7,1.4,1.6,2.5c-0.1,5.3,0,10.5,0,15.8c0,4.8,2.3,7.1,7.3,7.1H16.1z"/>
	<path id="Trazado_2259" class="st2" d="M14.9,21.8c-4.5-0.1-8.2-3.8-8.1-8.3c0-0.1,0-0.2,0-0.3c0.1-4.5,3.9-8.1,8.4-8.1
		c4.6,0,8.3,3.8,8.3,8.4c0,4.6-3.8,8.3-8.4,8.3C15.1,21.8,15,21.8,14.9,21.8L14.9,21.8z"/>
</g>
<g id="Grupo_1470" transform="translate(125.759 90.104)">
	<path id="Trazado_2260" class="st2" d="M16.1,83.2c4.9,0,7.3-2.2,7.3-7.1c0-5.3,0.1-10.5,0-15.8c-0.2-1.1,0.5-2.2,1.6-2.5
		c3.4-1.3,5.5-4.7,5.3-8.3c0-5.6,0.1-11.2,0-16.8c-0.1-5-3.4-8.1-8.4-8.2c0,0-13.7-0.2-13.5,0c-5,0-8.3,3.2-8.4,8.2
		C0,38.3,0,43.9,0,49.5c-0.2,3.6,1.9,7,5.3,8.3c1.1,0.3,1.7,1.4,1.6,2.5c-0.1,5.3,0,10.5,0,15.8c0,4.8,2.3,7.1,7.3,7.1H16.1z"/>
	<path id="Trazado_2261" class="st2" d="M14.9,21.8c-4.5-0.1-8.2-3.8-8.1-8.3c0-0.1,0-0.2,0-0.3c0.1-4.5,3.9-8.1,8.4-8.1
		c4.6,0,8.3,3.8,8.3,8.4c0,4.6-3.8,8.3-8.4,8.3C15.1,21.8,15,21.8,14.9,21.8L14.9,21.8z"/>
</g>
<g id="Grupo_1471" transform="translate(166.282 90.104)">
	<path id="Trazado_2262" class="st2" d="M16.1,83.2c4.9,0,7.3-2.2,7.3-7.1c0-5.3,0.1-10.5,0-15.8c-0.2-1.1,0.5-2.2,1.6-2.5
		c3.4-1.3,5.5-4.7,5.3-8.3c0-5.6,0.1-11.2,0-16.8c-0.1-5-3.4-8.1-8.4-8.2c0,0-13.7-0.2-13.5,0c-5,0-8.3,3.2-8.4,8.2
		C0,38.3,0,43.9,0,49.5c-0.2,3.6,1.9,7,5.3,8.3c1.1,0.3,1.7,1.4,1.6,2.5c-0.1,5.3,0,10.5,0,15.8c0,4.8,2.3,7.1,7.3,7.1H16.1z"/>
	<path id="Trazado_2263" class="st2" d="M14.9,21.8c-4.5-0.1-8.2-3.8-8.1-8.3c0-0.1,0-0.2,0-0.3c0.1-4.5,3.9-8.1,8.4-8.1
		c4.6,0,8.3,3.8,8.3,8.4c0,4.6-3.8,8.3-8.4,8.3C15.1,21.8,15,21.8,14.9,21.8L14.9,21.8z"/>
</g>
<g id="Grupo_1472" transform="translate(206.806 90.104)">
	<path id="Trazado_2264" class="st2" d="M16.1,83.2c4.9,0,7.3-2.2,7.3-7.1c0-5.3,0.1-10.5,0-15.8c-0.2-1.1,0.5-2.2,1.6-2.5
		c3.4-1.3,5.5-4.7,5.3-8.3c0-5.6,0.1-11.2,0-16.8c-0.1-5-3.4-8.1-8.4-8.2c0,0-13.7-0.2-13.5,0c-5,0-8.3,3.2-8.4,8.2
		C0,38.3,0,43.9,0,49.5c-0.2,3.6,1.9,7,5.3,8.3c1.1,0.3,1.7,1.4,1.6,2.5c-0.1,5.3,0,10.5,0,15.8c0,4.8,2.3,7.1,7.3,7.1H16.1z"/>
	<path id="Trazado_2265" class="st2" d="M14.9,21.8c-4.5-0.1-8.2-3.8-8.1-8.3c0-0.1,0-0.2,0-0.3c0.1-4.5,3.9-8.1,8.4-8.1
		c4.6,0,8.3,3.8,8.3,8.4c0,4.6-3.8,8.3-8.4,8.3C15.1,21.8,15,21.8,14.9,21.8L14.9,21.8z"/>
</g>
<g id="Grupo_1473" transform="translate(247.329 90.104)">
	<path id="Trazado_2266" class="st2" d="M16.1,83.2c4.9,0,7.3-2.2,7.3-7.1c0-5.3,0.1-10.5,0-15.8c-0.2-1.1,0.5-2.2,1.6-2.5
		c3.4-1.3,5.5-4.7,5.3-8.3c0-5.6,0.1-11.2,0-16.8c-0.1-5-3.4-8.1-8.4-8.2c0,0-13.7-0.2-13.5,0c-5,0-8.3,3.2-8.4,8.2
		C0,38.3,0,43.9,0,49.5c-0.2,3.6,1.9,7,5.3,8.3c1.1,0.3,1.7,1.4,1.6,2.5c-0.1,5.3,0,10.5,0,15.8c0,4.8,2.3,7.1,7.3,7.1H16.1z"/>
	<path id="Trazado_2267" class="st2" d="M14.9,21.8c-4.5-0.1-8.2-3.8-8.1-8.3c0-0.1,0-0.2,0-0.3c0.1-4.5,3.9-8.1,8.4-8.1
		c4.6,0,8.3,3.8,8.3,8.4c0,4.6-3.8,8.3-8.4,8.3C15.1,21.8,15,21.8,14.9,21.8L14.9,21.8z"/>
</g>
<g id="Grupo_1474" transform="translate(287.853 90.104)">
	<path id="Trazado_2268" class="st2" d="M16.1,83.2c4.9,0,7.3-2.2,7.3-7.1c0-5.3,0.1-10.5,0-15.8c-0.2-1.1,0.5-2.2,1.6-2.5
		c3.4-1.3,5.5-4.7,5.3-8.3c0-5.6,0.1-11.2,0-16.8c-0.1-5-3.4-8.1-8.4-8.2c0,0-13.7-0.2-13.5,0c-5,0-8.3,3.2-8.4,8.2
		C0,38.3,0,43.9,0,49.5c-0.2,3.6,1.9,7,5.3,8.3c1.1,0.3,1.7,1.4,1.6,2.5c-0.1,5.3,0,10.5,0,15.8c0,4.8,2.3,7.1,7.3,7.1H16.1z"/>
	<path id="Trazado_2269" class="st2" d="M14.9,21.8c-4.5-0.1-8.2-3.8-8.1-8.3c0-0.1,0-0.2,0-0.3c0.1-4.5,3.9-8.1,8.4-8.1
		c4.6,0,8.3,3.8,8.3,8.4c0,4.6-3.8,8.3-8.4,8.3C15.1,21.8,15,21.8,14.9,21.8L14.9,21.8z"/>
</g>
<g id="Grupo_1475" transform="translate(328.376 90.104)">
	<path id="Trazado_2270" class="st2" d="M16.1,83.2c4.9,0,7.3-2.2,7.3-7.1c0-5.3,0.1-10.5,0-15.8c-0.2-1.1,0.5-2.2,1.6-2.5
		c3.4-1.3,5.5-4.7,5.3-8.3c0-5.6,0.1-11.2,0-16.8c-0.1-5-3.4-8.1-8.4-8.2c0,0-13.7-0.2-13.5,0c-5,0-8.3,3.2-8.4,8.2
		C0,38.3,0,43.9,0,49.5c-0.2,3.6,1.9,7,5.3,8.3c1.1,0.3,1.7,1.4,1.6,2.5c-0.1,5.3,0,10.5,0,15.8c0,4.8,2.3,7.1,7.3,7.1H16.1z"/>
	<path id="Trazado_2271" class="st2" d="M14.9,21.8c-4.5-0.1-8.2-3.8-8.1-8.3c0-0.1,0-0.2,0-0.3c0.1-4.5,3.9-8.1,8.4-8.1
		c4.6,0,8.3,3.8,8.3,8.4c0,4.6-3.8,8.3-8.4,8.3C15.1,21.8,15,21.8,14.9,21.8L14.9,21.8z"/>
</g>
<g id="Grupo_1476" transform="translate(373.178 90.104)">
	<path id="Trazado_2272" class="st2" d="M16.1,83.2c4.9,0,7.3-2.2,7.3-7.1c0-5.3,0.1-10.5,0-15.8c-0.2-1.1,0.5-2.2,1.6-2.5
		c3.4-1.3,5.5-4.7,5.3-8.3c0-5.6,0.1-11.2,0-16.8c-0.1-5-3.4-8.1-8.4-8.2c0,0-13.7-0.2-13.5,0c-5,0-8.3,3.2-8.4,8.2
		C0,38.3,0,43.9,0,49.5c-0.2,3.6,1.9,7,5.3,8.3c1.1,0.3,1.7,1.4,1.6,2.5c-0.1,5.3,0,10.5,0,15.8c0,4.8,2.3,7.1,7.3,7.1H16.1z"/>
	<path id="Trazado_2273" class="st2" d="M14.9,21.8c-4.5-0.1-8.2-3.8-8.1-8.3c0-0.1,0-0.2,0-0.3c0.1-4.5,3.9-8.1,8.4-8.1
		c4.6,0,8.3,3.8,8.3,8.4c0,4.6-3.8,8.3-8.4,8.3C15.1,21.8,15,21.8,14.9,21.8L14.9,21.8z"/>
</g>
<g id="Grupo_1477" transform="translate(413.701 90.104)">
	<path id="Trazado_2274" class="st2" d="M16.1,83.2c4.9,0,7.3-2.2,7.3-7.1c0-5.3,0.1-10.5,0-15.8c-0.2-1.1,0.5-2.2,1.6-2.5
		c3.4-1.3,5.5-4.7,5.3-8.3c0-5.6,0.1-11.2,0-16.8c-0.1-5-3.4-8.1-8.4-8.2c0,0-13.7-0.2-13.5,0c-5,0-8.3,3.2-8.4,8.2
		C0,38.3,0,43.9,0,49.5c-0.2,3.6,1.9,7,5.3,8.3c1.1,0.3,1.7,1.4,1.6,2.5c-0.1,5.3,0,10.5,0,15.8c0,4.8,2.3,7.1,7.3,7.1H16.1z"/>
	<path id="Trazado_2275" class="st2" d="M14.9,21.8c-4.5-0.1-8.2-3.8-8.1-8.3c0-0.1,0-0.2,0-0.3c0.1-4.5,3.9-8.1,8.4-8.1
		c4.6,0,8.3,3.8,8.3,8.4c0,4.6-3.8,8.3-8.4,8.3C15.1,21.8,15,21.8,14.9,21.8L14.9,21.8z"/>
</g>
<g id="Grupo_1578" transform="translate(125.759 188.562)">
	<path id="Trazado_2476" class="st3" d="M16.1,83.2c4.9,0,7.3-2.2,7.3-7.1c0-5.3,0.1-10.5,0-15.8c-0.2-1.1,0.5-2.2,1.6-2.5
		c3.4-1.3,5.5-4.7,5.3-8.3c0-5.6,0.1-11.2,0-16.8c-0.1-5-3.4-8.1-8.4-8.2c0,0-13.7-0.2-13.5,0c-5,0-8.3,3.2-8.4,8.2
		C0,38.3,0,43.9,0,49.5c-0.2,3.6,1.9,7,5.3,8.3c1.1,0.3,1.7,1.4,1.6,2.5c-0.1,5.3,0,10.5,0,15.8c0,4.8,2.3,7.1,7.3,7.1H16.1z"/>
	<path id="Trazado_2477" class="st3" d="M14.9,21.8c-4.5-0.1-8.2-3.8-8.1-8.3c0-0.1,0-0.2,0-0.3c0.1-4.5,3.9-8.1,8.4-8.1
		c4.6,0,8.3,3.8,8.3,8.4c0,4.6-3.8,8.3-8.4,8.3C15,21.8,15,21.8,14.9,21.8L14.9,21.8z"/>
</g>
<g id="Grupo_1579" transform="translate(166.282 188.562)">
	<path id="Trazado_2478" class="st3" d="M16.1,83.2c4.9,0,7.3-2.2,7.3-7.1c0-5.3,0.1-10.5,0-15.8c-0.2-1.1,0.5-2.2,1.6-2.5
		c3.4-1.3,5.5-4.7,5.3-8.3c0-5.6,0.1-11.2,0-16.8c-0.1-5-3.4-8.1-8.4-8.2c0,0-13.7-0.2-13.5,0c-5,0-8.3,3.2-8.4,8.2
		C0,38.3,0,43.9,0,49.5c-0.2,3.6,1.9,7,5.3,8.3c1.1,0.3,1.7,1.4,1.6,2.5c-0.1,5.3,0,10.5,0,15.8c0,4.8,2.3,7.1,7.3,7.1H16.1z"/>
	<path id="Trazado_2479" class="st3" d="M14.9,21.8c-4.5-0.1-8.2-3.8-8.1-8.3c0-0.1,0-0.2,0-0.3c0.1-4.5,3.9-8.1,8.4-8.1
		c4.6,0,8.3,3.8,8.3,8.4c0,4.6-3.8,8.3-8.4,8.3C15,21.8,15,21.8,14.9,21.8L14.9,21.8z"/>
</g>
<g id="Grupo_1580" transform="translate(206.806 188.562)">
	<path id="Trazado_2480" class="st3" d="M16.1,83.2c4.9,0,7.3-2.2,7.3-7.1c0-5.3,0.1-10.5,0-15.8c-0.2-1.1,0.5-2.2,1.6-2.5
		c3.4-1.3,5.5-4.7,5.3-8.3c0-5.6,0.1-11.2,0-16.8c-0.1-5-3.4-8.1-8.4-8.2c0,0-13.7-0.2-13.5,0c-5,0-8.3,3.2-8.4,8.2
		C0,38.3,0,43.9,0,49.5c-0.2,3.6,1.9,7,5.3,8.3c1.1,0.3,1.7,1.4,1.6,2.5c-0.1,5.3,0,10.5,0,15.8c0,4.8,2.3,7.1,7.3,7.1H16.1z"/>
	<path id="Trazado_2481" class="st3" d="M14.9,21.8c-4.5-0.1-8.2-3.8-8.1-8.3c0-0.1,0-0.2,0-0.3c0.1-4.5,3.9-8.1,8.4-8.1
		c4.6,0,8.3,3.8,8.3,8.4c0,4.6-3.8,8.3-8.4,8.3C15,21.8,15,21.8,14.9,21.8L14.9,21.8z"/>
</g>
<g id="Grupo_1581" transform="translate(247.329 188.562)">
	<path id="Trazado_2482" class="st3" d="M16.1,83.2c4.9,0,7.3-2.2,7.3-7.1c0-5.3,0.1-10.5,0-15.8c-0.2-1.1,0.5-2.2,1.6-2.5
		c3.4-1.3,5.5-4.7,5.3-8.3c0-5.6,0.1-11.2,0-16.8c-0.1-5-3.4-8.1-8.4-8.2c0,0-13.7-0.2-13.5,0c-5,0-8.3,3.2-8.4,8.2
		C0,38.3,0,43.9,0,49.5c-0.2,3.6,1.9,7,5.3,8.3c1.1,0.3,1.7,1.4,1.6,2.5c-0.1,5.3,0,10.5,0,15.8c0,4.8,2.3,7.1,7.3,7.1H16.1z"/>
	<path id="Trazado_2483" class="st3" d="M14.9,21.8c-4.5-0.1-8.2-3.8-8.1-8.3c0-0.1,0-0.2,0-0.3c0.1-4.5,3.9-8.1,8.4-8.1
		c4.6,0,8.3,3.8,8.3,8.4c0,4.6-3.8,8.3-8.4,8.3C15,21.8,15,21.8,14.9,21.8L14.9,21.8z"/>
</g>
<g id="Grupo_1582" transform="translate(287.853 188.562)">
	<path id="Trazado_2484" class="st3" d="M16.1,83.2c4.9,0,7.3-2.2,7.3-7.1c0-5.3,0.1-10.5,0-15.8c-0.2-1.1,0.5-2.2,1.6-2.5
		c3.4-1.3,5.5-4.7,5.3-8.3c0-5.6,0.1-11.2,0-16.8c-0.1-5-3.4-8.1-8.4-8.2c0,0-13.7-0.2-13.5,0c-5,0-8.3,3.2-8.4,8.2
		C0,38.3,0,43.9,0,49.5c-0.2,3.6,1.9,7,5.3,8.3c1.1,0.3,1.7,1.4,1.6,2.5c-0.1,5.3,0,10.5,0,15.8c0,4.8,2.3,7.1,7.3,7.1H16.1z"/>
	<path id="Trazado_2485" class="st3" d="M14.9,21.8c-4.5-0.1-8.2-3.8-8.1-8.3c0-0.1,0-0.2,0-0.3c0.1-4.5,3.9-8.1,8.4-8.1
		c4.6,0,8.3,3.8,8.3,8.4c0,4.6-3.8,8.3-8.4,8.3C15,21.8,15,21.8,14.9,21.8L14.9,21.8z"/>
</g>
<g id="Grupo_1583" transform="translate(328.376 188.562)">
	<path id="Trazado_2486" class="st3" d="M16.1,83.2c4.9,0,7.3-2.2,7.3-7.1c0-5.3,0.1-10.5,0-15.8c-0.2-1.1,0.5-2.2,1.6-2.5
		c3.4-1.3,5.5-4.7,5.3-8.3c0-5.6,0.1-11.2,0-16.8c-0.1-5-3.4-8.1-8.4-8.2c0,0-13.7-0.2-13.5,0c-5,0-8.3,3.2-8.4,8.2
		C0,38.3,0,43.9,0,49.5c-0.2,3.6,1.9,7,5.3,8.3c1.1,0.3,1.7,1.4,1.6,2.5c-0.1,5.3,0,10.5,0,15.8c0,4.8,2.3,7.1,7.3,7.1H16.1z"/>
	<path id="Trazado_2487" class="st3" d="M14.9,21.8c-4.5-0.1-8.2-3.8-8.1-8.3c0-0.1,0-0.2,0-0.3c0.1-4.5,3.9-8.1,8.4-8.1
		c4.6,0,8.3,3.8,8.3,8.4c0,4.6-3.8,8.3-8.4,8.3C15,21.8,15,21.8,14.9,21.8L14.9,21.8z"/>
</g>
<g id="Grupo_1584" transform="translate(373.178 188.562)">
	<path id="Trazado_2488" class="st3" d="M16.1,83.2c4.9,0,7.3-2.2,7.3-7.1c0-5.3,0.1-10.5,0-15.8c-0.2-1.1,0.5-2.2,1.6-2.5
		c3.4-1.3,5.5-4.7,5.3-8.3c0-5.6,0.1-11.2,0-16.8c-0.1-5-3.4-8.1-8.4-8.2c0,0-13.7-0.2-13.5,0c-5,0-8.3,3.2-8.4,8.2
		C0,38.3,0,43.9,0,49.5c-0.2,3.6,1.9,7,5.3,8.3c1.1,0.3,1.7,1.4,1.6,2.5c-0.1,5.3,0,10.5,0,15.8c0,4.8,2.3,7.1,7.3,7.1H16.1z"/>
	<path id="Trazado_2489" class="st3" d="M14.9,21.8c-4.5-0.1-8.2-3.8-8.1-8.3c0-0.1,0-0.2,0-0.3c0.1-4.5,3.9-8.1,8.4-8.1
		c4.6,0,8.3,3.8,8.3,8.4c0,4.6-3.8,8.3-8.4,8.3C15,21.8,15,21.8,14.9,21.8L14.9,21.8z"/>
</g>
<g id="Grupo_1585" transform="translate(413.701 188.562)">
	<path id="Trazado_2490" class="st3" d="M16.1,83.2c4.9,0,7.3-2.2,7.3-7.1c0-5.3,0.1-10.5,0-15.8c-0.2-1.1,0.5-2.2,1.6-2.5
		c3.4-1.3,5.5-4.7,5.3-8.3c0-5.6,0.1-11.2,0-16.8c-0.1-5-3.4-8.1-8.4-8.2c0,0-13.7-0.2-13.5,0c-5,0-8.3,3.2-8.4,8.2
		C0,38.3,0,43.9,0,49.5c-0.2,3.6,1.9,7,5.3,8.3c1.1,0.3,1.7,1.4,1.6,2.5c-0.1,5.3,0,10.5,0,15.8c0,4.8,2.3,7.1,7.3,7.1H16.1z"/>
	<path id="Trazado_2491" class="st3" d="M14.9,21.8c-4.5-0.1-8.2-3.8-8.1-8.3c0-0.1,0-0.2,0-0.3c0.1-4.5,3.9-8.1,8.4-8.1
		c4.6,0,8.3,3.8,8.3,8.4c0,4.6-3.8,8.3-8.4,8.3C15,21.8,15,21.8,14.9,21.8L14.9,21.8z"/>
</g>
<g id="Grupo_1586" transform="translate(3.968 188.562)">
	<path id="Trazado_2492" class="st2" d="M16.1,83.2c4.9,0,7.3-2.2,7.3-7.1c0-5.3,0.1-10.5,0-15.8c-0.2-1.1,0.5-2.2,1.6-2.5
		c3.4-1.3,5.5-4.7,5.3-8.3c0-5.6,0.1-11.2,0-16.8c-0.1-5-3.4-8.1-8.4-8.2c0,0-13.7-0.2-13.5,0c-5,0-8.3,3.2-8.4,8.2
		C0,38.3,0,43.9,0,49.5c-0.2,3.6,1.9,7,5.3,8.3c1.1,0.3,1.7,1.4,1.6,2.5c-0.1,5.3,0,10.5,0,15.8c0,4.8,2.3,7.1,7.3,7.1H16.1z"/>
	<path id="Trazado_2493" class="st2" d="M14.9,21.8c-4.5-0.1-8.2-3.8-8.1-8.3c0-0.1,0-0.2,0-0.3c0.1-4.5,3.9-8.1,8.4-8.1
		c4.6,0,8.3,3.8,8.3,8.4c0,4.6-3.8,8.3-8.4,8.3C15,21.8,15,21.8,14.9,21.8L14.9,21.8z"/>
</g>
<g id="Grupo_1587" transform="translate(44.492 188.562)">
	<path id="Trazado_2494" class="st2" d="M16.1,83.2c4.9,0,7.3-2.2,7.3-7.1c0-5.3,0.1-10.5,0-15.8c-0.2-1.1,0.5-2.2,1.6-2.5
		c3.4-1.3,5.5-4.7,5.3-8.3c0-5.6,0.1-11.2,0-16.8c-0.1-5-3.4-8.1-8.4-8.2c0,0-13.7-0.2-13.5,0c-5,0-8.3,3.2-8.4,8.2
		C0,38.3,0,43.9,0,49.5c-0.2,3.6,1.9,7,5.3,8.3c1.1,0.3,1.7,1.4,1.6,2.5c-0.1,5.3,0,10.5,0,15.8c0,4.8,2.3,7.1,7.3,7.1H16.1z"/>
	<path id="Trazado_2495" class="st2" d="M14.9,21.8c-4.5-0.1-8.2-3.8-8.1-8.3c0-0.1,0-0.2,0-0.3c0.1-4.5,3.9-8.1,8.4-8.1
		c4.6,0,8.3,3.8,8.3,8.4c0,4.6-3.8,8.3-8.4,8.3C15,21.8,15,21.8,14.9,21.8L14.9,21.8z"/>
</g>
<g id="Grupo_1588" transform="translate(85.016 188.562)">
	<path id="Trazado_2496" class="st2" d="M16.1,83.2c4.9,0,7.3-2.2,7.3-7.1c0-5.3,0.1-10.5,0-15.8c-0.2-1.1,0.5-2.2,1.6-2.5
		c3.4-1.3,5.5-4.7,5.3-8.3c0-5.6,0.1-11.2,0-16.8c-0.1-5-3.4-8.1-8.4-8.2c0,0-13.7-0.2-13.5,0c-5,0-8.3,3.2-8.4,8.2
		C0,38.3,0,43.9,0,49.5c-0.2,3.6,1.9,7,5.3,8.3c1.1,0.3,1.7,1.4,1.6,2.5c-0.1,5.3,0,10.5,0,15.8c0,4.8,2.3,7.1,7.3,7.1H16.1z"/>
	<path id="Trazado_2497" class="st2" d="M14.9,21.8c-4.5-0.1-8.2-3.8-8.1-8.3c0-0.1,0-0.2,0-0.3c0.1-4.5,3.9-8.1,8.4-8.1
		c4.6,0,8.3,3.8,8.3,8.4c0,4.6-3.8,8.3-8.4,8.3C15,21.8,15,21.8,14.9,21.8L14.9,21.8z"/>
</g>
</svg>
