<?xml version="1.0" encoding="utf-8"?>
<!-- Generator: Adobe Illustrator 24.3.0, SVG Export Plug-In . SVG Version: 6.00 Build 0)  -->
<svg version="1.1" id="Capa_1" xmlns="http://www.w3.org/2000/svg" xmlns:xlink="http://www.w3.org/1999/xlink" x="0px" y="0px"
	 viewBox="0 0 430.6 473" style="enable-background:new 0 0 430.6 473;" xml:space="preserve">
<style type="text/css">
	.st0{fill:#EE833B;}
	.st1{fill:#FFBB58;}
	.st2{fill:#84DE8A;}
	.st3{fill:#C5EBC8;}
</style>
<g id="Grupo_1453" transform="translate(0.25 429.421)">
	<path id="Trazado_2211" class="st0" d="M0,33V1.2h18.4l0.7,4.1h-14v9.5h10.7l0.7,4.2H5.2v10h15.2l0.8,4.1L0,33z"/>
	<path id="Trazado_2212" class="st0" d="M24.8,33V10.3h3.6l0.9,2.7c0.9-0.7,1.8-1.3,2.8-1.8c0.9-0.5,2-0.9,3-1.2
		C36,9.8,37,9.6,38,9.6c1.6-0.1,3.1,0.3,4.4,1.1c1.1,0.8,1.9,1.9,2.3,3.1c0.5,1.5,0.7,3,0.7,4.5V33h-5.2V18.7
		c0.1-1.2-0.2-2.4-0.8-3.5c-0.6-0.9-1.6-1.4-2.7-1.3c-0.8,0-1.6,0.2-2.3,0.4c-0.8,0.3-1.5,0.7-2.2,1.2c-0.7,0.5-1.4,1-2.1,1.5V33
		L24.8,33z"/>
	<path id="Trazado_2213" class="st0" d="M68.5,29.5c-0.7,0.9-1.5,1.6-2.4,2.2c-0.9,0.6-1.8,1.1-2.8,1.4c-0.9,0.3-1.8,0.5-2.7,0.5
		c-2.1,0.1-4.2-0.5-6-1.5c-1.7-1-3-2.4-3.9-4.2c-1-2-1.4-4.1-1.4-6.3c-0.1-2.2,0.4-4.3,1.4-6.2c0.9-1.7,2.3-3.2,3.9-4.2
		c1.9-1,4-1.6,6.1-1.5c0.9,0,1.8,0.2,2.7,0.5c1,0.3,2,0.8,2.9,1.4c0.9,0.6,1.6,1.4,2.3,2.2L67,17.5c-0.8-1-1.8-1.9-3-2.5
		c-1-0.5-2.1-0.7-3.3-0.7c-1.2,0-2.3,0.3-3.3,1c-0.9,0.7-1.7,1.6-2.1,2.6c-0.5,1.2-0.7,2.4-0.7,3.7c0,1.3,0.2,2.7,0.7,3.9
		c0.4,1.1,1.1,2,2.1,2.7c1,0.7,2.1,1,3.3,1c1.1,0,2.3-0.3,3.3-0.8c1.1-0.7,2.1-1.5,2.9-2.4L68.5,29.5z M70.9,34.6
		c0,1.7-0.4,3.4-1.4,4.9c-1,1.4-2.3,2.5-3.9,3.2c-1.9,0.8-4,1.2-6.1,1.1c-0.6,0-1.2-0.1-1.8-0.1c-0.8-0.1-1.6-0.3-2.4-0.4
		c-0.8-0.2-1.6-0.5-2.4-0.8c-0.7-0.3-1.4-0.6-2-1.1l1.6-3.7c1.1,0.5,2.2,1,3.4,1.4c1.1,0.3,2.3,0.5,3.5,0.5c1.6,0,3.2-0.4,4.5-1.3
		c1.2-0.9,1.9-2.3,1.8-3.7V14.3l2.4-3.9h2.9L70.9,34.6z"/>
	<path id="Trazado_2214" class="st0" d="M77.2,11.7c0.7-0.5,1.5-0.8,2.4-1.1c1-0.3,2-0.5,3-0.7c0.8-0.2,1.6-0.2,2.5-0.3
		c1.7,0,3.3,0.3,4.8,1.1c1.4,0.7,2.6,1.7,3.4,2.9c0.8,1.2,1.3,2.7,1.3,4.2V33h-3.6l-0.8-2.3c-0.9,0.8-1.8,1.5-2.9,2
		c-1.1,0.5-2.3,0.8-3.5,0.8c-2.7,0-4.7-0.7-6-2c-1.3-1.4-2.1-3.3-2-5.2c-0.1-2.1,0.8-4,2.4-5.3c1.8-1.3,3.9-1.9,6.1-1.8h5v-0.2
		c0-1.2-0.3-2.3-1-3.3c-0.8-0.9-1.9-1.4-3.1-1.3c-1.2,0-2.4,0.2-3.5,0.5c-1.2,0.3-2.2,0.7-3.1,1L77.2,11.7z M81,27.8
		c0.3,0.5,0.7,0.9,1.1,1.1c0.6,0.3,1.2,0.4,1.8,0.4c1,0,2-0.2,2.9-0.7c1-0.5,1.8-1.1,2.6-1.9v-4h-5c-1.1-0.1-2.1,0.3-2.8,1.1
		c-0.6,0.7-0.9,1.6-0.9,2.5C80.6,26.9,80.7,27.4,81,27.8L81,27.8z"/>
	<path id="Trazado_2215" class="st0" d="M117.7,29.5c-0.7,0.9-1.5,1.6-2.4,2.2c-0.9,0.6-1.8,1.1-2.8,1.4c-0.9,0.3-1.8,0.5-2.7,0.5
		c-2.1,0.1-4.2-0.5-6-1.5c-1.7-1-3-2.4-3.9-4.2c-1-2-1.4-4.1-1.4-6.3c0-2.2,0.4-4.3,1.4-6.2c0.9-1.7,2.3-3.2,3.9-4.2
		c1.9-1,4-1.6,6.1-1.5c0.9,0,1.8,0.2,2.7,0.5c1,0.3,2,0.8,2.9,1.4c0.9,0.6,1.6,1.4,2.3,2.2l-1.5,3.6c-0.8-1-1.8-1.9-3-2.5
		c-1-0.5-2.1-0.7-3.3-0.7c-1.2,0-2.3,0.3-3.3,1c-0.9,0.7-1.7,1.6-2.1,2.6c-0.5,1.2-0.7,2.4-0.7,3.7c0,1.3,0.2,2.7,0.7,3.9
		c0.4,1.1,1.1,2,2.1,2.7c1,0.7,2.1,1,3.3,1c1.1,0,2.3-0.3,3.3-0.8c1.1-0.7,2.1-1.5,2.9-2.4L117.7,29.5z M120.1,34.6
		c0,1.7-0.4,3.4-1.4,4.9c-1,1.4-2.3,2.5-3.9,3.2c-1.9,0.8-4,1.2-6.1,1.1c-0.6,0-1.2-0.1-1.8-0.1c-0.8-0.1-1.6-0.3-2.4-0.4
		c-0.8-0.2-1.6-0.5-2.4-0.8c-0.7-0.3-1.4-0.6-2-1.1l1.6-3.7c1.1,0.5,2.2,1,3.4,1.4c1.1,0.3,2.3,0.5,3.5,0.5c1.6,0,3.2-0.4,4.5-1.3
		c1.2-0.9,1.9-2.3,1.8-3.7V14.3l2.4-3.9h2.9L120.1,34.6z"/>
	<path id="Trazado_2216" class="st0" d="M129.8,23c0.1,1.1,0.5,2.2,1,3.2c0.5,0.9,1.3,1.7,2.3,2.1c1.2,0.6,2.6,0.9,4,0.8
		c1.2,0,2.4-0.2,3.5-0.5c1.1-0.4,2.2-0.9,3.2-1.5l1.5,3.8c-0.7,0.5-1.5,1-2.3,1.4c-0.9,0.4-1.8,0.8-2.8,1c-1.1,0.2-2.2,0.3-3.2,0.3
		c-2.4,0.1-4.8-0.4-7-1.5c-1.8-0.9-3.3-2.4-4.2-4.2c-1-1.9-1.4-4.1-1.4-6.2c-0.1-2.2,0.4-4.3,1.3-6.3c0.8-1.7,2.2-3.2,3.8-4.2
		c1.8-1,3.9-1.6,6-1.5c2.1-0.1,4.1,0.5,5.8,1.7c1.5,1.1,2.6,2.7,3.3,4.4c0.7,1.9,1.1,4,1,6V23L129.8,23z M140.5,19.5
		c-0.1-1-0.4-2-0.9-2.9c-0.4-0.7-1-1.3-1.8-1.8c-0.8-0.4-1.7-0.6-2.5-0.6c-0.9,0-1.8,0.2-2.6,0.6c-0.8,0.4-1.4,1-1.8,1.8
		c-0.5,0.9-0.8,1.9-0.9,2.9L140.5,19.5z"/>
	<path id="Trazado_2217" class="st0" d="M149.5,33V10.3h3.6L154,13c0.9-0.7,1.8-1.3,2.7-1.8c0.9-0.5,1.9-0.9,2.9-1.2
		c0.9-0.3,1.8-0.4,2.7-0.4c1.5-0.1,2.9,0.3,4.2,1c1.1,0.7,1.9,1.7,2.3,2.9c0.5,1.4,0.8,2.9,0.7,4.4V33h-5.2V18.7
		c0-0.9-0.1-1.7-0.3-2.5c-0.2-0.6-0.5-1.2-1-1.6c-0.6-0.4-1.2-0.6-1.9-0.6c-0.7,0-1.4,0.2-2.1,0.4c-0.7,0.3-1.4,0.7-2.1,1.2
		c-0.7,0.5-1.4,1-2,1.5V33L149.5,33z M168.4,13c0.9-0.7,1.8-1.3,2.8-1.8c0.9-0.5,1.9-0.9,2.9-1.2c0.9-0.3,1.8-0.4,2.7-0.4
		c1.5-0.1,2.9,0.3,4.2,1c1.1,0.7,1.9,1.7,2.3,2.9c0.5,1.4,0.8,2.9,0.7,4.4V33h-5.2V18.7c0-0.9-0.1-1.7-0.3-2.5
		c-0.2-0.6-0.5-1.2-1-1.6c-0.5-0.4-1.2-0.6-1.9-0.6c-0.7,0-1.5,0.2-2.1,0.4c-0.7,0.3-1.5,0.7-2.1,1.2c-0.7,0.5-1.4,1-2,1.5L168.4,13
		z"/>
	<path id="Trazado_2218" class="st0" d="M193.3,23c0.1,1.1,0.5,2.2,1,3.2c0.5,0.9,1.3,1.7,2.3,2.1c1.2,0.6,2.6,0.9,4,0.8
		c1.2,0,2.4-0.2,3.5-0.5c1.1-0.4,2.2-0.9,3.2-1.5l1.5,3.8c-0.7,0.5-1.5,1-2.3,1.4c-0.9,0.4-1.8,0.8-2.8,1c-1.1,0.2-2.2,0.3-3.2,0.3
		c-2.4,0.1-4.8-0.4-7-1.5c-1.8-0.9-3.3-2.4-4.2-4.2c-1-1.9-1.4-4.1-1.4-6.2c0-2.2,0.4-4.3,1.3-6.3c0.8-1.7,2.2-3.2,3.8-4.2
		c1.8-1,3.9-1.6,6-1.5c2.1-0.1,4.1,0.5,5.8,1.7c1.5,1.1,2.6,2.7,3.3,4.4c0.7,1.9,1.1,4,1,6V23L193.3,23z M203.9,19.5
		c-0.1-1-0.4-2-0.9-2.9c-0.4-0.7-1-1.3-1.8-1.8c-0.8-0.4-1.7-0.6-2.5-0.6c-0.9,0-1.8,0.2-2.6,0.6c-0.8,0.4-1.4,1-1.8,1.8
		c-0.5,0.9-0.8,1.9-0.9,2.9L203.9,19.5z"/>
	<path id="Trazado_2219" class="st0" d="M213,33V10.3h3.6l0.9,2.7c0.9-0.7,1.8-1.3,2.8-1.8c0.9-0.5,2-0.9,3-1.2
		c1-0.3,1.9-0.4,2.9-0.4c1.6-0.1,3.1,0.3,4.4,1.1c1.1,0.8,1.9,1.9,2.3,3.1c0.5,1.5,0.7,3,0.7,4.5V33h-5.2V18.7
		c0.1-1.2-0.2-2.4-0.8-3.5c-0.6-0.9-1.6-1.4-2.7-1.3c-0.8,0-1.6,0.2-2.3,0.4c-0.8,0.3-1.5,0.7-2.2,1.2c-0.7,0.5-1.4,1-2.1,1.5V33
		L213,33z"/>
	<path id="Trazado_2220" class="st0" d="M250.8,14.5h-5.8v10.8c0,1,0.2,2,0.8,2.8c0.6,0.8,1.5,1.2,2.5,1.1c0.4,0,0.8-0.1,1.2-0.2
		c0.4-0.1,0.8-0.2,1.1-0.4l1.5,3.9c-0.3,0.3-0.7,0.5-1.1,0.6c-0.5,0.2-1,0.3-1.6,0.4c-0.5,0.1-1,0.2-1.6,0.2c-1.5,0-2.9-0.3-4.3-0.9
		c-1.2-0.6-2.2-1.5-2.8-2.6c-0.7-1.3-1-2.7-1-4.1V14.5h-3.1v-4h3.1V4.9l5.2-1v6.6h4.1L250.8,14.5z"/>
	<path id="Trazado_2221" class="st0" d="M266.4,33V10.3h3.6l0.9,2.7c0.9-0.7,1.8-1.3,2.7-1.8c0.9-0.5,1.9-0.9,2.9-1.2
		c0.9-0.3,1.8-0.4,2.7-0.4c1.5-0.1,2.9,0.3,4.2,1c1.1,0.7,1.9,1.7,2.3,2.9c0.5,1.4,0.8,2.9,0.7,4.4V33h-5.2V18.7
		c0-0.9-0.1-1.7-0.3-2.5c-0.2-0.6-0.5-1.2-1-1.6c-0.6-0.4-1.2-0.6-1.9-0.6c-0.7,0-1.4,0.2-2.1,0.4c-0.7,0.3-1.4,0.7-2.1,1.2
		c-0.7,0.5-1.4,1-2,1.5V33L266.4,33z M285.3,13c0.9-0.7,1.8-1.3,2.8-1.8c0.9-0.5,1.9-0.9,2.9-1.2c0.9-0.3,1.8-0.4,2.7-0.4
		c1.5-0.1,2.9,0.3,4.2,1c1.1,0.7,1.9,1.7,2.3,2.9c0.5,1.4,0.8,2.9,0.7,4.4V33h-5.2V18.7c0-0.9-0.1-1.7-0.3-2.5
		c-0.2-0.6-0.5-1.2-1-1.6c-0.5-0.4-1.2-0.6-1.9-0.6c-0.7,0-1.5,0.2-2.1,0.4c-0.7,0.3-1.5,0.7-2.1,1.2c-0.7,0.5-1.4,1-2,1.5L285.3,13
		z"/>
	<path id="Trazado_2222" class="st0" d="M310.2,23c0.1,1.1,0.5,2.2,1,3.2c0.5,0.9,1.3,1.7,2.3,2.1c1.2,0.6,2.6,0.9,4,0.8
		c1.2,0,2.4-0.2,3.5-0.5c1.1-0.4,2.2-0.9,3.2-1.5l1.5,3.8c-0.7,0.5-1.5,1-2.3,1.4c-0.9,0.4-1.8,0.8-2.8,1c-1.1,0.2-2.2,0.3-3.2,0.3
		c-2.4,0.1-4.8-0.4-7-1.5c-1.8-0.9-3.3-2.4-4.2-4.2c-1-1.9-1.4-4.1-1.4-6.2c0-2.2,0.4-4.3,1.3-6.3c0.8-1.7,2.2-3.2,3.8-4.2
		c1.8-1,3.9-1.6,6-1.5c2.1-0.1,4.1,0.5,5.8,1.7c1.5,1.1,2.6,2.7,3.3,4.4c0.7,1.9,1.1,4,1,6V23L310.2,23z M320.8,19.5
		c-0.1-1-0.4-2-0.9-2.9c-0.4-0.7-1-1.3-1.8-1.8c-0.8-0.4-1.7-0.6-2.5-0.6c-0.9,0-1.8,0.2-2.6,0.6c-0.8,0.4-1.4,1-1.8,1.8
		c-0.5,0.9-0.8,1.9-0.9,2.9L320.8,19.5z"/>
	<path id="Trazado_2223" class="st0" d="M329.8,33V10.3h3.6l0.9,2.7c0.9-0.7,1.8-1.3,2.8-1.8c0.9-0.5,2-0.9,3-1.2
		c1-0.3,1.9-0.4,2.9-0.4c1.6-0.1,3.1,0.3,4.4,1.1c1.1,0.8,1.9,1.9,2.3,3.1c0.5,1.5,0.7,3,0.7,4.5V33h-5.2V18.7
		c0.1-1.2-0.2-2.4-0.8-3.5c-0.6-0.9-1.6-1.4-2.7-1.3c-0.8,0-1.6,0.2-2.3,0.4c-0.8,0.3-1.5,0.7-2.2,1.2c-0.7,0.5-1.4,1-2.1,1.5V33
		L329.8,33z"/>
	<path id="Trazado_2224" class="st0" d="M356.1,27.8c0.7,0.3,1.4,0.6,2.1,0.8c0.7,0.2,1.3,0.4,2,0.5c0.6,0.1,1.3,0.2,2,0.2
		c0.7,0,1.4-0.1,2.1-0.3c0.6-0.2,1.1-0.5,1.6-0.9c0.4-0.3,0.6-0.8,0.6-1.3c0-0.5-0.2-1-0.6-1.4c-0.5-0.5-1-0.9-1.6-1.2
		c-0.8-0.4-1.6-0.7-2.4-1c-1.2-0.4-2.4-0.9-3.5-1.5c-1.1-0.5-2.1-1.3-2.9-2.2c-0.8-0.9-1.2-2-1.1-3.2c-0.1-1.9,0.8-3.8,2.4-5
		c1.9-1.3,4.1-1.9,6.4-1.8c0.8,0,1.6,0.1,2.3,0.3c0.9,0.2,1.8,0.4,2.7,0.7c0.9,0.3,1.7,0.7,2.5,1.2l-1.6,3.6
		c-0.9-0.4-1.9-0.8-2.9-1.1c-1-0.3-2-0.5-3.1-0.4c-0.9,0-1.8,0.2-2.5,0.7c-0.6,0.4-1,1-1,1.7c0,0.6,0.4,1.2,1.3,1.6
		c0.9,0.5,1.9,0.9,2.9,1.2c1.3,0.4,2.5,1,3.6,1.7c1.1,0.7,2.1,1.5,2.9,2.5c0.8,0.9,1.2,2.1,1.2,3.3c0.1,2-0.8,3.9-2.4,5.1
		c-1.6,1.2-3.9,1.8-7,1.8c-0.8,0-1.6-0.1-2.3-0.2c-1-0.2-1.9-0.4-2.8-0.7c-0.9-0.3-1.7-0.7-2.5-1.2L356.1,27.8z"/>
	<path id="Trazado_2225" class="st0" d="M395.9,10.3V33h-3.5l-0.9-2.7c-0.8,0.7-1.8,1.3-2.7,1.8c-1,0.5-2,0.9-3,1.2
		c-0.9,0.3-1.9,0.4-2.9,0.4c-1.6,0.1-3.2-0.3-4.5-1.1c-1.1-0.8-1.9-1.9-2.3-3.1c-0.5-1.5-0.7-3-0.7-4.5V10.3h5.2v14.2
		c-0.1,1.2,0.2,2.4,0.8,3.5c0.6,0.9,1.6,1.3,2.7,1.3c0.8,0,1.6-0.1,2.4-0.4c0.8-0.3,1.5-0.7,2.2-1.2c0.7-0.5,1.4-1,2-1.5V10.3
		L395.9,10.3z"/>
	<path id="Trazado_2226" class="st0" d="M402,11.7c0.7-0.5,1.5-0.8,2.4-1.1c1-0.3,2-0.5,3-0.7c0.8-0.2,1.6-0.2,2.5-0.3
		c1.7,0,3.3,0.3,4.8,1.1c1.4,0.7,2.6,1.7,3.4,2.9c0.8,1.2,1.3,2.7,1.3,4.2V33h-3.6l-0.8-2.3c-0.9,0.8-1.8,1.5-2.9,2
		c-1.1,0.5-2.3,0.8-3.5,0.8c-2.7,0-4.7-0.7-6-2c-1.3-1.4-2.1-3.3-2-5.2c-0.1-2.1,0.8-4,2.4-5.3c1.8-1.3,3.9-1.9,6.1-1.8h5v-0.2
		c0-1.2-0.3-2.3-1-3.3c-0.8-0.9-1.9-1.4-3.1-1.3c-1.2,0-2.4,0.2-3.5,0.5c-1.2,0.3-2.2,0.7-3.1,1L402,11.7z M405.8,27.8
		c0.3,0.5,0.7,0.9,1.1,1.1c0.6,0.3,1.2,0.4,1.8,0.4c1,0,2-0.2,2.9-0.7c1-0.5,1.8-1.1,2.6-1.9v-4h-5c-1.1-0.1-2.1,0.3-2.8,1.1
		c-0.6,0.7-0.9,1.6-0.9,2.5C405.4,26.9,405.5,27.4,405.8,27.8L405.8,27.8z"/>
	<path id="Trazado_2227" class="st0" d="M425.1,33V0.5l5.2-0.5v33L425.1,33z"/>
</g>
<g id="Grupo_1455" transform="translate(0 302.085)">
	<g id="Grupo_1454">
		<path id="Trazado_2228" class="st1" d="M67.8,66H42v32.3l-15.1-0.6V66H1.1L0,53.8h26.9V22.9L42,23.3v30.4h24.5L67.8,66z"/>
		<path id="Trazado_2229" class="st1" d="M114.4,68.7l2.3-50.4h50.8l-1.7,13.1h-35.3l-1,20.8c1.8-1.1,3.8-2,5.8-2.4
			c2-0.5,4.1-0.7,6.1-0.7c7,0,12.8,1.4,17.4,4.1c4.4,2.5,8,6.3,10.4,10.8c2.3,4.5,3.5,9.5,3.5,14.6c0.1,5.6-1.3,11.2-4.2,16.1
			c-2.9,4.7-7,8.5-11.9,11c-5.1,2.7-11.3,4.1-18.5,4.1c-3.6,0-7.1-0.4-10.6-1.2c-3.4-0.8-6.8-1.8-10.1-3.1c-3-1.2-6-2.6-8.9-4.2
			l7.8-11.1c3.4,1.9,6.9,3.5,10.6,4.7c3.8,1.1,7.7,1.6,11.6,1.6c5.7,0,10.3-1.6,13.8-4.8c3.5-3.2,5.3-7.5,5.3-13
			c0-5.2-1.4-9.3-4.3-12.2c-3-2.9-7-4.5-11.2-4.3c-3.1-0.1-6.1,0.7-8.7,2.3c-1.9,1.1-3.6,2.6-4.8,4.4L114.4,68.7z"/>
		<path id="Trazado_2230" class="st1" d="M185.6,36.8c10.5-19,34.4-25.9,53.4-15.4c0.3,0.1,0.5,0.3,0.8,0.4
			c5.8,3.5,10.5,8.6,13.7,14.6c3.4,6.6,5.1,14,4.9,21.4c0.1,7.6-1.6,15.2-5,22c-3.1,6.2-7.9,11.5-13.7,15.2c-6,3.8-13,5.7-20.1,5.5
			c-7.1,0.1-14-1.8-20.1-5.5c-5.9-3.7-10.7-8.9-13.8-15.1c-3.4-6.8-5.1-14.3-5-21.8C180.5,50.8,182.2,43.4,185.6,36.8z M198.6,72.7
			c1.9,4.2,4.9,7.8,8.6,10.4c3.7,2.5,8,3.8,12.4,3.8c4.4,0.1,8.7-1.2,12.4-3.6c3.7-2.5,6.7-6,8.5-10.1c2.1-4.6,3.2-9.5,3.1-14.6
			c0.1-5.1-1-10.1-3.1-14.7c-1.9-4.1-4.9-7.6-8.6-10.2c-7.5-4.9-17.3-4.9-24.8-0.1c-3.7,2.5-6.6,5.9-8.5,9.8
			c-2.2,4.4-3.2,9.3-3.1,14.3C195.3,62.9,196.4,68,198.6,72.7L198.6,72.7z"/>
		<path id="Trazado_2231" class="st1" d="M364.7,98.9l-31.6-42.4L323,66.8v32h-15.9V2.1H323v42.7L366,0l11.8,9.1l-33.8,35.7l40.4,54
			L364.7,98.9z"/>
	</g>
</g>
<g id="Grupo_1589" transform="translate(15.332 145.194)">
	<path id="Trazado_2498" class="st2" d="M25.7,123.4c7.9,0,11.6-3.6,11.6-11.2c0-8.4,0.1-16.8,0-25.2c-0.2-1.8,0.8-3.5,2.5-4
		c5.7-2.5,8.5-7,8.5-13.3c0-8.9,0.1-17.8,0-26.7c-0.1-7.9-5.3-13-13.3-13c0,0-21.8-0.2-21.5,0c-8,0-13.2,5.1-13.3,13
		c-0.1,8.9,0,17.8,0,26.7C0,76,2.8,80.5,8.5,83c1.7,0.5,2.8,2.2,2.5,4c-0.1,8.4-0.1,16.8,0,25.2c0,7.7,3.7,11.2,11.6,11.2H25.7z"/>
	<path id="Trazado_2499" class="st2" d="M23.7,26.5c-7.2-0.1-13-6-12.9-13.2c0-0.1,0-0.3,0-0.4C11.1,5.6,17-0.1,24.2,0
		c7.3,0,13.2,6,13.2,13.4s-6,13.2-13.4,13.2C24,26.5,23.8,26.5,23.7,26.5L23.7,26.5z"/>
</g>
<g id="Grupo_1590" transform="translate(79.921 145.194)">
	<path id="Trazado_2500" class="st2" d="M25.7,123.4c7.9,0,11.6-3.6,11.6-11.2c0-8.4,0.1-16.8,0-25.2c-0.2-1.8,0.8-3.5,2.5-4
		c5.6-2.5,8.5-7,8.5-13.3c0-8.9,0.1-17.8,0-26.7c-0.1-7.9-5.3-13-13.3-13c0,0-21.8-0.2-21.5,0c-8,0-13.2,5.1-13.3,13
		c-0.1,8.9,0,17.8,0,26.7C0,76,2.8,80.5,8.5,83c1.7,0.5,2.8,2.2,2.5,4c-0.1,8.4-0.1,16.8,0,25.2c0,7.7,3.7,11.2,11.6,11.2H25.7z"/>
	<path id="Trazado_2501" class="st2" d="M23.7,26.5c-7.2-0.1-13-6-12.9-13.2c0-0.1,0-0.3,0-0.4C11.1,5.6,17-0.1,24.2,0
		c7.3,0,13.2,6,13.2,13.4s-6,13.2-13.4,13.2C24,26.5,23.8,26.5,23.7,26.5L23.7,26.5z"/>
</g>
<g id="Grupo_1591" transform="translate(144.511 145.194)">
	<path id="Trazado_2502" class="st2" d="M25.7,123.4c7.9,0,11.6-3.6,11.6-11.2c0-8.4,0.1-16.8,0-25.2c-0.2-1.8,0.8-3.5,2.5-4
		c5.6-2.5,8.5-7,8.5-13.3c0-8.9,0.1-17.8,0-26.7c-0.1-7.9-5.3-13-13.3-13c0,0-21.8-0.2-21.5,0C5.4,30,0.2,35.1,0,43
		c-0.1,8.9,0,17.8,0,26.7C0,76,2.8,80.5,8.5,83c1.7,0.5,2.8,2.2,2.5,4c-0.1,8.4-0.1,16.8,0,25.2c0,7.7,3.7,11.2,11.6,11.2H25.7z"/>
	<path id="Trazado_2503" class="st2" d="M23.7,26.5c-7.2-0.1-13-6-12.9-13.2c0-0.1,0-0.3,0-0.4C11.1,5.6,17-0.1,24.2,0
		c7.3,0,13.2,6,13.2,13.4c0,7.3-6,13.2-13.4,13.2C24,26.5,23.8,26.5,23.7,26.5L23.7,26.5z"/>
</g>
<g id="Grupo_1592" transform="translate(209.101 145.194)">
	<path id="Trazado_2504" class="st2" d="M25.7,123.4c7.9,0,11.6-3.6,11.6-11.2c0-8.4,0.1-16.8,0-25.2c-0.2-1.8,0.8-3.5,2.5-4
		c5.6-2.5,8.5-7,8.5-13.3c0-8.9,0.1-17.8,0-26.7c-0.1-7.9-5.3-13-13.3-13c0,0-21.8-0.2-21.5,0c-8,0-13.2,5.1-13.3,13
		c-0.1,8.9,0,17.8,0,26.7C0,76,2.9,80.5,8.5,83c1.7,0.5,2.8,2.2,2.5,4c-0.1,8.4-0.1,16.8,0,25.2c0,7.7,3.7,11.2,11.6,11.2H25.7z"/>
	<path id="Trazado_2505" class="st2" d="M23.7,26.5c-7.2-0.1-13-6-12.9-13.2c0-0.1,0-0.3,0-0.4C11.1,5.6,17-0.1,24.2,0
		c7.3,0,13.2,6,13.2,13.4c0,7.3-6,13.2-13.4,13.2C24,26.5,23.8,26.5,23.7,26.5L23.7,26.5z"/>
</g>
<g id="Grupo_1593" transform="translate(15.972)">
	<path id="Trazado_2506" class="st2" d="M25.7,123.4c7.9,0,11.6-3.6,11.6-11.2c0-8.4,0.1-16.8,0-25.2c-0.2-1.8,0.8-3.5,2.5-4
		c5.7-2.5,8.5-7,8.5-13.3c0-8.9,0.1-17.8,0-26.7c-0.1-7.9-5.3-13-13.3-13c0,0-21.8-0.2-21.5,0c-8,0-13.2,5.1-13.3,13
		c-0.1,8.9,0,17.8,0,26.7C0,76,2.8,80.5,8.5,83c1.7,0.5,2.8,2.2,2.5,4c-0.1,8.4-0.1,16.8,0,25.2c0,7.7,3.7,11.2,11.6,11.2H25.7z"/>
	<path id="Trazado_2507" class="st2" d="M23.7,26.5c-7.2-0.1-13-6-12.9-13.2c0-0.1,0-0.3,0-0.4C11.1,5.6,17-0.1,24.2,0
		c7.3,0,13.2,6,13.2,13.4s-6,13.2-13.4,13.2C24,26.5,23.8,26.5,23.7,26.5L23.7,26.5z"/>
</g>
<g id="Grupo_1594" transform="translate(80.561)">
	<path id="Trazado_2508" class="st2" d="M25.7,123.4c7.9,0,11.6-3.6,11.6-11.2c0-8.4,0.1-16.8,0-25.2c-0.2-1.8,0.8-3.5,2.5-4
		c5.6-2.5,8.5-7,8.5-13.3c0-8.9,0.1-17.8,0-26.7c-0.1-7.9-5.3-13-13.3-13c0,0-21.8-0.2-21.5,0c-8,0-13.2,5.1-13.3,13
		c-0.1,8.9,0,17.8,0,26.7C0,76,2.8,80.5,8.5,83c1.7,0.5,2.8,2.2,2.5,4c-0.1,8.4-0.1,16.8,0,25.2c0,7.7,3.7,11.2,11.6,11.2H25.7z"/>
	<path id="Trazado_2509" class="st2" d="M23.7,26.5c-7.2-0.1-13-6-12.9-13.2c0-0.1,0-0.3,0-0.4C11.1,5.6,17-0.1,24.2,0
		c7.3,0,13.2,6,13.2,13.4c0,7.3-6,13.2-13.4,13.2C24,26.5,23.8,26.5,23.7,26.5L23.7,26.5z"/>
</g>
<g id="Grupo_1595" transform="translate(145.151)">
	<path id="Trazado_2510" class="st2" d="M25.7,123.4c7.9,0,11.6-3.6,11.6-11.2c0-8.4,0.1-16.8,0-25.2c-0.2-1.8,0.8-3.5,2.5-4
		c5.6-2.5,8.5-7,8.5-13.3c0-8.9,0.1-17.8,0-26.7c-0.1-7.9-5.3-13-13.3-13c0,0-21.8-0.2-21.5,0c-8,0-13.2,5.1-13.3,13
		c-0.1,8.9,0,17.8,0,26.7C0,76,2.8,80.5,8.5,83c1.7,0.5,2.8,2.2,2.5,4c-0.1,8.4-0.1,16.8,0,25.2c0,7.7,3.7,11.2,11.6,11.2H25.7z"/>
	<path id="Trazado_2511" class="st2" d="M23.7,26.5c-7.2-0.1-13-6-12.9-13.2c0-0.1,0-0.3,0-0.4C11.1,5.6,17-0.1,24.2,0
		c7.3,0,13.2,6,13.2,13.4s-6,13.2-13.4,13.2C24,26.5,23.8,26.5,23.7,26.5L23.7,26.5z"/>
</g>
<g id="Grupo_1596" transform="translate(209.741)">
	<path id="Trazado_2512" class="st2" d="M25.7,123.4c7.9,0,11.6-3.6,11.6-11.2c0-8.4,0.1-16.8,0-25.2c-0.2-1.8,0.8-3.5,2.5-4
		c5.6-2.5,8.5-7,8.5-13.3c0-8.9,0.1-17.8,0-26.7c-0.1-7.9-5.3-13-13.3-13c0,0-21.8-0.2-21.5,0c-8,0-13.2,5.1-13.3,13
		c-0.1,8.9,0,17.8,0,26.7C0,76,2.8,80.5,8.5,83c1.7,0.5,2.8,2.2,2.5,4c-0.1,8.4-0.1,16.8,0,25.2c0,7.7,3.7,11.2,11.6,11.2H25.7z"/>
	<path id="Trazado_2513" class="st2" d="M23.7,26.5c-7.2-0.1-13-6-12.9-13.2c0-0.1,0-0.3,0-0.4C11.1,5.6,17-0.1,24.2,0
		c7.3,0,13.2,6,13.2,13.4c0,7.3-6,13.2-13.4,13.2C24,26.5,23.8,26.5,23.7,26.5L23.7,26.5z"/>
</g>
<g id="Grupo_1597" transform="translate(269.598 145.194)">
	<path id="Trazado_2514" class="st2" d="M25.7,123.4c7.9,0,11.6-3.6,11.6-11.2c0-8.4,0.1-16.8,0-25.2c-0.2-1.8,0.8-3.5,2.5-4
		c5.6-2.5,8.5-7,8.5-13.3c0-8.9,0.1-17.8,0-26.7c-0.1-7.9-5.3-13-13.3-13c0,0-21.8-0.2-21.5,0c-8,0-13.2,5.1-13.3,13
		c-0.1,8.9,0,17.8,0,26.7C0,76,2.8,80.5,8.5,83c1.7,0.5,2.8,2.2,2.5,4c-0.1,8.4-0.1,16.8,0,25.2c0,7.7,3.7,11.2,11.6,11.2H25.7z"/>
	<path id="Trazado_2515" class="st2" d="M23.7,26.5c-7.2-0.1-13-6-12.9-13.2c0-0.1,0-0.3,0-0.4C11.1,5.6,17-0.1,24.2,0
		c7.3,0,13.2,6,13.2,13.4c0,7.3-6,13.2-13.4,13.2C24,26.5,23.8,26.5,23.7,26.5L23.7,26.5z"/>
</g>
<g id="Grupo_1598" transform="translate(270.238)">
	<path id="Trazado_2516" class="st2" d="M25.7,123.4c7.9,0,11.6-3.6,11.6-11.2c0-8.4,0.1-16.8,0-25.2c-0.2-1.8,0.8-3.5,2.5-4
		c5.6-2.5,8.5-7,8.5-13.3c0-8.9,0.1-17.8,0-26.7c-0.1-7.9-5.3-13-13.3-13c0,0-21.8-0.2-21.5,0c-8,0-13.2,5.1-13.3,13
		c-0.1,8.9,0,17.8,0,26.7C0,76,2.8,80.5,8.5,83c1.7,0.5,2.8,2.2,2.5,4c-0.1,8.4-0.1,16.8,0,25.2c0,7.7,3.7,11.2,11.6,11.2H25.7z"/>
	<path id="Trazado_2517" class="st2" d="M23.7,26.5c-7.2-0.1-13-6-12.9-13.2c0-0.1,0-0.3,0-0.4C11.1,5.6,17-0.1,24.2,0
		c7.3,0,13.2,6,13.2,13.4c0,7.3-6,13.2-13.4,13.2C24,26.5,23.8,26.5,23.7,26.5L23.7,26.5z"/>
</g>
<g id="Grupo_1599" transform="translate(337.263 145.194)">
	<path id="Trazado_2518" class="st3" d="M25.7,123.4c7.9,0,11.6-3.6,11.6-11.2c0-8.4,0.1-16.8,0-25.2c-0.2-1.8,0.8-3.5,2.5-4
		c5.6-2.5,8.5-7,8.5-13.3c0-8.9,0.1-17.8,0-26.7c-0.1-7.9-5.3-13-13.3-13c0,0-21.8-0.2-21.5,0c-8,0-13.2,5.1-13.3,13
		c-0.1,8.9,0,17.8,0,26.7C0,76,2.8,80.5,8.5,83c1.7,0.5,2.8,2.2,2.5,4c-0.1,8.4-0.1,16.8,0,25.2c0,7.7,3.7,11.2,11.6,11.2H25.7z"/>
	<path id="Trazado_2519" class="st3" d="M23.7,26.5c-7.2-0.1-13-6-12.9-13.2c0-0.1,0-0.3,0-0.4C11.1,5.6,17-0.1,24.2,0
		c7.3,0,13.2,6,13.2,13.4c0,7.3-6,13.2-13.4,13.2C24,26.5,23.8,26.5,23.7,26.5L23.7,26.5z"/>
</g>
<g id="Grupo_1600" transform="translate(337.903)">
	<path id="Trazado_2520" class="st3" d="M25.7,123.4c7.9,0,11.6-3.6,11.6-11.2c0-8.4,0.1-16.8,0-25.2c-0.2-1.8,0.8-3.5,2.5-4
		c5.6-2.5,8.5-7,8.5-13.3c0-8.9,0.1-17.8,0-26.7c-0.1-7.9-5.3-13-13.3-13c0,0-21.8-0.2-21.5,0c-8,0-13.2,5.1-13.3,13
		c-0.1,8.9,0,17.8,0,26.7C0,76,2.8,80.5,8.5,83c1.7,0.5,2.8,2.2,2.5,4c-0.1,8.4-0.1,16.8,0,25.2c0,7.7,3.7,11.2,11.6,11.2H25.7z"/>
	<path id="Trazado_2521" class="st3" d="M23.7,26.5c-7.2-0.1-13-6-12.9-13.2c0-0.1,0-0.3,0-0.4C11.1,5.6,17-0.1,24.2,0
		c7.3,0,13.2,6,13.2,13.4s-6,13.2-13.4,13.2C24,26.5,23.8,26.5,23.7,26.5L23.7,26.5z"/>
</g>
</svg>
