<?xml version="1.0" encoding="utf-8"?>
<!-- Generator: Adobe Illustrator 24.3.0, SVG Export Plug-In . SVG Version: 6.00 Build 0)  -->
<svg version="1.1" id="Capa_1" xmlns="http://www.w3.org/2000/svg" xmlns:xlink="http://www.w3.org/1999/xlink" x="0px" y="0px"
	 viewBox="0 0 613.6 588.8" style="enable-background:new 0 0 613.6 588.8;" xml:space="preserve">
<style type="text/css">
	.st0{fill:#3B5998;}
	.st1{fill:#E6007E;}
	.st2{fill:#0088E0;}
	.st3{fill:#FFFFFF;}
</style>
<g id="Grupo_1396" transform="translate(158.784 14.898)">
	<path id="Trazado_2032" class="st0" d="M55.4,40.5H36.1v23.3l-16.1-0.7V40.5H1.1L0,27h19.9V5.2l16.1,0.2V27h18.3L55.4,40.5z"/>
	<path id="Trazado_2033" class="st0" d="M144.7,57.7h-10.1v13.6h-17.4V57.7H86.5l-2.1-13.3l37.2-43.6h13v43h11.2L144.7,57.7z
		 M104.1,43.9h13.2V27.5L104.1,43.9z"/>
	<path id="Trazado_2034" class="st0" d="M154.8,15.8c2.7-4.9,6.8-8.9,11.7-11.6c5.3-2.9,11.2-4.3,17.1-4.2c5.9-0.1,11.8,1.3,17,4.2
		c4.8,2.7,8.9,6.7,11.7,11.4c2.9,5.1,4.4,10.8,4.3,16.6c0.1,6-1.4,11.9-4.3,17.1c-2.8,4.9-6.8,9-11.7,11.8
		c-5.2,2.9-11.2,4.4-17.2,4.3c-5.9,0.1-11.8-1.4-16.9-4.3c-4.9-2.8-9-6.8-11.7-11.7C149.2,39,149.2,26.4,154.8,15.8L154.8,15.8z
		 M169.8,42c1.2,2.7,3.2,5,5.6,6.7c2.4,1.6,5.3,2.4,8.2,2.4c3,0.1,5.9-0.8,8.4-2.4c2.4-1.6,4.4-3.8,5.6-6.5c2.7-6,2.7-12.9-0.1-18.9
		c-1.3-2.6-3.3-4.9-5.7-6.5c-2.5-1.6-5.5-2.4-8.5-2.4c-2.9,0-5.7,0.8-8.1,2.3c-2.4,1.5-4.4,3.7-5.6,6.2c-1.4,2.9-2.1,6-2,9.2
		C167.7,35.7,168.4,39,169.8,42L169.8,42z"/>
	<path id="Trazado_2035" class="st0" d="M238.2,50.9c1.9,2.1,2.8,4.9,2.7,7.7c0,3-0.7,5.9-2,8.6c-3,6.1-7.9,10.9-14,13.8l-3.5-8
		c1.5-1,2.8-2.2,4.1-3.4c1.2-1.2,2.1-2.7,2.4-4.3c-1-0.4-1.8-1-2.6-1.7c-0.9-0.8-1.5-1.8-1.9-3c-0.4-1.2-0.7-2.4-0.7-3.6
		c0-1.5,0.4-3.1,1.1-4.4c0.7-1.4,1.9-2.6,3.2-3.4C230.6,46.9,235.3,47.6,238.2,50.9L238.2,50.9z"/>
	<path id="Trazado_2036" class="st0" d="M250.9,15.8c2.7-4.9,6.8-8.9,11.7-11.6c5.3-2.9,11.2-4.3,17.1-4.2c5.9-0.1,11.8,1.3,17,4.2
		c4.8,2.7,8.9,6.7,11.7,11.4c2.9,5.1,4.4,10.8,4.3,16.6c0.1,6-1.4,11.9-4.3,17.1c-2.8,4.9-6.8,9-11.7,11.8
		c-5.2,2.9-11.2,4.4-17.2,4.3c-5.9,0.1-11.8-1.4-16.9-4.3c-4.9-2.8-9-6.8-11.7-11.7C245.3,39,245.3,26.4,250.9,15.8L250.9,15.8z
		 M265.9,42c1.2,2.7,3.2,5,5.6,6.7c2.4,1.6,5.3,2.4,8.2,2.4c3,0.1,5.9-0.8,8.4-2.4c2.4-1.6,4.4-3.8,5.6-6.5c2.7-6,2.7-12.9-0.1-18.9
		c-1.3-2.6-3.3-4.9-5.7-6.5c-2.5-1.6-5.5-2.4-8.5-2.4c-2.9,0-5.7,0.8-8.1,2.3c-2.4,1.5-4.4,3.7-5.6,6.2c-1.4,2.9-2.1,6-2,9.2
		C263.8,35.7,264.5,39,265.9,42L265.9,42z"/>
	<path id="Trazado_2037" class="st0" d="M321.9,15.8c2.7-4.9,6.8-8.9,11.7-11.6c5.3-2.9,11.2-4.3,17.1-4.2c5.9-0.1,11.8,1.3,17,4.2
		c4.8,2.7,8.9,6.7,11.7,11.4c2.9,5.1,4.4,10.8,4.3,16.6c0.1,6-1.4,11.9-4.3,17.1c-2.8,4.9-6.8,9-11.7,11.8
		c-5.2,2.9-11.2,4.4-17.2,4.3c-5.9,0.1-11.8-1.4-16.9-4.3c-4.9-2.8-9-6.8-11.7-11.7C316.3,39,316.3,26.4,321.9,15.8L321.9,15.8z
		 M336.9,42c1.2,2.7,3.2,5,5.6,6.7c2.4,1.6,5.3,2.4,8.2,2.4c3,0.1,5.9-0.8,8.3-2.4c2.4-1.6,4.4-3.8,5.6-6.5c2.7-6,2.7-12.9-0.1-18.9
		c-1.3-2.6-3.3-4.9-5.7-6.5c-2.5-1.6-5.5-2.4-8.5-2.4c-2.9,0-5.7,0.8-8.1,2.3c-2.4,1.5-4.4,3.7-5.6,6.2c-1.4,2.9-2.1,6-2,9.2
		C334.8,35.7,335.5,39,336.9,42L336.9,42z"/>
	<path id="Trazado_2038" class="st0" d="M393,15.8c2.7-4.9,6.8-8.9,11.7-11.6c5.3-2.9,11.2-4.3,17.1-4.2c5.9-0.1,11.8,1.3,17,4.2
		c4.8,2.7,8.9,6.7,11.7,11.4c2.9,5.1,4.4,10.8,4.3,16.6c0.1,6-1.4,11.9-4.3,17.1c-2.8,4.9-6.8,9-11.7,11.8
		c-5.2,2.9-11.2,4.4-17.2,4.3c-5.9,0.1-11.8-1.4-16.9-4.3c-4.9-2.8-9-6.8-11.7-11.7C387.3,39,387.3,26.4,393,15.8L393,15.8z
		 M407.9,42c1.2,2.7,3.2,5,5.6,6.7c2.4,1.6,5.3,2.4,8.2,2.4c3,0.1,5.9-0.8,8.3-2.4c2.4-1.6,4.4-3.8,5.6-6.5c2.7-6,2.7-12.9-0.1-18.9
		c-1.3-2.6-3.3-4.9-5.7-6.5c-2.5-1.6-5.5-2.4-8.5-2.4c-2.9,0-5.7,0.8-8.1,2.3c-2.4,1.5-4.4,3.7-5.6,6.2c-1.4,2.9-2.1,6-2,9.2
		C405.8,35.7,406.5,39,407.9,42L407.9,42z"/>
</g>
<g id="Grupo_1397" transform="translate(158.5 103.933)">
	<path id="Trazado_2039" class="st0" d="M3.1,33.3c0.9,0.5,1.8,0.9,2.8,1.2c1.1,0.4,2.3,0.8,3.5,1c1.2,0.2,2.3,0.4,3.5,0.4
		c1.2,0,2.3-0.1,3.4-0.5c0.8-0.2,1.5-0.7,2-1.3c0.5-0.5,0.7-1.2,0.7-1.8c0-0.8-0.4-1.5-1-2c-0.8-0.7-1.7-1.3-2.6-1.8
		c-1.1-0.6-2.1-1.2-3.3-1.9c-1.3-0.8-2.7-1.7-4.2-2.6c-1.4-0.9-2.7-1.9-3.9-3c-1.2-1-2.1-2.3-2.9-3.7C0.4,16.1,0,14.5,0,13
		C0,11,0.6,8.9,1.7,7.2c1.2-1.8,3-3.2,5-4c2.5-1,5.1-1.5,7.8-1.4c2.1,0,4.1,0.3,6.1,0.9C22.5,3.2,24.3,4,26,5l-2.9,6.8
		c-1.1-0.5-2.2-0.9-3.1-1.2c-0.9-0.3-1.8-0.5-2.7-0.7c-0.9-0.2-1.9-0.2-2.9-0.2c-1.3-0.1-2.5,0.3-3.6,1C10.1,11.1,9.6,12,9.6,13
		c0,0.8,0.4,1.6,1,2.1c0.8,0.7,1.6,1.3,2.6,1.8c1.1,0.5,2.2,1.2,3.3,1.9c1.5,0.8,2.9,1.7,4.3,2.6c1.4,0.9,2.7,1.8,3.9,2.9
		c1.1,1,2.1,2.2,2.9,3.6c0.7,1.4,1.1,2.9,1.1,4.5c0,2.1-0.6,4.1-1.8,5.9c-1.4,1.8-3.2,3.2-5.3,4.1c-2.7,1.1-5.5,1.6-8.4,1.5
		c-1.1,0-2.1-0.1-3.1-0.3c-1.1-0.2-2.3-0.4-3.5-0.7c-1.1-0.3-2.2-0.6-3.3-1c-0.9-0.3-1.8-0.8-2.6-1.2L3.1,33.3z"/>
	<path id="Trazado_2040" class="st0" d="M41.4,31.2c0.2,1,0.6,1.9,1.2,2.7c0.7,0.8,1.5,1.3,2.4,1.7c1.2,0.5,2.6,0.7,3.9,0.7
		c1.5,0,3.1-0.2,4.5-0.7c1.2-0.4,2.4-1,3.6-1.6l2.7,6.5c-0.9,0.7-1.9,1.3-3,1.7c-1.3,0.5-2.6,0.9-3.9,1.2c-1.5,0.3-3.1,0.5-4.6,0.4
		c-3.1,0.1-6.2-0.5-9.1-1.8c-2.4-1.1-4.5-2.9-5.8-5.2c-1.4-2.4-2.1-5.2-2-8c-0.1-2.9,0.6-5.7,1.9-8.2c1.2-2.2,3.1-4.1,5.3-5.3
		c2.4-1.3,5.1-1.9,7.8-1.9c2.7-0.1,5.3,0.6,7.5,2.1c2,1.4,3.5,3.3,4.5,5.5c1,2.4,1.5,4.9,1.5,7.5v2.8L41.4,31.2z M50.9,25.8
		c-0.1-0.9-0.3-1.7-0.7-2.5c-0.4-0.7-1-1.3-1.6-1.8C47.8,21.2,47,21,46.1,21c-0.8,0-1.6,0.2-2.3,0.6c-0.7,0.4-1.3,1-1.7,1.7
		c-0.4,0.8-0.7,1.7-0.9,2.6H50.9z"/>
	<path id="Trazado_2041" class="st0" d="M87.6,38.4c-0.8,1-1.8,1.9-2.9,2.7c-1.1,0.8-2.3,1.5-3.6,2c-1.3,0.5-2.7,0.8-4.1,0.7
		c-2.7,0.1-5.3-0.5-7.6-1.8c-2.2-1.2-4-2.9-5.1-5.1c-1.3-2.5-1.9-5.4-1.8-8.2c-0.1-2.9,0.5-5.7,1.8-8.3c1.2-2.2,3-4,5.2-5.2
		c2.5-1.3,5.2-1.9,8-1.8c1.3,0,2.5,0.2,3.7,0.7c1.3,0.4,2.5,1.1,3.5,1.8c1.1,0.8,2.1,1.8,2.9,2.9L85,24.5c-1.1-1.1-2.3-2-3.7-2.8
		c-1.1-0.6-2.3-0.9-3.5-0.9c-1.1,0-2.2,0.3-3.1,1c-0.9,0.7-1.7,1.6-2.1,2.7c-0.5,1.3-0.7,2.7-0.7,4.1c0,1.4,0.2,2.7,0.7,4
		c0.4,1.1,1.1,2,2,2.7c0.9,0.6,2,1,3.1,1c1.2,0,2.5-0.4,3.5-1c1.3-0.8,2.5-1.8,3.5-2.9L87.6,38.4z M91.7,44.3
		c0.1,2.4-0.6,4.7-1.9,6.6c-1.4,1.9-3.3,3.4-5.4,4.3c-2.6,1.1-5.4,1.6-8.2,1.5c-0.8,0-1.7-0.1-2.5-0.2c-1.1-0.1-2.2-0.3-3.4-0.6
		c-1.2-0.3-2.4-0.6-3.6-1.1c-1-0.4-2-0.9-3-1.5l2.8-6.5c1.6,0.9,3.2,1.5,5,1.9c1.4,0.3,2.8,0.5,4.2,0.5c1.7,0.1,3.4-0.4,4.8-1.4
		c1.2-0.8,2-2.2,1.9-3.7V20.5l4.5-6.2h4.8L91.7,44.3z"/>
	<path id="Trazado_2042" class="st0" d="M127,14.3v28.8h-5.2l-2.3-3.1c-2.3,1.6-4.8,2.7-7.4,3.4c-1.3,0.3-2.6,0.5-4,0.5
		c-2.1,0.1-4.2-0.4-6-1.5c-1.5-1-2.6-2.4-3.2-4.1c-0.7-1.9-1-3.8-1-5.8V14h9.3V32c0,1.1,0.3,2.3,0.9,3.2c0.6,0.8,1.6,1.3,2.7,1.2
		c0.8,0,1.6-0.1,2.4-0.4c0.8-0.3,1.6-0.6,2.4-1c0.8-0.4,1.5-0.8,2-1V14.3L127,14.3z"/>
	<path id="Trazado_2043" class="st0" d="M134.2,8.8c-1-1-1.5-2.3-1.5-3.7c0-2.8,2.3-5.1,5.1-5.1c1.4,0,2.7,0.5,3.7,1.5
		c1,0.9,1.5,2.2,1.5,3.6c0.1,2.8-2.2,5.1-5,5.2c-0.1,0-0.1,0-0.2,0C136.5,10.3,135.2,9.8,134.2,8.8z M133.3,43.1V14.3h9.3v28.8
		H133.3z"/>
	<path id="Trazado_2044" class="st0" d="M172.2,38.4c-0.8,1-1.8,1.9-2.9,2.7c-1.1,0.8-2.3,1.5-3.6,2c-1.3,0.5-2.7,0.8-4.1,0.7
		c-2.7,0.1-5.3-0.5-7.6-1.8c-2.2-1.2-4-2.9-5.1-5.1c-1.3-2.5-1.9-5.4-1.8-8.2c-0.1-2.9,0.5-5.7,1.8-8.3c1.2-2.2,3-4,5.2-5.2
		c2.5-1.3,5.2-1.9,8-1.8c1.3,0,2.5,0.2,3.7,0.7c1.3,0.4,2.5,1.1,3.5,1.8c1.1,0.8,2.1,1.8,2.9,2.9l-2.6,5.7c-1.1-1.1-2.3-2-3.7-2.8
		c-1.1-0.6-2.3-0.9-3.5-0.9c-1.1,0-2.2,0.3-3.1,1c-0.9,0.7-1.7,1.6-2.1,2.7c-0.5,1.3-0.7,2.7-0.7,4.1c0,1.4,0.2,2.7,0.7,4
		c0.4,1.1,1.1,2,2,2.7c0.9,0.6,2,1,3.1,1c1.2,0,2.5-0.4,3.5-1c1.3-0.8,2.5-1.8,3.5-2.9L172.2,38.4z M167,1.8l9.3-0.7v42h-4.8
		l-4.5-6.2L167,1.8z"/>
	<path id="Trazado_2045" class="st0" d="M197,43.8c-2.9,0-5.7-0.6-8.3-1.8c-2.3-1.1-4.2-2.9-5.5-5.1c-1.4-2.5-2.1-5.3-2-8.2
		c-0.1-2.9,0.6-5.7,2-8.2c1.4-2.2,3.3-4,5.6-5.2c2.5-1.3,5.3-1.9,8.1-1.9c2.9-0.1,5.7,0.6,8.3,1.8c2.3,1.2,4.3,3,5.6,5.2
		c1.4,2.5,2.1,5.4,2,8.3c0.1,2.8-0.6,5.7-2.1,8.1c-1.3,2.2-3.3,4-5.7,5.2C202.7,43.2,199.9,43.8,197,43.8z M197,36
		c1.2,0,2.4-0.3,3.4-0.9c1-0.6,1.7-1.5,2.2-2.6c1-2.5,1-5.3,0-7.8c-0.5-1.1-1.2-2-2.2-2.7c-0.9-0.7-2.1-1-3.2-1
		c-1.2,0-2.4,0.3-3.4,1c-1,0.7-1.7,1.6-2.2,2.6c-0.5,1.3-0.8,2.6-0.7,4c0,1.3,0.2,2.6,0.7,3.9c0.4,1.1,1.2,1.9,2.1,2.6
		C194.8,35.7,195.9,36,197,36z"/>
	<path id="Trazado_2046" class="st0" d="M217.5,43.1V14.3h4.7l2.6,4.1c0.9-0.7,1.9-1.3,2.9-1.9c1.1-0.6,2.3-1.2,3.5-1.6
		c1.1-0.4,2.2-0.6,3.4-0.7l1.8,7.4c-1,0-2.1,0.2-3.1,0.5c-1.2,0.4-2.3,0.9-3.4,1.5c-1.1,0.6-2.2,1.3-3.2,2.1v17.3L217.5,43.1z"/>
	<path id="Trazado_2047" class="st0" d="M248.4,31.2c0.2,1,0.6,1.9,1.2,2.7c0.7,0.8,1.5,1.3,2.4,1.7c1.2,0.5,2.6,0.7,3.9,0.7
		c1.5,0,3.1-0.2,4.5-0.7c1.2-0.4,2.4-1,3.6-1.6l2.7,6.5c-0.9,0.7-1.9,1.3-3,1.7c-1.3,0.5-2.6,0.9-3.9,1.2c-1.5,0.3-3.1,0.5-4.6,0.4
		c-3.1,0.1-6.2-0.5-9.1-1.8c-2.4-1.1-4.5-2.9-5.8-5.2c-1.4-2.4-2.1-5.2-2-8c-0.1-2.9,0.6-5.7,1.9-8.2c1.2-2.2,3.1-4.1,5.3-5.3
		c2.4-1.3,5.1-1.9,7.8-1.9c2.7-0.1,5.3,0.6,7.5,2.1c2,1.4,3.5,3.3,4.5,5.5c1,2.4,1.5,4.9,1.5,7.5v2.8L248.4,31.2z M257.9,25.8
		c-0.1-0.9-0.3-1.7-0.7-2.5c-0.4-0.7-1-1.3-1.6-1.8c-0.7-0.5-1.6-0.7-2.4-0.7c-0.8,0-1.6,0.2-2.3,0.6c-0.7,0.4-1.3,1-1.7,1.7
		c-0.4,0.8-0.7,1.7-0.9,2.6H257.9z"/>
	<path id="Trazado_2048" class="st0" d="M272.3,34.6c0.9,0.3,1.8,0.6,2.7,1c0.9,0.3,1.8,0.6,2.7,0.7c0.8,0.2,1.6,0.3,2.4,0.3
		c0.6,0,1.1-0.1,1.7-0.2c0.5-0.1,0.9-0.4,1.3-0.7c0.3-0.2,0.5-0.6,0.5-0.9c0-0.4-0.2-0.8-0.4-1.1c-0.4-0.4-0.8-0.7-1.3-1
		c-0.7-0.3-1.4-0.6-2.1-0.8c-1.6-0.5-3.1-1.2-4.6-2c-1.5-0.7-2.8-1.7-3.8-2.9c-1-1.2-1.6-2.7-1.5-4.3c-0.1-2.6,1.1-5.2,3.2-6.7
		c2.2-1.6,5.1-2.5,8.8-2.5c2.3,0,4.7,0.5,6.9,1.2c1.3,0.4,2.5,1,3.5,1.8l-2.7,6.1c-1.2-0.6-2.5-1-3.8-1.4c-1.2-0.3-2.4-0.5-3.6-0.5
		c-0.8,0-1.6,0.2-2.3,0.6c-0.5,0.2-0.9,0.8-0.9,1.3c0,0.4,0.4,0.9,1.2,1.2c0.8,0.4,1.7,0.8,2.6,1.1c1.6,0.6,3.2,1.3,4.7,2.1
		c1.5,0.8,2.7,1.8,3.8,3.1c1,1.3,1.6,2.9,1.5,4.5c0.1,2.6-1,5.1-3.1,6.8c-2,1.6-5,2.5-9,2.5c-1.1,0-2.2-0.1-3.2-0.3
		c-1.4-0.2-2.8-0.6-4.2-1c-1.3-0.4-2.5-1.1-3.7-1.9L272.3,34.6z"/>
</g>
<g id="Grupo_1399" transform="translate(168.24 453.079)">
	<g id="Grupo_1398">
		<path id="Trazado_2049" class="st1" d="M55.4,47.6H36.1v23.3l-16.1-0.7V47.6H1.1L0,34.1h19.9V12.3l16.1,0.2v21.6h18.2L55.4,47.6z"
			/>
		<path id="Trazado_2050" class="st1" d="M126.3,2.6c3.5,1.5,6.6,4,8.8,7.1c2.1,3,3.2,6.5,3.2,10.2c0,1.8-0.3,3.6-0.9,5.4
			c-0.6,1.7-1.6,3.3-2.8,4.7c-1.2,1.4-2.6,2.6-4.2,3.5c2,1,3.7,2.4,5.3,4c1.6,1.7,3,3.6,3.9,5.8c1,2.1,1.5,4.5,1.4,6.8
			c0,4.1-1.1,8-3.3,11.4c-2.3,3.5-5.6,6.3-9.4,8.1c-4.7,2.1-9.8,3.1-14.9,2.9c-5,0.1-10-0.9-14.7-2.9c-3.9-1.7-7.2-4.4-9.6-8
			c-2.2-3.5-3.4-7.5-3.3-11.6c0-2.4,0.5-4.7,1.5-6.9c1-2.1,2.3-4.1,3.9-5.8c1.4-1.6,3.2-3,5.1-3.9c-2.3-1.5-4.2-3.5-5.6-5.8
			c-1.5-2.3-2.3-5-2.3-7.8c0-3.7,1.1-7.3,3.2-10.3c2.2-3.1,5.3-5.6,8.8-7.1c4.1-1.7,8.5-2.6,12.9-2.5C117.8-0.1,122.2,0.8,126.3,2.6
			z M105.5,43.4c-1.7,1.7-2.6,3.9-2.7,6.2c0,1.6,0.5,3.2,1.5,4.5c1,1.4,2.4,2.4,4,3.2c1.6,0.8,3.4,1.2,5.1,1.2
			c3.5,0,6.9-1.6,9.1-4.3c1-1.3,1.6-2.9,1.6-4.5c-0.1-2.4-1.1-4.6-2.8-6.2c-2.1-2.2-4.9-3.6-8-3.9C110.3,39.8,107.6,41.2,105.5,43.4
			L105.5,43.4z M109.1,15.2c-1.1,0.6-2,1.4-2.7,2.4c-0.6,0.9-0.9,1.9-0.9,2.9c-0.1,1.9,0.6,3.8,1.9,5.1c1.6,1.5,3.7,2.5,5.9,2.6
			c1.6-0.2,3.1-0.6,4.4-1.4c1.1-0.7,2-1.6,2.7-2.7c0.6-1.1,0.9-2.3,0.9-3.6c-0.1-1.7-0.9-3.2-2.2-4.3c-1.6-1.4-3.8-2.2-5.9-2
			C111.8,14.1,110.4,14.5,109.1,15.2z"/>
		<path id="Trazado_2051" class="st1" d="M150.2,22.9c2.7-4.9,6.8-8.9,11.7-11.6c5.3-2.9,11.2-4.3,17.1-4.2c5.9-0.1,11.8,1.3,17,4.2
			c4.8,2.7,8.9,6.7,11.7,11.4c2.9,5.1,4.4,10.8,4.3,16.6c0.1,6-1.4,11.9-4.3,17.1c-2.8,4.9-6.8,9-11.7,11.8
			c-5.2,2.9-11.2,4.4-17.2,4.3c-5.9,0.1-11.8-1.4-16.9-4.3c-4.9-2.8-9-6.8-11.7-11.7C144.6,46.1,144.6,33.4,150.2,22.9L150.2,22.9z
			 M165.2,49.1c1.2,2.7,3.2,5,5.6,6.7c2.4,1.6,5.3,2.4,8.2,2.4c3,0.1,5.9-0.8,8.4-2.4c2.4-1.6,4.4-3.9,5.6-6.5
			c2.7-6,2.7-12.9-0.1-18.9c-1.3-2.6-3.3-4.9-5.7-6.5c-2.5-1.6-5.5-2.4-8.5-2.4c-2.9,0-5.7,0.8-8.1,2.3c-2.4,1.5-4.4,3.7-5.6,6.2
			c-1.4,2.9-2.1,6-2,9.2C163.1,42.7,163.8,46.1,165.2,49.1L165.2,49.1z"/>
		<path id="Trazado_2052" class="st1" d="M221.2,22.9c2.7-4.9,6.8-8.9,11.7-11.6c5.3-2.9,11.2-4.3,17.1-4.2c5.9-0.1,11.8,1.3,17,4.2
			c4.8,2.7,8.9,6.7,11.7,11.4c2.9,5.1,4.4,10.8,4.3,16.6c0.1,6-1.4,11.9-4.3,17.1c-2.8,4.9-6.8,9-11.7,11.8
			c-5.2,2.9-11.2,4.4-17.2,4.3c-5.9,0.1-11.8-1.4-16.9-4.3c-4.9-2.8-9-6.8-11.7-11.7C215.6,46.1,215.6,33.4,221.2,22.9L221.2,22.9z
			 M236.2,49.1c1.2,2.7,3.2,5,5.6,6.7c2.4,1.6,5.3,2.4,8.2,2.4c3,0.1,5.9-0.8,8.3-2.4c2.4-1.6,4.4-3.9,5.6-6.5
			c2.7-6,2.7-12.9-0.1-18.9c-1.3-2.6-3.3-4.9-5.7-6.5c-2.5-1.6-5.5-2.4-8.5-2.4c-2.9,0-5.7,0.8-8.1,2.3c-2.4,1.5-4.4,3.7-5.6,6.2
			c-1.4,2.9-2.1,6-2,9.2C234.1,42.7,234.8,46.1,236.2,49.1L236.2,49.1z"/>
	</g>
</g>
<g id="Grupo_1401" transform="translate(167.955 533.933)">
	<g id="Grupo_1400">
		<path id="Trazado_2053" class="st1" d="M3,32.3c0.9,0.4,1.8,0.8,2.7,1.2c1.1,0.4,2.2,0.7,3.4,1c1.1,0.2,2.3,0.4,3.4,0.4
			c1.1,0,2.2-0.1,3.3-0.5c0.8-0.2,1.4-0.7,2-1.3c0.4-0.5,0.7-1.1,0.7-1.8c0-0.8-0.4-1.5-1-1.9c-0.8-0.7-1.6-1.2-2.5-1.8
			c-1-0.6-2.1-1.2-3.2-1.8c-1.3-0.8-2.7-1.6-4-2.5c-1.4-0.8-2.6-1.8-3.8-2.9c-1.1-1-2.1-2.2-2.8-3.5C0.4,15.6,0,14.1,0,12.6
			c0-2,0.6-3.9,1.7-5.6C2.9,5.3,4.5,4,6.5,3.2c2.4-1,4.9-1.4,7.5-1.4c2,0,4,0.3,5.9,0.9c1.9,0.5,3.6,1.2,5.3,2.2l-2.8,6.6
			c-1.1-0.5-2.1-0.8-3-1.2c-0.8-0.3-1.7-0.5-2.6-0.7C16,9.4,15,9.3,14.1,9.3c-1.2-0.1-2.4,0.3-3.5,0.9c-0.8,0.5-1.3,1.4-1.4,2.4
			c0,0.8,0.3,1.5,0.9,2.1c0.7,0.7,1.6,1.3,2.5,1.7c1,0.5,2.1,1.1,3.2,1.8c1.4,0.8,2.8,1.6,4.2,2.5c1.3,0.8,2.6,1.8,3.8,2.9
			c1.1,1,2,2.2,2.8,3.5c0.7,1.3,1.1,2.9,1,4.4c0,2-0.6,4-1.8,5.7c-1.3,1.8-3.1,3.2-5.2,4c-2.6,1-5.4,1.5-8.2,1.5c-1,0-2-0.1-3.1-0.3
			c-1.1-0.2-2.2-0.4-3.4-0.7c-1.1-0.3-2.2-0.6-3.2-1c-0.9-0.3-1.7-0.7-2.5-1.2L3,32.3z"/>
		<path id="Trazado_2054" class="st1" d="M40.1,30.3c0.2,0.9,0.6,1.8,1.2,2.6c0.6,0.7,1.4,1.3,2.3,1.7c1.2,0.5,2.5,0.7,3.8,0.6
			c1.5,0,3-0.2,4.4-0.7c1.2-0.4,2.4-0.9,3.5-1.6l2.6,6.3c-0.9,0.7-1.9,1.2-2.9,1.6c-1.2,0.5-2.5,0.9-3.8,1.2c-1.5,0.3-3,0.4-4.5,0.4
			c-3,0.1-6-0.5-8.8-1.8c-2.3-1.1-4.3-2.8-5.6-5c-1.4-2.4-2-5.1-2-7.8c-0.1-2.8,0.6-5.5,1.8-8c1.2-2.2,3-4,5.1-5.2
			c2.3-1.2,4.9-1.9,7.5-1.8c2.6-0.1,5.1,0.6,7.3,2c1.9,1.3,3.4,3.2,4.3,5.3c1,2.3,1.4,4.8,1.4,7.3v2.7L40.1,30.3z M49.4,25.1
			c-0.1-0.8-0.3-1.7-0.7-2.4c-0.4-0.7-0.9-1.3-1.6-1.7c-0.7-0.4-1.5-0.7-2.4-0.6c-0.8,0-1.6,0.2-2.3,0.6c-0.7,0.4-1.3,1-1.7,1.6
			c-0.4,0.8-0.7,1.6-0.8,2.5L49.4,25.1z"/>
		<path id="Trazado_2055" class="st1" d="M85,37.2c-0.8,1-1.8,1.9-2.8,2.6c-1.1,0.8-2.2,1.4-3.5,1.9c-1.3,0.5-2.6,0.7-4,0.7
			c-2.6,0.1-5.1-0.5-7.4-1.7c-2.1-1.1-3.9-2.9-5-5c-1.3-2.5-1.9-5.2-1.8-8c-0.1-2.8,0.5-5.6,1.8-8.1c1.1-2.1,2.9-3.9,5-5
			c2.4-1.2,5-1.8,7.7-1.8c1.2,0,2.4,0.2,3.6,0.6c1.2,0.4,2.4,1,3.4,1.8c1.1,0.8,2,1.7,2.8,2.8l-2.5,5.5c-1-1.1-2.2-2-3.5-2.7
			c-1-0.6-2.2-0.9-3.4-0.9c-1.1,0-2.1,0.3-3,1c-0.9,0.7-1.6,1.6-2,2.7c-0.5,1.3-0.7,2.6-0.6,4c0,1.3,0.2,2.7,0.7,3.9
			c0.4,1,1.1,1.9,2,2.6c0.9,0.6,2,0.9,3.1,0.9c1.2,0,2.4-0.3,3.4-1c1.2-0.8,2.4-1.7,3.4-2.8L85,37.2z M88.9,42.9
			c0.1,2.3-0.6,4.5-1.9,6.4c-1.3,1.9-3.2,3.3-5.3,4.2c-2.5,1-5.2,1.6-8,1.5c-0.8,0-1.6-0.1-2.4-0.2c-1-0.1-2.2-0.3-3.3-0.5
			c-1.2-0.2-2.3-0.6-3.5-1c-1-0.4-2-0.9-2.9-1.5l2.7-6.3c1.5,0.8,3.1,1.4,4.8,1.8c1.4,0.3,2.7,0.5,4.1,0.5c1.7,0.1,3.3-0.4,4.7-1.4
			c1.2-0.8,1.9-2.2,1.9-3.6V19.9l4.4-6h4.6L88.9,42.9z"/>
		<path id="Trazado_2056" class="st1" d="M123.2,13.9v28h-5l-2.2-3c-2.2,1.5-4.6,2.7-7.2,3.3c-1.3,0.3-2.6,0.5-3.9,0.5
			c-2,0.1-4.1-0.4-5.8-1.5c-1.4-0.9-2.5-2.3-3.1-3.9c-0.6-1.8-1-3.7-0.9-5.6v-18h9V31c0,1.1,0.3,2.2,0.9,3.1
			c0.6,0.8,1.6,1.3,2.6,1.2c0.8,0,1.6-0.1,2.3-0.4c0.8-0.3,1.6-0.6,2.3-1c0.8-0.4,1.4-0.7,2-1V13.9L123.2,13.9z"/>
		<path id="Trazado_2057" class="st1" d="M130.2,8.5c-1-0.9-1.5-2.2-1.4-3.6c0-2.7,2.2-4.9,5-5c1.3,0,2.6,0.5,3.5,1.5
			c1,0.9,1.5,2.2,1.5,3.5c0.1,2.7-2.1,5-4.8,5c-0.1,0-0.1,0-0.2,0C132.4,10,131.1,9.5,130.2,8.5z M129.3,41.8v-28h9v28H129.3z"/>
		<path id="Trazado_2058" class="st1" d="M167,37.2c-0.8,1-1.8,1.9-2.8,2.6c-1.1,0.8-2.2,1.4-3.5,1.9c-1.3,0.5-2.6,0.7-4,0.7
			c-2.6,0.1-5.1-0.5-7.4-1.7c-2.1-1.1-3.9-2.9-5-5c-1.3-2.5-1.9-5.2-1.8-8c-0.1-2.8,0.5-5.6,1.8-8.1c1.1-2.1,2.9-3.9,5-5
			c2.4-1.2,5-1.8,7.7-1.8c1.2,0,2.4,0.2,3.6,0.6c1.2,0.4,2.4,1,3.4,1.8c1.1,0.8,2,1.7,2.8,2.8l-2.5,5.5c-1-1.1-2.2-2-3.5-2.7
			c-1-0.6-2.2-0.9-3.4-0.9c-1.1,0-2.1,0.3-3,1c-0.9,0.7-1.6,1.6-2,2.7c-0.5,1.3-0.7,2.6-0.6,4c0,1.3,0.2,2.7,0.7,3.9
			c0.4,1,1.1,1.9,2,2.6c0.9,0.6,2,0.9,3.1,0.9c1.2,0,2.4-0.3,3.4-1c1.2-0.8,2.4-1.7,3.4-2.8L167,37.2z M161.9,1.7l9-0.6v40.7h-4.7
			l-4.3-6.1L161.9,1.7z"/>
		<path id="Trazado_2059" class="st1" d="M191.1,42.5c-2.8,0-5.5-0.6-8-1.8c-2.2-1.1-4.1-2.8-5.3-5c-1.3-2.4-2-5.2-1.9-8
			c-0.1-2.8,0.6-5.5,2-7.9c1.3-2.2,3.2-3.9,5.4-5.1c2.4-1.2,5.1-1.9,7.8-1.8c2.8-0.1,5.6,0.5,8.1,1.8c2.3,1.1,4.2,2.9,5.4,5.1
			c1.4,2.5,2,5.2,2,8c0.1,2.8-0.6,5.5-2,7.9c-1.3,2.2-3.2,3.9-5.5,5C196.6,41.9,193.9,42.5,191.1,42.5z M191.1,34.9
			c1.2,0,2.3-0.3,3.3-0.9c0.9-0.6,1.7-1.5,2.1-2.5c1-2.4,1-5.2,0-7.6c-0.5-1-1.2-1.9-2.1-2.6c-0.9-0.7-2-1-3.1-1
			c-1.2,0-2.3,0.3-3.3,1c-0.9,0.6-1.7,1.5-2.1,2.6c-0.5,1.2-0.8,2.5-0.7,3.9c0,1.3,0.2,2.6,0.7,3.7c0.4,1,1.2,1.9,2.1,2.5
			C188.9,34.6,190,34.9,191.1,34.9L191.1,34.9z"/>
		<path id="Trazado_2060" class="st1" d="M210.9,41.8V13.9h4.6l2.5,4c0.9-0.7,1.8-1.3,2.8-1.8c1.1-0.6,2.2-1.1,3.4-1.6
			c1-0.4,2.1-0.6,3.3-0.6l1.8,7.2c-1,0-2,0.2-3,0.5c-1.1,0.4-2.2,0.8-3.3,1.4c-1.1,0.6-2.1,1.3-3.1,2v16.8L210.9,41.8z"/>
		<path id="Trazado_2061" class="st1" d="M240.9,30.3c0.2,0.9,0.6,1.8,1.2,2.6c0.6,0.7,1.4,1.3,2.3,1.7c1.2,0.5,2.5,0.7,3.8,0.6
			c1.5,0,3-0.2,4.4-0.7c1.2-0.4,2.4-0.9,3.5-1.6l2.6,6.3c-0.9,0.7-1.9,1.2-2.9,1.6c-1.2,0.5-2.5,0.9-3.8,1.2c-1.5,0.3-3,0.4-4.5,0.4
			c-3,0.1-6-0.5-8.8-1.8c-2.3-1.1-4.3-2.8-5.6-5c-1.4-2.4-2-5.1-2-7.8c-0.1-2.8,0.6-5.5,1.8-8c1.2-2.2,3-4,5.1-5.2
			c2.3-1.2,4.9-1.9,7.5-1.8c2.6-0.1,5.1,0.6,7.3,2c1.9,1.3,3.4,3.2,4.3,5.3c1,2.3,1.4,4.8,1.4,7.3v2.7L240.9,30.3z M250.2,25.1
			c-0.1-0.8-0.3-1.7-0.7-2.4c-0.4-0.7-0.9-1.3-1.6-1.7c-0.7-0.4-1.5-0.7-2.4-0.6c-0.8,0-1.6,0.2-2.3,0.6c-0.7,0.4-1.3,1-1.7,1.6
			c-0.4,0.8-0.7,1.6-0.8,2.5L250.2,25.1z"/>
		<path id="Trazado_2062" class="st1" d="M264.1,33.5c0.8,0.3,1.7,0.6,2.6,0.9c0.9,0.3,1.8,0.5,2.7,0.7c0.8,0.2,1.6,0.2,2.4,0.3
			c0.6,0,1.1-0.1,1.6-0.2c0.5-0.1,0.9-0.3,1.3-0.6c0.3-0.2,0.5-0.5,0.5-0.9c0-0.4-0.1-0.8-0.4-1.1c-0.4-0.4-0.8-0.7-1.3-1
			c-0.7-0.3-1.3-0.6-2-0.8c-1.5-0.5-3.1-1.2-4.5-1.9c-1.4-0.7-2.7-1.7-3.7-2.9c-1-1.2-1.5-2.7-1.5-4.2c-0.1-2.6,1.1-5,3.1-6.5
			c2.1-1.6,4.9-2.4,8.6-2.4c2.3,0,4.5,0.4,6.7,1.2c1.2,0.4,2.4,1,3.4,1.8l-2.6,5.9c-1.2-0.5-2.4-1-3.7-1.4c-1.1-0.3-2.3-0.5-3.5-0.5
			c-0.8,0-1.5,0.2-2.2,0.5c-0.5,0.2-0.9,0.7-0.9,1.3c0,0.4,0.4,0.8,1.1,1.2c0.8,0.4,1.6,0.8,2.5,1c1.6,0.6,3.1,1.3,4.5,2.1
			c1.4,0.8,2.7,1.8,3.7,3c1,1.2,1.5,2.8,1.5,4.4c0.1,2.5-1,5-3,6.6c-2,1.6-4.9,2.4-8.7,2.4c-1.1,0-2.1-0.1-3.1-0.3
			c-1.4-0.2-2.8-0.5-4.1-1c-1.3-0.4-2.5-1-3.5-1.8L264.1,33.5z"/>
	</g>
</g>
<g id="Grupo_1402" transform="translate(158.784 231.706)">
	<path id="Trazado_2063" class="st2" d="M55.4,40.5H36.1v23.3l-16.1-0.7V40.5H1.1L0,27h19.9V5.2l16.1,0.2V27h18.3L55.4,40.5z"/>
	<path id="Trazado_2064" class="st2" d="M123.8,2.5c3.5,1.5,6.5,3.8,8.6,6.9c2,3,3.1,6.5,3,10.1c0,2-0.4,4.1-1.3,5.9
		c-0.8,1.9-1.9,3.6-3.3,5.2c-1.1,1.4-2.5,2.5-4.1,3.3c1.7,0.9,3.3,2.1,4.6,3.6c1.6,1.8,2.9,3.8,3.8,5.9c1,2.3,1.6,4.8,1.5,7.3
		c0.1,4-1.2,8-3.5,11.2c-2.5,3.4-5.9,6.1-9.8,7.8c-4.7,2-9.7,3-14.8,2.9c-4.4-0.1-8.7-0.8-12.8-2.2c-4.4-1.4-8.6-3.2-12.6-5.6
		l9.1-11.5c2.6,1.7,5.4,3.1,8.4,4.1c2.6,0.8,5.4,1.2,8.2,1.2c1.8,0,3.6-0.3,5.3-1c1.5-0.6,2.9-1.6,4-2.8c1-1.2,1.6-2.7,1.6-4.3
		c0.1-2.6-1-5-3.1-6.5c-2.1-1.5-5.1-2.3-9-2.3h-8.2l-1.8-13.6h8.3c3.1,0.2,6.3-0.6,9-2.1c2.1-1.1,3.4-3.3,3.4-5.6
		c0-1.1-0.4-2.3-1.1-3.2c-0.8-1.1-1.9-1.9-3.2-2.3c-1.6-0.6-3.4-0.9-5.1-0.8c-2.7,0-5.5,0.5-8,1.5c-2.6,1-5,2.4-7.2,4.1L85.5,8
		c3.6-2.7,7.6-4.7,11.8-6c4.2-1.3,8.5-1.9,12.8-1.9C114.8-0.1,119.5,0.7,123.8,2.5z"/>
	<path id="Trazado_2065" class="st2" d="M183.9,40c-2.3,1.7-4.7,3.1-7.4,4.1c-2.7,1-5.5,1.6-8.4,1.5c-4.6,0.1-9.2-0.9-13.3-3
		c-3.7-1.8-6.9-4.7-9.1-8.1c-2.2-3.4-3.4-7.5-3.3-11.6c-0.1-4.2,1-8.4,3.2-12c2.2-3.5,5.4-6.3,9.1-8.1c4.2-2,8.9-3,13.5-2.9
		c5.5-0.1,10.9,1.1,15.8,3.5c4.5,2.3,8.2,5.8,10.8,10.2c2.7,4.8,4.1,10.2,3.9,15.7c0.1,5.4-1,10.7-3.1,15.6c-2,4.4-4.8,8.3-8.2,11.6
		c-3.4,3.2-7.2,5.8-11.4,7.9c-4.1,2-8.3,3.6-12.7,4.8c-3.8,1.1-7.8,1.8-11.7,2.2l-2-15.2c2.5-0.7,5.2-1.4,8.2-2.1
		c2.9-0.7,5.7-1.6,8.5-2.8c2.7-1.1,5.3-2.6,7.5-4.5c2.3-1.9,4.1-4.2,5.5-6.9c1.5-3.1,2.2-6.5,2-9.9c0.1-3-0.4-6.1-1.5-8.9
		c-0.9-2.2-2.4-4.1-4.4-5.5c-2-1.3-4.3-1.9-6.6-1.9c-1.7,0-3.4,0.4-4.8,1.3c-1.4,0.8-2.6,2-3.5,3.4c-0.9,1.5-1.4,3.2-1.3,4.9
		c0,1.8,0.4,3.5,1.3,5.1c0.9,1.5,2.2,2.8,3.8,3.6c1.6,0.9,3.5,1.3,5.3,1.3c2.3,0,4.5-0.4,6.6-1.3c2.2-0.9,4.3-2.1,6.1-3.5
		c2-1.5,3.8-3.3,5.4-5.3l2.8,10.8C188.4,36.3,186.2,38.2,183.9,40z"/>
	<path id="Trazado_2066" class="st2" d="M220.4,50.9c1.9,2.1,2.8,4.9,2.7,7.7c0,3-0.7,5.9-2,8.6c-3,6.1-7.9,10.9-14,13.8l-3.5-8
		c1.5-1,2.8-2.2,4.1-3.4c1.2-1.2,2.1-2.7,2.4-4.3c-1-0.4-1.8-1-2.6-1.7c-0.9-0.8-1.5-1.8-1.9-3c-0.4-1.2-0.7-2.4-0.7-3.6
		c0-1.5,0.4-3.1,1.1-4.4c0.7-1.4,1.9-2.6,3.2-3.4C212.8,46.9,217.5,47.6,220.4,50.9L220.4,50.9z"/>
	<path id="Trazado_2067" class="st2" d="M233.1,15.8c2.7-4.9,6.8-8.9,11.7-11.6C250.1,1.3,256-0.1,262,0c5.9-0.1,11.8,1.3,17,4.2
		c4.8,2.7,8.9,6.7,11.7,11.4c2.9,5.1,4.4,10.8,4.3,16.6c0.1,6-1.4,11.9-4.3,17.1c-2.8,4.9-6.8,9-11.7,11.8
		c-5.2,2.9-11.2,4.4-17.2,4.3c-5.9,0.1-11.8-1.4-16.9-4.3c-4.9-2.8-9-6.8-11.7-11.7C227.5,39,227.5,26.4,233.1,15.8L233.1,15.8z
		 M248.1,42c1.2,2.7,3.2,5,5.6,6.7c2.4,1.6,5.3,2.4,8.2,2.4c3,0.1,5.9-0.8,8.3-2.4c2.4-1.6,4.4-3.9,5.6-6.5c2.7-6,2.7-12.9-0.1-18.9
		c-1.3-2.6-3.3-4.9-5.7-6.5c-2.5-1.6-5.5-2.4-8.5-2.4c-2.9,0-5.7,0.8-8.1,2.3c-2.4,1.5-4.4,3.7-5.6,6.2c-1.4,2.9-2.1,6-2,9.2
		C246,35.6,246.7,39,248.1,42L248.1,42z"/>
	<path id="Trazado_2068" class="st2" d="M304.1,15.8c2.7-4.9,6.8-8.9,11.7-11.6C321.1,1.3,327-0.1,333,0c5.9-0.1,11.8,1.3,17,4.2
		c4.8,2.7,8.9,6.7,11.7,11.4c2.9,5.1,4.4,10.8,4.3,16.6c0.1,6-1.4,11.9-4.3,17.1c-2.8,4.9-6.8,9-11.7,11.8
		c-5.2,2.9-11.2,4.4-17.2,4.3c-5.9,0.1-11.8-1.4-16.9-4.3c-4.9-2.8-9-6.8-11.7-11.7C298.5,39,298.5,26.4,304.1,15.8L304.1,15.8z
		 M319.1,42c1.2,2.7,3.2,5,5.6,6.7c2.4,1.6,5.3,2.4,8.2,2.4c3,0.1,5.9-0.8,8.3-2.4c2.4-1.6,4.4-3.9,5.6-6.5c2.7-6,2.7-12.9-0.1-18.9
		c-1.3-2.6-3.3-4.9-5.7-6.5c-2.5-1.6-5.5-2.4-8.5-2.4c-2.9,0-5.7,0.8-8.1,2.3c-2.4,1.5-4.4,3.7-5.6,6.2c-1.4,2.9-2.1,6-2,9.2
		C317,35.6,317.7,39,319.1,42L319.1,42z"/>
	<path id="Trazado_2069" class="st2" d="M375.1,15.8c2.7-4.9,6.8-8.9,11.7-11.6C392.1,1.3,398-0.1,404,0c5.9-0.1,11.8,1.3,17,4.2
		c4.8,2.7,8.9,6.7,11.7,11.4c2.9,5.1,4.4,10.8,4.3,16.6c0.1,6-1.4,11.9-4.3,17.1c-2.8,4.9-6.8,9-11.7,11.8
		c-5.2,2.9-11.2,4.4-17.2,4.3c-5.9,0.1-11.8-1.4-16.9-4.3c-4.9-2.8-9-6.8-11.7-11.7C369.5,39,369.5,26.4,375.1,15.8L375.1,15.8z
		 M390.1,42c1.2,2.7,3.2,5,5.6,6.7c2.4,1.6,5.3,2.4,8.2,2.4c3,0.1,5.9-0.8,8.3-2.4c2.4-1.6,4.4-3.9,5.6-6.5c2.7-6,2.7-12.9-0.1-18.9
		c-1.3-2.6-3.3-4.9-5.7-6.5c-2.5-1.6-5.5-2.4-8.5-2.4c-2.9,0-5.7,0.8-8.1,2.3c-2.4,1.5-4.4,3.7-5.6,6.2c-1.4,2.9-2.1,6-2,9.2
		C388,35.6,388.7,39,390.1,42L390.1,42z"/>
</g>
<g id="Grupo_1403" transform="translate(163.096 320.933)">
	<path id="Trazado_2070" class="st2" d="M29.6,45.9H0V2.9h9.9v35.3h18.6L29.6,45.9z"/>
	<path id="Trazado_2071" class="st2" d="M34.6,9.4c-1-1-1.6-2.5-1.6-3.9c0-3,2.5-5.4,5.4-5.4c1.5,0,2.9,0.6,3.9,1.6
		c1,1,1.6,2.4,1.6,3.8c0.1,3-2.3,5.5-5.3,5.5c-0.1,0-0.1,0-0.2,0C37.1,11,35.7,10.4,34.6,9.4z M33.6,45.9V15.2h9.9v30.7L33.6,45.9z"
		/>
	<path id="Trazado_2072" class="st2" d="M50.8,45.9v-44l9.9-0.7v23.9L73,14.3l5.8,6.9L70.4,28l10.8,17.9h-11l-6.8-12.2l-2.7,2.2
		v10.1L50.8,45.9z"/>
	<path id="Trazado_2073" class="st2" d="M93.3,33.2c0.2,1,0.7,2,1.3,2.9c0.7,0.8,1.6,1.4,2.6,1.8c1.3,0.5,2.7,0.7,4.1,0.7
		c1.6,0,3.3-0.2,4.8-0.8c1.3-0.5,2.6-1,3.8-1.7l2.9,7c-1,0.7-2,1.3-3.2,1.8c-1.3,0.6-2.7,1-4.1,1.3c-1.6,0.3-3.3,0.5-4.9,0.5
		c-3.3,0.1-6.6-0.6-9.7-1.9c-2.6-1.2-4.7-3.1-6.2-5.5c-1.5-2.6-2.2-5.6-2.2-8.5c-0.1-3,0.6-6,2-8.7c1.3-2.4,3.3-4.4,5.6-5.7
		c2.5-1.4,5.4-2.1,8.3-2c2.8-0.1,5.6,0.7,8,2.2c2.1,1.4,3.8,3.5,4.8,5.9c1,2.5,1.6,5.2,1.6,8v3L93.3,33.2z M103.5,27.5
		c-0.1-0.9-0.3-1.8-0.8-2.6c-0.4-0.8-1-1.4-1.7-1.9c-0.8-0.5-1.7-0.7-2.6-0.7c-0.9,0-1.7,0.2-2.5,0.7c-0.8,0.4-1.4,1-1.8,1.8
		c-0.5,0.8-0.8,1.8-0.9,2.7L103.5,27.5z"/>
	<path id="Trazado_2074" class="st2" d="M118.8,36.9c0.9,0.3,1.9,0.7,2.8,1c1,0.3,1.9,0.6,2.9,0.8c0.9,0.2,1.7,0.3,2.6,0.3
		c0.6,0,1.2-0.1,1.8-0.3c0.5-0.1,1-0.4,1.4-0.7c0.3-0.2,0.6-0.6,0.6-1c0-0.4-0.2-0.8-0.4-1.2c-0.4-0.4-0.9-0.8-1.4-1
		c-0.7-0.4-1.5-0.7-2.2-0.9c-1.7-0.6-3.3-1.3-4.9-2.1c-1.6-0.8-2.9-1.8-4.1-3.1c-1.1-1.3-1.7-2.9-1.6-4.6c-0.1-2.8,1.2-5.5,3.5-7.2
		c2.3-1.8,5.4-2.6,9.4-2.6c2.5,0,5,0.5,7.3,1.3c1.3,0.5,2.6,1.1,3.8,1.9l-2.8,6.5c-1.3-0.6-2.6-1.1-4-1.5c-1.2-0.4-2.5-0.5-3.8-0.5
		c-0.9,0-1.7,0.2-2.4,0.6c-0.6,0.3-0.9,0.8-1,1.4c0,0.5,0.4,0.9,1.2,1.3c0.9,0.4,1.8,0.8,2.8,1.1c1.7,0.6,3.4,1.4,5,2.3
		c1.6,0.8,2.9,1.9,4.1,3.3c1.1,1.4,1.7,3.1,1.6,4.8c0.1,2.8-1.1,5.5-3.3,7.3c-2.2,1.8-5.4,2.6-9.6,2.6c-1.2,0-2.3-0.1-3.5-0.3
		c-1.5-0.2-3-0.6-4.5-1.1c-1.4-0.5-2.7-1.1-3.9-2L118.8,36.9z"/>
</g>
<g id="Grupo_1406" transform="translate(3.674 225.599)">
	<g id="Grupo_1404">
		<circle id="Elipse_211" class="st2" cx="60.5" cy="64.2" r="64.2"/>
	</g>
	<g id="Grupo_1405" transform="translate(26.87 25.719)">
		
			<rect id="Rectángulo_526" x="-10.4" y="39.8" transform="matrix(1.199914e-02 -0.9999 0.9999 1.199914e-02 -43.3409 57.1246)" class="st3" width="35.2" height="21.4"/>
		<path id="Trazado_2075" class="st3" d="M21.9,68.3l0.4-35.2C30.2,28.2,35.1,18,33.9,8.8c-0.4-2.7-1-6,1.1-7.9
			c1.8-1.6,4.7-1.1,6.6,0.3c2.5,1.9,4.2,4.5,4.8,7.6c0.6,3,0.7,6.1,0.3,9.1c-0.4,3.4-1,6.7-1.9,10l15.8-1.1c1.7-0.2,3.5-0.2,5.3,0.1
			c1.8,0.3,3.3,1.3,4.2,2.9c0.6,1.2,0.8,2.6,0.6,3.9c-0.2,2.8-1.5,5.6-3.8,7.1c2.2,0.2,3.3,3.1,2.5,5.2s-2.7,3.5-4.5,4.7
			c2,1.7,2.3,4.7,0.6,6.7c-0.6,0.7-1.3,1.2-2.2,1.5c1.4,2.6-0.3,6-2.8,7.5s-5.7,1.6-8.7,1.6c-10,0.2-19.6,0.1-29.6,0.3
			C21.8,68.5,22,68.5,21.9,68.3C21.8,68.1,21.9,68.1,21.9,68.3z"/>
	</g>
</g>
<path id="Trazado_2162" class="st1" d="M78.6,501.1c0,7-5.7,12.6-12.6,12.6s-12.6-5.7-12.6-12.6c0-7,5.7-12.6,12.6-12.6
	C72.9,488.5,78.6,494.1,78.6,501.1L78.6,501.1z"/>
<path id="Trazado_2163" class="st1" d="M95.4,478.8c-1.3-3.3-3.9-5.9-7.2-7.2c-2.3-0.8-4.6-1.3-7-1.3c-4-0.2-5.2-0.2-15.3-0.2
	s-11.3,0-15.3,0.2c-2.4,0-4.8,0.5-7,1.3c-3.3,1.3-5.9,3.9-7.2,7.2c-0.8,2.3-1.3,4.6-1.3,7c-0.2,4-0.2,5.2-0.2,15.3s0,11.3,0.2,15.3
	c0,2.4,0.5,4.8,1.3,7c1.3,3.3,3.9,5.9,7.2,7.2c2.3,0.8,4.6,1.3,7,1.3c4,0.2,5.2,0.2,15.3,0.2s11.3,0,15.3-0.2c2.4,0,4.8-0.5,7-1.3
	c3.3-1.3,5.9-3.9,7.2-7.2c0.8-2.3,1.3-4.6,1.3-7c0.2-4,0.2-5.2,0.2-15.3s0-11.3-0.2-15.3C96.7,483.4,96.3,481,95.4,478.8z
	 M65.9,520.6c-10.7,0-19.4-8.7-19.4-19.4c0-10.7,8.7-19.4,19.4-19.4s19.4,8.7,19.4,19.4l0,0C85.4,511.9,76.7,520.6,65.9,520.6
	L65.9,520.6z M86.1,485.4c-2.5,0-4.5-2-4.5-4.5s2-4.5,4.5-4.5c2.5,0,4.5,2,4.5,4.5C90.7,483.4,88.7,485.4,86.1,485.4L86.1,485.4z"/>
<path id="Trazado_2164" class="st1" d="M65.9,435.2C29.5,435.2,0,464.7,0,501.1s29.5,65.9,65.9,65.9c36.4,0,65.9-29.5,65.9-65.9
	C131.9,464.7,102.3,435.2,65.9,435.2z M103.6,516.7c-0.1,3.1-0.7,6.2-1.8,9.2c-2,5.1-6,9.1-11.1,11.1c-2.9,1.1-6,1.7-9.2,1.8
	c-4,0.2-5.3,0.2-15.6,0.2s-11.6,0-15.6-0.2c-3.1-0.1-6.2-0.7-9.2-1.8c-5.1-2-9.1-6-11.1-11.1c-1.1-2.9-1.7-6-1.8-9.2
	c-0.2-4-0.2-5.3-0.2-15.6s0-11.6,0.2-15.6c0.1-3.1,0.7-6.2,1.8-9.2c2-5.1,6-9.1,11.1-11.1c2.9-1.1,6.1-1.7,9.2-1.8
	c4-0.2,5.3-0.2,15.6-0.2s11.6,0,15.6,0.2c3.1,0.1,6.2,0.7,9.2,1.8c5.1,2,9.1,6,11.1,11.1c1.1,2.9,1.7,6,1.8,9.2
	c0.2,4,0.2,5.3,0.2,15.6S103.8,512.7,103.6,516.7L103.6,516.7z"/>
<g id="Grupo_1446">
	<circle id="Elipse_228" class="st0" cx="62.2" cy="62.2" r="62.2"/>
	<path id="Trazado_2165" class="st3" d="M77.8,64.6H66.7v40.7H49.9V64.6h-8V50.3h8v-9.2c0-6.6,3.1-17,17-17l12.5,0.1v13.9h-9
		c-1.5,0-3.6,0.7-3.6,3.9v8.4h12.6L77.8,64.6z"/>
</g>
</svg>
