<?xml version="1.0" encoding="utf-8"?>
<!-- Generator: Adobe Illustrator 24.3.0, SVG Export Plug-In . SVG Version: 6.00 Build 0)  -->
<svg version="1.1" id="Capa_1" xmlns="http://www.w3.org/2000/svg" xmlns:xlink="http://www.w3.org/1999/xlink" x="0px" y="0px"
	 viewBox="0 0 221 221" style="enable-background:new 0 0 221 221;" xml:space="preserve">
<style type="text/css">
	.st0{fill:url(#Elipse_276_1_);}
	.st1{fill:#8C6239;}
	.st2{fill:url(#Trazado_2593_1_);}
	.st3{opacity:0.15;}
	.st4{fill:url(#Trazado_2602_1_);}
	.st5{fill:url(#Elipse_277_1_);}
	.st6{fill:url(#Trazado_2603_1_);}
	.st7{fill:url(#Elipse_278_1_);}
	.st8{fill:url(#Trazado_2604_1_);}
	.st9{fill:url(#Elipse_279_1_);}
	.st10{fill:url(#Trazado_2605_1_);}
	.st11{fill:url(#Elipse_280_1_);}
</style>
<g>
	
		<radialGradient id="Elipse_276_1_" cx="-846.5861" cy="650.1072" r="0.5" gradientTransform="matrix(220.5308 0 0 -221.218 186809.0469 143925.8438)" gradientUnits="userSpaceOnUse">
		<stop  offset="6.800000e-02" style="stop-color:#C2FFC2"/>
		<stop  offset="0.612" style="stop-color:#60E960"/>
		<stop  offset="0.996" style="stop-color:#00BA00"/>
	</radialGradient>
	<ellipse id="Elipse_276" class="st0" cx="110.7" cy="110.4" rx="110.3" ry="110.6"/>
	<g id="Grupo_1632" transform="translate(34.86 41.366)">
		<path id="Trazado_2592" class="st1" d="M145.5,31.6L145.5,31.6c-0.3-0.8-0.5-1.6-0.8-2.4c-0.3-0.7-0.6-1.5-1-2.3
			c-4.3-8.9-13-16.5-24.5-21.3c0,0-0.1,0-0.1-0.1c-1.7-0.7-3.4-1.3-5-1.9l-0.1,0c-8.1-2.6-16.5-3.9-25-3.9c-3.5,0-7,0.2-10.5,0.6
			c-15.8,1.9-31,7.3-44.5,15.8C18.8,25.6,8.6,37.9,3.7,52.9c-0.6,1.9-1.2,4-1.7,6c-1.2,5.3-1.7,10.6-1.7,16c0,1.7,0.1,3.4,0.2,5.3
			c0.2,3.2,0.7,6.4,1.3,9.5c0.3,1.8,0.8,3.6,1.2,5.4c0.7,2.9,1.6,5.7,2.7,8.5c0.5,1.4,1.1,2.7,1.6,3.9c0.8,1.9,1.8,3.8,3,5.5
			c0,0.1,0.1,0.1,0.1,0.2c0.9,1.4,1.9,2.7,2.9,4c3.4,4.3,7.1,8.4,11.2,12.1c1.7,1.5,3.3,2.8,4.9,4.1c0.9,0.7,1.8,1.4,2.8,2.1
			c1.3,0.9,2.6,1.8,4,2.6c7.2,4.5,15.1,7.7,23.5,9.3c2.2,0.4,4.4,0.7,6.6,0.9c1.9,0.2,3.8,0.2,5.7,0.2c13.3,0,27.2-3.9,41.5-11.8
			c3.1-1.8,29.9-17.7,23.2-32.4c-2.8-6.1-6.6-7.7-9.7-9c-3.2-1.3-5.7-2.4-7.6-8.6c-0.1-0.6-1-6,6.4-10.3l1.4-0.8
			c6.4-3.7,16.1-9.4,19.4-20.8c0.5-1.7,0.8-3.4,1-5.1C148.1,43.6,147.4,37.5,145.5,31.6z M102.2,113.2c-2.8,1.5-5.9,2-9,1.4
			c-2.5-0.4-4.6-2-5.8-4.2c-2.3-4.6,0.6-10.7,6.4-13.7c2-1.1,4.2-1.6,6.5-1.6c0.8,0,1.7,0.1,2.5,0.3c2.5,0.4,4.6,2,5.8,4.2
			C111,104.1,108.1,110.2,102.2,113.2L102.2,113.2z"/>
		<g id="Grupo_1631" transform="translate(2.689 2.689)">
			
				<radialGradient id="Trazado_2593_1_" cx="71.7339" cy="71.4778" r="71.4615" gradientTransform="matrix(0.9969 0 0 1 -0.1152 0)" gradientUnits="userSpaceOnUse">
				<stop  offset="0" style="stop-color:#FFC063"/>
				<stop  offset="1" style="stop-color:#C98C59"/>
			</radialGradient>
			<path id="Trazado_2593" class="st2" d="M140.2,29.7c-0.2-0.7-0.5-1.5-0.8-2.2c-0.3-0.7-0.6-1.4-0.9-2.1
				c-4.1-8.4-12.3-15.5-23.1-20h0c-1.6-0.7-3.2-1.3-4.9-1.8h0c-7.9-2.5-16.1-3.8-24.3-3.8C82.8-0.2,79.4,0,76,0.4
				C60.6,2.2,45.7,7.5,32.6,15.8C16.4,25.8,7.7,38.4,3.5,51c-0.6,1.9-1.2,3.9-1.6,5.8C0.9,61.8,0.3,67,0.4,72.2
				c0,1.7,0.1,3.5,0.2,5.2c0.2,3.1,0.6,6.2,1.2,9.2c0.3,1.8,0.8,3.6,1.2,5.3c0.7,2.8,1.6,5.5,2.6,8.2c0.5,1.4,1,2.6,1.6,3.8
				c0.8,1.8,1.7,3.5,2.8,5.2c0,0,0,0,0,0.1c0.7,1.1,1.6,2.4,2.8,3.9c3.3,4.2,6.9,8.1,10.8,11.7c1.5,1.3,3,2.7,4.7,4
				c0.9,0.7,1.8,1.3,2.7,2c1.2,0.9,2.5,1.7,3.8,2.6c6.9,4.3,14.5,7.4,22.5,8.9c2.1,0.4,4.2,0.7,6.3,0.9c13,1.1,28.3-1.6,45.6-11.2
				c0,0,27.9-16.1,22.1-28.9c-5-11.2-13.1-4-17.4-18.1c0,0-2-7.6,7.6-13.3c6.4-3.8,16.3-8.8,19.6-20c0.5-1.5,0.8-3.1,0.9-4.6
				C142.8,42,142.3,36.5,140.2,29.7z M100.8,112.9c-7.2,3.7-15.5,1.9-18.5-4s0.4-13.6,7.6-17.3s15.5-1.9,18.5,4
				S108,109.2,100.8,112.9L100.8,112.9z"/>
			<g id="Grupo_1626" transform="translate(0.001)" class="st3">
				<path id="Trazado_2594" class="st1" d="M139.4,27.5c-0.2,0-0.3,0.1-0.5,0.1c-2.5,0.8-4.8,1.9-7,3.4c-2.1,1.4-4.4,2.7-6.7,3.8
					c-2.2,1.1-4.4,2.3-6.6,3.3c-4.5,1.9-9,4-13.3,6.4l-0.5-0.4c0.7-2.7,2.1-5.3,4.1-7.3c1.9-2.1,4.1-3.8,6.5-5.1
					c2.4-1.2,4.9-2.2,7.5-2.8c2.5-0.7,5.1-1.2,7.7-1.3c2.6-0.1,5.1-0.8,7.4-1.9c0.1-0.1,0.3-0.1,0.4-0.2
					C138.8,26.1,139.2,26.8,139.4,27.5z"/>
				<path id="Trazado_2595" class="st1" d="M115.4,5.4c-3.7,1.6-7.3,3.7-10.6,6.1c-1.4,1-2.7,2-4,3c-1.3,1-2.6,2.1-3.8,3.2
					c-2.5,2.3-5,4.6-7.5,6.9c-5,4.9-10.5,9.4-16.2,13.5c-3,2.2-6.2,3.9-9.7,5.3c-3.5,1.3-7.2,1.9-10.9,1.9c-3.5,0.1-6.9,0-10.1,0.8
					c-3.2,0.9-6.2,2.5-8.7,4.7c-5.1,4.5-8.3,10.7-13,16.1c-2.4,2.8-5.3,5.2-8.6,7C9,75.9,5.3,77,1.5,77.3c-0.3,0-0.6,0-0.9,0.1
					c-0.1-1.7-0.2-3.4-0.2-5.2l0.4-0.1c3.1-0.6,6-1.6,8.7-3.2c2.7-1.7,5.2-3.6,7.6-5.8c5-4.4,10-9.5,15.6-13.8c2.8-2.2,6-4,9.4-5.2
					c3.4-1,6.9-1.7,10.3-2.3c1.6-0.3,3.2-0.7,4.8-1.2c1.5-0.5,2.9-1.2,4.3-1.9c2.8-1.6,5.5-3.4,8.1-5.4c5.2-4.2,9.9-9,15.2-13.7
					C90,14.8,95.6,10.3,102.1,7c2.7-1.4,5.5-2.6,8.4-3.4h0C112.2,4.1,113.8,4.8,115.4,5.4z"/>
				<path id="Trazado_2596" class="st1" d="M86.2-0.2c-6,4.1-11.5,8.9-16.4,14.2c-1.8,1.9-3.6,3.9-5.6,5.8c-2.1,2-4.4,3.8-6.9,5.3
					c-2.6,1.5-5.4,2.5-8.4,3c-2.8,0.5-5.5,0.6-8.1,0.8c-2.6,0.1-5.1,0.6-7.5,1.5c-2.4,0.9-4.5,2.4-6,4.4c-1.6,2.1-2.9,4.4-4,6.8
					c-0.6,1.2-1.3,2.4-2,3.7c-0.8,1.2-1.6,2.4-2.6,3.5c-2,2.2-4.4,4-7,5.3c-2.6,1.3-5.4,2.2-8.3,2.6c-0.4,0.1-0.9,0.1-1.3,0.2
					c0.4-1.9,1-3.8,1.6-5.8c4.1-1.4,7.8-3.6,11.2-6.3c3.7-2.9,7.1-7.3,10.9-11.3c1.9-2.1,4.2-3.8,6.7-5c2.5-1.2,5.1-2.2,7.7-3
					c2.6-0.8,5.1-1.6,7.5-2.4c2.2-0.7,4.4-1.8,6.3-3.2c3.8-2.7,6.9-6.8,10.8-10.7C68,5.7,71.8,2.8,76,0.4C79.3,0,82.7-0.2,86.2-0.2z
					"/>
				<path id="Trazado_2597" class="st1" d="M142.2,46.7c-0.2,1.6-0.5,3.1-0.9,4.6c-2.1,0.2-4.2,0.5-6.2,0.9c-3.8,0.8-7.4,2.5-10.5,5
					c-1.4,1.2-2.7,2.5-3.8,3.9c-1.1,1.4-2,2.9-2.8,4.5c-1,2.1-2.3,4.1-3.8,5.8c-1.8,1.7-4,3-6.4,3.7c-2,0.6-4,1.1-6,1.5
					c-1.8,0.4-3.5,0.9-5.3,1.5c-3.6,1.3-7.1,3.1-10.3,5.3l-0.5-0.4c1.9-3.9,4.8-7.1,8.4-9.5c1.8-1.2,3.7-2.3,5.8-3.1
					c2-0.8,3.9-1.3,5.5-2c1.4-0.5,2.8-1.2,4-2.1c1.2-1.2,2.3-2.5,3.2-3.9c1.2-1.9,2.7-3.6,4.5-5c1.7-1.4,3.7-2.5,5.7-3.3
					c4-1.6,7.9-2.5,11.7-3.9C137.1,49.2,139.7,48,142.2,46.7z"/>
				<path id="Trazado_2598" class="st1" d="M93.4,33.5c-1.3,5.1-4.9,9.4-8.7,12.8c-1.9,1.7-3.9,3.3-6,4.7c-2,1.5-4.1,2.9-6.2,4.2
					c-4.4,2.7-9.1,4.9-14,6.4C56,62.4,53.6,63,51,63.5c-2.5,0.5-5,0.7-7.4,1.1c-2.4,0.3-4.8,0.8-7.2,1.4c-1.2,0.3-2.3,0.7-3.5,1.2
					c-1.1,0.4-2.2,0.9-3.3,1.5c-4.3,2.2-7.9,5.8-11.4,9c-1.8,1.6-3.5,3.2-5.3,4.8c-1.8,1.6-3.5,3.2-5.3,4.9L3,91.8
					c-0.4-1.7-0.8-3.4-1.2-5.3c0.6-1,1.3-1.9,2-2.8c0.8-1,1.6-2,2.4-3C7.1,79.8,8,78.9,8.9,78c1.8-1.8,3.8-3.4,6-4.8
					c4.4-2.8,9.2-4.6,13.9-6.5s9.3-3.8,14-5.6c2.3-0.9,4.6-1.9,6.9-2.7c2.3-0.9,4.5-1.7,6.7-2.6c4.3-1.9,8.4-4.3,12.6-6.7l12.7-7
					c4.2-2.3,8-5.3,11.3-8.8L93.4,33.5z"/>
				<path id="Trazado_2599" class="st1" d="M81.6,79.1c0,2.2-0.4,4.4-1,6.5c-1.3,4-3.3,7.8-5.8,11.2c-2.3,3.4-4.8,6.6-7.4,9.7
					c-1.3,1.6-2.7,3-4.1,4.5c-1.4,1.4-2.8,2.9-4.3,4.2c-5.9,5.4-12.3,10.3-19,14.6c-1.7,1.1-3.4,2.2-5.1,3.2
					c-1.3-0.8-2.6-1.7-3.8-2.6c7.9-6.7,15.8-13.3,23.1-20.5c5.6-5.3,10.8-10.9,15.6-16.9c2.3-2.9,4.3-6,5.8-9.3
					c1.3-3.1,2.3-7.1,1.1-9.5c-0.8-1.3-2.2-2.1-3.7-2.2c-1.8-0.2-3.7-0.2-5.6,0c-3.8,0.6-7.6,1.7-11.1,3.2
					c-7.2,3.1-13.6,7.7-20.2,12c-3.3,2.1-6.7,4.1-10.1,6c-3.4,2-6.8,3.9-10.3,5.8c-2.9,1.6-5.7,3.1-8.6,4.6c-0.5-1.1-1-2.4-1.6-3.8
					c2.4-1.9,4.9-3.6,7.4-5.4c3.3-2.2,6.6-4.4,10-6.5c3.4-2.1,6.8-4,10.4-5.8c7.2-3.4,14.6-6.4,22.1-9.1c3.7-1.4,7.6-2.6,11.5-3.5
					c1-0.2,2-0.4,3-0.5c1.1-0.1,2.1-0.2,3.2-0.2c1.2,0,2.3,0.3,3.4,0.7c1.2,0.5,2.3,1.3,3.1,2.3C81,74.2,81.7,76.7,81.6,79.1z"/>
				<path id="Trazado_2600" class="st1" d="M54.3,102.4c-1.3,2.6-2.8,5.1-4.6,7.4c-3.4,4.6-7.4,8.7-11.9,12.2
					c-3.1,2.4-6.3,4.5-9.5,6.6c-1.7-1.3-3.3-2.6-4.7-4c1.2-1,2.4-2,3.6-3l6.2-5.2c4.1-3.3,7.9-6.8,11.5-10.6c1.7-1.9,3.3-3.9,4.7-6
					c1.4-1.9,2.4-4.1,2.8-6.4c0.1-0.5,0.1-1,0-1.5c0-0.3-0.2-0.6-0.4-0.8c-0.4-0.3-0.8-0.4-1.3-0.5c-0.6,0-1.2,0-1.8,0
					c-2.6,0.3-5.2,1-7.6,2.1c-4.9,2.2-8.9,6-13,9.4c-2.1,1.7-4.3,3.3-6.5,4.9l-6.7,4.5l-2.2,1.5c-1.2-1.5-2.1-2.8-2.8-3.9
					c0,0,0,0,0-0.1c0.6-0.6,1.2-1.1,1.8-1.7c2.1-1.9,4.2-3.6,6.4-5.2c2.2-1.7,4.5-3.2,6.8-4.6c4.9-2.7,10.1-5,15.4-6.8
					c2.6-1,5.3-1.8,8.1-2.4c0.7-0.2,1.5-0.2,2.2-0.3c0.9,0,1.8,0.1,2.6,0.5c0.9,0.5,1.7,1.3,2.1,2.2c0.3,0.8,0.6,1.7,0.6,2.5
					C56.3,96.4,55.7,99.6,54.3,102.4z"/>
				<path id="Trazado_2601" class="st1" d="M107.9,109.4c0,1.7-0.5,3.4-1.4,4.9c-0.9,1.5-1.9,2.8-3.1,4c-2.3,2.3-4.6,4.2-6.3,6
					c-0.8,0.9-1.6,1.8-2.2,2.9c-0.9,1.6-2.1,3-3.4,4.2c-0.8,0.7-1.8,1.3-2.9,1.7c-1,0.3-2,0.5-3,0.6c-1.7,0-3.4-0.2-5-0.7
					c-1.4-0.4-2.9-0.6-4.3-0.6c-1.4,0.1-2.8,0.4-4.1,1.1c-2.6,1.3-4.4,3.9-5.9,6.1c-0.8,1.1-1.6,2.2-2.5,3.3c0,0-0.1,0.1-0.1,0.1
					c-2.1-0.2-4.2-0.5-6.3-0.9c0.4-0.9,0.9-1.8,1.5-2.7c0.9-1.4,2-2.7,3.4-3.7c2.7-2.1,6.1-3.1,9.1-4.1c1.5-0.5,3.1-0.9,4.7-1.3
					s3.2-0.6,4.7-0.8c1.4-0.2,2.7-0.5,4.1-1c0.9-0.3,1.7-0.8,2.3-1.5c0.7-1,1.3-2.1,1.8-3.2c0.8-1.6,1.9-3.1,3.2-4.4
					c2.5-2.1,5.2-3.8,8.1-5.2c2.6-1.3,4.9-2.5,7-4.9L107.9,109.4z"/>
			</g>
			<g id="Grupo_1627" transform="translate(50.827 7.739)">
				
					<linearGradient id="Trazado_2602_1_" gradientUnits="userSpaceOnUse" x1="-926.3872" y1="591.2456" x2="-926.2692" y2="590.7286" gradientTransform="matrix(31.0659 0 0 -23.6517 28797.6699 14001.2871)">
					<stop  offset="0" style="stop-color:#95272D"/>
					<stop  offset="1" style="stop-color:#7B272D"/>
				</linearGradient>
				<path id="Trazado_2602" class="st4" d="M33.6,13.7c1.1,6.3-4.9,12.6-13.4,14.1S4,25.3,2.9,19c-0.1-0.7-0.2-1.5-0.1-2.2
					c0.5-5.5,6-10.6,13.5-11.8c6.8-1.2,13-0.2,15.8,4.1C32.9,10.5,33.4,12.1,33.6,13.7z"/>
				
					<radialGradient id="Elipse_277_1_" cx="-924.7061" cy="585.1438" r="0.698" gradientTransform="matrix(22.7663 -4.2468 -3.1099 -16.8106 22889.4297 5923.4482)" gradientUnits="userSpaceOnUse">
					<stop  offset="0" style="stop-color:#C1272D"/>
					<stop  offset="0.992" style="stop-color:#95272D"/>
				</radialGradient>
				<path id="Elipse_277" class="st5" d="M15.6,2.4C24,1,31.8,4.9,32.9,11.3c1.1,6.3-4.9,12.6-13.4,14.1C11,26.8,3.2,22.8,2.1,16.5
					S7.1,3.9,15.6,2.4z"/>
			</g>
			<g id="Grupo_1628" transform="translate(17.714 33.686)">
				
					<linearGradient id="Trazado_2603_1_" gradientUnits="userSpaceOnUse" x1="-893.2709" y1="565.2988" x2="-893.1529" y2="564.7818" gradientTransform="matrix(31.0658 0 0 -23.6522 27768.873 13387.8428)">
					<stop  offset="0" style="stop-color:#2981CF"/>
					<stop  offset="0.996" style="stop-color:#1C598F"/>
				</linearGradient>
				<path id="Trazado_2603" class="st6" d="M33.7,13.7c1.1,6.3-4.9,12.6-13.4,14.1S4.1,25.3,3,19c-0.1-0.7-0.2-1.5-0.1-2.2
					c0.5-5.5,6-10.6,13.5-11.8c6.8-1.2,13-0.2,15.8,4.1C33,10.5,33.5,12.1,33.7,13.7z"/>
				
					<radialGradient id="Elipse_278_1_" cx="-889.8978" cy="565.202" r="0.5931" gradientTransform="matrix(23.1406 1.215148e-03 2.884791e-03 -23.2338 20608.7168 13146.7373)" gradientUnits="userSpaceOnUse">
					<stop  offset="0" style="stop-color:#73AEE2"/>
					<stop  offset="0.996" style="stop-color:#2981CF"/>
				</radialGradient>
				<path id="Elipse_278" class="st7" d="M15.7,2.4C24.1,1,31.9,4.9,33,11.3S28,23.9,19.5,25.3c-8.5,1.5-16.2-2.5-17.3-8.8
					S7.2,3.9,15.7,2.4z"/>
			</g>
			<g id="Grupo_1629" transform="translate(9.301 69.247)">
				
					<linearGradient id="Trazado_2604_1_" gradientUnits="userSpaceOnUse" x1="-884.9119" y1="529.9928" x2="-884.7579" y2="529.2609" gradientTransform="matrix(31.066 0 0 -23.6522 27507.7363 12546.7803)">
					<stop  offset="0" style="stop-color:#FFD13B"/>
					<stop  offset="0.985" style="stop-color:#E6B520"/>
				</linearGradient>
				<path id="Trazado_2604" class="st8" d="M33.8,13.7c1.1,6.3-4.9,12.6-13.4,14.1C11.9,29.2,4.1,25.3,3,19
					c-0.1-0.7-0.2-1.5-0.1-2.2C3.4,11.2,9,6.2,16.4,4.9c6.8-1.2,13-0.2,15.8,4.1C33,10.5,33.5,12.1,33.8,13.7z"/>
				
					<radialGradient id="Elipse_279_1_" cx="-881.4849" cy="529.641" r="0.5931" gradientTransform="matrix(23.1406 1.215148e-03 2.884791e-03 -23.2338 20414.1641 12320.5107)" gradientUnits="userSpaceOnUse">
					<stop  offset="0" style="stop-color:#F9EF93"/>
					<stop  offset="0.511" style="stop-color:#F9E83F"/>
					<stop  offset="0.981" style="stop-color:#FFCF3B"/>
				</radialGradient>
				<path id="Elipse_279" class="st9" d="M15.7,2.4C24.2,1,31.9,4.9,33,11.3s-4.9,12.6-13.4,14.1c-8.5,1.5-16.2-2.5-17.3-8.8
					S7.2,3.9,15.7,2.4z"/>
			</g>
			<g id="Grupo_1630" transform="translate(33.63 102.217)">
				
					<linearGradient id="Trazado_2605_1_" gradientUnits="userSpaceOnUse" x1="-909.2659" y1="497.0018" x2="-909.028" y2="496.383" gradientTransform="matrix(31.0656 0 0 -23.6531 28263.0918 11767.3984)">
					<stop  offset="0" style="stop-color:#7D9743"/>
					<stop  offset="0.996" style="stop-color:#778742"/>
				</linearGradient>
				<path id="Trazado_2605" class="st10" d="M33.7,13.7c1.1,6.3-4.9,12.6-13.4,14.1S4,25.3,3,19c-0.1-0.7-0.2-1.5-0.1-2.2
					c0.5-5.5,6-10.6,13.5-11.8c6.8-1.2,13-0.2,15.8,4.1C32.9,10.5,33.4,12.1,33.7,13.7z"/>
				
					<radialGradient id="Elipse_280_1_" cx="-905.8138" cy="496.671" r="0.5931" gradientTransform="matrix(23.1406 1.215148e-03 2.884791e-03 -23.2338 20977.1719 11554.5234)" gradientUnits="userSpaceOnUse">
					<stop  offset="0" style="stop-color:#A2C94B"/>
					<stop  offset="0.528" style="stop-color:#7DB543"/>
					<stop  offset="1" style="stop-color:#7D9743"/>
				</radialGradient>
				<path id="Elipse_280" class="st11" d="M15.6,2.4c8.5-1.5,16.2,2.5,17.3,8.8S28,23.9,19.5,25.3C11,26.8,3.3,22.8,2.2,16.5
					S7.1,3.9,15.6,2.4z"/>
			</g>
		</g>
	</g>
</g>
</svg>
