<?xml version="1.0" encoding="utf-8"?>
<!-- Generator: Adobe Illustrator 24.3.0, SVG Export Plug-In . SVG Version: 6.00 Build 0)  -->
<svg version="1.1" id="Capa_1" xmlns="http://www.w3.org/2000/svg" xmlns:xlink="http://www.w3.org/1999/xlink" x="0px" y="0px"
	 viewBox="0 0 221 221" style="enable-background:new 0 0 221 221;" xml:space="preserve">
<style type="text/css">
	.st0{fill:url(#Elipse_275_1_);}
	.st1{fill:#492C15;}
	.st2{fill:#94602E;}
	.st3{fill:#A1C722;}
	.st4{fill:#82A405;}
	.st5{opacity:0.7;}
	.st6{fill:#D39059;}
	.st7{fill:url(#Trazado_2586_1_);}
	.st8{fill:url(#Trazado_2587_1_);}
	.st9{fill:url(#Trazado_2588_1_);}
	.st10{fill:url(#Trazado_2589_1_);}
	.st11{fill:url(#Trazado_2590_1_);}
	.st12{fill:url(#Trazado_2591_1_);}
</style>
<g>
	
		<radialGradient id="Elipse_275_1_" cx="-846.5909" cy="650.1081" r="0.5" gradientTransform="matrix(220.6747 0 0 -220.7478 186931.4375 143620.4531)" gradientUnits="userSpaceOnUse">
		<stop  offset="6.800000e-02" style="stop-color:#CFFFEA"/>
		<stop  offset="0.612" style="stop-color:#60E9C0"/>
		<stop  offset="0.996" style="stop-color:#00BAAE"/>
	</radialGradient>
	<ellipse id="Elipse_275" class="st0" cx="110.3" cy="110.5" rx="110.3" ry="110.4"/>
	<g id="Grupo_1624" transform="translate(35.325 26.528)">
		<path id="Trazado_2547" class="st1" d="M131.8,80.8c-0.3-0.3-0.6-0.6-0.8-0.9c-2.7-2.8-6.6-4.6-12-5.6c-3.7-0.8-7.5-0.8-11.2,0.1
			c0-4-0.7-7.9-2.2-11.6c-0.8-2.4-2-4.6-3.3-6.7c0,0,0,0,0,0l0,0c-1.6-2.6-3.9-4.7-6.6-6.2c-0.6-0.3-1.4-0.1-1.7,0.5
			c-0.2,0.3-0.2,0.6-0.1,0.9c1,3.3,1.7,6.7,2.1,10.1c0.1,2.7,0,5.4-0.2,8.1c0,0.6-0.1,1.2-0.1,1.8c-0.5-0.4-1.1-0.8-1.7-1.1
			c-3.4-1.9-7-3.2-10.9-3.7c-0.7-1-1.4-2-2.1-3c-1.5-2-3.2-4-5-5.8c-0.6-0.6-1.2-1.1-1.8-1.7c1.3,0,2.4,0.1,3.5,0.2
			c4.4,0.6,8.7,1.7,12.8,3.1c0.7,0.2,1.4-0.2,1.6-0.8c0.1-0.3,0.1-0.6-0.1-0.9c-2-3.9-5-7.1-8.7-9.3c0,0-0.1,0-0.1-0.1
			c-0.4-0.3-0.9-0.6-1.4-0.8c0.3,0,0.5-0.1,0.8-0.1c3.4-0.5,6.9-0.6,10.4-0.5c1.7,0,3.3,0.1,5,0.2c0.5,0,1-0.2,1.2-0.7
			c0.2-0.5,0.2-1-0.2-1.4c-4-4.7-10.3-7.9-18.6-9.4l0.2-0.1c4.1-1.8,8.3-3.2,12.7-4.3l1.9-0.5c0.7-0.2,1.1-0.9,0.9-1.5
			c-0.1-0.3-0.3-0.6-0.5-0.7c-5.9-3.8-13.6-4.8-23.5-3.2c-5.6,0.8-11.1,2.6-16,5.4c-1.2,0.7-2.3,1.5-3.4,2.3
			c-0.1-1.2-0.2-2.5-0.3-3.7c-0.4-4-0.5-8.1-0.4-12.1c0.5-5.1,1.6-10.2,3.1-15.1C55.3,1,55,0.3,54.3,0.1c-0.3-0.1-0.6,0-0.9,0.1
			c-3.9,2.1-7.2,5.2-9.5,9l0,0c0,0,0,0,0,0.1c-2,3.1-3.6,6.4-4.9,9.8c-2.3,5.6-3.3,11.7-3.1,17.8c-4.8-1.4-10.5-1.5-17.1-0.3
			c-7.8,1.4-13.5,4.1-17.4,8c-0.4,0.4-0.8,0.9-1.2,1.4c-0.3,0.4-0.3,1-0.1,1.4c0.3,0.5,0.8,0.7,1.3,0.7c4.4-0.5,8.8-0.7,13.2-0.4
			c3.4,0.4,6.9,1.1,10.2,2l1,0.2c-3.2,1.4-6.2,3.1-9,5.2c-6.5,4.7-10.5,9.8-12.1,15.3c-0.1,0.4-0.2,0.7-0.3,1.1
			c-0.2,0.7,0.3,1.4,1,1.5c0.3,0.1,0.6,0,0.9-0.1c3.7-2.4,7.7-4.4,11.8-6c2.3-0.8,4.7-1.4,7.1-1.9c-1.7,3.3-3.1,6.8-4.1,10.4
			c-1.9,6.8-2.2,12.5-1.2,17.5c0.4,1.8,1,3.5,1.8,5.2c0.2,0.5,0.7,0.7,1.2,0.7c0.5,0,0.9-0.3,1.1-0.8c1.6-4.6,3.6-9.1,6-13.4
			c2.1-3.2,4.4-6.3,7-9.1c1.5-1.7,3-3.5,4.4-5.3c2.1-2.7,3.9-5.5,5.4-8.6c1.6,3,2.9,6,4,9.2c-0.3,0.6,0,1.4,0.6,1.7c0,0,0,0,0,0
			c0.4,1.3,0.9,2.7,1.3,4.2c0,0.2,0.1,0.4,0.2,0.6c0.4,1.3,0.7,2.6,1.1,4c0,0.2,0,0.3,0.1,0.4c0.4,1.8,0.9,3.6,1.3,5.6
			c0,0.1,0,0.3,0.1,0.4c0.5,2.4,1,4.9,1.4,7.5c-0.3,0.5-0.2,1.2,0.3,1.6c0.3,2.1,0.7,4.3,1,6.6c-0.4,0.5-0.4,1.3,0.2,1.8
			c0,0,0.1,0,0.1,0.1c0.4,3.2,0.7,6.5,1,9.9c0,0.1,0,0.2,0,0.4c0.3,3.3,0.5,6.6,0.7,9.9h-4.3c-5.4,0-9.7,4.3-9.7,9.7v22.4
			c0,5.4,4.3,9.7,9.7,9.7h20.9c1.1,0.5,2.2,0.8,3.4,0.8h33.6c4.3,0,7.7-3.5,7.7-7.7V143c0-4.3-3.4-7.7-7.7-7.7h-4.4v-0.4
			c0-5.4-4.3-9.7-9.7-9.7h-7.6c0.1-1.4,0.3-2.8,0.5-4.1c0.2-0.3,0.3-0.8,0.2-1.2c0,0,0-0.1,0-0.1c0.2-1.5,0.4-3,0.6-4.4
			c0.2-0.3,0.2-0.6,0.2-0.9c0,0,0-0.1,0-0.1c0.3-1.8,0.6-3.5,1-5.1c0-0.1,0-0.2,0.1-0.2c0.3-1.4,0.6-2.7,0.9-3.9l-0.1,0v0l0.1,0
			c0.2-1,0.5-1.9,0.7-2.7c0.1-0.2,0.2-0.4,0.2-0.6c0.3-0.9,0.6-1.8,0.8-2.6c0.3-0.3,0.4-0.6,0.4-1c0,0,0-0.1,0-0.1
			c0.7-1.9,1.5-3.7,2.3-5.5c0.9,1.8,2.1,3.5,3.3,5.1c0.9,1.2,2,2.4,3,3.6c1.7,1.9,3.3,4,4.7,6.1c1.6,2.9,3,5.9,4,9
			c0.2,0.5,0.6,0.8,1.1,0.8c0.5,0,1-0.2,1.2-0.7c0.6-1.1,1-2.4,1.2-3.6c0.7-4,0.4-8.1-0.8-12c-0.6-2.2-1.4-4.3-2.4-6.3
			c1.3,0.3,2.6,0.6,3.9,1.1c2.7,1.1,5.4,2.4,7.9,4c0.6,0.4,1.4,0.2,1.7-0.4c0.2-0.3,0.2-0.6,0.1-0.9c-0.1-0.3-0.1-0.5-0.2-0.8
			c-1.1-3.7-3.9-7.3-8.3-10.5c-1.6-1.2-3.3-2.2-5-3c2.1-0.6,4.2-1,6.3-1.2c3-0.2,6-0.1,8.9,0.3c0.5,0.1,1-0.2,1.2-0.7
			C132.2,81.7,132.2,81.2,131.8,80.8z M88.5,99L88.5,99L88.5,99c-0.4,1-0.7,2.1-1,3.1l0,0v0l0,0c-0.3,1.1-0.6,2.2-0.9,3.3
			c-0.3,0.3-0.4,0.8-0.3,1.2c-0.4,1.8-0.9,3.7-1.2,5.6c-0.2,0.3-0.3,0.7-0.2,1.1c-0.1,0.4-0.2,0.9-0.3,1.3c-0.4,0-0.8-0.1-1.3-0.1
			c-0.2,0-0.3,0-0.5,0H71.6l-0.1-1c0.1-0.3,0-0.5-0.1-0.8c-0.3-3.1-0.8-6.2-1.2-9.4c0.3-0.5,0.2-1.1-0.2-1.5c0,0,0,0,0,0
			c-0.4-2.8-0.9-5.5-1.4-8.1c0.1-0.4,0-0.8-0.2-1.1c-0.6-3-1.2-5.9-1.9-8.7c0,0,0,0,0-0.1c0.2-0.5,0-1-0.4-1.3L65.9,82
			c1,0,1.9-0.1,2.9-0.1c2.1-0.1,4.2,0,6.3,0.2l0,0c-2.6,1.6-4.7,3.8-6,6.5c-0.3,0.6,0,1.4,0.6,1.7c0.3,0.1,0.6,0.2,0.9,0.1
			c2.8-1,5.7-1.7,8.6-2.1c0.4,0,0.8-0.1,1.3-0.1c-0.1,0.1-0.3,0.3-0.4,0.4c-1.2,1.2-2.4,2.6-3.4,4c-2.6,3.2-4.5,7-5.4,11.1
			c-0.3,1.4-0.3,2.8-0.2,4.2c0.1,0.7,0.7,1.2,1.4,1.2c0.3,0,0.6-0.2,0.8-0.4c3.9-4.8,8.8-8.7,14.4-11.3c0.6-0.3,1.2-0.7,1.8-1
			C89.1,97.2,88.8,98.1,88.5,99L88.5,99z M65.2,79.1c-0.1-0.5-0.3-1.1-0.4-1.6c0-0.3-0.1-0.5-0.2-0.7c-0.4-1.2-0.7-2.4-1.1-3.6
			c0-0.4-0.1-0.7-0.3-1c-0.6-1.7-1.1-3.3-1.8-5c1.4,0.8,2.8,1.5,4.2,2.3l0.8,0.4c0.1,0.5,0.5,0.8,0.9,1l1.6,0.4
			c1.6,0.9,3.3,1.8,5,2.9C70.5,75.1,67.6,76.8,65.2,79.1L65.2,79.1z M83.8,119.8c-0.3,1.8-0.5,3.6-0.7,5.4H72.6
			c-0.1-2-0.3-4.1-0.5-6.2l10,0c0.5,0,1.1,0,1.6,0C83.6,119.3,83.7,119.6,83.8,119.8L83.8,119.8z"/>
		<g id="Grupo_1623" transform="translate(1.225 1.267)">
			<g id="Grupo_1614">
				<path id="Trazado_2548" class="st2" d="M60.5,162.8c0,0,5.7,2.9,10.1,0c0,0,4.7-74-19.6-112.6l-3.8-3.8l-6,5.5
					C41.2,52,63.5,69.8,60.5,162.8z"/>
				<g id="Grupo_1613">
					<g id="Grupo_1611">
						<path id="Trazado_2549" class="st3" d="M81.2,44.5c-1.4,0.2-2.8,0.5-4.2,0.9c1.5,0.7,3,1.6,4.4,2.5h0c3.5,2.1,6.4,5.2,8.3,8.8
							c-4.2-1.5-8.6-2.5-13.1-3.1c-2.4-0.2-4.8-0.3-7.1-0.2c1.5,1.2,3,2.4,4.3,3.8c1.8,1.8,3.4,3.7,4.9,5.7c3.5,4.7,6.6,10,7.6,15.7
							c0.4,1.9,0.5,3.8,0.3,5.7c-3.4-4-7.2-7.6-11.2-10.8c-5.2-3.9-11.2-6.4-16.8-9.7c-3.7-2.3-8.7-5.4-11.1-9.5
							c-0.3-0.4-0.5-0.9-0.7-1.4c0-0.1-0.1-0.2-0.1-0.3v0c-0.1-0.3-0.2-0.5-0.2-0.8c-0.2,0.2-0.5,0.3-0.7,0.4c0.1,0.3,0.1,0.7,0,1
							c0,0.1-0.1,0.2-0.1,0.3c0,0,0,0.1,0,0.2c0,0.1,0,0.2,0,0.2v0c0,0.1,0,0.3,0,0.5c-0.1,4.8-3.8,10.1-6.6,13.8
							C35.4,73,31,77.4,27.7,82.6c-2.5,4.3-4.5,8.9-6.1,13.6c-0.8-1.6-1.3-3.2-1.7-4.9c-1.2-5.5-0.3-11.4,1.2-16.9
							c1.2-4.4,3-8.6,5.4-12.5C18.5,63.1,11,66,4.4,70.5c0.1-0.4,0.2-0.7,0.3-1.1c1.7-6,6.5-10.8,11.6-14.6
							c3.8-2.9,8.2-5.1,12.9-6.4c-5.2-1.1-10.3-2.8-15.7-3.3C8.9,44.9,4.4,45-0.1,45.5c0.4-0.4,0.7-0.9,1.1-1.3
							c4.3-4.4,10.6-6.6,16.7-7.7c6.1-1.1,12.7-1.3,18.3,0.9c-0.8-6.3,0.6-13.1,2.9-19.2c1.2-3.4,2.8-6.6,4.7-9.6c0,0,0,0,0,0
							c2.2-3.6,5.4-6.5,9-8.6c-1.5,5-2.6,10.1-3.1,15.3c-0.4,6.2,0.5,12.4,0.8,18.6c1.5-1.5,3.3-2.8,5.1-3.9
							c4.8-2.7,10.1-4.5,15.6-5.3c7.7-1.2,16.1-1.1,22.6,3.1c-0.6,0.2-1.3,0.3-1.9,0.5c-4.4,1-8.7,2.5-12.9,4.3
							c-1.2,0.6-2.4,1.2-3.6,1.9c0.3,0,0.5,0.1,0.8,0.1c7.7,1.1,15.7,3.6,20.8,9.5c-1.7-0.1-3.3-0.1-5-0.2
							C88.3,43.9,84.7,44.1,81.2,44.5z"/>
						<path id="Trazado_2550" class="st4" d="M46,53.6c-0.1,0.1-0.1,0.1-0.2,0.2c0,0,0,0,0,0c-2.8,3-5.6,5.9-8.4,8.9
							c-3.8,4-7.2,8.2-10.3,12.7c-3.1,4.6-5.4,9.7-6.9,15.1c-0.1,0.3-0.2,0.6-0.2,0.9c-1.2-5.5-0.3-11.4,1.2-16.9
							c1.2-4.4,3-8.6,5.4-12.5C18.5,63.1,11,66,4.4,70.6c0.1-0.4,0.2-0.7,0.3-1.1c0.2-0.3,0.4-0.5,0.6-0.8c5.1-6,12.8-9,20.2-11.6
							c5.8-2,11.9-3.9,18-3.7c0,0,0,0,0,0c0.3,0,0.5,0,0.8,0c0.3,0,0.5,0,0.8,0.1l0.6,0.1C45.8,53.6,45.9,53.6,46,53.6z"/>
						<path id="Trazado_2551" class="st4" d="M43.1,55.3c0.3-0.3,0.6-0.6,0.9-0.9C43.7,54.8,43.4,55.1,43.1,55.3z"/>
						<path id="Trazado_2552" class="st4" d="M49.9,51.2c-1.1,0.3-2.2,0.7-3.2,1.3v0c-0.3,0.2-0.6,0.3-0.9,0.5
							c-0.2,0.1-0.4,0.3-0.6,0.4c-0.1,0.1-0.2,0.1-0.2,0.2c-0.3,0.2-0.7,0.5-1,0.8c0.2-0.3,0.3-0.6,0.4-0.9c0,0,0-0.1,0-0.1
							c0.2-0.6,0.2-1.3,0-1.9c0,0,0-0.1,0-0.1c-1.2-4.5-6.3-4.9-10.1-5.8c-4.5-1-9.1-1.6-13.6-1.9C14.1,43.3,7.5,43.5,1,44.3
							c4.3-4.4,10.6-6.6,16.7-7.7c6.1-1.1,12.7-1.3,18.3,0.9c-0.8-6.3,0.6-13.1,2.9-19.2c1.2-3.4,2.8-6.6,4.7-9.6
							c-0.3,4.8-0.6,9.6-1,14.4c-0.4,4.6-0.5,9.2-0.1,13.8c0.3,3.2,1.1,6.3,2.5,9.1c1,1.7,2.2,3.3,3.6,4.7
							C49.2,51.1,49.6,51.3,49.9,51.2z"/>
						<path id="Trazado_2553" class="st4" d="M93.7,27.9c-0.6,0.2-1.3,0.3-1.9,0.5c-4.4-0.3-8.9-0.1-13.3,0.6
							c-3.9,0.6-7.6,1.6-11.3,2.9c-3.6,1.2-6.2,4.6-8.9,7.3C52.5,45.1,47,51.4,42,58c1.2-1.5,1.4-5.3,1.9-7.2
							c0.8-2.6,1.7-5.2,2.8-7.7c2.1-4.8,5.1-9.3,8.8-13.1c4.8-2.7,10.1-4.5,15.6-5.3C78.8,23.6,87.2,23.7,93.7,27.9z"/>
						<path id="Trazado_2554" class="st4" d="M86.3,78.5c-2.3-2.8-4.7-5.5-7.4-7.9c-4.7-4.3-10-7.9-15.7-10.6
							c-3.5-1.7-7.1-3.2-10.8-4.5c-1.6-0.5-3.2-1-4.9-1.3c-0.4-0.1-0.7-0.1-1.1-0.2c-0.1,0-0.4-0.1-0.7-0.2c0,0,0,0,0,0
							c-0.2,0-0.5-0.1-0.8-0.2c-0.2,0-0.4-0.1-0.6-0.1c-0.3,0-0.6-0.1-0.8-0.2c-1.1-0.2-2.2-0.3-2.5,0c1-0.9,2.1-1.5,3.4-1.8
							c1.1-0.3,2.1-0.5,3.2-0.7c0.4-0.1,0.7-0.1,1.1-0.2c3-0.5,6.1-0.6,9.1-0.3c5.9,0.7,11.1,3.7,16,6.8c1.8,1.8,3.4,3.7,4.9,5.7
							C82.2,67.5,85.3,72.9,86.3,78.5z"/>
						<path id="Trazado_2555" class="st4" d="M81.2,44.5c-1.4,0.2-2.8,0.5-4.2,0.9c1.5,0.7,3,1.6,4.4,2.5c-3.4-1.3-6.9-2.3-10.4-2.8
							c-3.2-0.4-6.4-0.5-9.6-0.5c7.6-2.4,15.7-2.7,23.6-1.9c2.3,0.2,4.7,0.6,6.9,1.3C88.3,43.9,84.7,44.1,81.2,44.5z"/>
					</g>
					<g id="Grupo_1612" transform="translate(49.095 60.504)" class="st5">
						<path id="Trazado_2556" class="st6" d="M-0.3,3.5C1.2,3.3,2.7,3,4,2.4c0.7-0.3,1.3-0.6,2-0.9c0.6-0.4,1.2-0.9,1.6-1.5
							C7.3,0.7,6.9,1.4,6.3,1.9C5.6,2.3,5,2.7,4.2,2.9C2.8,3.6,1.3,3.7-0.3,3.5z"/>
						<path id="Trazado_2557" class="st6" d="M1.6,9.5c1.5-0.2,3-0.5,4.5-1C7.6,8,8.9,7.1,9.8,5.9C9.2,7.4,7.9,8.6,6.3,9
							C4.8,9.6,3.2,9.7,1.6,9.5z"/>
						<path id="Trazado_2558" class="st6" d="M3.6,14.8c1.5-0.2,3-0.5,4.5-1c1.5-0.5,2.7-1.4,3.7-2.5c-0.7,1.5-1.9,2.6-3.5,3.1
							C6.8,14.9,5.2,15,3.6,14.8z"/>
						<path id="Trazado_2559" class="st6" d="M4.9,19.3c1.5-0.2,3-0.5,4.5-1c1.4-0.5,2.7-1.4,3.7-2.5c-0.7,1.5-1.9,2.6-3.5,3.1
							C8.1,19.4,6.5,19.6,4.9,19.3z"/>
						<path id="Trazado_2560" class="st6" d="M6.4,25.4c1.6-0.2,3.2-0.5,4.7-1.1c1.5-0.5,2.8-1.5,3.8-2.8c-0.7,1.6-2,2.8-3.6,3.4
							C9.7,25.4,8.1,25.6,6.4,25.4z"/>
						<path id="Trazado_2561" class="st6" d="M7.7,33.9c1.7,0.1,3.3-0.1,5-0.3c1.6-0.3,3.1-1,4.4-2.2c-0.4,0.8-1.1,1.4-1.8,1.8
							c-0.7,0.5-1.6,0.8-2.4,1C11.1,34.5,9.4,34.4,7.7,33.9z"/>
						<path id="Trazado_2562" class="st6" d="M8.8,42.2c1.7,0.2,3.5,0.3,5.2,0.3c1.7-0.1,3.4-0.6,4.8-1.6c-0.6,0.7-1.3,1.3-2.1,1.6
							c-0.8,0.4-1.7,0.6-2.6,0.6C12.3,43.2,10.5,42.9,8.8,42.2z"/>
						<path id="Trazado_2563" class="st6" d="M10.4,53.3c1.7,0.1,3.3,0.1,5,0c1.7-0.1,3.2-0.7,4.6-1.7c-0.5,0.7-1.2,1.3-2,1.6
							c-0.8,0.4-1.6,0.6-2.5,0.7C13.7,54,12,53.8,10.4,53.3z"/>
						<path id="Trazado_2564" class="st6" d="M11.2,63.1c1.7,0.1,3.3,0.1,5,0c1.7-0.1,3.2-0.7,4.6-1.7c-0.5,0.7-1.2,1.3-2,1.6
							c-0.8,0.4-1.6,0.6-2.5,0.7C14.5,63.9,12.8,63.7,11.2,63.1z"/>
						<path id="Trazado_2565" class="st6" d="M11.6,71.3c1.7,0.2,3.3,0.3,5,0.2c1.7-0.1,3.3-0.6,4.6-1.5c-0.5,0.7-1.3,1.2-2.1,1.5
							c-0.8,0.3-1.7,0.5-2.5,0.6C14.9,72.2,13.2,71.9,11.6,71.3z"/>
						<path id="Trazado_2566" class="st6" d="M11.5,85.3c1.8,0.3,3.6,0.5,5.4,0.6c1.8,0.1,3.6-0.4,5.1-1.3c-0.6,0.7-1.5,1.2-2.4,1.5
							c-0.9,0.3-1.8,0.4-2.8,0.4C15.1,86.4,13.2,86,11.5,85.3z"/>
					</g>
				</g>
			</g>
			<g id="Grupo_1618" transform="translate(64.478 49.67)">
				<path id="Trazado_2567" class="st2" d="M24.2,109.8c0,0-3.9,1.9-6.8,0c0,0-3.2-50,13.2-76l2.6-2.6l4,3.7
					C37.2,35,22.2,47.1,24.2,109.8z"/>
				<g id="Grupo_1617">
					<g id="Grupo_1615">
						<path id="Trazado_2568" class="st3" d="M10.2,30c1,0.1,1.9,0.3,2.9,0.6c-1,0.5-2,1.1-3,1.7h0c-2.4,1.4-4.3,3.5-5.6,6
							c2.9-1,5.8-1.7,8.8-2.1c1.6-0.1,3.2-0.2,4.8-0.1c-1,0.8-2,1.6-2.9,2.6c-1.2,1.2-2.3,2.5-3.3,3.8c-2.5,3.1-4.3,6.7-5.1,10.6
							c-0.2,1.3-0.3,2.6-0.2,3.9c2.3-2.7,4.8-5.1,7.6-7.3c3.5-2.6,7.6-4.3,11.3-6.6c2.5-1.5,5.9-3.7,7.5-6.4
							c0.2-0.3,0.3-0.6,0.5-0.9c0-0.1,0.1-0.1,0.1-0.2v0c0.1-0.2,0.1-0.4,0.1-0.6c0.1,0.1,0.3,0.2,0.5,0.2c-0.1,0.2-0.1,0.5,0,0.7
							c0,0.1,0,0.2,0.1,0.2c0,0,0,0.1,0,0.1c0,0.1,0,0.1,0,0.2v0c0,0.1,0,0.2,0,0.3c0.1,3.3,2.6,6.8,4.5,9.3
							c2.5,3.3,5.5,6.3,7.7,9.8c1.7,2.9,3.1,6,4.1,9.2c0.5-1.1,0.9-2.2,1.1-3.3c0.6-3.8,0.4-7.7-0.8-11.4c-0.8-3-2-5.8-3.6-8.4
							c5.3,0.8,10.4,2.8,14.9,5.8c-0.1-0.3-0.1-0.5-0.2-0.8c-1.2-4.1-4.4-7.3-7.8-9.8c-2.6-2-5.5-3.4-8.7-4.3
							c3.5-0.7,7-1.9,10.6-2.2c3.1-0.2,6.1-0.1,9.2,0.3c-0.2-0.3-0.5-0.6-0.8-0.9c-2.9-3-7.2-4.4-11.3-5.2
							c-4.1-0.8-8.6-0.9-12.3,0.6c0.4-4.4-0.3-8.8-1.9-12.9C38,10,36.9,7.8,35.6,5.8c0,0,0,0,0,0C34.1,3.4,32,1.4,29.5,0
							c1,3.4,1.7,6.8,2.1,10.3c0.3,4.2-0.4,8.4-0.5,12.6c-1-1-2.2-1.9-3.5-2.7c-3.3-1.8-6.8-3-10.5-3.5c-5.2-0.8-10.8-0.8-15.3,2.1
							c0.4,0.1,0.9,0.2,1.3,0.3c3,0.7,5.9,1.7,8.7,2.9c0.8,0.4,1.6,0.8,2.4,1.3c-0.2,0-0.4,0-0.5,0.1c-5.2,0.7-10.6,2.4-14,6.4
							c1.1,0,2.3-0.1,3.4-0.1C5.5,29.6,7.9,29.7,10.2,30z"/>
						<path id="Trazado_2569" class="st4" d="M34,36.1c0,0,0.1,0.1,0.1,0.1c0,0,0,0,0,0c1.9,2,3.8,4,5.7,6c2.5,2.7,4.9,5.5,7,8.5
							c2.1,3.1,3.6,6.6,4.7,10.2c0.1,0.2,0.1,0.4,0.2,0.6c0.6-3.8,0.4-7.7-0.8-11.4c-0.8-3-2-5.8-3.6-8.4c5.3,0.8,10.4,2.8,14.9,5.8
							c-0.1-0.3-0.1-0.5-0.2-0.8c-0.1-0.2-0.3-0.3-0.4-0.5c-3.4-4-8.6-6.1-13.7-7.8c-3.9-1.4-8.1-2.6-12.2-2.5c0,0,0,0,0,0
							c-0.2,0-0.4,0-0.6,0c-0.2,0-0.3,0-0.5,0l-0.4,0C34.1,36.1,34.1,36.1,34,36.1z"/>
						<path id="Trazado_2570" class="st4" d="M36,37.3c-0.2-0.2-0.4-0.4-0.6-0.6C35.6,36.9,35.8,37.1,36,37.3z"/>
						<path id="Trazado_2571" class="st4" d="M31.4,34.5c0.8,0.2,1.5,0.5,2.2,0.9v0c0.2,0.1,0.4,0.2,0.6,0.4
							c0.1,0.1,0.3,0.2,0.4,0.3c0,0,0.1,0.1,0.1,0.1c0.2,0.2,0.5,0.3,0.7,0.5c-0.1-0.2-0.2-0.4-0.3-0.6c0,0,0,0,0-0.1
							c-0.1-0.4-0.1-0.9,0-1.3c0,0,0-0.1,0-0.1c0.8-3,4.3-3.3,6.9-3.9c3-0.7,6.1-1.1,9.2-1.3c4.4-0.3,8.8-0.2,13.2,0.3
							c-2.9-3-7.2-4.4-11.3-5.2c-4.1-0.8-8.6-0.9-12.3,0.6c0.4-4.4-0.3-8.8-1.9-12.9C38,10,36.9,7.8,35.6,5.8
							c0.2,3.2,0.4,6.5,0.7,9.7c0.3,3.1,0.3,6.2,0.1,9.3c-0.2,2.1-0.8,4.2-1.7,6.2c-0.7,1.2-1.5,2.2-2.4,3.2
							C31.9,34.4,31.6,34.6,31.4,34.5z"/>
						<path id="Trazado_2572" class="st4" d="M1.8,18.7c0.4,0.1,0.9,0.2,1.3,0.3c3-0.2,6-0.1,9,0.4c2.6,0.4,5.2,1.1,7.6,2
							c2.4,0.8,4.2,3.1,6,5c3.9,4,7.6,8.2,10.9,12.7c-0.8-1-0.9-3.6-1.3-4.8c-0.5-1.8-1.1-3.5-1.9-5.2c-1.4-3.3-3.5-6.2-5.9-8.8
							c-3.3-1.8-6.8-3-10.5-3.5C11.9,15.8,6.2,15.9,1.8,18.7z"/>
						<path id="Trazado_2573" class="st4" d="M6.8,52.9c1.5-1.9,3.2-3.7,5-5.3c3.2-2.9,6.7-5.3,10.6-7.1c2.4-1.2,4.8-2.2,7.3-3.1
							c1.1-0.4,2.2-0.7,3.3-0.9c0.2,0,0.5-0.1,0.7-0.1c0.1,0,0.3-0.1,0.5-0.1c0,0,0,0,0,0c0.2,0,0.3-0.1,0.5-0.1
							c0.1,0,0.3,0,0.4-0.1c0.2,0,0.4-0.1,0.6-0.1c0.8-0.1,1.5-0.2,1.7,0c-0.7-0.6-1.4-1-2.3-1.2c-0.7-0.2-1.4-0.4-2.2-0.5
							c-0.2,0-0.5-0.1-0.7-0.1c-2-0.3-4.1-0.4-6.2-0.2c-4,0.5-7.5,2.5-10.8,4.6c-1.2,1.2-2.3,2.5-3.3,3.8
							C9.4,45.4,7.7,49.1,6.8,52.9z"/>
						<path id="Trazado_2574" class="st4" d="M10.2,30c1,0.1,1.9,0.3,2.9,0.6c-1,0.5-2,1.1-3,1.7c2.3-0.9,4.6-1.5,7-1.9
							c2.2-0.2,4.3-0.4,6.5-0.3c-5.2-1.5-10.6-1.9-15.9-1.3c-1.6,0.1-3.1,0.4-4.7,0.9C5.5,29.6,7.9,29.7,10.2,30z"/>
					</g>
					<g id="Grupo_1616" transform="translate(17.363 40.845)" class="st5">
						<path id="Trazado_2575" class="st6" d="M14.7,2.3c-1-0.1-2-0.4-2.9-0.7c-0.5-0.2-0.9-0.4-1.3-0.6c-0.4-0.3-0.8-0.6-1-1
							c0.1,0.5,0.4,1,0.9,1.3c0.4,0.3,0.9,0.6,1.4,0.7C12.7,2.3,13.7,2.4,14.7,2.3z"/>
						<path id="Trazado_2576" class="st6" d="M13.5,6.3c-1-0.1-2-0.3-3-0.7c-1-0.3-1.8-0.9-2.5-1.7c0.4,1,1.3,1.8,2.4,2.1
							C11.3,6.4,12.4,6.5,13.5,6.3z"/>
						<path id="Trazado_2577" class="st6" d="M12.1,9.9c-1-0.1-2-0.3-3-0.7c-1-0.3-1.8-0.9-2.5-1.7c0.4,1,1.3,1.8,2.4,2.1
							C10,10,11,10,12.1,9.9z"/>
						<path id="Trazado_2578" class="st6" d="M11.2,13c-1-0.1-2-0.3-3-0.7c-1-0.3-1.8-0.9-2.5-1.7c0.4,1,1.3,1.8,2.4,2.1
							C9.1,13,10.2,13.1,11.2,13z"/>
						<path id="Trazado_2579" class="st6" d="M10.3,17c-1.1-0.1-2.2-0.4-3.2-0.7c-1-0.4-1.9-1-2.6-1.9c0.4,1.1,1.3,1.9,2.4,2.3
							C8,17.1,9.1,17.2,10.3,17z"/>
						<path id="Trazado_2580" class="st6" d="M9.3,22.8c-1.1,0-2.3,0-3.4-0.2c-1.1-0.2-2.1-0.7-2.9-1.5c0.3,0.5,0.7,0.9,1.2,1.2
							c0.5,0.3,1.1,0.5,1.6,0.6C7,23.2,8.2,23.2,9.3,22.8z"/>
						<path id="Trazado_2581" class="st6" d="M8.6,28.4c-1.2,0.2-2.3,0.2-3.5,0.2c-1.2,0-2.3-0.4-3.2-1.1c0.4,0.5,0.9,0.8,1.4,1.1
							C3.9,28.8,4.5,29,5.1,29C6.3,29.1,7.5,28.9,8.6,28.4z"/>
						<path id="Trazado_2582" class="st6" d="M7.6,35.9c-1.1,0.1-2.3,0.1-3.4,0c-1.1-0.1-2.2-0.5-3.1-1.1c0.3,0.5,0.8,0.9,1.4,1.1
							C3,36,3.6,36.2,4.1,36.3C5.3,36.4,6.5,36.2,7.6,35.9z"/>
						<path id="Trazado_2583" class="st6" d="M7,42.5c-1.1,0.1-2.3,0.1-3.4,0c-1.1-0.1-2.2-0.5-3.1-1.1c0.3,0.5,0.8,0.9,1.4,1.1
							c0.5,0.2,1.1,0.4,1.7,0.5C4.8,43.1,5.9,42.9,7,42.5z"/>
						<path id="Trazado_2584" class="st6" d="M6.8,48.1c-1.1,0.1-2.2,0.2-3.4,0.1c-1.1,0-2.2-0.4-3.1-1c0.4,0.5,0.8,0.8,1.4,1
							c0.5,0.2,1.1,0.4,1.7,0.4C4.5,48.7,5.7,48.5,6.8,48.1z"/>
						<path id="Trazado_2585" class="st6" d="M6.8,57.5c-1.2,0.2-2.4,0.4-3.6,0.4c-1.2,0-2.4-0.3-3.5-0.9c0.4,0.5,1,0.8,1.6,1
							c0.6,0.2,1.2,0.3,1.9,0.3C4.4,58.3,5.6,58,6.8,57.5z"/>
					</g>
				</g>
			</g>
			<g id="Grupo_1620" transform="translate(46.456 114.686)">
				
					<linearGradient id="Trazado_2586_1_" gradientUnits="userSpaceOnUse" x1="-925.7817" y1="504.3669" x2="-925.3427" y2="503.1236" gradientTransform="matrix(56.918 0 0 -39.3831 52713.2539 19869.209)">
					<stop  offset="0" style="stop-color:#22B573"/>
					<stop  offset="1" style="stop-color:#00877D"/>
				</linearGradient>
				<path id="Trazado_2586" class="st7" d="M60.5,19v22.4c0,4.7-3.8,8.4-8.4,8.4H12.1c-4.7,0-8.4-3.8-8.4-8.4V19
					c0-4.7,3.8-8.4,8.4-8.4H52C56.7,10.5,60.5,14.3,60.5,19z"/>
				<g id="Grupo_1619" transform="translate(16.094)">
					
						<linearGradient id="Trazado_2587_1_" gradientUnits="userSpaceOnUse" x1="-934.5256" y1="497.5039" x2="-934.5645" y2="497.1866" gradientTransform="matrix(24.7369 0 0 -16.3119 23130.9121 8115.98)">
						<stop  offset="0" style="stop-color:#B3B3B3"/>
						<stop  offset="1" style="stop-color:#666666"/>
					</linearGradient>
					<path id="Trazado_2587" class="st8" d="M1.7,15.1V5.6c0-1.3-0.3-3,1.1-3.7c1-0.2,2-0.3,2.9-0.2h11.5c1.1,0,2.2,0,3.2,0
						c1,0,1.8,0.7,1.9,1.7c0,0.4,0,0.7,0,1.1v10.5c0,0.5,0.5,1,1,1c0.5,0,0.9-0.4,1-1v-10c0-1.8-0.1-3.7-1.9-4.7
						c-1.2-0.5-2.5-0.7-3.8-0.5H6.6c-1,0-2,0-3,0c-2.5,0.1-3.9,2-3.9,4.3v10.9c0,0.5,0.5,1,1,1C1.2,16.1,1.7,15.6,1.7,15.1L1.7,15.1
						z"/>
				</g>
				
					<linearGradient id="Trazado_2588_1_" gradientUnits="userSpaceOnUse" x1="-925.5622" y1="504.2442" x2="-925.5622" y2="503.2463" gradientTransform="matrix(56.919 0 0 -39.3831 52710.2266 19869.209)">
					<stop  offset="0" style="stop-color:#22B573"/>
					<stop  offset="1" style="stop-color:#00877D"/>
				</linearGradient>
				<path id="Trazado_2588" class="st9" d="M56.5,19v22.4c0,4.7-3.8,8.4-8.4,8.4H8.2c-4.7,0-8.4-3.8-8.4-8.4V19
					c0-4.7,3.8-8.4,8.4-8.4h39.9C52.8,10.5,56.5,14.3,56.5,19z"/>
			</g>
			<g id="Grupo_1622" transform="translate(72.846 127.294)">
				
					<linearGradient id="Trazado_2589_1_" gradientUnits="userSpaceOnUse" x1="-950.5055" y1="490.3095" x2="-950.0665" y2="489.0663" gradientTransform="matrix(43.548 0 0 -30.1318 41407.5039 14778.2227)">
					<stop  offset="0" style="stop-color:#D35A2A"/>
					<stop  offset="1" style="stop-color:#994823"/>
				</linearGradient>
				<path id="Trazado_2589" class="st10" d="M46.1,14.4v17.2c0,3.6-2.9,6.4-6.4,6.5H9.1c-3.6,0-6.4-2.9-6.4-6.5V14.4
					C2.7,10.9,5.6,8,9.1,8h30.5C43.3,8,46.1,10.9,46.1,14.4z"/>
				<g id="Grupo_1621" transform="translate(12.314)">
					
						<linearGradient id="Trazado_2590_1_" gradientUnits="userSpaceOnUse" x1="-953.3116" y1="481.3805" x2="-953.3505" y2="481.0632" gradientTransform="matrix(18.937 0 0 -12.4666 18063.1875 6001.667)">
						<stop  offset="0" style="stop-color:#B3B3B3"/>
						<stop  offset="1" style="stop-color:#666666"/>
					</linearGradient>
					<path id="Trazado_2590" class="st11" d="M1.2,11.5V4.3c0-1-0.2-2.3,0.9-2.8c0.7-0.2,1.5-0.2,2.3-0.1h8.8c0.8,0,1.6,0,2.5,0
						c0.7,0,1.4,0.5,1.5,1.3c0,0.3,0,0.6,0,0.9v8c0,0.4,0.4,0.7,0.8,0.7c0.4,0,0.7-0.3,0.7-0.7V3.8c0-1.4-0.1-2.8-1.5-3.6
						c-0.9-0.4-1.9-0.5-2.9-0.4H4.9c-0.8,0-1.5,0-2.3,0c-1.7,0.1-3,1.5-3,3.2c0,0.1,0,0.1,0,0.2v8.4c0,0.4,0.4,0.7,0.8,0.7
						C0.8,12.2,1.1,11.9,1.2,11.5L1.2,11.5z"/>
				</g>
				
					<linearGradient id="Trazado_2591_1_" gradientUnits="userSpaceOnUse" x1="-950.2858" y1="490.1869" x2="-950.2858" y2="489.189" gradientTransform="matrix(43.548 0 0 -30.1318 41404.4336 14778.2227)">
					<stop  offset="0" style="stop-color:#D35A2A"/>
					<stop  offset="1" style="stop-color:#AD522A"/>
				</linearGradient>
				<path id="Trazado_2591" class="st12" d="M43.1,14.4v17.2c0,3.6-2.9,6.4-6.4,6.5H6.1c-3.6,0-6.4-2.9-6.5-6.5V14.4
					c0-3.6,2.9-6.5,6.5-6.5h30.5C40.2,8,43.1,10.9,43.1,14.4z"/>
			</g>
		</g>
	</g>
</g>
</svg>
