<?xml version="1.0" encoding="utf-8"?>
<!-- Generator: Adobe Illustrator 24.3.0, SVG Export Plug-In . SVG Version: 6.00 Build 0)  -->
<svg version="1.1" id="Capa_1" xmlns="http://www.w3.org/2000/svg" xmlns:xlink="http://www.w3.org/1999/xlink" x="0px" y="0px"
	 viewBox="0 0 221 221" style="enable-background:new 0 0 221 221;" xml:space="preserve">
<style type="text/css">
	.st0{fill:url(#Elipse_285_1_);}
	.st1{fill:url(#Trazado_2656_1_);}
	.st2{fill:url(#Trazado_2657_1_);}
	.st3{fill:url(#Trazado_2658_1_);}
	.st4{fill:url(#Trazado_2659_1_);}
	.st5{fill:url(#Trazado_2660_1_);}
</style>
<g id="Grupo_1656" transform="translate(0 0)">
	
		<radialGradient id="Elipse_285_1_" cx="-846.5869" cy="650.1056" r="0.5" gradientTransform="matrix(221 0 0 -221 187206.2031 143783.8281)" gradientUnits="userSpaceOnUse">
		<stop  offset="0" style="stop-color:#FFCDFF"/>
		<stop  offset="0.197" style="stop-color:#FFCAFF"/>
		<stop  offset="0.341" style="stop-color:#FFC0FF"/>
		<stop  offset="0.468" style="stop-color:#FFB0FF"/>
		<stop  offset="0.586" style="stop-color:#FF9AFF"/>
		<stop  offset="0.697" style="stop-color:#FF7DFF"/>
		<stop  offset="0.803" style="stop-color:#FF59FF"/>
		<stop  offset="0.903" style="stop-color:#FF2FFF"/>
		<stop  offset="1" style="stop-color:#FF00FF"/>
	</radialGradient>
	<circle id="Elipse_285" class="st0" cx="110.5" cy="110.5" r="110.5"/>
	<g id="Grupo_1655" transform="translate(35.171 49.606)">
		
			<linearGradient id="Trazado_2656_1_" gradientUnits="userSpaceOnUse" x1="-881.1071" y1="600.572" x2="-881.1071" y2="600.095" gradientTransform="matrix(150.877 0 0 -122.0063 133014.2344 73242.3594)">
			<stop  offset="0" style="stop-color:#B86A56"/>
			<stop  offset="1" style="stop-color:#8C402F"/>
		</linearGradient>
		<path id="Trazado_2656" class="st1" d="M145.4,7.3c-0.1-0.8-0.7-1.5-1.5-1.8c-5.2-1.9-10.5-3.1-16-3.6C111-1.3,93.7-0.4,77.2,4.3
			c-1.1,0.2-1.9,0.3-2.3,0.4c-0.4-0.1-1.1-0.2-1.9-0.3C57.2-0.3,40.5-1.2,24.3,1.6C18,2,11.8,3.3,5.8,5.5C4.9,5.8,4.3,6.7,4.3,7.6
			C1.7,8.7,0,11.1,0,13.9v95c0,3.7,3,6.7,6.7,6.7h49.7c0.2,3.5,3.1,6.3,6.6,6.3h24.3c3.5,0,6.5-2.8,6.6-6.3h50.2
			c3.7,0,6.7-3,6.7-6.7v-95C150.9,10.7,148.6,7.9,145.4,7.3z"/>
		
			<linearGradient id="Trazado_2657_1_" gradientUnits="userSpaceOnUse" x1="-881.0397" y1="600.0725" x2="-881.0397" y2="599.2945" gradientTransform="matrix(146.072 0 0 -110.0049 128770.6719 66029.0078)">
			<stop  offset="0" style="stop-color:#C47C49"/>
			<stop  offset="1" style="stop-color:#B86957"/>
		</linearGradient>
		<path id="Trazado_2657" class="st2" d="M144.1,9.6H6.7c-2.4,0-4.3,1.9-4.3,4.3c0,0,0,0,0,0v95c0,2.4,1.9,4.3,4.3,4.3c0,0,0,0,0,0
			h52.1v2.1c0,2.3,1.9,4.2,4.2,4.2c0,0,0,0,0,0h24.3c2.3,0,4.2-1.9,4.2-4.2c0,0,0,0,0,0v-2.1h52.6c2.4,0,4.3-1.9,4.3-4.3
			c0,0,0,0,0,0v-95C148.5,11.5,146.5,9.6,144.1,9.6L144.1,9.6z"/>
		
			<linearGradient id="Trazado_2658_1_" gradientUnits="userSpaceOnUse" x1="-880.8882" y1="599.1982" x2="-880.8882" y2="599.4172" gradientTransform="matrix(136.328 0 0 -110.8388 120164.625 66524.7813)">
			<stop  offset="0" style="stop-color:#C47C49"/>
			<stop  offset="1" style="stop-color:#B86957"/>
		</linearGradient>
		<path id="Trazado_2658" class="st3" d="M66.5,114.4C42.4,99.5,6.7,104.2,6.7,104.2V7.7c23.1-9.1,68.2-0.5,68.2-0.5
			S120-1.4,143,7.7v96.5c0,0-35.7-4.7-59.8,10.1L66.5,114.4z"/>
		
			<linearGradient id="Trazado_2659_1_" gradientUnits="userSpaceOnUse" x1="-877.6539" y1="599.5853" x2="-878.265" y2="599.5853" gradientTransform="matrix(61.553 0 0 -105.9873 54094.4922 63603.8281)">
			<stop  offset="0" style="stop-color:#EDDA74"/>
			<stop  offset="1" style="stop-color:#EDC266"/>
		</linearGradient>
		<path id="Trazado_2659" class="st4" d="M73.7,7.1v101.3c0,0-27-20.9-61.6-9.5V7.1C12.1,7.1,39.7-3.5,73.7,7.1z"/>
		
			<linearGradient id="Trazado_2660_1_" gradientUnits="userSpaceOnUse" x1="-878.7176" y1="599.5853" x2="-877.7176" y2="599.5853" gradientTransform="matrix(62.633 0 0 -105.9873 55112.9414 63603.8281)">
			<stop  offset="0" style="stop-color:#EDDA74"/>
			<stop  offset="1" style="stop-color:#EDC266"/>
		</linearGradient>
		<path id="Trazado_2660" class="st5" d="M76.2,7.1v101.3c0,0,27.4-20.9,62.6-9.5V7.1C138.8,7.1,110.8-3.5,76.2,7.1z"/>
	</g>
</g>
</svg>
