<?xml version="1.0" encoding="utf-8"?>
<!-- Generator: Adobe Illustrator 24.3.0, SVG Export Plug-In . SVG Version: 6.00 Build 0)  -->
<svg version="1.1" id="Capa_1" xmlns="http://www.w3.org/2000/svg" xmlns:xlink="http://www.w3.org/1999/xlink" x="0px" y="0px"
	 viewBox="0 0 221 221" style="enable-background:new 0 0 221 221;" xml:space="preserve">
<style type="text/css">
	.st0{fill:url(#Elipse_274_1_);}
	.st1{fill:url(#Trazado_2543_1_);}
	.st2{opacity:0.67;fill:#560A13;enable-background:new    ;}
	.st3{fill:#C7B299;}
	.st4{fill:url(#Trazado_2546_1_);}
</style>
<g>
	
		<radialGradient id="Elipse_274_1_" cx="-846.5872" cy="650.1052" r="0.5" gradientTransform="matrix(221.218 0 0 -221.218 187391.1719 143925.8438)" gradientUnits="userSpaceOnUse">
		<stop  offset="0" style="stop-color:#D5EBF2"/>
		<stop  offset="0.133" style="stop-color:#CDE7F0"/>
		<stop  offset="0.329" style="stop-color:#B9DEEE"/>
		<stop  offset="0.564" style="stop-color:#99D0E9"/>
		<stop  offset="0.828" style="stop-color:#6CBCE2"/>
		<stop  offset="1" style="stop-color:#4BADDE"/>
	</radialGradient>
	<circle id="Elipse_274" class="st0" cx="110.8" cy="110.9" r="110.6"/>
	<g id="Grupo_1609" transform="translate(26.104 48.415)">
		
			<radialGradient id="Trazado_2543_1_" cx="-871.726" cy="601.3955" r="0.684" gradientTransform="matrix(142.3066 0 0 -142.372 124164.0313 85668.8359)" gradientUnits="userSpaceOnUse">
			<stop  offset="0" style="stop-color:#ED6B70"/>
			<stop  offset="0.21" style="stop-color:#D94D52"/>
			<stop  offset="0.505" style="stop-color:#C1272D"/>
			<stop  offset="0.649" style="stop-color:#B9252B"/>
			<stop  offset="0.871" style="stop-color:#A32125"/>
			<stop  offset="0.996" style="stop-color:#941E22"/>
		</radialGradient>
		<path id="Trazado_2543" class="st1" d="M92.3,140.2c-4.4,3.3-10.4,3.3-14.9,0C52.2,121.4-26.8,57.5,9.7,18.5
			c43.1-46.1,75.2,9.8,75.2,9.8s31.8-56,74.9-9.8C196.2,57.5,117.5,121.3,92.3,140.2z"/>
		<path id="Trazado_2544" class="st2" d="M117.3,72.4v17.1c0,0.8-0.7,1.4-1.4,1.4c0,0,0,0,0,0H94.5v20.8c0,0.8-0.7,1.4-1.4,1.4
			c0,0,0,0,0,0H75.4c-0.8,0-1.4-0.6-1.4-1.4c0,0,0,0,0,0V90.8H52.6c-0.8,0-1.4-0.6-1.4-1.4c0,0,0,0,0,0V72.4c0-0.8,0.7-1.4,1.4-1.4
			c0,0,0,0,0,0H74V50.2c0-0.8,0.7-1.4,1.4-1.4c0,0,0,0,0,0H93c0.8,0,1.4,0.6,1.4,1.4c0,0,0,0,0,0V71h21.4
			C116.6,71,117.3,71.6,117.3,72.4C117.3,72.4,117.3,72.4,117.3,72.4z"/>
		<g id="Grupo_1608" transform="translate(51.776 42.052)">
			<path id="Trazado_2545" class="st3" d="M63.8,25.7v16.9c0,0.8-0.6,1.4-1.4,1.4H41.8v20.5c0,0.8-0.6,1.4-1.4,1.4c0,0,0,0,0,0H23.6
				c-0.8,0-1.4-0.6-1.4-1.4c0,0,0,0,0,0V44H1.6c-0.8,0-1.4-0.6-1.4-1.4V25.7c0-0.8,0.6-1.4,1.4-1.4l0,0h20.5V3.8
				c0-0.8,0.6-1.4,1.4-1.4h16.9c0.8,0,1.4,0.6,1.4,1.4v20.5h20.5C63.1,24.4,63.8,25,63.8,25.7z"/>
			
				<radialGradient id="Trazado_2546_1_" cx="-920.9919" cy="557.546" r="0.5" gradientTransform="matrix(63.52 0 0 -63.522 58533.4219 35448.4336)" gradientUnits="userSpaceOnUse">
				<stop  offset="0" style="stop-color:#FFFFF2"/>
				<stop  offset="1" style="stop-color:#E8D2B3"/>
			</radialGradient>
			<path id="Trazado_2546" class="st4" d="M63.8,23.6v16.9c0,0.8-0.6,1.4-1.4,1.4H41.8v20.5c0,0.8-0.6,1.4-1.4,1.4H23.6
				c-0.8,0-1.4-0.6-1.4-1.4V41.8H1.6c-0.8,0-1.4-0.6-1.4-1.4V23.6c0-0.8,0.6-1.4,1.4-1.4h20.5V1.6c0-0.8,0.6-1.4,1.4-1.4h16.9
				c0.8,0,1.4,0.6,1.4,1.4v20.5h20.5C63.1,22.2,63.8,22.8,63.8,23.6z"/>
		</g>
	</g>
</g>
</svg>
