<?xml version="1.0" encoding="utf-8"?>
<!-- Generator: Adobe Illustrator 24.3.0, SVG Export Plug-In . SVG Version: 6.00 Build 0)  -->
<svg version="1.1" id="Capa_1" xmlns="http://www.w3.org/2000/svg" xmlns:xlink="http://www.w3.org/1999/xlink" x="0px" y="0px"
	 viewBox="0 0 221 221" style="enable-background:new 0 0 221 221;" xml:space="preserve">
<style type="text/css">
	.st0{fill:url(#Elipse_229_1_);}
	.st1{fill:#805327;}
	.st2{fill:url(#Trazado_2526_1_);}
	.st3{fill:#FF5CAE;}
	.st4{fill:#333333;}
	.st5{fill:#ED9400;}
	.st6{fill:#78B300;}
</style>
<g>
	
		<radialGradient id="Elipse_229_1_" cx="-846.5887" cy="650.1072" r="0.5" gradientTransform="matrix(221.218 0 0 -221.218 187391.1719 143925.8438)" gradientUnits="userSpaceOnUse">
		<stop  offset="4.000000e-03" style="stop-color:#D5C7F2"/>
		<stop  offset="0.293" style="stop-color:#D3C4F1"/>
		<stop  offset="0.491" style="stop-color:#D0BBEF"/>
		<stop  offset="0.661" style="stop-color:#C9ABEB"/>
		<stop  offset="0.815" style="stop-color:#C096E6"/>
		<stop  offset="0.958" style="stop-color:#B57AE0"/>
		<stop  offset="1" style="stop-color:#B171DE"/>
	</radialGradient>
	<circle id="Elipse_229" class="st0" cx="110.5" cy="110.4" r="110.6"/>
	<g id="Grupo_1606" transform="translate(32.353 25.09)">
		<path id="Trazado_2525" class="st1" d="M146,35.2L146,35.2c-3-6.6-7-12.6-11.8-18C121.7,3.9,103.9-1.5,78.1,0.1
			C45-0.3,32.1,6.3,22.2,17.2c-4.8,5.4-8.8,11.4-11.8,18C1.4,53.9-2,74.7,0.9,93.8c0.6,4.4,1.9,10.8,5.3,16.2
			c3.6,5.7,9.1,9.5,14.9,10.3c1.8,0.2,3.6,0.2,5.4,0.2c3.1-0.1,5.7-0.1,7.4,1.3c1.9,1.6,2.1,5.1,2.3,8.5l0.1,1
			c0.6,11.5,4.9,21.8,11.9,29.2c6.6,6.9,16.6,10.5,28.9,10.5c0.7,0,1.4,0,2.1,0c15-0.1,21.3-2.3,29.1-10.5
			c7.1-7.3,11.3-17.7,11.9-29.2l0.1-1c0.2-3.4,0.3-6.8,2.3-8.5c1.6-1.4,4.3-1.3,7.4-1.3c1.8,0.1,3.6,0,5.4-0.2
			c5.8-0.8,11.3-4.6,14.9-10.3c3.4-5.5,4.7-11.9,5.3-16.3C158.3,74.7,154.9,53.9,146,35.2z"/>
		<g id="Grupo_1605" transform="translate(3.116 3.137)">
			<g id="Grupo_1604">
				
					<radialGradient id="Trazado_2526_1_" cx="-881.578" cy="621.5922" r="0.4786" gradientTransform="matrix(164.7076 0 0 -164.7717 145277.6094 102502.9844)" gradientUnits="userSpaceOnUse">
					<stop  offset="4.000000e-03" style="stop-color:#FFFFED"/>
					<stop  offset="0.992" style="stop-color:#FFF5C2"/>
				</radialGradient>
				<path id="Trazado_2526" class="st2" d="M149.2,90.2c-0.8,5.3-2.1,10.5-4.9,15s-7.4,8.1-12.6,8.8c-4.9,0.7-10.7-1.1-14.4,2.2
					c-3.2,2.7-3.2,7.5-3.4,11.7c-0.6,10-4.2,20-11.1,27.2c-6.8,7.1-12,9.4-26.9,9.5c-11.4,0.4-21.8-2.4-28.6-9.5
					c-6.9-7.2-10.5-17.2-11.1-27.2c-0.2-4.2-0.2-8.9-3.4-11.7c-3.8-3.2-9.5-1.5-14.4-2.2c-5.3-0.7-9.8-4.3-12.6-8.8s-4.1-9.8-4.9-15
					C-2,70.9,1.6,50.9,10,33.4c2.9-6.3,6.7-12.1,11.3-17.2C31.1,5.5,43.7-0.3,75,0.1c26.6-1.7,42.9,4.6,53.7,16.1
					c4.6,5.1,8.4,10.9,11.3,17.2C148.4,50.9,152.1,70.9,149.2,90.2z"/>
				<g id="Grupo_1602" transform="translate(89.257 47.419)">
					<circle id="Elipse_230" class="st3" cx="5.9" cy="18.8" r="4.8"/>
					<circle id="Elipse_231" class="st3" cx="9.7" cy="12.1" r="4.8"/>
					<circle id="Elipse_232" class="st3" cx="15.5" cy="7.1" r="4.8"/>
					<circle id="Elipse_233" class="st3" cx="23.5" cy="4.6" r="4.8"/>
					<circle id="Elipse_234" class="st3" cx="31.8" cy="4.6" r="4.8"/>
					<circle id="Elipse_235" class="st3" cx="40.2" cy="7.1" r="4.8"/>
					<circle id="Elipse_236" class="st3" cx="45.2" cy="12.1" r="4.8"/>
					<circle id="Elipse_237" class="st3" cx="47.7" cy="18.8" r="4.8"/>
					<circle id="Elipse_238" class="st3" cx="47.3" cy="26.3" r="4.8"/>
					<circle id="Elipse_239" class="st3" cx="45.2" cy="33.8" r="4.8"/>
					<circle id="Elipse_240" class="st3" cx="41.4" cy="39.7" r="4.8"/>
					<circle id="Elipse_241" class="st3" cx="36.8" cy="44.3" r="4.8"/>
					<circle id="Elipse_242" class="st3" cx="31.8" cy="46.3" r="4.8"/>
					<circle id="Elipse_243" class="st3" cx="24.3" cy="47.6" r="4.8"/>
					<circle id="Elipse_244" class="st3" cx="17.6" cy="45.5" r="4.8"/>
					<circle id="Elipse_245" class="st3" cx="12.6" cy="42.6" r="4.8"/>
					<circle id="Elipse_246" class="st3" cx="7.6" cy="38.4" r="4.8"/>
					<circle id="Elipse_247" class="st3" cx="5.9" cy="33.4" r="4.8"/>
					<circle id="Elipse_248" class="st3" cx="4.7" cy="26.3" r="4.8"/>
				</g>
				<g id="Grupo_1603" transform="translate(9.548 47.419)">
					<circle id="Elipse_249" class="st3" cx="46.4" cy="18.8" r="4.8"/>
					<circle id="Elipse_250" class="st3" cx="42.7" cy="12.1" r="4.8"/>
					<circle id="Elipse_251" class="st3" cx="36.8" cy="7.1" r="4.8"/>
					<circle id="Elipse_252" class="st3" cx="28.9" cy="4.6" r="4.8"/>
					<circle id="Elipse_253" class="st3" cx="20.5" cy="4.6" r="4.8"/>
					<circle id="Elipse_254" class="st3" cx="12.2" cy="7.1" r="4.8"/>
					<circle id="Elipse_255" class="st3" cx="7.2" cy="12.1" r="4.8"/>
					<circle id="Elipse_256" class="st3" cx="4.7" cy="18.8" r="4.8"/>
					<circle id="Elipse_257" class="st3" cx="5.1" cy="26.3" r="4.8"/>
					<circle id="Elipse_258" class="st3" cx="7.2" cy="33.8" r="4.8"/>
					<circle id="Elipse_259" class="st3" cx="10.9" cy="39.7" r="4.8"/>
					<circle id="Elipse_260" class="st3" cx="15.5" cy="44.3" r="4.8"/>
					<circle id="Elipse_261" class="st3" cx="20.5" cy="46.3" r="4.8"/>
					<circle id="Elipse_262" class="st3" cx="28.1" cy="47.6" r="4.8"/>
					<circle id="Elipse_263" class="st3" cx="34.7" cy="45.5" r="4.8"/>
					<circle id="Elipse_264" class="st3" cx="39.7" cy="42.6" r="4.8"/>
					<circle id="Elipse_265" class="st3" cx="44.8" cy="38.4" r="4.8"/>
					<circle id="Elipse_266" class="st3" cx="46.4" cy="33.4" r="4.8"/>
					<circle id="Elipse_267" class="st3" cx="47.7" cy="26.3" r="4.8"/>
				</g>
				<path id="Trazado_2527" class="st4" d="M41.4,52.7c7.3,2.3,13.7,7.9,16.2,15.1c3.9,11.3-2.2,23.7-13.5,27.5
					c-7.6,2.6-16,0.8-21.9-4.8c-2.8-2.8-5-6.1-6.6-9.7c-1.8-3.4-2.9-7.1-3.2-11c0.1-6.1,2.9-11.9,7.7-15.8
					C25.4,50.2,35.5,50.9,41.4,52.7z"/>
				<path id="Trazado_2528" class="st4" d="M108.6,52.7c-7.3,2.3-13.7,7.9-16.2,15.1c-3.9,11.3,2.2,23.7,13.5,27.5
					c7.6,2.6,16,0.8,21.9-4.8c2.8-2.8,5-6.1,6.6-9.7c1.8-3.4,2.9-7.1,3.2-11c-0.1-6.1-2.9-11.9-7.7-15.8
					C124.7,50.2,114.5,50.9,108.6,52.7z"/>
				<path id="Trazado_2529" class="st4" d="M65.4,110.7c-0.5,1.4-0.9,3.1-0.1,4.4c0.4,0.5,0.8,0.9,1.4,1.3c1.5,1,3.4,1.1,4.9,0.2
					c0.9-0.7,1.7-1.5,2.3-2.4c0.2-0.2,0.4-0.3,0.6-0.4c0.7-0.2,1.2,0.8,1.6,1.4c0.9,1.1,2.3,1.6,3.7,1.4c1.7-0.1,3.1-1.1,3.8-2.6
					c0.3-1.1,0.1-2.3-0.3-3.4c-1.5-3.7-3.7-7-6.5-9.8c-3.2-3.4-6.5,1.3-8.3,3.9C67.2,106.5,66.1,108.5,65.4,110.7z"/>
				<path id="Trazado_2530" class="st4" d="M42.5,130.4c4.6,3.4,10,5.7,15.7,6.7c2.8,0.5,5.6,0.8,8.5,1c2.8,0.1,5.7,0.1,8.6,0
					c2.9-0.1,5.8-0.3,8.6-0.5c1.4-0.1,2.8-0.3,4.2-0.6s2.8-0.6,4.2-0.9c2.8-0.7,5.5-1.6,8.3-2.5c1.4-0.4,2.8-0.9,4.1-1.4
					c1.3-0.5,2.6-1.3,3.7-2.2c-0.9,1.2-2.1,2.1-3.3,2.9c-1.3,0.7-2.6,1.4-3.9,2c-1.3,0.6-2.7,1.2-4,1.7c-1.4,0.6-2.7,1-4.1,1.5
					c-2.8,0.9-5.7,1.6-8.7,2c-2.9,0.4-5.9,0.6-8.8,0.7c-2.9,0.1-5.9,0.1-8.8-0.1c-3-0.2-5.9-0.7-8.8-1.4c-2.9-0.7-5.7-1.8-8.3-3.2
					C46.9,134.4,44.5,132.6,42.5,130.4z"/>
				<path id="Trazado_2531" class="st4" d="M50.2,130.9c0.3,0.9,0.5,1.8,0.8,2.7l0.6,2.7c0.2,0.9,0.4,1.8,0.6,2.7s0.4,1.8,0.5,2.8
					c-0.6-0.8-1.1-1.6-1.4-2.5c-0.4-0.9-0.7-1.8-0.9-2.7c-0.2-0.9-0.3-1.9-0.4-2.8C50,132.8,50,131.8,50.2,130.9z"/>
				<path id="Trazado_2532" class="st4" d="M60.2,130.5c0.2,1.1,0.3,2.2,0.3,3.3c0,2.2-0.3,4.4-0.9,6.5c-0.3,1.1-0.7,2.1-1.2,3.1
					c0-1.1,0.1-2.2,0.3-3.2s0.3-2.1,0.4-3.2s0.3-2.1,0.5-3.2S59.9,131.6,60.2,130.5z"/>
				<path id="Trazado_2533" class="st4" d="M66.1,134.1c0.4,0.8,0.7,1.6,1,2.3s0.6,1.5,1,2.2l1,2.2c0.3,0.7,0.7,1.5,1,2.3
					c-0.7-0.5-1.3-1.1-1.9-1.8c-1.1-1.4-1.8-3-2.1-4.7C66.1,135.9,66,135,66.1,134.1z"/>
				<path id="Trazado_2534" class="st4" d="M77.3,134.7c0.4,0.8,0.7,1.6,0.7,2.4c0.1,0.8,0.1,1.7,0,2.5c-0.1,0.8-0.3,1.7-0.5,2.5
					c-0.3,0.8-0.6,1.6-1,2.3c0-0.8,0-1.7,0.1-2.5c0.1-0.8,0.2-1.6,0.3-2.4s0.2-1.6,0.3-2.4L77.3,134.7z"/>
				<path id="Trazado_2535" class="st4" d="M89.4,133.6c0.4,0.6,0.7,1.4,0.8,2.1c0.1,0.8,0,1.5-0.1,2.3c-0.2,0.7-0.4,1.4-0.8,2.1
					c-0.3,0.7-0.8,1.3-1.3,1.8c0.1-0.7,0.2-1.4,0.4-2.2l0.5-2c0.2-0.7,0.3-1.3,0.4-2S89.4,134.4,89.4,133.6z"/>
				<path id="Trazado_2536" class="st4" d="M95.5,130.9c0.5,0.8,0.9,1.7,1.1,2.6c0.4,1.9,0.4,3.8-0.2,5.6c-0.3,0.9-0.7,1.7-1.3,2.5
					c0.1-0.9,0.3-1.8,0.3-2.7s0.2-1.8,0.2-2.6s0-1.7,0-2.6S95.5,131.8,95.5,130.9z"/>
				<path id="Trazado_2537" class="st4" d="M104,129.2c0.5,0.6,0.9,1.3,1.1,2.1c0.2,0.8,0.4,1.5,0.4,2.3c0,0.8-0.1,1.6-0.3,2.3
					c-0.2,0.8-0.6,1.5-1.1,2.1c0-0.8,0.1-1.5,0.1-2.3s0.1-1.4,0.1-2.2s0-1.4-0.1-2.2S104,130,104,129.2z"/>
				<path id="Trazado_2538" class="st5" d="M72.2,20.7c0.2-3.7,1.1-7.2,3.8-8.4c6.3-2.8,6.2,14.8,6.1,17.8
					c-0.5,6.3-1.7,12.5-3.5,18.6c-3.2-5.7-5.1-11.9-5.8-18.4C72.2,27.1,72.1,23.9,72.2,20.7z"/>
				<path id="Trazado_2539" class="st5" d="M94.4,26.7c1.8-2.1,3.8-3.8,5.9-3.3c4.9,1.1-2.7,11.4-4.2,13.1
					c-3.1,3.5-6.5,6.7-10.2,9.4c0.6-4.7,2.2-9.3,4.6-13.4C91.7,30.5,92.9,28.6,94.4,26.7z"/>
				<path id="Trazado_2540" class="st5" d="M59.7,26.7c-1.8-2.1-3.8-3.8-5.9-3.3c-4.9,1.1,2.7,11.4,4.2,13.1
					c3.1,3.5,6.5,6.7,10.2,9.4c-0.6-4.7-2.2-9.3-4.6-13.4C62.4,30.5,61.1,28.6,59.7,26.7z"/>
				<path id="Trazado_2541" class="st5" d="M52.9,95.7c-0.6,0.4-1.1,0.9-1.7,1.3c-2.2,1.7-5.1,3.2-6.6,5.6c-0.6,0.8-0.8,1.9-0.5,2.9
					c0.5,0.8,1.4,1.3,2.4,1.2c2.1,0,3.9-1.4,5.3-2.8c1.9-1.8,3.5-3.9,4.8-6.2c0.7-1.2,1.3-2.5,1.9-3.8c0.3-0.7,0.5-1.3,0.7-2
					c0.1-0.4,0.3-1.6,0.5-1.9C57.6,92,55.3,93.8,52.9,95.7z"/>
				<path id="Trazado_2542" class="st5" d="M98.1,95.7c0.6,0.4,1.1,0.9,1.7,1.3c2.2,1.7,5.1,3.2,6.6,5.6c0.6,0.8,0.8,1.9,0.5,2.9
					c-0.5,0.8-1.4,1.3-2.4,1.2c-2.1,0-3.9-1.4-5.3-2.8c-1.9-1.8-3.5-3.9-4.8-6.2c-0.7-1.2-1.3-2.5-1.9-3.8c-0.3-0.7-0.5-1.3-0.7-2
					c-0.1-0.4-0.3-1.6-0.5-1.9C93.4,92,95.8,93.8,98.1,95.7z"/>
			</g>
			<circle id="Elipse_268" class="st6" cx="36.1" cy="18.9" r="3.3"/>
			<circle id="Elipse_269" class="st6" cx="21.5" cy="33.9" r="3.3"/>
			<circle id="Elipse_270" class="st6" cx="36.1" cy="37.2" r="3.3"/>
			<circle id="Elipse_271" class="st6" cx="112.9" cy="18.9" r="3.3"/>
			<circle id="Elipse_272" class="st6" cx="127.5" cy="33.9" r="3.3"/>
			<circle id="Elipse_273" class="st6" cx="112.9" cy="37.2" r="3.3"/>
		</g>
	</g>
</g>
</svg>
