<?xml version="1.0" encoding="utf-8"?>
<!-- Generator: Adobe Illustrator 24.3.0, SVG Export Plug-In . SVG Version: 6.00 Build 0)  -->
<svg version="1.1" id="Capa_1" xmlns="http://www.w3.org/2000/svg" xmlns:xlink="http://www.w3.org/1999/xlink" x="0px" y="0px"
	 viewBox="0 0 221 221" style="enable-background:new 0 0 221 221;" xml:space="preserve">
<style type="text/css">
	.st0{fill:#FEC700;}
	.st1{fill:#FFFFFF;}
	.st2{fill:url(#Elipse_295_1_);}
	.st3{fill:url(#Trazado_2665_1_);}
	.st4{fill:url(#Trazado_2666_1_);}
	.st5{fill:url(#Trazado_2667_1_);}
	.st6{fill:url(#Trazado_2668_1_);}
	.st7{fill:url(#Trazado_2669_1_);}
	.st8{fill:#FF3895;}
	.st9{fill:url(#Trazado_2671_1_);}
	.st10{fill:url(#Trazado_2672_1_);}
	.st11{fill:url(#Trazado_2673_1_);}
	.st12{fill:url(#Trazado_2674_1_);}
	.st13{fill:url(#Trazado_2675_1_);}
	.st14{fill:url(#Trazado_2676_1_);}
	.st15{fill:#8FA213;}
	.st16{fill:url(#Trazado_2678_1_);}
	.st17{fill:url(#Trazado_2679_1_);}
	.st18{fill:url(#Trazado_2680_1_);}
	.st19{opacity:0.4;fill:#C6431A;enable-background:new    ;}
	.st20{fill:url(#Trazado_2683_1_);}
	.st21{fill:url(#Trazado_2684_1_);}
	.st22{fill:url(#Trazado_2685_1_);}
	.st23{fill:url(#Trazado_2686_1_);}
	.st24{fill:url(#Trazado_2687_1_);}
	.st25{fill:url(#Trazado_2688_1_);}
	.st26{fill:url(#Trazado_2689_1_);}
	.st27{fill:url(#Trazado_2690_1_);}
	.st28{fill:url(#Trazado_2691_1_);}
	.st29{fill:url(#Trazado_2692_1_);}
	.st30{fill:url(#Trazado_2693_1_);}
	.st31{fill:url(#Trazado_2694_1_);}
	.st32{fill:url(#Trazado_2695_1_);}
	.st33{fill:url(#Trazado_2696_1_);}
	.st34{fill:url(#Trazado_2697_1_);}
	.st35{fill:url(#Trazado_2698_1_);}
</style>
<g id="Grupo_1687" transform="translate(-423.618 -868)">
	<g id="Capa_4" transform="translate(423.67 868)">
		<circle id="Elipse_286" class="st0" cx="110.5" cy="110.4" r="110.5"/>
		<g id="Grupo_1676" transform="translate(20.058 50.604)">
			<g id="Grupo_1659">
				<g id="Grupo_1658">
					<path id="Trazado_2661" class="st1" d="M157.5,40.2c-1-1-2.6-1-3.6,0c-1,1-1,2.6,0,3.6c0.6,0.5,1.1,1.1,1.6,1.7
						c-0.1-0.1-0.3-0.2-0.4-0.4c-1.9-1.5-4.2-2.4-6.6-2.7c-0.1,0-0.1,0-0.2,0c0.3-0.7,0.6-1.3,0.8-2c0-0.1,0-0.1,0-0.2
						c0.3-1.7,0.3-3.4-0.2-5.1c-0.2-0.8-0.5-1.6-0.9-2.4l0-0.1c-0.4-0.8-0.9-1.5-1.4-2.2c-0.3-0.3-0.6-0.7-0.8-1c0,0,0,0,0,0
						c-0.3-0.3-0.6-0.6-1-0.9c-0.7-0.5-1.4-1-2.1-1.4l-0.1,0c-1.5-0.8-3.2-1.2-5-1.3c-1.3,0-2.4-1.1-2.5-2.4
						c-0.1-0.9-0.2-1.7-0.4-2.5l0,0c-0.2-0.8-0.6-1.6-1-2.3c-0.9-1.5-2-2.9-3.4-3.9l-0.1,0c-2.8-2.1-6.5-2.9-9.9-2.1
						c-1.3,0.3-2.7-0.4-3.1-1.7c-0.6-1.6-1.6-3.1-2.8-4.3l-0.1-0.1c-2.6-2.4-6.1-3.7-9.7-3.3h0c-1.7,0.2-3.4,0.8-4.9,1.7
						c-1.2,0.7-2.7,0.5-3.5-0.6c-0.6-0.7-1.2-1.3-1.9-1.8l0,0c-0.7-0.5-1.4-1-2.2-1.3c-0.4-0.2-0.8-0.3-1.2-0.5l0,0
						c-0.4-0.1-0.9-0.3-1.3-0.3c-0.9-0.2-1.7-0.3-2.6-0.3h-0.1c-0.9,0-1.8,0.1-2.6,0.3c-0.4,0.1-0.9,0.2-1.3,0.3l0,0
						C82.4,0.7,82,0.8,81.6,1c-0.8,0.4-1.5,0.8-2.2,1.3l0,0c-0.7,0.5-1.3,1.1-1.8,1.8c-0.9,1.1-2.4,1.3-3.6,0.6
						c-1.5-0.9-3.2-1.5-4.9-1.6h0c-3.6-0.3-7.1,0.9-9.7,3.3l-0.1,0c-1.3,1.2-2.2,2.7-2.8,4.3c-0.5,1.3-1.8,2-3.1,1.7
						c-3.5-0.8-7.1-0.1-9.9,2.1l-0.1,0c-1.4,1.1-2.6,2.4-3.4,3.9c-0.1,0.1-0.1,0.3-0.2,0.4c-9.5,2.1-16.7,9.8-18.3,19.4l-2.3-0.3
						c-4.7-0.3-8.8,3.3-9.1,8c0,0.4,0,0.8,0,1.1l0.7,5.2c-10.9,7.1-14,21.8-6.9,32.7c1.6,2.5,3.8,4.7,6.2,6.4
						c2.9,9.9,11.9,16.6,22.2,16.6h98.5c1.4,0,2.6-1.2,2.5-2.6c0-1.4-1.1-2.5-2.5-2.5H32.2c-9.9,0-17.9-8-18-17.9
						c0-31.2,25.1-57.1,56-57.7c31.6-0.7,57.7,24.4,58.4,56c0,0.4,0,0.8,0,1.2c0,5.8,2.2,11.5,6.1,15.8c0.1,0.1,0.2,0.3,0.4,0.4l0,0
						c9,9.5,23.9,10,33.5,1c4.7-4.5,7.4-10.7,7.4-17.2C176.1,67.9,169.4,51.9,157.5,40.2z M9.1,83.7C3,76,4,64.8,11.5,58.3l0.2,1.3
						c0.1,1.2,0.7,2.3,1.5,3.2C10.6,69.5,9.3,76.6,9.1,83.7L9.1,83.7z M16.3,55.8l-1.2-9.3c0.1-1.8,1.5-3.2,3.3-3.3l5.9,0.8
						C21.2,47.6,18.5,51.5,16.3,55.8L16.3,55.8z M28.7,39.4l-2.3-0.3C28.1,29,37.7,22.1,47.8,23.8c1.6,0.3,3.2,0.7,4.7,1.4
						C43.6,28.1,35.5,32.9,28.7,39.4L28.7,39.4z M70.2,22.3c-2,0-3.9,0.2-5.8,0.4l3-3.9c1.3-1.2,3.4-1.2,4.7,0l2.8,3.6
						C73.3,22.2,71.8,22.2,70.2,22.3L70.2,22.3z M76.2,15.6c-3.1-3.6-8.5-3.9-12.1-0.8c-0.3,0.2-0.5,0.5-0.8,0.8L58,22.5
						c-3.4-2.3-7.3-3.7-11.3-4c1.6-1,3.5-1.4,5.3-1l0.1,0c3.8,0.9,7.8-1.2,9.1-4.9c0.3-0.9,0.9-1.7,1.6-2.4c0.7-0.7,1.6-1.2,2.6-1.6
						l0.1,0c1-0.3,2-0.5,3-0.4c1,0.1,1.9,0.4,2.7,0.9c3.4,2.1,7.7,1.4,10.2-1.7c0.3-0.4,0.7-0.7,1-1c0.4-0.3,0.8-0.5,1.3-0.8
						c0.2-0.1,0.5-0.2,0.7-0.3c0.2-0.1,0.5-0.1,0.7-0.2c1-0.2,2.1-0.2,3.2,0c0.2,0,0.5,0.1,0.7,0.2c0.2,0.1,0.5,0.2,0.7,0.3
						c0.4,0.2,0.9,0.5,1.3,0.8c0.4,0.3,0.7,0.7,1.1,1c2.5,3,6.9,3.8,10.2,1.7c0.8-0.5,1.8-0.8,2.8-0.9c1-0.1,2.1,0,3,0.4l0.1,0
						c1,0.3,1.9,0.9,2.6,1.6c0.7,0.7,1.2,1.5,1.6,2.4c1.4,3.7,5.3,5.8,9.1,4.9l0.1,0c2-0.4,4,0,5.7,1.2c0.8,0.6,1.5,1.4,2,2.3
						c0.2,0.4,0.4,0.9,0.6,1.3c0.1,0.5,0.2,1,0.3,1.5c0.3,4,3.5,7.1,7.5,7.2c1,0,1.9,0.3,2.8,0.7c0.4,0.2,0.9,0.5,1.3,0.8
						c0.2,0.2,0.4,0.3,0.6,0.5c0.2,0.2,0.3,0.4,0.5,0.6c0.3,0.4,0.6,0.8,0.9,1.3c0.2,0.5,0.4,1,0.5,1.5c0.2,0.9,0.3,1.8,0.1,2.8
						c-0.2,0.6-1.7,4.8-8,7.3c-2.3-1.3-4.7-2.2-7.3-2.7l1.5-5.6c1.1-4.1-1.3-8.3-5.4-9.4c-1.3-0.3-2.7-0.3-4,0l-6.7,1.8
						C111.2,17.9,98.5,10,85.7,13c-3.1,0.7-5.9,2.1-8.5,3.9L76.2,15.6z M106.2,32.8L106.2,32.8c-7.3-4.9-15.6-8.2-24.2-9.6L80.4,21
						c8.3-6,19.9-4,25.9,4.3c1.4,2,2.4,4.3,3,6.7L106.2,32.8z M125.3,36.9l-3.1,11.5c-2.1-3-4.5-5.7-7.1-8.3
						c-1.2-1.2-2.4-2.3-3.7-3.4l10.8-2.9c1.3-0.4,2.7,0.4,3.1,1.8C125.4,36,125.4,36.4,125.3,36.9L125.3,36.9z M125.9,54.1
						c0.2-0.4,0.3-0.8,0.4-1.2l1.1-4.1c10.1,1.8,16.8,11.4,15,21.4c-0.9,5.3-4.1,9.9-8.7,12.6C133.6,72.7,130.9,62.9,125.9,54.1
						L125.9,54.1z M138.3,94.8L138.3,94.8c-0.4,0.1-0.7,0.3-1.1,0.5c-1.5-2-2.5-4.4-3-6.8l0,0c11.8-5.5,16.9-19.6,11.4-31.4
						c-1.2-2.6-2.9-5-5-7c1.3-0.7,2.4-1.5,3.5-2.5c1.2-0.2,2.4-0.2,3.6,0c1.5,0.2,2.9,0.8,4.1,1.7c0.1,0.1,0.2,0.1,0.2,0.2
						c0.4,0.3,0.7,0.7,1,1.1c0.2,0.2,0.3,0.4,0.4,0.6c0.1,0.2,0.2,0.4,0.4,0.7c0.2,0.5,0.4,1,0.5,1.5c0.1,0.5,0.2,1,0.2,1.5
						c0,0.5,0,1-0.1,1.4c-0.1,0.5-0.2,1-0.4,1.4c-0.4,0.9-0.6,1.8-0.6,2.8c0,0.9,0.1,1.8,0.3,2.7c0.5,1.8,1.6,3.4,3.1,4.5
						c0.4,0.3,0.7,0.6,1,1c0.3,0.4,0.5,0.8,0.7,1.3c0.4,1,0.6,2.1,0.5,3.2c0,0.6-0.2,1.1-0.3,1.6c0,0,0,0,0,0.1
						c-0.1,0.3-0.2,0.5-0.3,0.8c-0.1,0.2-0.2,0.4-0.4,0.7c-0.1,0.2-0.3,0.4-0.4,0.6c-0.2,0.2-0.3,0.4-0.5,0.5
						c-0.2,0.2-0.4,0.3-0.5,0.4c-0.2,0.1-0.4,0.3-0.6,0.4c-0.8,0.4-1.6,1-2.2,1.6l0,0c-0.3,0.3-0.6,0.7-0.9,1.1
						c-0.3,0.4-0.5,0.7-0.7,1.1c-0.2,0.4-0.4,0.8-0.5,1.2c-0.1,0.4-0.3,0.9-0.3,1.4l0,0c-0.1,0.9-0.1,1.8,0.1,2.7
						c0,0.2,0.1,0.5,0.1,0.7c0,0.2,0,0.5,0,0.7c0,0.2-0.1,0.5-0.1,0.7c-0.1,0.3-0.1,0.5-0.2,0.8c-0.4,1-1,2-1.8,2.7
						c-0.4,0.4-0.9,0.7-1.4,1c-0.5,0.3-1,0.4-1.5,0.6l-0.1,0c-0.9,0.3-1.9,0.3-2.9,0C141.9,94,140,94.1,138.3,94.8L138.3,94.8z
						 M152.4,103.1c-4,0-7.9-1.3-11.1-3.7c0.3,0,0.6,0,1,0.1l0,0c1.8,0.5,3.7,0.5,5.5,0c0.9-0.2,1.8-0.6,2.6-1c0,0,0.1,0,0.1-0.1
						c0.8-0.5,1.6-1,2.3-1.7l0,0c1.4-1.3,2.5-2.9,3.2-4.8c0.2-0.4,0.3-0.9,0.4-1.3c0,0,0-0.1,0-0.1c0.1-0.4,0.2-0.9,0.2-1.4
						c0-0.4,0.1-0.9,0-1.3v-0.1c0-0.5-0.1-0.9-0.2-1.4c-0.1-0.4-0.1-0.8,0-1.2c0-0.1,0.1-0.3,0.1-0.4l0,0c0.1-0.2,0.1-0.3,0.2-0.5
						l0,0c0.1-0.2,0.2-0.3,0.3-0.4l0-0.1c0.1-0.1,0.2-0.2,0.3-0.3c0.3-0.3,0.6-0.5,0.9-0.7c0.4-0.2,0.8-0.4,1.2-0.7l0.1,0
						c0.4-0.3,0.7-0.6,1.1-0.9c0.3-0.3,0.6-0.6,0.9-1l0-0.1c0.3-0.4,0.6-0.7,0.8-1.1c0.3-0.4,0.5-0.8,0.7-1.2l0,0
						c0.2-0.4,0.4-0.8,0.5-1.2c0.3-0.9,0.5-1.9,0.6-2.9c0.1-1,0.1-1.9-0.1-2.9c0,0,0-0.1,0-0.1c-0.2-0.9-0.4-1.8-0.8-2.7
						c0,0,0-0.1,0-0.1c-0.4-0.8-0.8-1.6-1.4-2.4l0,0c-0.6-0.7-1.2-1.3-1.9-1.9l0,0c-0.3-0.2-0.6-0.5-0.8-0.8
						c-0.2-0.3-0.4-0.6-0.5-0.9c0,0,0,0,0,0c-0.1-0.3-0.2-0.7-0.2-1c0-0.3,0.1-0.7,0.2-1c0.3-0.8,0.6-1.6,0.8-2.4
						c0.2-0.9,0.2-1.7,0.2-2.6c0-0.9-0.1-1.7-0.3-2.5l0,0c-0.2-0.8-0.5-1.6-0.9-2.4c-0.2-0.4-0.4-0.8-0.6-1.2l0,0
						c-0.1-0.1-0.2-0.2-0.2-0.4c8.5,10.2,13.2,23.1,13.1,36.4C170.9,94.8,162.6,103,152.4,103.1L152.4,103.1z"/>
				</g>
			</g>
			<g id="Grupo_1661" transform="translate(45.261 51.249)">
				<g id="Grupo_1660">
					<circle id="Elipse_287" class="st1" cx="2.5" cy="2.4" r="2.6"/>
				</g>
			</g>
			<g id="Grupo_1663" transform="translate(32.879 61.567)">
				<g id="Grupo_1662">
					<circle id="Elipse_288" class="st1" cx="2.5" cy="2.4" r="2.6"/>
				</g>
			</g>
			<g id="Grupo_1665" transform="translate(53.516 69.822)">
				<g id="Grupo_1664">
					<circle id="Elipse_289" class="st1" cx="2.5" cy="2.4" r="2.6"/>
				</g>
			</g>
			<g id="Grupo_1667" transform="translate(33.223 49.185)">
				<g id="Grupo_1666">
					<circle id="Elipse_290" class="st1" cx="2.5" cy="2.4" r="2.6"/>
				</g>
			</g>
			<g id="Grupo_1669" transform="translate(64.178 38.866)">
				<g id="Grupo_1668">
					<circle id="Elipse_291" class="st1" cx="2.5" cy="2.4" r="2.6"/>
				</g>
			</g>
			<g id="Grupo_1671" transform="translate(74.497 62.943)">
				<g id="Grupo_1670">
					<circle id="Elipse_292" class="st1" cx="2.5" cy="2.4" r="2.6"/>
				</g>
			</g>
			<g id="Grupo_1673" transform="translate(84.816 45.746)">
				<g id="Grupo_1672">
					<circle id="Elipse_293" class="st1" cx="2.5" cy="2.4" r="2.6"/>
				</g>
			</g>
			<g id="Grupo_1675" transform="translate(108.892 66.383)">
				<g id="Grupo_1674">
					<circle id="Elipse_294" class="st1" cx="2.5" cy="2.4" r="2.6"/>
				</g>
			</g>
		</g>
	</g>
	<g id="Iconos_Sebastian" transform="translate(423.618 868.26)">
		<g id="Grupo_1686">
			
				<radialGradient id="Elipse_295_1_" cx="-846.5872" cy="649.8463" r="0.5" gradientTransform="matrix(221.03 0 0 -221.03 187231.6563 143745.9063)" gradientUnits="userSpaceOnUse">
				<stop  offset="0" style="stop-color:#FCF8B5"/>
				<stop  offset="0" style="stop-color:#B5FCF0"/>
				<stop  offset="1" style="stop-color:#2180FC"/>
				<stop  offset="1" style="stop-color:#FCBE21"/>
			</radialGradient>
			<circle id="Elipse_295" class="st2" cx="110.5" cy="110.4" r="110.5"/>
			<g id="Grupo_1685" transform="matrix(0.998, 0.07, -0.07, 0.998, 6.821, 64.778)">
				<g id="Grupo_1684" transform="translate(8.086)">
					<g id="Grupo_1683">
						<g id="Grupo_1680" transform="translate(101.036)">
							
								<radialGradient id="Trazado_2665_1_" cx="-915.5096" cy="641.007" r="0.6189" gradientTransform="matrix(62.1507 -4.3577 -4.3593 -62.1289 59738.5352 35878.0664)" gradientUnits="userSpaceOnUse">
								<stop  offset="0" style="stop-color:#F67C27"/>
								<stop  offset="0.532" style="stop-color:#F66705"/>
								<stop  offset="1" style="stop-color:#DB5E05"/>
							</radialGradient>
							<path id="Trazado_2665" class="st3" d="M0.4,31.1c1.1,3.2,3.3,6,5.2,8.9c1.2,2,2.2,4.1,3.4,6.1c3,5.2,7.2,9.8,11.3,14.4
								c4.2,4.6,8.5,9.4,14.5,11.8c2.4,0.9,5,1.4,7.6,1.5c0.3,0,0.5,0,0.8,0c0.9,0,1.9-0.1,2.8-0.4c1-0.4,1.9-1,2.7-1.7L61,62.2
								c2.8-2.1,6.2-3.5,8.8-5.7c1.2-1,1.9-2.6,3-3.9c1.2-1.4,2.6-2.7,4.1-3.9c1.9-1.4,4-2.6,5.8-4c2.8-2,4.9-4.8,6.1-8
								c1.2-3.2,0.8-6.7-1-9.6c-2.3-3.4-6.6-5.2-10.8-5.9s-8.6-0.6-12.8-1.1c-12.2-1.6-23.4-9.2-35.7-8.6c-2.1,0-4.2,0.5-6.1,1.4
								c-1.1,0.7-2.3,1.4-3.5,1.9c-1.7,0.4-3.5,0.5-5.2,0.4c-1.5,0-3.1,0.1-4.1,1.3c-1,1.1-1.5,2.5-3,3.3c-1.1,0.4-2.2,0.9-3.1,1.6
								c-0.1,0.1-0.2,0.2-0.4,0.3c-0.8,0.7-1.5,1.6-2,2.5C-0.2,26.3-0.4,28.8,0.4,31.1z"/>
							
								<radialGradient id="Trazado_2666_1_" cx="-914.5715" cy="640.4443" r="0.4598" gradientTransform="matrix(52.2752 -3.6669 -3.6666 -52.2802 50179.4766 30176.3789)" gradientUnits="userSpaceOnUse">
								<stop  offset="4.000000e-03" style="stop-color:#EDA146"/>
								<stop  offset="0.54" style="stop-color:#E68F30"/>
								<stop  offset="0.996" style="stop-color:#E67F30"/>
							</radialGradient>
							<path id="Trazado_2666" class="st4" d="M0.4,31.1c1.1,3.2,3.3,6,5.2,8.9c1.2,2,2.2,4.1,3.4,6.1c3,5.2,7.2,9.8,11.3,14.4
								c4.2,4.6,8.5,9.4,14.5,11.8c2.4,0.9,5,1.4,7.6,1.5c0.5-0.9,0.8-1.8,1.1-2.8c0.3-1.1,0.3-2.3,0-3.5c-0.4-1-0.9-1.8-1.6-2.6
								c-2.2-3-4.7-5.8-7.4-8.4c-2.3-2.1-5-4-6.5-6.7c-1.3-2.2-1.7-4.8-2.8-7.2c-3.2-6.9-11.2-10.5-16.6-16
								c-1.7-1.8-3.2-3.8-5.2-5.3c-0.1,0.1-0.2,0.2-0.4,0.3c-0.8,0.7-1.5,1.6-2,2.5C-0.2,26.3-0.4,28.8,0.4,31.1z"/>
							
								<radialGradient id="Trazado_2667_1_" cx="-899.235" cy="631.2528" r="0.4961" gradientTransform="matrix(14.5268 -1.0216 -1.0189 -14.5658 13740.9932 8333.4385)" gradientUnits="userSpaceOnUse">
								<stop  offset="0" style="stop-color:#E59773"/>
								<stop  offset="1" style="stop-color:#B96B43"/>
							</radialGradient>
							<path id="Trazado_2667" class="st5" d="M34.7,50.3c-0.6,0.2-1.2,0.4-1.8,0.4c-0.5,0-0.9-0.1-1.4-0.1c-1.1,0.1-2,0.6-2.7,1.5
								c-1,1-1.4,2.5-1.2,3.9c0.1,0.6,0.4,1.1,0.6,1.7c0.2,0.8,0.3,1.6,0.4,2.4c0.1,0.8,0.5,1.6,1.1,2.1c1,0.7,2.3,0.5,3.4,1
								c0.6,0.3,1.1,0.8,1.7,1.1c0.9,0.4,1.9,0.5,2.8,0.3c1-0.2,1.9-0.5,2.8-0.9c0.4-0.1,0.7-0.3,1-0.7c0.3-0.5,0-1.2-0.1-1.8
								c-0.4-1.9,1.1-3.9,0.3-5.6c-0.4-0.7-1-1.3-1.6-1.8c-0.5-0.6-0.9-1.3-1.2-2C38.1,50.3,36.5,49.9,34.7,50.3z"/>
							
								<radialGradient id="Trazado_2668_1_" cx="-901.6467" cy="632.6671" r="0.4909" gradientTransform="matrix(16.3859 -1.1488 -1.1493 -16.3784 15529.2158 9372.3779)" gradientUnits="userSpaceOnUse">
								<stop  offset="0" style="stop-color:#E59773"/>
								<stop  offset="1" style="stop-color:#B96B43"/>
							</radialGradient>
							<path id="Trazado_2668" class="st6" d="M20.8,45c0.4,1.4,0.1,3.1,1.2,4.2c0.7,0.5,1.4,1,2.1,1.4c1.2,1,1.6,2.8,3.1,3.5
								c1.1,0.4,2.3,0.2,3.3-0.4c0.9-0.7,1.8-1.4,2.5-2.2c0.6-0.5,1.2-1.1,1.7-1.6c1-1.1,1.5-2.8,0.7-4c-0.6-0.6-1.2-1.2-1.8-1.8
								c-0.9-1-1.1-2.4-1.5-3.6s-1.4-2.5-2.8-2.5c-0.6,0-1.2,0.2-1.8,0.3c-1.1,0.1-2.3,0.1-3.4,0c-1.3-0.1-2.6,0.4-3.4,1.4
								C19.3,41.4,20.2,43.2,20.8,45z"/>
							
								<radialGradient id="Trazado_2669_1_" cx="-900.5234" cy="632.0283" r="0.471" gradientTransform="matrix(15.4651 -1.0879 -1.0847 -15.5104 14629.083 8858.2119)" gradientUnits="userSpaceOnUse">
								<stop  offset="0" style="stop-color:#E59773"/>
								<stop  offset="1" style="stop-color:#B96B43"/>
							</radialGradient>
							<path id="Trazado_2669" class="st7" d="M12.4,29.1c-1-0.1-2,0.5-2.3,1.5c-0.2,1,0.1,2,0.9,2.6c0.5,0.5,1.3,0.8,1.4,1.5
								c0,0.5-0.1,1-0.3,1.5c-0.2,1.1,0.3,2.2,1.3,2.6c0.8,0.2,1.6,0.5,2.3,0.8c0.8,0.5,1.1,1.6,1.8,2.2c1.4,1.4,4,0.8,5.4-0.6
								c0.6-0.5,0.8-1.2,0.7-2c-0.2-0.5-0.6-0.9-0.9-1.4c-0.6-1.1,0.2-2.5,0.2-3.7c-0.1-1.1-0.7-2.1-1.7-2.6
								c-0.6-0.3-1.3-0.4-1.9-0.8c-1-0.6-1.5-1.7-2.3-2.6s-2.2-1.5-3.1-0.8"/>
							<path id="Trazado_2670" class="st8" d="M14.3,25c-1,0.8-2.1,1.5-3.3,1.8c-1.2,0.5-2.5,0.4-3.7-0.3c-0.8-0.5-1.1-1.4-1.8-2.1
								c-0.6-0.5-1.3-1-2.1-1.3c-0.7-0.4-1.3-1-1.6-1.8c-0.1-0.5,0-1-0.1-1.4c-0.2-1-1.1-1.7-1.5-2.7C0,16,0.5,14.7,1.6,13.9
								c1.1-0.8,2.5-1.2,3.9-1.1c0.9,0,1.7,0.2,2.5,0.7c0.7,0.5,1.2,1.2,2,1.7c1.2,0.8,2.8,0.7,4.2,1.1c1.7,0.6,3,2.1,3.2,3.9"/>
							
								<radialGradient id="Trazado_2671_1_" cx="-897.3773" cy="630.1141" r="0.5726" gradientTransform="matrix(13.3577 -0.9376 -0.9369 -13.3676 12592.4502 7607.5254)" gradientUnits="userSpaceOnUse">
								<stop  offset="0" style="stop-color:#FFA983"/>
								<stop  offset="1" style="stop-color:#CE6D43"/>
							</radialGradient>
							<path id="Trazado_2671" class="st9" d="M14.9,32.4c-1.9-0.3-3.6-1.3-4.8-2.8C10,29.3,9.7,29,9.5,28.8
								c-0.4-0.3-0.9-0.6-1.3-0.8c-0.9-0.7-1.5-1.7-1.6-2.9c0-1.1,0.4-2.2,1.3-3c0.5-0.5,1.1-0.9,1.7-1.2c0.9-0.6,1.8-1.1,2.8-1.5
								c2.3-0.7,4.7,0,6.9,0.8c0.9,0.3,1.8,0.7,2.5,1.4c0.6,0.7,1,1.6,1.3,2.5c0.2,0.8,0.9,1.8,0.7,2.6c-0.2,0.9-1.4,1.4-1.7,2.3
								c-0.1,0.3-0.1,0.5-0.2,0.8C21.2,32.2,17.1,32.8,14.9,32.4z"/>
							
								<radialGradient id="Trazado_2672_1_" cx="-898.913" cy="631.0654" r="0.5482" gradientTransform="matrix(14.3101 -1.0069 -1.0037 -14.3555 13522.915 8190.2314)" gradientUnits="userSpaceOnUse">
								<stop  offset="0" style="stop-color:#FFA983"/>
								<stop  offset="1" style="stop-color:#CE6D43"/>
							</radialGradient>
							<path id="Trazado_2672" class="st10" d="M31.5,41.1c-1,0.8-2.1,1.5-3.3,1.8c-1.2,0.5-2.5,0.4-3.7-0.3
								c-0.8-0.5-1.1-1.4-1.8-2.1c-0.6-0.5-1.3-1-2.1-1.3c-0.7-0.4-1.3-1-1.6-1.8c-0.1-0.5,0-1-0.1-1.4c-0.2-1-1.1-1.7-1.5-2.7
								c-0.4-1.3,0.1-2.7,1.2-3.5c1.1-0.8,2.5-1.2,3.9-1.1c0.9,0,1.7,0.2,2.5,0.7c0.7,0.5,1.2,1.2,2,1.7c1.2,0.8,2.8,0.7,4.2,1.1
								c1.7,0.6,3,2.1,3.2,3.9"/>
							
								<radialGradient id="Trazado_2673_1_" cx="-897.4068" cy="630.1221" r="0.5991" gradientTransform="matrix(13.3737 -0.9381 -0.938 -13.374 12627.2822 7631.0815)" gradientUnits="userSpaceOnUse">
								<stop  offset="0" style="stop-color:#FFA983"/>
								<stop  offset="1" style="stop-color:#CE6D43"/>
							</radialGradient>
							<path id="Trazado_2673" class="st11" d="M39.2,51.3c-1.7,1-3.6,1.3-5.5,1c-1.9-0.3-3.6-1.3-4.8-2.8c-0.2-0.3-0.4-0.6-0.7-0.8
								c-0.4-0.3-0.9-0.6-1.3-0.8c-0.9-0.7-1.5-1.7-1.6-2.9c0-1.1,0.4-2.2,1.3-3c0.5-0.5,1.1-0.9,1.7-1.2c0.9-0.6,1.8-1.1,2.8-1.5
								c2.3-0.7,4.7,0,6.9,0.8c0.9,0.3,1.8,0.7,2.5,1.4c0.5,0.7,1,1.5,1.3,2.3c0.7,1.2,1.8,2.3,1.9,3.7c0.2,1.5-1,3-2.3,3.9"/>
							
								<radialGradient id="Trazado_2674_1_" cx="-899.1099" cy="631.2188" r="0.501" gradientTransform="matrix(14.4436 -1.0194 -1.0131 -14.5331 13665.6895 8314.0254)" gradientUnits="userSpaceOnUse">
								<stop  offset="0" style="stop-color:#FFA983"/>
								<stop  offset="1" style="stop-color:#CE6D43"/>
							</radialGradient>
							<path id="Trazado_2674" class="st12" d="M44.7,56.9c0.3,1.2,2.1,1.5,2.4,2.8c0.1,1-0.3,2.1-1.2,2.7c-1.6,1.5-4.6,2.5-6.6,1.3
								c-0.4-0.3-0.8-0.6-1.2-0.9c-1-0.6-2.4-0.7-3.2-1.5c-1.1-1.1-0.3-2.9-0.9-4.3c-0.3-0.8-1.1-1.4-1.4-2.1c-0.2-1,0.2-2,0.9-2.7
								c1-1.2,2.4-2.1,3.9-2.4c1.6-0.4,3.2,0.2,4.3,1.3c0.4,0.5,0.5,1,0.9,1.5c0.7,1.1,2.1,1.9,2.2,3.1
								C44.6,56.1,44.6,56.5,44.7,56.9z"/>
							
								<radialGradient id="Trazado_2675_1_" cx="-901.3565" cy="632.4579" r="0.4871" gradientTransform="matrix(16.1347 -1.1275 -1.1317 -16.0752 15292.9404 9189.7861)" gradientUnits="userSpaceOnUse">
								<stop  offset="6.800000e-02" style="stop-color:#90CF14"/>
								<stop  offset="1" style="stop-color:#A29514"/>
							</radialGradient>
							<path id="Trazado_2675" class="st13" d="M38.9,46.6c-1.2,0.6-2.5,0.8-3.8,0.5c-1-0.4-1.8-1.2-2.1-2.3c-0.4-1-0.7-2-1.2-2.9
								c-0.7-1.1-1.6-2.2-2.7-3c-1-0.9-1.9-2-2.4-3.2c-0.5-1.3-0.2-2.7,0.8-3.6c0.6-0.4,1.3-0.7,2-0.8c0.9-0.2,1.9-0.2,2.8,0.1
								c1.5,0.6,2.2,2.1,3.5,3c1.1,0.7,2.4,0.9,3.4,1.7c1,0.7,1.6,1.9,1.5,3.1c-0.2,0.7-0.2,1.5-0.2,2.3c0.2,0.8,1.1,1.5,1.2,2.4
								c0.1,0.6-0.2,1.2-0.8,1.6"/>
							
								<radialGradient id="Trazado_2676_1_" cx="-893.3346" cy="627.6786" r="0.6262" gradientTransform="matrix(11.3675 -0.7976 -0.7973 -11.3714 10668.6211 6442.9814)" gradientUnits="userSpaceOnUse">
								<stop  offset="6.800000e-02" style="stop-color:#90CF14"/>
								<stop  offset="1" style="stop-color:#A29514"/>
							</radialGradient>
							<path id="Trazado_2676" class="st14" d="M19.9,21.4c-0.7,1-1.8,1.8-3,2.2c-0.9,0.1-1.9-0.2-2.6-0.8c-0.7-0.6-1.3-1.3-2-1.8
								c-1-0.6-2.2-1-3.3-1.2c-1.2-0.2-2.2-0.7-3.2-1.5c-0.9-0.8-1.2-2.2-0.7-3.3c0.3-0.6,0.8-1.2,1.4-1.6c0.7-0.6,1.5-1,2.4-1.1
								c1.4-0.2,2.6,0.7,4,0.8c1.1,0.1,2.4-0.4,3.5-0.2c1.1,0.1,2,0.8,2.4,1.8c0.1,0.7,0.4,1.3,0.7,1.9c0.5,0.6,1.4,0.7,1.8,1.3
								c0.3,0.5,0.3,1.1-0.1,1.6"/>
							<path id="Trazado_2677" class="st15" d="M45.1,61.7c-1.3,0.1-2.8,0.2-3.8-0.6c-0.8-0.7-1.3-1.7-1.3-2.8c-0.1-1,0-2.1-0.2-3.1
								c-0.3-1.3-0.9-2.5-1.6-3.6c-0.7-1.1-1.2-2.4-1.3-3.7c-0.1-1.4,0.6-2.7,1.9-3.3c0.7-0.3,1.5-0.3,2.2-0.2
								c0.9,0.1,1.8,0.4,2.6,0.9c1.2,1,1.4,2.7,2.4,3.9c0.8,1,2,1.6,2.8,2.6c0.7,1,0.9,2.3,0.5,3.4c-0.4,0.7-0.7,1.4-0.9,2.1
								c-0.1,0.9,0.5,1.7,0.4,2.6c-0.1,0.6-0.6,1.1-1.2,1.3"/>
							
								<radialGradient id="Trazado_2678_1_" cx="-900.6002" cy="632.0063" r="0.513" gradientTransform="matrix(15.5217 -1.0851 -1.0887 -15.4703 14692.2324 8827.1914)" gradientUnits="userSpaceOnUse">
								<stop  offset="6.800000e-02" style="stop-color:#90CF14"/>
								<stop  offset="1" style="stop-color:#A29514"/>
							</radialGradient>
							<path id="Trazado_2678" class="st16" d="M30.9,33.9c-1.1,0.7-2.4,1.1-3.7,0.9c-1-0.3-1.9-1.1-2.4-2c-0.5-0.9-0.9-1.9-1.5-2.8
								c-0.9-1.1-1.9-2-3-2.7c-1.1-0.8-2.1-1.8-2.8-2.9c-0.7-1.2-0.5-2.7,0.3-3.7c0.5-0.5,1.2-0.9,1.9-1c0.9-0.3,1.8-0.4,2.8-0.1
								c1.5,0.4,2.4,1.9,3.8,2.6c1.1,0.6,2.5,0.7,3.6,1.3c1.1,0.6,1.8,1.7,1.9,3c-0.1,0.8-0.1,1.5,0.1,2.3c0.3,0.8,1.2,1.4,1.4,2.2
								c0.1,0.6-0.1,1.2-0.6,1.6"/>
							
								<radialGradient id="Trazado_2679_1_" cx="-915.1365" cy="640.7824" r="0.4684" gradientTransform="matrix(57.8007 -4.0529 -4.0542 -57.7828 55520.2773 33353.1797)" gradientUnits="userSpaceOnUse">
								<stop  offset="4.000000e-03" style="stop-color:#EDA146"/>
								<stop  offset="0.54" style="stop-color:#E68F30"/>
								<stop  offset="0.996" style="stop-color:#E67F30"/>
							</radialGradient>
							<path id="Trazado_2679" class="st17" d="M3,15.4c0.4,0.5,1,0.8,1.5,1.1c1.7,0.6,3.4,1.1,5.2,1.3c1.4,0.4,2.8,0.9,4.2,1.4
								c3.3,1,6.8,2.2,9.1,4.8c1.8,2,2.8,4.6,4.9,6.4c1.8,1.5,4.3,2.3,5.4,4.2c1.2,2,0.5,4.6,1.3,6.7c1.1,3.1,4.8,4.6,6.8,7.2
								c1.7,2.4,2.5,4.3,2,7.3c-0.3,2.1-1,5.2,0.3,7.2c1,1.5,1.9,2,2.9,1.9c3.8-0.4,5.7-6.3,5.5-9c-0.2-2.4-1-4.6-1.1-7
								c0.1-1.4,0-2.9-0.1-4.3c-0.5-2.9-2.8-5.2-4.2-7.8c-1.5-2.7-2.2-5.7-3.2-8.5s-2.4-5.8-5-7.6c-1.3-0.9-2.7-1.5-4.1-2.3
								c-2.3-1.5-4.4-3.3-6.1-5.4c-0.9-1.2-2-2.1-3.2-2.9c-1.6-0.7-3.5-0.6-5.3-1c-1.1-0.3-2.2-0.8-3.3-1.1
								c-1.9-0.5-3.9-0.8-5.9-0.8C8.5,7,4.7,6.6,3.1,8.2C1.4,10.3,1.3,13.2,3,15.4z"/>
							
								<radialGradient id="Trazado_2680_1_" cx="-915.6589" cy="641.0991" r="0.6326" gradientTransform="matrix(64.0792 -4.4971 -4.4945 -64.116 61605.7305 37018.8789)" gradientUnits="userSpaceOnUse">
								<stop  offset="0" style="stop-color:#F67C27"/>
								<stop  offset="0.532" style="stop-color:#F66705"/>
								<stop  offset="1" style="stop-color:#DB5E05"/>
							</radialGradient>
							<path id="Trazado_2680" class="st18" d="M48.5,64.1c0.9-1.3,1.1-2.8,0.6-4.3c-0.3-1.5-1-2.8-1.2-4.3c-0.2-1.4,0-2.8-0.1-4.2
								c-0.2-2.3-1.1-4.5-2.5-6.3C44.4,44,43.6,43,42.9,42c-0.9-1.7-1.5-3.6-1.8-5.6c-1-4.5-2.8-9.3-6.8-11.9
								c-1.2-0.8-2.5-1.3-3.7-2.1c-4.2-2.8-6.3-8.4-11.2-9.6c-1.6-0.4-3.4-0.3-5-1c-1.3-0.7-2.5-1.6-3.5-2.7C9.8,8,8.3,7.4,6.8,7.5
								c-1.9,0.2-3.1,2-4.8,2.8C2.5,8,5.5,5.7,8,5.4s5.1,0.1,7.5-0.5c1.9-0.6,3.8-1.2,5.6-2c2.1-0.6,4.2-1.1,6.3-1.3
								C41-0.2,54.9-1.5,67.9,2.3c3.6,1.1,7.2,2.5,10.7,4c2.4,0.9,4.8,2.1,6.9,3.5c1.9,1.5,3.6,3.2,5.1,5c2.1,2.2,3.9,4.7,5.4,7.4
								c1.4,2.7,1.7,5.9,0.6,8.7c-1.5,3.5-5.2,5.6-8.6,7.5c-11.8,6.3-24,12.4-33.4,21.7C52.9,61.9,50.8,63.3,48.5,64.1z"/>
							<g id="Grupo_1679" transform="translate(30.989 3.614)">
								<path id="Trazado_2681" class="st19" d="M12.1,33.8c0.7-0.8,1.4-1.6,2-2.5c0.7-0.9,1.4-1.7,2.2-2.4c0.8-0.8,1.6-1.5,2.5-2.2
									c0.9-0.7,1.8-1.3,2.8-1.8c2-1,4.2-1.6,6.1-2.6c1.9-1,3.8-2.2,5.5-3.6c0.9-0.7,1.8-1.3,2.7-1.9c1-0.6,1.9-1.1,3-1.6
									c2-1,4.1-1.8,6.2-2.4c0.5-0.1,1.1-0.3,1.6-0.4s1.1-0.2,1.7-0.3c1.1-0.2,2.2-0.2,3.4-0.3c0.6,0,1.1,0,1.7,0s1.1,0.1,1.7,0.1
									s1.1,0.1,1.7,0.2s1.1,0.2,1.7,0.4l0,0.4c-0.5,0.2-1.1,0.4-1.6,0.6s-1,0.4-1.5,0.5l-0.8,0.3c-0.3,0.1-0.5,0.2-0.8,0.3
									l-1.5,0.5l-3,1l-1.5,0.5l-1.5,0.5c-2,0.6-4,1.1-6,1.7c-1,0.3-2,0.6-3,0.9l-0.8,0.2l-0.8,0.2l-1.6,0.4
									c-2.1,0.5-4.1,1.4-5.8,2.6c-1.7,1.4-3.3,2.8-4.8,4.4c-0.4,0.4-0.8,0.7-1.2,1c-0.4,0.3-0.9,0.6-1.3,0.9
									c-0.9,0.6-1.8,1.2-2.7,1.7s-1.9,1.1-2.8,1.6c-0.5,0.3-1,0.5-1.6,0.7c-0.6,0.2-1.2,0.4-1.8,0.4L12.1,33.8z"/>
								<path id="Trazado_2682" class="st19" d="M-0.1,15.1c0.7-0.8,1.4-1.5,2-2.4C3.2,11,4.7,9.5,6.5,8.2c0.9-0.7,1.8-1.2,2.8-1.6
									c1-0.4,2.1-0.7,3.1-1c0.5-0.1,1-0.3,1.6-0.4c0.3-0.1,0.5-0.2,0.8-0.3s0.5-0.2,0.7-0.3c1-0.4,2-0.8,2.9-1.3l0.7-0.3l0.7-0.4
									c0.5-0.2,1-0.5,1.5-0.7c1-0.4,2-0.8,3.1-1c1.1-0.3,2.1-0.4,3.2-0.6c2.1-0.4,4.2-0.5,6.4-0.5c2.1,0.1,4.2,0.3,6.3,0.7
									c1,0.2,2.1,0.4,3.1,0.7c1,0.3,2.1,0.7,3,1.1l0,0.4c-1.1,0.2-2.1,0.4-3.1,0.6s-2.1,0.3-3.1,0.4C38.1,4.1,36,4.3,34,4.4
									c-2,0.1-4,0.1-6,0.2c-1,0-2,0.1-3,0.1s-2,0.1-3,0.1l-1.5,0.1c-0.5,0-1,0.1-1.5,0.2c-0.5,0.1-1,0.2-1.5,0.3
									c-0.5,0.1-1,0.3-1.4,0.5c-0.2,0.1-0.5,0.2-0.7,0.3s-0.4,0.2-0.7,0.4s-0.4,0.3-0.6,0.4s-0.4,0.3-0.6,0.5S12.9,7.9,12.7,8
									l-0.6,0.5l-0.6,0.5L11,9.6c-0.4,0.3-0.8,0.7-1.2,1s-0.8,0.6-1.2,0.9c-0.8,0.5-1.7,1.1-2.6,1.6s-1.8,1-2.8,1.5
									c-0.5,0.3-1,0.5-1.5,0.7c-0.5,0.2-1.1,0.3-1.7,0.4L-0.1,15.1z"/>
							</g>
						</g>
						<g id="Grupo_1682" transform="translate(0 5.753)">
							
								<radialGradient id="Trazado_2683_1_" cx="-814.9515" cy="635.5439" r="0.6445" gradientTransform="matrix(68.7846 -4.8272 -4.8246 -68.8221 59185.1445 39850.4297)" gradientUnits="userSpaceOnUse">
								<stop  offset="0" style="stop-color:#F67C27"/>
								<stop  offset="0.532" style="stop-color:#F66705"/>
								<stop  offset="1" style="stop-color:#DB5E05"/>
							</radialGradient>
							<path id="Trazado_2683" class="st20" d="M115.2,27.6c-0.7,3.6-2.9,6.9-4.6,10.3c-1.1,2.3-1.9,4.7-3,7.1
								c-2.7,6-6.8,11.5-10.8,17c-4.1,5.5-8.5,11.3-15.1,14.6c-2.7,1.4-5.7,2.2-8.7,2.6c-0.3,0-0.6,0.1-1,0.1
								c-1.1,0.1-2.2,0.1-3.4-0.1c-1.2-0.3-2.4-0.8-3.5-1.4L49,69.5c-3.6-1.9-7.9-2.9-11.4-4.9c-1.6-0.9-2.7-2.6-4.2-3.7
								c-1.7-1.4-3.5-2.6-5.5-3.6c-2.5-1.3-5.1-2.2-7.6-3.5c-3.5-1.7-6.5-4.4-8.6-7.7c-1.9-3.2-2.1-7.1-0.5-10.5
								c2.1-4,6.9-6.5,11.7-7.9s10-1.8,15-3c14.2-3.5,26-13.1,40.7-14.2c2.5-0.3,5,0,7.5,0.7c1.5,0.6,3,1.1,4.5,1.6
								c2,0.4,4.1-0.1,6.2-0.3c1.8-0.2,3.7-0.3,5.1,0.8c1.4,1.1,2.2,2.5,4.2,3.1c1.6,0.5,2.7,0.5,4,1.3c0.2,0.1,0.3,0.2,0.5,0.3
								c1,0.7,2,1.5,2.8,2.4C115.1,22.3,115.8,25,115.2,27.6z"/>
							
								<radialGradient id="Trazado_2684_1_" cx="-814.4182" cy="635.2227" r="0.4371" gradientTransform="matrix(61.465 -4.3131 -4.3112 -61.4918 52889.8047 35596.7422)" gradientUnits="userSpaceOnUse">
								<stop  offset="4.000000e-03" style="stop-color:#EDA146"/>
								<stop  offset="0.54" style="stop-color:#E68F30"/>
								<stop  offset="0.996" style="stop-color:#E67F30"/>
							</radialGradient>
							<path id="Trazado_2684" class="st21" d="M115.2,27.6c-0.7,3.6-2.9,6.9-4.6,10.3c-1.1,2.3-1.9,4.7-3,7.1
								c-2.7,6-6.8,11.5-10.8,17c-4.1,5.5-8.5,11.3-15.1,14.6c-2.7,1.4-5.7,2.2-8.7,2.6c-0.7-0.8-1.3-1.8-1.7-2.8
								c-0.6-1.2-0.8-2.4-0.6-3.7c0.3-1.1,0.8-2.1,1.5-3c2.1-3.5,4.6-6.9,7.3-10c2.4-2.6,5.2-5,6.6-8.1c1.2-2.6,1.2-5.4,2.1-8.1
								c2.6-7.8,11.4-12.8,16.8-19.5c1.7-2.1,3.1-4.5,5.2-6.4c0.2,0.1,0.3,0.2,0.5,0.3c1,0.7,2,1.5,2.8,2.4
								C115.1,22.3,115.8,25,115.2,27.6z"/>
							
								<radialGradient id="Trazado_2685_1_" cx="-799.988" cy="626.5531" r="0.5139" gradientTransform="matrix(15.8619 -1.1135 -1.1126 -15.875 13465.3721 9116.6426)" gradientUnits="userSpaceOnUse">
								<stop  offset="0" style="stop-color:#E59773"/>
								<stop  offset="1" style="stop-color:#B96B43"/>
							</radialGradient>
							<path id="Trazado_2685" class="st22" d="M78,53c0.7,0.1,1.5,0.2,2.2,0.2c0.6-0.1,1.1-0.3,1.7-0.3c2.9,0,5.3,2.3,5.5,5.2
								c-0.1,0.6-0.3,1.2-0.4,1.9c-0.1,0.9-0.1,1.7,0,2.6c0,0.9-0.3,1.8-1,2.4c-1,0.9-2.7,0.9-3.9,1.6c-0.7,0.4-1.2,1-1.9,1.5
								c-1,0.6-2.2,0.8-3.3,0.8c-1.2-0.1-2.3-0.3-3.4-0.6c-0.5-0.1-0.9-0.3-1.3-0.6c-0.5-0.5-0.2-1.3-0.1-1.9c0.2-2.1-2-4-1.3-6
								c0.4-0.8,0.9-1.5,1.6-2.1c0.5-0.7,0.9-1.5,1-2.3C74,53.5,75.8,52.8,78,53z"/>
							
								<radialGradient id="Trazado_2686_1_" cx="-802.1138" cy="627.8552" r="0.499" gradientTransform="matrix(17.8101 -1.2535 -1.2492 -17.8713 15155.1416 10262.6484)" gradientUnits="userSpaceOnUse">
								<stop  offset="0" style="stop-color:#E59773"/>
								<stop  offset="1" style="stop-color:#B96B43"/>
							</radialGradient>
							<path id="Trazado_2686" class="st23" d="M93.6,45.4c-0.3,1.6,0.4,3.4-0.7,4.7c-0.7,0.7-1.4,1.3-2.2,1.8
								c-1.3,1.2-1.4,3.2-3,4.1c-1.3,0.6-2.7,0.6-4,0c-1.2-0.6-2.3-1.3-3.4-2c-0.8-0.5-1.6-0.9-2.3-1.5c-1.3-1.1-2.2-2.7-1.5-4.2
								c0.6-0.8,1.2-1.5,1.8-2.2c0.9-1.2,0.9-2.7,1.2-4.1c0.2-1.5,1.4-2.8,2.9-3.1c0.7,0,1.4,0,2.1,0.1c1.4,0,2.7-0.2,4-0.4
								c1.5-0.3,3.1,0.1,4.3,1C94.7,41.3,93.9,43.4,93.6,45.4z"/>
							
								<radialGradient id="Trazado_2687_1_" cx="-801.6255" cy="627.5414" r="0.4653" gradientTransform="matrix(17.3201 -1.2164 -1.2148 -17.3426 14743.1729 9942.1152)" gradientUnits="userSpaceOnUse">
								<stop  offset="0" style="stop-color:#E59773"/>
								<stop  offset="1" style="stop-color:#B96B43"/>
							</radialGradient>
							<path id="Trazado_2687" class="st24" d="M100.7,27.2c1.2-0.3,2.4,0.2,3,1.2c0.5,1,0.2,2.2-0.6,2.9c-0.5,0.6-1.4,1.1-1.4,1.8
								c0,0.5,0.4,1,0.6,1.6c0.4,1.1-0.1,2.4-1.1,3c-0.9,0.3-1.8,0.7-2.6,1.2c-0.9,0.7-1.1,1.8-1.8,2.7c-1.4,1.7-4.6,1.4-6.5,0.1
								c-0.7-0.4-1.2-1.2-1.2-2c0.1-0.6,0.6-1.1,0.8-1.6c0.5-1.3-0.7-2.6-0.9-3.9c-0.1-1.2,0.5-2.4,1.6-3c0.7-0.4,1.5-0.6,2.2-1.1
								c1.1-0.8,1.5-2.1,2.2-3.1s2.3-1.9,3.5-1.3"/>
							
								<radialGradient id="Trazado_2688_1_" cx="-800.1807" cy="626.7189" r="0.5556" gradientTransform="matrix(16.024 -1.1302 -1.1239 -16.1128 13629.6729 9210.5059)" gradientUnits="userSpaceOnUse">
								<stop  offset="0" style="stop-color:#FFA983"/>
								<stop  offset="1" style="stop-color:#CE6D43"/>
							</radialGradient>
							<path id="Trazado_2688" class="st25" d="M97.8,23.1c1.3,0.8,2.7,1.3,4.2,1.5c1.5,0.4,3,0.1,4.3-0.8c0.8-0.7,1.1-1.7,1.8-2.5
								c0.7-0.7,1.4-1.2,2.2-1.7c0.8-0.5,1.3-1.2,1.5-2.1c0.1-0.5-0.1-1-0.1-1.6c0.1-1.1,1-2,1.3-3.1c0.2-1.5-0.6-2.9-2-3.6
								c-1.5-0.7-3.1-0.9-4.7-0.6c-1,0.1-2,0.5-2.8,1.1c-0.8,0.6-1.2,1.5-2,2.1c-1.3,1-3.2,1.1-4.7,1.8c-1.9,0.8-3.1,2.6-3.1,4.7"/>
							
								<radialGradient id="Trazado_2689_1_" cx="-798.5452" cy="625.6843" r="0.5954" gradientTransform="matrix(14.7664 -1.0364 -1.0357 -14.7762 12536.5898 8441.6426)" gradientUnits="userSpaceOnUse">
								<stop  offset="0" style="stop-color:#FFA983"/>
								<stop  offset="1" style="stop-color:#CE6D43"/>
							</radialGradient>
							<path id="Trazado_2689" class="st26" d="M98.3,31c2.1-0.6,3.9-1.9,5.1-3.6c0.2-0.3,0.4-0.7,0.7-1c0.4-0.4,0.9-0.8,1.4-1.1
								c1-0.8,1.5-2,1.3-3.3c-0.2-1.3-0.9-2.4-2-3.1c-0.7-0.4-1.4-0.8-2.2-1.1c-1.1-0.5-2.4-0.9-3.6-1.2c-2.8-0.4-5.5,0.7-8,1.9
								c-1,0.4-1.9,1-2.7,1.8c-0.6,0.8-1,1.8-1.1,2.8c-0.1,0.9-0.7,2-0.3,2.9c0.4,1,1.9,1.3,2.4,2.2c0.1,0.3,0.3,0.5,0.4,0.8
								C90.9,31.8,95.8,31.8,98.3,31z"/>
							
								<radialGradient id="Trazado_2690_1_" cx="-800.1796" cy="626.7195" r="0.5556" gradientTransform="matrix(16.0232 -1.1302 -1.1239 -16.1139 13611.3818 9230.8203)" gradientUnits="userSpaceOnUse">
								<stop  offset="0" style="stop-color:#FFA983"/>
								<stop  offset="1" style="stop-color:#CE6D43"/>
							</radialGradient>
							<path id="Trazado_2690" class="st27" d="M80.2,42.7c1.3,0.8,2.7,1.3,4.2,1.5c1.5,0.4,3,0.1,4.3-0.8c0.8-0.7,1.1-1.7,1.8-2.5
								c0.7-0.7,1.4-1.2,2.2-1.7c0.8-0.5,1.3-1.2,1.5-2.1c0.1-0.5-0.1-1-0.1-1.6c0.1-1.1,1-2,1.3-3.1c0.2-1.5-0.6-2.9-2-3.6
								c-1.5-0.7-3.1-0.9-4.7-0.6c-1,0.1-2,0.5-2.8,1.1c-0.8,0.6-1.2,1.5-2,2.1c-1.3,1-3.2,1.1-4.7,1.8c-1.9,0.8-3.1,2.6-3.1,4.7"/>
							
								<radialGradient id="Trazado_2691_1_" cx="-798.5526" cy="625.6785" r="0.6189" gradientTransform="matrix(14.7711 -1.0358 -1.0361 -14.7678 12521.2939 8460.6445)" gradientUnits="userSpaceOnUse">
								<stop  offset="0" style="stop-color:#FFA983"/>
								<stop  offset="1" style="stop-color:#CE6D43"/>
							</radialGradient>
							<path id="Trazado_2691" class="st28" d="M72.9,54.7c2.1,0.8,4.5,0.9,6.7,0.3c2.1-0.6,3.9-1.9,5.1-3.6c0.2-0.3,0.4-0.7,0.7-1
								c0.4-0.4,0.9-0.8,1.4-1.1c1-0.8,1.5-2,1.3-3.3c-0.2-1.3-0.9-2.4-2-3.1c-0.7-0.4-1.4-0.8-2.2-1.1c-1.1-0.5-2.4-0.9-3.6-1.2
								c-2.8-0.4-5.5,0.7-8,1.9c-1,0.4-1.9,1-2.7,1.8c-0.5,0.8-0.9,1.7-1.1,2.7c-0.6,1.4-1.7,2.7-1.6,4.2c0.1,1.7,1.7,3,3.4,3.9"/>
							
								<radialGradient id="Trazado_2692_1_" cx="-822.0389" cy="603.095" r="0.398" gradientTransform="matrix(6.4542 -14.7525 -9.662 -3.5096 11208.3555 -9949.3672)" gradientUnits="userSpaceOnUse">
								<stop  offset="0" style="stop-color:#FFA983"/>
								<stop  offset="1" style="stop-color:#CE6D43"/>
							</radialGradient>
							<path id="Trazado_2692" class="st29" d="M67.4,61.5c-0.1,1.4-2.2,1.9-2.3,3.4c0.1,1.2,0.8,2.2,1.8,2.7c2.1,1.4,5.9,2,8.1,0.5
								c0.5-0.3,0.8-0.8,1.3-1.1c1.1-0.8,2.7-1.1,3.5-2c1.1-1.4-0.1-3.2,0.4-4.8c0.3-0.9,1.1-1.6,1.2-2.5c0-1.1-0.5-2.1-1.5-2.7
								c-1.4-1.2-3.2-1.9-5-2c-1.9-0.1-4,0.7-4.8,2c-0.3,0.5-0.5,1.2-0.8,1.7c-0.7,1.2-2.2,2.3-2.1,3.6C67.3,60.6,67.3,61,67.4,61.5
								z"/>
							
								<radialGradient id="Trazado_2693_1_" cx="-802.4283" cy="628.0096" r="0.4778" gradientTransform="matrix(18.137 -1.2718 -1.2721 -18.1329 15429.4502 10407.9658)" gradientUnits="userSpaceOnUse">
								<stop  offset="0" style="stop-color:#90CF14"/>
								<stop  offset="6.800000e-02" style="stop-color:#4BCF14"/>
								<stop  offset="1" style="stop-color:#A29514"/>
							</radialGradient>
							<path id="Trazado_2693" class="st30" d="M72.4,49.6c1.5,0.3,3.2,0.7,4.6,0c1.1-0.6,1.8-1.5,2.1-2.7c0.3-1.1,0.5-2.2,0.9-3.3
								c0.7-1.3,1.6-2.6,2.6-3.6c1.1-1,1.8-2.3,2.3-3.8c0.4-1.5-0.2-3-1.5-3.8c-0.8-0.4-1.7-0.6-2.6-0.6c-1.1-0.1-2.2,0.1-3.2,0.5
								c-1.6,0.8-2.3,2.6-3.6,3.7c-1.1,0.9-2.7,1.3-3.8,2.3c-1,0.9-1.5,2.2-1.2,3.6c0.3,0.8,0.5,1.6,0.6,2.4c-0.1,0.9-1,1.7-1,2.7
								c0,0.7,0.5,1.3,1.2,1.6"/>
							
								<radialGradient id="Trazado_2694_1_" cx="-805.2151" cy="624.8715" r="0.4778" gradientTransform="matrix(21.2078 -0.9291 -1.4875 -13.2465 18104.0879 7544.4282)" gradientUnits="userSpaceOnUse">
								<stop  offset="0" style="stop-color:#90CF14"/>
								<stop  offset="6.800000e-02" style="stop-color:#4BCF14"/>
								<stop  offset="1" style="stop-color:#A29514"/>
							</radialGradient>
							<path id="Trazado_2694" class="st31" d="M90.5,20c1.1,1,2.5,1.7,3.9,1.9c1.1,0,2.2-0.4,2.9-1.3c0.7-0.7,1.3-1.6,2.1-2.2
								c1.1-0.8,2.4-1.4,3.7-1.8c1.3-0.4,2.5-1.1,3.5-2c0.9-1,1-2.5,0.2-3.6c-0.5-0.6-1.2-1.2-2-1.5C104,9,103,8.6,102,8.6
								c-1.7,0-3,1.1-4.6,1.4c-1.3,0.3-2.9,0-4.2,0.2c-1.2,0.2-2.2,1.1-2.5,2.3c0,0.7-0.2,1.5-0.5,2.1c-0.5,0.7-1.6,1-1.9,1.7
								c-0.2,0.6-0.1,1.3,0.4,1.7"/>
							
								<radialGradient id="Trazado_2695_1_" cx="-798.9922" cy="628.2941" r="0.4778" gradientTransform="matrix(15.2065 -1.3504 -1.0666 -19.2525 12888.1367 11074.3604)" gradientUnits="userSpaceOnUse">
								<stop  offset="0" style="stop-color:#90CF14"/>
								<stop  offset="6.800000e-02" style="stop-color:#4BCF14"/>
								<stop  offset="1" style="stop-color:#A29514"/>
							</radialGradient>
							<path id="Trazado_2695" class="st32" d="M67.7,66.7c1.6-0.1,3.3-0.2,4.4-1.1c0.8-0.8,1.2-2,1.1-3.1c0-1.1-0.3-2.2-0.3-3.4
								c0.2-1.4,0.6-2.8,1.2-4.1c0.6-1.3,1-2.7,0.9-4.2c-0.2-1.5-1.3-2.8-2.8-3.2c-0.9-0.2-1.8-0.1-2.7,0.1
								c-1.1,0.2-2.1,0.6-2.9,1.3c-1.3,1.2-1.2,3.1-2.2,4.5c-0.8,1.2-2.1,2-2.8,3.1c-0.7,1.2-0.7,2.6,0,3.7c0.5,0.7,1.2,1.4,1.4,2.2
								c0.2,0.9-0.3,1.9,0,2.8c0.3,0.7,0.9,1.1,1.7,1.2"/>
							
								<radialGradient id="Trazado_2696_1_" cx="-803.8267" cy="627.84" r="0.4778" gradientTransform="matrix(19.676 -1.2353 -1.3801 -17.6112 16767.6699 10090.8389)" gradientUnits="userSpaceOnUse">
								<stop  offset="0" style="stop-color:#90CF14"/>
								<stop  offset="6.800000e-02" style="stop-color:#4BCF14"/>
								<stop  offset="1" style="stop-color:#A29514"/>
							</radialGradient>
							<path id="Trazado_2696" class="st33" d="M79.7,34.9c1.5,0.5,3.1,1,4.6,0.5c1.1-0.5,2-1.4,2.5-2.5c0.5-1,0.7-2.2,1.3-3.2
								c0.8-1.3,1.9-2.4,3.1-3.4c1.2-0.9,2.1-2.2,2.8-3.5c0.6-1.4,0.2-3-1-3.9c-0.7-0.5-1.6-0.8-2.5-0.8c-1.1-0.2-2.2-0.1-3.3,0.2
								c-1.7,0.7-2.6,2.4-4.1,3.4c-1.2,0.8-2.8,1.1-4,1.9c-1.1,0.8-1.8,2.1-1.7,3.4c0.2,0.8,0.3,1.6,0.3,2.5
								c-0.2,0.9-1.2,1.6-1.3,2.6c-0.1,0.7,0.3,1.4,1,1.7"/>
							
								<radialGradient id="Trazado_2697_1_" cx="-814.8652" cy="635.4912" r="0.4476" gradientTransform="matrix(67.4746 -4.7343 -4.7327 -67.4976 58074.4531 39072.7773)" gradientUnits="userSpaceOnUse">
								<stop  offset="4.000000e-03" style="stop-color:#EDA146"/>
								<stop  offset="0.54" style="stop-color:#E68F30"/>
								<stop  offset="0.996" style="stop-color:#E67F30"/>
							</radialGradient>
							<path id="Trazado_2697" class="st34" d="M109.5,11.1c-0.4,0.6-1,1-1.6,1.4c-1.9,0.9-3.9,1.6-5.9,2.1
								c-1.7,0.5-3.1,1.4-4.7,2.1c-3.8,1.5-7.6,3.3-9.9,6.4c-1.8,2.4-2.5,5.3-4.7,7.5c-1.8,1.8-4.7,3-5.7,5.3c-1,2.3,0.2,5-0.3,7.4
								c-0.8,3.5-4.9,5.6-6.8,8.7c-1.7,2.8-2.2,5-1.1,8.1c0.8,2.2,2.1,5.4,0.9,7.7c-0.9,1.7-2,2.4-3.1,2.4c-4.5,0.1-7.9-6-8.1-8.9
								c-0.2-2.5,0.4-5.1,0.1-7.7c-0.3-1.5-0.5-3.1-0.7-4.7c0.1-3.2,2.4-6,3.7-9c1.3-3.1,1.6-6.4,2.3-9.6c0.7-3.2,1.9-6.5,4.6-8.8
								c1.3-1.1,3-2,4.4-3c2.4-1.9,4.5-4.1,6.2-6.7c0.8-1.4,2-2.6,3.3-3.5c1.8-1,4.1-1.1,6.1-1.8C89.8,6.2,91,5.5,92.2,5
								c2.2-0.8,4.5-1.4,6.8-1.6c2.5-0.4,6.9-1.4,9.1,0.1C110.5,5.3,111.1,8.6,109.5,11.1z"/>
							
								<radialGradient id="Trazado_2698_1_" cx="-814.935" cy="634.9214" r="0.681" gradientTransform="matrix(69.798 0.1558 -2.4714 -47.7345 58506 30462.377)" gradientUnits="userSpaceOnUse">
								<stop  offset="0" style="stop-color:#F67C27"/>
								<stop  offset="0.532" style="stop-color:#F66705"/>
								<stop  offset="1" style="stop-color:#DB5E05"/>
							</radialGradient>
							<path id="Trazado_2698" class="st35" d="M64,69.7c-1.2-1.2-1.8-2.9-1.5-4.5c0.2-1.6,0.7-3.2,0.7-4.8c0-1.5-0.5-3-0.6-4.6
								c-0.2-2.5,0.5-5,1.9-7.1c0.8-1.1,1.6-2.3,2.3-3.5c1-1.9,1-4.1,1.2-6.2c0.4-5,1.6-10.4,6-13.7c1.3-1,2.7-1.8,4-2.8
								c4.5-3.6,6-9.9,11.6-11.9c1.9-0.7,4-0.8,5.8-1.7c1.4-0.9,2.6-2.1,3.7-3.4c1.1-1.3,2.8-2.2,4.5-2.3c2.3,0,4,1.7,6.2,2.4
								c-1-2.4-5-4.4-8-4.4s-6,0.8-9,0.5c-2.3-0.3-4.7-0.8-7-1.4c-2.6-0.4-5.1-0.5-7.7-0.5c-16.2-0.1-33,0.4-47.7,6.3
								c-4.1,1.7-8.1,3.6-11.9,5.7c-2.7,1.3-5.2,2.9-7.6,4.7c-2,1.8-3.7,3.9-5.2,6.1c-2,2.8-4,5.6-5.1,8.7c-1.2,3.1-0.9,6.6,0.8,9.5
								c2.3,3.6,7.1,5.3,11.5,6.9c15,5.1,30.6,10,43.3,18.6C58.6,68,61.2,69.2,64,69.7z"/>
							<g id="Grupo_1681" transform="translate(6.67 3.379)">
								<path id="Trazado_2699" class="st19" d="M59.9,36.6c-1.3-0.1-2.6-0.2-3.9-0.4c-1.3-0.2-2.5-0.5-3.8-0.8s-2.5-0.7-3.7-1.1
									c-1.2-0.4-2.4-0.8-3.5-1.4c-1.1-0.5-2.2-1.2-3.4-1.7c-1.1-0.6-2.3-1-3.6-1.4c-1.2-0.3-2.5-0.5-3.7-0.7
									C33,29,31.7,29,30.4,29.1c-1.3,0-2.6,0.1-3.8,0.1s-2.5,0-3.8,0c-2.5,0-5,0-7.6-0.1c-1.3-0.1-2.5-0.1-3.8-0.2
									c-1.3-0.1-2.5-0.2-3.8-0.3c-0.6-0.1-1.3-0.1-1.9-0.2S4.5,28.1,3.8,28s-1.3-0.2-1.9-0.3S0.6,27.6,0,27.4l0-0.4
									c0.6-0.2,1.3-0.4,1.9-0.6s1.3-0.4,1.9-0.5s1.3-0.3,1.9-0.4s1.3-0.2,1.9-0.3s1.3-0.2,1.9-0.3s1.3-0.1,1.9-0.2
									c1.3-0.1,2.6-0.2,3.9-0.2c2.6,0,5.2,0.2,7.8,0.6c1.3,0.2,2.6,0.4,3.8,0.6c0.3,0.1,0.6,0.1,1,0.2l0.9,0.2
									c0.6,0.2,1.3,0.3,1.9,0.5c1.3,0.3,2.5,0.7,3.8,1s2.5,0.5,3.8,0.7s2.6,0.3,3.9,0.4c1.3,0.1,2.6,0.3,3.9,0.6
									c1.3,0.3,2.5,0.7,3.7,1.2c1.2,0.5,2.4,1,3.5,1.5c1.2,0.6,2.3,1.1,3.4,1.8c1.1,0.7,2.2,1.4,3.3,2.2L59.9,36.6z"/>
								<path id="Trazado_2700" class="st19" d="M83,7.4c-1.3,0-2.6,0-3.8-0.1c-1.3-0.1-2.5-0.2-3.7-0.4c-1.2-0.1-2.4-0.3-3.6-0.6
									c-1.2-0.2-2.4-0.4-3.6-0.8c-1.2-0.3-2.4-0.8-3.5-1.2c-1.2-0.4-2.4-0.7-3.6-1c-1.2-0.2-2.5-0.3-3.7-0.3
									c-1.2,0-2.5,0.1-3.7,0.2c-0.6,0.1-1.2,0.2-1.9,0.2S50.6,3.7,50,3.7C48.7,3.9,47.5,4,46.3,4c-1.2,0.1-2.4,0.2-3.7,0.3
									c-1.2,0.1-2.4,0.2-3.7,0.3c-1.2,0.1-2.4,0.1-3.7,0.1c-1.2,0-2.5,0.1-3.7,0c-1.2,0-2.5,0-3.7,0c-1.3,0-2.5-0.1-3.8-0.2
									L24,4.1c1.1-0.6,2.3-1.1,3.5-1.5c1.2-0.4,2.4-0.8,3.6-1.1c1.2-0.3,2.5-0.6,3.7-0.8c1.2-0.2,2.5-0.4,3.8-0.5
									c1.3-0.1,2.5-0.2,3.8-0.2c1.3,0,2.5,0.1,3.8,0.1c1.3,0.1,2.5,0.2,3.8,0.3c0.6,0.1,1.3,0.2,1.9,0.3s1.2,0.2,1.9,0.4
									c1.2,0.3,2.5,0.5,3.7,0.7C58.8,1.9,60,2,61.2,2.1c1.3,0.1,2.5,0.1,3.8,0c1.3,0,2.6-0.1,3.8,0c1.3,0.1,2.5,0.3,3.7,0.6
									c1.2,0.3,2.4,0.7,3.6,1c1.2,0.4,2.4,0.9,3.5,1.4c1.2,0.6,2.3,1.2,3.3,1.9L83,7.4z"/>
							</g>
						</g>
					</g>
				</g>
			</g>
		</g>
	</g>
</g>
</svg>
