<?xml version="1.0" encoding="utf-8"?>
<!-- Generator: Adobe Illustrator 24.3.0, SVG Export Plug-In . SVG Version: 6.00 Build 0)  -->
<svg version="1.1" id="Capa_1" xmlns="http://www.w3.org/2000/svg" xmlns:xlink="http://www.w3.org/1999/xlink" x="0px" y="0px"
	 viewBox="0 0 464 136" style="enable-background:new 0 0 464 136;" xml:space="preserve">
<style type="text/css">
	.st0{fill:#273043;}
	.st1{enable-background:new    ;}
	.st2{fill:#FFFFFF;}
</style>
<path id="Rectángulo_103_1_" class="st0" d="M40,31.6h384c22.1,0,40,17.9,40,40l0,0c0,22.1-17.9,40-40,40H40c-22.1,0-40-17.9-40-40
	l0,0C0,49.6,17.9,31.6,40,31.6z"/>
<g class="st1">
	<path class="st2" d="M87.1,63.9c-0.5-0.5-0.8-1.2-0.8-2c0-0.8,0.3-1.4,0.8-1.9c0.5-0.5,1.2-0.8,1.9-0.8c0.8,0,1.4,0.3,2,0.8
		c0.5,0.5,0.8,1.2,0.8,1.9c0,0.8-0.3,1.4-0.8,2c-0.5,0.5-1.2,0.8-2,0.8C88.2,64.7,87.6,64.4,87.1,63.9z M91.7,80.6h-5.5l0.6-15.2
		l4.3,1.2L91.7,80.6z"/>
	<path class="st2" d="M108.4,65.2c-0.7-0.3-1.3-0.5-1.8-0.6c-0.5-0.1-0.9-0.2-1.3-0.3s-0.8-0.1-1.3-0.1c-0.8,0-1.6,0.3-2.3,0.8
		c-0.8,0.5-1.4,1.2-1.8,2.2c-0.5,0.9-0.7,2-0.7,3.3c0,1,0.1,1.8,0.4,2.6c0.3,0.8,0.7,1.4,1.2,1.9c0.5,0.5,1,0.9,1.6,1.2
		c0.6,0.3,1.2,0.4,1.9,0.4c0.7,0,1.4-0.1,2.1-0.3c0.7-0.2,1.2-0.5,1.8-0.8l2.1,4.1c-0.5,0.3-1.1,0.6-1.8,0.8s-1.4,0.4-2.1,0.5
		s-1.4,0.2-2.1,0.2c-1.7,0-3.1-0.3-4.5-0.8c-1.3-0.5-2.4-1.2-3.3-2.2c-0.9-0.9-1.6-2-2.1-3.3s-0.7-2.7-0.7-4.2c0-1.6,0.3-3,0.8-4.3
		c0.5-1.3,1.2-2.4,2.2-3.4c0.9-1,2-1.7,3.3-2.2c1.3-0.5,2.7-0.8,4.2-0.8c0.7,0,1.4,0.1,2.1,0.2c0.7,0.1,1.4,0.3,2.1,0.6
		c0.7,0.3,1.3,0.6,1.8,0.9L108.4,65.2z"/>
	<path class="st2" d="M119.3,81c-1.6,0-3-0.3-4.2-0.8s-2.2-1.4-2.9-2.5c-0.7-1.1-1-2.6-1-4.3c0-1.6,0.4-3,1.1-4.2
		c0.7-1.1,1.7-2,3-2.6c1.3-0.6,2.6-0.9,4.2-0.9c1.6,0,3,0.3,4.3,0.9c1.2,0.6,2.2,1.5,2.9,2.6c0.7,1.2,1.1,2.6,1.1,4.3
		c0,1.6-0.4,3-1.1,4.1s-1.8,2-3,2.5C122.2,80.7,120.8,81,119.3,81z M119.3,76.5c0.6,0,1.1-0.1,1.5-0.3c0.4-0.2,0.7-0.6,0.9-1
		c0.2-0.5,0.3-1,0.3-1.7c0-0.7-0.1-1.2-0.3-1.8c-0.2-0.5-0.5-0.9-0.9-1.2c-0.4-0.3-0.8-0.5-1.4-0.5c-0.6,0-1,0.1-1.4,0.4
		c-0.4,0.3-0.7,0.6-0.9,1.1c-0.2,0.5-0.3,1.1-0.3,1.8c0,0.6,0.1,1.2,0.3,1.7c0.2,0.5,0.5,0.9,0.9,1.1
		C118.3,76.4,118.8,76.5,119.3,76.5z"/>
	<path class="st2" d="M129.7,80.6V66.1h3.2l1,1.5c0.5-0.3,1-0.6,1.7-0.9c0.6-0.3,1.3-0.6,2-0.8c0.7-0.2,1.5-0.3,2.3-0.3
		c1.2,0,2.2,0.2,3,0.7s1.3,1.2,1.7,2c0.4,0.9,0.6,1.8,0.6,2.9v9.4h-5.5v-8.9c0-0.5-0.1-0.9-0.3-1.2c-0.2-0.3-0.6-0.5-1.2-0.5
		c-0.2,0-0.5,0-0.9,0.1c-0.4,0.1-0.7,0.2-1.1,0.3s-0.7,0.3-1,0.4v9.8H129.7z"/>
	<path class="st2" d="M155.3,81c-1.6,0-3-0.3-4.2-0.8s-2.2-1.4-2.9-2.5c-0.7-1.1-1-2.6-1-4.3c0-1.6,0.4-3,1.1-4.2
		c0.7-1.1,1.7-2,3-2.6c1.3-0.6,2.6-0.9,4.2-0.9c1.6,0,3,0.3,4.3,0.9c1.2,0.6,2.2,1.5,2.9,2.6c0.7,1.2,1.1,2.6,1.1,4.3
		c0,1.6-0.4,3-1.1,4.1s-1.8,2-3,2.5C158.2,80.7,156.8,81,155.3,81z M155.3,76.5c0.6,0,1.1-0.1,1.5-0.3c0.4-0.2,0.7-0.6,0.9-1
		c0.2-0.5,0.3-1,0.3-1.7c0-0.7-0.1-1.2-0.3-1.8c-0.2-0.5-0.5-0.9-0.9-1.2c-0.4-0.3-0.8-0.5-1.4-0.5c-0.6,0-1,0.1-1.4,0.4
		c-0.4,0.3-0.7,0.6-0.9,1.1c-0.2,0.5-0.3,1.1-0.3,1.8c0,0.6,0.1,1.2,0.3,1.7c0.2,0.5,0.5,0.9,0.9,1.1
		C154.3,76.4,154.8,76.5,155.3,76.5z"/>
	<path class="st2" d="M177.8,79.5c-0.6,0.4-1.1,0.8-1.8,1s-1.2,0.3-1.8,0.4c-0.6,0.1-1,0.1-1.4,0.1c-1.6,0-2.9-0.3-4.1-0.9
		c-1.2-0.6-2.1-1.5-2.8-2.6c-0.7-1.1-1-2.5-1-4.1c0-1.6,0.3-3,1-4.2c0.7-1.2,1.6-2,2.8-2.7c1.2-0.6,2.6-0.9,4.1-0.9
		c0.4,0,0.9,0,1.4,0.1c0.6,0.1,1.1,0.2,1.8,0.4s1.2,0.5,1.8,1l-1.5,3.8c-0.6-0.3-1.1-0.5-1.5-0.6c-0.4-0.1-0.9-0.2-1.4-0.2
		c-0.5,0-0.9,0.1-1.4,0.4c-0.4,0.3-0.8,0.7-1.1,1.2s-0.4,1.1-0.4,1.8c0,0.7,0.1,1.3,0.4,1.7c0.3,0.5,0.6,0.8,1.1,1.1
		c0.4,0.2,0.9,0.4,1.4,0.4s0.9-0.1,1.4-0.2c0.4-0.1,0.9-0.3,1.5-0.6L177.8,79.5z"/>
	<path class="st2" d="M184.5,74.7c0.1,0.4,0.3,0.8,0.6,1c0.3,0.3,0.6,0.5,1.1,0.7c0.4,0.2,1,0.2,1.6,0.2c0.9,0,1.7-0.1,2.3-0.3
		c0.7-0.2,1.2-0.4,1.7-0.7l1.5,3.7c-0.4,0.3-0.9,0.5-1.5,0.8c-0.6,0.2-1.4,0.4-2.1,0.6c-0.8,0.1-1.6,0.2-2.4,0.2
		c-1.7,0-3.1-0.3-4.5-0.9c-1.3-0.6-2.4-1.4-3.1-2.6c-0.8-1.1-1.1-2.5-1.1-4.2s0.3-3,1-4.2c0.7-1.2,1.6-2,2.8-2.7
		c1.2-0.6,2.5-0.9,4-0.9c1.6,0,2.9,0.3,3.9,1c1,0.7,1.8,1.6,2.3,2.8s0.8,2.4,0.8,3.8v1.6H184.5z M188.1,72c0-0.3-0.1-0.6-0.2-0.9
		c-0.1-0.3-0.3-0.6-0.6-0.8c-0.3-0.2-0.6-0.3-1.1-0.3c-0.3,0-0.6,0.1-0.9,0.3c-0.3,0.2-0.5,0.4-0.7,0.8c-0.2,0.3-0.3,0.7-0.3,1
		H188.1z"/>
	<path class="st2" d="M202,67c0.5-0.2,1.1-0.5,1.8-0.7c0.7-0.2,1.4-0.4,2.2-0.5c0.8-0.1,1.6-0.2,2.4-0.2c1.3,0,2.4,0.3,3.3,0.8
		s1.6,1.2,2,2.1c0.5,0.9,0.7,2,0.7,3.2v9h-2.6l-1.6-1.5c-0.5,0.6-1,1-1.5,1.3c-0.6,0.3-1.1,0.5-1.8,0.5c-1.8,0-3.2-0.5-4.1-1.4
		s-1.4-2.1-1.4-3.6c0-1.6,0.5-2.7,1.6-3.3s2.4-0.9,4.1-0.9h1.7l0-0.1c-0.1-0.5-0.3-0.9-0.7-1.2c-0.3-0.2-0.7-0.4-1.2-0.4
		c-0.5,0-1.1,0.1-1.8,0.3c-0.7,0.2-1.3,0.4-1.9,0.6L202,67z M206.2,76.4c0.1,0.2,0.2,0.3,0.4,0.4s0.3,0.1,0.5,0.1
		c0.3,0,0.6-0.1,1-0.2c0.3-0.1,0.6-0.3,1-0.6v-1.4h-1.7c-0.4,0-0.7,0.1-0.9,0.3c-0.2,0.2-0.3,0.5-0.3,0.8
		C206.1,76.1,206.1,76.2,206.2,76.4z"/>
	<path class="st2" d="M223.9,80.6V66.1h3.2l1,1.5c0.5-0.3,1-0.6,1.6-0.9c0.6-0.3,1.3-0.6,2-0.8c0.7-0.2,1.4-0.3,2.1-0.3
		c1.3,0,2.3,0.2,3,0.7s1.3,1.2,1.6,2c0.3,0.9,0.5,1.8,0.5,2.9v9.4h-5.5v-8.9c0-0.3,0-0.6-0.1-0.9c-0.1-0.3-0.2-0.5-0.4-0.6
		c-0.2-0.2-0.5-0.2-1-0.2c-0.2,0-0.4,0-0.8,0.1c-0.3,0.1-0.7,0.2-1,0.3c-0.4,0.1-0.7,0.3-1,0.4v9.8H223.9z M237.7,67.6
		c0.5-0.3,1-0.6,1.6-0.9c0.6-0.3,1.3-0.6,2-0.8c0.7-0.2,1.4-0.3,2.1-0.3c1.3,0,2.3,0.2,3,0.7s1.3,1.2,1.6,2c0.3,0.9,0.5,1.8,0.5,2.9
		v9.4h-5.5v-8.9c0-0.3,0-0.6-0.1-0.9c0-0.3-0.2-0.5-0.4-0.6c-0.2-0.2-0.5-0.2-1-0.2c-0.2,0-0.4,0-0.8,0.1c-0.3,0.1-0.7,0.2-1,0.3
		s-0.7,0.3-1,0.4L237.7,67.6z"/>
	<path class="st2" d="M252.2,63.2c-0.6-0.6-0.9-1.3-0.9-2.1c0-0.8,0.3-1.5,0.9-2.1s1.3-0.9,2.1-0.9c0.8,0,1.5,0.3,2.1,0.9
		c0.6,0.6,0.9,1.3,0.9,2.1c0,0.8-0.3,1.5-0.9,2.1c-0.6,0.6-1.3,0.9-2.1,0.9C253.4,64.1,252.8,63.8,252.2,63.2z M251.5,80.6V66.1h5.5
		v14.5H251.5z"/>
	<path class="st2" d="M260.7,75.8c0.4,0.2,0.9,0.3,1.4,0.5s1,0.3,1.5,0.4c0.5,0.1,0.9,0.2,1.3,0.2c0.2,0,0.5,0,0.6-0.1
		c0.2-0.1,0.3-0.1,0.5-0.2c0.1-0.1,0.2-0.2,0.2-0.3c0-0.1-0.1-0.2-0.2-0.3c-0.1-0.1-0.3-0.2-0.5-0.3c-0.2-0.1-0.5-0.2-0.8-0.3
		c-0.8-0.3-1.6-0.6-2.4-1c-0.8-0.4-1.5-0.9-2-1.5c-0.5-0.6-0.8-1.4-0.8-2.3c0-1.5,0.6-2.7,1.7-3.6c1.1-0.9,2.7-1.3,4.7-1.3
		c0.4,0,0.9,0,1.6,0.1c0.7,0.1,1.3,0.2,2,0.5c0.7,0.2,1.3,0.6,1.9,1l-1.5,3.5c-0.6-0.3-1.2-0.5-1.8-0.6s-1.2-0.2-1.7-0.2
		c-0.4,0-0.8,0.1-1.1,0.2c-0.3,0.1-0.4,0.3-0.4,0.5c0,0.1,0.1,0.3,0.4,0.4c0.3,0.2,0.7,0.3,1.1,0.5c0.8,0.3,1.6,0.6,2.4,1
		c0.8,0.4,1.4,0.9,2,1.5c0.5,0.6,0.8,1.4,0.8,2.3c0,1.5-0.5,2.7-1.5,3.6c-1,0.9-2.5,1.3-4.5,1.3c-0.4,0-1,0-1.8-0.2
		c-0.8-0.1-1.6-0.3-2.4-0.5c-0.8-0.3-1.5-0.6-2.1-1L260.7,75.8z"/>
	<path class="st2" d="M280.1,67c0.5-0.2,1.1-0.5,1.8-0.7c0.7-0.2,1.4-0.4,2.2-0.5c0.8-0.1,1.6-0.2,2.4-0.2c1.3,0,2.4,0.3,3.3,0.8
		s1.6,1.2,2,2.1c0.5,0.9,0.7,2,0.7,3.2v9h-2.6l-1.6-1.5c-0.5,0.6-1,1-1.5,1.3c-0.6,0.3-1.1,0.5-1.8,0.5c-1.8,0-3.2-0.5-4.1-1.4
		s-1.3-2.1-1.3-3.6c0-1.6,0.5-2.7,1.6-3.3c1.1-0.6,2.4-0.9,4.1-0.9h1.7l0-0.1c-0.1-0.5-0.3-0.9-0.7-1.2c-0.3-0.2-0.7-0.4-1.2-0.4
		c-0.5,0-1.1,0.1-1.8,0.3s-1.3,0.4-1.9,0.6L280.1,67z M284.3,76.4c0.1,0.2,0.2,0.3,0.4,0.4s0.3,0.1,0.5,0.1c0.3,0,0.6-0.1,1-0.2
		c0.3-0.1,0.6-0.3,1-0.6v-1.4h-1.7c-0.4,0-0.7,0.1-0.9,0.3c-0.2,0.2-0.3,0.5-0.3,0.8C284.1,76.1,284.2,76.2,284.3,76.4z"/>
	<path class="st2" d="M295.4,80.6V66.1h3.2l1,1.5c0.5-0.3,1-0.6,1.6-0.9c0.6-0.3,1.3-0.6,2-0.8c0.7-0.2,1.4-0.3,2.1-0.3
		c1.3,0,2.3,0.2,3,0.7s1.3,1.2,1.6,2c0.3,0.9,0.5,1.8,0.5,2.9v9.4h-5.5v-8.9c0-0.3,0-0.6-0.1-0.9c-0.1-0.3-0.2-0.5-0.4-0.6
		c-0.2-0.2-0.5-0.2-1-0.2c-0.2,0-0.4,0-0.8,0.1c-0.3,0.1-0.7,0.2-1,0.3c-0.4,0.1-0.7,0.3-1,0.4v9.8H295.4z M309.2,67.6
		c0.5-0.3,1-0.6,1.7-0.9c0.6-0.3,1.3-0.6,2-0.8c0.7-0.2,1.4-0.3,2.1-0.3c1.3,0,2.3,0.2,3,0.7s1.3,1.2,1.6,2c0.3,0.9,0.5,1.8,0.5,2.9
		v9.4h-5.5v-8.9c0-0.3,0-0.6-0.1-0.9c0-0.3-0.2-0.5-0.4-0.6c-0.2-0.2-0.5-0.2-1-0.2c-0.2,0-0.4,0-0.8,0.1c-0.3,0.1-0.7,0.2-1,0.3
		c-0.4,0.1-0.7,0.3-1,0.4L309.2,67.6z"/>
	<path class="st2" d="M323.7,63.2c-0.6-0.6-0.9-1.3-0.9-2.1c0-0.8,0.3-1.5,0.9-2.1s1.3-0.9,2.1-0.9c0.8,0,1.5,0.3,2.1,0.9
		s0.9,1.3,0.9,2.1c0,0.8-0.3,1.5-0.9,2.1c-0.6,0.6-1.3,0.9-2.1,0.9C324.9,64.1,324.2,63.8,323.7,63.2z M323,80.6V66.1h5.5v14.5H323z
		"/>
	<path class="st2" d="M343.5,78.3c-0.4,0.4-0.8,0.9-1.4,1.3c-0.6,0.4-1.2,0.7-1.9,1c-0.7,0.3-1.4,0.4-2.2,0.4
		c-1.4,0-2.7-0.3-3.8-0.8c-1.1-0.5-2-1.4-2.7-2.5c-0.7-1.1-1-2.6-1-4.3c0-1.7,0.3-3.2,1-4.3c0.6-1.2,1.6-2,2.7-2.6
		c1.2-0.6,2.5-0.9,4-0.9c0.6,0,1.2,0.1,1.8,0.3s1.2,0.5,1.7,0.9c0.6,0.4,1.1,0.9,1.7,1.5l-1.5,3.2c-0.6-0.5-1.2-1-1.7-1.2
		c-0.6-0.3-1.1-0.4-1.6-0.4c-0.4,0-0.8,0.1-1.2,0.4c-0.4,0.3-0.7,0.7-0.9,1.2c-0.2,0.5-0.3,1.2-0.3,1.9c0,0.7,0.1,1.4,0.3,1.9
		s0.5,0.9,0.9,1.2c0.4,0.3,0.9,0.4,1.4,0.4c0.5,0,1-0.2,1.5-0.5c0.5-0.4,1-0.8,1.6-1.4L343.5,78.3z M345.7,81.1c0,1.2-0.3,2.3-1,3.3
		c-0.7,1-1.6,1.7-2.8,2.3c-1.2,0.5-2.6,0.8-4.2,0.8c-0.3,0-0.7,0-1.3-0.1c-0.5-0.1-1.1-0.2-1.8-0.3c-0.7-0.1-1.3-0.3-1.9-0.5
		c-0.6-0.2-1.2-0.5-1.7-0.8l1.6-3.8c1,0.5,1.8,0.8,2.6,0.9s1.4,0.2,2,0.2c0.9,0,1.6-0.2,2.1-0.6c0.5-0.4,0.8-0.9,0.8-1.5V69.5
		l2.7-3.4h2.7V81.1z"/>
	<path class="st2" d="M356.1,81c-1.6,0-3-0.3-4.2-0.8s-2.2-1.4-2.9-2.5c-0.7-1.1-1-2.6-1-4.3c0-1.6,0.4-3,1.1-4.2
		c0.7-1.1,1.7-2,3-2.6c1.3-0.6,2.6-0.9,4.2-0.9c1.6,0,3,0.3,4.3,0.9c1.2,0.6,2.2,1.5,2.9,2.6s1.1,2.6,1.1,4.3c0,1.6-0.4,3-1.1,4.1
		s-1.8,2-3,2.5S357.6,81,356.1,81z M356.1,76.5c0.6,0,1.1-0.1,1.5-0.3c0.4-0.2,0.7-0.6,0.9-1c0.2-0.5,0.3-1,0.3-1.7
		c0-0.7-0.1-1.2-0.3-1.8s-0.5-0.9-0.9-1.2c-0.4-0.3-0.8-0.5-1.4-0.5c-0.6,0-1,0.1-1.4,0.4c-0.4,0.3-0.7,0.6-0.9,1.1
		c-0.2,0.5-0.3,1.1-0.3,1.8c0,0.6,0.1,1.2,0.3,1.7c0.2,0.5,0.5,0.9,0.9,1.1C355.1,76.4,355.6,76.5,356.1,76.5z"/>
	<path class="st2" d="M367.2,75.8c0.4,0.2,0.9,0.3,1.4,0.5s1,0.3,1.5,0.4c0.5,0.1,0.9,0.2,1.3,0.2c0.2,0,0.5,0,0.6-0.1
		c0.2-0.1,0.3-0.1,0.5-0.2c0.1-0.1,0.2-0.2,0.2-0.3c0-0.1-0.1-0.2-0.2-0.3c-0.1-0.1-0.3-0.2-0.5-0.3c-0.2-0.1-0.5-0.2-0.8-0.3
		c-0.8-0.3-1.6-0.6-2.4-1c-0.8-0.4-1.5-0.9-2-1.5c-0.5-0.6-0.8-1.4-0.8-2.3c0-1.5,0.6-2.7,1.7-3.6c1.1-0.9,2.7-1.3,4.7-1.3
		c0.4,0,0.9,0,1.6,0.1c0.7,0.1,1.3,0.2,2,0.5c0.7,0.2,1.3,0.6,1.9,1l-1.5,3.5c-0.6-0.3-1.2-0.5-1.8-0.6s-1.2-0.2-1.7-0.2
		c-0.4,0-0.8,0.1-1.1,0.2c-0.3,0.1-0.4,0.3-0.4,0.5c0,0.1,0.1,0.3,0.4,0.4c0.3,0.2,0.7,0.3,1.1,0.5c0.8,0.3,1.6,0.6,2.4,1
		c0.8,0.4,1.4,0.9,2,1.5c0.5,0.6,0.8,1.4,0.8,2.3c0,1.5-0.5,2.7-1.5,3.6c-1,0.9-2.5,1.3-4.5,1.3c-0.4,0-1,0-1.8-0.2
		c-0.8-0.1-1.6-0.3-2.4-0.5c-0.8-0.3-1.5-0.6-2.1-1L367.2,75.8z"/>
	<path class="st2" d="M384.2,75.9c0.5,0.5,0.8,1.2,0.8,2c0,0.8-0.3,1.4-0.8,2c-0.5,0.5-1.2,0.8-1.9,0.8c-0.8,0-1.4-0.3-2-0.8
		c-0.5-0.5-0.8-1.2-0.8-2c0-0.8,0.3-1.4,0.8-2c0.5-0.5,1.2-0.8,2-0.8C383,75.2,383.7,75.4,384.2,75.9z M379.5,59.2h5.5l-0.6,15.2
		l-4.3-1.2L379.5,59.2z"/>
</g>
</svg>
