<?xml version="1.0" encoding="utf-8"?>
<!-- Generator: Adobe Illustrator 24.3.0, SVG Export Plug-In . SVG Version: 6.00 Build 0)  -->
<svg version="1.1" id="Capa_1" xmlns="http://www.w3.org/2000/svg" xmlns:xlink="http://www.w3.org/1999/xlink" x="0px" y="0px"
	 viewBox="0 0 464 136" style="enable-background:new 0 0 464 136;" xml:space="preserve">
<style type="text/css">
	.st0{fill:#273043;}
	.st1{enable-background:new    ;}
	.st2{fill:#FFFFFF;}
</style>
<g id="Grupo_571" transform="translate(-290 -2822)">
	<path id="Rectángulo_103_1_" class="st0" d="M330,2853.6h384c22.1,0,40,17.9,40,40l0,0c0,22.1-17.9,40-40,40H330
		c-22.1,0-40-17.9-40-40l0,0C290,2871.6,307.9,2853.6,330,2853.6z"/>
	<g class="st1">
		<path class="st2" d="M385.7,2885.9c-0.5-0.5-0.8-1.2-0.8-2c0-0.8,0.3-1.4,0.8-1.9c0.5-0.5,1.2-0.8,1.9-0.8c0.8,0,1.4,0.3,2,0.8
			c0.5,0.5,0.8,1.2,0.8,1.9c0,0.8-0.3,1.4-0.8,2c-0.5,0.5-1.2,0.8-2,0.8C386.9,2886.7,386.2,2886.4,385.7,2885.9z M390.4,2902.6
			h-5.5l0.6-15.2l4.3,1.2L390.4,2902.6z"/>
		<path class="st2" d="M393.7,2902.6v-20.4h8.6c1.5,0,2.9,0.3,4.2,0.8c1.3,0.5,2.3,1.4,3.1,2.4c0.8,1.1,1.2,2.5,1.2,4.1
			c0,1.2-0.2,2.3-0.7,3.2c-0.5,0.9-1.1,1.6-2,2.2c-0.8,0.6-1.7,1-2.8,1.3c-1,0.3-2.1,0.4-3.2,0.4h-2.9v5.9H393.7z M399.1,2886.5v5.9
			h3c0.6,0,1.1-0.1,1.5-0.4c0.4-0.2,0.8-0.6,1-1c0.2-0.4,0.4-0.9,0.4-1.4c0-0.6-0.1-1.1-0.4-1.6c-0.2-0.5-0.6-0.8-1-1.1
			c-0.4-0.3-1-0.4-1.6-0.4H399.1z"/>
		<path class="st2" d="M412.7,2889c0.5-0.2,1.1-0.5,1.8-0.7c0.7-0.2,1.4-0.4,2.2-0.5c0.8-0.1,1.6-0.2,2.4-0.2c1.3,0,2.4,0.3,3.3,0.8
			s1.6,1.2,2,2.1c0.5,0.9,0.7,2,0.7,3.2v9h-2.6l-1.6-1.5c-0.5,0.6-1,1-1.5,1.3c-0.6,0.3-1.1,0.5-1.8,0.5c-1.8,0-3.2-0.5-4.1-1.4
			s-1.4-2.1-1.4-3.6c0-1.6,0.5-2.7,1.6-3.3s2.4-0.9,4.1-0.9h1.7l0-0.1c-0.1-0.5-0.3-0.9-0.7-1.2c-0.3-0.2-0.7-0.4-1.2-0.4
			c-0.5,0-1.1,0.1-1.8,0.3c-0.7,0.2-1.3,0.4-1.9,0.6L412.7,2889z M416.3,2884.3l2-5.3h5.4l-3.4,6L416.3,2884.3z M416.9,2898.4
			c0.1,0.2,0.2,0.3,0.4,0.4s0.3,0.1,0.5,0.1c0.3,0,0.6-0.1,1-0.2c0.3-0.1,0.6-0.3,1-0.6v-1.4H418c-0.4,0-0.7,0.1-0.9,0.3
			c-0.2,0.2-0.3,0.5-0.3,0.8C416.8,2898.1,416.8,2898.2,416.9,2898.4z"/>
		<path class="st2" d="M428.7,2897.8c0.4,0.2,0.9,0.3,1.4,0.5c0.5,0.2,1,0.3,1.5,0.4c0.5,0.1,0.9,0.2,1.3,0.2c0.2,0,0.5,0,0.6-0.1
			c0.2-0.1,0.3-0.1,0.4-0.2c0.1-0.1,0.2-0.2,0.2-0.3c0-0.1-0.1-0.2-0.2-0.3c-0.1-0.1-0.3-0.2-0.5-0.3c-0.2-0.1-0.5-0.2-0.8-0.3
			c-0.8-0.3-1.6-0.6-2.4-1c-0.8-0.4-1.5-0.9-2-1.5c-0.5-0.6-0.8-1.4-0.8-2.3c0-1.5,0.6-2.7,1.7-3.6c1.1-0.9,2.7-1.3,4.7-1.3
			c0.4,0,0.9,0,1.6,0.1c0.6,0.1,1.3,0.2,2,0.5c0.7,0.2,1.3,0.6,1.9,1l-1.5,3.4c-0.6-0.3-1.2-0.5-1.8-0.6c-0.6-0.2-1.2-0.2-1.7-0.2
			c-0.4,0-0.8,0.1-1.1,0.2c-0.3,0.1-0.4,0.3-0.4,0.5c0,0.1,0.1,0.3,0.4,0.4s0.7,0.3,1.1,0.5c0.8,0.3,1.6,0.6,2.4,1
			c0.8,0.4,1.4,0.9,1.9,1.5s0.8,1.4,0.8,2.3c0,1.5-0.5,2.7-1.5,3.6c-1,0.9-2.5,1.3-4.5,1.3c-0.4,0-1,0-1.8-0.2
			c-0.8-0.1-1.6-0.3-2.4-0.5c-0.8-0.3-1.5-0.6-2.1-1L428.7,2897.8z"/>
		<path class="st2" d="M446.6,2896.7c0.1,0.4,0.3,0.8,0.6,1c0.3,0.3,0.6,0.5,1.1,0.7c0.4,0.2,1,0.2,1.6,0.2c0.9,0,1.7-0.1,2.3-0.3
			c0.7-0.2,1.2-0.4,1.7-0.7l1.5,3.7c-0.4,0.3-0.9,0.5-1.5,0.8c-0.6,0.2-1.4,0.4-2.1,0.6c-0.8,0.1-1.6,0.2-2.4,0.2
			c-1.7,0-3.1-0.3-4.5-0.9c-1.3-0.6-2.4-1.4-3.1-2.6c-0.8-1.1-1.1-2.5-1.1-4.2s0.3-3,1-4.2c0.7-1.2,1.6-2,2.8-2.7
			c1.2-0.6,2.5-0.9,4-0.9c1.6,0,2.9,0.3,3.9,1c1,0.7,1.8,1.6,2.3,2.8c0.5,1.2,0.8,2.4,0.8,3.8v1.6H446.6z M450.2,2894
			c0-0.3-0.1-0.6-0.2-0.9c-0.1-0.3-0.3-0.6-0.6-0.8c-0.3-0.2-0.6-0.3-1.1-0.3c-0.3,0-0.6,0.1-0.9,0.3c-0.3,0.2-0.5,0.4-0.7,0.8
			c-0.2,0.3-0.3,0.7-0.3,1H450.2z"/>
		<path class="st2" d="M457.6,2902.6v-14.5h3.2l1,1.5c0.5-0.3,1-0.6,1.7-0.9c0.6-0.3,1.3-0.6,2-0.8c0.7-0.2,1.5-0.3,2.3-0.3
			c1.2,0,2.2,0.2,3,0.7s1.3,1.2,1.7,2c0.4,0.9,0.6,1.8,0.6,2.9v9.4h-5.5v-8.9c0-0.5-0.1-0.9-0.3-1.2c-0.2-0.3-0.6-0.5-1.2-0.5
			c-0.2,0-0.5,0-0.9,0.1c-0.4,0.1-0.7,0.2-1.1,0.3s-0.7,0.3-1,0.4v9.8H457.6z"/>
		<path class="st2" d="M476.2,2902.6v-20.8l5.5-0.3v21.2H476.2z"/>
		<path class="st2" d="M490,2896.7c0.1,0.4,0.3,0.8,0.6,1c0.3,0.3,0.6,0.5,1.1,0.7c0.4,0.2,1,0.2,1.6,0.2c0.9,0,1.7-0.1,2.3-0.3
			c0.7-0.2,1.2-0.4,1.7-0.7l1.5,3.7c-0.4,0.3-0.9,0.5-1.5,0.8c-0.6,0.2-1.4,0.4-2.1,0.6c-0.8,0.1-1.6,0.2-2.4,0.2
			c-1.7,0-3.1-0.3-4.5-0.9c-1.3-0.6-2.4-1.4-3.1-2.6c-0.8-1.1-1.1-2.5-1.1-4.2s0.3-3,1-4.2c0.7-1.2,1.6-2,2.8-2.7
			c1.2-0.6,2.5-0.9,4-0.9c1.6,0,2.9,0.3,3.9,1c1,0.7,1.8,1.6,2.3,2.8c0.5,1.2,0.8,2.4,0.8,3.8v1.6H490z M493.6,2894
			c0-0.3-0.1-0.6-0.2-0.9c-0.1-0.3-0.3-0.6-0.6-0.8c-0.3-0.2-0.6-0.3-1.1-0.3c-0.3,0-0.6,0.1-0.9,0.3c-0.3,0.2-0.5,0.4-0.7,0.8
			c-0.2,0.3-0.3,0.7-0.3,1H493.6z"/>
		<path class="st2" d="M507.4,2889c0.5-0.2,1.1-0.5,1.8-0.7c0.7-0.2,1.4-0.4,2.2-0.5c0.8-0.1,1.6-0.2,2.4-0.2c1.3,0,2.4,0.3,3.3,0.8
			s1.6,1.2,2,2.1c0.5,0.9,0.7,2,0.7,3.2v9h-2.6l-1.6-1.5c-0.5,0.6-1,1-1.5,1.3c-0.6,0.3-1.1,0.5-1.8,0.5c-1.8,0-3.2-0.5-4.1-1.4
			s-1.4-2.1-1.4-3.6c0-1.6,0.5-2.7,1.6-3.3s2.4-0.9,4.1-0.9h1.7l0-0.1c-0.1-0.5-0.3-0.9-0.7-1.2c-0.3-0.2-0.7-0.4-1.2-0.4
			c-0.5,0-1.1,0.1-1.8,0.3c-0.7,0.2-1.3,0.4-1.9,0.6L507.4,2889z M511.7,2898.4c0.1,0.2,0.2,0.3,0.4,0.4s0.3,0.1,0.5,0.1
			c0.3,0,0.6-0.1,1-0.2c0.3-0.1,0.6-0.3,1-0.6v-1.4h-1.7c-0.4,0-0.7,0.1-0.9,0.3c-0.2,0.2-0.3,0.5-0.3,0.8
			C511.5,2898.1,511.6,2898.2,511.7,2898.4z"/>
		<path class="st2" d="M529.7,2902.6v-20.8l5.5-0.3v21.2H529.7z"/>
		<path class="st2" d="M545.7,2903c-1.6,0-3-0.3-4.2-0.8c-1.2-0.6-2.2-1.4-2.9-2.5c-0.7-1.1-1-2.6-1-4.3c0-1.6,0.4-3,1.1-4.2
			c0.7-1.1,1.7-2,3-2.6c1.3-0.6,2.6-0.9,4.2-0.9c1.6,0,3,0.3,4.3,0.9s2.2,1.5,2.9,2.6c0.7,1.2,1.1,2.6,1.1,4.3c0,1.6-0.4,3-1.1,4.1
			s-1.8,2-3,2.5S547.2,2903,545.7,2903z M545.7,2898.5c0.6,0,1.1-0.1,1.5-0.3c0.4-0.2,0.7-0.6,0.9-1c0.2-0.5,0.3-1,0.3-1.7
			c0-0.7-0.1-1.2-0.3-1.8c-0.2-0.5-0.5-0.9-0.9-1.2s-0.8-0.5-1.4-0.5c-0.6,0-1,0.1-1.4,0.4c-0.4,0.3-0.7,0.6-0.9,1.1
			c-0.2,0.5-0.3,1.1-0.3,1.8c0,0.6,0.1,1.2,0.3,1.7c0.2,0.5,0.5,0.9,0.9,1.1C544.7,2898.4,545.2,2898.5,545.7,2898.5z"/>
		<path class="st2" d="M563,2902.6v-20.8l5.5-0.3v18.4l-2.7,2.7H563z M565.2,2890.3c0.4-0.4,0.8-0.9,1.4-1.3c0.6-0.4,1.2-0.7,1.9-1
			s1.4-0.4,2.2-0.4c1.4,0,2.7,0.3,3.8,0.8s2,1.4,2.7,2.5c0.6,1.1,1,2.5,1,4.3c0,1.7-0.3,3.2-1,4.3c-0.7,1.2-1.6,2-2.7,2.6
			c-1.2,0.6-2.5,0.9-4,0.9c-0.6,0-1.2-0.1-1.8-0.3c-0.6-0.2-1.2-0.5-1.7-0.9c-0.6-0.4-1.1-0.9-1.7-1.5l1.5-3.2
			c0.6,0.5,1.1,1,1.7,1.2c0.6,0.3,1.1,0.4,1.6,0.4c0.5,0,0.9-0.1,1.2-0.4s0.6-0.7,0.9-1.2c0.2-0.5,0.3-1.2,0.3-1.9
			c0-0.7-0.1-1.4-0.3-1.9c-0.2-0.5-0.5-0.9-0.9-1.2c-0.4-0.3-0.9-0.4-1.5-0.4c-0.5,0-1,0.2-1.5,0.5c-0.5,0.4-1,0.8-1.6,1.4
			L565.2,2890.3z"/>
		<path class="st2" d="M580.2,2889c0.5-0.2,1.1-0.5,1.8-0.7c0.7-0.2,1.4-0.4,2.2-0.5c0.8-0.1,1.6-0.2,2.4-0.2c1.3,0,2.4,0.3,3.3,0.8
			c0.9,0.5,1.6,1.2,2,2.1c0.5,0.9,0.7,2,0.7,3.2v9H590l-1.6-1.5c-0.5,0.6-1,1-1.5,1.3c-0.5,0.3-1.1,0.5-1.8,0.5
			c-1.8,0-3.2-0.5-4.1-1.4c-0.9-0.9-1.4-2.1-1.4-3.6c0-1.6,0.5-2.7,1.6-3.3c1.1-0.6,2.4-0.9,4.1-0.9h1.7l0-0.1
			c-0.1-0.5-0.3-0.9-0.7-1.2s-0.7-0.4-1.2-0.4c-0.5,0-1.1,0.1-1.8,0.3s-1.3,0.4-1.9,0.6L580.2,2889z M584.4,2898.4
			c0.1,0.2,0.2,0.3,0.4,0.4c0.1,0.1,0.3,0.1,0.5,0.1c0.3,0,0.6-0.1,1-0.2c0.3-0.1,0.6-0.3,1-0.6v-1.4h-1.7c-0.4,0-0.7,0.1-0.9,0.3
			c-0.2,0.2-0.3,0.5-0.3,0.8C584.2,2898.1,584.3,2898.2,584.4,2898.4z"/>
		<path class="st2" d="M595.5,2902.6v-14.5h2.7l1.3,1.8c0.4-0.3,0.9-0.6,1.4-0.8c0.5-0.3,1.1-0.5,1.7-0.7s1.2-0.3,1.7-0.3l1.1,4.4
			c-0.5,0-1,0.1-1.5,0.2s-1.1,0.3-1.6,0.6c-0.5,0.2-1,0.5-1.4,0.8v8.5H595.5z"/>
		<path class="st2" d="M607.3,2902.6v-14.5h2.7l1.3,1.8c0.4-0.3,0.9-0.6,1.4-0.8c0.5-0.3,1.1-0.5,1.7-0.7s1.2-0.3,1.7-0.3l1.1,4.4
			c-0.5,0-1,0.1-1.5,0.2s-1.1,0.3-1.6,0.6c-0.5,0.2-1,0.5-1.4,0.8v8.5H607.3z"/>
		<path class="st2" d="M619.8,2885.2c-0.6-0.6-0.9-1.3-0.9-2.1c0-0.8,0.3-1.5,0.9-2.1s1.3-0.9,2.1-0.9c0.8,0,1.5,0.3,2.1,0.9
			c0.6,0.6,0.9,1.3,0.9,2.1c0,0.8-0.3,1.5-0.9,2.1c-0.6,0.6-1.3,0.9-2.1,0.9C621.1,2886.1,620.4,2885.8,619.8,2885.2z M619.2,2902.6
			v-14.5h5.5v14.5H619.2z"/>
		<path class="st2" d="M639.7,2900.3c-0.4,0.4-0.8,0.9-1.4,1.3c-0.6,0.4-1.2,0.7-1.9,1c-0.7,0.3-1.4,0.4-2.2,0.4
			c-1.4,0-2.7-0.3-3.8-0.8c-1.1-0.5-2-1.4-2.7-2.5c-0.7-1.1-1-2.6-1-4.3c0-1.7,0.3-3.2,1-4.3c0.6-1.1,1.6-2,2.7-2.6
			c1.2-0.6,2.5-0.9,4-0.9c0.6,0,1.2,0.1,1.8,0.3c0.6,0.2,1.2,0.5,1.7,0.9c0.6,0.4,1.1,0.9,1.7,1.5l-1.5,3.2c-0.6-0.5-1.2-1-1.7-1.2
			s-1.1-0.4-1.6-0.4c-0.4,0-0.8,0.1-1.2,0.4c-0.4,0.3-0.7,0.7-0.9,1.2c-0.2,0.5-0.3,1.2-0.3,1.9c0,0.7,0.1,1.4,0.3,1.9
			s0.5,0.9,0.9,1.2c0.4,0.3,0.9,0.4,1.4,0.4c0.5,0,1-0.2,1.5-0.5c0.5-0.4,1-0.8,1.6-1.4L639.7,2900.3z M636.4,2881.8l5.5-0.3v21.2
			h-2.8l-2.7-3.5V2881.8z"/>
		<path class="st2" d="M652.4,2903c-1.6,0-3-0.3-4.2-0.8c-1.2-0.6-2.2-1.4-2.9-2.5c-0.7-1.1-1-2.6-1-4.3c0-1.6,0.4-3,1.1-4.2
			c0.7-1.1,1.7-2,3-2.6c1.3-0.6,2.6-0.9,4.2-0.9c1.6,0,3,0.3,4.3,0.9s2.2,1.5,2.9,2.6c0.7,1.2,1.1,2.6,1.1,4.3c0,1.6-0.4,3-1.1,4.1
			s-1.8,2-3,2.5S653.9,2903,652.4,2903z M652.4,2898.5c0.6,0,1.1-0.1,1.5-0.3c0.4-0.2,0.7-0.6,0.9-1c0.2-0.5,0.3-1,0.3-1.7
			c0-0.7-0.1-1.2-0.3-1.8c-0.2-0.5-0.5-0.9-0.9-1.2s-0.8-0.5-1.4-0.5c-0.6,0-1,0.1-1.4,0.4c-0.4,0.3-0.7,0.6-0.9,1.1
			c-0.2,0.5-0.3,1.1-0.3,1.8c0,0.6,0.1,1.2,0.3,1.7c0.2,0.5,0.5,0.9,0.9,1.1C651.4,2898.4,651.9,2898.5,652.4,2898.5z"/>
		<path class="st2" d="M666.9,2897.9c0.5,0.5,0.8,1.2,0.8,2c0,0.8-0.3,1.4-0.8,2c-0.5,0.5-1.2,0.8-1.9,0.8c-0.8,0-1.4-0.3-2-0.8
			c-0.5-0.5-0.8-1.2-0.8-2c0-0.8,0.3-1.4,0.8-2c0.5-0.5,1.2-0.8,2-0.8C665.8,2897.2,666.4,2897.4,666.9,2897.9z M662.3,2881.2h5.5
			l-0.6,15.2l-4.3-1.2L662.3,2881.2z"/>
	</g>
</g>
</svg>
