<?xml version="1.0" encoding="utf-8"?>
<!-- Generator: Adobe Illustrator 24.3.0, SVG Export Plug-In . SVG Version: 6.00 Build 0)  -->
<svg version="1.1" id="Capa_1" xmlns="http://www.w3.org/2000/svg" xmlns:xlink="http://www.w3.org/1999/xlink" x="0px" y="0px"
	 viewBox="0 0 381.9 174" style="enable-background:new 0 0 381.9 174;" xml:space="preserve">
<style type="text/css">
	.st0{fill:#273043;}
	.st1{enable-background:new    ;}
	.st2{fill:#FFFFFF;}
</style>
<g transform="matrix(1, 0, 0, 1, 0, 0)">
	<path id="Trazado_104-2" class="st0" d="M232.8,129.6l149,40.4l-77-66.9L232.8,129.6z"/>
</g>
<g transform="matrix(1, 0, 0, 1, 0, 0)">
	<path id="Rectángulo_14-2" class="st0" d="M54.9,9h207c29.3,0,53,23.7,53,53v14c0,29.3-23.7,53-53,53h-207c-29.3,0-53-23.7-53-53
		V62C1.9,32.8,25.6,9,54.9,9z"/>
</g>
<g class="st1">
	<path class="st2" d="M21.6,60.3c-0.5-0.5-0.8-1.2-0.8-2c0-0.8,0.3-1.4,0.8-1.9c0.5-0.5,1.2-0.8,1.9-0.8c0.8,0,1.4,0.3,2,0.8
		c0.5,0.5,0.8,1.2,0.8,1.9c0,0.8-0.3,1.4-0.8,2c-0.5,0.5-1.2,0.8-2,0.8C22.7,61.1,22.1,60.8,21.6,60.3z M26.2,77h-5.5l0.6-15.2
		l4.3,1.2L26.2,77z"/>
	<path class="st2" d="M29.6,77V56.6h8.6c1.5,0,2.9,0.3,4.2,0.8c1.3,0.5,2.3,1.4,3.1,2.4c0.8,1.1,1.2,2.5,1.2,4.1
		c0,1.2-0.2,2.3-0.7,3.2c-0.5,0.9-1.1,1.6-2,2.2c-0.8,0.6-1.7,1-2.8,1.3c-1,0.3-2.1,0.4-3.2,0.4H35V77H29.6z M35,60.9v5.9h3
		c0.6,0,1.1-0.1,1.5-0.4c0.4-0.2,0.8-0.6,1-1c0.2-0.4,0.4-0.9,0.4-1.4c0-0.6-0.1-1.1-0.4-1.6c-0.2-0.5-0.6-0.8-1-1.1
		c-0.4-0.3-1-0.4-1.6-0.4H35z"/>
	<path class="st2" d="M48.6,63.4c0.5-0.2,1.1-0.5,1.8-0.7c0.7-0.2,1.4-0.4,2.2-0.5C53.4,62,54.2,62,55,62c1.3,0,2.4,0.3,3.3,0.8
		s1.6,1.2,2,2.1c0.5,0.9,0.7,2,0.7,3.2v9h-2.6l-1.6-1.5c-0.5,0.6-1,1-1.5,1.3c-0.6,0.3-1.1,0.5-1.8,0.5c-1.8,0-3.2-0.5-4.1-1.4
		s-1.4-2.1-1.4-3.6c0-1.6,0.5-2.7,1.6-3.3s2.4-0.9,4.1-0.9h1.7l0-0.1c-0.1-0.5-0.3-0.9-0.7-1.2c-0.3-0.2-0.7-0.4-1.2-0.4
		c-0.5,0-1.1,0.1-1.8,0.3c-0.7,0.2-1.3,0.4-1.9,0.6L48.6,63.4z M52.2,58.7l2-5.3h5.4l-3.4,6L52.2,58.7z M52.8,72.8
		c0.1,0.2,0.2,0.3,0.4,0.4s0.3,0.1,0.5,0.1c0.3,0,0.6-0.1,1-0.2c0.3-0.1,0.6-0.3,1-0.6v-1.4h-1.7c-0.4,0-0.7,0.1-0.9,0.3
		c-0.2,0.2-0.3,0.5-0.3,0.8C52.7,72.5,52.7,72.6,52.8,72.8z"/>
	<path class="st2" d="M64.6,72.2c0.4,0.2,0.9,0.3,1.4,0.5c0.5,0.2,1,0.3,1.5,0.4c0.5,0.1,0.9,0.2,1.3,0.2c0.2,0,0.5,0,0.6-0.1
		c0.2-0.1,0.3-0.1,0.4-0.2c0.1-0.1,0.2-0.2,0.2-0.3c0-0.1-0.1-0.2-0.2-0.3c-0.1-0.1-0.3-0.2-0.5-0.3c-0.2-0.1-0.5-0.2-0.8-0.3
		c-0.8-0.3-1.6-0.6-2.4-1c-0.8-0.4-1.5-0.9-2-1.5c-0.5-0.6-0.8-1.4-0.8-2.3c0-1.5,0.6-2.7,1.7-3.6c1.1-0.9,2.7-1.3,4.7-1.3
		c0.4,0,0.9,0,1.6,0.1c0.6,0.1,1.3,0.2,2,0.5c0.7,0.2,1.3,0.6,1.9,1L73.8,67c-0.6-0.3-1.2-0.5-1.8-0.6c-0.6-0.2-1.2-0.2-1.7-0.2
		c-0.4,0-0.8,0.1-1.1,0.2c-0.3,0.1-0.4,0.3-0.4,0.5c0,0.1,0.1,0.3,0.4,0.4s0.7,0.3,1.1,0.5c0.8,0.3,1.6,0.6,2.4,1
		c0.8,0.4,1.4,0.9,1.9,1.5s0.8,1.4,0.8,2.3c0,1.5-0.5,2.7-1.5,3.6c-1,0.9-2.5,1.3-4.5,1.3c-0.4,0-1,0-1.8-0.2
		c-0.8-0.1-1.6-0.3-2.4-0.5c-0.8-0.3-1.5-0.6-2.1-1L64.6,72.2z"/>
	<path class="st2" d="M82.5,71.1c0.1,0.4,0.3,0.8,0.6,1c0.3,0.3,0.6,0.5,1.1,0.7c0.4,0.2,1,0.2,1.6,0.2c0.9,0,1.7-0.1,2.3-0.3
		c0.7-0.2,1.2-0.4,1.7-0.7l1.5,3.7c-0.4,0.3-0.9,0.5-1.5,0.8c-0.6,0.2-1.4,0.4-2.1,0.6c-0.8,0.1-1.6,0.2-2.4,0.2
		c-1.7,0-3.1-0.3-4.5-0.9c-1.3-0.6-2.4-1.4-3.1-2.6c-0.8-1.1-1.1-2.5-1.1-4.2s0.3-3,1-4.2c0.7-1.2,1.6-2,2.8-2.7
		c1.2-0.6,2.5-0.9,4-0.9c1.6,0,2.9,0.3,3.9,1c1,0.7,1.8,1.6,2.3,2.8s0.8,2.4,0.8,3.8v1.6H82.5z M86.1,68.4c0-0.3-0.1-0.6-0.2-0.9
		c-0.1-0.3-0.3-0.6-0.6-0.8c-0.3-0.2-0.6-0.3-1.1-0.3c-0.3,0-0.6,0.1-0.9,0.3c-0.3,0.2-0.5,0.4-0.7,0.8c-0.2,0.3-0.3,0.7-0.3,1H86.1
		z"/>
	<path class="st2" d="M93.4,77V62.5h3.2l1,1.5c0.5-0.3,1-0.6,1.7-0.9c0.6-0.3,1.3-0.6,2-0.8c0.7-0.2,1.5-0.3,2.3-0.3
		c1.2,0,2.2,0.2,3,0.7s1.3,1.2,1.7,2c0.4,0.9,0.6,1.8,0.6,2.9V77h-5.5v-8.9c0-0.5-0.1-0.9-0.3-1.2c-0.2-0.3-0.6-0.5-1.2-0.5
		c-0.2,0-0.5,0-0.9,0.1c-0.4,0.1-0.7,0.2-1.1,0.3s-0.7,0.3-1,0.4V77H93.4z"/>
	<path class="st2" d="M112,77V56.2l5.5-0.3V77H112z"/>
	<path class="st2" d="M125.8,71.1c0.1,0.4,0.3,0.8,0.6,1c0.3,0.3,0.6,0.5,1.1,0.7c0.4,0.2,1,0.2,1.6,0.2c0.9,0,1.7-0.1,2.3-0.3
		c0.7-0.2,1.2-0.4,1.7-0.7l1.5,3.7c-0.4,0.3-0.9,0.5-1.5,0.8c-0.6,0.2-1.4,0.4-2.1,0.6c-0.8,0.1-1.6,0.2-2.4,0.2
		c-1.7,0-3.1-0.3-4.5-0.9c-1.3-0.6-2.4-1.4-3.1-2.6c-0.8-1.1-1.1-2.5-1.1-4.2s0.3-3,1-4.2c0.7-1.2,1.6-2,2.8-2.7
		c1.2-0.6,2.5-0.9,4-0.9c1.6,0,2.9,0.3,3.9,1c1,0.7,1.8,1.6,2.3,2.8s0.8,2.4,0.8,3.8v1.6H125.8z M129.5,68.4c0-0.3-0.1-0.6-0.2-0.9
		c-0.1-0.3-0.3-0.6-0.6-0.8c-0.3-0.2-0.6-0.3-1.1-0.3c-0.3,0-0.6,0.1-0.9,0.3c-0.3,0.2-0.5,0.4-0.7,0.8c-0.2,0.3-0.3,0.7-0.3,1
		H129.5z"/>
	<path class="st2" d="M143.3,63.4c0.5-0.2,1.1-0.5,1.8-0.7c0.7-0.2,1.4-0.4,2.2-0.5c0.8-0.1,1.6-0.2,2.4-0.2c1.3,0,2.4,0.3,3.3,0.8
		s1.6,1.2,2,2.1c0.5,0.9,0.7,2,0.7,3.2v9h-2.6l-1.6-1.5c-0.5,0.6-1,1-1.5,1.3c-0.6,0.3-1.1,0.5-1.8,0.5c-1.8,0-3.2-0.5-4.1-1.4
		s-1.4-2.1-1.4-3.6c0-1.6,0.5-2.7,1.6-3.3s2.4-0.9,4.1-0.9h1.7l0-0.1c-0.1-0.5-0.3-0.9-0.7-1.2c-0.3-0.2-0.7-0.4-1.2-0.4
		c-0.5,0-1.1,0.1-1.8,0.3c-0.7,0.2-1.3,0.4-1.9,0.6L143.3,63.4z M147.5,72.8c0.1,0.2,0.2,0.3,0.4,0.4s0.3,0.1,0.5,0.1
		c0.3,0,0.6-0.1,1-0.2c0.3-0.1,0.6-0.3,1-0.6v-1.4h-1.7c-0.4,0-0.7,0.1-0.9,0.3c-0.2,0.2-0.3,0.5-0.3,0.8
		C147.4,72.5,147.4,72.6,147.5,72.8z"/>
	<path class="st2" d="M165.5,77V56.2l5.5-0.3V77H165.5z"/>
	<path class="st2" d="M181.5,77.4c-1.6,0-3-0.3-4.2-0.8s-2.2-1.4-2.9-2.5c-0.7-1.1-1-2.6-1-4.3c0-1.6,0.4-3,1.1-4.2
		c0.7-1.1,1.7-2,3-2.6c1.3-0.6,2.6-0.9,4.2-0.9c1.6,0,3,0.3,4.3,0.9c1.2,0.6,2.2,1.5,2.9,2.6s1.1,2.6,1.1,4.3c0,1.6-0.4,3-1.1,4.1
		s-1.8,2-3,2.5C184.5,77.1,183.1,77.4,181.5,77.4z M181.6,72.9c0.6,0,1.1-0.1,1.5-0.3c0.4-0.2,0.7-0.6,0.9-1c0.2-0.5,0.3-1,0.3-1.7
		c0-0.7-0.1-1.2-0.3-1.8s-0.5-0.9-0.9-1.2c-0.4-0.3-0.8-0.5-1.4-0.5c-0.6,0-1,0.1-1.4,0.4c-0.4,0.3-0.7,0.6-0.9,1.1
		c-0.2,0.5-0.3,1.1-0.3,1.8c0,0.6,0.1,1.2,0.3,1.7c0.2,0.5,0.5,0.9,0.9,1.1C180.6,72.8,181,72.9,181.6,72.9z"/>
	<path class="st2" d="M198.9,77V56.2l5.5-0.3v18.4l-2.7,2.7H198.9z M201.1,64.7c0.4-0.4,0.8-0.9,1.4-1.3c0.6-0.4,1.2-0.7,1.9-1
		s1.4-0.4,2.2-0.4c1.4,0,2.7,0.3,3.8,0.8s2,1.4,2.7,2.5c0.6,1.1,1,2.5,1,4.3c0,1.7-0.3,3.2-1,4.3c-0.7,1.2-1.5,2-2.7,2.6
		s-2.5,0.9-4,0.9c-0.6,0-1.2-0.1-1.8-0.3c-0.6-0.2-1.2-0.5-1.7-0.9s-1.1-0.9-1.7-1.5l1.5-3.2c0.6,0.5,1.1,1,1.7,1.2
		c0.6,0.3,1.1,0.4,1.6,0.4c0.5,0,0.9-0.1,1.2-0.4c0.4-0.3,0.7-0.7,0.9-1.2c0.2-0.5,0.3-1.2,0.3-1.9c0-0.7-0.1-1.4-0.3-1.9
		c-0.2-0.5-0.5-0.9-0.9-1.2s-0.9-0.4-1.5-0.4c-0.5,0-1,0.2-1.5,0.5c-0.5,0.4-1,0.8-1.6,1.4L201.1,64.7z"/>
	<path class="st2" d="M216,63.4c0.5-0.2,1.1-0.5,1.8-0.7c0.7-0.2,1.4-0.4,2.2-0.5c0.8-0.1,1.6-0.2,2.4-0.2c1.3,0,2.4,0.3,3.3,0.8
		c0.9,0.5,1.6,1.2,2,2.1s0.7,2,0.7,3.2v9h-2.6l-1.6-1.5c-0.5,0.6-1,1-1.5,1.3c-0.6,0.3-1.1,0.5-1.8,0.5c-1.8,0-3.2-0.5-4.1-1.4
		c-0.9-0.9-1.3-2.1-1.3-3.6c0-1.6,0.5-2.7,1.6-3.3c1.1-0.6,2.4-0.9,4.1-0.9h1.7l0-0.1c-0.1-0.5-0.3-0.9-0.7-1.2
		c-0.3-0.2-0.7-0.4-1.2-0.4c-0.5,0-1.1,0.1-1.8,0.3c-0.7,0.2-1.3,0.4-1.9,0.6L216,63.4z M220.2,72.8c0.1,0.2,0.2,0.3,0.4,0.4
		c0.2,0.1,0.3,0.1,0.5,0.1c0.3,0,0.6-0.1,1-0.2c0.3-0.1,0.6-0.3,1-0.6v-1.4h-1.7c-0.4,0-0.7,0.1-0.9,0.3c-0.2,0.2-0.3,0.5-0.3,0.8
		C220.1,72.5,220.2,72.6,220.2,72.8z"/>
	<path class="st2" d="M231.4,77V62.5h2.7l1.3,1.8c0.4-0.3,0.9-0.6,1.4-0.8c0.5-0.3,1.1-0.5,1.7-0.7c0.6-0.2,1.2-0.3,1.7-0.3l1.1,4.4
		c-0.5,0-1,0.1-1.5,0.2c-0.6,0.1-1.1,0.3-1.6,0.6c-0.5,0.2-1,0.5-1.4,0.8V77H231.4z"/>
	<path class="st2" d="M243.2,77V62.5h2.7l1.3,1.8c0.4-0.3,0.9-0.6,1.4-0.8c0.5-0.3,1.1-0.5,1.7-0.7c0.6-0.2,1.2-0.3,1.7-0.3l1.1,4.4
		c-0.5,0-1,0.1-1.5,0.2c-0.6,0.1-1.1,0.3-1.6,0.6c-0.5,0.2-1,0.5-1.4,0.8V77H243.2z"/>
	<path class="st2" d="M255.7,59.6c-0.6-0.6-0.9-1.3-0.9-2.1c0-0.8,0.3-1.5,0.9-2.1c0.6-0.6,1.3-0.9,2.1-0.9c0.8,0,1.5,0.3,2.1,0.9
		s0.9,1.3,0.9,2.1c0,0.8-0.3,1.5-0.9,2.1c-0.6,0.6-1.3,0.9-2.1,0.9C257,60.5,256.3,60.2,255.7,59.6z M255.1,77V62.5h5.5V77H255.1z"
		/>
	<path class="st2" d="M275.5,74.7c-0.4,0.4-0.8,0.9-1.4,1.3c-0.6,0.4-1.2,0.7-1.9,1c-0.7,0.3-1.4,0.4-2.2,0.4
		c-1.4,0-2.7-0.3-3.8-0.8c-1.1-0.5-2-1.4-2.7-2.5c-0.7-1.1-1-2.6-1-4.3c0-1.7,0.3-3.2,1-4.3c0.6-1.2,1.6-2,2.7-2.6
		c1.2-0.6,2.5-0.9,4-0.9c0.6,0,1.2,0.1,1.8,0.3s1.2,0.5,1.7,0.9c0.6,0.4,1.1,0.9,1.7,1.5l-1.5,3.2c-0.6-0.5-1.2-1-1.7-1.2
		c-0.6-0.3-1.1-0.4-1.6-0.4c-0.4,0-0.8,0.1-1.2,0.4c-0.4,0.3-0.7,0.7-0.9,1.2c-0.2,0.5-0.3,1.2-0.3,1.9c0,0.7,0.1,1.4,0.3,1.9
		s0.5,0.9,0.9,1.2c0.4,0.3,0.9,0.4,1.4,0.4c0.5,0,1-0.2,1.5-0.5c0.5-0.4,1-0.8,1.6-1.4L275.5,74.7z M272.2,56.2l5.5-0.3V77h-2.8
		l-2.7-3.5V56.2z"/>
	<path class="st2" d="M288.2,77.4c-1.6,0-3-0.3-4.2-0.8c-1.2-0.6-2.2-1.4-2.9-2.5c-0.7-1.1-1-2.6-1-4.3c0-1.6,0.4-3,1.1-4.2
		c0.7-1.1,1.7-2,3-2.6c1.3-0.6,2.6-0.9,4.2-0.9c1.6,0,3,0.3,4.3,0.9c1.2,0.6,2.2,1.5,2.9,2.6s1.1,2.6,1.1,4.3c0,1.6-0.4,3-1.1,4.1
		s-1.8,2-3,2.5C291.2,77.1,289.8,77.4,288.2,77.4z M288.3,72.9c0.6,0,1.1-0.1,1.5-0.3c0.4-0.2,0.7-0.6,0.9-1c0.2-0.5,0.3-1,0.3-1.7
		c0-0.7-0.1-1.2-0.3-1.8s-0.5-0.9-0.9-1.2c-0.4-0.3-0.8-0.5-1.4-0.5c-0.6,0-1,0.1-1.4,0.4c-0.4,0.3-0.7,0.6-0.9,1.1
		c-0.2,0.5-0.3,1.1-0.3,1.8c0,0.6,0.1,1.2,0.3,1.7c0.2,0.5,0.5,0.9,0.9,1.1C287.3,72.8,287.8,72.9,288.3,72.9z"/>
	<path class="st2" d="M302.8,72.3c0.5,0.5,0.8,1.2,0.8,2c0,0.8-0.3,1.4-0.8,2c-0.5,0.5-1.2,0.8-1.9,0.8c-0.8,0-1.4-0.3-2-0.8
		c-0.5-0.5-0.8-1.2-0.8-2c0-0.8,0.3-1.4,0.8-2c0.5-0.5,1.2-0.8,2-0.8C301.6,71.6,302.3,71.8,302.8,72.3z M298.1,55.6h5.5L303,70.8
		l-4.3-1.2L298.1,55.6z"/>
</g>
</svg>
