<?xml version="1.0" encoding="utf-8"?>
<!-- Generator: Adobe Illustrator 24.3.0, SVG Export Plug-In . SVG Version: 6.00 Build 0)  -->
<svg version="1.1" id="Capa_1" xmlns="http://www.w3.org/2000/svg" xmlns:xlink="http://www.w3.org/1999/xlink" x="0px" y="0px"
	 viewBox="0 0 464 136" style="enable-background:new 0 0 464 136;" xml:space="preserve">
<style type="text/css">
	.st0{fill:#273043;}
	.st1{enable-background:new    ;}
	.st2{fill:#FFFFFF;}
</style>
<path id="Rectángulo_103_1_" class="st0" d="M40,31.6h384c22.1,0,40,17.9,40,40l0,0c0,22.1-17.9,40-40,40H40c-22.1,0-40-17.9-40-40
	l0,0C0,49.6,17.9,31.6,40,31.6z"/>
<g class="st1">
	<path class="st2" d="M84.4,81V60.6h13.5l0.5,4.3h-8.6v3.7h6.3l0.5,4.3h-6.8v3.8h9l0.5,4.3H84.4z"/>
	<path class="st2" d="M101.7,81V60.2l5.5-0.3V81H101.7z"/>
	<path class="st2" d="M117.3,87.6V66.5h2.7l2.7,2.7v18.1L117.3,87.6z M119.4,68.6c0.4-0.4,0.8-0.9,1.4-1.3c0.6-0.4,1.2-0.7,1.9-1
		c0.7-0.3,1.4-0.4,2.2-0.4c1.4,0,2.7,0.3,3.8,0.8c1.1,0.5,2,1.4,2.7,2.5s1,2.5,1,4.3c0,1.7-0.3,3.2-1,4.3c-0.6,1.2-1.6,2-2.7,2.6
		c-1.2,0.6-2.5,0.9-4,0.9c-0.6,0-1.2-0.1-1.8-0.3c-0.6-0.2-1.2-0.5-1.7-0.9c-0.6-0.4-1.1-0.9-1.7-1.5l1.5-3.2c0.6,0.5,1.1,1,1.7,1.2
		c0.6,0.3,1.1,0.4,1.6,0.4c0.5,0,0.9-0.1,1.2-0.4c0.4-0.3,0.6-0.7,0.9-1.2c0.2-0.5,0.3-1.2,0.3-1.9c0-0.7-0.1-1.4-0.3-1.9
		c-0.2-0.5-0.5-0.9-0.9-1.2s-0.9-0.4-1.5-0.4c-0.5,0-1,0.2-1.5,0.5c-0.5,0.4-1,0.8-1.6,1.4L119.4,68.6z"/>
	<path class="st2" d="M149.8,66.5v14.5h-2.6l-1.6-1.5c-0.5,0.3-1,0.6-1.6,0.9c-0.6,0.3-1.3,0.6-2,0.8s-1.5,0.3-2.3,0.3
		c-1.2,0-2.2-0.2-3-0.7c-0.8-0.5-1.4-1.2-1.7-2c-0.4-0.8-0.6-1.8-0.6-2.9v-9.4h5.5v8.9c0,0.4,0.1,0.8,0.3,1.2
		c0.2,0.4,0.6,0.5,1.2,0.5c0.2,0,0.5,0,0.9-0.1c0.3-0.1,0.7-0.2,1.1-0.3c0.4-0.1,0.7-0.3,1-0.4v-9.8H149.8z M139.4,62.7l2-5.3h5.4
		l-3.4,6L139.4,62.7z"/>
	<path class="st2" d="M153.1,81V60.2l5.5-0.3v18.4l-2.7,2.7H153.1z M155.2,68.6c0.4-0.4,0.8-0.9,1.4-1.3c0.6-0.4,1.2-0.7,1.9-1
		s1.4-0.4,2.2-0.4c1.4,0,2.7,0.3,3.8,0.8s2,1.4,2.7,2.5c0.6,1.1,1,2.5,1,4.3c0,1.7-0.3,3.2-1,4.3c-0.7,1.2-1.6,2-2.7,2.6
		c-1.2,0.6-2.5,0.9-4,0.9c-0.6,0-1.2-0.1-1.8-0.3c-0.6-0.2-1.2-0.5-1.7-0.9c-0.6-0.4-1.1-0.9-1.7-1.5l1.5-3.2c0.6,0.5,1.1,1,1.7,1.2
		c0.6,0.3,1.1,0.4,1.6,0.4c0.5,0,0.9-0.1,1.2-0.4c0.4-0.3,0.6-0.7,0.9-1.2c0.2-0.5,0.3-1.2,0.3-1.9c0-0.7-0.1-1.4-0.3-1.9
		c-0.2-0.5-0.5-0.9-0.9-1.2c-0.4-0.3-0.9-0.4-1.5-0.4c-0.5,0-1,0.2-1.5,0.5c-0.5,0.4-1,0.8-1.6,1.4L155.2,68.6z"/>
	<path class="st2" d="M170.6,81V60.2l5.5-0.3V81H170.6z"/>
	<path class="st2" d="M179.9,63.6c-0.6-0.6-0.9-1.3-0.9-2.1c0-0.8,0.3-1.5,0.9-2.1s1.3-0.9,2.1-0.9c0.8,0,1.5,0.3,2.1,0.9
		c0.6,0.6,0.9,1.3,0.9,2.1c0,0.8-0.3,1.5-0.9,2.1c-0.6,0.6-1.3,0.9-2.1,0.9C181.2,64.5,180.5,64.2,179.9,63.6z M179.3,81V66.5h5.5
		V81H179.3z"/>
	<path class="st2" d="M199.8,79.9c-0.6,0.4-1.1,0.8-1.8,1s-1.2,0.3-1.8,0.4c-0.6,0.1-1,0.1-1.4,0.1c-1.6,0-2.9-0.3-4.1-0.9
		c-1.2-0.6-2.1-1.5-2.8-2.6c-0.7-1.1-1-2.5-1-4.1c0-1.6,0.3-3,1-4.2c0.7-1.2,1.6-2,2.8-2.7c1.2-0.6,2.6-0.9,4.1-0.9
		c0.4,0,0.9,0,1.4,0.1c0.6,0.1,1.1,0.2,1.8,0.4s1.2,0.5,1.8,1l-1.5,3.8c-0.6-0.3-1.1-0.5-1.5-0.6c-0.4-0.1-0.9-0.2-1.4-0.2
		c-0.5,0-0.9,0.1-1.4,0.4c-0.4,0.3-0.8,0.7-1.1,1.2s-0.4,1.1-0.4,1.8c0,0.7,0.1,1.3,0.4,1.7c0.3,0.5,0.6,0.8,1.1,1.1
		c0.4,0.2,0.9,0.4,1.4,0.4s0.9-0.1,1.4-0.2c0.4-0.1,0.9-0.3,1.5-0.6L199.8,79.9z"/>
	<path class="st2" d="M208.7,81.4c-1.6,0-3-0.3-4.2-0.8s-2.2-1.4-2.9-2.5c-0.7-1.1-1-2.6-1-4.3c0-1.6,0.4-3,1.1-4.2
		c0.7-1.1,1.7-2,3-2.6c1.3-0.6,2.6-0.9,4.2-0.9c1.6,0,3,0.3,4.3,0.9c1.2,0.6,2.2,1.5,2.9,2.6c0.7,1.2,1.1,2.6,1.1,4.3
		c0,1.6-0.4,3-1.1,4.1s-1.8,2-3,2.5C211.7,81.1,210.3,81.4,208.7,81.4z M208.8,76.9c0.6,0,1.1-0.1,1.5-0.3c0.4-0.2,0.7-0.6,0.9-1
		c0.2-0.5,0.3-1,0.3-1.7c0-0.7-0.1-1.2-0.3-1.8c-0.2-0.5-0.5-0.9-0.9-1.2c-0.4-0.3-0.8-0.5-1.4-0.5c-0.6,0-1,0.1-1.4,0.4
		c-0.4,0.3-0.7,0.6-0.9,1.1c-0.2,0.5-0.3,1.1-0.3,1.8c0,0.6,0.1,1.2,0.3,1.7c0.2,0.5,0.5,0.9,0.9,1.1
		C207.8,76.8,208.2,76.9,208.8,76.9z"/>
	<path class="st2" d="M225.8,81V66.5h3.2l1,1.5c0.5-0.3,1-0.6,1.6-0.9c0.6-0.3,1.3-0.6,2-0.8c0.7-0.2,1.4-0.3,2.1-0.3
		c1.3,0,2.3,0.2,3,0.7s1.3,1.2,1.6,2c0.3,0.9,0.5,1.8,0.5,2.9V81h-5.5v-8.9c0-0.3,0-0.6-0.1-0.9c-0.1-0.3-0.2-0.5-0.4-0.6
		c-0.2-0.2-0.5-0.2-1-0.2c-0.2,0-0.4,0-0.8,0.1c-0.3,0.1-0.7,0.2-1,0.3c-0.4,0.1-0.7,0.3-1,0.4V81H225.8z M239.6,68
		c0.5-0.3,1-0.6,1.7-0.9c0.6-0.3,1.3-0.6,2-0.8c0.7-0.2,1.4-0.3,2.1-0.3c1.3,0,2.3,0.2,3,0.7s1.3,1.2,1.6,2c0.3,0.9,0.5,1.8,0.5,2.9
		V81h-5.5v-8.9c0-0.3,0-0.6-0.1-0.9c0-0.3-0.2-0.5-0.4-0.6s-0.5-0.2-1-0.2c-0.2,0-0.4,0-0.8,0.1c-0.3,0.1-0.7,0.2-1,0.3
		c-0.4,0.1-0.7,0.3-1,0.4L239.6,68z"/>
	<path class="st2" d="M258.5,75.1c0.1,0.4,0.3,0.8,0.6,1c0.3,0.3,0.6,0.5,1.1,0.7s1,0.2,1.6,0.2c0.9,0,1.7-0.1,2.3-0.3
		s1.2-0.4,1.7-0.7l1.5,3.7c-0.4,0.3-0.9,0.5-1.5,0.8c-0.6,0.2-1.3,0.4-2.1,0.6s-1.6,0.2-2.4,0.2c-1.7,0-3.1-0.3-4.5-0.9
		c-1.3-0.6-2.4-1.4-3.1-2.6c-0.8-1.1-1.1-2.5-1.1-4.2s0.3-3,1-4.2c0.7-1.2,1.6-2,2.8-2.7c1.2-0.6,2.5-0.9,4-0.9c1.6,0,2.9,0.3,3.9,1
		c1,0.7,1.8,1.6,2.3,2.8s0.8,2.4,0.8,3.8v1.6H258.5z M262.1,72.4c0-0.3-0.1-0.6-0.2-0.9c-0.1-0.3-0.3-0.6-0.6-0.8
		c-0.3-0.2-0.6-0.3-1.1-0.3c-0.3,0-0.6,0.1-0.9,0.3c-0.3,0.2-0.5,0.4-0.7,0.8c-0.2,0.3-0.3,0.7-0.3,1H262.1z"/>
	<path class="st2" d="M275.9,67.4c0.5-0.2,1.1-0.5,1.8-0.7c0.7-0.2,1.4-0.4,2.2-0.5c0.8-0.1,1.6-0.2,2.4-0.2c1.3,0,2.4,0.3,3.3,0.8
		c0.9,0.5,1.6,1.2,2,2.1s0.7,2,0.7,3.2v9h-2.6l-1.6-1.5c-0.5,0.6-1,1-1.5,1.3c-0.6,0.3-1.1,0.5-1.8,0.5c-1.8,0-3.2-0.5-4.1-1.4
		c-0.9-0.9-1.3-2.1-1.3-3.6c0-1.6,0.5-2.7,1.6-3.3c1.1-0.6,2.4-0.9,4.1-0.9h1.7l0-0.1c-0.1-0.5-0.3-0.9-0.7-1.2
		c-0.3-0.2-0.7-0.4-1.2-0.4c-0.5,0-1.1,0.1-1.8,0.3c-0.7,0.2-1.3,0.4-1.9,0.6L275.9,67.4z M280.2,76.8c0.1,0.2,0.2,0.3,0.4,0.4
		c0.2,0.1,0.3,0.1,0.5,0.1c0.3,0,0.6-0.1,1-0.2c0.3-0.1,0.6-0.3,1-0.6v-1.4h-1.7c-0.4,0-0.7,0.1-0.9,0.3c-0.2,0.2-0.3,0.5-0.3,0.8
		C280,76.5,280.1,76.6,280.2,76.8z"/>
	<path class="st2" d="M303.3,79.9c-0.6,0.4-1.1,0.8-1.8,1s-1.2,0.3-1.8,0.4c-0.6,0.1-1,0.1-1.4,0.1c-1.6,0-2.9-0.3-4.1-0.9
		c-1.2-0.6-2.1-1.5-2.8-2.6s-1-2.5-1-4.1c0-1.6,0.3-3,1-4.2s1.6-2,2.8-2.7c1.2-0.6,2.6-0.9,4.1-0.9c0.4,0,0.9,0,1.4,0.1
		c0.6,0.1,1.1,0.2,1.8,0.4s1.2,0.5,1.8,1l-1.5,3.8c-0.6-0.3-1.1-0.5-1.5-0.6c-0.4-0.1-0.9-0.2-1.4-0.2c-0.5,0-0.9,0.1-1.4,0.4
		c-0.4,0.3-0.8,0.7-1.1,1.2c-0.3,0.5-0.4,1.1-0.4,1.8c0,0.7,0.1,1.3,0.4,1.7c0.3,0.5,0.6,0.8,1.1,1.1c0.4,0.2,0.9,0.4,1.4,0.4
		c0.5,0,0.9-0.1,1.4-0.2c0.4-0.1,1-0.3,1.5-0.6L303.3,79.9z"/>
	<path class="st2" d="M305.3,81V60.2l5.5-0.3V81H305.3z"/>
	<path class="st2" d="M314,67.4c0.5-0.2,1.1-0.5,1.8-0.7c0.7-0.2,1.4-0.4,2.2-0.5c0.8-0.1,1.6-0.2,2.4-0.2c1.3,0,2.4,0.3,3.3,0.8
		c0.9,0.5,1.6,1.2,2,2.1c0.5,0.9,0.7,2,0.7,3.2v9h-2.6l-1.6-1.5c-0.5,0.6-1,1-1.5,1.3c-0.5,0.3-1.1,0.5-1.8,0.5
		c-1.8,0-3.2-0.5-4.1-1.4c-0.9-0.9-1.4-2.1-1.4-3.6c0-1.6,0.5-2.7,1.6-3.3c1.1-0.6,2.4-0.9,4.1-0.9h1.7l0-0.1
		c-0.1-0.5-0.3-0.9-0.7-1.2s-0.7-0.4-1.2-0.4c-0.5,0-1.1,0.1-1.8,0.3s-1.3,0.4-1.9,0.6L314,67.4z M318.2,76.8
		c0.1,0.2,0.2,0.3,0.4,0.4c0.1,0.1,0.3,0.1,0.5,0.1c0.3,0,0.6-0.1,1-0.2c0.3-0.1,0.6-0.3,1-0.6v-1.4h-1.7c-0.4,0-0.7,0.1-0.9,0.3
		c-0.2,0.2-0.3,0.5-0.3,0.8C318.1,76.5,318.1,76.6,318.2,76.8z"/>
	<path class="st2" d="M329.3,81V66.5h3.2l1,1.5c0.5-0.3,1-0.6,1.7-0.9c0.6-0.3,1.3-0.6,2-0.8c0.7-0.2,1.4-0.3,2.1-0.3
		c1.3,0,2.3,0.2,3,0.7s1.3,1.2,1.6,2c0.3,0.9,0.5,1.8,0.5,2.9V81H339v-8.9c0-0.3,0-0.6-0.1-0.9c0-0.3-0.2-0.5-0.4-0.6
		s-0.5-0.2-1-0.2c-0.2,0-0.4,0-0.8,0.1c-0.3,0.1-0.7,0.2-1,0.3s-0.7,0.3-1,0.4V81H329.3z M343.1,68c0.5-0.3,1-0.6,1.7-0.9
		c0.6-0.3,1.3-0.6,2-0.8c0.7-0.2,1.4-0.3,2.1-0.3c1.3,0,2.3,0.2,3,0.7s1.3,1.2,1.6,2c0.3,0.9,0.5,1.8,0.5,2.9V81h-5.5v-8.9
		c0-0.3,0-0.6-0.1-0.9c0-0.3-0.2-0.5-0.4-0.6s-0.5-0.2-1-0.2c-0.2,0-0.4,0-0.8,0.1c-0.3,0.1-0.7,0.2-1,0.3c-0.4,0.1-0.7,0.3-1,0.4
		L343.1,68z"/>
	<path class="st2" d="M356.9,67.4c0.5-0.2,1.1-0.5,1.8-0.7c0.7-0.2,1.4-0.4,2.2-0.5c0.8-0.1,1.6-0.2,2.4-0.2c1.3,0,2.4,0.3,3.3,0.8
		c0.9,0.5,1.6,1.2,2,2.1c0.5,0.9,0.7,2,0.7,3.2v9h-2.6l-1.6-1.5c-0.5,0.6-1,1-1.5,1.3c-0.5,0.3-1.1,0.5-1.8,0.5
		c-1.8,0-3.2-0.5-4.1-1.4c-0.9-0.9-1.4-2.1-1.4-3.6c0-1.6,0.5-2.7,1.6-3.3c1.1-0.6,2.4-0.9,4.1-0.9h1.7l0-0.1
		c-0.1-0.5-0.3-0.9-0.7-1.2s-0.7-0.4-1.2-0.4c-0.5,0-1.1,0.1-1.8,0.3s-1.3,0.4-1.9,0.6L356.9,67.4z M361.1,76.8
		c0.1,0.2,0.2,0.3,0.4,0.4c0.1,0.1,0.3,0.1,0.5,0.1c0.3,0,0.6-0.1,1-0.2c0.3-0.1,0.6-0.3,1-0.6v-1.4h-1.7c-0.4,0-0.7,0.1-0.9,0.3
		c-0.2,0.2-0.3,0.5-0.3,0.8C361,76.5,361,76.6,361.1,76.8z"/>
	<path class="st2" d="M372.3,80.3c-0.5-0.5-0.7-1.1-0.7-1.8c0-0.7,0.2-1.3,0.7-1.8c0.5-0.5,1.1-0.7,1.8-0.7c0.7,0,1.3,0.2,1.8,0.7
		c0.5,0.5,0.7,1.1,0.7,1.8c0,0.7-0.2,1.3-0.7,1.8c-0.5,0.5-1.1,0.7-1.8,0.7C373.4,81,372.8,80.8,372.3,80.3z M378.2,80.3
		c-0.5-0.5-0.7-1.1-0.7-1.8c0-0.7,0.2-1.3,0.7-1.8c0.5-0.5,1.1-0.7,1.8-0.7s1.3,0.2,1.8,0.7c0.5,0.5,0.7,1.1,0.7,1.8
		c0,0.7-0.2,1.3-0.7,1.8c-0.5,0.5-1.1,0.7-1.8,0.7S378.7,80.8,378.2,80.3z M384.2,80.3c-0.5-0.5-0.7-1.1-0.7-1.8
		c0-0.7,0.2-1.3,0.7-1.8c0.5-0.5,1.1-0.7,1.8-0.7s1.3,0.2,1.8,0.7c0.5,0.5,0.7,1.1,0.7,1.8c0,0.7-0.2,1.3-0.7,1.8
		c-0.5,0.5-1.1,0.7-1.8,0.7C385.2,81,384.7,80.8,384.2,80.3z"/>
</g>
</svg>
