<?xml version="1.0" encoding="utf-8"?>
<!-- Generator: Adobe Illustrator 24.3.0, SVG Export Plug-In . SVG Version: 6.00 Build 0)  -->
<svg version="1.1" id="Capa_1" xmlns="http://www.w3.org/2000/svg" xmlns:xlink="http://www.w3.org/1999/xlink" x="0px" y="0px"
	 viewBox="0 0 341 174" style="enable-background:new 0 0 341 174;" xml:space="preserve">
<style type="text/css">
	.st0{fill:#273043;}
	.st1{enable-background:new    ;}
	.st2{fill:#FFFFFF;}
</style>
<g id="Grupo_1274" transform="translate(-756 -3003)">
	<g transform="matrix(1, 0, 0, 1, 756, 3003)">
		<path id="Rectángulo_74-2" class="st0" d="M81,54h207c29.3,0,53,23.7,53,53v14c0,29.3-23.7,53-53,53H81c-29.3,0-53-23.7-53-53
			v-14C28,77.7,51.7,54,81,54z"/>
	</g>
	<path id="Trazado_593" class="st0" d="M836,3063l-80-60l31,103L836,3063z"/>
</g>
<g class="st1">
	<path class="st2" d="M50.2,122v-19h12.6l0.5,4h-8v3.5h5.9l0.5,4h-6.3v3.6h8.4l0.5,4H50.2z"/>
	<path class="st2" d="M66.4,122v-19.5l5.1-0.3V122H66.4z"/>
	<path class="st2" d="M80.9,128.1v-19.7h2.5L86,111v16.9L80.9,128.1z M82.9,110.4c0.3-0.4,0.8-0.8,1.3-1.2c0.5-0.4,1.1-0.7,1.8-0.9
		c0.7-0.2,1.3-0.4,2-0.4c1.3,0,2.5,0.3,3.6,0.8c1,0.5,1.9,1.3,2.5,2.3c0.6,1,0.9,2.4,0.9,4c0,1.6-0.3,2.9-0.9,4
		c-0.6,1.1-1.4,1.9-2.5,2.4c-1.1,0.5-2.3,0.8-3.8,0.8c-0.6,0-1.1-0.1-1.7-0.3c-0.6-0.2-1.1-0.4-1.6-0.8s-1.1-0.8-1.6-1.4l1.4-3
		c0.5,0.5,1.1,0.9,1.6,1.2c0.5,0.3,1,0.4,1.5,0.4c0.4,0,0.8-0.1,1.1-0.4s0.6-0.6,0.8-1.1c0.2-0.5,0.3-1.1,0.3-1.8
		c0-0.7-0.1-1.3-0.3-1.8c-0.2-0.5-0.5-0.8-0.8-1.1c-0.4-0.2-0.8-0.4-1.4-0.4c-0.4,0-0.9,0.2-1.4,0.5c-0.5,0.3-1,0.8-1.5,1.3
		L82.9,110.4z"/>
	<path class="st2" d="M111.3,108.4V122h-2.5l-1.5-1.4c-0.4,0.3-1,0.6-1.5,0.8c-0.6,0.3-1.2,0.5-1.9,0.7c-0.7,0.2-1.4,0.3-2.1,0.3
		c-1.1,0-2.1-0.2-2.8-0.7s-1.3-1.1-1.6-1.9c-0.3-0.8-0.5-1.7-0.5-2.7v-8.8h5.1v8.3c0,0.4,0.1,0.8,0.3,1.1c0.2,0.3,0.6,0.5,1.1,0.5
		c0.2,0,0.5,0,0.8-0.1c0.3-0.1,0.7-0.2,1-0.3c0.3-0.1,0.6-0.2,0.9-0.3v-9.1H111.3z M101.5,104.9l1.8-5h5l-3.2,5.6L101.5,104.9z"/>
	<path class="st2" d="M114.3,122v-19.5l5.1-0.3v17.2l-2.5,2.5H114.3z M116.3,110.4c0.3-0.4,0.8-0.8,1.3-1.2c0.5-0.4,1.1-0.7,1.8-0.9
		c0.7-0.2,1.3-0.4,2-0.4c1.3,0,2.5,0.3,3.6,0.8s1.9,1.3,2.5,2.3c0.6,1,0.9,2.4,0.9,4c0,1.6-0.3,2.9-0.9,4c-0.6,1.1-1.4,1.9-2.5,2.4
		c-1.1,0.5-2.3,0.8-3.8,0.8c-0.6,0-1.1-0.1-1.7-0.3c-0.6-0.2-1.1-0.4-1.6-0.8c-0.5-0.4-1.1-0.8-1.6-1.4l1.4-3
		c0.5,0.5,1.1,0.9,1.6,1.2c0.5,0.3,1,0.4,1.5,0.4c0.4,0,0.8-0.1,1.1-0.4s0.6-0.6,0.8-1.1c0.2-0.5,0.3-1.1,0.3-1.8
		c0-0.7-0.1-1.3-0.3-1.8c-0.2-0.5-0.5-0.8-0.8-1.1c-0.4-0.2-0.8-0.4-1.4-0.4c-0.4,0-0.9,0.2-1.4,0.5c-0.5,0.3-1,0.8-1.5,1.3
		L116.3,110.4z"/>
	<path class="st2" d="M130.7,122v-19.5l5.1-0.3V122H130.7z"/>
	<path class="st2" d="M139.4,105.8c-0.5-0.5-0.8-1.2-0.8-1.9c0-0.8,0.3-1.4,0.8-2c0.5-0.5,1.2-0.8,1.9-0.8c0.8,0,1.4,0.3,2,0.8
		c0.6,0.6,0.8,1.2,0.8,2c0,0.7-0.3,1.4-0.8,1.9c-0.6,0.5-1.2,0.8-2,0.8C140.6,106.6,140,106.3,139.4,105.8z M138.8,122v-13.6h5.1
		V122H138.8z"/>
	<path class="st2" d="M158,120.9c-0.5,0.4-1.1,0.7-1.7,0.9c-0.6,0.2-1.1,0.3-1.7,0.4c-0.5,0.1-1,0.1-1.3,0.1c-1.5,0-2.7-0.3-3.9-0.8
		c-1.1-0.6-2-1.4-2.6-2.4c-0.6-1.1-0.9-2.3-0.9-3.9c0-1.5,0.3-2.8,0.9-3.9c0.6-1.1,1.5-1.9,2.6-2.5c1.1-0.6,2.4-0.9,3.9-0.9
		c0.4,0,0.8,0,1.3,0.1c0.5,0.1,1.1,0.2,1.7,0.4c0.6,0.2,1.1,0.5,1.7,0.9l-1.4,3.5c-0.5-0.3-1-0.5-1.4-0.6c-0.4-0.1-0.8-0.2-1.3-0.2
		c-0.4,0-0.9,0.1-1.3,0.4s-0.7,0.6-1,1.1s-0.4,1-0.4,1.7c0,0.6,0.1,1.2,0.4,1.6s0.6,0.8,1,1c0.4,0.2,0.8,0.3,1.3,0.3
		c0.4,0,0.9-0.1,1.3-0.2c0.4-0.1,0.9-0.3,1.4-0.6L158,120.9z"/>
	<path class="st2" d="M166.3,122.3c-1.5,0-2.8-0.3-3.9-0.8c-1.1-0.5-2-1.3-2.7-2.4c-0.7-1.1-1-2.4-1-4c0-1.5,0.3-2.8,1-3.9
		c0.7-1.1,1.6-1.9,2.8-2.5s2.5-0.9,3.9-0.9c1.5,0,2.8,0.3,4,0.8c1.2,0.6,2.1,1.4,2.7,2.5c0.7,1.1,1,2.4,1,4.1c0,1.5-0.4,2.8-1,3.8
		c-0.7,1-1.6,1.8-2.8,2.4C169,122,167.7,122.3,166.3,122.3z M166.3,118.2c0.5,0,1-0.1,1.4-0.3c0.4-0.2,0.6-0.5,0.8-1
		c0.2-0.4,0.3-1,0.3-1.6c0-0.6-0.1-1.2-0.3-1.6c-0.2-0.5-0.5-0.9-0.8-1.1c-0.3-0.3-0.8-0.4-1.3-0.4c-0.5,0-1,0.1-1.3,0.4
		c-0.4,0.2-0.7,0.6-0.9,1c-0.2,0.5-0.3,1-0.3,1.6c0,0.6,0.1,1.1,0.3,1.6c0.2,0.5,0.5,0.8,0.8,1.1C165.4,118,165.8,118.2,166.3,118.2
		z"/>
	<path class="st2" d="M182.2,122v-13.6h3l0.9,1.4c0.4-0.3,1-0.6,1.5-0.9c0.6-0.3,1.2-0.5,1.9-0.7c0.7-0.2,1.3-0.3,2-0.3
		c1.2,0,2.1,0.2,2.8,0.7c0.7,0.5,1.2,1.1,1.5,1.9s0.4,1.7,0.4,2.7v8.8h-5.1v-8.3c0-0.3,0-0.5-0.1-0.8s-0.2-0.5-0.3-0.6
		c-0.2-0.1-0.5-0.2-0.9-0.2c-0.2,0-0.4,0-0.7,0.1s-0.6,0.2-1,0.3c-0.3,0.1-0.6,0.2-0.9,0.4v9.1H182.2z M195.1,109.8
		c0.4-0.3,1-0.6,1.5-0.9c0.6-0.3,1.2-0.5,1.9-0.7c0.7-0.2,1.3-0.3,2-0.3c1.2,0,2.1,0.2,2.8,0.7s1.2,1.1,1.5,1.9s0.4,1.7,0.4,2.7v8.8
		h-5.1v-8.3c0-0.3,0-0.5-0.1-0.8c0-0.3-0.2-0.5-0.4-0.6c-0.2-0.1-0.5-0.2-0.9-0.2c-0.2,0-0.4,0-0.7,0.1c-0.3,0.1-0.6,0.2-1,0.3
		c-0.3,0.1-0.6,0.2-0.9,0.4L195.1,109.8z"/>
	<path class="st2" d="M212.7,116.5c0.1,0.4,0.3,0.7,0.6,1s0.6,0.5,1,0.6c0.4,0.1,0.9,0.2,1.5,0.2c0.8,0,1.5-0.1,2.2-0.3
		c0.6-0.2,1.1-0.4,1.6-0.6l1.4,3.4c-0.4,0.3-0.8,0.5-1.4,0.7c-0.6,0.2-1.3,0.4-2,0.5c-0.7,0.1-1.5,0.2-2.2,0.2
		c-1.5,0-2.9-0.3-4.2-0.8s-2.2-1.3-2.9-2.4c-0.7-1.1-1-2.3-1-3.9c0-1.5,0.3-2.8,1-3.9c0.6-1.1,1.5-1.9,2.6-2.5
		c1.1-0.6,2.3-0.9,3.7-0.9c1.5,0,2.7,0.3,3.6,1c1,0.6,1.7,1.5,2.2,2.6c0.5,1.1,0.7,2.2,0.7,3.5v1.5H212.7z M216.1,114
		c0-0.3-0.1-0.5-0.2-0.8s-0.3-0.6-0.6-0.8c-0.3-0.2-0.6-0.3-1-0.3c-0.3,0-0.6,0.1-0.9,0.3c-0.3,0.2-0.5,0.4-0.7,0.7
		c-0.2,0.3-0.2,0.6-0.2,1H216.1z"/>
	<path class="st2" d="M229,109.2c0.5-0.2,1-0.4,1.7-0.6c0.6-0.2,1.3-0.4,2.1-0.5c0.7-0.1,1.5-0.2,2.2-0.2c1.2,0,2.3,0.2,3.1,0.7
		c0.8,0.5,1.5,1.1,1.9,2c0.4,0.8,0.6,1.8,0.6,3v8.4h-2.5l-1.5-1.4c-0.4,0.5-0.9,1-1.4,1.3c-0.5,0.3-1.1,0.4-1.6,0.4
		c-1.7,0-3-0.4-3.8-1.3c-0.8-0.9-1.3-2-1.3-3.4c0-1.5,0.5-2.5,1.5-3.1c1-0.6,2.3-0.9,3.8-0.9h1.6l0-0.1c-0.1-0.5-0.3-0.9-0.6-1.1
		c-0.3-0.2-0.7-0.3-1.1-0.3c-0.5,0-1,0.1-1.7,0.2s-1.2,0.3-1.7,0.6L229,109.2z M232.9,118c0.1,0.1,0.2,0.3,0.3,0.3
		c0.1,0.1,0.3,0.1,0.5,0.1c0.3,0,0.6-0.1,0.9-0.2c0.3-0.1,0.6-0.3,0.9-0.6v-1.3H234c-0.3,0-0.6,0.1-0.8,0.3
		c-0.2,0.2-0.3,0.5-0.3,0.8C232.8,117.7,232.9,117.9,232.9,118z"/>
	<path class="st2" d="M254.6,120.9c-0.5,0.4-1.1,0.7-1.7,0.9c-0.6,0.2-1.1,0.3-1.7,0.4c-0.5,0.1-1,0.1-1.3,0.1
		c-1.5,0-2.7-0.3-3.9-0.8c-1.1-0.6-2-1.4-2.6-2.4c-0.6-1.1-0.9-2.3-0.9-3.9c0-1.5,0.3-2.8,0.9-3.9c0.6-1.1,1.5-1.9,2.6-2.5
		c1.1-0.6,2.4-0.9,3.9-0.9c0.4,0,0.8,0,1.3,0.1c0.5,0.1,1.1,0.2,1.7,0.4c0.6,0.2,1.1,0.5,1.7,0.9l-1.4,3.5c-0.5-0.3-1-0.5-1.4-0.6
		s-0.8-0.2-1.3-0.2c-0.4,0-0.9,0.1-1.3,0.4c-0.4,0.3-0.7,0.6-1,1.1s-0.4,1-0.4,1.7c0,0.6,0.1,1.2,0.4,1.6s0.6,0.8,1,1
		c0.4,0.2,0.8,0.3,1.3,0.3c0.4,0,0.9-0.1,1.3-0.2c0.4-0.1,0.9-0.3,1.4-0.6L254.6,120.9z"/>
	<path class="st2" d="M256.4,122v-19.5l5.1-0.3V122H256.4z"/>
	<path class="st2" d="M264.5,109.2c0.5-0.2,1-0.4,1.7-0.6c0.6-0.2,1.3-0.4,2.1-0.5c0.7-0.1,1.5-0.2,2.2-0.2c1.2,0,2.3,0.2,3.1,0.7
		c0.8,0.5,1.5,1.1,1.9,2c0.4,0.8,0.6,1.8,0.6,3v8.4h-2.5l-1.5-1.4c-0.4,0.5-0.9,1-1.4,1.3c-0.5,0.3-1.1,0.4-1.6,0.4
		c-1.7,0-3-0.4-3.8-1.3c-0.8-0.9-1.3-2-1.3-3.4c0-1.5,0.5-2.5,1.5-3.1c1-0.6,2.3-0.9,3.8-0.9h1.6l0-0.1c-0.1-0.5-0.3-0.9-0.6-1.1
		c-0.3-0.2-0.7-0.3-1.1-0.3c-0.5,0-1,0.1-1.7,0.2s-1.2,0.3-1.7,0.6L264.5,109.2z M268.5,118c0.1,0.1,0.2,0.3,0.3,0.3
		c0.1,0.1,0.3,0.1,0.5,0.1c0.3,0,0.6-0.1,0.9-0.2c0.3-0.1,0.6-0.3,0.9-0.6v-1.3h-1.6c-0.3,0-0.6,0.1-0.8,0.3
		c-0.2,0.2-0.3,0.5-0.3,0.8C268.3,117.7,268.4,117.9,268.5,118z"/>
	<path class="st2" d="M278.8,122v-13.6h3l0.9,1.4c0.4-0.3,1-0.6,1.5-0.9c0.6-0.3,1.2-0.5,1.9-0.7c0.7-0.2,1.3-0.3,2-0.3
		c1.2,0,2.1,0.2,2.8,0.7s1.2,1.1,1.5,1.9c0.3,0.8,0.4,1.7,0.4,2.7v8.8h-5.1v-8.3c0-0.3,0-0.5-0.1-0.8c0-0.3-0.2-0.5-0.4-0.6
		c-0.2-0.1-0.5-0.2-0.9-0.2c-0.2,0-0.4,0-0.7,0.1c-0.3,0.1-0.6,0.2-1,0.3c-0.3,0.1-0.6,0.2-0.9,0.4v9.1H278.8z M291.7,109.8
		c0.4-0.3,1-0.6,1.5-0.9c0.6-0.3,1.2-0.5,1.9-0.7c0.7-0.2,1.3-0.3,2-0.3c1.2,0,2.1,0.2,2.8,0.7c0.7,0.5,1.2,1.1,1.5,1.9
		c0.3,0.8,0.4,1.7,0.4,2.7v8.8h-5.1v-8.3c0-0.3,0-0.5-0.1-0.8s-0.2-0.5-0.3-0.6c-0.2-0.1-0.5-0.2-0.9-0.2c-0.2,0-0.4,0-0.7,0.1
		c-0.3,0.1-0.6,0.2-1,0.3c-0.3,0.1-0.6,0.2-0.9,0.4L291.7,109.8z"/>
	<path class="st2" d="M304.6,109.2c0.5-0.2,1-0.4,1.7-0.6c0.6-0.2,1.3-0.4,2.1-0.5c0.7-0.1,1.5-0.2,2.2-0.2c1.2,0,2.3,0.2,3.1,0.7
		c0.8,0.5,1.5,1.1,1.9,2c0.4,0.8,0.6,1.8,0.6,3v8.4h-2.5l-1.5-1.4c-0.4,0.5-0.9,1-1.4,1.3c-0.5,0.3-1.1,0.4-1.6,0.4
		c-1.7,0-3-0.4-3.8-1.3c-0.8-0.9-1.3-2-1.3-3.4c0-1.5,0.5-2.5,1.5-3.1s2.3-0.9,3.8-0.9h1.6l0-0.1c-0.1-0.5-0.3-0.9-0.6-1.1
		c-0.3-0.2-0.7-0.3-1.1-0.3c-0.5,0-1,0.1-1.7,0.2s-1.2,0.3-1.7,0.6L304.6,109.2z M308.5,118c0.1,0.1,0.2,0.3,0.3,0.3
		s0.3,0.1,0.5,0.1c0.3,0,0.6-0.1,0.9-0.2c0.3-0.1,0.6-0.3,0.9-0.6v-1.3h-1.6c-0.3,0-0.6,0.1-0.8,0.3c-0.2,0.2-0.3,0.5-0.3,0.8
		C308.4,117.7,308.4,117.9,308.5,118z"/>
	<path class="st2" d="M319,121.3c-0.4-0.4-0.7-1-0.7-1.7c0-0.7,0.2-1.2,0.7-1.7c0.4-0.4,1-0.7,1.7-0.7c0.7,0,1.2,0.2,1.7,0.7
		c0.4,0.4,0.7,1,0.7,1.7c0,0.7-0.2,1.2-0.7,1.7c-0.4,0.4-1,0.7-1.7,0.7C320,122,319.4,121.8,319,121.3z M324.5,121.3
		c-0.4-0.4-0.7-1-0.7-1.7c0-0.7,0.2-1.2,0.7-1.7c0.4-0.4,1-0.7,1.7-0.7s1.2,0.2,1.7,0.7c0.4,0.4,0.7,1,0.7,1.7
		c0,0.7-0.2,1.2-0.7,1.7c-0.4,0.4-1,0.7-1.7,0.7S324.9,121.8,324.5,121.3z M330,121.3c-0.5-0.4-0.7-1-0.7-1.7c0-0.7,0.2-1.2,0.7-1.7
		c0.4-0.4,1-0.7,1.7-0.7s1.2,0.2,1.7,0.7c0.4,0.4,0.7,1,0.7,1.7c0,0.7-0.2,1.2-0.7,1.7c-0.4,0.4-1,0.7-1.7,0.7
		C331,122,330.5,121.8,330,121.3z"/>
</g>
</svg>
