<?xml version="1.0" encoding="utf-8"?>
<!-- Generator: Adobe Illustrator 24.3.0, SVG Export Plug-In . SVG Version: 6.00 Build 0)  -->
<svg version="1.1" id="Capa_1" xmlns="http://www.w3.org/2000/svg" xmlns:xlink="http://www.w3.org/1999/xlink" x="0px" y="0px"
	 viewBox="0 0 469 136" style="enable-background:new 0 0 469 136;" xml:space="preserve">
<style type="text/css">
	.st0{fill:#273043;}
	.st1{enable-background:new    ;}
	.st2{fill:#FFFFFF;}
</style>
<g id="Grupo_572" transform="translate(-77.442 -4251)">
	<g id="Grupo_570" transform="translate(77 4251)">
		<path id="Rectángulo_104_1_" class="st0" d="M49.4,0h371c27.1,0,49,21.9,49,49v38c0,27.1-21.9,49-49,49h-371
			c-27.1,0-49-21.9-49-49V49C0.4,21.9,22.4,0,49.4,0z"/>
		<g class="st1">
			<path class="st2" d="M255.6,37c0.3,0.2,0.8,0.4,1.3,0.6c0.5,0.2,1.1,0.3,1.6,0.5c0.6,0.1,1.1,0.2,1.5,0.2c0.5,0,1-0.1,1.4-0.2
				c0.4-0.1,0.6-0.3,0.8-0.6c0.2-0.2,0.3-0.5,0.3-0.7s-0.1-0.5-0.4-0.7s-0.7-0.5-1.1-0.7c-0.4-0.3-0.9-0.5-1.4-0.8
				c-0.6-0.4-1.3-0.8-1.9-1.2c-0.7-0.4-1.3-0.9-1.9-1.4s-1-1.1-1.4-1.7c-0.4-0.6-0.5-1.4-0.5-2.2c0-1,0.3-2,0.9-2.8
				c0.6-0.8,1.4-1.5,2.4-1.9c1.1-0.5,2.3-0.7,3.8-0.7c1,0,1.9,0.1,3,0.4c1,0.3,1.9,0.7,2.6,1.2l-1.5,3.4c-0.7-0.2-1.2-0.4-1.7-0.5
				s-0.8-0.2-1.2-0.2c-0.4,0-0.7-0.1-1.2-0.1c-0.6,0-1,0.1-1.4,0.4s-0.5,0.6-0.5,0.9c0,0.3,0.1,0.5,0.4,0.7c0.3,0.2,0.6,0.4,1.1,0.7
				s0.9,0.5,1.4,0.8c0.7,0.4,1.3,0.8,2,1.2c0.7,0.4,1.3,0.9,1.9,1.4c0.6,0.5,1,1.1,1.4,1.7c0.3,0.6,0.5,1.3,0.5,2.1
				c0,1.1-0.3,2-0.9,2.9c-0.6,0.8-1.5,1.5-2.6,2s-2.5,0.7-4.1,0.7c-0.5,0-1,0-1.6-0.1c-0.6-0.1-1.1-0.2-1.7-0.3
				c-0.6-0.1-1.1-0.3-1.6-0.5s-1-0.4-1.3-0.6L255.6,37z"/>
			<path class="st2" d="M269.7,42V28.4h5.1V42H269.7z M269.7,24.9l1.8-5h5l-3.2,5.6L269.7,24.9z"/>
			<path class="st2" d="M288.8,39.8c-0.3,0.4-0.8,0.8-1.3,1.2c-0.5,0.4-1.1,0.7-1.8,0.9c-0.6,0.2-1.3,0.4-2,0.4
				c-1.3,0-2.5-0.3-3.6-0.8s-1.9-1.3-2.5-2.3s-0.9-2.4-0.9-4c0-1.6,0.3-3,0.9-4c0.6-1.1,1.5-1.9,2.5-2.4c1.1-0.5,2.3-0.8,3.8-0.8
				c0.6,0,1.1,0.1,1.7,0.3c0.5,0.2,1.1,0.4,1.6,0.8c0.5,0.4,1.1,0.8,1.6,1.4l-1.4,3c-0.5-0.5-1.1-0.9-1.6-1.2
				c-0.5-0.3-1-0.4-1.5-0.4c-0.4,0-0.8,0.1-1.1,0.4c-0.3,0.3-0.6,0.6-0.8,1.1c-0.2,0.5-0.3,1.1-0.3,1.8c0,0.7,0.1,1.3,0.3,1.8
				c0.2,0.5,0.5,0.8,0.9,1.1c0.4,0.2,0.8,0.4,1.3,0.4c0.4,0,0.9-0.2,1.4-0.5s1-0.8,1.5-1.3L288.8,39.8z M290.8,42.4
				c0,1.2-0.3,2.2-0.9,3.1s-1.5,1.6-2.6,2.1c-1.1,0.5-2.4,0.8-3.9,0.8c-0.3,0-0.7,0-1.2-0.1c-0.5-0.1-1.1-0.1-1.7-0.3
				c-0.6-0.1-1.2-0.3-1.8-0.5c-0.6-0.2-1.1-0.4-1.6-0.7l1.5-3.6c0.9,0.4,1.7,0.7,2.4,0.9c0.7,0.1,1.3,0.2,1.9,0.2
				c0.8,0,1.5-0.2,2-0.5c0.5-0.4,0.8-0.8,0.8-1.4V31.6l2.5-3.2h2.5V42.4z"/>
			<path class="st2" d="M308.1,28.4V42h-2.5l-1.5-1.4c-0.4,0.3-1,0.6-1.5,0.8c-0.6,0.3-1.2,0.5-1.9,0.7c-0.7,0.2-1.4,0.3-2.1,0.3
				c-1.1,0-2.1-0.2-2.8-0.7c-0.7-0.5-1.3-1.1-1.6-1.9c-0.3-0.8-0.5-1.7-0.5-2.7v-8.8h5.1v8.3c0,0.4,0.1,0.8,0.3,1.1
				c0.2,0.3,0.6,0.5,1.1,0.5c0.2,0,0.5,0,0.8-0.1s0.7-0.2,1-0.3c0.3-0.1,0.6-0.2,0.9-0.3v-9.1H308.1z"/>
			<path class="st2" d="M315.6,36.5c0.1,0.4,0.3,0.7,0.6,1s0.6,0.5,1,0.6c0.4,0.1,0.9,0.2,1.5,0.2c0.8,0,1.5-0.1,2.2-0.3
				c0.6-0.2,1.1-0.4,1.6-0.6l1.4,3.4c-0.4,0.3-0.8,0.5-1.4,0.7s-1.3,0.4-2,0.5c-0.7,0.1-1.5,0.2-2.2,0.2c-1.5,0-2.9-0.3-4.2-0.8
				s-2.2-1.3-2.9-2.4c-0.7-1.1-1-2.3-1-3.9c0-1.5,0.3-2.8,1-3.9c0.6-1.1,1.5-1.9,2.6-2.5c1.1-0.6,2.3-0.9,3.7-0.9
				c1.5,0,2.7,0.3,3.6,1c1,0.6,1.7,1.5,2.2,2.6c0.5,1.1,0.7,2.2,0.7,3.5v1.5H315.6z M319,34c0-0.3-0.1-0.5-0.2-0.8
				c-0.1-0.3-0.3-0.6-0.6-0.8c-0.3-0.2-0.6-0.3-1-0.3c-0.3,0-0.6,0.1-0.9,0.3c-0.3,0.2-0.5,0.4-0.7,0.7c-0.2,0.3-0.2,0.6-0.2,1H319z
				"/>
			<path class="st2" d="M325.8,42V28.4h3l0.9,1.4c0.4-0.3,1-0.6,1.5-0.9c0.6-0.3,1.2-0.5,1.9-0.7c0.7-0.2,1.3-0.3,2-0.3
				c1.2,0,2.1,0.2,2.8,0.7s1.2,1.1,1.5,1.9c0.3,0.8,0.4,1.7,0.4,2.7V42h-5.1v-8.3c0-0.3,0-0.5-0.1-0.8s-0.2-0.5-0.3-0.6
				c-0.2-0.1-0.5-0.2-0.9-0.2c-0.2,0-0.4,0-0.7,0.1s-0.6,0.2-1,0.3c-0.3,0.1-0.6,0.2-0.9,0.4V42H325.8z M338.7,29.8
				c0.4-0.3,1-0.6,1.5-0.9c0.6-0.3,1.2-0.5,1.9-0.7c0.7-0.2,1.3-0.3,2-0.3c1.2,0,2.1,0.2,2.8,0.7s1.2,1.1,1.5,1.9
				c0.3,0.8,0.4,1.7,0.4,2.7V42h-5.1v-8.3c0-0.3,0-0.5-0.1-0.8c0-0.3-0.2-0.5-0.4-0.6c-0.2-0.1-0.5-0.2-0.9-0.2
				c-0.2,0-0.4,0-0.7,0.1c-0.3,0.1-0.6,0.2-1,0.3c-0.3,0.1-0.6,0.2-0.9,0.4L338.7,29.8z"/>
			<path class="st2" d="M356.3,36.5c0.1,0.4,0.3,0.7,0.6,1c0.3,0.3,0.6,0.5,1,0.6c0.4,0.1,0.9,0.2,1.5,0.2c0.8,0,1.5-0.1,2.2-0.3
				c0.6-0.2,1.1-0.4,1.6-0.6l1.4,3.4c-0.4,0.3-0.8,0.5-1.4,0.7s-1.3,0.4-2,0.5c-0.7,0.1-1.5,0.2-2.2,0.2c-1.5,0-2.9-0.3-4.2-0.8
				c-1.2-0.5-2.2-1.3-2.9-2.4c-0.7-1.1-1-2.3-1-3.9c0-1.5,0.3-2.8,1-3.9c0.6-1.1,1.5-1.9,2.6-2.5c1.1-0.6,2.3-0.9,3.7-0.9
				c1.5,0,2.7,0.3,3.6,1c1,0.6,1.7,1.5,2.2,2.6s0.7,2.2,0.7,3.5v1.5H356.3z M359.7,34c0-0.3-0.1-0.5-0.2-0.8s-0.3-0.6-0.6-0.8
				c-0.3-0.2-0.6-0.3-1-0.3c-0.3,0-0.6,0.1-0.9,0.3c-0.3,0.2-0.5,0.4-0.7,0.7c-0.2,0.3-0.2,0.6-0.2,1H359.7z"/>
			<path class="st2" d="M377.4,36.5c0.1,0.4,0.3,0.7,0.6,1s0.6,0.5,1,0.6s0.9,0.2,1.5,0.2c0.8,0,1.5-0.1,2.2-0.3
				c0.6-0.2,1.1-0.4,1.6-0.6l1.4,3.4c-0.4,0.3-0.8,0.5-1.4,0.7c-0.6,0.2-1.3,0.4-2,0.5c-0.7,0.1-1.5,0.2-2.2,0.2
				c-1.5,0-2.9-0.3-4.2-0.8s-2.2-1.3-2.9-2.4c-0.7-1.1-1-2.3-1-3.9c0-1.5,0.3-2.8,1-3.9c0.6-1.1,1.5-1.9,2.6-2.5
				c1.1-0.6,2.3-0.9,3.7-0.9c1.5,0,2.7,0.3,3.6,1c1,0.6,1.7,1.5,2.2,2.6s0.7,2.2,0.7,3.5v1.5H377.4z M380.8,34
				c0-0.3-0.1-0.5-0.2-0.8c-0.1-0.3-0.3-0.6-0.6-0.8c-0.3-0.2-0.6-0.3-1-0.3c-0.3,0-0.6,0.1-0.9,0.3c-0.3,0.2-0.5,0.4-0.7,0.7
				c-0.2,0.3-0.2,0.6-0.2,1H380.8z"/>
			<path class="st2" d="M387.6,42V28.4h3l0.9,1.4c0.4-0.3,1-0.6,1.6-0.9c0.6-0.3,1.2-0.5,1.9-0.7s1.4-0.3,2.1-0.3
				c1.2,0,2.1,0.2,2.8,0.7s1.3,1.1,1.6,1.9s0.5,1.7,0.5,2.7V42h-5.1v-8.3c0-0.4-0.1-0.8-0.3-1.1c-0.2-0.3-0.6-0.5-1.1-0.5
				c-0.2,0-0.5,0-0.8,0.1s-0.7,0.2-1,0.3c-0.3,0.1-0.7,0.2-0.9,0.4V42H387.6z"/>
		</g>
		<g class="st1">
			<path class="st2" d="M243.5,100V73.5h7.1V100H243.5z"/>
			<path class="st2" d="M255.7,100V81.1h4.2l1.2,2c0.6-0.4,1.3-0.8,2.2-1.2c0.8-0.4,1.7-0.7,2.6-1c0.9-0.3,1.9-0.4,2.9-0.4
				c1.6,0,2.9,0.3,3.9,1c1,0.6,1.7,1.5,2.2,2.6c0.5,1.1,0.7,2.4,0.7,3.8V100h-7.1V88.5c0-0.6-0.1-1.1-0.4-1.6
				c-0.3-0.5-0.8-0.7-1.6-0.7c-0.3,0-0.7,0.1-1.1,0.2c-0.5,0.1-0.9,0.3-1.4,0.4c-0.5,0.2-0.9,0.3-1.3,0.5V100H255.7z"/>
			<path class="st2" d="M280.3,93.7c0.5,0.2,1.1,0.4,1.8,0.6c0.7,0.2,1.3,0.4,2,0.5c0.6,0.1,1.2,0.2,1.6,0.2c0.3,0,0.6,0,0.8-0.1
				s0.4-0.2,0.6-0.3c0.1-0.1,0.2-0.3,0.2-0.4c0-0.1-0.1-0.2-0.2-0.4c-0.2-0.1-0.4-0.3-0.7-0.4s-0.6-0.3-1-0.4
				c-1-0.4-2.1-0.8-3.1-1.3c-1-0.5-1.9-1.2-2.6-2c-0.7-0.8-1-1.8-1-2.9c0-2,0.7-3.5,2.2-4.6c1.5-1.1,3.5-1.7,6.2-1.7
				c0.5,0,1.2,0.1,2,0.2c0.8,0.1,1.7,0.3,2.6,0.6s1.7,0.7,2.5,1.3l-2,4.5c-0.8-0.3-1.5-0.6-2.4-0.8s-1.6-0.3-2.3-0.3
				c-0.6,0-1,0.1-1.4,0.2s-0.5,0.4-0.5,0.6c0,0.2,0.2,0.3,0.6,0.5s0.9,0.4,1.4,0.6c1,0.4,2.1,0.8,3.1,1.3s1.9,1.2,2.5,2
				c0.7,0.8,1,1.8,1,2.9c0,2-0.7,3.5-2,4.6c-1.3,1.1-3.3,1.7-5.9,1.7c-0.5,0-1.3-0.1-2.3-0.2c-1-0.1-2-0.4-3.1-0.7
				c-1.1-0.3-2-0.8-2.7-1.3L280.3,93.7z"/>
			<path class="st2" d="M311.1,87.4h-5.6v4.7c0,0.8,0.2,1.4,0.6,1.9s0.9,0.7,1.6,0.7c0.4,0,0.8-0.1,1.3-0.2s1-0.3,1.4-0.6l2,4.8
				c-0.3,0.3-0.8,0.5-1.3,0.8s-1.2,0.5-1.9,0.6c-0.7,0.2-1.3,0.3-2,0.3c-1.5,0-2.9-0.3-4.3-0.8c-1.4-0.6-2.5-1.4-3.3-2.5
				c-0.8-1.1-1.3-2.5-1.3-4.2v-5.5h-2.9v-5.6h2.9v-5.1l7.1-1v6.1h5L311.1,87.4z"/>
			<path class="st2" d="M314.7,82.2c0.7-0.3,1.5-0.6,2.4-0.9c0.9-0.3,1.9-0.5,2.9-0.7s2.1-0.3,3.1-0.3c1.7,0,3.2,0.3,4.3,1
				c1.2,0.6,2,1.6,2.6,2.7s0.9,2.6,0.9,4.2V100h-3.4l-2-2c-0.6,0.8-1.3,1.3-2,1.8c-0.7,0.4-1.5,0.6-2.3,0.6c-2.4,0-4.2-0.6-5.3-1.8
				c-1.2-1.2-1.8-2.8-1.8-4.7c0-2.1,0.7-3.5,2.1-4.3s3.2-1.2,5.3-1.2h2.3l0-0.2c-0.1-0.7-0.4-1.2-0.9-1.5c-0.4-0.3-1-0.5-1.6-0.5
				c-0.7,0-1.4,0.1-2.3,0.3c-0.9,0.2-1.7,0.5-2.4,0.8L314.7,82.2z M320.2,94.5c0.1,0.2,0.3,0.4,0.5,0.5s0.4,0.2,0.6,0.2
				c0.4,0,0.8-0.1,1.2-0.3c0.4-0.2,0.8-0.4,1.2-0.8v-1.8h-2.2c-0.5,0-0.9,0.1-1.2,0.4s-0.4,0.7-0.4,1.1
				C320,94.1,320.1,94.3,320.2,94.5z"/>
			<path class="st2" d="M350.3,97c-0.5,0.6-1.1,1.1-1.8,1.7c-0.7,0.5-1.6,1-2.5,1.3c-0.9,0.3-1.8,0.5-2.8,0.5c-1.8,0-3.5-0.4-5-1.1
				c-1.5-0.7-2.6-1.8-3.5-3.3c-0.8-1.5-1.3-3.3-1.3-5.6c0-2.3,0.4-4.1,1.3-5.6s2-2.6,3.5-3.4c1.5-0.8,3.2-1.1,5.2-1.1
				c0.8,0,1.6,0.1,2.3,0.4c0.8,0.2,1.5,0.6,2.3,1.1c0.7,0.5,1.5,1.2,2.2,2l-2,4.2c-0.8-0.7-1.5-1.2-2.2-1.6
				c-0.7-0.4-1.4-0.6-2.1-0.6c-0.6,0-1.1,0.2-1.6,0.5c-0.5,0.4-0.9,0.9-1.2,1.6c-0.3,0.7-0.4,1.5-0.4,2.5c0,1,0.1,1.8,0.4,2.4
				c0.3,0.7,0.7,1.2,1.2,1.5c0.5,0.3,1.1,0.5,1.9,0.5c0.6,0,1.3-0.2,1.9-0.7c0.6-0.5,1.4-1.1,2.1-1.9L350.3,97z M353.1,100.6
				c0,1.6-0.4,3-1.3,4.3c-0.9,1.3-2.1,2.2-3.6,3c-1.6,0.7-3.4,1.1-5.5,1.1c-0.4,0-0.9,0-1.7-0.1c-0.7-0.1-1.5-0.2-2.3-0.4
				c-0.8-0.2-1.7-0.4-2.5-0.7s-1.5-0.6-2.2-1l2.1-5c1.3,0.6,2.4,1,3.4,1.2c1,0.2,1.9,0.3,2.6,0.3c1.1,0,2-0.3,2.8-0.8
				c0.7-0.5,1.1-1.1,1.1-1.9v-15l3.5-4.4h3.5V100.6z"/>
			<path class="st2" d="M357.3,100V81.1h3.5l1.7,2.3c0.5-0.4,1.1-0.7,1.9-1.1s1.5-0.6,2.3-0.9c0.8-0.2,1.5-0.4,2.2-0.4l1.4,5.7
				c-0.6,0-1.3,0.1-2,0.3c-0.7,0.2-1.4,0.4-2.1,0.7c-0.7,0.3-1.3,0.7-1.9,1.1V100H357.3z"/>
			<path class="st2" d="M372.6,82.2c0.7-0.3,1.5-0.6,2.4-0.9c0.9-0.3,1.9-0.5,2.9-0.7s2.1-0.3,3.1-0.3c1.7,0,3.2,0.3,4.3,1
				c1.2,0.6,2,1.6,2.6,2.7s0.9,2.6,0.9,4.2V100h-3.4l-2-2c-0.6,0.8-1.3,1.3-2,1.8c-0.7,0.4-1.5,0.6-2.3,0.6c-2.4,0-4.2-0.6-5.3-1.8
				c-1.2-1.2-1.8-2.8-1.8-4.7c0-2.1,0.7-3.5,2.1-4.3s3.2-1.2,5.3-1.2h2.3l0-0.2c-0.1-0.7-0.4-1.2-0.9-1.5c-0.4-0.3-1-0.5-1.6-0.5
				c-0.7,0-1.4,0.1-2.3,0.3c-0.9,0.2-1.7,0.5-2.4,0.8L372.6,82.2z M378.1,94.5c0.1,0.2,0.3,0.4,0.5,0.5s0.4,0.2,0.6,0.2
				c0.4,0,0.8-0.1,1.2-0.3c0.4-0.2,0.8-0.4,1.2-0.8v-1.8h-2.2c-0.5,0-0.9,0.1-1.2,0.4s-0.4,0.7-0.4,1.1
				C377.9,94.1,377.9,94.3,378.1,94.5z"/>
			<path class="st2" d="M392.5,100V81.1h4.2l1.2,2c0.6-0.4,1.3-0.8,2.1-1.2s1.7-0.7,2.6-1c0.9-0.3,1.9-0.4,2.8-0.4c1.7,0,3,0.3,4,1
				c1,0.6,1.7,1.5,2.1,2.6c0.4,1.1,0.6,2.4,0.6,3.8V100h-7.1V88.5c0-0.4,0-0.8-0.1-1.1c-0.1-0.4-0.2-0.6-0.5-0.8
				c-0.3-0.2-0.7-0.3-1.2-0.3c-0.2,0-0.6,0.1-1,0.2c-0.4,0.1-0.9,0.3-1.3,0.4c-0.5,0.2-0.9,0.3-1.3,0.5V100H392.5z M410.5,83
				c0.6-0.4,1.3-0.8,2.1-1.2c0.8-0.4,1.7-0.7,2.6-1c0.9-0.3,1.9-0.4,2.8-0.4c1.7,0,3,0.3,4,1c1,0.6,1.7,1.5,2.1,2.6
				c0.4,1.1,0.6,2.4,0.6,3.8V100h-7.1V88.5c0-0.4,0-0.8-0.1-1.1c-0.1-0.4-0.2-0.6-0.5-0.8c-0.3-0.2-0.7-0.3-1.2-0.3
				c-0.2,0-0.6,0.1-1,0.2c-0.4,0.1-0.9,0.3-1.3,0.4c-0.5,0.2-0.9,0.3-1.3,0.5L410.5,83z"/>
		</g>
	</g>
	<g id="Grupo_250" transform="translate(147.084 4258.134)">
		<ellipse id="Elipse_9" class="st2" cx="61.1" cy="61.1" rx="61.1" ry="61.1"/>
		<g id="Grupo_249" transform="translate(21.466 23.272)">
			<g id="Grupo_246" transform="translate(0)">
				<path id="Trazado_376" class="st0" d="M54.9,75.8H24.5C11,75.7,0,64.8,0,51.3V24.5C0,11,11,0,24.5,0h30.4
					c13.5,0,24.5,11,24.5,24.5v26.8C79.3,64.8,68.4,75.7,54.9,75.8z M24.5,5.4c-10.5,0-19,8.5-19,19v26.8c0,10.5,8.5,19,19,19h30.4
					c10.5,0,19-8.5,19-19V24.5c0-10.5-8.5-19-19-19L24.5,5.4z"/>
			</g>
			<g id="Grupo_247" transform="translate(17.895 16.088)">
				<path id="Trazado_377" class="st0" d="M21.8,43.6C9.8,43.6,0,33.8,0,21.8C0,9.8,9.8,0,21.8,0c12,0,21.8,9.8,21.8,21.8
					C43.6,33.8,33.8,43.6,21.8,43.6z M21.8,5.4c-9,0-16.3,7.3-16.3,16.3c0,9,7.3,16.3,16.3,16.3c9,0,16.3-7.3,16.3-16.3
					C38.1,12.8,30.8,5.5,21.8,5.4L21.8,5.4z"/>
			</g>
			<g id="Grupo_248" transform="translate(56.615 12.237)">
				<path id="Trazado_378" class="st0" d="M9,4.5C9,7,7,9,4.5,9c0,0,0,0,0,0C2,9,0,7,0,4.5c0,0,0,0,0,0C0,2,2,0,4.5,0c0,0,0,0,0,0
					C7,0,9,2,9,4.5C9,4.5,9,4.5,9,4.5z"/>
			</g>
		</g>
	</g>
</g>
</svg>
