<?xml version="1.0" encoding="utf-8"?>
<!-- Generator: Adobe Illustrator 24.3.0, SVG Export Plug-In . SVG Version: 6.00 Build 0)  -->
<svg version="1.1" id="Capa_1" xmlns="http://www.w3.org/2000/svg" xmlns:xlink="http://www.w3.org/1999/xlink" x="0px" y="0px"
	 viewBox="0 0 469 136" style="enable-background:new 0 0 469 136;" xml:space="preserve">
<style type="text/css">
	.st0{fill:#273043;}
	.st1{fill:#FFFFFF;}
	.st2{enable-background:new    ;}
</style>
<g id="Grupo_569" transform="translate(8148 -4919.712)">
	<path id="Rectángulo_104" class="st0" d="M-8099,4919.7h371c27.1,0,49,21.9,49,49v38c0,27.1-21.9,49-49,49h-371
		c-27.1,0-49-21.9-49-49v-38C-8148,4941.6-8126.1,4919.7-8099,4919.7z"/>
	<g id="Grupo_567" transform="translate(-8082.099 4927.27)">
		<path id="Trazado_367" class="st1" d="M51,120.1c-2-0.3-3.9-0.7-5.8-1.2c-6.9-1.8-13.4-4.8-19.2-8.8c-10.1-7-17.8-17-22.2-28.5
			c-1.9-5.1-3.1-10.3-3.6-15.7c-0.6-7.1,0-14.3,1.8-21.2c1.4-5.2,3.5-10.2,6.3-14.9c4.2-7.1,9.8-13.3,16.5-18.2
			c4.7-3.4,9.8-6.1,15.2-8.1c9.5-3.4,19.6-4.4,29.6-2.8c8.2,1.2,16,4.1,23,8.6c28.3,17.7,36.8,55,19,83.3
			c-9.2,14.6-24.2,24.6-41.2,27.4c-0.2,0-0.4,0-0.6,0.1c0-0.3,0-0.5,0-0.8c0-13.6,0-27.2,0-40.7c0-0.8-0.1-0.7,0.7-0.7
			c4.3,0,8.6,0,12.9,0c0.4,0,0.5-0.1,0.6-0.5c0.8-5.5,1.7-11,2.5-16.5c0.1-0.5-0.1-0.5-0.5-0.5c-5.2,0-10.4,0-15.6,0
			c-0.5,0-0.6-0.1-0.6-0.6c0-3.6,0-7.1,0-10.7c0-0.7,0-1.4,0.2-2.1c0.2-1.9,1.1-3.6,2.5-5c1.7-1.5,3.9-2.4,6.1-2.4
			c2.7-0.1,5.4,0,8.1,0c0.4,0,0.6-0.1,0.6-0.5c0-4.6,0-9.2,0-13.8c0-0.4-0.1-0.5-0.5-0.6c-3.7-0.6-7.4-0.9-11.2-1.1
			c-3.9-0.3-7.9,0.3-11.6,1.7c-4.4,1.6-8.1,4.9-10.2,9.1c-1.8,3.4-2.7,7.2-2.8,11.1c-0.1,4.8,0,9.6,0,14.4c0,0.5-0.1,0.6-0.6,0.6
			c-4.7,0-9.5,0-14.2,0c-0.5,0-0.6,0.1-0.6,0.6c0,5.4,0,10.9,0,16.3c0,0.5,0.2,0.6,0.6,0.6c4.7,0,9.4,0,14.1,0
			c0.8,0,0.7-0.1,0.7,0.7c0,13.6,0,27.2,0,40.8C51,119.6,51,119.8,51,120.1z"/>
		<path id="Trazado_368" class="st0" d="M51,120.1c0-0.2,0-0.5,0-0.7c0-13.6,0-27.2,0-40.8c0-0.8,0.1-0.7-0.7-0.7
			c-4.7,0-9.4,0-14.1,0c-0.5,0-0.6-0.1-0.6-0.6c0-5.4,0-10.9,0-16.3c0-0.5,0.1-0.6,0.6-0.6c4.7,0,9.5,0,14.2,0
			c0.5,0,0.6-0.1,0.6-0.6c0-4.8-0.1-9.6,0-14.4c0-3.9,1-7.6,2.8-11.1c2.2-4.2,5.8-7.4,10.2-9.1c3.7-1.4,7.7-1.9,11.6-1.7
			c3.7,0.1,7.5,0.5,11.2,1.1c0.4,0.1,0.5,0.2,0.5,0.6c0,4.6,0,9.2,0,13.8c0,0.5-0.2,0.5-0.6,0.5c-2.7,0-5.4-0.1-8.1,0
			c-2.3,0-4.5,0.8-6.1,2.4c-1.4,1.3-2.2,3.1-2.5,5c-0.1,0.7-0.2,1.4-0.2,2.1c0,3.6,0,7.1,0,10.7c0,0.5,0.1,0.6,0.6,0.6
			c5.2,0,10.4,0,15.6,0c0.4,0,0.6,0,0.5,0.5c-0.9,5.5-1.7,11-2.5,16.5c-0.1,0.4-0.2,0.5-0.6,0.5c-4.3,0-8.6,0-12.9,0
			c-0.7,0-0.7-0.1-0.7,0.7c0,13.6,0,27.2,0,40.7c0,0.3,0,0.5,0,0.8c-0.9,0.2-1.8,0.3-2.7,0.4c-4.9,0.5-9.8,0.5-14.7-0.2
			C52,120.2,51.5,120.2,51,120.1z"/>
	</g>
	<g class="st2">
		<path class="st1" d="M-7892.9,4956.7c0.3,0.2,0.8,0.4,1.3,0.6s1.1,0.3,1.6,0.5c0.6,0.1,1.1,0.2,1.5,0.2c0.5,0,1-0.1,1.4-0.2
			s0.6-0.3,0.8-0.6c0.2-0.2,0.3-0.5,0.3-0.7s-0.1-0.5-0.4-0.7c-0.3-0.2-0.7-0.5-1.1-0.7c-0.4-0.3-0.9-0.5-1.4-0.8
			c-0.6-0.4-1.3-0.8-1.9-1.2c-0.7-0.4-1.3-0.9-1.9-1.4s-1-1.1-1.4-1.7c-0.4-0.6-0.5-1.4-0.5-2.2c0-1,0.3-2,0.9-2.8s1.4-1.5,2.5-1.9
			c1.1-0.5,2.3-0.7,3.8-0.7c1,0,1.9,0.1,3,0.4s1.9,0.7,2.6,1.2l-1.5,3.4c-0.7-0.2-1.2-0.4-1.7-0.5c-0.4-0.1-0.8-0.2-1.2-0.2
			c-0.4,0-0.7-0.1-1.2-0.1c-0.6,0-1,0.1-1.4,0.4s-0.5,0.6-0.5,0.9c0,0.3,0.1,0.5,0.4,0.7c0.3,0.2,0.6,0.4,1.1,0.7
			c0.4,0.2,0.9,0.5,1.4,0.8c0.7,0.4,1.3,0.8,2,1.2c0.7,0.4,1.3,0.9,1.9,1.4c0.6,0.5,1,1.1,1.4,1.7c0.3,0.6,0.5,1.3,0.5,2.1
			c0,1.1-0.3,2-0.9,2.9c-0.6,0.8-1.5,1.5-2.6,2c-1.1,0.5-2.5,0.7-4.1,0.7c-0.5,0-1,0-1.6-0.1c-0.6-0.1-1.1-0.2-1.7-0.3
			c-0.6-0.1-1.1-0.3-1.6-0.5c-0.5-0.2-1-0.4-1.3-0.6L-7892.9,4956.7z"/>
		<path class="st1" d="M-7878.8,4961.7v-13.6h5.1v13.6H-7878.8z M-7878.7,4944.6l1.8-5h5l-3.2,5.6L-7878.7,4944.6z"/>
		<path class="st1" d="M-7859.6,4959.5c-0.3,0.4-0.8,0.8-1.3,1.2c-0.5,0.4-1.1,0.7-1.8,0.9c-0.6,0.2-1.3,0.4-2,0.4
			c-1.3,0-2.5-0.3-3.6-0.8s-1.9-1.3-2.5-2.3c-0.6-1.1-0.9-2.4-0.9-4c0-1.6,0.3-3,0.9-4c0.6-1.1,1.5-1.9,2.5-2.4
			c1.1-0.5,2.3-0.8,3.8-0.8c0.6,0,1.1,0.1,1.7,0.3s1.1,0.4,1.6,0.8c0.5,0.4,1.1,0.8,1.6,1.4l-1.4,3c-0.5-0.5-1.1-0.9-1.6-1.2
			c-0.5-0.3-1-0.4-1.5-0.4c-0.4,0-0.8,0.1-1.1,0.4c-0.3,0.3-0.6,0.6-0.8,1.1c-0.2,0.5-0.3,1.1-0.3,1.8c0,0.7,0.1,1.3,0.3,1.8
			c0.2,0.5,0.5,0.8,0.9,1.1c0.4,0.2,0.8,0.4,1.3,0.4c0.4,0,0.9-0.2,1.4-0.5c0.5-0.3,1-0.8,1.5-1.3L-7859.6,4959.5z M-7857.6,4962.2
			c0,1.2-0.3,2.2-0.9,3.1c-0.6,0.9-1.5,1.6-2.6,2.1c-1.1,0.5-2.4,0.8-3.9,0.8c-0.3,0-0.7,0-1.2-0.1c-0.5-0.1-1.1-0.1-1.7-0.3
			c-0.6-0.1-1.2-0.3-1.8-0.5c-0.6-0.2-1.1-0.4-1.6-0.7l1.5-3.6c0.9,0.4,1.7,0.7,2.4,0.9c0.7,0.1,1.3,0.2,1.9,0.2
			c0.8,0,1.5-0.2,2-0.5c0.5-0.4,0.8-0.8,0.8-1.4v-10.8l2.5-3.2h2.5V4962.2z"/>
		<path class="st1" d="M-7840.4,4948.2v13.6h-2.5l-1.5-1.4c-0.4,0.3-1,0.6-1.5,0.8c-0.6,0.3-1.2,0.5-1.9,0.7
			c-0.7,0.2-1.4,0.3-2.1,0.3c-1.1,0-2.1-0.2-2.8-0.7c-0.7-0.5-1.3-1.1-1.6-1.9c-0.3-0.8-0.5-1.7-0.5-2.7v-8.8h5.1v8.3
			c0,0.4,0.1,0.8,0.3,1.1c0.2,0.3,0.6,0.5,1.1,0.5c0.2,0,0.5,0,0.8-0.1c0.3-0.1,0.7-0.2,1-0.3c0.3-0.1,0.6-0.2,0.9-0.3v-9.1H-7840.4
			z"/>
		<path class="st1" d="M-7832.9,4956.2c0.1,0.4,0.3,0.7,0.6,1c0.3,0.3,0.6,0.5,1,0.6c0.4,0.1,0.9,0.2,1.5,0.2c0.8,0,1.5-0.1,2.2-0.3
			c0.6-0.2,1.1-0.4,1.6-0.6l1.4,3.4c-0.4,0.3-0.8,0.5-1.4,0.7c-0.6,0.2-1.3,0.4-2,0.5c-0.7,0.1-1.5,0.2-2.2,0.2
			c-1.6,0-2.9-0.3-4.2-0.8c-1.2-0.5-2.2-1.3-2.9-2.4c-0.7-1.1-1.1-2.3-1.1-3.9c0-1.5,0.3-2.8,1-3.9c0.6-1.1,1.5-1.9,2.6-2.5
			c1.1-0.6,2.3-0.9,3.7-0.9c1.5,0,2.7,0.3,3.6,1c1,0.6,1.7,1.5,2.2,2.6c0.5,1.1,0.7,2.2,0.7,3.5v1.5H-7832.9z M-7829.5,4953.7
			c0-0.3-0.1-0.5-0.2-0.8s-0.3-0.6-0.6-0.8c-0.3-0.2-0.6-0.3-1-0.3c-0.3,0-0.6,0.1-0.9,0.3c-0.3,0.2-0.5,0.4-0.7,0.7
			c-0.2,0.3-0.2,0.6-0.2,1H-7829.5z"/>
		<path class="st1" d="M-7822.6,4961.7v-13.6h3l0.9,1.4c0.4-0.3,1-0.6,1.5-0.9c0.6-0.3,1.2-0.5,1.9-0.7c0.7-0.2,1.3-0.3,2-0.3
			c1.2,0,2.1,0.2,2.8,0.7c0.7,0.5,1.2,1.1,1.5,1.9s0.4,1.7,0.4,2.7v8.8h-5.1v-8.3c0-0.3,0-0.5-0.1-0.8c0-0.3-0.2-0.5-0.4-0.6
			c-0.2-0.1-0.5-0.2-0.9-0.2c-0.2,0-0.4,0-0.7,0.1c-0.3,0.1-0.6,0.2-1,0.3c-0.3,0.1-0.6,0.2-0.9,0.4v9.1H-7822.6z M-7809.7,4949.5
			c0.4-0.3,1-0.6,1.5-0.9c0.6-0.3,1.2-0.5,1.9-0.7c0.7-0.2,1.3-0.3,2-0.3c1.2,0,2.1,0.2,2.8,0.7c0.7,0.5,1.2,1.1,1.5,1.9
			s0.4,1.7,0.4,2.7v8.8h-5.1v-8.3c0-0.3,0-0.5-0.1-0.8s-0.2-0.5-0.3-0.6c-0.2-0.1-0.5-0.2-0.9-0.2c-0.2,0-0.4,0-0.7,0.1
			c-0.3,0.1-0.6,0.2-1,0.3c-0.3,0.1-0.6,0.2-0.9,0.4L-7809.7,4949.5z"/>
		<path class="st1" d="M-7792.1,4956.2c0.1,0.4,0.3,0.7,0.6,1s0.6,0.5,1,0.6s0.9,0.2,1.5,0.2c0.8,0,1.5-0.1,2.2-0.3
			c0.6-0.2,1.1-0.4,1.6-0.6l1.4,3.4c-0.4,0.3-0.8,0.5-1.4,0.7c-0.6,0.2-1.3,0.4-2,0.5c-0.7,0.1-1.5,0.2-2.2,0.2
			c-1.5,0-2.9-0.3-4.2-0.8s-2.2-1.3-2.9-2.4c-0.7-1.1-1-2.3-1-3.9c0-1.5,0.3-2.8,1-3.9c0.6-1.1,1.5-1.9,2.6-2.5
			c1.1-0.6,2.3-0.9,3.7-0.9c1.5,0,2.7,0.3,3.6,1c1,0.6,1.7,1.5,2.2,2.6s0.7,2.2,0.7,3.5v1.5H-7792.1z M-7788.8,4953.7
			c0-0.3-0.1-0.5-0.2-0.8c-0.1-0.3-0.3-0.6-0.6-0.8c-0.3-0.2-0.6-0.3-1-0.3c-0.3,0-0.6,0.1-0.9,0.3c-0.3,0.2-0.5,0.4-0.7,0.7
			c-0.2,0.3-0.2,0.6-0.2,1H-7788.8z"/>
		<path class="st1" d="M-7771.1,4956.2c0.1,0.4,0.3,0.7,0.6,1c0.3,0.3,0.6,0.5,1,0.6c0.4,0.1,0.9,0.2,1.5,0.2c0.8,0,1.5-0.1,2.2-0.3
			c0.6-0.2,1.1-0.4,1.6-0.6l1.4,3.4c-0.4,0.3-0.8,0.5-1.4,0.7s-1.3,0.4-2,0.5c-0.7,0.1-1.5,0.2-2.2,0.2c-1.5,0-2.9-0.3-4.2-0.8
			c-1.2-0.5-2.2-1.3-2.9-2.4c-0.7-1.1-1-2.3-1-3.9c0-1.5,0.3-2.8,1-3.9c0.6-1.1,1.5-1.9,2.6-2.5c1.1-0.6,2.3-0.9,3.7-0.9
			c1.5,0,2.7,0.3,3.6,1c1,0.6,1.7,1.5,2.2,2.6s0.7,2.2,0.7,3.5v1.5H-7771.1z M-7767.7,4953.7c0-0.3-0.1-0.5-0.2-0.8
			s-0.3-0.6-0.6-0.8c-0.3-0.2-0.6-0.3-1-0.3c-0.3,0-0.6,0.1-0.9,0.3c-0.3,0.2-0.5,0.4-0.7,0.7c-0.2,0.3-0.2,0.6-0.2,1H-7767.7z"/>
		<path class="st1" d="M-7760.8,4961.7v-13.6h3l0.9,1.4c0.4-0.3,1-0.6,1.6-0.9c0.6-0.3,1.2-0.5,1.9-0.7c0.7-0.2,1.4-0.3,2.1-0.3
			c1.2,0,2.1,0.2,2.8,0.7c0.7,0.5,1.3,1.1,1.6,1.9c0.3,0.8,0.5,1.7,0.5,2.7v8.8h-5.1v-8.3c0-0.4-0.1-0.8-0.3-1.1
			c-0.2-0.3-0.6-0.5-1.1-0.5c-0.2,0-0.5,0-0.8,0.1s-0.7,0.2-1,0.3c-0.3,0.1-0.7,0.2-0.9,0.4v9.1H-7760.8z"/>
	</g>
	<g class="st2">
		<path class="st1" d="M-7884,5009.7h-8.8v10h-7.1v-26.5h17.2l0.7,5.6h-10.8v5.3h8.2L-7884,5009.7z"/>
		<path class="st1" d="M-7879.4,5001.9c0.7-0.3,1.5-0.6,2.4-0.9c0.9-0.3,1.9-0.5,2.9-0.7c1-0.2,2.1-0.3,3.1-0.3c1.7,0,3.2,0.3,4.3,1
			c1.2,0.6,2,1.6,2.6,2.7s0.9,2.6,0.9,4.2v11.7h-3.4l-2-2c-0.6,0.8-1.3,1.3-2,1.8c-0.7,0.4-1.5,0.6-2.3,0.6c-2.4,0-4.2-0.6-5.3-1.8
			c-1.2-1.2-1.8-2.8-1.8-4.7c0-2.1,0.7-3.5,2.1-4.3c1.4-0.8,3.2-1.2,5.3-1.2h2.3l0-0.2c-0.1-0.7-0.4-1.2-0.9-1.5
			c-0.4-0.3-1-0.5-1.6-0.5c-0.6,0-1.4,0.1-2.3,0.3c-0.9,0.2-1.7,0.5-2.4,0.8L-7879.4,5001.9z M-7873.9,5014.2
			c0.1,0.2,0.3,0.4,0.5,0.5c0.2,0.1,0.4,0.2,0.6,0.2c0.4,0,0.8-0.1,1.2-0.3c0.4-0.2,0.8-0.4,1.2-0.8v-1.8h-2.2
			c-0.5,0-0.9,0.1-1.2,0.4c-0.3,0.3-0.4,0.7-0.4,1.1C-7874.1,5013.8-7874,5014-7873.9,5014.2z"/>
		<path class="st1" d="M-7843.8,5018.2c-0.7,0.6-1.5,1-2.3,1.3c-0.8,0.3-1.6,0.4-2.3,0.5c-0.7,0.1-1.4,0.1-1.9,0.1
			c-2,0-3.8-0.4-5.4-1.2c-1.6-0.8-2.8-1.9-3.6-3.4s-1.3-3.3-1.3-5.4c0-2.1,0.4-4,1.3-5.5c0.9-1.5,2.1-2.7,3.6-3.5
			c1.6-0.8,3.4-1.2,5.4-1.2c0.5,0,1.1,0,1.9,0.1c0.7,0.1,1.5,0.3,2.3,0.5c0.8,0.3,1.6,0.7,2.3,1.3l-2,4.9c-0.8-0.4-1.4-0.7-2-0.8
			c-0.5-0.1-1.2-0.2-1.8-0.2c-0.6,0-1.2,0.2-1.8,0.5c-0.6,0.4-1,0.9-1.4,1.5c-0.4,0.7-0.5,1.4-0.5,2.3c0,0.9,0.2,1.6,0.5,2.2
			c0.4,0.6,0.8,1.1,1.4,1.4c0.6,0.3,1.2,0.5,1.8,0.5s1.2-0.1,1.8-0.2c0.6-0.1,1.2-0.4,2-0.8L-7843.8,5018.2z"/>
		<path class="st1" d="M-7835.1,5012c0.2,0.5,0.5,1,0.8,1.4c0.4,0.4,0.8,0.7,1.4,0.9c0.6,0.2,1.3,0.3,2.1,0.3c1.1,0,2.2-0.1,3-0.4
			c0.9-0.3,1.6-0.6,2.2-0.9l2,4.8c-0.5,0.4-1.2,0.7-2,1c-0.8,0.3-1.8,0.6-2.8,0.7c-1,0.2-2.1,0.3-3.1,0.3c-2.2,0-4.1-0.4-5.8-1.1
			c-1.7-0.8-3.1-1.9-4-3.3s-1.5-3.3-1.5-5.4c0-2.1,0.4-4,1.3-5.5c0.9-1.5,2.1-2.7,3.7-3.5c1.5-0.8,3.3-1.2,5.2-1.2
			c2,0,3.7,0.4,5,1.3c1.3,0.9,2.3,2.1,3,3.6c0.7,1.5,1,3.1,1,4.9v2.1H-7835.1z M-7830.4,5008.5c0-0.4-0.1-0.8-0.3-1.2
			c-0.2-0.4-0.4-0.8-0.8-1.1c-0.4-0.3-0.8-0.4-1.4-0.4c-0.4,0-0.8,0.1-1.2,0.4c-0.4,0.2-0.7,0.6-0.9,1c-0.2,0.4-0.3,0.9-0.3,1.3
			H-7830.4z"/>
		<path class="st1" d="M-7820.5,5019.7v-27.1l7.1-0.4v24l-3.5,3.5H-7820.5z M-7817.6,5003.6c0.5-0.6,1.1-1.1,1.8-1.7
			c0.7-0.5,1.6-1,2.5-1.3c0.9-0.3,1.8-0.5,2.8-0.5c1.9,0,3.5,0.4,5,1.1c1.5,0.7,2.6,1.8,3.5,3.2s1.3,3.3,1.3,5.6
			c0,2.2-0.4,4.1-1.3,5.6s-2,2.6-3.5,3.4s-3.2,1.1-5.2,1.1c-0.8,0-1.6-0.1-2.3-0.4c-0.8-0.2-1.5-0.6-2.3-1.1s-1.5-1.2-2.2-2l2-4.2
			c0.8,0.7,1.5,1.2,2.2,1.6c0.7,0.4,1.4,0.6,2.1,0.6c0.6,0,1.1-0.2,1.6-0.5c0.5-0.4,0.8-0.9,1.1-1.6s0.4-1.5,0.4-2.5
			s-0.1-1.8-0.4-2.4c-0.3-0.7-0.7-1.2-1.2-1.5c-0.5-0.3-1.1-0.5-1.9-0.5c-0.6,0-1.3,0.2-1.9,0.7c-0.7,0.5-1.4,1.1-2.1,1.9
			L-7817.6,5003.6z"/>
		<path class="st1" d="M-7788.7,5020.1c-2,0-3.8-0.4-5.4-1.1c-1.6-0.7-2.9-1.8-3.8-3.3c-0.9-1.5-1.4-3.3-1.4-5.6
			c0-2.1,0.5-3.9,1.4-5.4c1-1.5,2.3-2.6,3.9-3.4c1.6-0.8,3.4-1.2,5.4-1.2c2.1,0,3.9,0.4,5.5,1.2c1.6,0.8,2.9,1.9,3.8,3.4
			s1.4,3.4,1.4,5.7c0,2.1-0.5,3.9-1.5,5.3c-1,1.5-2.3,2.6-3.9,3.3C-7784.8,5019.8-7786.7,5020.1-7788.7,5020.1z M-7788.6,5014.4
			c0.8,0,1.4-0.1,1.9-0.4c0.5-0.3,0.9-0.7,1.2-1.3c0.3-0.6,0.4-1.3,0.4-2.2c0-0.9-0.1-1.6-0.4-2.3s-0.6-1.2-1.1-1.6
			c-0.5-0.4-1.1-0.6-1.8-0.6s-1.4,0.2-1.9,0.5s-0.9,0.8-1.2,1.5c-0.3,0.6-0.4,1.4-0.4,2.3c0,0.8,0.1,1.6,0.4,2.2
			c0.3,0.6,0.6,1.1,1.1,1.5C-7789.9,5014.2-7789.3,5014.4-7788.6,5014.4z"/>
		<path class="st1" d="M-7765.7,5020.1c-2,0-3.8-0.4-5.4-1.1s-2.9-1.8-3.8-3.3c-0.9-1.5-1.4-3.3-1.4-5.6c0-2.1,0.5-3.9,1.4-5.4
			c1-1.5,2.3-2.6,3.9-3.4c1.6-0.8,3.4-1.2,5.4-1.2c2.1,0,3.9,0.4,5.5,1.2c1.6,0.8,2.9,1.9,3.8,3.4c0.9,1.5,1.4,3.4,1.4,5.7
			c0,2.1-0.5,3.9-1.5,5.3c-1,1.5-2.3,2.6-3.9,3.3S-7763.7,5020.1-7765.7,5020.1z M-7765.6,5014.4c0.8,0,1.4-0.1,1.9-0.4
			s0.9-0.7,1.2-1.3s0.4-1.3,0.4-2.2c0-0.9-0.1-1.6-0.4-2.3c-0.3-0.7-0.6-1.2-1.1-1.6c-0.5-0.4-1.1-0.6-1.8-0.6
			c-0.7,0-1.4,0.2-1.9,0.5c-0.5,0.3-0.9,0.8-1.2,1.5c-0.3,0.6-0.4,1.4-0.4,2.3c0,0.8,0.1,1.6,0.4,2.2c0.3,0.6,0.6,1.1,1.1,1.5
			C-7766.9,5014.2-7766.3,5014.4-7765.6,5014.4z"/>
		<path class="st1" d="M-7751.7,5019.7v-27.1l7.1-0.4v14l7.1-6l4.3,4.9l-5,3.8l6.4,10.8h-7.6l-3.7-7.1l-1.3,1v6.1H-7751.7z"/>
	</g>
</g>
</svg>
