<?xml version="1.0" encoding="utf-8"?>
<!-- Generator: Adobe Illustrator 24.3.0, SVG Export Plug-In . SVG Version: 6.00 Build 0)  -->
<svg version="1.1" id="Capa_1" xmlns="http://www.w3.org/2000/svg" xmlns:xlink="http://www.w3.org/1999/xlink" x="0px" y="0px"
	 viewBox="0 0 590.1 699.1" style="enable-background:new 0 0 590.1 699.1;" xml:space="preserve">
<style type="text/css">
	.st0{fill:#C7C7C7;}
	.st1{fill:#CA9F7F;}
	.st2{fill:#363B45;}
	.st3{fill:#E0EAE7;}
	.st4{fill:#252D3E;}
	.st5{fill:#171C29;}
	.st6{fill:#282C37;}
	.st7{fill:#FFFFFF;}
	.st8{fill:#CCCCCC;}
	.st9{fill:#331814;}
	.st10{fill:url(#Trazado_17_1_);}
	.st11{fill:#B18720;enable-background:new    ;}
	.st12{fill:url(#Trazado_19_1_);}
	.st13{fill:#C20B2E;}
	.st14{fill:#1B202A;}
	.st15{fill:#B3835F;}
	.st16{fill:#BB845E;}
	.st17{fill:#170000;}
	.st18{fill:#271918;}
	.st19{fill:#262B39;}
	.st20{fill:#9B380A;}
	.st21{fill:none;stroke:#707070;stroke-width:0.2136;}
	.st22{fill:#782708;}
</style>
<ellipse id="Elipse_50" class="st0" cx="260.8" cy="646.2" rx="258.2" ry="49.8"/>
<g id="Grupo_3" transform="matrix(0.839, -0.545, 0.545, 0.839, 54.165, 398.406)">
	<path id="Trazado_4" class="st1" d="M69.7,96.7c-16.6,7.6-63,13.6-69.7-26.8c-7.9-47,25.8-63.2,34.4-61.4s17.5,9.6,23.4,6.7
		S83,4.8,84.6,26.5c0,0,0.7,19.5-0.4,25.9C77.3,89.3,80,92,69.7,96.7z"/>
	<g id="brazo_der_1_" transform="translate(62.58 28.223)">
		<path id="Trazado_5" class="st2" d="M17.2,74.2c-1.6-0.5-3.1-1.1-4.6-1.7c-0.4-0.2-0.8-0.3-1.1-0.5C-9.3,61.2,4.2,1.2,24.7,10.3
			c1.7,0.8,3.4,1.5,4.9,2.2c1.8,0.8,3.4,1.5,5,2.2c3.3,1.5,6.3,2.8,9.2,4c1.8,0.7,3.5,1.3,5.3,1.9c2,0.7,4.1,1.3,6.4,1.8
			c10.1,2.4,24.7,4.1,32.8,6.7c12.1,3.9,19,23.2,14.6,35C96.8,80,65.6,85.1,44,80.6c-3.9-0.8-7.5-1.5-10.9-2.3
			c-1.9-0.4-3.7-0.8-5.4-1.2C24,76.2,20.5,75.3,17.2,74.2z"/>
	</g>
	<g id="Grupo_1" transform="translate(86.353 37.241)">
		<path id="Trazado_6" class="st3" d="M4,68.1c-0.2-2.7-1.2-5.6-1.7-8.3c-0.7-3.1-0.3-6.4,1.1-9.4c1.5-2.5,3.3-4.7,5.4-6.8
			c1.9-2.1,3.3-4,3.6-6.9c0.3-3.1-0.5-6.1-0.7-9.2c-0.3-3.3,0.4-6.6,2-9.5c1.6-2.5,3.4-4.9,5.4-7.1c0.3-0.4,0.6-0.8,0.9-1.2
			c1.8,0.7,3.5,1.3,5.3,1.9c-0.5,0.9-1.1,1.7-1.8,2.5c-1.8,2.3-4.1,4.6-5.3,7.1C16.8,24,17,27,17.4,30.1c0.4,3.6,0.8,7.2-0.3,10.6
			c-0.9,3-3.1,5.3-5.2,7.5c-1,1-2,2.2-2.9,3.3c-0.7,1-1.2,2.1-1.5,3.3c-0.5,3,0.6,6.1,1.2,9.1c0.4,1.8,0.6,3.6,0.6,5.4
			C7.5,68.9,5.7,68.5,4,68.1z"/>
	</g>
	<g id="Grupo_2" transform="translate(71.012 31.252)">
		<path id="Trazado_7" class="st3" d="M8.8,71.1c-1.6-0.5-3.1-1.1-4.6-1.7c-0.4-0.2-0.8-0.3-1.1-0.5c-0.4-2.1-1-4.1-1.4-6.2
			c-0.7-3.1-0.3-6.4,1.1-9.4c1.5-2.5,3.3-4.7,5.3-6.8c1.9-2.1,3.4-4,3.6-6.9c0.3-3.1-0.5-6.1-0.7-9.2c-0.3-3.3,0.4-6.6,2-9.5
			c1.6-2.5,3.4-4.9,5.4-7.2c1.1-1.3,2-2.8,2.7-4.4c1.8,0.8,3.4,1.5,5,2.2c-0.8,1.9-1.9,3.8-3.2,5.4c-1.8,2.3-4.1,4.6-5.3,7.1
			c-1.4,2.8-1.2,5.8-0.8,8.9c0.4,3.6,0.8,7.1-0.3,10.6c-0.9,3-3.1,5.3-5.2,7.5c-1,1-2,2.2-2.9,3.3c-0.7,1-1.2,2.1-1.5,3.3
			c-0.5,3,0.6,6.1,1.2,9.1C8.5,68.3,8.7,69.7,8.8,71.1z"/>
	</g>
</g>
<g id="pie_izq_1_" transform="translate(163.073 579.384)">
	<path id="Trazado_8" class="st4" d="M111.8,14.4c0,0,18.3,20,14.1,42.7c-1.1,6.1-19.9,10.9-46.2,13.4c-26.4,2.5-58.8,2.5-70-3.8
		C-2.6,59.8,40,14.2,111.8,14.4z"/>
	<path id="Trazado_9" class="st5" d="M111.8,14.4c0,0,18.3,20,14.1,42.7c-1.1,6.1-40.4,14.9-71.3,14.9c5.9-9.1,30.9-19.7-17.1-39.2
		C55.5,22.6,80.9,14.3,111.8,14.4z"/>
</g>
<g id="pierna_izq_1_" transform="translate(196.628 505.203)">
	<path id="Trazado_10" class="st2" d="M45.4,12C33,10.1,21.4,15.3,15.2,25.3C9,35.3,8.8,53.8,9.4,65.1c0.6,10,0.8,19.5-0.5,29.5
		c-0.9,6.5,2.4,11.4,8.6,15.2c11.1,6.8,27,7.9,40.2,7.6c8.4-0.2,19-1.1,25.9-5.9c5.5-3.8,4.6-7.4,3.4-13.2
		c-1.8-8.8-3.7-17.7-5.5-26.5c-1.5-7.3-4.1-39.5-6.3-44.1C70.4,17.7,45.8,12.1,45.4,12z"/>
	<path id="Trazado_11" class="st6" d="M29,20.3c30.6,1.8,88,103.5-11.5,89.4c11.1,6.8,27,7.9,40.2,7.6c8.4-0.2,19-1.1,25.9-5.9
		c5.5-3.8,4.6-7.4,3.4-13.2c-1.8-8.8-3.7-17.7-5.5-26.5c-1.5-7.3-4.1-32.9-6.3-37.6c-4.7-9.8-17.7-13.3-28.5-15.4
		C46.2,18.7,34,18.3,29,20.3z"/>
</g>
<g id="torso_1_" transform="translate(184.825 329.96)">
	<g id="Grupo_4" transform="translate(7.756 0)">
		<path id="Trazado_12" class="st2" d="M13.1,119.1c0,31.5-12.9,60,5.1,80.6s41.8,26.6,69.3,26.6c34.4,0,81.8-5.6,99.7-35.9
			c10.7-18.2-3.4-81.1-3.4-104.7c0-63-40.2-80.6-95.2-80.6S13.1,56.2,13.1,119.1z"/>
		<path id="Trazado_13" class="st6" d="M138.5,143.9c0,31.5-11.9,98.9-120.3,55.9c18,20.6,41.8,26.6,69.3,26.6
			c34.4,0,81.8-5.6,99.7-35.9c10.7-18.2-3.4-81.1-3.4-104.7c0-63-40.2-80.6-95.2-80.6C154.2,55.4,138.5,80.9,138.5,143.9z"/>
	</g>
	<g id="Grupo_5" transform="translate(20.216 19.81)">
		<path id="Trazado_14" class="st7" d="M90.7,25.5c0,0-21.6,65.2-29.3,129.6c0,0-30.5,7.7-52.3-3.1c0,0,10.8-115.9,29.3-146.1
			L90.7,25.5z"/>
		<path id="Trazado_15" class="st8" d="M90.7,25.5c0,0-6.6,24.6-16.2,58.6C48.3,57,30.9,55.5,19.5,73.6c4.1-26.8,11-54.9,18.9-67.7
			L90.7,25.5z"/>
	</g>
	<path id="Trazado_16" class="st9" d="M198.8,159.4c0,0-150.3,28.5-181.7-3.3c0,0-7.5,10.7-0.7,26.2c0,0,37.1,33.8,182-1.4
		C198.4,181,204.3,169.1,198.8,159.4z"/>
	<g id="evilla" transform="translate(20.216 151.715)">
		
			<radialGradient id="Trazado_17_1_" cx="-1305.6864" cy="701.6285" r="0.9344" gradientTransform="matrix(-34.3511 0 0 -30.4446 -50697.1211 21385.332)" gradientUnits="userSpaceOnUse">
			<stop  offset="0" style="stop-color:#EECC36"/>
			<stop  offset="1" style="stop-color:#DCAA33"/>
		</radialGradient>
		<path id="Trazado_17" class="st10" d="M9.1,23.2C9,36.3,12.5,41,26.2,44.8c13.8,3.8,32.4,1.7,32-15.1C57.9,13.9,46,10.8,32.4,10.7
			C16.8,10.7,9.2,12.8,9.1,23.2z"/>
		<path id="Trazado_18" class="st11" d="M9.1,23.2C9,36.3,12.5,41,26.2,44.8c13.8,3.8,32.4,1.7,32-15.1
			c-5.6,6.1-16.1,10.5-29.7,10.3C18.1,39.7,12.5,31.1,9.1,23.2z"/>
	</g>
	<g id="paliacate" transform="translate(0 31.074)">
		
			<linearGradient id="Trazado_19_1_" gradientUnits="userSpaceOnUse" x1="-1270.6423" y1="820.1991" x2="-1270.7212" y2="820.8421" gradientTransform="matrix(114.584 0 0 -60.4395 145612.4688 49412.8125)">
			<stop  offset="0" style="stop-color:#EB2A70"/>
			<stop  offset="1" style="stop-color:#C62251"/>
		</linearGradient>
		<path id="Trazado_19" class="st12" d="M30.3,15.8C40-1.7,61.8,9.6,67.2,12.8c7.9-2.7,36.3-10.8,42.9,11.9
			c7.7,26.4,17.1,43.4,17.1,43.4S92.5,74.3,76,52.5c-7.2-9.5-10.2-18.2-11.3-25c-3.1,5.9-7.4,11.2-12.5,15.5
			C34.9,57.9,8.4,47.9,8.4,47.9S19.1,35.7,30.3,15.8z"/>
		<path id="Trazado_20" class="st13" d="M97.8,26.8c1.5,4.2,1.5,8.7,2.3,13s2.6,8.8,6.6,11.4c-14-2.7-26.7-10.8-34.1-21.7
			c-1.7-2.5-3.1-5.5-2.1-8.2c1.1-2.9,4.7-4.5,8.2-4.6C87.3,16.5,95.1,19.2,97.8,26.8z"/>
		<path id="Trazado_21" class="st13" d="M46.6,33.3c-6.1,5.3-15,8.6-23.3,7c4-0.6,6.6-4.3,7.6-7.8c1-3.5,0.9-7.3,2.2-10.7
			c1.9-4.6,5.7-8.1,10.4-9.6c5-1.7,15.1-2.2,14.8,4.1C58.2,21.7,50.8,29.7,46.6,33.3z"/>
	</g>
</g>
<g id="pie_der_1_" transform="translate(243.445 579.384)">
	<path id="Trazado_22" class="st4" d="M114.7,14.4c0,0,18.3,20,14.1,42.7c-1.1,6.1-19.9,10.9-46.2,13.4c-26.4,2.5-58.8,2.5-70-3.8
		C0.4,59.8,42.9,14.2,114.7,14.4z"/>
	<path id="Trazado_23" class="st5" d="M114.7,14.4c0,0,18.3,20,14.1,42.7c-1.1,6.1-19.9,10.9-46.3,13.4
		c24.5-9.6,11.1-16.5-42.1-37.7C58.5,22.6,83.9,14.3,114.7,14.4z"/>
</g>
<g id="pierna_der_1_" transform="translate(277.001 511.53)">
	<path id="Trazado_24" class="st2" d="M48.4,12.2C36,10.3,24.4,15.5,18.2,25.6c-6.1,9.9-6.3,21.8-5.7,33.2c0.6,10,0.8,19.5-0.5,29.5
		c-0.9,6.5,2.4,11.4,8.6,15.2c11.1,6.8,27,7.9,40.2,7.6c8.4-0.2,19-1.1,25.9-5.9c5.5-3.8,4.6-7.4,3.4-13.2
		c-1.8-8.8-3.7-17.7-5.5-26.5c-1.5-7.3-4.1-32.9-6.3-37.6C73.4,18,60.4,14.5,49.6,12.4C49.2,12.4,48.8,12.3,48.4,12.2z"/>
	<path id="Trazado_25" class="st6" d="M32,14c30.6,1.8,88,103.5-11.5,89.4c11.1,6.8,27,7.9,40.2,7.6c8.4-0.2,19-1.1,25.9-5.9
		c5.5-3.8,4.6-7.4,3.4-13.2c-1.8-8.8-3.7-17.7-5.5-26.5c-1.5-7.3-4.1-32.9-6.3-37.6C73.4,18,60.4,14.5,49.6,12.4
		C49.2,12.4,37,12,32,14z"/>
	<g id="Grupo_7" transform="translate(26.881 24.11)">
		<ellipse id="Elipse_2" class="st3" cx="18.2" cy="17.6" rx="5.4" ry="4.9"/>
		<ellipse id="Elipse_3" class="st3" cx="45" cy="17.6" rx="5.4" ry="4.9"/>
		<g id="Grupo_6" transform="translate(4.376 3.981)">
			<path id="Trazado_26" class="st3" d="M13.2,14.1c4.1,3,10.3,4.1,14,0h-1.1c1.3,1,2.9,1.8,4.5,2.2c3.1,0.9,6.4,0.2,8.9-1.7
				c0.8-0.6-0.3-1.6-1.1-1c-3.4,2.3-8,2.1-11.2-0.5c-0.3-0.3-0.8-0.3-1.1,0c-2,2.2-5,2.9-7.7,1.9c-1-0.3-1.9-0.7-2.9-1.2
				c-0.3-0.2-0.6-0.3-0.9-0.5c-0.1-0.1-0.4-0.2-0.2-0.1C13.6,12.5,12.4,13.5,13.2,14.1L13.2,14.1z"/>
		</g>
	</g>
	<g id="Grupo_9" transform="translate(24.214 5.515)">
		<ellipse id="Elipse_4" class="st3" cx="18.1" cy="16.9" rx="5.4" ry="4.9"/>
		<ellipse id="Elipse_5" class="st3" cx="44.9" cy="16.9" rx="5.4" ry="4.9"/>
		<g id="Grupo_8" transform="translate(4.376 3.981)">
			<path id="Trazado_27" class="st3" d="M13.1,13.4c4.1,3,10.3,4.1,14,0H26c1.3,1,2.9,1.8,4.5,2.2c3.1,0.9,6.4,0.2,8.9-1.7
				c0.8-0.6-0.3-1.6-1.1-1c-3.4,2.3-8,2.1-11.2-0.5c-0.3-0.3-0.8-0.3-1.1,0c-2,2.2-5,2.9-7.7,1.9c-1-0.3-1.9-0.7-2.9-1.2
				c-0.3-0.2-0.6-0.3-0.9-0.5c-0.1-0.1-0.4-0.2-0.2-0.1C13.5,11.8,12.3,12.9,13.1,13.4L13.1,13.4z"/>
		</g>
	</g>
	<g id="Grupo_11" transform="translate(29.031 39.991)">
		<ellipse id="Elipse_6" class="st3" cx="18.2" cy="18.2" rx="5.4" ry="4.9"/>
		<ellipse id="Elipse_7_2_" class="st3" cx="45.1" cy="18.2" rx="5.4" ry="4.9"/>
		<g id="Grupo_10" transform="translate(4.376 3.981)">
			<path id="Trazado_28" class="st3" d="M13.3,14.7c4.1,3,10.3,4.1,14,0h-1.1c1.3,1,2.9,1.8,4.5,2.2c3.1,0.9,6.4,0.2,8.9-1.7
				c0.8-0.6-0.3-1.6-1.1-1c-3.4,2.3-8,2.1-11.2-0.5c-0.3-0.3-0.8-0.3-1.1,0c-2,2.2-5,2.9-7.7,1.9c-1-0.3-1.9-0.7-2.9-1.2
				c-0.3-0.2-0.6-0.3-0.9-0.5c-0.1-0.1-0.4-0.2-0.2-0.1C13.6,13.1,12.5,14.1,13.3,14.7L13.3,14.7z"/>
		</g>
	</g>
	<g id="Grupo_13" transform="translate(31.75 55.097)">
		<ellipse id="Elipse_8" class="st3" cx="18.3" cy="18.7" rx="5.4" ry="4.9"/>
		<ellipse id="Elipse_9" class="st3" cx="45.2" cy="18.7" rx="5.4" ry="4.9"/>
		<g id="Grupo_12" transform="translate(4.376 3.981)">
			<path id="Trazado_29" class="st3" d="M13.4,15.3c4.1,3,10.3,4.1,14,0h-1.1c1.3,1,2.9,1.8,4.5,2.2c3.1,0.9,6.4,0.2,8.9-1.7
				c0.8-0.6-0.3-1.6-1.1-1c-3.4,2.3-8,2.1-11.2-0.5c-0.3-0.3-0.8-0.3-1.1,0c-2,2.2-5,2.9-7.7,1.9c-1-0.3-1.9-0.7-2.9-1.2
				c-0.3-0.2-0.6-0.3-0.9-0.5c-0.1-0.1-0.4-0.2-0.2-0.1C13.7,13.7,12.6,14.7,13.4,15.3L13.4,15.3z"/>
		</g>
	</g>
	<g id="Grupo_15" transform="translate(30.953 67.685)">
		<ellipse id="Elipse_10" class="st3" cx="18.3" cy="19.2" rx="5.4" ry="4.9"/>
		<ellipse id="Elipse_11" class="st3" cx="45.1" cy="19.2" rx="5.4" ry="4.9"/>
		<g id="Grupo_14" transform="translate(4.376 3.981)">
			<path id="Trazado_30" class="st3" d="M13.4,15.8c4.1,3,10.3,4.1,14,0h-1.1c1.3,1,2.9,1.8,4.5,2.2c3.1,0.9,6.4,0.2,8.9-1.7
				c0.8-0.6-0.3-1.6-1.1-1c-3.4,2.3-8,2.1-11.2-0.5c-0.3-0.3-0.8-0.3-1.1,0c-2,2.2-5,2.9-7.7,1.9c-1-0.3-1.9-0.7-2.9-1.2
				c-0.3-0.2-0.6-0.3-0.9-0.5c-0.1-0.1-0.4-0.2-0.2-0.1C13.7,14.1,12.5,15.2,13.4,15.8L13.4,15.8z"/>
		</g>
	</g>
	<g id="Grupo_17" transform="translate(32.877 80.84)">
		<ellipse id="Elipse_12" class="st3" cx="18.4" cy="19.7" rx="5.4" ry="4.9"/>
		<ellipse id="Elipse_13" class="st3" cx="45.2" cy="19.7" rx="5.4" ry="4.9"/>
		<g id="Grupo_16" transform="translate(4.376 3.981)">
			<path id="Trazado_31" class="st3" d="M13.4,16.2c4.1,3,10.3,4.1,14,0h-1.1c1.3,1,2.9,1.8,4.5,2.2c3.1,0.9,6.4,0.2,8.9-1.7
				c0.8-0.6-0.3-1.6-1.1-1c-3.4,2.3-8,2.1-11.2-0.5c-0.3-0.3-0.8-0.3-1.1,0c-2,2.2-5,2.9-7.7,1.9c-1-0.3-1.9-0.7-2.9-1.2
				c-0.3-0.2-0.6-0.3-0.9-0.5c-0.1-0.1-0.4-0.2-0.2-0.1C13.8,14.6,12.6,15.7,13.4,16.2L13.4,16.2z"/>
		</g>
	</g>
</g>
<g id="Grupo_562" transform="matrix(0.998, 0.07, -0.07, 0.998, -1038.446, -3564.376)">
	<path id="sombrero_atras" class="st14" d="M1880.6,3690.3c0,0-39,30.2-284.2-27.1s-287.4-91.7-287.4-91.7s-62.9-116.6,287.9-28.6
		C1645,3554.9,1902,3611,1880.6,3690.3z"/>
	<g id="Grupo_26" transform="translate(1409.736 3514.131)">
		<g id="Grupo_21" transform="translate(14.276 118.797)">
			
				<ellipse id="Elipse_14" transform="matrix(-7.501120e-02 0.9972 -0.9972 -7.501120e-02 93.6526 9.8245)" class="st15" cx="42.3" cy="48.3" rx="47.6" ry="32.6"/>
			<path id="Trazado_36" class="st16" d="M54.6,42.8c-3.4,3-9.4,2.8-11.4,6.8c-2,4,1.5,8.3,3.6,12.2c2.1,4,2.8,9,0.8,13.1
				c-0.6,1.4-1.6,2.5-2.9,3.3c-2,0.9-4.3,0.7-6.2-0.6c-1.8-1.2-3.3-2.8-4.5-4.6c-5.7-7.8-9.8-17.1-9.6-26.7
				c0.3-10.2,9.1-27.4,21.7-24.2C54.5,24.4,62.5,35.7,54.6,42.8z"/>
		</g>
		<path id="Trazado_37" class="st9" d="M130.7,45.8c-12.4,5.1-31.3,12.7-42.6,19.9S64.9,86.8,59,98.8c-8.9,18.3-7,39.7-4.2,59.8
			c1.4,9.9,2.9,19.7,4.6,29.5c18.5-30.1,43.8-55.3,68.2-80.9c5.9-6.2,11.9-12.5,16.1-20s6.5-16.4,4.5-24.8
			C146.2,54.1,139.3,46.7,130.7,45.8"/>
		<path id="Trazado_38" class="st1" d="M337.1,246c-15.8,82-104.5,94.4-207.5,69.5C48.5,295.8,3.5,236,50,165.9
			C86,44.9,120.1,24.8,231.7,47.6C313.5,64.3,361.7,117.9,337.1,246z"/>
		<g id="Grupo_22" transform="translate(199.36 159.289)">
			
				<ellipse id="Elipse_15" transform="matrix(-0.1887 0.982 -0.982 -0.1887 66.5568 -4.3325)" class="st17" cx="35.1" cy="25.3" rx="22.4" ry="18.1"/>
			
				<ellipse id="Elipse_16" transform="matrix(-0.1887 0.982 -0.982 -0.1887 74.23 -16.0792)" class="st7" cx="43.8" cy="22.6" rx="6.2" ry="4.9"/>
		</g>
		<g id="Grupo_23" transform="translate(79.847 136.325)">
			
				<ellipse id="Elipse_17" transform="matrix(-0.1887 0.982 -0.982 -0.1887 60.4515 -0.992)" class="st17" cx="30.6" cy="24.5" rx="22.4" ry="18.1"/>
			
				<ellipse id="Elipse_18" transform="matrix(-0.1887 0.982 -0.982 -0.1887 68.1248 -12.7387)" class="st7" cx="39.3" cy="21.8" rx="6.2" ry="4.9"/>
		</g>
		<path id="Trazado_39" class="st9" d="M335.8,225.8l-33-6.3l15.1-50.6c0,0-32.9-25.8-41.7-68.3c0,0-143.8,5.7-176.7-37.3
			c0,0,20.8-113.9,132.4-49.6c91.6,38.9,114.5,88.7,114.5,88.7s41.9,10.2,12.9,96l-12.5-2.6L335.8,225.8z"/>
		<g id="Grupo_24" transform="translate(294.119 169.199)">
			
				<ellipse id="Elipse_19" transform="matrix(-0.2999 0.954 -0.954 -0.2999 133.4735 13.0313)" class="st1" cx="62" cy="55.5" rx="47.6" ry="32.6"/>
			<path id="Trazado_40" class="st16" d="M52.6,45.8c2,4,7.7,6,8.1,10.5c0.4,4.4-4.5,7.1-7.9,10c-3.5,2.9-5.9,7.3-5.6,11.9
				c0,1.5,0.6,3,1.5,4.1c1.6,1.6,3.8,2.2,5.9,1.8c2.1-0.5,4.1-1.3,5.9-2.6c8.1-5.1,15.5-12.2,18.8-21.3c3.5-9.6,1.7-28.9-11.2-30.5
				C59.5,28.7,47.8,36.3,52.6,45.8z"/>
		</g>
		<g id="Grupo_25" transform="translate(78.807 109.793)">
			<path id="Trazado_41" class="st17" d="M192.1,46.2c-0.1-0.3-0.2-0.5-0.2-0.8c0,0,0-0.1,0-0.1c-0.8-2-1.7-4-2.6-6
				c0,0,0-0.1-0.1-0.1c-1.2-2-2.4-3.8-3.5-5.5c0,0,0,0-0.1-0.1c-1.2-1.6-2.6-3.2-4.3-5c-12.9-12.6-30.9-18.3-48.6-15.4
				c-2.5,0.5-4.5,1-6.4,1.6c-1.9,0.7-3.9,1.4-6,2.4c0,0-0.1,0-0.1,0.1c-1.9,1-3.8,2.1-5.6,3.4c0,0-0.1,0-0.1,0.1
				c-0.2,0.2-0.4,0.3-0.6,0.5c-1.5,1.1-2.1,3-1.6,4.8c0.4,1.8,1.9,3.2,3.7,3.5l0.6,0.1c2.1,0.5,4,0.9,5.6,1.2
				c1.5,0.4,3.4,0.8,5.3,1.2c1.9,0.6,3.8,1,5.1,1.2c7,1.8,13.2,3.5,19,5.4c6,1.9,12.1,4.1,18.6,6.6c1.8,0.8,3.4,1.4,4.9,1.9
				c1.4,0.6,3,1.3,5,2.1c1.5,0.7,3.3,1.5,5.3,2.2l0.6,0.3c0.4,0.2,0.7,0.3,1.1,0.4c2.6,0.5,5-1.2,5.5-3.8
				C192.3,47.6,192.3,46.9,192.1,46.2L192.1,46.2z"/>
			<path id="Trazado_42" class="st17" d="M73,17.3c-0.3-0.7-0.7-1.2-1.1-1.8l-0.3-0.5c-0.3-0.5-0.7-1-1.1-1.5
				c-0.2-0.2-0.3-0.4-0.5-0.7c-2.2-2.8-4.7-5.2-7.6-7.2C50.9-2.4,36.2-4.1,23.1,0.9c-3.4,1.3-6.6,3.2-9.4,5.5
				c-1.8,1.5-3.3,3.3-4.5,5.4c-0.8,1.4-0.8,3.1,0,4.5c0.7,1.2,1.9,2.1,3.2,2.3c0.2,0,0.5,0.1,0.7,0.1c1.6,0.1,3.2,0.3,4.8,0.6
				l7.8,1.4c5.9,1,10.5,1.6,14.7,2.1l0.4,0c4.6,0.5,9.3,1.1,14.4,1.4c1.9,0.2,3.9,0.2,5.9,0.3c0.8,0,1.6,0.1,2.5,0.1
				c0.8,0,1.6,0,2.4,0.1c1,0,2,0.1,3.1,0.1c1.6,0,3.1-0.8,4-2.2c0.9-1.4,1-3.2,0.2-4.7C73.2,17.7,73.1,17.5,73,17.3z"/>
		</g>
		<g id="bigote_1_" transform="translate(0 185.877)">
			<path id="Trazado_43" class="st9" d="M49.1,20.9c8.1-3.3,14.3-6.4,22.8-10.8c5.8-3,11.8-5.3,18-7.1c13.4-3.8,30.6-2.1,43.6,4.6
				c8.1,4.2,14.8,11.4,17.1,19.1c6.2-7.5,16.6-12.4,28.4-12.3c18.4,0.1,38.9,12.6,51.2,23.8c5.7,5.2,10.9,10.9,15.4,17.1
				c5.7,8.1,11.8,16,18.4,23.5c19.3,21.8,46.8,24.9,46.8,24.9s-30.4,17.1-61.8,13.8c-23.2-2.4-40-11.5-50.4-17.2
				c-17.8-9.6-33.4-22.6-46-38.4c-3.9-4.3-6.5-9.7-7.4-15.5c-2.8,2.8-6.1,5-9.8,6.5c-15.3,7.1-31.8,11.1-48.6,11.8
				c-9.7,0.4-23.6-0.4-41-7C22.2,48.5,5.6,22.3,5.6,22.3C19.9,26.9,35.2,26.3,49.1,20.9z"/>
			<path id="Trazado_44" class="st18" d="M146.5,39.8c7.6,18.1,46.2,53.1,60.1,58.9c58.5,24.1,104.3,4.9,104.3,4.9
				s-30.4,17.1-61.8,13.8c-23.2-2.4-40-11.5-50.4-17.2c-17.8-9.6-33.4-22.6-46-38.4c-3.9-4.3-6.5-9.7-7.4-15.5
				c-2.8,2.8-6.1,5-9.8,6.5c-15.3,7.1-31.8,11.1-48.6,11.8c-9.7,0.4-23.6-0.4-41-7C22.2,48.5,5.6,22.3,5.6,22.3S27.6,49,62.3,55.7
				C82.8,59.7,113.7,55.3,146.5,39.8z"/>
		</g>
	</g>
	<g id="Grupo_27" transform="translate(1299 3465.84)">
		<g id="sombrero_frente">
			<path id="Trazado_45" class="st2" d="M451.7,113c-8.7-38.7-19.4-81.9-54-108.4c-18.7-14.3-41-15-63-8.4
				c-40.3,12.1-70,34.8-89.8,52.8L451.7,113z"/>
			<path id="Trazado_46" class="st6" d="M451.7,113c-4.7-20.9-10-43.2-19.3-63.4c9.3,60.3-146.7-2.3-162.6-20.8
				c-8.7,6.3-17,13-25,20.3L451.7,113z"/>
			<path id="Trazado_47" class="st2" d="M456.6,182.2c-172-55.3-327-76.2-446.6-76.5C4.6,104-8.2,32.3,14.7,29.6
				c90.5-15.5,219.4,10.2,219.4,10.2c103.5,25.4,141.1,40.4,161.6,47.8c71,25.6,130.4,44.3,172.1,72.1c3.9,2.6,13.4,6.8,15.2,11.2
				c4.8,11.8,1.7,51.9-1.3,53.6C543.7,206.4,496.6,195.1,456.6,182.2z"/>
			<path id="Trazado_48" class="st19" d="M581.9,188.1c0,0-9.1,13.5-13.8,12.4c-7.8-1.8-6.1-21.7-14.9-24.3
				c-7.9-2.3-14.5,12-22.6,9.9c-10-2.5-7.7-26.6-17.5-29.7c-7.5-2.3-13.5,15.7-21.7,14.5c-10.7-1.6-9.9-32-21.5-34.5
				c-10.2-2.2-18.1,19.3-29.7,18.2c-11.5-1.2-9.1-31.5-20.9-34.4c-10.6-2.7-18.5,19-30.9,17.4c-15.8-2-16.2-38.4-32.3-41.3
				c-15.3-2.7-26.2,27.7-40.6,24.8c-15.9-3.2-13.6-42.6-29.3-46.1c-16-3.6-30.1,34.7-47.6,31.7c-18.1-3.1-18.3-46.4-34.8-48.5
				c-15.8-2-25,36.7-45,37.7c-18.9,1-22.8-45.8-42-47.3C98.2,47.3,89.8,88.1,68.4,88c-21-0.1-31.3-39.6-48.7-37.1
				c-8.5,1.2-14.2,11.8-18,21.8l0.9,9.3c3.7-10,7.4-16.8,15.9-18c17.4-2.5,27.6,37,48.7,37.1c21.4,0.1,29.8-40.7,48.3-39.3
				c19.1,1.5,23.1,48.3,42,47.3c20-1.1,29.1-39.7,45-37.7c16.5,2.1,16.8,45.4,34.8,48.5c17.5,3,31.5-35.3,47.6-31.7
				c15.7,3.5,13.5,42.9,29.3,46.1c14.3,2.9,25.3-27.5,40.6-24.8c16.2,2.9,16.6,39.3,32.3,41.3c12.4,1.5,20.3-20.1,30.9-17.4
				c11.8,3,9.4,33.3,20.9,34.4c11.6,1.2,19.6-20.4,29.7-18.2c11.7,2.5,10.8,33,21.5,34.5c8.2,1.2,14.2-16.8,21.7-14.5
				c9.8,3,7.5,27.1,17.5,29.7c8.1,2.1,14.7-12.3,22.6-9.9c8.8,2.6,7.1,22.5,14.9,24.3c4.6,1.1,11.3-7.7,15.5-15L581.9,188.1z"/>
			<path id="Trazado_49" class="st3" d="M583.5,179.2c0,0-9.1,13.5-13.8,12.4c-7.8-1.8-6.1-21.7-14.9-24.3
				c-7.9-2.3-14.5,12-22.6,9.9c-10-2.5-7.7-26.6-17.5-29.7c-7.5-2.3-13.5,15.7-21.7,14.5c-10.7-1.6-9.9-32-21.5-34.5
				c-10.2-2.2-18.1,19.3-29.7,18.2c-11.5-1.2-9.1-31.5-20.9-34.4c-10.6-2.7-18.5,19-30.9,17.4c-15.8-2-16.2-38.4-32.3-41.3
				c-15.3-2.7-26.2,27.7-40.6,24.8c-15.9-3.2-13.6-42.6-29.3-46.1c-16-3.6-30.1,34.7-47.6,31.7c-18.1-3.1-18.3-46.4-34.8-48.5
				c-15.8-2-25,36.7-45,37.7c-18.9,1-22.8-45.8-42-47.3C99.8,38.4,91.4,79.2,70,79.1C48.9,79,38.7,39.6,21.3,42
				c-8.5,1.2-14.2,11.8-18,21.8l0.9,9.3c3.7-10,7.4-16.8,15.9-18c17.4-2.5,27.6,37,48.7,37.1c21.4,0.1,29.8-40.7,48.3-39.3
				c19.1,1.5,23.1,48.3,42,47.3c20-1.1,29.1-39.7,45-37.7c16.5,2.1,16.8,45.4,34.8,48.5c17.5,3,31.5-35.3,47.6-31.7
				c15.7,3.5,13.5,42.9,29.3,46.1c14.3,2.9,25.3-27.5,40.6-24.8c16.2,2.9,16.6,39.3,32.3,41.3c12.4,1.5,20.3-20.1,30.9-17.4
				c11.8,3,9.4,33.3,20.9,34.4c11.6,1.2,19.6-20.4,29.7-18.2c11.7,2.5,10.8,33,21.5,34.5c8.2,1.2,14.2-16.8,21.7-14.5
				c9.8,3,7.5,27.1,17.5,29.7c8.1,2.1,14.7-12.3,22.6-9.9c8.8,2.6,7.1,22.5,14.9,24.3c4.6,1.1,11.3-7.7,15.5-15L583.5,179.2z"/>
		</g>
	</g>
</g>
<g id="Grupo_559" transform="translate(2358 -2182)">
	<g id="Rectángulo_85" transform="translate(-2358 2182)">
		
			<rect x="142.1" y="291.1" transform="matrix(0.2266 -0.974 0.974 0.2266 -298.2672 650.676)" class="st20" width="236.9" height="444.1"/>
		
			<rect x="142.2" y="291.2" transform="matrix(0.2266 -0.974 0.974 0.2266 -298.2672 650.676)" class="st21" width="236.7" height="443.8"/>
	</g>
	
		<image style="overflow:visible;enable-background:new;" width="1667" height="822" id="Mariachi" xlink:href="63A292FA.jpg"  transform="matrix(0.2396 5.573748e-02 -5.573748e-02 0.2396 -2274.1323 2550.2319)">
	</image>
	
		<rect id="Rectángulo_88" x="-2419.5" y="2642.6" transform="matrix(0.2266 -0.974 0.974 0.2266 -4360.9731 -198.9061)" class="st22" width="227.5" height="7.7"/>
	
		<rect id="Rectángulo_90" x="-2002.1" y="2739.7" transform="matrix(0.2266 -0.974 0.974 0.2266 -4132.7563 282.6436)" class="st22" width="227.5" height="7.7"/>
	
		<rect id="Rectángulo_89" x="-2076" y="2369.9" transform="matrix(0.2266 -0.974 0.974 0.2266 -4123.3569 -16.6644)" class="st22" width="7.7" height="436.2"/>
	
		<rect id="Rectángulo_91" x="-2125.9" y="2584.4" transform="matrix(0.2266 -0.974 0.974 0.2266 -4370.853 100.6295)" class="st22" width="7.7" height="436.2"/>
</g>
<g id="Grupo_20" transform="translate(320.579 375.339) rotate(-20)">
	<path id="Trazado_32" class="st1" d="M88.3,94c14.4,11.3,41,49.7,8.2,74.3c-38.1,28.6-68,6.1-70.3-2.4c-2.3-8.5,0.5-19.9-4.8-23.8
		c-5.3-3.9-20.7-17.7-2.2-29.1c0,0,17-9.6,23.2-11.5C78.2,90.7,79.4,87.1,88.3,94z"/>
	<g id="brazo_der-2" transform="translate(5.555 0)">
		<path id="Trazado_33" class="st2" d="M83.2,82.4c0.3,1.6,0.5,3.2,0.6,4.8c0,0.4,0.1,0.8,0.1,1.3c0,23.5-59.5,39-60.8,16.6
			c-0.1-1.9-0.2-3.7-0.3-5.4c-0.1-1.9-0.2-3.7-0.3-5.4c-0.2-3.7-0.4-6.9-0.7-10c-0.2-1.9-0.4-3.7-0.7-5.6c-0.3-2.1-0.8-4.3-1.3-6.5
			c-2.5-10.1-7.7-23.8-9.1-32.2c-2.1-12.6,11.9-27.5,24.4-29c16.8-2,35.5,23.3,41.5,44.6c1.1,3.8,2.1,7.4,3,10.7
			c0.5,1.9,1,3.6,1.4,5.4C81.9,75.5,82.7,79.1,83.2,82.4z"/>
	</g>
	<g id="Grupo_18" transform="translate(15.764 53.422)">
		<path id="Trazado_34" class="st3" d="M70.8,18.3c-2.3,1.4-4.4,3.7-6.6,5.3c-2.5,2-5.6,3.2-8.8,3.3c-2.9-0.2-5.7-0.7-8.5-1.7
			c-2.8-0.7-5.1-1.1-7.8,0c-2.8,1.1-5.2,3.3-7.8,4.8c-2.8,1.8-6.1,2.6-9.4,2.6c-3-0.3-5.9-0.8-8.8-1.5c-0.5-0.1-1-0.2-1.5-0.2
			c-0.2-1.9-0.4-3.7-0.7-5.6c1,0.1,2,0.2,3,0.4c2.9,0.6,5.9,1.5,8.7,1.5c3.1,0,5.7-1.6,8.2-3.4c3-2,6-4,9.6-4.6
			c3.1-0.5,6.1,0.3,9.1,1.1c1.4,0.4,2.8,0.8,4.3,1c1.2,0.2,2.4,0.1,3.6-0.2c2.9-0.9,5.2-3.3,7.5-5.3c1.4-1.2,2.9-2.2,4.5-3
			C69.9,14.8,70.3,16.6,70.8,18.3z"/>
	</g>
	<g id="Grupo_19" transform="translate(17.093 68.903)">
		<path id="Trazado_35" class="st3" d="M71.7,13.5c0.3,1.6,0.5,3.2,0.6,4.8c0,0.4,0.1,0.8,0.1,1.3c-1.7,1.3-3.2,2.8-4.8,4.1
			c-2.5,2-5.6,3.2-8.8,3.3c-2.9-0.2-5.7-0.7-8.5-1.6c-2.8-0.7-5.1-1.2-7.8-0.1c-2.8,1.1-5.2,3.3-7.8,4.8c-2.8,1.8-6.1,2.6-9.4,2.6
			c-3-0.3-5.9-0.8-8.8-1.5c-1.7-0.4-3.4-0.5-5.1-0.3c-0.1-1.9-0.2-3.7-0.3-5.4c2.1-0.2,4.2,0,6.3,0.4c2.9,0.5,5.9,1.5,8.7,1.5
			c3.1,0,5.6-1.6,8.2-3.4c3-2,6-4,9.6-4.6c3.1-0.5,6.1,0.3,9,1.1c1.4,0.4,2.8,0.8,4.3,1c1.2,0.2,2.4,0.1,3.6-0.2
			c2.9-0.9,5.2-3.3,7.6-5.3C69.3,15.1,70.4,14.2,71.7,13.5z"/>
	</g>
</g>
</svg>
