<?xml version="1.0" encoding="utf-8"?>
<!-- Generator: Adobe Illustrator 24.3.0, SVG Export Plug-In . SVG Version: 6.00 Build 0)  -->
<svg version="1.1" id="Capa_1" xmlns="http://www.w3.org/2000/svg" xmlns:xlink="http://www.w3.org/1999/xlink" x="0px" y="0px"
	 viewBox="0 0 518.1 624.1" style="enable-background:new 0 0 518.1 624.1;" xml:space="preserve">
<style type="text/css">
	.st0{fill:#C7C7C7;}
	.st1{fill:#CA9F7F;}
	.st2{fill:#363B45;}
	.st3{fill:#E0EAE7;}
	.st4{fill:#1B202A;}
	.st5{fill:#252D3E;}
	.st6{fill:#171C29;}
	.st7{fill:#272B32;}
	.st8{fill:#FFFFFF;}
	.st9{fill:#CCCCCC;}
	.st10{fill:#331814;}
	.st11{fill:url(#SVGID_1_);}
	.st12{fill:#AE8020;}
	.st13{fill:url(#SVGID_2_);}
	.st14{fill:#C20B2E;}
	.st15{fill:#B3835F;}
	.st16{fill:#BB845E;}
	.st17{fill:#170000;}
	.st18{fill:#271918;}
	.st19{fill:#262B39;}
</style>
<ellipse class="st0" cx="257" cy="574.4" rx="246.5" ry="44.6"/>
<g>
	<g>
		<path class="st1" d="M133.8,373.3c-14.4,6.6-54.6,11.8-60.5-23.3c-6.8-40.8,22.4-54.9,29.9-53.3s15.2,8.3,20.3,5.8
			s21.9-8.9,23.3,9.9c0,0,0.7,16.9-0.4,22.5C140.4,366.9,142.7,369.2,133.8,373.3z"/>
		<g id="brazo_x5F_der_14_">
			<path class="st2" d="M142.6,378.3c-1.4-0.4-2.7-0.9-4-1.5c-0.3-0.1-0.7-0.3-1-0.5c-18.1-9.4-6.3-61.4,11.4-53.5
				c1.5,0.7,2.9,1.3,4.3,1.9c1.5,0.7,3,1.3,4.3,2c2.9,1.3,5.5,2.4,8,3.4c1.5,0.6,3,1.2,4.6,1.7c1.8,0.6,3.6,1.1,5.5,1.6
				c8.8,2.1,21.4,3.5,28.4,5.8c10.5,3.4,16.5,20.1,12.6,30.4c-5.1,13.8-32.2,18.1-50.9,14.2c-3.4-0.7-6.5-1.3-9.4-2
				c-1.6-0.4-3.2-0.7-4.7-1.1C148.4,380,145.4,379.2,142.6,378.3z"/>
		</g>
		<g>
			<path class="st3" d="M151.7,380.8c-0.2-2.4-1.1-4.9-1.5-7.2c-0.5-2.7-0.4-5.6,0.9-8.1c1.2-2.2,3-4,4.7-5.9c1.7-1.8,2.9-3.5,3.1-6
				c0.2-2.7-0.4-5.3-0.6-8c-0.1-2.9,0.3-5.7,1.8-8.3c1.3-2.3,3.1-4.2,4.7-6.2c0.3-0.3,0.5-0.7,0.8-1c1.5,0.6,3,1.2,4.6,1.7
				c-0.5,0.7-1,1.5-1.5,2.2c-1.6,2-3.5,4-4.6,6.1c-1.2,2.4-1,5-0.7,7.7c0.4,3.1,0.7,6.2-0.3,9.2c-0.8,2.6-2.7,4.6-4.5,6.5
				c-0.9,0.9-1.7,1.9-2.5,2.9c-0.6,0.8-1.1,1.8-1.3,2.8c-0.4,2.6,0.5,5.3,1.1,7.9c0.3,1.5,0.6,3.1,0.5,4.7
				C154.8,381.5,153.2,381.2,151.7,380.8z"/>
		</g>
		<g>
			<path class="st3" d="M142.6,378.3c-1.4-0.4-2.7-0.9-4-1.5c-0.3-0.1-0.7-0.3-1-0.5c-0.3-1.8-0.9-3.6-1.2-5.3
				c-0.5-2.7-0.4-5.6,0.9-8.1c1.2-2.3,3-4,4.6-5.9c1.7-1.8,2.9-3.5,3.1-6c0.2-2.7-0.4-5.3-0.6-8c-0.1-2.9,0.3-5.7,1.8-8.3
				c1.3-2.3,3.1-4.2,4.7-6.2c1-1.2,1.8-2.5,2.3-3.8c1.5,0.7,3,1.3,4.3,2c-0.7,1.7-1.7,3.3-2.8,4.7c-1.6,2-3.5,4-4.6,6.2
				c-1.2,2.4-1,5-0.7,7.7c0.4,3.1,0.7,6.2-0.3,9.2c-0.8,2.6-2.7,4.6-4.5,6.5c-0.9,0.9-1.7,1.9-2.5,2.9c-0.6,0.8-1.1,1.8-1.3,2.8
				c-0.4,2.6,0.5,5.3,1,7.9C142.3,375.8,142.5,377.1,142.6,378.3z"/>
		</g>
	</g>
	<path id="sombrero_x5F_atras_4_" class="st4" d="M508.3,207.9c0,0-33.9,26.2-246.7-23.5S12.2,104.8,12.2,104.8
		S-42.3,3.6,262.1,79.9C303.9,90.4,526.9,139,508.3,207.9z"/>
	<g id="pie_x5F_izq_4_">
		<path class="st5" d="M252,524.3c0,0,15.9,17.3,12.2,37.1c-1,5.3-17.2,9.4-40.1,11.6c-22.9,2.2-51,2.2-60.7-3.3
			C152.7,563.8,189.7,524.2,252,524.3z"/>
		<path class="st6" d="M252,524.3c0,0,15.9,17.3,12.2,37.1c-1,5.3-35,12.9-61.9,12.9c5.1-7.9,26.9-17.1-14.8-34
			C203.2,531.5,225.2,524.3,252,524.3z"/>
	</g>
	<g id="pierna_x5F_izq_4_">
		<path class="st2" d="M223.5,457.9c-10.8-1.7-20.9,2.9-26.3,11.6c-5.3,8.6-5.5,24.7-5,34.5c0.5,8.7,0.7,16.9-0.4,25.6
			c-0.8,5.7,2.1,9.9,7.5,13.2c9.7,5.9,23.5,6.9,34.9,6.6c7.3-0.2,16.5-0.9,22.5-5.1c4.8-3.3,4-6.4,3-11.5c-1.6-7.7-3.2-15.4-4.8-23
			c-1.3-6.4-3.5-34.3-5.5-38.3C245.2,462.9,223.9,458,223.5,457.9z"/>
		<path class="st7" d="M209.3,465.1c26.6,1.6,76.4,89.8-10,77.6c9.7,5.9,23.5,6.9,34.9,6.6c7.3-0.2,16.5-0.9,22.5-5.1
			c4.8-3.3,4-6.4,3-11.5c-1.6-7.7-3.2-15.4-4.8-23c-1.3-6.4-3.5-28.6-5.5-32.6c-4.1-8.5-15.4-11.6-24.8-13.3
			C224.2,463.7,213.6,463.4,209.3,465.1z"/>
	</g>
	<g id="torso_8_">
		<g>
			<path class="st2" d="M192,398.8c0,27.3-11.2,52.1,4.4,70s36.3,23.1,60.2,23.1c29.8,0,71-4.9,86.5-31.2c9.3-15.8-3-70.4-3-90.9
				c0-54.7-34.9-69.9-82.6-69.9S192,344.1,192,398.8z"/>
			<path class="st7" d="M300.8,420.3c0,27.3-10.4,85.8-104.4,48.5c15.6,17.9,36.3,23.1,60.2,23.1c29.8,0,71-4.9,86.5-31.2
				c9.3-15.8-3-70.4-3-90.9c0-54.7-34.9-69.9-82.6-69.9C314.4,343.5,300.8,365.6,300.8,420.3z"/>
		</g>
		<g>
			<path class="st8" d="M270.1,334.7c0,0-18.8,56.6-25.4,112.5c0,0-26.5,6.7-45.4-2.7c0,0,9.3-100.6,25.5-126.8L270.1,334.7z"/>
			<path class="st9" d="M270.1,334.7c0,0-5.7,21.4-14.1,50.8c-22.7-23.5-37.7-24.8-47.6-9.1c3.6-23.3,9.6-47.7,16.4-58.8
				L270.1,334.7z"/>
		</g>
		<path class="st10" d="M346.4,433.8c0,0-130.4,24.7-157.7-2.9c0,0-6.5,9.3-0.6,22.8c0,0,32.2,29.3,157.9-1.2
			C346,452.5,351.2,442.2,346.4,433.8z"/>
		<g id="evilla_3_">
			
				<radialGradient id="SVGID_1_" cx="-5881.6069" cy="133.8586" r="24.6948" gradientTransform="matrix(-1.129 0 0 -1 -6425.4492 582.2634)" gradientUnits="userSpaceOnUse">
				<stop  offset="0" style="stop-color:#EECC36"/>
				<stop  offset="1" style="stop-color:#DCAA33"/>
			</radialGradient>
			<path class="st11" d="M199.3,447.2c-0.1,11.4,3,15.5,14.8,18.7c12,3.3,28.1,1.5,27.8-13.1c-0.3-13.7-10.6-16.4-22.4-16.4
				C206,436.3,199.4,438.2,199.3,447.2z"/>
			<path class="st12" d="M199.3,447.2c-0.1,11.4,3,15.5,14.8,18.7c12,3.3,28.1,1.5,27.8-13.1c-4.8,5.3-14,9.1-25.8,8.9
				C207.1,461.5,202.3,454.1,199.3,447.2z"/>
		</g>
		<g id="paliacate_3_">
			
				<linearGradient id="SVGID_2_" gradientUnits="userSpaceOnUse" x1="-5831.8765" y1="209.8777" x2="-5839.7773" y2="243.6374" gradientTransform="matrix(-1 0 0 -1 -5599.1997 582.2634)">
				<stop  offset="0" style="stop-color:#EB2A70"/>
				<stop  offset="1" style="stop-color:#C62251"/>
			</linearGradient>
			<path class="st13" d="M200.1,336c8.5-15.1,27.4-5.3,32-2.6c6.9-2.4,31.5-9.3,37.3,10.4c6.6,22.9,14.8,37.7,14.8,37.7
				s-30.1,5.3-44.4-13.5c-6.3-8.3-8.9-15.8-9.8-21.7c-2,4-5.4,8.7-10.9,13.4c-15,12.9-38.1,4.2-38.1,4.2S190.5,353.4,200.1,336z"/>
			<path class="st14" d="M258.7,345.6c1.3,3.6,1.3,7.5,2,11.3c0.7,3.8,2.3,7.7,5.8,9.9c-12.2-2.4-23.1-9.3-29.6-18.8
				c-1.5-2.2-2.7-4.8-1.8-7.1c1-2.5,4.1-3.9,7.1-4C249.6,336.7,256.4,339.1,258.7,345.6z"/>
			<path class="st14" d="M214.3,351.2c-5.3,4.6-13,7.4-20.3,6c3.5-0.5,5.8-3.7,6.6-6.8c0.9-3.1,0.8-6.3,1.9-9.3
				c1.4-3.8,4.8-6.9,9-8.3c4.3-1.5,13.1-1.9,12.9,3.6C224.4,341.2,217.9,348.1,214.3,351.2z"/>
		</g>
	</g>
	<g id="pie_x5F_der_14_">
		<path class="st5" d="M324.3,524.3c0,0,15.9,17.3,12.2,37.1c-1,5.3-17.2,9.4-40.1,11.6c-22.9,2.2-51,2.2-60.7-3.3
			C225.1,563.8,262,524.2,324.3,524.3z"/>
		<path class="st6" d="M324.3,524.3c0,0,15.9,17.3,12.2,37.1c-1,5.3-17.2,9.4-40.1,11.6c21.2-8.3,9.7-14.3-36.5-32.7
			C275.5,531.5,297.6,524.3,324.3,524.3z"/>
	</g>
	<g id="pierna_x5F_der_10_">
		<path class="st2" d="M295.9,463.6c-10.8-1.7-20.9,2.9-26.3,11.6c-5.3,8.6-5.5,19-5,28.8c0.5,8.7,0.7,16.9-0.4,25.6
			c-0.8,5.7,2.1,9.9,7.5,13.2c9.7,5.9,23.5,6.9,34.9,6.6c7.3-0.2,16.5-0.9,22.5-5.1c4.8-3.3,4-6.4,3-11.5c-1.6-7.7-3.2-15.4-4.8-23
			c-1.3-6.4-3.5-28.6-5.5-32.6c-4.1-8.5-15.4-11.6-24.8-13.3C296.6,463.7,296.2,463.6,295.9,463.6z"/>
		<path class="st7" d="M281.6,465.1c26.6,1.6,76.4,89.8-10,77.6c9.7,5.9,23.5,6.9,34.9,6.6c7.3-0.2,16.5-0.9,22.5-5.1
			c4.8-3.3,4-6.4,3-11.5c-1.6-7.7-3.2-15.4-4.8-23c-1.3-6.4-3.5-28.6-5.5-32.6c-4.1-8.5-15.4-11.6-24.8-13.3
			C296.6,463.7,286,463.4,281.6,465.1z"/>
		<g>
			<ellipse class="st3" cx="292.9" cy="489.2" rx="4.7" ry="4.2"/>
			<ellipse class="st3" cx="316.2" cy="489.2" rx="4.7" ry="4.2"/>
			<g>
				<path class="st3" d="M292.4,489.6c3.6,2.6,8.9,3.6,12.2,0c-0.3,0-0.7,0-1,0c1.1,0.9,2.5,1.6,3.9,1.9c2.8,0.8,5.5,0.1,7.8-1.5
					c0.7-0.5-0.3-1.4-1-0.9c-2.9,2.1-6.9,1.8-9.7-0.5c-0.3-0.2-0.7-0.3-1,0c-1.7,1.9-4.1,2.4-6.7,1.6c-0.9-0.3-1.7-0.6-2.5-1.1
					c-0.3-0.1-0.5-0.3-0.8-0.5c-0.1-0.1-0.3-0.2-0.2-0.1C292.7,488.2,291.7,489.1,292.4,489.6L292.4,489.6z"/>
			</g>
		</g>
		<g>
			<ellipse class="st3" cx="290.5" cy="472.4" rx="4.7" ry="4.2"/>
			<ellipse class="st3" cx="313.8" cy="472.4" rx="4.7" ry="4.2"/>
			<g>
				<path class="st3" d="M290,472.9c3.6,2.6,8.9,3.6,12.2,0c-0.3,0-0.7,0-1,0c1.1,0.9,2.5,1.6,3.9,1.9c2.8,0.8,5.5,0.1,7.8-1.5
					c0.7-0.5-0.3-1.4-1-0.9c-2.9,2.1-6.9,1.8-9.7-0.5c-0.3-0.2-0.7-0.3-1,0c-1.7,1.9-4.1,2.4-6.7,1.6c-0.9-0.3-1.7-0.6-2.5-1.1
					c-0.3-0.1-0.5-0.3-0.8-0.5c-0.1-0.1-0.3-0.2-0.2-0.1C290.3,471.5,289.3,472.4,290,472.9L290,472.9z"/>
			</g>
		</g>
		<g>
			<ellipse class="st3" cx="294.9" cy="503.5" rx="4.7" ry="4.2"/>
			<ellipse class="st3" cx="318.2" cy="503.5" rx="4.7" ry="4.2"/>
			<g>
				<path class="st3" d="M294.4,503.9c3.6,2.6,8.9,3.6,12.2,0c-0.3,0-0.7,0-1,0c1.1,0.9,2.5,1.6,3.9,1.9c2.8,0.8,5.5,0.1,7.8-1.5
					c0.7-0.5-0.3-1.4-1-0.9c-2.9,2.1-6.9,1.8-9.7-0.5c-0.3-0.2-0.7-0.3-1,0c-1.7,1.9-4.1,2.4-6.7,1.6c-0.9-0.3-1.7-0.6-2.5-1.1
					c-0.3-0.1-0.5-0.3-0.8-0.5c-0.1-0.1-0.3-0.2-0.2-0.1C294.7,502.5,293.7,503.4,294.4,503.9L294.4,503.9z"/>
			</g>
		</g>
		<g>
			<ellipse class="st3" cx="297.3" cy="517.1" rx="4.7" ry="4.2"/>
			<ellipse class="st3" cx="320.6" cy="517.1" rx="4.7" ry="4.2"/>
			<g>
				<path class="st3" d="M296.8,517.5c3.6,2.6,8.9,3.6,12.2,0c-0.3,0-0.7,0-1,0c1.1,0.9,2.5,1.6,3.9,1.9c2.8,0.8,5.5,0.1,7.8-1.5
					c0.7-0.5-0.3-1.4-1-0.9c-2.9,2.1-6.9,1.8-9.7-0.5c-0.3-0.2-0.7-0.3-1,0c-1.7,1.9-4.1,2.4-6.7,1.6c-0.9-0.3-1.7-0.6-2.5-1.1
					c-0.3-0.1-0.5-0.3-0.8-0.5c-0.1-0.1-0.3-0.2-0.2-0.1C297.1,516.1,296.1,517,296.8,517.5L296.8,517.5z"/>
			</g>
		</g>
		<g>
			<ellipse class="st3" cx="296.6" cy="528.4" rx="4.7" ry="4.2"/>
			<ellipse class="st3" cx="319.9" cy="528.4" rx="4.7" ry="4.2"/>
			<g>
				<path class="st3" d="M296.1,528.8c3.6,2.6,8.9,3.6,12.2,0c-0.3,0-0.7,0-1,0c1.1,0.9,2.5,1.6,3.9,1.9c2.8,0.8,5.5,0.1,7.8-1.5
					c0.7-0.5-0.3-1.4-1-0.9c-2.9,2.1-6.9,1.8-9.7-0.5c-0.3-0.2-0.7-0.3-1,0c-1.7,1.9-4.1,2.4-6.7,1.6c-0.9-0.3-1.7-0.6-2.5-1.1
					c-0.3-0.1-0.5-0.3-0.8-0.5c-0.1-0.1-0.3-0.2-0.2-0.1C296.4,527.4,295.4,528.3,296.1,528.8L296.1,528.8z"/>
			</g>
		</g>
		<g>
			<ellipse class="st3" cx="298.3" cy="540.2" rx="4.7" ry="4.2"/>
			<ellipse class="st3" cx="321.6" cy="540.2" rx="4.7" ry="4.2"/>
			<g>
				<path class="st3" d="M297.8,540.7c3.6,2.6,8.9,3.6,12.2,0c-0.3,0-0.7,0-1,0c1.1,0.9,2.5,1.6,3.9,1.9c2.8,0.8,5.5,0.1,7.8-1.5
					c0.7-0.5-0.3-1.4-1-0.9c-2.9,2.1-6.9,1.8-9.7-0.5c-0.3-0.2-0.7-0.3-1,0c-1.7,1.9-4.1,2.4-6.7,1.6c-0.9-0.3-1.7-0.6-2.5-1.1
					c-0.3-0.1-0.5-0.3-0.8-0.5c-0.1-0.1-0.3-0.2-0.2-0.1C298.1,539.3,297.1,540.2,297.8,540.7L297.8,540.7z"/>
			</g>
		</g>
	</g>
	<g>
		<path class="st1" d="M366.8,399.5c12.5,9.8,35.5,43.2,7.1,64.4c-33.1,24.8-59,5.3-61-2.1s0.4-17.3-4.2-20.7
			c-4.6-3.4-18-15.4-1.9-25.2c0,0,14.7-8.3,20.2-10C358,396.5,359.1,393.4,366.8,399.5z"/>
		<g id="brazo_x5F_der_13_">
			<path class="st2" d="M367.2,389.4c0.2,1.4,0.4,2.8,0.5,4.2c0,0.4,0,0.7,0,1.1c0,20.4-51.7,33.8-52.8,14.4
				c-0.1-1.6-0.2-3.2-0.3-4.7c-0.1-1.7-0.2-3.2-0.2-4.7c-0.2-3.2-0.3-6-0.6-8.6c-0.2-1.6-0.4-3.2-0.6-4.8c-0.3-1.8-0.7-3.7-1.1-5.6
				c-2.2-8.8-6.7-20.6-7.9-27.9c-1.8-10.9,10.3-23.9,21.2-25.2c14.6-1.8,30.8,20.3,36,38.7c0.9,3.3,1.8,6.4,2.6,9.3
				c0.4,1.6,0.8,3.2,1.2,4.7C366.1,383.4,366.7,386.5,367.2,389.4z"/>
		</g>
		<g>
			<path class="st3" d="M365.3,380.1c-2,1.3-3.8,3.2-5.7,4.6c-2.2,1.7-4.8,2.9-7.6,2.9c-2.5,0-4.9-0.8-7.4-1.4c-2.4-0.6-4.4-1-6.8,0
				c-2.5,1-4.5,2.8-6.8,4.2c-2.5,1.5-5.2,2.4-8.2,2.2c-2.6-0.1-5.1-0.8-7.7-1.3c-0.4-0.1-0.9-0.2-1.3-0.2c-0.2-1.6-0.4-3.2-0.6-4.8
				c0.9,0.1,1.8,0.2,2.6,0.4c2.5,0.5,5.1,1.3,7.6,1.3c2.7,0,4.9-1.4,7.1-2.9c2.6-1.7,5.2-3.4,8.3-4c2.6-0.5,5.3,0.3,7.9,1
				c1.2,0.3,2.4,0.7,3.7,0.9c1,0.1,2.1,0.2,3.1-0.2c2.5-0.8,4.5-2.9,6.5-4.6c1.2-1,2.5-1.9,3.9-2.6
				C364.5,377.1,364.9,378.6,365.3,380.1z"/>
		</g>
		<g>
			<path class="st3" d="M367.2,389.4c0.2,1.4,0.4,2.8,0.5,4.2c0,0.4,0,0.7,0,1.1c-1.4,1.1-2.8,2.4-4.2,3.5c-2.2,1.7-4.8,2.9-7.6,2.9
				c-2.5,0-4.9-0.8-7.3-1.4s-4.4-1-6.8,0c-2.5,1-4.5,2.8-6.8,4.2c-2.5,1.5-5.2,2.4-8.2,2.2c-2.6-0.1-5.1-0.8-7.7-1.3
				c-1.6-0.3-3-0.5-4.5-0.3c-0.1-1.7-0.2-3.2-0.2-4.7c1.8-0.2,3.7,0,5.5,0.4c2.5,0.5,5.1,1.3,7.6,1.3c2.7,0,4.9-1.4,7.1-2.9
				c2.6-1.7,5.2-3.4,8.3-4c2.6-0.5,5.3,0.3,7.9,1c1.2,0.3,2.5,0.7,3.7,0.9c1,0.1,2.1,0.1,3.1-0.2c2.5-0.8,4.5-2.9,6.6-4.6
				C365.1,390.7,366.1,390,367.2,389.4z"/>
		</g>
	</g>
	<g>
		<g>
			
				<ellipse transform="matrix(7.497253e-02 -0.9972 0.9972 7.497253e-02 -61.8227 333.3337)" class="st15" cx="148.8" cy="200" rx="41.3" ry="28.3"/>
			<path class="st16" d="M159.4,195.2c-2.9,2.6-8.1,2.4-9.9,5.9c-1.7,3.4,1.3,7.2,3.1,10.6c1.8,3.5,2.4,7.8,0.7,11.4
				c-0.6,1.2-1.4,2.3-2.5,2.8c-1.7,0.8-3.8,0.5-5.4-0.5c-1.6-1-2.8-2.5-3.9-4c-4.9-6.8-8.5-14.8-8.3-23.2c0.2-8.9,7.9-23.8,18.9-21
				C159.3,179.2,166.3,189.1,159.4,195.2z"/>
		</g>
		<path class="st10" d="M213.2,94.7c-10.8,4.4-27.2,11-37,17.3c-9.8,6.3-20.2,18.2-25.3,28.7c-7.7,15.8-6.1,34.5-3.7,51.9
			c1.2,8.6,2.5,17.1,4,25.6c16.1-26.1,38-48,59.2-70.2c5.2-5.4,10.4-10.9,14-17.4s5.6-14.3,3.9-21.5S220.6,95.5,213.2,94.7"/>
		<path class="st1" d="M392.3,268.4c-13.7,71.2-90.7,81.9-180.1,60.3c-70.5-17-109.5-69-69.1-129.8c31.2-105,60.8-122.4,157.7-102.7
			C371.8,110.8,413.6,157.2,392.3,268.4z"/>
		<g>
			
				<ellipse transform="matrix(0.1887 -0.982 0.982 0.1887 34.5488 472.3369)" class="st17" cx="303.1" cy="215.3" rx="19.4" ry="15.7"/>
			<ellipse transform="matrix(0.1887 -0.982 0.982 0.1887 43.005 477.7436)" class="st8" cx="310.6" cy="212.8" rx="5.3" ry="4.2"/>
		</g>
		<g>
			
				<ellipse transform="matrix(0.1887 -0.982 0.982 0.1887 -32.3598 349.8478)" class="st17" cx="195.6" cy="194.5" rx="19.4" ry="15.7"/>
			
				<ellipse transform="matrix(0.1887 -0.982 0.982 0.1887 -23.9541 355.4272)" class="st8" cx="203.1" cy="192.2" rx="5.3" ry="4.2"/>
		</g>
		<path class="st10" d="M391.1,250.9l-28.7-5.5l13.1-43.9c0,0-28.5-22.4-36.2-59.3c0,0-124.8,5-153.3-32.4c0,0,18.1-98.9,114.9-43.1
			c79.5,33.7,99.3,77,99.3,77s36.4,8.9,11.2,83.4l-10.8-2.3L391.1,250.9z"/>
		<g>
			
				<ellipse transform="matrix(0.2999 -0.954 0.954 0.2999 47.6866 564.9518)" class="st1" cx="408.7" cy="250" rx="41.3" ry="28.3"/>
			<path class="st16" d="M400.6,241.6c1.7,3.5,6.7,5.2,7,9.1c0.3,3.8-3.9,6.2-6.8,8.7c-3,2.5-5.1,6.4-4.9,10.3
				c0.1,1.3,0.5,2.6,1.3,3.6c1.2,1.4,3.3,1.8,5.2,1.5c1.8-0.3,3.5-1.3,5.1-2.2c7.1-4.5,13.4-10.6,16.3-18.4
				c3.1-8.3,1.5-25.1-9.7-26.5C406.6,226.7,396.5,233.3,400.6,241.6z"/>
		</g>
		<g>
			<path class="st17" d="M334.8,190.3c-0.1-0.2-0.1-0.5-0.2-0.7v-0.1c-0.6-1.5-1.3-3.1-2.3-5.2c0,0,0-0.1-0.1-0.1
				c-1.1-1.8-2.1-3.3-3.1-4.7c0,0,0,0,0-0.1c-1.1-1.3-2.3-2.7-3.8-4.3c-5.3-5.3-12-9.3-19.5-11.7s-15.3-2.9-22.7-1.7
				c-2.2,0.4-3.9,0.9-5.6,1.4c-1.6,0.6-3.4,1.2-5.2,2.1c0,0-0.1,0-0.1,0.1c-2,1.1-3.5,2-4.9,2.9c0,0-0.1,0-0.1,0.1
				c-0.2,0.1-0.4,0.3-0.6,0.4c-1.3,1-1.8,2.6-1.4,4.2c0.4,1.6,1.6,2.7,3.2,3l0.5,0.1c1.8,0.5,3.5,0.8,4.9,1.1c1.3,0.3,3,0.7,4.6,1
				c1.7,0.5,3.3,0.8,4.4,1.1c6.1,1.5,11.5,3.1,16.5,4.7c5.2,1.7,10.5,3.5,16.1,5.7c1.6,0.7,2.9,1.2,4.3,1.7c1.2,0.6,2.6,1.1,4.4,1.8
				c1.3,0.6,2.9,1.3,4.6,1.9l0.5,0.2c0.3,0.1,0.6,0.2,1,0.3c1.2,0.2,2.4-0.1,3.4-0.9C334.7,193.5,335.2,191.8,334.8,190.3z"/>
			<path class="st17" d="M231.4,165.2c-0.3-0.6-0.6-1.1-0.9-1.6l-0.3-0.4c-0.3-0.5-0.6-0.9-0.9-1.3c-0.1-0.2-0.3-0.4-0.4-0.6
				c-1.8-2.3-4-4.4-6.6-6.2c-4.9-3.4-10.6-5.6-16.6-6.2c-6.2-0.7-12.3,0-17.6,2.2c-3.1,1.2-5.8,2.8-8.2,4.8c-1.7,1.4-3,3-3.9,4.7
				c-0.7,1.2-0.7,2.7,0,3.9c0.6,1.1,1.6,1.8,2.8,2c0.2,0,0.4,0.1,0.6,0.1c1.6,0.1,3,0.3,4.2,0.5l6.7,1.3c5.2,0.8,9.1,1.4,12.8,1.9
				h0.4c4,0.5,8.1,0.9,12.5,1.2c1.7,0.1,3.3,0.2,5.1,0.3c0.7,0,1.4,0.1,2.1,0.1c0.7,0,1.4,0,2.1,0.1c0.9,0,1.8,0.1,2.7,0.1
				c1.4,0,2.7-0.7,3.5-1.9s0.8-2.7,0.2-4C231.6,165.6,231.5,165.4,231.4,165.2z"/>
		</g>
		<g id="bigote_4_">
			<path class="st10" d="M142.3,234.4c7.1-2.9,12.4-5.6,19.8-9.4c4.9-2.5,10.3-4.7,15.7-6.2c11.6-3.3,26.6-1.9,37.8,4
				c7,3.6,12.9,9.9,14.8,16.6c5.4-6.5,14.4-10.7,24.7-10.7c16,0,33.7,11,44.5,20.7c5,4.5,9.6,9.6,13.4,14.8c5.7,7.9,10,13.6,16,20.4
				c16.8,18.9,40.6,21.6,40.6,21.6s-26.4,14.8-53.7,12c-20.1-2.1-34.7-10-43.8-14.9c-20.1-10.9-32.7-24.2-40-33.3
				c-3.5-4-5.8-8.6-6.5-13.5c-2.3,2.4-5.2,4.3-8.5,5.6c-8.9,4.2-23.4,9.5-42.2,10.3c-8.4,0.4-20.5-0.3-35.5-6.1
				c-20.5-7.9-34.9-30.5-34.9-30.5S122.5,242.4,142.3,234.4z"/>
			<path class="st18" d="M226.8,250.8c6.6,15.7,40.1,46.1,52.2,51.1c50.8,20.9,90.5,4.2,90.5,4.2s-26.4,14.8-53.7,12
				c-20.1-2.1-34.7-10-43.8-14.9c-20.1-10.9-32.7-24.2-40-33.3c-3.5-4-5.8-8.6-6.5-13.5c-2.3,2.4-5.2,4.3-8.5,5.6
				c-8.9,4.2-23.4,9.5-42.2,10.3c-8.4,0.4-20.5-0.3-35.5-6.1c-20.5-7.9-34.9-30.5-34.9-30.5s19,23.2,49.2,29
				C171.5,268,198.4,264.3,226.8,250.8z"/>
		</g>
	</g>
	<g>
		<g id="sombrero_x5F_frente_4_">
			<path class="st2" d="M395.6,111.1C388.1,77.5,378.8,40,348.7,17C332.5,4.6,313.1,4,294,9.7c-35,10.5-60.8,30.2-78,45.8
				L395.6,111.1z"/>
			<path class="st7" d="M395.6,111.1c-4.1-18.2-8.7-37.5-16.8-55c8,52.3-127.3-2-141.1-18.1c-8.3,6-15.5,12-21.7,17.6L395.6,111.1z"
				/>
			<path class="st2" d="M399.9,171.2c-149.3-48-283.8-66.1-387.7-66.4c-4.6-1.5-15.8-63.7,4.1-66c78.6-13.5,190.4,8.9,190.4,8.9
				c89.8,21.9,122.5,35,140.2,41.4c61.6,22.2,113.2,38.4,149.3,62.6c3.4,2.3,11.6,5.9,13.2,9.7c4.2,10.2,1.5,45-1.2,46.6
				C475.5,192.1,434.6,182.4,399.9,171.2z"/>
			<path class="st19" d="M508.6,176.3c0,0-7.9,11.7-12,10.8c-6.7-1.6-5.3-18.8-12.9-21.1c-6.8-2-12.6,10.4-19.6,8.6
				c-8.7-2.2-6.7-23.1-15.2-25.8c-6.5-2-11.7,13.6-18.9,12.6c-9.3-1.4-8.6-27.8-18.7-30c-8.8-1.9-15.8,16.8-25.8,15.8
				s-7.9-27.3-18.1-29.9c-9.2-2.3-16.1,16.5-26.8,15.1c-13.7-1.7-14.1-33.3-28.1-35.8c-13.2-2.4-22.7,24-35.2,21.5
				c-13.8-2.8-11.8-36.9-25.5-40c-13.9-3.1-26.1,30.2-41.3,27.6c-15.7-2.7-15.9-40.3-30.2-42.1c-13.7-1.7-21.7,31.8-39,32.7
				c-16.4,0.9-19.8-39.8-36.4-41c-16.1-1.2-23.4,34.2-42,34.1c-18.2-0.1-27.1-34.3-42.2-32.2c-7.4,1-12.4,10.3-15.6,19l0.8,8.1
				c3.2-8.7,6.4-14.6,13.8-15.6c15.1-2.1,24,32.1,42.2,32.2c18.6,0.1,25.9-35.3,41.9-34.1c16.6,1.3,20,41.9,36.4,41
				c17.3-0.9,25.3-34.5,39-32.7c14.3,1.8,14.6,39.4,30.2,42.1c15.2,2.6,27.4-30.7,41.3-27.6c13.7,3,11.7,37.2,25.5,40
				c12.5,2.5,21.9-23.9,35.2-21.5c14,2.5,14.4,34.1,28.1,35.8c10.8,1.3,17.7-17.4,26.8-15.1c10.3,2.6,8.1,28.9,18.1,29.9
				c10.1,1,17-17.7,25.8-15.8c10.1,2.2,9.4,28.6,18.7,30c7.1,1,12.3-14.6,18.9-12.6c8.5,2.6,6.5,23.5,15.2,25.8
				c7,1.8,12.8-10.7,19.6-8.6c7.6,2.3,6.2,19.5,12.9,21.1c4,1,9.8-6.7,13.5-13L508.6,176.3z"/>
			<path class="st3" d="M510,168.6c0,0-7.9,11.7-12,10.8c-6.7-1.6-5.3-18.8-12.9-21.1c-6.8-2-12.6,10.4-19.6,8.6
				c-8.7-2.2-6.7-23.1-15.2-25.8c-6.5-2-11.7,13.6-18.9,12.6c-9.3-1.4-8.6-27.8-18.7-30c-8.8-1.9-15.8,16.8-25.8,15.8
				s-7.9-27.3-18.1-29.9c-9.2-2.3-16.1,16.5-26.8,15.1c-13.7-1.7-14.1-33.3-28.1-35.8c-13.2-2.4-22.7,24-35.2,21.5
				c-13.8-2.8-11.8-36.9-25.5-40c-13.9-3.1-26.1,30.2-41.3,27.6c-15.7-2.7-15.9-40.3-30.2-42.1c-13.7-1.7-21.7,31.8-39,32.7
				c-16.4,0.9-19.8-39.8-36.4-41c-16.1-1.3-23.4,34.2-42,34.1C46,81.6,37.1,47.4,22.1,49.5c-7.4,1-12.4,10.3-15.6,19l0.8,8.1
				C10.5,67.9,13.7,62,21.1,61c15.1-2.1,24,32.1,42.2,32.2c18.6,0.1,25.9-35.3,41.9-34.1c16.6,1.3,20,41.9,36.4,41
				c17.3-0.9,25.3-34.5,39-32.7c14.3,1.8,14.6,39.4,30.2,42.1c15.2,2.6,27.4-30.7,41.3-27.6c13.7,3,11.7,37.2,25.5,40
				c12.5,2.5,21.9-23.9,35.2-21.5c14,2.5,14.4,34.1,28.1,35.8c10.8,1.3,17.7-17.4,26.8-15.1c10.3,2.6,8.1,28.9,18.1,29.9
				c10.1,1,17-17.7,25.8-15.8c10.1,2.2,9.4,28.6,18.7,30c7.1,1,12.3-14.6,18.9-12.6c8.5,2.6,6.5,23.5,15.2,25.8
				c7,1.8,12.8-10.7,19.6-8.6c7.6,2.3,6.2,19.5,12.9,21.1c4,1,9.8-6.7,13.5-13L510,168.6z"/>
		</g>
	</g>
</g>
</svg>
