<?xml version="1.0" encoding="utf-8"?>
<!-- Generator: Adobe Illustrator 24.3.0, SVG Export Plug-In . SVG Version: 6.00 Build 0)  -->
<svg version="1.1" id="Capa_1" xmlns="http://www.w3.org/2000/svg" xmlns:xlink="http://www.w3.org/1999/xlink" x="0px" y="0px"
	 viewBox="0 0 535.7 635" style="enable-background:new 0 0 535.7 635;" xml:space="preserve">
<style type="text/css">
	.st0{fill:#D91438;}
	.st1{fill:#FFFFFF;}
	.st2{fill:#0088E0;}
	.st3{fill:#4676ED;}
	.st4{fill:#FEFEFE;}
	.st5{fill:url(#Elipse_9_1_);}
</style>
<g id="Grupo_599" transform="translate(913.408 -958.192)">
	<circle id="Elipse_57" class="st0" cx="-821" cy="1395.9" r="36.9"/>
	<path id="Trazado_854" class="st1" d="M-800.2,1393.8c-2.1,3.9-10.5,13.2-16,19c-2.5,2.7-6.7,2.8-9.3,0.3c-0.1-0.1-0.1-0.1-0.2-0.2
		c-5.2-5.2-13.1-13.3-15.5-16.8c-3.1-4.4-3.3-14.6,5.2-17.4s14.6,4.3,14.6,4.3l0,0.1l0-0.1c0,0,5.3-7.7,14-6
		S-797.6,1389.1-800.2,1393.8z"/>
</g>
<g id="Grupo_600" transform="translate(886.408 -936.192)">
	<circle id="Elipse_58" class="st0" cx="-389.8" cy="1189.3" r="36.9"/>
	<path id="Trazado_855" class="st1" d="M-369,1187.2c-2.1,3.9-10.5,13.2-16,19c-2.5,2.7-6.7,2.8-9.3,0.3c-0.1-0.1-0.1-0.1-0.2-0.2
		c-5.2-5.2-13.1-13.3-15.5-16.8c-3.1-4.4-3.3-14.6,5.2-17.4s14.6,4.3,14.6,4.3l0,0.1l0-0.1c0,0,5.3-7.7,14-6
		S-366.4,1182.5-369,1187.2z"/>
</g>
<g id="Grupo_601" transform="translate(903.408 -921.192)">
	<circle id="Elipse_59" class="st0" cx="-843.7" cy="980.9" r="59.7"/>
	<path id="Trazado_856" class="st1" d="M-809.9,977.5c-3.4,6.2-17,21.3-25.8,30.7c-4,4.3-10.8,4.6-15.1,0.5
		c-0.1-0.1-0.2-0.2-0.3-0.2c-8.4-8.4-21.1-21.4-25.1-27.1c-5-7.1-5.3-23.6,8.4-28.1c13.7-4.5,23.6,7,23.6,7l0,0.2l0-0.2
		c0,0,8.5-12.5,22.7-9.7C-807.4,953.4-805.8,969.9-809.9,977.5z"/>
</g>
<g id="Grupo_602" transform="translate(916.408 -868.192)">
	<circle id="Elipse_60" class="st0" cx="-449" cy="1305.6" r="37.1"/>
	<path id="Trazado_857" class="st1" d="M-428,1303.5c-2.1,3.9-10.6,13.2-16,19.1c-2.5,2.7-6.7,2.8-9.4,0.3c-0.1-0.1-0.1-0.1-0.2-0.2
		c-5.2-5.2-13.1-13.3-15.6-16.8c-3.1-4.4-3.3-14.7,5.2-17.4s14.7,4.3,14.7,4.3l0,0.1l0-0.1c0,0,5.3-7.8,14.1-6
		S-425.5,1298.8-428,1303.5z"/>
</g>
<g id="Grupo_603" transform="translate(911.408 -882.192)">
	<g id="Grupo_520">
		<circle id="Elipse_61" class="st2" cx="-864.7" cy="1480.3" r="36.9"/>
	</g>
	<g id="Grupo_521">
		<rect id="Rect치ngulo_313" x="-886" y="1477.2" class="st1" width="12.3" height="20.3"/>
		<path id="Trazado_858" class="st1" d="M-871.3,1497.5v-20.3c4.6-3.1,7.1-8.5,6.5-14c-0.2-1.6-0.6-3.5,0.6-4.5
			c1-0.9,2.7-0.6,3.8,0.1c1.4,1.1,2.4,2.6,2.8,4.3c0.4,1.7,0.5,3.5,0.2,5.2c-0.2,1.9-0.5,3.9-1,5.8l9.1-0.8c1-0.1,2-0.1,3,0
			c1,0.2,1.9,0.8,2.5,1.6c0.3,0.7,0.5,1.5,0.4,2.3c0,1.6-0.8,3.2-2.2,4.1c1.3,0.1,1.9,1.8,1.5,3c-0.6,1.2-1.5,2.1-2.6,2.7
			c0.8,0.6,1.1,1.6,1,2.6c-0.2,1-0.9,1.8-1.8,2.1c0.8,1.5-0.1,3.5-1.6,4.4c-1.5,0.8-3.3,1.1-5,1
			C-860,1497.3-865.4,1497.4-871.3,1497.5C-871.3,1497.6-871.2,1497.6-871.3,1497.5C-871.3,1497.4-871.3,1497.4-871.3,1497.5z"/>
	</g>
</g>
<g id="Grupo_604" transform="translate(943.408 -909.192)">
	<g id="Grupo_523">
		<circle id="Elipse_62" class="st2" cx="-872.1" cy="1181.7" r="29.5"/>
	</g>
	<g id="Grupo_524">
		
			<rect id="Rect치ngulo_314" x="-888" y="1181.2" transform="matrix(0.9861 -0.1663 0.1663 0.9861 -210.0801 -130.2971)" class="st1" width="9.8" height="16.2"/>
		<path id="Trazado_859" class="st1" d="M-875,1196.1l-2.7-16c3.2-3.1,4.5-7.6,3.2-11.9c-0.4-1.2-0.9-2.6-0.2-3.6c0.8-0.8,2-1,3-0.4
			c1.3,0.6,2.3,1.7,2.8,3c0.5,1.3,0.8,2.7,0.9,4.1c0.1,1.6,0.1,3.1-0.1,4.7l7.1-1.8c0.8-0.2,1.6-0.4,2.4-0.4c0.8,0,1.6,0.3,2.2,0.9
			c0.4,0.5,0.6,1.1,0.6,1.7c0.2,1.3-0.2,2.6-1.2,3.5c1-0.1,1.7,1.1,1.5,2.1c-0.3,1-0.9,1.9-1.7,2.5c0.7,0.4,1.1,1.1,1.1,1.9
			c0,0.8-0.5,1.5-1.2,1.9c0.7,1.2,0.5,2.8-0.7,3.7c-1.1,0.8-2.4,1.3-3.8,1.5C-866.1,1194.5-870.4,1195.3-875,1196.1
			C-875,1196.2-874.9,1196.2-875,1196.1C-875,1196.1-875,1196.1-875,1196.1z"/>
	</g>
</g>
<g id="Grupo_605" transform="translate(896.408 -922.192)">
	<g id="Grupo_526">
		<circle id="Elipse_63" class="st2" cx="-398.6" cy="990" r="37.8"/>
	</g>
	<g id="Grupo_527">
		
			<rect id="Rect치ngulo_315" x="-425.4" y="988.2" transform="matrix(0.1691 -0.9856 0.9856 0.1691 -1325.0482 417.2633)" class="st1" width="20.7" height="12.6"/>
		<path id="Trazado_860" class="st1" d="M-408.1,1006.3l3.5-20.4c5.2-2.3,8.6-7.4,9-13c0-1.6,0-3.6,1.3-4.5c1.2-0.8,2.8-0.2,3.8,0.8
			c1.3,1.3,2,3,2.1,4.8c0.1,1.8-0.1,3.6-0.7,5.3c-0.5,1.9-1.2,3.8-2,5.6l9.3,0.8c1,0,2.1,0.2,3,0.6c1,0.3,1.8,1.1,2.2,2.1
			c0.2,0.8,0.2,1.6,0,2.4c-0.3,1.6-1.4,3-2.9,3.8c1.3,0.3,1.6,2.1,1,3.3c-0.8,1.1-1.8,1.9-3.1,2.3c0.7,0.8,0.8,1.9,0.5,2.8
			c-0.4,1-1.2,1.6-2.2,1.8c0.6,1.7-0.7,3.5-2.4,4.1c-1.7,0.5-3.5,0.5-5.2,0.1c-5.9-0.8-11.4-1.7-17.3-2.6
			C-408.2,1006.3-408.1,1006.4-408.1,1006.3C-408.2,1006.2-408.1,1006.1-408.1,1006.3z"/>
	</g>
</g>
<g id="Grupo_606" transform="translate(961.408 -921.192)">
	<g id="Grupo_529">
		<circle id="Elipse_64" class="st2" cx="-456.7" cy="1496.1" r="28.4"/>
	</g>
	<g id="Grupo_530">
		
			<rect id="Rect치ngulo_316" x="-472.1" y="1495.5" transform="matrix(0.9878 -0.156 0.156 0.9878 -240.1718 -54.4927)" class="st1" width="9.5" height="15.6"/>
		<path id="Trazado_861" class="st1" d="M-459.6,1509.9l-2.4-15.4c3.1-2.9,4.4-7.3,3.2-11.4c-0.4-1.2-0.9-2.6-0.1-3.5
			c0.8-0.8,2-0.9,2.9-0.4c1.2,0.6,2.1,1.7,2.6,2.9c0.5,1.3,0.8,2.6,0.8,3.9c0.1,1.5,0.1,3-0.1,4.5l6.8-1.7c0.7-0.2,1.5-0.3,2.3-0.3
			c0.8,0,1.5,0.3,2.1,0.9c0.3,0.5,0.5,1.1,0.6,1.7c0.2,1.2-0.3,2.5-1.1,3.4c1-0.1,1.6,1.1,1.5,2.1c-0.3,0.9-0.9,1.8-1.6,2.4
			c0.7,0.4,1.1,1.1,1,1.9c0,0.8-0.5,1.5-1.1,1.8c0.7,1.2,0.4,2.7-0.7,3.5c-1.1,0.8-2.3,1.2-3.7,1.4
			C-451,1508.5-455.2,1509.2-459.6,1509.9C-459.7,1510-459.6,1510-459.6,1509.9C-459.7,1509.9-459.6,1509.9-459.6,1509.9z"/>
	</g>
</g>
<g id="Grupo_607" transform="translate(177.232 83.799)">
	<path id="Trazado_367" class="st3" d="M87,204.9c-3.4-0.5-6.7-1.1-10-2c-11.7-3-22.8-8.1-32.8-15.1c-17.3-12-30.4-29-37.8-48.6
		c-3.2-8.6-5.3-17.6-6.1-26.8c-1.1-12.1,0-24.4,3.1-36.1c2.4-8.9,6-17.5,10.7-25.4c7.1-12.1,16.7-22.7,28.1-31
		C50.3,14,59,9.3,68.3,6c16.1-5.8,33.5-7.5,50.4-4.8c13.9,2.1,27.3,7.1,39.2,14.6c48.2,30.3,62.8,93.9,32.5,142.2
		c-15.7,24.9-41.3,42-70.3,46.9c-0.3,0-0.6,0.1-0.9,0.1c0-0.4,0-0.9,0-1.3c0-23.2,0-46.4,0-69.6c0-1.3-0.1-1.1,1.2-1.1
		c7.3,0,14.7,0,22,0c0.6,0,0.9-0.1,1-0.8c1.4-9.4,2.8-18.7,4.3-28.1c0.1-0.9-0.1-0.9-0.8-0.9c-8.9,0-17.7,0-26.6,0
		c-0.8,0-1.1-0.2-1.1-1c0-6.1,0-12.2,0-18.3c0-1.2,0.1-2.4,0.3-3.5c0.4-3.2,1.9-6.2,4.2-8.5c2.9-2.6,6.6-4,10.5-4
		c4.6-0.2,9.3-0.1,13.9-0.1c0.7,0,1-0.1,1-0.9c0-7.9,0-15.7,0-23.6c0-0.7-0.2-0.9-0.9-1c-6.3-1-12.7-1.6-19-1.8
		c-6.8-0.3-13.4,0.4-19.8,2.8c-7.5,2.8-13.8,8.3-17.5,15.5c-3,5.8-4.6,12.3-4.7,18.9c-0.2,8.2-0.1,16.4-0.1,24.6c0,0.8-0.2,1-1,1
		c-8.1,0-16.2,0-24.2,0c-0.8,0-1,0.2-1,1c0,9.3,0,18.6,0,27.8c0,0.9,0.3,1,1.1,1c8,0,16,0,24,0c1.3,0,1.1-0.1,1.1,1.1
		c0,23.2,0,46.4,0,69.6C87,204.1,87,204.5,87,204.9z"/>
	<path id="Trazado_368" class="st4" d="M87,204.9c0-0.4,0-0.8,0-1.2c0-23.2,0-46.4,0-69.6c0-1.3,0.2-1.1-1.2-1.1c-8,0-16,0-24,0
		c-0.8,0-1.1-0.2-1.1-1c0-9.3,0-18.6,0-27.8c0-0.8,0.2-1,1-1c8.1,0,16.2,0,24.3,0c0.8,0,1-0.2,1-1c0-8.2-0.1-16.4,0.1-24.6
		c0.1-6.6,1.7-13.1,4.7-18.9c3.7-7.1,9.9-12.7,17.5-15.5c6.4-2.5,13-3.1,19.8-2.8c6.4,0.3,12.7,0.9,19,1.8c0.7,0.1,0.9,0.3,0.9,1
		c0,7.9,0,15.7,0,23.6c0,0.8-0.3,0.9-1,0.9c-4.6,0-9.3-0.1-13.9,0.1c-3.9,0-7.6,1.4-10.5,4c-2.3,2.3-3.8,5.3-4.2,8.5
		c-0.2,1.2-0.3,2.3-0.3,3.5c0,6.1,0,12.2,0,18.3c0,0.9,0.3,1,1.1,1c8.9,0,17.7,0,26.6,0c0.7,0,1,0.1,0.8,0.9
		c-1.5,9.4-2.9,18.7-4.3,28.1c-0.1,0.7-0.3,0.8-1,0.8c-7.3,0-14.7,0-22,0c-1.3,0-1.2-0.2-1.2,1.1c0,23.2,0,46.4,0,69.6
		c0,0.4,0,0.9,0,1.3c-1.5,0.3-3.1,0.6-4.6,0.7c-8.3,0.9-16.7,0.8-25-0.3C88.7,205.2,87.9,205.1,87,204.9z"/>
</g>
<g id="Grupo_608" transform="translate(177.603 354.245)">
	
		<radialGradient id="Elipse_9_1_" cx="-867.7928" cy="503.2643" r="1.603" fx="-867.9547" fy="503.2643" gradientTransform="matrix(204.398 0 0 -204.398 177419.8906 103076.9531)" gradientUnits="userSpaceOnUse">
		<stop  offset="0" style="stop-color:#F9ED32"/>
		<stop  offset="1.500000e-02" style="stop-color:#F8E235"/>
		<stop  offset="0.105" style="stop-color:#F5AB4A"/>
		<stop  offset="0.192" style="stop-color:#F27C5B"/>
		<stop  offset="0.275" style="stop-color:#F05869"/>
		<stop  offset="0.352" style="stop-color:#EF3F73"/>
		<stop  offset="0.421" style="stop-color:#EE2F78"/>
		<stop  offset="0.476" style="stop-color:#EE2A7B"/>
		<stop  offset="0.582" style="stop-color:#AC2A9F"/>
		<stop  offset="0.692" style="stop-color:#6F2AC1"/>
		<stop  offset="0.792" style="stop-color:#3F2ADB"/>
		<stop  offset="0.88" style="stop-color:#1C2AEF"/>
		<stop  offset="0.953" style="stop-color:#072AFA"/>
		<stop  offset="1" style="stop-color:#002AFF"/>
	</radialGradient>
	<ellipse id="Elipse_9" class="st5" cx="102.2" cy="102.2" rx="102.2" ry="102.2"/>
	<g id="Grupo_249" transform="translate(35.876 38.896)">
		<g id="Grupo_246" transform="translate(0)">
			<path id="Trazado_376" class="st1" d="M91.7,126.6H40.9C18.3,126.6,0,108.3,0,85.7V40.9C0,18.3,18.3,0,40.9,0h50.8
				c22.6,0,40.9,18.3,40.9,40.9v44.8C132.6,108.3,114.3,126.6,91.7,126.6z M40.9,9.1C23.3,9.1,9.1,23.3,9.1,40.9v44.8
				c0,17.6,14.3,31.8,31.8,31.8h50.8c17.6,0,31.8-14.3,31.8-31.8V40.9c0-17.6-14.3-31.8-31.8-31.8L40.9,9.1z"/>
		</g>
		<g id="Grupo_247" transform="translate(29.909 26.888)">
			<path id="Trazado_377" class="st1" d="M36.4,72.8C16.3,72.8,0,56.5,0,36.4C0,16.3,16.3,0,36.4,0c20.1,0,36.4,16.3,36.4,36.4
				C72.8,56.5,56.5,72.8,36.4,72.8z M36.4,9.1C21.3,9.1,9.1,21.3,9.1,36.4c0,15.1,12.2,27.3,27.3,27.3c15.1,0,27.3-12.2,27.3-27.3
				C63.7,21.3,51.5,9.1,36.4,9.1z"/>
		</g>
		<g id="Grupo_248" transform="translate(94.624 20.452)">
			<path id="Trazado_378" class="st1" d="M15.1,7.6c0,4.2-3.4,7.6-7.6,7.6c0,0,0,0,0,0C3.4,15.1,0,11.7,0,7.6c0,0,0,0,0,0
				C0,3.4,3.4,0,7.6,0c0,0,0,0,0,0C11.7,0,15.1,3.4,15.1,7.6L15.1,7.6z"/>
		</g>
	</g>
</g>
</svg>
